ply
format ascii 1.0
element vertex 211
property float x
property float y
property float z
element face 198
property list uchar int vertex_index
end_header
23.75021 80.80838 -17.770109
17.561028 85.886665 -9.737833
10.181911 84.713005 -20.462393
30.293816 79.457817 -7.564821
27.030661 76.370193 -20.047514
20.432968 83.814522 -14.342196
13.798399 86.247391 -15.313969
16.599089 83.338814 -19.35116
12.87849 80.914307 -23.85359
5.283703 84.121857 -20.717611
3.059479 79.236282 -25.245634
7.108955 81.16304 -25.087946
27.349192 80.753609 -12.954399
30.832235 77.638504 -16.12137
33.848232 77.333839 -11.426394
23.954252 82.73069 -8.853134
21.78117 80.194481 -19.942919
25.425289 78.788597 -19.041159
22.063915 82.462341 -16.207434
18.531044 83.806358 -16.910891
20.135534 82.173149 -18.591345
18.171263 81.411118 -20.837416
11.943459 85.735779 -17.947447
7.503386 84.70784 -20.712442
6.083651 82.827728 -23.093061
8.560108 83.179199 -22.847372
28.90942 80.220543 -10.320295
30.688951 79.099556 -12.19418
32.071434 78.540215 -9.580206
27.167192 81.096123 -8.244808
25.611229 81.844398 -11.020781
18.918215 84.936897 -12.179604
15.690479 86.278656 -12.573114
17.032631 85.155281 -14.899389
15.122677 84.933472 -17.506601
13.245926 84.220955 -19.993479
11.458603 82.998505 -22.355165
14.695663 82.37571 -21.664057
4.08399 81.883759 -23.068884
4.847708 80.494682 -25.313425
9.807915 81.278687 -24.586138
25.620995 80.975502 -15.441811
27.345013 79.293198 -16.935369
29.110023 79.37616 -14.652563
32.449871 77.654388 -13.867785
19.356644 85.143913 -6.824348
22.421871 83.479271 -6.459515
20.727962 84.351204 -9.360111
22.253586 83.42865 -11.651333
23.902388 82.32798 -13.681353
29.012093 77.222939 -18.176916
16.044711 86.550777 -9.849647
16.967859 86.288776 -8.390635
9.638578 85.402752 -19.327393
10.519352 85.914139 -18.06992
11.062685 85.224392 -19.20492
8.842648 84.710422 -20.587418
8.299316 85.40017 -19.452417
9.638578 85.402752 -19.327393
28.730504 80.27697 -7.904815
27.864535 80.628441 -6.812733
29.427847 79.809288 -6.472739
25.990552 75.723038 -20.9086
24.176839 76.452759 -21.378874
25.216947 77.099914 -20.517788
27.777766 74.967704 -20.439386
26.737656 74.320549 -21.300472
25.990552 75.723038 -20.9086
17.202041 80.785927 -21.897795
18.972368 80.25969 -21.407742
13.229102 86.785786 -14.058079
14.175142 86.801418 -12.687652
14.744439 86.263024 -13.943542
5.000007 84.599335 -19.364288
5.97488 85.00922 -19.466566
4.42314 83.517933 -20.596991
4.139444 83.995411 -19.243668
5.000007 84.599335 -19.364288
4.683846 83.002808 -21.893248
3.823284 82.398884 -21.772627
4.42314 83.517933 -20.596991
6.475499 79.939717 -26.126484
5.344876 79.605537 -26.239224
5.978331 80.828861 -25.200685
34.711556 76.554771 -12.264436
34.012375 76.715046 -13.485131
33.149051 77.494113 -12.647089
20.196064 84.634274 -5.338603
18.750143 85.481506 -5.445025
19.589563 84.971867 -3.95928
23.188061 83.10498 -7.656325
23.966418 82.641152 -6.214724
24.732608 82.266861 -7.411534
2.397358 78.318184 -25.072357
2.155695 78.868279 -23.840044
2.817816 79.786377 -24.013321
22.592202 79.012058 -20.465491
20.777321 79.651371 -20.960493
24.414262 78.309116 -20.01461
22.592202 79.012058 -20.465491
23.603229 79.491539 -19.492039
26.227975 77.579395 -19.544337
25.216947 77.099914 -20.517788
24.414262 78.309116 -20.01461
20.777321 79.651371 -20.960493
18.972368 80.25969 -21.407742
19.976216 80.802799 -20.390168
11.386505 86.34885 -16.749004
12.313975 86.604657 -15.432265
12.870929 85.991585 -16.630708
11.386505 86.34885 -16.749004
10.519352 85.914139 -18.06992
7.084721 85.302212 -19.463981
8.299316 85.40017 -19.452417
6.393544 84.414849 -20.715027
5.97488 85.00922 -19.466566
7.084721 85.302212 -19.463981
12.037519 79.950214 -24.88792
13.629744 79.678078 -24.411509
26.339078 81.449578 -7.107371
27.864535 80.628441 -6.812733
25.560722 81.913407 -8.548971
24.732608 82.266861 -7.411534
26.339078 81.449578 -7.107371
31.64659 76.568325 -16.747737
32.484885 76.732925 -15.733373
2.991134 77.002167 -27.285992
2.625115 77.737026 -26.234071
3.425498 78.501423 -26.297554
15.464241 81.268223 -22.311115
16.433463 81.893414 -21.250737
17.202041 80.785927 -21.897795
14.555654 80.537521 -23.405882
13.787076 81.645008 -22.758823
15.464241 81.268223 -22.311115
13.629744 79.678078 -24.411509
14.555654 80.537521 -23.405882
32.385434 78.153481 -5.781819
31.77863 78.615338 -7.203984
30.900621 78.99596 -6.142656
30.900621 78.99596 -6.142656
29.427847 79.809288 -6.472739
15.109436 86.746773 -11.267288
16.044711 86.550777 -9.849647
16.625754 86.082661 -11.155473
15.109436 86.746773 -11.267288
14.175142 86.801418 -12.687652
13.229102 86.785786 -14.058079
12.313975 86.604657 -15.432265
3.330071 81.110116 -22.924946
3.823284 82.398884 -21.772627
3.571734 80.560021 -24.157259
2.817816 79.786377 -24.013321
3.330071 81.110116 -22.924946
4.319612 79.130623 -26.331449
3.425498 78.501423 -26.297554
3.953594 79.865482 -25.279529
4.319612 79.130623 -26.331449
5.344876 79.605537 -26.239224
10.502231 80.132405 -25.254194
11.343203 81.096497 -24.219864
12.037519 79.950214 -24.88792
9.067074 80.191517 -25.631241
10.502231 80.132405 -25.254194
7.717594 80.133693 -25.882145
8.458435 81.220864 -24.837042
9.067074 80.191517 -25.631241
6.475499 79.939717 -26.126484
7.717594 80.133693 -25.882145
33.293703 76.740868 -14.606581
32.484885 76.732925 -15.733373
31.641053 77.646446 -14.994577
33.293703 76.740868 -14.606581
34.012375 76.715046 -13.485131
32.667439 78.156537 -8.211676
31.182625 78.999016 -8.572513
31.77863 78.615338 -7.203984
33.551338 77.64489 -9.203264
32.667439 78.156537 -8.211676
34.439737 77.041702 -10.126358
32.959833 77.937027 -10.5033
33.551338 77.64489 -9.203264
35.309656 76.369712 -11.046513
34.439737 77.041702 -10.126358
36.172979 75.590644 -11.884555
34.711556 76.554771 -12.264436
35.309656 76.369712 -11.046513
17.865668 85.9174 -6.933892
18.750143 85.481506 -5.445025
18.458836 85.515289 -8.28109
16.967859 86.288776 -8.390635
17.865668 85.9174 -6.933892
23.198059 82.937191 -4.98037
23.966418 82.641152 -6.214724
21.728677 83.801952 -5.156186
23.198059 82.937191 -4.98037
20.889257 84.311592 -6.641932
20.196064 84.634274 -5.338603
21.728677 83.801952 -5.156186
30.736519 76.360543 -17.77551
29.922164 77.430722 -17.149143
31.64659 76.568325 -16.747737
29.792204 75.985138 -18.684471
30.736519 76.360543 -17.77551
28.801488 75.558765 -19.61977
28.021377 76.796566 -19.112215
29.792204 75.985138 -18.684471
27.777766 74.967704 -20.439386
28.801488 75.558765 -19.61977
2.397358 78.318184 -25.072357
2.625115 77.737026 -26.234071
3 0 17 16
3 0 20 18
3 0 16 20
3 1 51 52
3 2 53 55
3 55 54 22
3 53 54 55
3 2 56 58
3 56 23 57
3 56 57 58
3 2 25 23
3 3 28 26
3 3 59 61
3 59 29 60
3 59 60 61
3 3 26 29
3 4 62 64
3 62 63 64
3 4 65 67
3 65 66 67
3 5 33 31
3 7 34 19
3 7 35 34
3 7 37 35
3 69 68 21
3 6 70 72
3 72 71 32
3 70 71 72
3 9 73 74
3 9 75 77
3 75 76 77
3 9 78 80
3 78 38 79
3 78 79 80
3 11 39 24
3 11 81 83
3 83 82 39
3 81 82 83
3 8 40 36
3 12 43 41
3 14 44 27
3 14 84 86
3 86 85 44
3 84 85 86
3 87 45 88
3 87 88 89
3 15 90 92
3 90 46 91
3 90 91 92
3 15 47 46
3 15 48 47
3 12 49 30
3 12 41 49
3 13 50 42
3 10 93 95
3 93 94 95
3 16 96 97
3 17 98 100
3 100 99 16
3 98 99 100
3 17 101 103
3 101 4 102
3 101 102 103
3 18 19 5
3 20 19 18
3 20 7 19
3 20 21 7
3 16 21 20
3 16 104 106
3 106 105 21
3 104 105 106
3 22 107 109
3 109 108 6
3 107 108 109
3 111 110 22
3 23 112 113
3 23 114 116
3 114 9 115
3 114 115 116
3 23 24 9
3 25 24 23
3 25 11 24
3 118 117 8
3 26 27 12
3 28 27 26
3 28 14 27
3 29 119 120
3 29 121 123
3 121 15 122
3 121 122 123
3 29 30 15
3 26 30 29
3 26 12 30
3 125 124 13
3 128 127 10
3 126 127 128
3 31 32 1
3 33 32 31
3 33 6 32
3 19 33 5
3 34 33 19
3 34 6 33
3 34 22 6
3 35 22 34
3 35 2 22
3 35 36 2
3 37 36 35
3 37 8 36
3 21 37 7
3 129 37 130
3 131 130 21
3 129 130 131
3 132 8 133
3 134 133 37
3 132 133 134
3 136 135 8
3 139 138 3
3 137 138 139
3 140 3 141
3 32 142 144
3 144 143 1
3 142 143 144
3 146 145 32
3 148 147 6
3 38 149 150
3 38 151 153
3 151 10 152
3 151 152 153
3 24 38 9
3 39 38 24
3 39 10 38
3 39 154 156
3 156 155 10
3 154 155 156
3 158 157 39
3 36 25 2
3 40 25 36
3 40 11 25
3 159 40 160
3 161 160 8
3 159 160 161
3 162 40 163
3 164 11 165
3 166 165 40
3 164 165 166
3 168 167 11
3 41 42 0
3 43 42 41
3 43 13 42
3 27 43 12
3 44 43 27
3 44 13 43
3 44 169 171
3 171 170 13
3 169 170 171
3 173 172 44
3 174 28 175
3 176 175 3
3 174 175 176
3 177 28 178
3 179 14 180
3 181 180 28
3 179 180 181
3 182 14 183
3 186 185 14
3 184 185 186
3 45 187 188
3 45 189 191
3 189 1 190
3 189 190 191
3 46 192 193
3 46 194 195
3 46 196 198
3 196 45 197
3 196 197 198
3 47 45 46
3 47 1 45
3 47 31 1
3 48 31 47
3 48 5 31
3 30 48 15
3 49 48 30
3 49 5 48
3 49 18 5
3 41 18 49
3 41 0 18
3 42 17 0
3 50 17 42
3 50 4 17
3 199 50 200
3 201 200 13
3 199 200 201
3 202 50 203
3 204 4 205
3 206 205 50
3 204 205 206
3 208 207 4
3 210 209 10
