ply
format ascii 1.0
element vertex 397
property float x
property float y
property float z
element face 438
property list uchar int vertex_index
end_header
38.113705 22.738529 5.855444
39.37521 -9.229338 10.868705
43.972466 20.809525 8.364885
38.21384 36.627705 -0.42765
37.802086 6.137817 2.243454
39.055138 6.370296 9.106703
43.844425 4.926525 11.826288
50.940903 2.91194 11.220535
36.417244 20.926556 -1.394264
37.31966 14.611977 4.793999
37.982822 6.559826 6.145959
38.611416 14.669212 7.729095
47.73888 19.175411 8.167545
43.99543 12.89282 10.015154
47.583496 11.578362 9.707941
47.239311 3.955757 11.766649
51.310772 10.171793 8.971285
37.87495 30.183357 3.217834
36.365322 29.44997 -0.09824
36.687099 22.371334 2.761727
37.07827 13.653709 0.75845
39.007126 -8.723466 7.312295
40.529278 29.737328 5.437211
40.636677 22.113564 7.698039
44.021858 28.385693 6.568343
40.888275 36.515949 2.247145
40.637611 -9.684425 13.634786
38.520157 -1.378504 6.937429
39.279221 -1.739285 10.13611
40.904266 14.000488 9.444124
41.042648 5.765482 10.999386
40.911655 -2.236435 12.432501
43.418877 -2.822905 13.727684
46.658417 -3.481256 14.10829
36.60025 35.454918 -3.875713
36.001148 27.546677 -4.253658
37.106358 18.634254 -6.284161
37.526772 18.778027 5.523236
37.833096 14.747147 6.410876
38.351685 18.757645 6.869
47.673733 15.393154 8.875329
49.565636 14.609943 8.53363
49.4524 10.882769 9.358572
37.94025 26.563145 4.650766
37.053055 26.438499 3.188004
37.252884 22.691307 4.458613
36.983269 18.552204 3.871736
39.09166 -8.98491 9.173973
42.315304 32.70253 4.823069
42.197281 29.149708 6.126059
42.946419 39.100285 1.408722
42.56004 36.029572 3.258709
40.634415 33.252743 3.978616
38.151619 2.404671 2.731031
38.4035 6.530293 7.754488
38.268669 2.54846 6.604351
38.623833 2.449589 8.24701
38.796513 -1.53661 8.63866
39.195831 2.264702 9.660467
42.225594 21.522961 8.163486
40.77042 18.095119 8.609745
42.300621 17.533833 9.02692
43.953304 8.898647 10.897243
42.392361 9.415472 10.695009
42.353149 5.367002 11.539721
41.01004 1.714153 11.735688
42.240101 1.376755 12.384168
42.061897 -2.519575 13.205323
43.662373 1.009085 12.781269
49.069649 3.438725 11.521382
46.971619 0.201145 12.929161
48.793678 -0.227777 12.772629
38.652527 39.377411 -2.637449
37.683041 38.826424 -4.301439
37.272606 36.202106 -2.069788
36.182487 25.314804 -0.544006
36.053226 28.632404 -2.092106
36.168018 24.345341 -2.732492
36.386402 23.154457 -5.078419
36.661045 19.859722 -3.768175
37.435951 15.318039 -5.144032
36.977585 16.40876 -2.60845
37.442104 9.902306 1.584244
37.433975 10.35268 3.684016
37.786098 6.434547 4.300817
37.661697 10.598312 5.546992
38.134773 10.647579 7.147713
38.855347 10.522938 8.467462
45.827618 20.015995 8.347946
43.991768 16.874969 9.179853
45.798904 16.153137 9.111584
45.749035 12.251793 9.947502
45.650436 8.34219 10.875944
45.485111 4.453873 11.887527
47.44352 7.757051 10.678284
49.290661 7.150736 10.364773
51.152042 6.530769 10.006739
37.957024 33.552315 1.528563
37.034595 33.23962 -0.06735
36.968624 29.970654 1.684984
36.469086 26.020683 1.44405
36.414951 21.776798 0.797022
36.728706 17.345051 -0.232969
36.721935 18.070786 1.940898
37.071606 14.246887 2.899754
39.114792 26.409325 5.809049
39.252293 22.53389 6.934885
40.542702 26.009583 6.659462
42.178757 25.409229 7.21805
43.97142 24.659275 7.517926
45.944412 27.498875 6.809005
45.866295 23.808922 7.605517
39.864265 39.597546 -1.118652
41.306171 39.495571 0.232679
39.426121 36.72702 1.017891
39.1665 33.549305 2.882276
39.072872 30.096317 4.471662
39.884815 -9.460874 12.36461
38.116714 2.539967 4.756278
38.429092 -1.279158 5.061444
38.754917 -5.157948 7.165195
38.940247 -5.367955 8.942896
39.325935 -5.587573 10.537855
39.442169 18.51738 7.896645
39.642525 14.408043 8.739037
39.81675 10.254745 9.496529
42.367043 13.484283 9.860328
41.003502 9.875572 10.235382
39.937668 6.106876 10.189887
39.991714 2.014032 10.826984
39.982517 -1.975071 11.406446
39.932995 -5.814058 11.921797
40.772903 -6.047418 13.072029
41.846542 -6.289396 13.974037
43.144447 -6.541468 14.625254
45.250076 0.615723 12.949995
44.960304 -3.144783 14.0173
44.648323 -6.802745 15.038434
53.119698 9.452902 8.623346
52.994072 5.907806 9.680573
38.237041 41.100727 -6.716383
36.946754 37.956253 -6.080111
36.172867 34.408283 -5.809036
36.404236 32.609398 -1.873465
36.047665 31.678196 -3.850132
50.53846 16.018549 8.05154
49.608702 16.459461 8.209619
50.49503 14.210542 8.345289
50.53846 16.018549 8.05154
39.338806 -10.781486 10.107003
39.197031 -10.659273 9.259636
39.233435 -9.107124 10.021339
43.234186 32.326401 5.131883
43.3514 34.009851 4.446907
43.473769 35.673372 3.664727
43.648516 37.243306 2.839149
43.3514 34.009851 4.446907
42.437672 34.366051 4.040889
43.473769 35.673372 3.664727
37.976852 4.271244 2.487242
38.256189 2.266344 1.643783
38.081423 4.132917 1.399994
50.812664 1.125852 11.882849
49.739052 -0.444007 12.658896
49.86729 1.342081 11.996582
37.91096 5.902432 1.121083
37.730969 7.784677 0.791478
37.622095 8.020062 1.913849
38.081423 4.132917 1.399994
37.91096 5.902432 1.121083
39.258083 -10.184186 6.328449
39.046992 -8.582746 6.315981
46.92469 27.017764 6.855624
46.998104 28.779286 6.489949
46.885632 25.172787 7.25388
45.905354 25.653899 7.207261
46.92469 27.017764 6.855624
46.836777 23.35396 7.570807
46.885632 25.172787 7.25388
40.872263 40.885996 -1.580626
40.165546 40.871222 -2.306406
40.26625 -11.282293 13.180141
39.889853 -11.170517 12.545053
40.261213 -9.57265 12.999698
38.630902 -3.170634 6.087797
38.585369 -3.120961 5.149805
38.474624 -1.328831 5.999436
38.637537 -3.268226 7.051312
38.748282 -5.060356 6.20168
38.630902 -3.170634 6.087797
46.495808 -5.27492 14.675666
45.490761 -6.935664 15.140738
45.65337 -5.142 14.573362
53.985291 9.095271 8.506745
53.99663 10.82047 8.111256
53.922477 7.322723 9.035359
53.056885 7.680354 9.15196
53.985291 9.095271 8.506745
38.74422 41.443888 -5.887952
39.095352 42.483708 -7.170236
35.965078 29.012515 -5.106047
35.988337 31.078274 -4.904285
36.024406 29.612437 -4.051895
36.083158 26.891724 -5.398963
35.965078 29.012515 -5.106047
36.949284 20.217243 -6.914966
36.589306 22.477345 -6.312095
36.74638 20.894355 -5.68129
37.409716 17.979784 -7.596749
36.949284 20.217243 -6.914966
37.588334 16.391958 -7.043171
37.409716 17.979784 -7.596749
37.924496 13.101669 -5.96164
37.604721 13.613599 -4.631653
37.19928 13.255594 -0.417771
37.024498 15.101265 -0.913481
36.903488 15.49938 0.26274
48.662751 16.851067 8.380469
47.706306 17.284282 8.521437
48.695324 18.742195 8.026577
48.619684 15.001548 8.70448
48.662751 16.851067 8.380469
49.608702 16.459461 8.209619
50.438412 12.346955 8.75776
49.509018 12.746356 8.946101
50.49503 14.210542 8.345289
51.367598 11.991467 8.564117
50.381586 10.527281 9.164929
50.438412 12.346955 8.75776
39.208284 -10.498112 8.289224
39.166017 -10.36739 7.358385
39.049393 -8.854188 8.243134
39.208284 -10.498112 8.289224
39.197031 -10.659273 9.259636
43.175175 30.54999 5.783378
42.256293 30.926119 5.474564
43.234186 32.326401 5.131883
44.087463 30.167983 6.00452
43.109569 28.767701 6.347201
43.175175 30.54999 5.783378
43.841706 38.778662 1.914155
44.072079 40.225996 0.945832
42.75323 37.564929 2.333716
43.841706 38.778662 1.914155
43.648516 37.243306 2.839149
40.600845 -11.401696 13.868105
41.13862 -9.794362 14.147545
38.431198 0.543096 1.829785
38.256189 2.266344 1.643783
38.325502 0.575431 2.888276
38.431198 0.543096 1.829785
48.638264 -2.026168 13.411292
47.570633 -3.652907 14.079123
47.726047 -1.854517 13.440459
48.638264 -2.026168 13.411292
49.739052 -0.444007 12.658896
38.167784 39.101917 -3.469444
38.46722 40.306736 -4.68048
38.951963 40.582229 -3.848485
37.375538 14.15896 -3.363862
37.604721 13.613599 -4.631653
37.206768 15.863399 -3.876241
37.557129 9.580984 0.430561
37.375212 11.456686 0.017664
37.260187 11.778007 1.171347
37.557129 9.580984 0.430561
37.730969 7.784677 0.791478
39.258083 -10.184186 6.328449
39.166017 -10.36739 7.358385
45.054092 29.718792 6.220568
44.087463 30.167983 6.00452
46.015369 29.275383 6.340899
46.998104 28.779286 6.489949
44.983135 27.942284 6.688674
45.054092 29.718792 6.220568
46.015369 29.275383 6.340899
46.817439 21.457496 7.942022
45.846957 21.912458 7.976731
46.836777 23.35396 7.570807
47.77307 21.037205 7.851821
46.783249 19.595703 8.257746
46.817439 21.457496 7.942022
48.737585 20.566629 7.768796
47.77307 21.037205 7.851821
48.695324 18.742195 8.026577
48.737585 20.566629 7.768796
39.559677 40.761154 -3.065805
38.951963 40.582229 -3.848485
39.258396 39.487479 -1.878051
39.559677 40.761154 -3.065805
40.165546 40.871222 -2.306406
43.208282 40.49856 0.345604
44.072079 40.225996 0.945832
42.388159 40.696203 -0.242418
43.208282 40.49856 0.345604
42.126295 39.297928 0.820701
41.593215 40.835009 -0.904961
42.388159 40.696203 -0.242418
40.585218 39.546559 -0.442987
40.872263 40.885996 -1.580626
41.593215 40.835009 -0.904961
39.683239 -11.040723 11.747445
39.428437 -10.924955 10.999493
39.630013 -9.345106 11.616658
39.683239 -11.040723 11.747445
39.889853 -11.170517 12.545053
40.26625 -11.282293 13.180141
40.600845 -11.401696 13.868105
38.30805 0.643079 3.900899
38.325502 0.575431 2.888276
38.134166 2.472319 3.743654
38.464239 -1.266484 4.053482
38.30805 0.643079 3.900899
38.272903 0.630404 4.908861
38.648696 -3.034005 4.131639
38.464239 -1.266484 4.053482
38.648696 -3.034005 4.131639
38.585369 -3.120961 5.149805
38.920887 -6.799988 6.242431
38.748282 -5.060356 6.20168
38.881022 -6.940707 7.238745
39.046992 -8.582746 6.315981
38.920887 -6.799988 6.242431
41.743085 -8.096848 14.31717
41.13862 -9.794362 14.147545
41.242076 -7.98691 13.804412
42.392038 -8.222884 14.642779
41.743085 -8.096848 14.31717
42.495494 -6.415432 14.299646
43.015073 -8.331923 15.029727
42.392038 -8.222884 14.642779
43.767011 -8.462561 15.236318
43.015073 -8.331923 15.029727
43.896385 -6.672106 14.831844
44.504392 -8.569733 15.501709
43.767011 -8.462561 15.236318
44.504392 -8.569733 15.501709
45.490761 -6.935664 15.140738
46.495808 -5.27492 14.675666
47.570633 -3.652907 14.079123
52.257942 11.586682 8.395933
51.367598 11.991467 8.564117
53.162405 11.227237 8.221963
53.99663 10.82047 8.111256
52.215235 9.812347 8.797315
52.257942 11.586682 8.395933
53.162405 11.227237 8.221963
53.893383 5.602491 9.569912
53.922477 7.322723 9.035359
52.908747 4.148282 10.308908
53.893383 5.602491 9.569912
51.882162 2.650349 11.078889
51.967488 4.409873 10.450554
52.908747 4.148282 10.308908
50.812664 1.125852 11.882849
51.882162 2.650349 11.078889
38.554066 42.070299 -7.979832
39.095352 42.483708 -7.170236
37.82329 40.603027 -7.578171
38.554066 42.070299 -7.979832
37.960041 39.963576 -5.508911
38.74422 41.443888 -5.887952
38.46722 40.306736 -4.68048
37.178146 39.03079 -7.260035
37.82329 40.603027 -7.578171
37.591898 39.52849 -6.398247
36.681768 37.375576 -7.011896
37.178146 39.03079 -7.260035
36.294824 35.601591 -6.876359
36.681768 37.375576 -7.011896
36.55981 36.182268 -5.944573
36.0627 33.753137 -6.823473
36.294824 35.601591 -6.876359
36.050938 32.443317 -5.883736
36.110266 33.043239 -4.829584
35.988337 31.078274 -4.904285
36.0627 33.753137 -6.823473
36.050938 32.443317 -5.883736
36.275785 24.695614 -5.811343
36.083158 26.891724 -5.398963
36.193775 25.350567 -4.666038
36.275785 24.695614 -5.811343
36.589306 22.477345 -6.312095
37.75313 14.73385 -6.473107
37.588334 16.391958 -7.043171
37.271155 16.976146 -5.714097
37.75313 14.73385 -6.473107
37.924496 13.101669 -5.96164
37.148938 14.633119 -2.101221
36.853145 16.876905 -1.42071
37.024498 15.101265 -0.913481
37.375538 14.15896 -3.363862
37.148938 14.633119 -2.101221
37.19928 13.255594 -0.417771
37.375212 11.456686 0.017664
39.338806 -10.781486 10.107003
39.428437 -10.924955 10.999493
3 0 39 37
3 145 41 146
3 148 147 41
3 0 45 43
3 0 37 45
3 1 149 151
3 151 150 47
3 149 150 151
3 153 152 48
3 154 51 155
3 156 48 157
3 158 157 51
3 156 157 158
3 4 159 161
3 159 53 160
3 159 160 161
3 5 56 54
3 5 58 56
3 2 61 59
3 6 64 62
3 6 66 64
3 6 68 66
3 7 71 69
3 7 162 164
3 164 163 71
3 162 163 164
3 3 74 72
3 8 77 75
3 8 79 77
3 8 81 79
3 4 165 167
3 167 166 82
3 165 166 167
3 4 168 169
3 9 85 83
3 11 86 38
3 11 87 86
3 12 90 88
3 14 91 40
3 14 92 91
3 14 94 92
3 16 95 42
3 16 96 95
3 17 99 97
3 19 100 44
3 19 101 100
3 19 103 101
3 9 104 46
3 9 83 104
3 21 170 171
3 22 107 105
3 24 108 49
3 24 109 108
3 172 110 173
3 174 111 175
3 176 175 110
3 174 175 176
3 178 177 111
3 179 112 180
3 25 113 50
3 25 114 113
3 25 115 114
3 22 116 52
3 22 105 116
3 26 181 183
3 183 182 117
3 181 182 183
3 10 118 84
3 27 119 55
3 27 184 186
3 186 185 119
3 184 185 186
3 27 187 189
3 187 120 188
3 187 188 189
3 28 121 57
3 28 122 121
3 23 123 106
3 29 124 60
3 29 125 124
3 13 126 89
3 30 127 63
3 30 128 127
3 30 129 128
3 31 130 65
3 31 131 130
3 31 132 131
3 32 133 67
3 32 134 133
3 15 135 93
3 33 136 70
3 33 137 136
3 33 190 192
3 192 191 137
3 190 191 192
3 193 138 194
3 195 139 196
3 197 196 138
3 195 196 197
3 198 140 199
3 34 141 73
3 34 142 141
3 18 143 98
3 35 144 76
3 35 200 202
3 202 201 144
3 200 201 202
3 35 203 204
3 36 205 207
3 207 206 78
3 205 206 207
3 36 208 209
3 36 210 211
3 213 212 80
3 20 214 216
3 216 215 102
3 214 215 216
3 37 38 9
3 39 38 37
3 39 11 38
3 217 40 218
3 219 218 12
3 217 218 219
3 41 220 222
3 220 40 221
3 220 221 222
3 41 14 40
3 41 42 14
3 223 42 224
3 225 224 41
3 223 224 225
3 226 16 227
3 228 227 42
3 226 227 228
3 43 44 17
3 45 44 43
3 45 19 44
3 45 46 19
3 37 46 45
3 37 9 46
3 47 229 231
3 231 230 21
3 229 230 231
3 233 232 47
3 48 49 22
3 234 49 235
3 236 235 48
3 234 235 236
3 237 24 238
3 239 238 49
3 237 238 239
3 240 50 241
3 51 242 244
3 242 50 243
3 242 243 244
3 51 25 50
3 51 52 25
3 48 52 51
3 48 22 52
3 246 245 26
3 53 247 248
3 53 249 250
3 54 55 10
3 56 55 54
3 56 27 55
3 56 57 27
3 58 57 56
3 58 28 57
3 59 60 23
3 61 60 59
3 61 29 60
3 62 63 13
3 64 63 62
3 64 30 63
3 64 65 30
3 66 65 64
3 66 31 65
3 66 67 31
3 68 67 66
3 68 32 67
3 69 70 15
3 71 70 69
3 71 33 70
3 71 251 253
3 253 252 33
3 251 252 253
3 255 254 71
3 72 256 258
3 256 73 257
3 256 257 258
3 74 73 72
3 74 34 73
3 75 76 18
3 77 76 75
3 77 35 76
3 77 78 35
3 79 78 77
3 79 36 78
3 79 80 36
3 81 80 79
3 81 259 261
3 261 260 80
3 259 260 261
3 82 262 264
3 264 263 20
3 262 263 264
3 266 265 82
3 83 84 4
3 85 84 83
3 85 10 84
3 38 85 9
3 86 85 38
3 86 10 85
3 86 54 10
3 87 54 86
3 87 5 54
3 88 89 2
3 90 89 88
3 90 13 89
3 40 90 12
3 91 90 40
3 91 13 90
3 91 62 13
3 92 62 91
3 92 6 62
3 92 93 6
3 94 93 92
3 94 15 93
3 42 94 14
3 95 94 42
3 95 15 94
3 95 69 15
3 96 69 95
3 96 7 69
3 97 98 3
3 99 98 97
3 99 18 98
3 44 99 17
3 100 99 44
3 100 18 99
3 100 75 18
3 101 75 100
3 101 8 75
3 101 102 8
3 103 102 101
3 103 20 102
3 46 103 19
3 104 103 46
3 104 20 103
3 104 82 20
3 83 82 104
3 83 4 82
3 268 267 21
3 105 106 0
3 107 106 105
3 107 23 106
3 49 107 22
3 108 107 49
3 108 23 107
3 108 59 23
3 109 59 108
3 109 2 59
3 269 24 270
3 110 271 272
3 110 273 275
3 273 24 274
3 273 274 275
3 110 109 24
3 111 109 110
3 111 2 109
3 111 88 2
3 276 88 277
3 278 277 111
3 276 277 278
3 279 12 280
3 281 280 88
3 279 280 281
3 282 12 283
3 285 284 12
3 286 72 287
3 112 288 290
3 288 72 289
3 288 289 290
3 112 3 72
3 50 291 292
3 113 293 295
3 295 294 50
3 293 294 295
3 113 296 297
3 113 298 300
3 298 112 299
3 298 299 300
3 114 112 113
3 114 3 112
3 114 97 3
3 115 97 114
3 115 17 97
3 52 115 25
3 116 115 52
3 116 17 115
3 116 43 17
3 105 43 116
3 105 0 43
3 117 301 303
3 303 302 1
3 301 302 303
3 305 304 117
3 307 306 26
3 84 53 4
3 118 53 84
3 118 308 310
3 310 309 53
3 308 309 310
3 55 118 10
3 119 118 55
3 119 311 313
3 313 312 118
3 311 312 313
3 119 314 315
3 317 316 119
3 120 318 319
3 120 320 322
3 320 21 321
3 320 321 322
3 57 120 27
3 121 120 57
3 121 21 120
3 121 47 21
3 122 47 121
3 122 1 47
3 106 39 0
3 123 39 106
3 123 11 39
3 60 123 23
3 124 123 60
3 124 11 123
3 124 87 11
3 125 87 124
3 125 5 87
3 89 61 2
3 126 61 89
3 126 29 61
3 63 126 13
3 127 126 63
3 127 29 126
3 127 125 29
3 128 125 127
3 128 5 125
3 128 58 5
3 129 58 128
3 129 28 58
3 65 129 30
3 130 129 65
3 130 28 129
3 130 122 28
3 131 122 130
3 131 1 122
3 131 117 1
3 132 117 131
3 132 26 117
3 67 132 31
3 133 132 67
3 133 26 132
3 133 323 325
3 325 324 26
3 323 324 325
3 134 326 328
3 328 327 133
3 326 327 328
3 134 329 330
3 93 68 6
3 135 68 93
3 135 32 68
3 70 135 15
3 136 135 70
3 136 32 135
3 136 134 32
3 137 134 136
3 137 331 333
3 333 332 134
3 331 332 333
3 137 334 335
3 337 336 137
3 339 338 33
3 340 16 341
3 138 342 343
3 138 344 346
3 344 16 345
3 344 345 346
3 138 96 16
3 139 96 138
3 139 7 96
3 347 139 348
3 349 139 350
3 351 7 352
3 353 352 139
3 351 352 353
3 355 354 7
3 140 356 357
3 140 358 359
3 73 360 362
3 360 140 361
3 360 361 362
3 141 140 73
3 141 363 365
3 365 364 140
3 363 364 365
3 141 366 367
3 142 368 370
3 370 369 141
3 368 369 370
3 142 371 372
3 98 74 3
3 143 74 98
3 143 34 74
3 76 143 18
3 144 143 76
3 144 34 143
3 144 142 34
3 373 142 374
3 375 374 144
3 373 374 375
3 377 376 142
3 78 378 380
3 380 379 35
3 378 379 380
3 382 381 78
3 80 383 385
3 385 384 36
3 383 384 385
3 387 386 80
3 102 81 8
3 388 81 389
3 390 389 102
3 388 389 390
3 392 391 81
3 394 393 20
3 396 395 1
