ply
format ascii 1.0
element vertex 384
property float x
property float y
property float z
element face 394
property list uchar int vertex_index
end_header
22.46456 -10.954228 78.462555
42.060555 9.645266 60.409027
17.470814 -4.064771 77.721771
23.701481 -3.23505 70.670784
10.290787 -7.31743 84.373138
29.370289 -11.074526 74.989655
31.367792 -2.311983 66.746124
33.732109 8.571697 62.718834
39.580925 -0.440496 64.105003
20.006313 -8.217003 77.943748
20.512779 -3.456611 73.94754
23.145744 -7.671978 75.008606
16.653173 -9.50004 81.221397
25.543148 -11.206358 76.913864
26.681236 -7.446504 72.63253
12.149246 -0.470617 81.728188
29.411558 7.938459 63.082924
34.53867 -6.096042 69.031242
35.535427 -1.385334 65.560989
15.489931 0.973516 78.117928
24.363693 1.906326 66.81102
12.752039 -11.429911 84.222801
14.120764 -5.329515 81.365822
28.126638 2.212547 64.94043
27.339264 -2.948631 68.287453
30.586868 -6.950748 70.722847
44.778606 4.925016 59.755508
38.061451 9.240513 62.049919
32.325089 2.873922 64.008904
36.683426 3.726633 63.261955
40.911575 4.48584 61.977333
43.31918 0.265823 61.925606
21.346966 -9.818089 78.218468
21.55529 -7.857153 76.401833
22.813011 -9.534188 76.978462
19.838974 -10.407176 79.667885
23.824293 -11.110392 77.784103
24.426926 -9.476697 75.895348
28.159586 10.731396 62.79921
27.364857 7.719124 63.455902
16.411934 -1.626471 77.851181
16.966194 1.402176 76.068367
17.910294 -1.234228 75.842178
22.061199 -3.324909 72.213226
20.818056 -0.867424 71.894249
22.350086 -0.802347 70.13723
23.996571 -0.742001 68.623497
17.050991 -6.819653 79.538528
15.306439 -7.530945 81.264481
15.855063 -4.608092 79.597672
14.811732 -2.195559 79.768883
25.776344 -0.635202 67.390816
25.460556 -3.125712 69.358932
28.117023 -9.301407 73.850906
28.606642 -7.248248 71.628059
30.077127 -9.074579 72.890137
32.041054 -8.744011 71.948288
45.89003 2.744413 59.36924
46.538326 4.997442 58.259827
9.372383 -10.673745 85.556549
32.400505 11.256781 62.530914
35.918209 8.921202 62.475563
29.702856 -0.161407 65.727661
30.187294 2.503899 64.399666
31.797033 0.212317 65.185928
37.587307 -0.89649 64.901535
36.075478 1.11665 64.246246
38.191406 1.573816 63.671021
38.830437 4.135094 62.720467
40.251476 1.986738 62.931618
42.231609 2.328522 61.982651
41.496048 -0.046785 63.123062
18.680569 -6.279963 77.757385
19.004143 -3.688964 75.810501
20.240646 -5.908705 76.000938
21.801567 -5.684435 74.346352
23.432657 -5.553678 72.846085
18.394188 -8.77141 79.5811
27.421778 -11.199527 75.969597
25.173748 -5.442193 71.526268
24.85145 -7.568508 73.757202
26.214388 -9.425505 74.852097
11.224516 -3.909232 83.085526
30.247894 10.965687 62.615204
31.548195 8.231886 62.880241
33.021229 -4.270168 67.899437
33.451725 -1.8701 66.149445
35.03989 -3.785485 67.183044
19.357977 -0.994179 73.825447
24.839842 4.690107 65.300438
10.640621 -12.620181 85.4963
11.442408 -9.459444 84.314194
14.767828 -10.388827 82.786156
13.432512 -8.411742 82.871552
12.259552 -6.232339 82.971428
13.082106 -2.954556 81.529785
13.889803 0.353769 80.024063
26.701042 4.806356 64.411964
26.176851 2.014698 65.72345
27.685543 -0.446409 66.438713
29.318565 -2.677896 67.434052
27.029095 -5.284417 70.395149
28.978376 -5.040495 69.441315
30.98839 -4.698362 68.6287
32.578079 -6.558441 69.875908
43.45863 7.213995 60.084526
45.260551 7.271933 58.722862
40.120163 9.492043 61.373039
28.698774 5.013664 63.830154
30.801939 5.30711 63.467056
32.972836 5.665373 63.210632
33.932991 0.650066 64.723274
34.502979 3.293695 63.6633
35.170864 6.05575 62.944351
37.354927 6.440212 62.564438
39.485764 6.781269 61.99115
41.528957 7.046841 61.172867
42.900333 4.753893 60.994682
44.114368 2.582708 60.798241
21.905763 -10.386159 78.340511
21.330589 -10.737327 78.949967
21.889387 -11.305397 79.07201
21.889387 -11.305397 79.07201
22.660897 -11.684477 78.923867
22.660897 -11.684477 78.923867
23.340764 -11.762559 78.584641
23.144427 -11.03231 78.123329
26.405121 7.653297 63.784218
26.772044 9.147771 63.337356
42.261767 10.94603 59.986057
41.373903 10.940226 60.569451
29.856229 -11.952184 75.415997
30.346398 -10.953964 74.483765
30.346398 -10.953964 74.483765
30.699818 -9.95399 73.434006
29.723708 -10.074552 73.939896
46.723481 2.782565 58.535007
46.279717 1.687487 59.106399
9.274255 -7.952065 84.953415
8.815053 -9.630223 85.54512
9.831585 -8.995587 84.964844
34.150742 10.070929 62.562462
33.48494 11.41347 62.468502
33.066307 9.914239 62.624874
34.825159 8.74645 62.597199
35.243792 10.245681 62.440827
34.150742 10.070929 62.562462
25.991698 -12.075689 77.39457
26.931013 -12.072273 76.922436
26.482463 -11.202942 76.441731
11.216136 -0.988404 82.457501
10.753771 -2.707711 83.136169
11.686881 -2.189925 82.406857
15.812819 2.566215 77.273499
15.073001 2.322044 78.291173
17.236155 2.932246 75.172081
17.66451 1.533003 75.011601
20.279916 0.463778 71.884602
20.99328 0.487981 70.913609
23.748899 3.278657 66.676452
23.530726 1.88471 67.516937
24.601768 3.298217 66.055729
23.986973 4.670547 65.921161
23.748899 3.278657 66.676452
11.69633 -12.025046 84.859551
11.357309 -13.498363 85.416157
12.413018 -12.903229 84.779408
15.7105 -9.944433 82.003777
15.516541 -11.252131 82.735458
16.459214 -10.807737 81.953079
15.073001 2.322044 78.291173
14.272937 2.01217 79.24424
14.689867 0.663643 79.070996
33.000695 -8.536791 71.467232
32.631655 -9.619011 72.431679
46.736044 6.110909 57.680557
47.360054 4.990196 57.390682
38.4097 10.669642 61.813187
37.383051 10.552636 62.08395
39.090807 9.366278 61.711479
39.439056 10.795407 61.474746
38.4097 10.669642 61.813187
44.181431 0.377995 61.212269
44.579025 1.536438 60.648587
43.716774 1.424265 61.361924
20.576594 -11.031871 79.674675
19.792036 -11.476301 80.384159
20.59297 -10.112633 78.943176
20.576594 -11.031871 79.674675
21.330589 -10.737327 78.949967
24.197496 -11.944972 78.256336
25.056924 -11.992956 77.821216
24.68372 -11.158375 77.348984
24.197496 -11.944972 78.256336
23.340764 -11.762559 78.584641
11.706926 0.79371 81.819836
12.591162 1.251958 81.018677
27.169408 10.653907 63.009011
27.589206 12.18404 62.672916
27.762222 9.22526 63.127556
27.169408 10.653907 63.009011
26.772044 9.147771 63.337356
35.486001 -5.848133 68.579289
35.166544 -6.980427 69.49316
18.136561 0.214801 74.898506
17.66451 1.533003 75.011601
17.438244 0.083974 75.955273
21.759296 0.52052 70.035099
20.99328 0.487981 70.913609
21.584071 -0.834885 71.015739
22.523922 0.530374 69.180042
21.759296 0.52052 70.035099
23.347164 0.560547 68.423176
22.523922 0.530374 69.180042
23.173329 -0.772174 69.380364
24.180132 0.582162 67.717258
23.530726 1.88471 67.516937
23.347164 0.560547 68.423176
13.489934 -12.30522 84.149849
12.413018 -12.903229 84.779408
31.681781 -9.788706 72.963082
31.059091 -8.909295 72.419213
30.699818 -9.95399 73.434006
32.631655 -9.619011 72.431679
31.681781 -9.788706 72.963082
47.047629 3.90908 57.980301
46.214178 3.870928 58.814533
46.723481 2.782565 58.535007
47.360054 4.990196 57.390682
47.047629 3.90908 57.980301
8.324423 -11.36593 86.059437
8.928307 -12.317575 86.066494
8.324423 -11.36593 86.059437
8.815053 -9.630223 85.54512
32.856468 12.805993 62.401718
31.784226 12.664227 62.415215
32.856468 12.805993 62.401718
33.48494 11.41347 62.468502
36.31143 10.392981 62.296772
35.243792 10.245681 62.440827
36.98983 9.080858 62.262741
37.383051 10.552636 62.08395
36.31143 10.392981 62.296772
17.398954 -10.343155 81.207634
16.459214 -10.807737 81.953079
18.991855 -10.796723 80.430878
19.792036 -11.476301 80.384159
18.269461 -9.97884 80.387485
18.991855 -10.796723 80.430878
19.116581 -9.589293 79.624493
17.52368 -9.135725 80.401249
17.398954 -10.343155 81.207634
18.269461 -9.97884 80.387485
27.904528 -12.077345 76.436218
28.878783 -12.014845 75.946247
28.396034 -11.137027 75.479626
27.904528 -12.077345 76.436218
26.931013 -12.072273 76.922436
25.991698 -12.075689 77.39457
25.056924 -11.992956 77.821216
10.246757 -4.485806 83.741292
9.779892 -6.189906 84.385098
10.757651 -5.613331 83.729332
10.246757 -4.485806 83.741292
10.753771 -2.707711 83.136169
11.216136 -0.988404 82.457501
11.706926 0.79371 81.819836
28.606541 12.276434 62.569699
27.589206 12.18404 62.672916
29.650695 12.39358 62.477695
28.606541 12.276434 62.569699
29.20374 10.848541 62.707207
30.70792 12.518681 62.457359
29.650695 12.39358 62.477695
31.324199 11.111234 62.573059
31.784226 12.664227 62.415215
30.70792 12.518681 62.457359
35.73661 -4.692854 67.65519
34.78928 -4.940764 68.107143
35.486001 -5.848133 68.579289
36.026018 -3.534142 66.795475
35.73661 -4.692854 67.65519
36.273786 -2.334066 65.984448
35.287658 -2.585409 66.372017
36.026018 -3.534142 66.795475
37.299727 -2.089644 65.65472
36.561367 -1.140912 65.231262
36.273786 -2.334066 65.984448
38.250108 -1.848753 65.20636
37.299727 -2.089644 65.65472
39.246917 -1.620756 64.808094
38.584116 -0.668493 64.503269
38.250108 -1.848753 65.20636
40.153219 -1.406576 64.275036
39.246917 -1.620756 64.808094
16.550951 2.780544 76.248718
15.812819 2.566215 77.273499
16.228063 1.187846 77.093148
16.550951 2.780544 76.248718
17.236155 2.932246 75.172081
18.860402 0.334825 73.890141
18.136561 0.214801 74.898506
18.634135 -1.114204 74.833812
19.549877 0.4004 72.8502
20.088017 -0.930802 72.859848
20.279916 0.463778 71.884602
18.860402 0.334825 73.890141
19.549877 0.4004 72.8502
24.260091 6.114826 65.214943
23.986973 4.670547 65.921161
25.142614 6.138789 64.706486
24.260091 6.114826 65.214943
10.248561 -14.162109 85.967961
11.357309 -13.498363 85.416157
9.562427 -13.290793 86.03637
10.248561 -14.162109 85.967961
10.006502 -11.646963 85.526425
8.928307 -12.317575 86.066494
9.562427 -13.290793 86.03637
14.497829 -11.784678 83.431527
15.516541 -11.252131 82.735458
13.759933 -10.909369 83.504479
13.489934 -12.30522 84.149849
14.497829 -11.784678 83.431527
13.461441 1.664151 80.166615
12.591162 1.251958 81.018677
13.019524 -0.058424 80.876126
13.461441 1.664151 80.166615
14.272937 2.01217 79.24424
29.856229 -11.952184 75.415997
28.878783 -12.014845 75.946247
25.770442 4.748232 64.856201
26.073214 6.196913 64.262249
25.142614 6.138789 64.706486
33.269207 -7.444007 70.431042
32.309567 -7.651226 70.912098
33.000695 -8.536791 71.467232
34.249503 -7.212807 70.008709
33.558374 -6.327241 69.453575
33.269207 -7.444007 70.431042
35.166544 -6.980427 69.49316
34.249503 -7.212807 70.008709
43.660049 8.447396 59.617542
42.961012 9.663032 59.779792
42.759592 8.429631 60.246776
44.56101 8.476365 58.93671
43.660049 8.447396 59.617542
44.35959 7.242964 59.403694
45.389122 8.432934 58.167439
44.56101 8.476365 58.93671
46.097156 7.248154 57.912075
45.899439 6.134688 58.491344
46.736044 6.110909 57.680557
45.389122 8.432934 58.167439
46.097156 7.248154 57.912075
9.274255 -7.952065 84.953415
9.779892 -6.189906 84.385098
40.403707 10.863615 61.051457
39.439056 10.795407 61.474746
41.090359 9.568655 60.891033
41.373903 10.940226 60.569451
40.403707 10.863615 61.051457
27.03295 6.26274 63.933933
26.405121 7.653297 63.784218
26.073214 6.196913 64.262249
45.466856 1.617291 59.934086
45.002199 2.66356 60.08374
44.579025 1.536438 60.648587
46.279717 1.687487 59.106399
45.466856 1.617291 59.934086
41.110781 -1.20972 63.784065
40.538487 -0.243641 63.614032
40.153219 -1.406576 64.275036
41.968937 -1.033245 63.150948
41.110781 -1.20972 63.784065
42.880503 -0.876941 62.552219
42.407614 0.109519 62.524334
41.968937 -1.033245 63.150948
43.690344 -0.743111 61.811783
42.880503 -0.876941 62.552219
44.181431 0.377995 61.212269
43.690344 -0.743111 61.811783
42.261767 10.94603 59.986057
42.961012 9.663032 59.779792
3 0 34 32
3 0 119 121
3 119 32 120
3 119 120 121
3 0 122 123
3 0 124 126
3 126 125 36
3 124 125 126
3 0 36 34
3 127 39 128
3 1 129 130
3 2 42 40
3 3 45 43
3 3 46 45
3 2 49 47
3 2 40 49
3 5 131 132
3 3 52 46
3 5 55 53
3 5 133 135
3 135 134 55
3 133 134 135
3 137 136 57
3 4 138 140
3 140 139 59
3 138 139 140
3 7 141 143
3 143 142 60
3 141 142 143
3 7 144 146
3 144 61 145
3 144 145 146
3 6 64 62
3 8 67 65
3 8 69 67
3 8 71 69
3 9 74 72
3 11 75 33
3 11 76 75
3 9 77 35
3 9 72 77
3 13 147 149
3 149 148 78
3 147 148 149
3 11 80 76
3 13 81 37
3 13 78 81
3 15 150 152
3 152 151 82
3 150 151 152
3 16 83 38
3 16 84 83
3 17 87 85
3 19 153 154
3 156 155 41
3 10 88 73
3 158 157 44
3 20 159 160
3 20 161 163
3 161 89 162
3 161 162 163
3 21 164 166
3 164 90 165
3 164 165 166
3 21 91 90
3 12 167 169
3 167 92 168
3 167 168 169
3 22 93 48
3 22 94 93
3 22 95 94
3 19 96 50
3 19 170 172
3 172 171 96
3 170 171 172
3 20 98 89
3 24 99 51
3 24 100 99
3 14 101 79
3 25 102 54
3 25 103 102
3 25 104 103
3 174 173 56
3 26 106 105
3 176 175 58
3 27 177 178
3 27 179 181
3 179 107 180
3 179 180 181
3 23 108 97
3 28 109 63
3 28 110 109
3 18 111 86
3 29 112 66
3 29 113 112
3 29 114 113
3 30 115 68
3 30 116 115
3 30 117 116
3 31 118 70
3 31 182 184
3 184 183 118
3 182 183 184
3 32 33 9
3 34 33 32
3 34 11 33
3 185 35 186
3 32 187 189
3 187 35 188
3 187 188 189
3 32 9 35
3 36 190 192
3 192 191 13
3 190 191 192
3 194 193 36
3 34 37 11
3 36 37 34
3 36 13 37
3 196 195 15
3 197 38 198
3 39 199 201
3 199 38 200
3 199 200 201
3 39 16 38
3 203 202 17
3 40 41 19
3 42 41 40
3 42 204 206
3 206 205 41
3 204 205 206
3 43 44 10
3 45 44 43
3 45 207 209
3 209 208 44
3 207 208 209
3 45 210 211
3 46 212 214
3 214 213 45
3 212 213 214
3 46 215 217
3 215 20 216
3 215 216 217
3 218 21 219
3 47 48 12
3 49 48 47
3 49 22 48
3 49 50 22
3 40 50 49
3 40 19 50
3 46 51 20
3 52 51 46
3 52 24 51
3 53 54 14
3 55 54 53
3 55 25 54
3 55 56 25
3 220 56 221
3 222 221 55
3 220 221 222
3 224 223 56
3 57 58 26
3 225 58 226
3 227 226 57
3 225 226 227
3 229 228 58
3 59 230 231
3 233 232 59
3 60 234 235
3 237 236 60
3 61 238 239
3 61 240 242
3 240 27 241
3 240 241 242
3 62 63 23
3 64 63 62
3 64 28 63
3 65 66 18
3 67 66 65
3 67 29 66
3 67 68 29
3 69 68 67
3 69 30 68
3 69 70 30
3 71 70 69
3 71 31 70
3 72 73 2
3 74 73 72
3 74 10 73
3 33 74 9
3 75 74 33
3 75 10 74
3 75 43 10
3 76 43 75
3 76 3 43
3 243 12 244
3 35 245 246
3 77 247 249
3 249 248 35
3 247 248 249
3 77 250 252
3 250 12 251
3 250 251 252
3 77 47 12
3 72 47 77
3 72 2 47
3 78 253 255
3 255 254 5
3 253 254 255
3 257 256 78
3 259 258 13
3 76 79 3
3 80 79 76
3 80 14 79
3 37 80 11
3 81 80 37
3 81 14 80
3 81 53 14
3 78 53 81
3 78 5 53
3 82 260 262
3 262 261 4
3 260 261 262
3 264 263 82
3 266 265 15
3 38 267 268
3 83 269 271
3 271 270 38
3 269 270 271
3 83 272 273
3 83 274 276
3 274 60 275
3 274 275 276
3 84 60 83
3 84 7 60
3 85 86 6
3 87 86 85
3 87 18 86
3 277 87 278
3 279 278 17
3 277 278 279
3 280 87 281
3 282 18 283
3 284 283 87
3 282 283 284
3 285 65 286
3 287 286 18
3 285 286 287
3 288 65 289
3 290 8 291
3 292 291 65
3 290 291 292
3 294 293 8
3 41 295 297
3 297 296 19
3 295 296 297
3 299 298 41
3 73 42 2
3 88 42 73
3 88 300 302
3 302 301 42
3 300 301 302
3 44 88 10
3 303 88 304
3 305 304 44
3 303 304 305
3 307 306 88
3 89 308 309
3 89 310 311
3 90 312 313
3 90 314 315
3 90 316 318
3 316 59 317
3 316 317 318
3 91 59 90
3 91 4 59
3 92 319 320
3 92 321 323
3 321 21 322
3 321 322 323
3 48 92 12
3 93 92 48
3 93 21 92
3 93 91 21
3 94 91 93
3 94 4 91
3 94 82 4
3 95 82 94
3 95 15 82
3 50 95 22
3 96 95 50
3 96 15 95
3 96 324 326
3 326 325 15
3 324 325 326
3 328 327 96
3 330 329 5
3 89 331 333
3 331 97 332
3 331 332 333
3 98 97 89
3 98 23 97
3 51 98 20
3 99 98 51
3 99 23 98
3 99 62 23
3 100 62 99
3 100 6 62
3 79 52 3
3 101 52 79
3 101 24 52
3 54 101 14
3 102 101 54
3 102 24 101
3 102 100 24
3 103 100 102
3 103 6 100
3 103 85 6
3 104 85 103
3 104 17 85
3 56 104 25
3 334 104 335
3 336 335 56
3 334 335 336
3 337 17 338
3 339 338 104
3 337 338 339
3 341 340 17
3 105 342 344
3 344 343 1
3 342 343 344
3 106 345 347
3 347 346 105
3 345 346 347
3 106 348 349
3 58 106 26
3 350 106 351
3 352 351 58
3 350 351 352
3 354 353 106
3 356 355 4
3 107 357 358
3 107 359 361
3 359 1 360
3 359 360 361
3 97 362 364
3 362 39 363
3 362 363 364
3 108 39 97
3 108 16 39
3 63 108 23
3 109 108 63
3 109 16 108
3 109 84 16
3 110 84 109
3 110 7 84
3 86 64 6
3 111 64 86
3 111 28 64
3 66 111 18
3 112 111 66
3 112 28 111
3 112 110 28
3 113 110 112
3 113 7 110
3 113 61 7
3 114 61 113
3 114 27 61
3 68 114 29
3 115 114 68
3 115 27 114
3 115 107 27
3 116 107 115
3 116 1 107
3 116 105 1
3 117 105 116
3 117 26 105
3 70 117 30
3 118 117 70
3 118 26 117
3 118 57 26
3 365 57 366
3 367 366 118
3 365 366 367
3 369 368 57
3 370 71 371
3 372 371 8
3 370 371 372
3 373 71 374
3 375 31 376
3 377 376 71
3 375 376 377
3 378 31 379
3 381 380 31
3 383 382 1
