ply
format ascii 1.0
element vertex 535
property float x
property float y
property float z
element face 489
property list uchar int vertex_index
end_header
43.424194 -97.9105 19.90414
39.299358 -98.953766 28.362278
36.562416 -105.41407 15.936792
46.015797 -99.300568 -0.278154
42.958527 -105.667023 -11.035622
46.625519 -93.094917 10.802382
37.319416 -92.902679 38.814594
39.833496 -95.471756 35.192932
36.857925 -96.724815 32.024693
35.942253 -100.499229 25.438274
42.272171 -104.900215 -1.895254
44.790222 -102.607834 -5.718697
40.300583 -108.464615 -7.32255
44.023514 -95.244881 26.387505
45.088451 -95.648613 15.338788
34.237617 -108.834908 10.756348
29.286705 -112.625969 10.511135
24.151447 -116.118782 11.224169
28.873625 -119.27858 -8.383997
42.120026 -96.233826 31.035772
41.512005 -99.252899 24.314169
40.467678 -102.025345 17.869013
38.285667 -102.192688 21.814672
48.318722 -93.410828 1.177897
47.876305 -96.410896 -4.031988
46.800507 -99.202751 -9.266108
45.153889 -101.485725 -14.275841
37.79237 -111.713867 -12.428173
40.496468 -108.090157 -15.820734
48.1563 -90.436378 6.392812
46.580063 -96.073509 5.201783
35.822235 -93.044106 37.192451
37.122623 -94.829872 35.442116
41.349384 -106.69072 -4.629206
43.738506 -96.604042 23.133514
44.800964 -94.260376 23.954224
44.540195 -95.56385 20.778116
45.265755 -94.351807 18.40136
44.279858 -96.847099 17.627197
43.040241 -99.198128 16.735254
30.660044 -110.506195 12.580379
26.740709 -114.430618 10.763525
39.602417 -97.255478 31.778057
41.014179 -96.090431 33.186188
40.76384 -97.764153 29.782906
41.849583 -97.790039 27.664953
40.441002 -99.342072 26.391958
39.997017 -100.851067 23.076841
38.873936 -100.590263 25.021294
47.321697 -96.385818 0.495493
48.181889 -94.91996 -1.42135
46.996002 -97.976929 -2.177553
43.947701 -104.192947 -8.409933
45.848064 -101.068634 -7.528372
45.048767 -102.486107 -10.166935
46.050831 -100.426605 -11.828239
44.101772 -103.759537 -12.717493
47.382225 -91.78511 8.577653
47.479733 -93.270798 5.859294
46.644581 -94.549263 7.981595
38.619785 -103.79425 16.848749
39.715157 -103.410713 14.835273
37.677807 -105.299889 13.973609
23.962736 -118.802216 6.911457
21.325127 -122.701927 2.861435
38.598095 -94.39032 37.059181
38.384075 -96.262306 33.654781
38.100552 -98.070808 30.230206
37.698009 -99.837135 26.873627
36.478882 -98.608025 28.662113
44.33371 -102.136719 -1.095409
45.483139 -100.961685 -3.002159
43.59621 -103.862976 -3.840708
42.714676 -105.575508 -6.562748
41.693027 -107.220985 -9.235308
44.31831 -93.804115 29.622938
45.100189 -92.907562 27.118862
45.865734 -94.385002 13.059244
45.780643 -95.782356 10.139459
34.337227 -106.937439 15.214439
35.456924 -107.08876 13.271723
33.104393 -108.815193 12.793259
31.789951 -110.752724 10.504837
30.435787 -112.745361 8.293064
27.899025 -114.758087 8.476398
25.339699 -116.653267 8.865414
22.749918 -118.366211 9.406588
30.298878 -118.413315 -10.789173
25.9832 -121.627441 -7.953793
27.278292 -120.860916 -10.500174
41.241325 -94.300865 36.527477
42.370537 -94.561012 34.364464
43.40398 -94.379341 32.05127
43.128639 -95.930908 28.759403
42.843468 -97.377594 25.439426
42.505444 -98.745949 22.14296
42.073086 -100.068901 18.91329
41.062248 -100.652672 21.035913
39.395294 -102.323311 19.885946
37.513924 -103.790817 18.781422
37.133663 -101.584656 23.656759
36.382378 -103.336845 20.629721
35.442867 -105.115242 17.816792
35.997791 -91.101036 40.513359
49.003777 -93.217461 -3.296988
48.708778 -94.563713 -5.840544
46.500595 -99.550995 -4.855221
47.411102 -97.851067 -6.653364
48.2724 -95.83577 -8.394207
47.706116 -96.99894 -10.928122
37.618206 -111.288727 -7.935167
39.119995 -110.160599 -9.941141
40.524986 -108.742386 -11.809208
39.194927 -110.083984 -14.213835
41.813911 -106.980873 -13.532614
42.993271 -104.84903 -15.106447
48.297089 -91.909508 3.777258
47.475952 -94.809448 3.169881
46.3797 -97.662285 2.453052
45.623264 -97.254219 7.271729
45.345268 -98.808144 4.45126
44.918316 -100.441223 1.666405
43.065605 -103.145302 0.866116
41.515678 -101.384789 15.781417
35.700394 -94.017987 35.495042
35.041383 -93.013161 36.405029
46.941223 -91.728531 11.06753
46.609555 -92.402046 12.233757
47.003872 -92.440013 9.690017
47.319576 -91.073627 9.955165
46.941223 -91.728531 11.06753
23.292105 -119.819333 5.904261
22.677925 -119.641628 7.203015
37.958755 -93.6465 37.936887
38.69244 -93.414025 38.701729
38.0531 -92.670204 39.579435
45.276996 -93.01691 24.264367
45.137152 -93.664615 22.7223
45.514437 -94.34845 15.68198
45.603088 -93.700046 17.213266
45.177103 -95.00021 16.870074
45.477092 -95.016807 14.199016
45.903078 -93.716644 14.542208
45.514437 -94.34845 15.68198
44.989069 -96.317131 13.832575
45.377711 -95.685326 12.692803
45.477092 -95.016807 14.199016
32.544055 -108.616085 13.770972
33.72081 -107.876316 14.003849
33.160472 -107.677208 14.981562
30.346328 -118.003796 -8.445113
29.607404 -118.380185 -7.235173
29.586251 -118.845947 -9.586585
31.058954 -117.571163 -9.647701
30.346328 -118.003796 -8.445113
24.588291 -122.657135 -7.578009
25.371861 -121.905945 -6.615279
26.408761 -121.503678 -11.431865
25.804202 -121.952168 -10.184334
27.953847 -120.354683 -11.674504
26.408761 -121.503678 -11.431865
40.537411 -94.886311 35.860204
40.641062 -93.942833 37.523634
39.937147 -94.528278 36.856361
35.343204 -103.853344 20.128825
35.800898 -102.876174 21.522467
34.873449 -104.742542 18.72236
35.912622 -104.226044 19.223256
35.343204 -103.853344 20.128825
34.328165 -105.742542 17.448886
34.873449 -104.742542 18.72236
35.311743 -90.101036 41.369976
36.067394 -90.119858 42.079105
35.381346 -89.119858 42.935722
34.55164 -90.060669 40.600706
35.237688 -91.060669 39.744089
35.311743 -90.101036 41.369976
48.731123 -92.619282 0.202672
48.722837 -91.915199 1.45875
46.081007 -99.752056 -13.833036
46.529478 -99.222496 -12.609234
45.60236 -100.956165 -13.05204
45.657356 -100.174629 -14.992944
46.081007 -99.752056 -13.833036
36.189121 -112.669433 -8.140054
36.840154 -111.741803 -6.8671
38.456182 -110.937233 -11.184657
37.711312 -111.588696 -10.204887
37.047499 -112.36533 -11.448403
39.845697 -109.087071 -15.017284
38.439858 -110.639916 -15.289806
39.090628 -109.643002 -16.093256
48.456101 -89.031948 6.592216
48.360384 -88.317875 7.914811
48.060583 -89.722305 7.715407
48.567661 -89.724868 5.324027
48.456101 -89.031948 6.592216
48.226695 -91.172943 5.085035
48.638056 -90.461433 4.01625
48.567661 -89.724868 5.324027
45.121218 -97.82124 8.324114
45.701954 -96.518287 8.705594
45.199907 -97.085308 9.757979
44.533699 -100.136109 4.054305
44.791462 -99.342724 5.470506
44.320223 -100.952648 2.661878
45.131792 -99.624684 3.058833
44.533699 -100.136109 4.054305
43.393867 -102.304688 2.261734
43.99196 -101.793262 1.266261
44.320223 -100.952648 2.661878
40.267308 -103.072834 13.799141
39.263896 -104.129722 13.386715
35.417061 -107.853901 11.00244
36.026714 -106.980827 12.260128
34.847271 -107.961834 12.014035
20.70245 -123.515064 1.878587
20.119166 -123.410851 3.169119
36.350588 -94.910869 34.619875
36.472429 -93.936989 36.317284
35.700394 -94.017987 35.495042
36.218238 -95.858341 32.911164
36.990274 -95.777344 33.733404
36.350588 -94.910869 34.619875
36.041283 -96.845653 31.231513
36.218238 -95.858341 32.911164
40.617172 -107.151062 -3.620007
41.810778 -105.795468 -3.26223
41.078565 -106.255809 -2.253032
40.07818 -108.077202 -4.965573
40.617172 -107.151062 -3.620007
39.55378 -108.964149 -6.312245
40.824984 -107.577667 -5.975878
40.07818 -108.077202 -4.965573
45.006767 -94.316352 21.134246
45.137152 -93.664615 22.7223
44.67058 -94.912113 22.36617
44.902975 -94.957829 19.589738
45.369547 -93.710331 19.945868
45.006767 -94.316352 21.134246
44.128117 -97.494602 16.079141
44.532414 -96.895359 14.934936
44.684154 -96.247856 16.482992
43.508308 -98.670117 15.63317
44.128117 -97.494602 16.079141
43.660049 -98.022614 17.181226
42.797064 -99.851478 15.193264
43.508308 -98.670117 15.63317
30.096429 -110.197689 13.581012
31.32188 -109.461586 13.664532
29.403908 -111.336498 12.613599
30.096429 -110.197689 13.581012
28.717239 -112.396385 11.578978
29.973374 -111.566082 11.545757
29.403908 -111.336498 12.613599
27.44424 -113.29871 11.705172
28.013707 -113.528293 10.63733
28.717239 -112.396385 11.578978
26.159313 -114.1021 11.869853
27.44424 -113.29871 11.705172
24.864682 -114.946182 12.100175
25.446078 -115.2747 10.993847
26.159313 -114.1021 11.869853
28.191578 -119.611622 -7.103338
29.607404 -118.380185 -7.235173
35.580835 -101.457367 23.926744
34.98508 -100.779678 24.811931
36.315338 -113.144554 -12.633572
37.047499 -112.36533 -11.448403
39.742829 -108.524284 -16.817535
39.090628 -109.643002 -16.093256
41.099715 -106.905987 -16.534969
39.742829 -108.524284 -16.817535
47.673546 -90.396671 8.807828
47.319576 -91.073627 9.955165
47.769262 -91.110744 7.485233
48.060583 -89.722305 7.715407
47.673546 -90.396671 8.807828
38.245221 -105.07431 12.955883
39.263896 -104.129722 13.386715
38.696482 -104.355301 14.404441
34.825948 -108.686501 9.701052
33.59299 -109.749066 9.552032
24.560474 -118.874241 5.627468
25.241143 -117.839459 6.669382
23.889843 -119.891357 4.620272
24.560474 -118.874241 5.627468
23.292105 -119.819333 5.904261
21.973301 -121.769188 3.87925
22.569806 -121.810367 2.551516
23.217979 -120.877629 3.569331
20.714323 -122.560517 4.180318
21.973301 -121.769188 3.87925
20.119166 -123.410851 3.169119
20.714323 -122.560517 4.180318
39.319446 -93.987561 37.789486
38.69244 -93.414025 38.701729
39.215795 -94.931038 36.126057
39.937147 -94.528278 36.856361
39.319446 -93.987561 37.789486
35.851761 -97.787259 29.550223
36.668403 -97.66642 30.343403
36.041283 -96.845653 31.231513
35.598517 -98.796776 27.935904
35.851761 -97.787259 29.550223
35.330202 -99.742378 26.323985
36.210567 -99.553627 27.050193
35.598517 -98.796776 27.935904
34.98508 -100.779678 24.811931
35.330202 -99.742378 26.323985
44.890488 -92.641693 29.928106
45.057739 -91.86884 31.513445
44.485562 -93.031261 31.208278
45.281427 -92.193416 28.676068
44.890488 -92.641693 29.928106
44.709249 -93.355839 28.3709
45.614046 -91.673367 27.369532
45.281427 -92.193416 28.676068
45.426609 -92.340503 25.846685
44.950576 -93.583969 25.536543
45.276996 -93.01691 24.264367
45.614046 -91.673367 27.369532
45.426609 -92.340503 25.846685
45.666958 -93.053368 18.710601
45.369547 -93.710331 19.945868
45.666958 -93.053368 18.710601
45.603088 -93.700046 17.213266
46.229662 -93.047089 13.362188
45.903078 -93.716644 14.542208
46.245627 -93.739959 11.930813
46.609555 -92.402046 12.233757
46.229662 -93.047089 13.362188
45.335165 -96.384002 11.23291
45.823189 -95.083679 11.599352
45.377711 -95.685326 12.692803
45.199907 -97.085308 9.757979
45.335165 -96.384002 11.23291
44.989069 -96.317131 13.832575
44.532414 -96.895359 14.934936
31.882219 -109.660694 12.686819
32.544055 -108.616085 13.770972
31.32188 -109.461586 13.664532
32.369158 -110.707974 9.426276
33.59299 -109.749066 9.552032
33.013784 -109.793816 10.630592
31.692076 -111.704292 8.32039
32.369158 -110.707974 9.426276
31.112869 -111.749043 9.39895
31.031084 -112.658756 7.146838
31.692076 -111.704292 8.32039
29.754036 -113.761707 7.200404
31.031084 -112.658756 7.146838
28.485655 -114.76807 7.292072
29.754036 -113.761707 7.200404
29.167406 -113.751724 8.384731
27.209288 -115.817394 7.451852
28.485655 -114.76807 7.292072
25.929624 -116.764984 7.646361
27.209288 -115.817394 7.451852
26.619362 -115.705677 8.670906
24.651218 -117.727742 7.888435
25.241143 -117.839459 6.669382
25.929624 -116.764984 7.646361
22.071516 -119.423626 8.45058
22.677925 -119.641628 7.203015
23.356327 -118.584214 8.159022
31.815613 -117.096172 -10.777634
31.058954 -117.571163 -9.647701
31.02664 -117.857811 -11.891488
31.815613 -117.096172 -10.777634
26.746365 -120.786053 -6.888236
26.135026 -121.064556 -5.549721
25.371861 -121.905945 -6.615279
27.428413 -120.453011 -8.168895
28.191578 -119.611622 -7.103338
26.746365 -120.786053 -6.888236
25.156656 -122.33543 -8.911143
24.588291 -122.657135 -7.578009
26.630746 -121.244179 -9.226983
25.156656 -122.33543 -8.911143
25.804202 -121.952168 -10.184334
29.46414 -119.130882 -11.819004
28.788585 -119.637115 -10.644673
27.953847 -120.354683 -11.674504
31.02664 -117.857811 -11.891488
29.46414 -119.130882 -11.819004
41.362869 -93.342315 38.12648
40.641062 -93.942833 37.523634
41.940807 -93.528709 37.055135
41.362869 -93.342315 38.12648
42.505413 -93.658783 35.973629
41.940807 -93.528709 37.055135
41.805931 -94.430938 35.445971
43.037806 -93.632309 34.811657
42.505413 -93.658783 35.973629
43.554527 -93.541473 33.65506
43.037806 -93.632309 34.811657
42.887259 -94.470177 33.207867
44.028396 -93.318874 32.422443
43.554527 -93.541473 33.65506
43.861145 -94.091728 30.837104
44.485562 -93.031261 31.208278
44.028396 -93.318874 32.422443
36.176541 -102.00008 23.035986
36.537958 -101.041943 24.547517
35.580835 -101.457367 23.926744
36.758021 -102.46075 22.14324
36.176541 -102.00008 23.035986
35.800898 -102.876174 21.522467
33.775345 -106.653641 16.14771
34.890047 -106.026341 16.515615
34.328165 -105.742542 17.448886
33.160472 -107.677208 14.981562
33.775345 -106.653641 16.14771
37.402963 -91.91349 40.423868
38.0531 -92.670204 39.579435
36.742151 -91.012668 41.273251
36.067394 -90.119858 42.079105
36.658603 -92.001857 39.663977
37.402963 -91.91349 40.423868
36.742151 -91.012668 41.273251
35.14991 -92.032204 38.083635
35.910013 -92.072571 38.852905
35.237688 -91.060669 39.744089
35.041383 -93.013161 36.405029
35.14991 -92.032204 38.083635
48.662706 -93.373848 -1.096952
48.731123 -92.619282 0.202672
48.250305 -94.165394 -0.121726
49.07365 -92.522599 -2.034771
48.662706 -93.373848 -1.096952
48.592833 -94.068711 -2.359169
49.506132 -91.620815 -2.989153
49.07365 -92.522599 -2.034771
49.429364 -92.235413 -4.214529
49.506132 -91.620815 -2.989153
49.281864 -92.908539 -5.486308
49.429364 -92.235413 -4.214529
48.856278 -93.890587 -4.568766
49.137901 -93.494267 -6.722036
49.281864 -92.908539 -5.486308
48.919712 -94.130295 -7.998868
49.137901 -93.494267 -6.722036
48.490589 -95.199742 -7.117375
48.715458 -94.672958 -9.235836
48.919712 -94.130295 -7.998868
48.432316 -95.254544 -10.502793
48.715458 -94.672958 -9.235836
47.989258 -96.417355 -9.661164
48.169773 -95.73803 -11.721315
48.432316 -95.254544 -10.502793
47.357121 -97.508664 -12.159176
46.878473 -98.712772 -11.37818
46.529478 -99.222496 -12.609234
48.169773 -95.73803 -11.721315
47.357121 -97.508664 -12.159176
38.212591 -110.376205 -6.618553
36.840154 -111.741803 -6.8671
38.959395 -109.876671 -7.628858
39.55378 -108.964149 -6.312245
38.212591 -110.376205 -6.618553
36.960417 -112.15276 -9.201901
36.189121 -112.669433 -8.140054
38.369101 -110.724663 -8.938154
36.960417 -112.15276 -9.201901
37.711312 -111.588696 -10.204887
37.045111 -112.387695 -13.568067
36.315338 -113.144554 -12.633572
37.746389 -111.572754 -14.460898
38.439858 -110.639916 -15.289806
38.493648 -110.898925 -13.321004
37.045111 -112.387695 -13.568067
37.746389 -111.572754 -14.460898
42.348116 -105.285424 -16.177826
41.74487 -106.469594 -15.46359
41.099715 -106.905987 -16.534969
43.541279 -103.599171 -15.817993
42.348116 -105.285424 -16.177826
44.621588 -101.917518 -15.40269
44.07358 -103.167378 -14.691144
43.541279 -103.599171 -15.817993
45.657356 -100.174629 -14.992944
44.621588 -101.917518 -15.40269
23.552736 -115.696991 12.375276
24.864682 -114.946182 12.100175
22.833568 -116.871582 11.530574
23.552736 -115.696991 12.375276
22.234858 -116.449791 12.68168
22.132804 -117.995296 10.621783
23.450682 -117.242497 10.315378
22.833568 -116.871582 11.530574
21.437394 -119.095505 9.720657
22.132804 -117.995296 10.621783
20.758992 -120.15292 8.76465
22.071516 -119.423626 8.45058
21.437394 -119.095505 9.720657
48.712021 -91.16454 2.75843
48.638056 -90.461433 4.01625
48.307906 -92.660168 2.477577
48.722837 -91.915199 1.45875
48.712021 -91.16454 2.75843
44.93046 -98.565762 6.88074
45.121218 -97.82124 8.324114
45.484266 -98.031182 5.861495
44.93046 -98.565762 6.88074
44.791462 -99.342724 5.470506
42.394317 -103.599182 1.874628
43.393867 -102.304688 2.261734
41.961893 -104.468933 0.492177
42.394317 -103.599182 1.874628
41.565176 -105.34639 -0.888509
42.668888 -104.022759 -0.514569
41.961893 -104.468933 0.492177
41.078565 -106.255809 -2.253032
41.565176 -105.34639 -0.888509
42.034782 -100.944809 14.716345
42.797064 -99.851478 15.193264
42.27796 -100.291459 16.258336
41.167568 -102.059872 14.272212
40.615417 -102.397751 15.308345
40.267308 -103.072834 13.799141
42.034782 -100.944809 14.716345
41.167568 -102.059872 14.272212
37.137156 -106.086391 12.611071
36.567366 -106.194324 13.622666
36.026714 -106.980827 12.260128
38.245221 -105.07431 12.955883
37.137156 -106.086391 12.611071
35.417061 -107.853901 11.00244
34.825948 -108.686501 9.701052
21.901667 -122.717266 1.520662
23.146346 -121.825706 1.210743
22.569806 -121.810367 2.551516
21.901667 -122.717266 1.520662
20.70245 -123.515064 1.878587
3 125 124 31
3 0 36 34
3 0 38 36
3 0 39 38
3 1 44 42
3 1 46 44
3 1 48 46
3 3 51 49
3 4 54 52
3 4 56 54
3 5 126 127
3 5 128 130
3 128 57 129
3 128 129 130
3 5 59 57
3 2 62 60
3 132 131 63
3 6 133 135
3 133 65 134
3 133 134 135
3 8 66 32
3 8 67 66
3 8 69 67
3 10 72 70
3 12 73 33
3 12 74 73
3 13 76 75
3 137 136 35
3 14 138 140
3 140 139 37
3 138 139 140
3 14 141 143
3 141 77 142
3 141 142 143
3 14 144 146
3 146 145 77
3 144 145 146
3 147 81 148
3 149 148 79
3 147 148 149
3 16 82 40
3 16 83 82
3 16 84 83
3 17 85 41
3 17 86 85
3 18 150 151
3 18 152 154
3 152 87 153
3 152 153 154
3 155 88 156
3 157 89 158
3 160 159 89
3 7 161 163
3 161 90 162
3 161 162 163
3 19 91 43
3 19 92 91
3 19 93 92
3 20 94 45
3 20 95 94
3 20 97 95
3 22 98 47
3 22 99 98
3 9 100 68
3 164 101 165
3 166 102 167
3 168 167 101
3 166 167 168
3 170 169 102
3 171 103 172
3 171 172 173
3 176 175 103
3 174 175 176
3 23 177 178
3 24 104 50
3 24 105 104
3 11 106 71
3 25 107 53
3 25 108 107
3 25 109 108
3 26 179 181
3 181 180 55
3 179 180 181
3 26 182 183
3 184 110 185
3 27 186 188
3 186 111 187
3 186 187 188
3 27 112 111
3 28 189 191
3 189 113 190
3 189 190 191
3 28 114 113
3 28 115 114
3 29 192 194
3 192 193 194
3 29 195 196
3 29 197 199
3 197 116 198
3 197 198 199
3 30 117 58
3 30 118 117
3 200 119 201
3 202 201 78
3 200 201 202
3 203 120 204
3 205 121 206
3 207 206 120
3 205 206 207
3 208 122 209
3 210 209 121
3 208 209 210
3 21 123 96
3 212 211 61
3 15 213 215
3 215 214 80
3 213 214 215
3 217 216 64
3 31 32 6
3 218 32 219
3 220 219 31
3 218 219 220
3 221 8 222
3 223 222 32
3 221 222 223
3 225 224 8
3 226 33 227
3 228 227 10
3 226 227 228
3 229 33 230
3 231 12 232
3 233 232 33
3 231 232 233
3 34 35 13
3 36 35 34
3 36 234 236
3 236 235 35
3 234 235 236
3 36 237 239
3 237 37 238
3 237 238 239
3 38 37 36
3 38 14 37
3 38 240 242
3 242 241 14
3 240 241 242
3 39 243 245
3 245 244 38
3 243 244 245
3 39 246 247
3 248 40 249
3 250 40 251
3 252 16 253
3 254 253 40
3 252 253 254
3 255 41 256
3 257 256 16
3 255 256 257
3 258 41 259
3 260 17 261
3 262 261 41
3 260 261 262
3 263 18 264
3 42 43 7
3 44 43 42
3 44 19 43
3 44 45 19
3 46 45 44
3 46 20 45
3 46 47 20
3 48 47 46
3 48 22 47
3 266 265 9
3 49 50 23
3 51 50 49
3 51 24 50
3 52 53 11
3 54 53 52
3 54 25 53
3 54 55 25
3 56 55 54
3 56 26 55
3 267 27 268
3 269 28 270
3 272 271 28
3 57 273 274
3 57 275 277
3 275 29 276
3 275 276 277
3 57 58 29
3 59 58 57
3 59 30 58
3 60 61 21
3 62 61 60
3 62 278 280
3 280 279 61
3 278 279 280
3 282 281 15
3 63 283 284
3 287 286 63
3 285 286 287
3 288 64 289
3 288 289 290
3 291 64 292
3 294 293 64
3 65 295 296
3 65 297 299
3 297 7 298
3 297 298 299
3 32 65 6
3 66 65 32
3 66 7 65
3 66 42 7
3 67 42 66
3 67 1 42
3 67 68 1
3 69 68 67
3 69 9 68
3 300 69 301
3 302 301 8
3 300 301 302
3 303 69 304
3 305 9 306
3 307 306 69
3 305 306 307
3 309 308 9
3 70 71 3
3 72 71 70
3 72 11 71
3 33 72 10
3 73 72 33
3 73 11 72
3 73 52 11
3 74 52 73
3 74 4 52
3 75 310 312
3 310 311 312
3 76 313 315
3 315 314 75
3 313 314 315
3 76 316 317
3 35 76 13
3 318 76 319
3 320 319 35
3 318 319 320
3 322 321 76
3 37 323 324
3 326 325 37
3 77 327 328
3 77 329 331
3 329 5 330
3 329 330 331
3 77 78 5
3 332 78 333
3 334 333 77
3 332 333 334
3 336 335 78
3 338 337 14
3 79 80 2
3 81 80 79
3 81 15 80
3 40 339 341
3 339 81 340
3 339 340 341
3 82 81 40
3 82 15 81
3 82 342 344
3 344 343 15
3 342 343 344
3 83 345 347
3 347 346 82
3 345 346 347
3 83 348 349
3 83 350 351
3 84 352 354
3 354 353 83
3 352 353 354
3 84 355 356
3 41 84 16
3 85 84 41
3 85 357 359
3 359 358 84
3 357 358 359
3 85 360 362
3 360 63 361
3 360 361 362
3 86 63 85
3 86 363 365
3 365 364 63
3 363 364 365
3 87 366 367
3 87 368 369
3 88 370 372
3 370 371 372
3 88 373 375
3 373 18 374
3 373 374 375
3 376 88 377
3 89 378 380
3 378 88 379
3 378 379 380
3 89 18 88
3 89 87 18
3 381 87 382
3 383 382 89
3 381 382 383
3 385 384 87
3 90 386 387
3 90 388 389
3 43 90 7
3 91 90 43
3 91 390 392
3 392 391 90
3 390 391 392
3 91 393 394
3 92 395 397
3 397 396 91
3 395 396 397
3 92 398 399
3 92 400 402
3 400 75 401
3 400 401 402
3 93 75 92
3 93 13 75
3 45 93 19
3 94 93 45
3 94 13 93
3 94 34 13
3 95 34 94
3 95 0 34
3 95 96 0
3 97 96 95
3 97 21 96
3 47 97 20
3 98 97 47
3 98 21 97
3 98 60 21
3 99 60 98
3 99 2 60
3 68 48 1
3 100 48 68
3 100 22 48
3 403 100 404
3 405 404 9
3 403 404 405
3 101 406 408
3 406 100 407
3 406 407 408
3 101 22 100
3 101 99 22
3 102 99 101
3 102 2 99
3 102 79 2
3 409 79 410
3 411 410 102
3 409 410 411
3 413 412 79
3 414 6 415
3 103 416 417
3 103 418 420
3 418 6 419
3 418 419 420
3 103 31 6
3 421 31 422
3 423 422 103
3 421 422 423
3 425 424 31
3 50 426 428
3 428 427 23
3 426 427 428
3 104 429 431
3 431 430 50
3 429 430 431
3 104 432 433
3 104 434 435
3 105 436 438
3 438 437 104
3 436 437 438
3 105 439 440
3 71 51 3
3 106 51 71
3 106 24 51
3 53 106 11
3 107 106 53
3 107 24 106
3 107 105 24
3 108 105 107
3 108 441 443
3 443 442 105
3 441 442 443
3 108 444 445
3 109 446 448
3 448 447 108
3 446 447 448
3 109 449 450
3 55 109 25
3 451 109 452
3 453 452 55
3 451 452 453
3 455 454 109
3 110 456 457
3 110 458 460
3 458 12 459
3 458 459 460
3 461 110 462
3 111 463 465
3 463 110 464
3 463 464 465
3 111 12 110
3 111 74 12
3 112 74 111
3 112 4 74
3 466 27 467
3 113 468 469
3 113 470 472
3 470 27 471
3 470 471 472
3 113 112 27
3 114 112 113
3 114 4 112
3 114 56 4
3 115 56 114
3 115 26 56
3 473 115 474
3 475 474 28
3 473 474 475
3 476 115 477
3 478 26 479
3 480 479 115
3 478 479 480
3 482 481 26
3 483 17 484
3 485 17 486
3 485 486 487
3 488 86 489
3 490 489 17
3 488 489 490
3 491 86 492
3 495 494 86
3 493 494 495
3 116 496 497
3 116 498 500
3 498 23 499
3 498 499 500
3 58 116 29
3 117 116 58
3 117 23 116
3 117 49 23
3 118 49 117
3 118 3 49
3 78 59 5
3 119 59 78
3 119 30 59
3 501 119 502
3 120 503 505
3 503 119 504
3 503 504 505
3 120 30 119
3 120 118 30
3 121 118 120
3 121 3 118
3 121 70 3
3 122 70 121
3 122 10 70
3 506 122 507
3 508 122 509
3 510 10 511
3 512 511 122
3 510 511 512
3 514 513 10
3 96 39 0
3 123 39 96
3 123 515 517
3 517 516 39
3 515 516 517
3 61 123 21
3 518 123 519
3 520 519 61
3 518 519 520
3 522 521 123
3 80 62 2
3 523 62 524
3 525 524 80
3 523 524 525
3 527 526 62
3 529 528 15
3 64 530 532
3 530 531 532
3 534 533 64
