ply
format ascii 1.0
element vertex 319
property float x
property float y
property float z
element face 271
property list uchar int vertex_index
end_header
40.589478 -6.579755 -4.454247
39.837685 3.617794 -7.63932
41.969318 12.922829 -23.068964
39.291565 -8.137798 3.237873
40.294441 -2.235928 -5.890385
40.162521 13.852268 -17.241148
37.650379 18.448471 -31.99423
41.220215 8.399311 -15.229868
41.981277 2.739061 -13.180706
39.928513 16.957188 -24.938326
43.532459 8.317513 -21.009615
39.057888 -1.493828 -1.25633
39.918991 -7.438541 -0.967287
38.499386 -1.253809 3.045521
40.458908 -4.73409 -5.098663
41.38102 -5.095816 -7.369076
41.407192 -7.149447 -6.269772
40.517616 6.023624 -11.374712
40.822994 3.043713 -10.391378
40.274681 15.528538 -21.112715
39.355312 17.696499 -22.084044
41.009575 15.026962 -24.025354
42.863079 5.495523 -17.06349
42.361382 8.138647 -18.116476
44.154507 5.876762 -19.899733
38.36076 2.128016 0.556534
38.710777 -1.318478 0.928539
38.743591 1.705875 -1.749531
39.581272 -7.80614 1.11879
40.180603 -10.737924 1.037992
37.495712 17.872845 -34.660568
36.102364 19.007729 -32.378838
40.08828 0.595949 -6.744665
41.07365 0.139156 -9.403404
41.262978 -2.610895 -8.400562
41.078278 13.190399 -20.133238
39.086857 -8.442027 5.319667
39.809746 -11.224687 3.206374
39.043949 18.008541 -28.623514
37.62133 19.199303 -29.312231
39.190147 17.620029 -31.464197
39.123466 17.45636 -34.302109
39.747387 11.96879 -13.368696
40.160011 9.016638 -12.363636
41.634109 5.57263 -14.215467
43.284229 2.822908 -15.969393
40.733223 11.173485 -16.23498
41.770386 10.715473 -19.137136
42.807724 10.676079 -22.064917
39.841488 -4.511615 -3.026295
40.271172 -7.024467 -2.909723
39.427025 -4.537348 -0.990417
39.104042 -4.643161 1.105501
38.868301 -4.788852 3.201833
38.741646 -4.962764 5.238165
39.039223 4.327358 -4.966879
39.313812 1.165739 -4.184519
39.568886 -1.810074 -3.514181
36.156815 20.129257 -29.910769
40.33034 3.330754 -9.015349
40.184275 4.890441 -9.480431
39.69162 5.177481 -8.104401
42.370207 13.006332 -24.55426
41.890335 14.058399 -25.032455
41.489446 13.974895 -23.547159
44.418925 4.629802 -19.31534
43.508793 5.686143 -18.481611
43.773211 4.439182 -17.897219
38.256189 2.266344 1.643783
38.081423 4.132917 1.399994
38.081423 4.132917 1.399994
38.190297 3.897532 0.277623
37.91096 5.902432 1.121083
36.516474 17.703919 -36.046669
36.6993 17.944119 -34.739719
37.312885 17.632645 -35.967517
41.986733 -5.161428 -8.590556
41.997048 -6.264816 -7.945749
39.829849 15.123621 -17.75
39.444032 15.702624 -16.356047
40.620399 13.521334 -18.687193
40.287728 14.792687 -19.196045
39.829849 15.123621 -17.75
39.258083 -10.184186 6.328449
39.297949 -10.043467 5.332135
39.046992 -8.582746 6.315981
39.937162 17.076794 -31.127415
39.117048 17.814285 -30.043855
39.864063 17.27105 -29.707073
39.827129 17.309442 -35.484905
39.93388 17.110952 -34.021809
40.637542 16.964035 -35.204605
38.966667 17.438778 -35.701206
39.827129 17.309442 -35.484905
39.687942 9.450242 -10.950807
39.505024 11.007209 -11.457702
41.667725 0.044569 -10.75818
41.77154 -1.29647 -10.200195
39.126704 18.310469 -23.996818
38.840103 18.680124 -22.569677
39.641913 17.326843 -23.511185
39.332448 17.820223 -25.375156
39.126704 18.310469 -23.996818
40.160553 16.76627 -26.392866
39.564487 17.629305 -26.829696
39.332448 17.820223 -25.375156
38.630902 -3.170634 6.087797
38.585369 -3.120961 5.149805
38.748282 -5.060356 6.20168
38.630902 -3.170634 6.087797
38.736041 4.685636 -3.689286
38.574055 6.396201 -4.08698
38.873335 3.104826 -3.298106
39.176518 2.746549 -4.575699
38.736041 4.685636 -3.689286
40.436985 -8.453202 -2.042093
40.613076 -8.246164 -3.013311
40.095081 -7.231504 -1.938505
40.703729 -13.662133 2.048726
40.374398 -12.28787 2.072396
40.139078 -12.598951 3.182704
35.391924 19.899574 -31.397165
35.34128 19.154276 -32.499711
42.010134 -7.291632 -7.396097
41.997048 -6.264816 -7.945749
41.394106 -6.122632 -6.819424
39.717428 14.341112 -15.820937
39.444032 15.702624 -16.356047
40.031585 6.380396 -9.972098
39.866745 7.953735 -10.456346
40.670305 4.533669 -10.883045
40.031585 6.380396 -9.972098
40.184275 4.890441 -9.480431
39.814996 16.612519 -21.59838
39.042851 18.230427 -20.691498
39.502535 17.146446 -20.205834
41.3251 14.976381 -25.505499
40.784569 15.941494 -25.961984
40.469044 15.992075 -24.48184
41.3251 14.976381 -25.505499
41.890335 14.058399 -25.032455
38.431198 0.543096 1.829785
38.535769 0.404769 0.742536
38.256189 2.266344 1.643783
38.325502 0.575431 2.888276
38.605081 -1.286144 1.98703
38.431198 0.543096 1.829785
38.381712 3.686462 -0.875409
38.588225 3.374894 -2.080612
38.552176 1.916946 -0.596499
38.381712 3.686462 -0.875409
38.190297 3.897532 0.277623
40.07902 -8.985364 0.010139
40.247879 -8.801564 -1.032899
39.750131 -7.62234 0.075751
40.378685 -10.451256 -0.030259
40.07902 -8.985364 0.010139
39.880938 -9.272032 1.078391
40.801719 -11.677697 -0.112466
40.378685 -10.451256 -0.030259
36.002627 18.511561 -33.598855
36.799038 18.440287 -33.519703
36.6993 17.944119 -34.739719
35.34128 19.154276 -32.499711
36.002627 18.511561 -33.598855
41.866203 -2.671495 -9.698774
41.77154 -1.29647 -10.200195
41.168314 -1.23587 -8.901983
41.927712 -3.918967 -9.106299
41.321999 -3.853356 -7.884819
41.986733 -5.161428 -8.590556
41.866203 -2.671495 -9.698774
41.927712 -3.918967 -9.106299
39.885929 15.961756 -19.685783
39.502535 17.146446 -20.205834
40.676479 14.359468 -20.622977
39.885929 15.961756 -19.685783
40.287728 14.792687 -19.196045
39.659394 -11.434797 4.275489
39.448301 -9.833357 4.26302
39.297949 -10.043467 5.332135
40.139078 -12.598951 3.182704
39.659394 -11.434797 4.275489
38.332639 18.603922 -28.967872
37.537232 19.688712 -27.980345
38.248541 19.093331 -27.635986
39.96722 17.192787 -32.602852
39.937162 17.076794 -31.127415
39.156807 17.538194 -32.883153
39.96722 17.192787 -32.602852
39.93388 17.110952 -34.021809
38.15279 17.64702 -35.880436
38.309589 17.664603 -34.481338
38.966667 17.438778 -35.701206
37.312885 17.632645 -35.967517
38.15279 17.64702 -35.880436
39.298712 12.483285 -11.960233
39.096434 13.996009 -12.494367
39.953699 10.492714 -12.866166
39.298712 12.483285 -11.960233
39.505024 11.007209 -11.457702
40.338814 7.520131 -11.869174
39.687942 9.450242 -10.950807
39.866745 7.953735 -10.456346
43.983786 3.102874 -17.35017
43.773211 4.439182 -17.897219
43.073654 4.159216 -16.516441
41.542397 1.496847 -11.252167
40.948322 1.591434 -9.897391
41.667725 0.044569 -10.75818
42.121538 1.344521 -12.646832
41.402135 2.891387 -11.786042
41.542397 1.496847 -11.252167
42.804333 1.450085 -14.001918
42.121538 1.344521 -12.646832
43.455809 1.492009 -15.396262
42.632753 2.780984 -14.57505
42.804333 1.450085 -14.001918
44.203724 1.844534 -16.732968
43.455809 1.492009 -15.396262
43.983786 3.102874 -17.35017
44.203724 1.844534 -16.732968
38.608957 19.312473 -21.227861
39.042851 18.230427 -20.691498
38.608957 19.312473 -21.227861
38.840103 18.680124 -22.569677
38.890165 18.3459 -27.217751
38.248541 19.093331 -27.635986
39.718271 17.291947 -28.23546
38.890165 18.3459 -27.217751
39.564487 17.629305 -26.829696
39.864063 17.27105 -29.707073
39.718271 17.291947 -28.23546
40.160553 16.76627 -26.392866
40.784569 15.941494 -25.961984
39.509861 13.399373 -13.884711
39.096434 13.996009 -12.494367
40.002779 13.00172 -15.317853
39.509861 13.399373 -13.884711
40.240305 11.571137 -14.801838
40.447872 12.512877 -16.738064
39.717428 14.341112 -15.820937
40.002779 13.00172 -15.317853
45.130927 5.168611 -20.676749
44.418925 4.629802 -19.31534
44.796162 6.317694 -21.307755
45.130927 5.168611 -20.676749
44.485138 7.538069 -21.862696
43.843483 7.097138 -20.454674
44.796162 6.317694 -21.307755
44.098312 8.648214 -22.455839
44.485138 7.538069 -21.862696
43.735945 9.827497 -22.98349
43.170091 9.496796 -21.537266
44.098312 8.648214 -22.455839
43.292835 10.887016 -23.537899
43.735945 9.827497 -22.98349
42.873632 12.010392 -24.039923
42.388521 11.799454 -22.566941
43.292835 10.887016 -23.537899
42.370207 13.006332 -24.55426
42.873632 12.010392 -24.039923
38.30805 0.643079 3.900899
38.325502 0.575431 2.888276
38.464239 -1.266484 4.053482
38.30805 0.643079 3.900899
38.648696 -3.034005 4.131639
38.683844 -3.021331 3.123677
38.464239 -1.266484 4.053482
38.804974 -4.875808 4.219999
38.648696 -3.034005 4.131639
38.585369 -3.120961 5.149805
38.920887 -6.799988 6.242431
38.914252 -6.702395 5.278916
38.748282 -5.060356 6.20168
39.046992 -8.582746 6.315981
38.920887 -6.799988 6.242431
39.287764 5.604197 -6.73692
39.69162 5.177481 -8.104401
38.888533 5.958979 -5.400699
38.574055 6.396201 -4.08698
39.438454 3.972576 -6.3031
39.287764 5.604197 -6.73692
38.888533 5.958979 -5.400699
39.028701 1.435807 -2.967025
38.873335 3.104826 -3.298106
38.588225 3.374894 -2.080612
40.767546 -7.793696 -3.899705
40.926699 -7.57134 -4.671967
40.430325 -6.802111 -3.681985
40.767546 -7.793696 -3.899705
40.613076 -8.246164 -3.013311
40.436985 -8.453202 -2.042093
40.247879 -8.801564 -1.032899
40.559826 -12.044488 0.988206
39.995174 -10.981305 2.122183
40.374398 -12.28787 2.072396
40.801719 -11.677697 -0.112466
40.559826 -12.044488 0.988206
36.863083 20.309948 -28.379047
37.537232 19.688712 -27.980345
36.130826 20.774925 -28.678317
36.863083 20.309948 -28.379047
36.889072 19.66428 -29.6115
35.437345 21.263782 -29.053963
36.130826 20.774925 -28.678317
35.41915 20.460338 -30.16313
36.12959 19.568493 -31.144804
35.391924 19.899574 -31.397165
34.69968 21.594864 -29.306324
35.437345 21.263782 -29.053963
35.41915 20.460338 -30.16313
41.335556 -7.856186 -5.57973
40.998335 -6.864601 -5.362009
40.926699 -7.57134 -4.671967
41.955458 -8.19906 -6.662376
41.335556 -7.856186 -5.57973
42.010134 -7.291632 -7.396097
41.955458 -8.19906 -6.662376
3 0 16 14
3 1 59 61
3 59 18 60
3 59 60 61
3 2 21 19
3 2 62 64
3 64 63 21
3 62 63 64
3 65 24 66
3 67 66 22
3 65 66 67
3 69 68 25
3 70 25 71
3 70 71 72
3 3 29 28
3 75 74 30
3 73 74 75
3 4 34 32
3 77 76 15
3 5 78 79
3 5 80 82
3 80 35 81
3 80 81 82
3 85 84 36
3 83 84 85
3 86 40 87
3 88 87 38
3 86 87 88
3 89 41 90
3 89 90 91
3 93 92 41
3 94 43 95
3 8 44 17
3 8 45 44
3 97 96 33
3 9 98 100
3 100 99 20
3 98 99 100
3 9 101 102
3 9 103 105
3 103 104 105
3 7 46 42
3 10 47 23
3 10 48 47
3 11 51 49
3 13 52 26
3 13 53 52
3 106 54 107
3 109 108 54
3 110 55 111
3 112 56 113
3 114 113 55
3 112 113 114
3 11 57 27
3 11 49 57
3 12 115 117
3 117 116 50
3 115 116 117
3 120 119 37
3 118 119 120
3 6 58 39
3 122 121 31
3 14 15 4
3 16 15 14
3 16 123 125
3 125 124 15
3 123 124 125
3 126 5 127
3 128 17 129
3 18 130 132
3 130 17 131
3 130 131 132
3 18 8 17
3 19 133 135
3 133 20 134
3 133 134 135
3 21 20 19
3 21 9 20
3 21 136 138
3 138 137 9
3 136 137 138
3 140 139 21
3 22 23 7
3 24 23 22
3 24 10 23
3 25 26 11
3 141 26 142
3 143 142 25
3 141 142 143
3 144 13 145
3 146 145 26
3 144 145 146
3 147 27 148
3 25 149 151
3 149 27 150
3 149 150 151
3 25 11 27
3 28 152 154
3 154 153 12
3 152 153 154
3 29 155 157
3 157 156 28
3 155 156 157
3 29 158 159
3 30 31 6
3 160 31 161
3 162 161 30
3 160 161 162
3 164 163 31
3 32 33 1
3 34 33 32
3 34 165 167
3 167 166 33
3 165 166 167
3 15 34 4
3 168 34 169
3 170 169 15
3 168 169 170
3 172 171 34
3 173 19 174
3 35 175 177
3 175 19 176
3 175 176 177
3 35 2 19
3 36 37 3
3 178 37 179
3 180 179 36
3 178 179 180
3 182 181 37
3 38 183 185
3 183 39 184
3 183 184 185
3 40 39 38
3 40 6 39
3 186 40 187
3 41 188 190
3 188 40 189
3 188 189 190
3 41 6 40
3 41 30 6
3 191 30 192
3 193 192 41
3 191 192 193
3 195 194 30
3 196 42 197
3 43 198 200
3 198 42 199
3 198 199 200
3 43 7 42
3 17 201 203
3 201 43 202
3 201 202 203
3 44 43 17
3 44 7 43
3 44 22 7
3 45 22 44
3 45 204 206
3 206 205 22
3 204 205 206
3 33 18 1
3 207 18 208
3 209 208 33
3 207 208 209
3 210 8 211
3 212 211 18
3 210 211 212
3 213 8 214
3 215 45 216
3 217 216 8
3 215 216 217
3 218 45 219
3 221 220 45
3 20 222 223
3 225 224 20
3 226 38 227
3 228 38 229
3 228 229 230
3 232 231 38
3 234 233 9
3 42 235 236
3 46 237 239
3 239 238 42
3 237 238 239
3 46 240 242
3 240 5 241
3 240 241 242
3 23 46 7
3 47 46 23
3 47 5 46
3 47 35 5
3 48 35 47
3 48 2 35
3 243 24 244
3 245 24 246
3 247 10 248
3 249 248 24
3 247 248 249
3 250 10 251
3 252 48 253
3 254 253 10
3 252 253 254
3 255 48 256
3 257 2 258
3 259 258 48
3 257 258 259
3 261 260 2
3 49 50 0
3 51 50 49
3 51 12 50
3 26 51 11
3 52 51 26
3 52 12 51
3 52 28 12
3 53 28 52
3 53 3 28
3 262 13 263
3 264 13 265
3 266 53 267
3 268 267 13
3 266 267 268
3 54 269 271
3 269 53 270
3 269 270 271
3 54 3 53
3 54 36 3
3 272 36 273
3 274 273 54
3 272 273 274
3 276 275 36
3 277 1 278
3 55 279 280
3 55 281 283
3 281 1 282
3 281 282 283
3 55 32 1
3 56 32 55
3 56 4 32
3 27 284 286
3 284 56 285
3 284 285 286
3 57 56 27
3 57 4 56
3 57 14 4
3 49 14 57
3 49 0 14
3 50 287 289
3 289 288 0
3 287 288 289
3 291 290 50
3 293 292 12
3 37 29 3
3 294 29 295
3 296 295 37
3 294 295 296
3 298 297 29
3 39 299 300
3 58 301 303
3 303 302 39
3 301 302 303
3 58 304 305
3 31 58 6
3 306 58 307
3 308 307 31
3 306 307 308
3 311 310 58
3 309 310 311
3 312 16 313
3 314 313 0
3 312 313 314
3 315 16 316
3 318 317 16
