ply
format ascii 1.0
element vertex 500
property float x
property float y
property float z
element face 567
property list uchar int vertex_index
end_header
-1.347937 56.535416 -10.884073
0.287195 54.229294 14.779689
3.15085 78.846687 6.767364
1.485544 47.925331 27.065704
2.292236 73.244095 21.189398
-4.670412 39.688534 -14.200459
-1.974077 54.290039 -22.332415
-0.696503 57.159447 1.810526
2.384222 51.405785 35.716843
2.691233 60.673286 23.156269
2.870176 66.614578 9.640511
2.266714 69.300064 -3.830549
2.806108 81.546692 -7.180216
0.62604 69.647438 -16.600058
-3.441458 50.145958 -6.92811
-3.287683 48.695206 -12.907389
-3.091448 46.993805 -18.492838
-1.650404 55.495735 -16.803247
-0.244209 56.180031 8.330876
1.808317 57.815788 35.454044
2.54048 56.449348 29.637058
2.183002 62.874031 28.887966
2.820906 76.427002 13.947184
2.949896 70.295914 15.034483
3.150215 72.770821 8.033195
2.716845 68.331253 2.85067
3.035765 74.502922 1.118629
1.777695 76.087173 -12.251261
0.870848 51.417725 21.060843
-4.001661 37.406876 -19.421984
-2.917078 45.236748 -23.594309
-1.053736 57.200272 -4.645496
1.497065 51.841637 41.571232
2.507483 50.139954 30.824898
2.30562 54.325829 24.79949
2.093412 57.816711 18.423006
2.585194 67.015938 22.029894
2.82373 64.064804 16.445505
1.872847 60.498238 11.856041
1.600449 62.289001 5.209222
1.220146 63.187943 -1.407177
0.693953 63.343933 -7.872835
3.142159 80.549149 -0.28591
2.539818 75.582596 -5.655176
1.521601 69.690842 -10.332071
0.027876 63.014549 -14.09413
-0.693697 62.391083 -20.006182
-2.333799 53.347878 -8.991837
-3.380766 49.473457 -9.963095
-2.365408 52.754906 -12.008228
-2.391176 52.086098 -14.934671
-1.494223 56.043968 -13.887289
-0.588524 50.963318 16.484455
-0.94953 52.094185 13.34024
0.013485 55.321281 11.570832
1.486536 61.056374 35.39299
1.989946 60.461494 32.217461
1.703568 63.686378 32.047852
3.021397 77.728706 10.344223
3.041321 74.712929 10.913624
3.137159 75.845383 7.377645
3.139925 73.724701 4.560883
3.14632 76.798729 3.869741
0.585905 46.448486 25.574833
0.183834 48.113045 22.614086
1.176294 49.742287 24.107464
-4.664438 33.467743 -17.295759
-4.333261 38.545464 -16.874804
-2.466597 50.643791 -20.489424
-3.007318 46.120621 -21.115263
-2.504343 49.888649 -23.087442
-2.505037 49.094978 -25.520399
-2.096254 53.618279 -24.895773
-2.184031 54.122063 -2.731815
-0.886398 57.287056 -1.435526
1.380184 48.539558 44.415836
1.119467 55.084488 41.757301
2.56027 48.323059 35.94429
2.584917 47.832626 33.626678
2.577557 50.884789 33.132088
2.616333 58.664848 26.435268
2.573288 55.480705 27.082943
2.563524 57.501419 23.903858
2.199242 56.166115 21.643198
2.551949 59.326485 20.654377
2.18099 68.231155 25.127579
2.428106 70.162079 21.592678
3.043751 68.534088 12.226919
2.95223 67.179878 15.681427
2.864244 65.445404 13.0475
2.510454 62.361969 14.01796
2.46501 63.559578 10.661252
1.746716 61.507965 8.536106
2.388525 64.538101 7.296773
2.531881 68.899757 -0.50868
2.096403 65.852638 0.597277
1.863707 66.217049 -2.711138
0.976227 63.343643 -4.665852
1.569513 66.418785 -5.97578
3.005337 81.137314 -3.755377
2.873995 78.199692 -3.042456
2.609043 78.659286 -6.439999
1.226915 72.97419 -14.530783
1.671864 72.916611 -11.342014
1.077841 69.719994 -13.499788
0.822411 66.45089 -12.339199
0.400034 66.326859 -15.424587
-0.335938 62.735641 -17.094378
-0.021202 66.119713 -18.432318
-4.282682 45.295547 -10.752481
-4.065035 44.341743 -13.620892
-3.839441 43.345207 -16.381716
-3.185743 47.857452 -15.752819
-2.424189 51.376274 -17.76491
-1.815226 54.910583 -19.623938
-0.481997 56.793694 5.07225
2.122238 54.584854 35.555584
2.463554 54.028786 32.738937
2.257896 57.230965 32.43927
2.399332 59.656036 29.217279
2.544468 61.860199 25.910717
2.570585 74.935028 17.5667
2.665804 71.879539 18.034163
2.877064 73.3936 14.469584
3.08049 71.63063 11.527806
3.086227 69.684608 8.774676
2.825958 67.574165 6.237513
3.061396 70.637543 5.336679
2.953825 71.403145 1.923176
2.754677 71.996422 -1.457346
2.583572 81.767929 -10.548693
2.293577 78.95871 -9.791134
1.971336 79.08873 -13.082232
1.388035 76.118813 -15.456974
0.804859 72.900452 -17.643469
0.206802 69.461914 -19.613131
-0.209023 49.628006 19.579136
0.573729 52.921318 17.946762
-3.668577 36.286221 -21.820498
-3.622164 42.337559 -19.027052
-3.412584 41.333309 -21.540731
-3.189695 40.331188 -23.891062
-3.446222 50.66153 -3.816458
-2.278788 53.819557 -5.894688
-1.204496 56.935249 -7.800114
2.301838 48.581322 38.548622
1.880636 48.646484 41.391006
1.994972 51.721024 38.545586
1.642189 54.939362 38.57819
1.290098 58.186142 38.635605
2.140802 49.155556 28.806721
2.579599 53.272285 30.168293
2.410574 52.310966 27.869816
1.93593 51.137459 25.852264
1.728184 52.97673 22.794424
1.523623 54.64669 19.659843
1.323967 56.126617 16.467333
1.936798 66.075897 28.619385
2.38341 65.056602 25.485489
2.689939 63.846313 22.54002
2.778738 68.759903 18.540337
2.829378 65.618317 19.124384
2.762529 62.473618 19.820377
2.536304 60.948898 17.353708
1.986214 59.264641 15.155945
1.128433 57.398941 13.231035
0.935217 58.448448 9.963038
0.7423 59.263725 6.675525
0.547623 59.840309 3.382384
2.2691 65.299232 3.937647
1.426908 62.844482 1.889652
0.348906 60.184105 0.09984
0.143326 60.313416 -3.154217
-0.072615 60.2584 -6.362234
-0.30279 60.057213 -9.509426
3.193176 79.785782 3.222733
3.058212 77.581024 0.395232
2.833191 75.118065 -2.288031
2.464699 72.43544 -4.798346
2.176672 75.905258 -8.978754
2.095911 72.737968 -8.094917
1.925476 69.556152 -7.107002
1.218561 66.48764 -9.187387
0.375572 63.223938 -11.017952
-0.550261 59.749519 -12.585344
-0.814926 59.368828 -15.583076
-1.089947 58.935516 -18.495291
-1.357798 58.45253 -21.307726
-0.404577 65.816994 -21.340498
-1.012171 61.967117 -22.804972
-1.587427 57.904907 -23.992167
1.457211 63.971985 33.694406
1.595052 62.371376 33.720421
1.348695 62.656982 35.366975
1.035724 47.186909 26.320269
0.788442 45.561665 27.007238
1.238261 46.300087 27.752673
-5.097353 37.849054 -13.096474
-4.835837 40.247473 -12.805078
-4.88443 37.215006 -14.453796
-5.097353 37.849054 -13.096474
-4.501836 39.116999 -15.537631
-4.715855 36.643471 -15.790969
-4.88443 37.215006 -14.453796
-1.367423 55.686439 1.143516
-1.266973 55.611699 2.759067
-0.791451 57.223252 0.1875
-1.462371 55.750244 -0.479511
-1.367423 55.686439 1.143516
2.360171 71.703087 21.391038
2.2165 70.752601 23.195491
2.148565 72.29361 22.993851
3.081443 82.672344 -5.813155
3.033578 82.825096 -7.53225
2.905722 81.342003 -5.467797
3.181057 82.467656 -4.100736
3.081443 82.672344 -5.813155
-3.953688 48.153405 -7.356043
-4.013569 48.515255 -5.828009
-0.913955 54.919556 7.635383
-0.764336 54.589409 9.243099
-0.363103 56.486863 6.701563
-1.032849 55.226388 6.00607
-0.913955 54.919556 7.635383
2.486717 81.776298 -12.193385
2.879071 82.978428 -10.897827
2.180599 80.436699 -13.460155
2.277454 80.428329 -11.815462
2.486717 81.776298 -12.193385
1.224595 76.048642 -17.01196
1.542209 77.574612 -15.872191
0.933007 74.439461 -18.105207
1.096447 74.509633 -16.550221
1.224595 76.048642 -17.01196
0.759027 74.324768 -19.607596
0.63088 72.785759 -19.145857
0.933007 74.439461 -18.105207
-4.113735 34.811806 -19.582487
-4.445123 32.842239 -18.519374
-4.333049 35.437309 -18.358871
-3.835119 36.846548 -20.621241
-3.947193 34.251478 -20.781744
-4.113735 34.811806 -19.582487
-2.851031 44.782151 -24.739809
-2.987339 42.32937 -24.888185
-3.053387 42.783968 -23.742686
-2.27841 50.552162 -27.496215
-2.462893 48.666095 -26.625436
-2.320555 50.981044 -26.391178
-3.411608 50.817204 -2.232481
-4.031652 49.038204 -2.710119
-3.997038 49.193878 -1.126142
2.260193 47.067387 39.883978
2.411562 47.079441 38.564957
1.04509 58.252624 40.282654
1.204782 56.635315 40.196453
0.959774 56.701797 41.843502
1.140402 59.797176 38.663826
1.04509 58.252624 40.282654
2.419059 48.603397 31.221857
2.457776 47.449733 32.622747
2.5462 48.98629 32.225788
2.324142 49.647755 29.81581
2.235718 48.111199 30.212768
2.419059 48.603397 31.221857
1.829917 67.647628 28.496592
1.696575 66.468204 30.257171
3.27269 81.563859 1.150648
3.278394 81.917778 -0.619023
3.167667 80.167465 1.468411
3.298198 81.182175 2.90497
3.27269 81.563859 1.150648
-0.268064 67.476921 -21.922446
-0.098888 67.639454 -20.476814
0.037626 69.299381 -21.058762
-1.129568 61.700836 -24.127083
-0.858224 63.678787 -23.458201
-1.417196 59.669731 -24.720681
-1.299799 59.936012 -23.39857
-1.129568 61.700836 -24.127083
-1.660944 57.584129 -25.247204
-1.417196 59.669731 -24.720681
-1.238927 49.854866 15.863504
-1.015046 49.274395 17.401905
-1.41943 50.420299 14.291396
-1.238927 49.854866 15.863504
-0.769027 51.528751 14.912347
-1.627909 50.893341 12.729112
-1.41943 50.420299 14.291396
-1.116997 52.546486 11.747781
-1.627909 50.893341 12.729112
-0.63549 54.160034 10.863077
-1.116997 52.546486 11.747781
-0.468023 53.707733 12.455536
-0.115362 55.750656 9.950854
-0.764336 54.589409 9.243099
-0.63549 54.160034 10.863077
0.291197 44.765457 26.378655
0.788442 45.561665 27.007238
0.046541 45.585142 24.937634
0.291197 44.765457 26.378655
0.384869 47.280766 24.094459
-0.154495 46.417422 23.45726
0.046541 45.585142 24.937634
-4.881443 34.10461 -16.001447
-5.011322 31.495219 -16.250867
-4.49885 36.006603 -17.085282
-4.881443 34.10461 -16.001447
-4.715855 36.643471 -15.790969
-2.116163 53.242695 -26.078865
-2.320555 50.981044 -26.391178
-2.300645 51.356628 -25.208086
-2.111187 54.167747 -1.127655
-2.780512 52.547471 -1.69016
-1.535214 55.70456 -2.083671
-2.111187 54.167747 -1.127655
-1.462371 55.750244 -0.479511
1.131704 48.403656 45.991378
1.339746 46.798465 45.756044
1.091267 46.662563 47.331587
1.180769 50.154525 44.578039
1.131704 48.403656 45.991378
1.23921 51.805565 43.155737
1.438624 50.190597 42.993534
1.180769 50.154525 44.578039
1.05041 53.426991 43.248772
1.308266 53.463062 41.664266
1.23921 51.805565 43.155737
0.881877 55.045913 43.396778
1.05041 53.426991 43.248772
0.959774 56.701797 41.843502
0.881877 55.045913 43.396778
2.572593 48.077843 34.785484
2.606114 46.614822 34.929111
2.59379 46.860039 36.087917
2.092942 69.787139 24.962941
1.952013 68.725257 26.750689
2.304548 69.196617 23.360129
2.092942 69.787139 24.962941
2.2165 70.752601 23.195491
3.209983 82.211861 -2.353756
3.181057 82.467656 -4.100736
3.073748 80.843232 -2.020644
3.278394 81.917778 -0.619023
3.209983 82.211861 -2.353756
1.637272 46.967315 28.484819
1.238261 46.300087 27.752673
-3.923342 47.817154 -8.873535
-3.953688 48.153405 -7.356043
-3.411112 49.809708 -8.445602
-4.3743 45.728199 -9.268228
-3.923342 47.817154 -8.873535
-3.831724 47.384502 -10.357788
-4.79161 43.575092 -9.631331
-4.3743 45.728199 -9.268228
-4.641972 43.050979 -11.081089
-4.79161 43.575092 -9.631331
-4.533148 42.574078 -12.515294
-4.641972 43.050979 -11.081089
-4.173858 44.818645 -12.186687
-4.367724 42.015138 -13.910675
-4.835837 40.247473 -12.805078
-4.533148 42.574078 -12.515294
-1.15972 55.428822 4.389929
-1.032849 55.226388 6.00607
-0.58925 56.976571 3.441388
-1.266973 55.611699 2.759067
-1.15972 55.428822 4.389929
2.922311 82.935714 -9.216489
2.879071 82.978428 -10.897827
2.69484 81.65731 -8.864455
3.033578 82.825096 -7.53225
2.922311 82.935714 -9.216489
1.83386 79.059571 -14.684821
2.180599 80.436699 -13.460155
1.679685 77.603771 -14.269603
1.83386 79.059571 -14.684821
1.542209 77.574612 -15.872191
0.331851 71.06649 -20.130688
0.50583 71.181183 -18.6283
0.63088 72.785759 -19.145857
0.037626 69.299381 -21.058762
0.331851 71.06649 -20.130688
-0.394977 47.173797 21.977846
-0.154495 46.417422 23.45726
-0.591406 47.931278 20.460371
-0.394977 47.173797 21.977846
-0.012594 48.870525 21.096611
-0.825295 48.606739 18.949245
-1.207679 46.910011 19.830481
-0.591406 47.931278 20.460371
-0.398774 50.295662 18.031796
-1.015046 49.274395 17.401905
-0.825295 48.606739 18.949245
2.114511 73.787789 22.822651
2.148565 72.29361 22.993851
2.279211 74.721432 20.984409
2.114511 73.787789 22.822651
2.418385 75.566899 19.17306
2.431411 74.089562 19.378049
2.279211 74.721432 20.984409
2.579692 76.397007 17.332546
2.418385 75.566899 19.17306
2.704852 77.142994 15.522788
2.695746 75.681015 15.756942
2.579692 76.397007 17.332546
2.852661 77.87463 13.687932
2.704852 77.142994 15.522788
2.952907 78.525482 11.886451
2.921151 77.077854 12.145703
2.852661 77.87463 13.687932
3.076162 79.161892 10.063156
2.952907 78.525482 11.886451
3.140889 79.720883 8.274726
3.086124 78.287697 8.555794
3.076162 79.161892 10.063156
-4.751062 30.803974 -17.504003
-5.011322 31.495219 -16.250867
-4.531748 30.17847 -18.727619
-4.751062 30.803974 -17.504003
-4.445123 32.842239 -18.519374
-3.717653 33.644077 -21.920649
-3.947193 34.251478 -20.781744
-3.487559 35.734797 -22.926432
-3.717653 33.644077 -21.920649
-3.248118 37.75728 -23.961714
-3.487559 35.734797 -22.926432
-3.429136 38.308704 -22.85578
-3.051544 39.825212 -24.959359
-3.109967 37.251305 -25.03001
-3.248118 37.75728 -23.961714
-3.051544 39.825212 -24.959359
-2.987339 42.32937 -24.888185
-2.64501 46.711265 -25.702854
-2.851031 44.782151 -24.739809
-2.711057 47.165863 -24.557354
-2.64501 46.711265 -25.702854
-2.462893 48.666095 -26.625436
-4.015951 48.773041 -4.272182
-4.031652 49.038204 -2.710119
-3.44384 50.403744 -5.372284
-4.013569 48.515255 -5.828009
-4.015951 48.773041 -4.272182
-2.815126 52.391796 -3.274137
-3.411608 50.817204 -2.232481
-2.780512 52.547471 -1.69016
2.540778 46.95031 37.262791
2.59379 46.860039 36.087917
2.431054 48.452191 37.246456
2.540778 46.95031 37.262791
2.411562 47.079441 38.564957
1.583127 46.956383 44.246755
1.339746 46.798465 45.756044
1.833353 47.009845 42.734341
1.583127 46.956383 44.246755
1.63041 48.593021 42.903421
2.049592 47.099968 41.30517
1.833353 47.009845 42.734341
2.091237 48.613903 39.969814
2.260193 47.067387 39.883978
2.049592 47.099968 41.30517
1.238622 61.232292 37.042518
1.388317 59.621258 37.014297
1.140402 59.797176 38.663826
1.348695 62.656982 35.366975
1.238622 61.232292 37.042518
2.53534 46.374364 33.928444
2.606114 46.614822 34.929111
2.53534 46.374364 33.928444
2.457776 47.449733 32.622747
1.964901 47.582428 29.355328
2.235718 48.111199 30.212768
1.813173 48.540443 27.936212
1.637272 46.967315 28.484819
1.964901 47.582428 29.355328
1.57996 65.273445 31.971405
1.457211 63.971985 33.694406
1.820183 64.881137 30.333619
1.57996 65.273445 31.971405
1.696575 66.468204 30.257171
2.058894 67.153526 26.873482
1.829917 67.647628 28.496592
1.952013 68.725257 26.750689
3.229544 80.263599 6.466973
3.140889 79.720883 8.274726
3.250706 80.733147 4.694658
3.298198 81.182175 2.90497
3.172013 79.316235 4.995048
3.229544 80.263599 6.466973
3.250706 80.733147 4.694658
-0.554427 65.603725 -22.725963
-0.268064 67.476921 -21.922446
-0.708374 63.892055 -22.072735
-0.554427 65.603725 -22.725963
-0.858224 63.678787 -23.458201
-1.915358 55.440815 -25.699007
-1.84184 55.761593 -24.44397
-1.660944 57.584129 -25.247204
-2.116163 53.242695 -26.078865
-1.915358 55.440815 -25.699007
3 0 49 47
3 0 51 49
3 1 53 52
3 1 54 53
3 191 57 192
3 193 192 55
3 191 192 193
3 2 60 58
3 2 62 60
3 3 194 196
3 194 63 195
3 194 195 196
3 3 65 63
3 5 197 198
3 5 199 200
3 5 201 203
3 201 67 202
3 201 202 203
3 6 70 68
3 6 72 70
3 7 204 205
3 7 206 208
3 206 74 207
3 206 207 208
3 8 79 77
3 9 82 80
3 9 84 82
3 4 209 211
3 209 86 210
3 209 210 211
3 10 89 87
3 10 91 89
3 10 93 91
3 11 96 94
3 11 98 96
3 12 212 213
3 12 214 216
3 214 99 215
3 214 215 216
3 12 101 99
3 13 104 102
3 13 106 104
3 13 108 106
3 14 217 218
3 15 109 48
3 15 110 109
3 15 112 110
3 17 113 50
3 17 114 113
3 18 219 220
3 18 221 223
3 221 115 222
3 221 222 223
3 19 118 116
3 21 119 56
3 21 120 119
3 22 123 121
3 24 124 59
3 24 125 124
3 24 127 125
3 26 128 61
3 26 129 128
3 224 130 225
3 226 132 227
3 228 227 130
3 226 227 228
3 229 133 230
3 231 134 232
3 233 232 133
3 231 232 233
3 236 235 134
3 234 235 236
3 28 136 64
3 28 137 136
3 29 237 239
3 239 238 66
3 237 238 239
3 29 240 242
3 240 138 241
3 240 241 242
3 16 139 111
3 30 140 69
3 30 141 140
3 30 243 245
3 245 244 141
3 243 244 245
3 248 247 71
3 246 247 248
3 249 142 250
3 249 250 251
3 31 143 73
3 31 144 143
3 252 145 253
3 32 146 75
3 32 147 146
3 32 148 147
3 254 149 255
3 256 255 76
3 254 255 256
3 258 257 149
3 33 259 261
3 261 260 78
3 259 260 261
3 33 262 264
3 262 150 263
3 262 263 264
3 20 151 117
3 34 152 81
3 34 153 152
3 34 154 153
3 35 155 83
3 35 156 155
3 265 157 266
3 36 158 85
3 36 159 158
3 23 160 122
3 37 161 88
3 37 162 161
3 37 163 162
3 38 164 90
3 38 165 164
3 38 166 165
3 39 167 92
3 39 168 167
3 25 169 126
3 40 170 95
3 40 171 170
3 40 172 171
3 41 173 97
3 41 174 173
3 42 267 268
3 42 269 271
3 269 175 270
3 269 270 271
3 42 176 175
3 43 177 100
3 43 178 177
3 27 179 131
3 44 180 103
3 44 181 180
3 44 182 181
3 45 183 105
3 45 184 183
3 45 185 184
3 46 186 107
3 46 187 186
3 272 188 273
3 274 273 135
3 272 273 274
3 275 189 276
3 277 190 278
3 279 278 189
3 277 278 279
3 281 280 190
3 47 48 14
3 49 48 47
3 49 15 48
3 49 50 15
3 51 50 49
3 51 17 50
3 52 282 283
3 53 284 286
3 286 285 52
3 284 285 286
3 53 287 288
3 53 289 290
3 54 291 293
3 293 292 53
3 291 292 293
3 54 294 296
3 294 18 295
3 294 295 296
3 55 56 19
3 57 56 55
3 57 21 56
3 58 59 22
3 60 59 58
3 60 24 59
3 60 61 24
3 62 61 60
3 62 26 61
3 63 297 298
3 63 299 300
3 63 301 303
3 301 64 302
3 301 302 303
3 65 64 63
3 65 28 64
3 304 66 305
3 67 306 308
3 306 66 307
3 306 307 308
3 67 29 66
3 68 69 16
3 70 69 68
3 70 30 69
3 70 71 30
3 72 71 70
3 72 309 311
3 311 310 71
3 309 310 311
3 312 73 313
3 74 314 316
3 314 73 315
3 314 315 316
3 74 31 73
3 317 75 318
3 317 318 319
3 320 75 321
3 322 32 323
3 324 323 75
3 322 323 324
3 325 76 326
3 327 326 32
3 325 326 327
3 328 76 329
3 331 330 76
3 77 332 334
3 332 78 333
3 332 333 334
3 79 78 77
3 79 33 78
3 80 81 20
3 82 81 80
3 82 34 81
3 82 83 34
3 84 83 82
3 84 35 83
3 335 85 336
3 86 337 339
3 337 85 338
3 337 338 339
3 86 36 85
3 87 88 23
3 89 88 87
3 89 37 88
3 89 90 37
3 91 90 89
3 91 38 90
3 91 92 38
3 93 92 91
3 93 39 92
3 94 95 25
3 96 95 94
3 96 40 95
3 96 97 40
3 98 97 96
3 98 41 97
3 99 340 341
3 99 342 344
3 342 42 343
3 342 343 344
3 99 100 42
3 101 100 99
3 101 43 100
3 102 103 27
3 104 103 102
3 104 44 103
3 104 105 44
3 106 105 104
3 106 45 105
3 106 107 45
3 108 107 106
3 108 46 107
3 345 3 346
3 48 347 349
3 349 348 14
3 347 348 349
3 109 350 352
3 352 351 48
3 350 351 352
3 109 353 354
3 109 355 356
3 110 357 359
3 359 358 109
3 357 358 359
3 110 360 362
3 360 5 361
3 360 361 362
3 110 111 5
3 112 111 110
3 112 16 111
3 50 112 15
3 113 112 50
3 113 16 112
3 113 68 16
3 114 68 113
3 114 6 68
3 115 363 364
3 115 365 367
3 365 7 366
3 365 366 367
3 116 117 8
3 118 117 116
3 118 20 117
3 56 118 19
3 119 118 56
3 119 20 118
3 119 80 20
3 120 80 119
3 120 9 80
3 121 122 4
3 123 122 121
3 123 23 122
3 59 123 22
3 124 123 59
3 124 23 123
3 124 87 23
3 125 87 124
3 125 10 87
3 125 126 10
3 127 126 125
3 127 25 126
3 61 127 24
3 128 127 61
3 128 25 127
3 128 94 25
3 129 94 128
3 129 11 94
3 130 368 369
3 130 370 372
3 370 12 371
3 370 371 372
3 130 131 12
3 132 131 130
3 132 27 131
3 373 132 374
3 133 375 377
3 375 132 376
3 375 376 377
3 133 27 132
3 133 102 27
3 134 102 133
3 134 13 102
3 134 135 13
3 378 135 379
3 380 379 134
3 378 379 380
3 382 381 135
3 64 383 384
3 136 385 387
3 387 386 64
3 385 386 387
3 136 388 390
3 388 389 390
3 136 391 393
3 391 52 392
3 391 392 393
3 137 52 136
3 137 1 52
3 394 4 395
3 396 4 397
3 398 121 399
3 400 399 4
3 398 399 400
3 401 121 402
3 403 22 404
3 405 404 121
3 403 404 405
3 406 22 407
3 408 58 409
3 410 409 22
3 408 409 410
3 411 58 412
3 413 2 414
3 415 414 58
3 413 414 415
3 66 416 417
3 420 419 66
3 418 419 420
3 138 421 422
3 138 423 424
3 111 67 5
3 139 67 111
3 139 29 67
3 69 139 16
3 140 139 69
3 140 29 139
3 140 138 29
3 141 138 140
3 141 425 427
3 427 426 138
3 425 426 427
3 141 428 430
3 428 429 430
3 432 431 141
3 71 433 435
3 435 434 30
3 433 434 435
3 437 436 71
3 142 438 439
3 142 440 442
3 440 14 441
3 440 441 442
3 73 443 445
3 443 142 444
3 443 444 445
3 143 142 73
3 143 14 142
3 143 47 14
3 144 47 143
3 144 0 47
3 446 77 447
3 145 448 450
3 448 77 449
3 448 449 450
3 145 8 77
3 75 451 452
3 146 453 455
3 455 454 75
3 453 454 455
3 146 456 457
3 146 458 460
3 458 145 459
3 458 459 460
3 147 145 146
3 147 8 145
3 147 116 8
3 148 116 147
3 148 19 116
3 76 148 32
3 149 148 76
3 149 19 148
3 149 55 19
3 461 55 462
3 463 462 149
3 461 462 463
3 465 464 55
3 78 466 467
3 469 468 78
3 150 470 471
3 150 472 474
3 472 3 473
3 472 473 474
3 117 79 8
3 151 79 117
3 151 33 79
3 81 151 20
3 152 151 81
3 152 33 151
3 152 150 33
3 153 150 152
3 153 3 150
3 153 65 3
3 154 65 153
3 154 28 65
3 83 154 34
3 155 154 83
3 155 28 154
3 155 137 28
3 156 137 155
3 156 1 137
3 475 57 476
3 157 477 479
3 477 57 478
3 477 478 479
3 157 21 57
3 85 480 482
3 480 157 481
3 480 481 482
3 158 157 85
3 158 21 157
3 158 120 21
3 159 120 158
3 159 9 120
3 122 86 4
3 160 86 122
3 160 36 86
3 88 160 23
3 161 160 88
3 161 36 160
3 161 159 36
3 162 159 161
3 162 9 159
3 162 84 9
3 163 84 162
3 163 35 84
3 90 163 37
3 164 163 90
3 164 35 163
3 164 156 35
3 165 156 164
3 165 1 156
3 165 54 1
3 166 54 165
3 166 18 54
3 92 166 38
3 167 166 92
3 167 18 166
3 167 115 18
3 168 115 167
3 168 7 115
3 126 93 10
3 169 93 126
3 169 39 93
3 95 169 25
3 170 169 95
3 170 39 169
3 170 168 39
3 171 168 170
3 171 7 168
3 171 74 7
3 172 74 171
3 172 31 74
3 97 172 40
3 173 172 97
3 173 31 172
3 173 144 31
3 174 144 173
3 174 0 144
3 483 2 484
3 175 485 486
3 175 487 489
3 487 2 488
3 487 488 489
3 175 62 2
3 176 62 175
3 176 26 62
3 100 176 42
3 177 176 100
3 177 26 176
3 177 129 26
3 178 129 177
3 178 11 129
3 131 101 12
3 179 101 131
3 179 43 101
3 103 179 27
3 180 179 103
3 180 43 179
3 180 178 43
3 181 178 180
3 181 11 178
3 181 98 11
3 182 98 181
3 182 41 98
3 105 182 44
3 183 182 105
3 183 41 182
3 183 174 41
3 184 174 183
3 184 0 174
3 184 51 0
3 185 51 184
3 185 17 51
3 107 185 45
3 186 185 107
3 186 17 185
3 186 114 17
3 187 114 186
3 187 6 114
3 135 108 13
3 188 108 135
3 188 46 108
3 490 188 491
3 189 492 494
3 492 188 493
3 492 493 494
3 189 46 188
3 189 187 46
3 190 187 189
3 190 6 187
3 190 72 6
3 495 72 496
3 497 496 190
3 495 496 497
3 499 498 72
