ply
format ascii 1.0
element vertex 617
property float x
property float y
property float z
element face 632
property list uchar int vertex_index
end_header
11.599033 -73.720734 76.648445
8.339899 -90.192535 60.570877
27.797848 -66.170944 70.752403
20.472874 -69.900009 75.033455
4.110527 -75.368088 75.712944
8.325954 -82.544289 69.672279
30.159941 -57.704418 71.2435
24.3332 -60.660202 77.230484
10.442049 -55.534264 86.007286
7.671352 -65.794312 81.985474
14.860081 -85.293579 59.619392
16.046864 -71.915878 76.11129
18.118122 -74.079468 72.32991
13.824551 -76.328262 73.273376
31.706411 -56.403355 67.002663
30.149702 -53.497471 70.039055
24.994198 -55.923443 76.853355
21.354721 -57.250072 79.19976
20.272354 -62.244965 79.001137
7.030369 -56.217968 87.301506
9.264845 -60.715836 84.302635
5.991053 -61.143021 84.790695
4.582424 -65.910736 81.647911
30.21489 -64.533173 67.389336
7.902992 -86.490738 65.214279
11.414122 -84.324768 65.226585
11.466595 -88.20575 60.556984
24.495461 -67.948227 73.299484
9.307777 -93.672493 56.07502
12.084143 -92.243988 55.966751
7.510494 -74.966309 76.57608
9.627493 -78.295105 73.565613
5.861504 -79.531509 73.057007
8.033134 -95.461853 50.44236
32.482662 -59.088509 63.358231
31.363764 -60.449474 67.75621
29.445997 -61.977966 71.623039
27.966805 -54.668076 73.830894
27.703959 -59.13266 74.695061
26.54356 -63.623619 74.624985
22.757626 -65.383179 76.68959
18.392311 -67.188568 78.015724
13.848791 -68.850754 78.875221
14.264103 -54.563671 83.880196
13.151722 -59.80056 82.909767
9.542223 -70.103668 79.324707
5.840673 -70.695549 79.137756
12.20149 -80.428833 69.578049
15.174329 -81.556099 64.410378
13.801189 -72.866295 76.447113
14.885235 -74.163788 74.806717
12.689457 -75.161591 75.090073
21.659504 -54.792278 79.102348
19.756538 -55.401318 80.259369
5.891794 -53.984745 88.542381
5.586824 -56.390335 87.424141
6.561857 -58.695343 86.142029
5.188519 -58.776726 86.071259
4.684124 -61.1287 84.530594
29.118774 -65.339386 69.163696
28.195768 -67.352432 68.397484
8.026276 -88.368629 62.891197
9.641577 -87.448837 63.027061
9.861151 -89.35743 60.700836
22.556807 -68.904907 74.259911
23.323984 -69.99427 72.184006
21.353567 -70.989975 73.077042
11.072569 -95.025665 54.03344
5.707117 -75.284378 76.253304
6.61512 -77.291077 74.914299
4.897984 -77.571091 74.448685
32.612476 -57.199928 62.927483
31.035063 -57.03437 69.205132
31.6294 -58.417435 67.501953
30.891319 -59.11108 69.626442
30.523512 -61.198318 69.782059
29.927296 -59.840675 71.575035
24.761328 -58.281223 77.129189
26.439772 -57.572689 75.840424
26.123039 -59.885288 76.074654
27.255238 -61.386597 74.808746
25.561092 -62.199749 76.065483
24.745426 -64.490723 75.76722
23.663218 -63.035908 77.095718
19.422709 -64.734421 78.618942
16.116373 -68.053375 78.492683
9.10129 -53.379128 87.542236
10.909624 -52.957596 86.57605
12.322805 -55.072727 85.005058
13.758503 -57.172909 83.461975
11.78944 -57.688183 84.420349
8.515215 -63.2742 83.212242
10.396929 -62.910137 82.798866
9.529545 -65.481201 81.780746
10.574183 -67.585297 80.439156
8.581396 -68.011887 80.62722
7.595821 -70.494759 79.330696
6.765856 -68.269882 80.628456
8.875315 -80.460114 71.709473
10.858898 -79.51136 71.716476
10.222719 -81.57357 69.733376
13.113491 -84.8675 62.565155
13.275961 -82.970078 64.901924
14.927731 -83.389458 62.052315
13.835661 -93.221848 53.233643
13.571228 -90.989014 55.467651
18.287117 -70.91394 75.643707
19.26239 -72.035583 73.803596
17.091507 -73.10611 74.377449
15.980522 -75.210815 72.875999
15.012408 -77.232704 71.154953
3.390989 -77.594505 73.76062
32.22263 -55.826206 64.68116
31.6703 -54.408386 66.332825
31.021803 -54.978058 68.591774
30.199106 -55.585835 70.699471
23.458733 -54.19334 77.856354
23.24431 -56.580135 78.096252
22.906736 -59.007378 78.230469
22.368896 -61.450836 78.191788
20.911922 -59.742401 79.182991
7.413837 -53.730824 88.22715
8.663336 -55.924534 86.802925
9.904606 -58.129772 85.24147
8.147577 -58.473289 85.843124
7.530258 -61.000919 84.696861
6.811342 -63.492798 83.39415
6.011108 -65.941383 81.956856
5.323408 -63.549908 83.283798
4.082895 -63.437992 82.841583
7.999649 -84.552109 67.491615
9.805258 -83.57357 67.593979
9.61412 -85.526245 65.341881
11.344799 -86.253876 62.906258
13.137867 -86.817261 60.178253
26.251722 -67.037697 72.133095
26.767551 -68.182693 69.847984
25.137928 -69.059296 71.110527
20.196484 -72.980392 71.639694
8.791756 -91.963509 58.291779
10.224131 -91.261551 58.408752
10.658447 -93.157944 56.182526
12.423058 -94.319839 53.792618
9.487524 -74.434319 76.699471
10.550068 -76.047974 75.215714
8.511478 -76.772476 75.164291
7.670746 -79.029114 73.420685
7.005722 -81.198387 71.481422
4.234728 -79.770134 72.465622
5.286783 -81.67807 71.018906
6.546782 -83.276443 69.3741
6.312788 -85.261551 67.139008
6.308826 -87.153656 64.824287
8.608877 -95.128029 53.45179
32.18309 -57.772972 65.249985
31.999834 -59.7402 65.594681
31.636574 -61.732567 65.6707
30.884058 -62.492622 67.722137
29.919638 -63.280903 69.630661
28.718718 -64.095535 71.350395
29.157372 -54.071812 72.02829
29.168211 -56.223228 72.623322
26.575443 -55.285416 75.437927
27.914295 -56.886097 74.340424
29.052519 -58.405117 73.081657
28.715872 -60.599888 73.310226
28.117615 -62.78611 73.243652
27.275013 -64.939865 72.851227
25.599607 -65.818573 74.120445
23.71822 -66.733154 75.163292
21.667614 -67.677948 76.000465
21.601463 -63.886162 77.932526
20.623524 -66.28923 77.425995
19.492363 -68.637802 76.662537
17.241642 -69.58757 77.181152
14.966892 -70.493996 77.579407
12.719639 -71.318825 77.864975
11.153269 -60.307838 83.681168
12.414175 -62.422485 82.22348
11.641239 -69.545593 79.160423
10.549585 -72.022354 78.027634
8.503023 -72.567215 78.042503
6.621531 -72.922012 77.877571
4.940842 -73.064621 77.503143
5.163429 -68.342529 80.396179
4.30884 -70.692253 78.712799
11.692638 -77.376114 73.509499
12.917717 -78.413162 71.523651
14.226574 -79.184624 69.234055
11.697626 -82.391907 67.466125
13.645191 -81.087494 67.138756
11.735554 -90.200577 58.229782
13.310713 -88.85186 57.79538
18.967577 -54.440392 80.869862
19.921235 -54.166911 80.249367
17.98003 -54.745103 81.421097
18.768991 -55.70603 80.810604
18.967577 -54.440392 80.869862
4.979821 -56.40646 87.27153
5.082738 -55.252691 87.923119
4.780668 -57.599655 86.595089
5.387671 -57.58353 86.7477
4.979821 -56.40646 87.27153
4.625568 -58.741295 85.832131
4.780668 -57.599655 86.595089
32.631574 -56.262559 62.61034
32.802848 -56.965496 61.76218
15.740532 -84.520645 59.281761
15.774357 -83.568585 60.498222
14.893906 -84.341519 60.835853
14.568095 -92.514996 52.828583
14.624783 -93.741219 51.726776
31.651933 -53.419935 65.959812
31.934081 -54.14965 65.148331
31.915714 -53.161199 64.775318
30.585752 -54.237764 69.315415
30.992265 -53.963166 68.237079
30.556215 -53.222872 68.96072
22.69031 -53.294118 78.404221
23.560337 -53.032553 77.72221
3.860518 -62.195865 83.36681
4.383509 -62.283346 83.686088
4.161133 -61.041219 84.211315
3.597132 -63.298859 82.448338
3.860518 -62.195865 83.36681
30.331547 -65.149392 66.196022
30.659098 -64.139458 66.428624
23.676114 -70.492214 70.999191
22.750817 -70.96989 71.493595
12.536398 -95.353371 52.75069
11.747813 -94.672752 53.913029
11.861154 -95.706284 52.871101
13.213196 -94.916313 52.451629
12.536398 -95.353371 52.75069
3.526937 -79.750286 72.057907
3.812858 -78.68232 73.113121
3.105068 -78.662472 72.705406
5.102942 -82.700157 69.924267
4.519063 -81.773517 70.669743
5.732942 -83.499344 69.101864
5.916783 -82.477257 70.196503
5.102942 -82.700157 69.924267
5.615945 -84.491897 67.984318
6.429785 -84.268997 68.256554
5.732942 -83.499344 69.101864
5.583811 -87.314209 64.497173
5.542155 -86.40514 65.677509
6.415909 -88.053467 63.652023
5.583811 -87.314209 64.497173
7.745671 -94.279831 54.167324
8.327466 -94.445118 54.543239
7.771753 -94.999443 51.552006
7.264667 -94.51429 51.02512
8.544207 -95.90036 50.864506
7.771753 -94.999443 51.552006
8.670894 -96.414704 49.77039
8.544207 -95.90036 50.864506
32.583189 -59.718291 62.376595
32.680105 -58.806679 62.237499
32.350589 -60.04963 63.447506
32.583189 -59.718291 62.376595
28.562089 -54.369944 72.929592
28.570994 -53.284752 72.648891
27.975711 -53.582884 73.550194
25.784821 -55.604429 76.145641
25.851059 -54.447842 75.961804
25.060437 -54.766855 76.669517
14.494445 -53.284294 84.022366
13.530416 -53.528002 84.651452
15.245865 -54.295454 83.287445
14.494445 -53.284294 84.022366
15.016737 -55.585325 83.155456
15.998499 -55.317108 82.562706
15.245865 -54.295454 83.287445
14.183597 -59.50959 82.48135
14.486987 -58.195764 82.757454
13.455112 -58.486734 83.185871
13.836763 -60.818462 82.229035
14.183597 -59.50959 82.48135
11.980189 -63.722015 81.812599
11.405552 -62.666311 82.511173
10.971566 -63.965841 82.100292
13.045796 -63.431351 81.564632
11.980189 -63.722015 81.812599
3.66654 -70.587333 78.375313
4.055837 -69.457454 79.305371
3.899158 -71.838455 77.806377
3.66654 -70.587333 78.375313
27.003764 -68.741295 68.604298
26.244546 -69.147926 69.257694
15.395947 -80.650967 65.529324
14.631377 -80.416664 66.893513
14.40976 -81.321797 65.774567
16.129725 -80.865841 64.104084
15.395947 -80.650967 65.529324
14.210593 -89.167591 56.272866
13.44097 -89.920437 56.631515
14.340851 -90.236168 55.109001
14.124636 -88.082974 57.480755
14.210593 -89.167591 56.272866
30.14836 -52.473636 69.703243
30.556215 -53.222872 68.96072
20.872718 -53.862391 79.670857
21.790696 -53.593587 79.027218
20.708021 -55.096798 79.680858
20.872718 -53.862391 79.670857
19.921235 -54.166911 80.249367
19.558338 -56.662357 80.232101
20.35743 -57.586735 79.702297
20.55563 -56.325695 79.729565
19.558338 -56.662357 80.232101
18.768991 -55.70603 80.810604
5.235224 -54.049896 88.482238
5.302981 -52.892723 88.996323
5.739309 -55.18754 87.983261
5.235224 -54.049896 88.482238
5.082738 -55.252691 87.923119
4.373371 -59.917282 85.061798
4.936322 -59.952713 85.300927
4.625568 -58.741295 85.832131
4.161133 -61.041219 84.211315
4.373371 -59.917282 85.061798
29.268845 -65.945663 67.968288
29.816902 -65.542557 67.081108
29.666832 -64.93628 68.276516
28.807341 -66.952186 67.585183
29.268845 -65.945663 67.968288
28.657271 -66.345909 68.78059
28.386643 -67.939991 67.148846
28.807341 -66.952186 67.585183
21.765608 -71.467743 71.940113
22.750817 -70.96989 71.493595
22.338776 -70.492122 72.630524
18.636913 -74.478454 71.151161
17.611143 -75.057442 71.481121
10.435016 -95.16172 53.976734
10.190173 -94.349079 55.05423
9.55262 -94.485134 54.997524
11.219167 -95.925369 52.991398
10.435016 -95.16172 53.976734
11.861154 -95.706284 52.871101
11.219167 -95.925369 52.991398
7.558924 -94.845513 49.892128
7.264667 -94.51429 51.02512
8.208917 -95.827896 49.313766
7.558924 -94.845513 49.892128
32.745012 -57.862389 62.022126
32.802848 -56.965496 61.76218
32.547569 -58.144219 63.142857
32.680105 -58.806679 62.237499
32.745012 -57.862389 62.022126
27.303739 -53.856637 74.39656
27.975711 -53.582884 73.550194
18.756923 -63.879311 79.161373
19.847532 -63.489693 78.81004
19.181745 -62.634583 79.352471
18.300418 -65.146096 78.907772
18.756923 -63.879311 79.161373
17.785219 -66.373169 78.606163
18.90751 -65.961495 78.317333
18.300418 -65.146096 78.907772
16.64725 -66.805573 78.844642
17.254342 -67.620971 78.254204
17.785219 -66.373169 78.606163
15.518511 -67.190727 79.093032
16.64725 -66.805573 78.844642
14.384721 -67.589416 79.284301
14.982582 -68.452065 78.683952
15.518511 -67.190727 79.093032
9.303903 -52.125519 87.784706
8.426527 -52.321509 88.209243
10.20807 -51.914753 87.301613
9.303903 -52.125519 87.784706
10.005457 -53.168362 87.059143
11.134767 -51.697632 86.750023
10.20807 -51.914753 87.301613
11.853176 -52.724964 85.999379
11.134767 -51.697632 86.750023
12.559767 -53.782529 85.213883
11.853176 -52.724964 85.999379
11.616215 -54.015162 85.790554
13.293454 -54.818199 84.442627
13.530416 -53.528002 84.651452
12.559767 -53.782529 85.213883
10.537873 -65.251373 81.591232
10.971566 -63.965841 82.100292
9.963237 -64.195669 82.289806
10.051864 -66.533249 81.109951
11.060192 -66.303421 80.920437
10.537873 -65.251373 81.591232
4.192629 -67.066696 80.772926
3.996586 -65.805676 81.340419
15.848479 -82.656704 61.737336
15.971778 -81.740025 62.916367
15.05103 -82.472779 63.231347
15.848479 -82.656704 61.737336
15.774357 -83.568585 60.498222
14.435878 -91.398579 53.945587
13.703444 -92.105431 54.350647
14.568095 -92.514996 52.828583
14.340851 -90.236168 55.109001
14.435878 -91.398579 53.945587
16.542343 -75.623115 71.754165
17.611143 -75.057442 71.481121
17.049322 -74.645141 72.602954
16.058286 -76.63406 70.893642
16.542343 -75.623115 71.754165
15.496465 -76.221759 72.015476
15.637755 -77.574642 69.943047
16.058286 -76.63406 70.893642
3.068569 -76.402732 74.354904
3.750758 -76.481296 74.736782
3.428338 -75.289524 75.331066
2.753875 -77.476947 73.308574
3.068569 -76.402732 74.354904
3.105068 -78.662472 72.705406
2.753875 -77.476947 73.308574
32.210245 -54.85856 64.322498
32.436651 -55.575699 63.487179
31.946465 -55.117296 65.506992
32.210245 -54.85856 64.322498
31.934081 -54.14965 65.148331
31.316513 -53.67833 67.107605
31.651933 -53.419935 65.959812
31.346052 -54.693222 67.4623
31.316513 -53.67833 67.107605
30.992265 -53.963166 68.237079
24.292704 -53.901804 77.171017
23.560337 -53.032553 77.72221
24.226465 -55.058391 77.354854
25.060437 -54.766855 76.669517
24.292704 -53.901804 77.171017
22.559118 -54.492809 78.479351
22.69031 -53.294118 78.404221
21.790696 -53.593587 79.027218
20.13603 -58.832899 79.693913
21.133322 -58.496237 79.191375
20.35743 -57.586735 79.702297
19.865294 -60.107323 79.60725
20.13603 -58.832899 79.693913
19.54551 -61.358604 79.516323
20.592138 -60.993683 79.092064
19.865294 -60.107323 79.60725
19.181745 -62.634583 79.352471
19.54551 -61.358604 79.516323
6.015547 -52.784279 88.959522
5.302981 -52.892723 88.996323
6.776568 -52.657319 88.801907
6.015547 -52.784279 88.959522
6.652815 -53.857784 88.384766
7.5828 -52.497356 88.5517
6.776568 -52.657319 88.801907
8.257563 -53.554976 87.884693
8.426527 -52.321509 88.209243
7.5828 -52.497356 88.5517
3.746822 -64.569304 81.937255
3.996586 -65.805676 81.340419
4.33266 -64.674364 82.244747
3.746822 -64.569304 81.937255
3.597132 -63.298859 82.448338
30.331547 -65.149392 66.196022
29.816902 -65.542557 67.081108
25.429735 -69.586228 69.888966
26.244546 -69.147926 69.257694
25.952739 -68.620994 70.479255
24.583086 -70.024727 70.462452
24.230956 -69.526783 71.647267
23.676114 -70.492214 70.999191
25.429735 -69.586228 69.888966
24.583086 -70.024727 70.462452
21.187067 -72.462952 71.22144
21.765608 -71.467743 71.940113
20.775026 -71.985184 72.358368
19.676094 -73.928916 70.806053
19.157303 -73.52993 71.984802
18.636913 -74.478454 71.151161
20.664383 -73.389965 70.412445
19.676094 -73.928916 70.806053
21.187067 -72.462952 71.22144
20.664383 -73.389965 70.412445
13.919498 -94.367317 52.172142
13.129359 -93.770843 53.513131
13.213196 -94.916313 52.451629
14.624783 -93.741219 51.726776
13.919498 -94.367317 52.172142
3.993035 -80.819549 71.393101
3.526937 -79.750286 72.057907
4.760756 -80.724102 71.742264
3.993035 -80.819549 71.393101
4.519063 -81.773517 70.669743
5.544136 -85.459087 66.834869
5.615945 -84.491897 67.984318
6.310807 -86.207604 65.981648
5.544136 -85.459087 66.834869
5.542155 -86.40514 65.677509
7.274634 -88.660954 62.685478
7.167551 -87.761143 63.857742
6.415909 -88.053467 63.652023
7.431446 -89.572907 61.525318
8.183087 -89.280582 61.731037
7.274634 -88.660954 62.685478
7.631488 -90.425895 60.360157
7.431446 -89.572907 61.525318
7.857416 -91.311383 59.220608
8.565828 -91.078022 59.431328
7.631488 -90.425895 60.360157
8.123508 -92.11486 58.077866
7.857416 -91.311383 59.220608
8.381519 -92.969352 56.969487
9.049767 -92.818001 57.1834
8.123508 -92.11486 58.077866
8.676916 -93.71735 55.854855
8.381519 -92.969352 56.969487
9.55262 -94.485134 54.997524
8.676916 -93.71735 55.854855
9.20317 -95.212902 53.68591
8.327466 -94.445118 54.543239
9.386966 -95.966774 52.628186
9.20317 -95.212902 53.68591
8.059624 -94.832531 53.056721
7.745671 -94.279831 54.167324
8.832078 -95.733448 52.369221
8.059624 -94.832531 53.056721
9.386966 -95.966774 52.628186
8.832078 -95.733448 52.369221
8.670894 -96.414704 49.77039
8.208917 -95.827896 49.313766
32.417553 -56.513067 63.804322
32.631574 -56.262559 62.61034
32.436651 -55.575699 63.487179
32.109175 -60.375475 64.565731
32.350589 -60.04963 63.447506
32.241248 -59.414355 64.476456
31.927546 -61.371659 64.603741
32.109175 -60.375475 64.565731
31.818204 -60.736384 65.63269
31.726622 -62.354868 64.562325
31.927546 -61.371659 64.603741
31.36994 -62.739155 65.569305
31.726622 -62.354868 64.562325
30.993682 -63.119182 66.595024
31.36994 -62.739155 65.569305
31.260316 -62.112595 66.696418
30.549474 -63.512898 67.555736
30.659098 -64.139458 66.428624
30.993682 -63.119182 66.595024
29.650644 -52.731832 70.720894
30.14836 -52.473636 69.703243
29.15448 -53.019003 71.715511
28.570994 -53.284752 72.648891
29.653537 -53.784641 71.033672
29.650644 -52.731832 70.720894
29.15448 -53.019003 71.715511
26.608058 -54.165306 75.200077
25.851059 -54.447842 75.961804
27.271124 -54.976746 74.634411
27.303739 -53.856637 74.39656
26.608058 -54.165306 75.200077
14.763937 -56.889944 82.946346
15.016737 -55.585325 83.155456
14.011303 -55.86829 83.671086
14.763937 -56.889944 82.946346
14.486987 -58.195764 82.757454
13.46799 -62.129425 81.885891
13.836763 -60.818462 82.229035
12.782948 -61.111522 82.566623
13.46799 -62.129425 81.885891
13.045796 -63.431351 81.564632
13.275733 -67.932548 79.494777
14.384721 -67.589416 79.284301
11.638429 -67.29982 80.276745
11.060192 -66.303421 80.920437
12.171957 -68.279968 79.637378
11.638429 -67.29982 80.276745
11.107711 -68.565445 79.79979
12.745015 -69.198173 79.017822
13.275733 -67.932548 79.494777
12.171957 -68.279968 79.637378
4.483131 -68.282592 80.147061
4.872927 -67.126632 81.022045
4.192629 -67.066696 80.772926
4.736135 -69.517391 79.554489
4.483131 -68.282592 80.147061
4.055837 -69.457454 79.305371
4.215159 -73.024639 77.201549
4.624841 -71.878437 78.107971
3.899158 -71.838455 77.806377
3.800001 -74.176372 76.30645
4.525685 -74.216354 76.608043
4.215159 -73.024639 77.201549
3.428338 -75.289524 75.331066
3.800001 -74.176372 76.30645
27.717872 -68.326164 67.879048
27.481659 -67.767562 69.122734
27.003764 -68.741295 68.604298
28.386643 -67.939991 67.148846
27.717872 -68.326164 67.879048
15.244838 -78.550602 68.982597
15.637755 -77.574642 69.943047
14.619491 -78.208664 70.194504
14.922069 -79.465229 67.941162
13.935882 -80.136059 68.186406
14.631377 -80.416664 66.893513
15.244838 -78.550602 68.982597
14.922069 -79.465229 67.941162
16.129725 -80.865841 64.104084
15.971778 -81.740025 62.916367
14.038213 -87.065674 58.672191
13.22429 -87.834561 58.986817
14.124636 -88.082974 57.480755
14.89932 -86.303833 58.392761
13.998974 -86.05542 59.898822
14.038213 -87.065674 58.672191
15.736096 -85.499153 58.01725
14.89932 -86.303833 58.392761
15.740532 -84.520645 59.281761
15.736096 -85.499153 58.01725
3 0 51 49
3 193 53 194
3 197 196 53
3 195 196 197
3 198 55 199
3 200 57 201
3 202 201 55
3 200 201 202
3 204 203 57
3 2 60 59
3 1 63 61
3 3 66 64
3 4 70 68
3 205 71 206
3 6 74 72
3 6 76 74
3 7 79 77
3 7 81 79
3 7 83 81
3 8 87 86
3 8 88 87
3 8 90 88
3 9 93 91
3 9 95 93
3 9 97 95
3 5 100 98
3 10 103 101
3 10 207 209
3 209 208 103
3 207 208 209
3 211 210 104
3 11 108 106
3 13 109 50
3 13 110 109
3 212 113 213
3 212 213 214
3 15 215 217
3 215 114 216
3 215 216 217
3 15 115 114
3 218 116 219
3 17 117 52
3 17 118 117
3 17 120 118
3 19 121 54
3 19 122 121
3 19 124 122
3 21 125 56
3 21 126 125
3 21 128 126
3 220 129 221
3 222 221 58
3 220 221 222
3 224 223 129
3 23 225 226
3 24 132 130
3 26 133 62
3 26 134 133
3 27 137 135
3 228 227 65
3 12 138 107
3 28 141 139
3 229 142 230
3 231 230 67
3 229 230 231
3 233 232 142
3 30 145 143
3 32 146 69
3 32 147 146
3 234 148 235
3 236 235 111
3 234 235 236
3 237 149 238
3 239 150 240
3 241 240 149
3 239 240 241
3 242 151 243
3 244 243 150
3 242 243 244
3 245 152 246
3 248 247 152
3 249 153 250
3 33 251 252
3 33 253 254
3 33 255 256
3 34 257 258
3 34 259 260
3 14 154 112
3 35 155 73
3 35 156 155
3 35 157 156
3 36 158 75
3 36 159 158
3 37 261 263
3 261 160 262
3 261 262 263
3 37 161 160
3 16 264 266
3 264 162 265
3 264 265 266
3 38 163 78
3 38 164 163
3 38 165 164
3 39 166 80
3 39 167 166
3 39 168 167
3 40 169 82
3 40 170 169
3 18 171 119
3 41 172 84
3 41 173 172
3 41 174 173
3 42 175 85
3 42 176 175
3 43 267 268
3 43 269 270
3 43 271 273
3 271 272 273
3 44 274 276
3 276 275 89
3 274 275 276
3 44 277 278
3 20 177 123
3 279 178 280
3 281 280 92
3 279 280 281
3 283 282 178
3 45 179 94
3 45 180 179
3 45 181 180
3 46 182 96
3 46 183 182
3 22 184 127
3 284 185 285
3 287 286 185
3 289 288 136
3 31 186 144
3 47 187 99
3 47 188 187
3 25 189 131
3 48 190 102
3 48 290 292
3 292 291 190
3 290 291 292
3 48 293 294
3 29 191 140
3 295 192 296
3 297 296 105
3 295 296 297
3 299 298 192
3 49 50 11
3 51 50 49
3 51 13 50
3 300 15 301
3 302 52 303
3 53 304 306
3 304 52 305
3 304 305 306
3 53 17 52
3 53 307 309
3 309 308 17
3 307 308 309
3 311 310 53
3 312 54 313
3 55 314 316
3 314 54 315
3 314 315 316
3 55 19 54
3 55 56 19
3 57 56 55
3 57 21 56
3 57 58 21
3 317 58 318
3 319 318 57
3 317 318 319
3 321 320 58
3 59 322 324
3 324 323 23
3 322 323 324
3 60 325 327
3 327 326 59
3 325 326 327
3 60 328 329
3 61 62 24
3 63 62 61
3 63 26 62
3 64 65 27
3 66 65 64
3 66 330 332
3 332 331 65
3 330 331 332
3 334 333 12
3 335 67 336
3 337 336 28
3 335 336 337
3 338 67 339
3 341 340 67
3 68 69 30
3 70 69 68
3 70 32 69
3 342 33 343
3 345 344 33
3 71 346 347
3 71 348 350
3 348 34 349
3 348 349 350
3 72 73 14
3 74 73 72
3 74 35 73
3 74 75 35
3 76 75 74
3 76 36 75
3 351 37 352
3 77 78 16
3 79 78 77
3 79 38 78
3 79 80 38
3 81 80 79
3 81 39 80
3 81 82 39
3 83 82 81
3 83 40 82
3 353 84 354
3 355 354 18
3 353 354 355
3 356 84 357
3 358 41 359
3 360 359 84
3 358 359 360
3 361 85 362
3 363 362 41
3 361 362 363
3 364 85 365
3 366 42 367
3 368 367 85
3 366 367 368
3 86 369 370
3 87 371 373
3 373 372 86
3 371 372 373
3 87 374 375
3 87 376 377
3 88 378 380
3 380 379 87
3 378 379 380
3 88 381 383
3 381 43 382
3 381 382 383
3 88 89 43
3 90 89 88
3 90 44 89
3 91 92 20
3 93 92 91
3 93 384 386
3 386 385 92
3 384 385 386
3 93 387 389
3 387 94 388
3 387 388 389
3 95 94 93
3 95 45 94
3 95 96 45
3 97 96 95
3 97 46 96
3 391 390 22
3 98 99 31
3 100 99 98
3 100 47 99
3 101 102 25
3 103 102 101
3 103 48 102
3 103 392 394
3 394 393 48
3 392 393 394
3 396 395 103
3 104 105 29
3 397 105 398
3 399 398 104
3 397 398 399
3 401 400 105
3 106 107 3
3 108 107 106
3 108 12 107
3 50 108 11
3 109 108 50
3 109 12 108
3 109 402 404
3 404 403 12
3 402 403 404
3 110 405 407
3 407 406 109
3 405 406 407
3 110 408 409
3 410 111 411
3 412 411 4
3 410 411 412
3 413 111 414
3 416 415 111
3 417 112 418
3 113 419 421
3 419 112 420
3 419 420 421
3 113 14 112
3 422 113 423
3 114 424 426
3 424 113 425
3 424 425 426
3 114 14 113
3 114 72 14
3 115 72 114
3 115 6 72
3 116 427 428
3 116 429 431
3 429 16 430
3 429 430 431
3 52 432 434
3 432 116 433
3 432 433 434
3 117 116 52
3 117 16 116
3 117 77 16
3 118 77 117
3 118 7 77
3 118 119 7
3 120 119 118
3 120 18 119
3 435 120 436
3 437 436 17
3 435 436 437
3 438 120 439
3 440 18 441
3 442 441 120
3 440 441 442
3 444 443 18
3 54 445 446
3 121 447 449
3 449 448 54
3 447 448 449
3 121 450 451
3 121 452 454
3 452 86 453
3 452 453 454
3 122 86 121
3 122 8 86
3 122 123 8
3 124 123 122
3 124 20 123
3 56 124 19
3 125 124 56
3 125 20 124
3 125 91 20
3 126 91 125
3 126 9 91
3 126 127 9
3 128 127 126
3 128 22 127
3 58 128 21
3 129 128 58
3 129 22 128
3 129 455 457
3 457 456 22
3 455 456 457
3 459 458 129
3 461 460 23
3 130 131 5
3 132 131 130
3 132 25 131
3 62 132 24
3 133 132 62
3 133 25 132
3 133 101 25
3 134 101 133
3 134 10 101
3 135 136 2
3 137 136 135
3 137 462 464
3 464 463 136
3 462 463 464
3 65 137 27
3 465 137 466
3 467 466 65
3 465 466 467
3 469 468 137
3 107 66 3
3 138 66 107
3 138 470 472
3 472 471 66
3 470 471 472
3 473 138 474
3 475 474 12
3 473 474 475
3 476 138 477
3 479 478 138
3 139 140 1
3 141 140 139
3 141 29 140
3 67 141 28
3 142 141 67
3 142 29 141
3 142 104 29
3 480 104 481
3 482 481 142
3 480 481 482
3 484 483 104
3 143 144 0
3 145 144 143
3 145 31 144
3 69 145 30
3 146 145 69
3 146 31 145
3 146 98 31
3 147 98 146
3 147 5 98
3 111 70 4
3 148 70 111
3 148 32 70
3 485 148 486
3 149 487 489
3 487 148 488
3 487 488 489
3 149 32 148
3 149 147 32
3 150 147 149
3 150 5 147
3 150 130 5
3 151 130 150
3 151 24 130
3 490 151 491
3 152 492 494
3 492 151 493
3 492 493 494
3 152 24 151
3 152 61 24
3 495 61 496
3 497 496 152
3 495 496 497
3 498 1 499
3 500 499 61
3 498 499 500
3 501 1 502
3 503 139 504
3 505 504 1
3 503 504 505
3 506 139 507
3 508 28 509
3 510 509 139
3 508 509 510
3 511 28 512
3 514 513 28
3 153 515 516
3 153 517 518
3 519 153 520
3 521 153 522
3 524 523 153
3 526 525 33
3 112 527 529
3 527 71 528
3 527 528 529
3 154 71 112
3 154 34 71
3 73 154 14
3 155 154 73
3 155 34 154
3 155 530 532
3 532 531 34
3 530 531 532
3 156 533 535
3 535 534 155
3 533 534 535
3 156 536 537
3 156 538 539
3 157 540 542
3 542 541 156
3 540 541 542
3 157 543 545
3 543 23 544
3 543 544 545
3 75 157 35
3 158 157 75
3 158 23 157
3 158 59 23
3 159 59 158
3 159 2 59
3 546 15 547
3 160 548 549
3 160 550 552
3 550 15 551
3 550 551 552
3 160 115 15
3 161 115 160
3 161 6 115
3 162 553 554
3 162 555 557
3 555 37 556
3 555 556 557
3 78 162 16
3 163 162 78
3 163 37 162
3 163 161 37
3 164 161 163
3 164 6 161
3 164 76 6
3 165 76 164
3 165 36 76
3 80 165 38
3 166 165 80
3 166 36 165
3 166 159 36
3 167 159 166
3 167 2 159
3 167 135 2
3 168 135 167
3 168 27 135
3 82 168 39
3 169 168 82
3 169 27 168
3 169 64 27
3 170 64 169
3 170 3 64
3 119 83 7
3 171 83 119
3 171 40 83
3 84 171 18
3 172 171 84
3 172 40 171
3 172 170 40
3 173 170 172
3 173 3 170
3 173 106 3
3 174 106 173
3 174 11 106
3 85 174 41
3 175 174 85
3 175 11 174
3 175 49 11
3 176 49 175
3 176 0 49
3 89 558 560
3 560 559 43
3 558 559 560
3 562 561 89
3 123 90 8
3 177 90 123
3 177 44 90
3 92 177 20
3 178 177 92
3 178 44 177
3 178 563 565
3 565 564 44
3 563 564 565
3 567 566 178
3 568 42 569
3 94 570 571
3 179 572 574
3 574 573 94
3 572 573 574
3 179 575 577
3 575 42 576
3 575 576 577
3 179 176 42
3 180 176 179
3 180 0 176
3 180 143 0
3 181 143 180
3 181 30 143
3 96 181 45
3 182 181 96
3 182 30 181
3 182 68 30
3 183 68 182
3 183 4 68
3 127 97 9
3 184 97 127
3 184 46 97
3 578 184 579
3 580 579 22
3 578 579 580
3 185 581 583
3 581 184 582
3 581 582 583
3 185 46 184
3 185 183 46
3 584 183 585
3 586 585 185
3 584 585 586
3 587 4 588
3 589 588 183
3 587 588 589
3 591 590 4
3 136 60 2
3 592 60 593
3 594 593 136
3 592 593 594
3 596 595 60
3 144 51 0
3 186 51 144
3 186 13 51
3 99 186 31
3 187 186 99
3 187 13 186
3 187 110 13
3 188 110 187
3 188 597 599
3 599 598 110
3 597 598 599
3 131 100 5
3 189 100 131
3 189 47 100
3 102 189 25
3 190 189 102
3 190 47 189
3 190 188 47
3 600 188 601
3 602 601 190
3 600 601 602
3 604 603 188
3 606 605 48
3 140 63 1
3 191 63 140
3 191 26 63
3 105 191 29
3 192 191 105
3 192 26 191
3 192 134 26
3 607 134 608
3 609 608 192
3 607 608 609
3 610 10 611
3 612 611 134
3 610 611 612
3 613 10 614
3 616 615 10
