ply
format ascii 1.0
element vertex 205
property float x
property float y
property float z
element face 201
property list uchar int vertex_index
end_header
37.262806 -110.290932 -3.178179
26.221745 -120.441315 -3.160427
41.213184 -103.326988 7.766876
31.626381 -112.572151 6.000611
44.619171 -98.38826 9.376499
42.553886 -100.504829 13.651274
26.51955 -116.876701 6.427307
31.709152 -115.557007 -3.6723
43.72213 -101.464073 3.657351
39.414719 -106.599182 2.197042
38.812634 -104.848732 11.938157
36.664639 -108.012459 6.490664
34.262909 -111.640099 1.331241
28.959915 -116.55072 1.367325
23.814484 -120.918808 2.241598
39.88496 -107.611404 -2.610809
38.806976 -109.463684 -5.301939
43.976376 -98.142105 14.531085
28.933372 -118.079575 -3.543915
30.341183 -117.481789 -6.086349
27.509531 -119.944664 -5.822678
43.092697 -100.900238 8.564299
44.237656 -99.877304 6.489752
42.470467 -102.419975 5.693609
41.72303 -104.053062 2.88314
40.364281 -104.901131 4.950818
32.948364 -110.663223 8.347715
35.41428 -108.538094 8.645756
34.170197 -110.307976 6.129504
35.483608 -109.771339 3.887574
32.894295 -112.179016 3.66562
31.601065 -114.12896 1.231054
30.294926 -114.54554 3.679238
25.158211 -118.946266 4.343479
23.604445 -122.552704 -2.544006
44.889687 -96.985649 12.326362
43.590107 -99.482498 11.508229
41.94606 -101.869553 10.662745
29.072285 -114.778053 6.107745
34.507507 -112.945404 -3.544306
36.062103 -112.194878 -5.799032
33.212399 -114.878456 -6.071968
40.858181 -105.792564 0.118237
38.378696 -108.407516 -0.510221
40.819458 -102.734955 12.763008
39.988655 -104.159271 9.85811
36.596504 -106.872894 11.248533
37.78479 -106.374481 9.164728
39.041504 -105.69001 7.053786
38.002678 -107.345581 4.329333
36.894535 -109.125305 1.663024
35.729832 -111.00666 -0.96067
33.008347 -113.586334 -1.190639
30.287201 -116.115944 -1.178469
27.610416 -118.537842 -0.925226
27.71451 -116.823578 3.917495
26.362089 -118.840683 1.719473
25.000938 -120.773277 -0.455549
22.868882 -123.328865 -3.502228
22.363624 -123.434433 -2.142929
44.989069 -96.317131 13.832575
45.377711 -95.685326 12.692803
31.080107 -117.105401 -7.296289
29.607404 -118.380185 -7.235173
36.840154 -111.741803 -6.8671
35.411069 -113.122509 -7.071987
45.121218 -97.82124 8.324114
45.199907 -97.085308 9.757979
44.533699 -100.136109 4.054305
44.791462 -99.342724 5.470506
43.979893 -100.670688 5.073551
44.320223 -100.952648 2.661878
44.533699 -100.136109 4.054305
43.393867 -102.304688 2.261734
44.320223 -100.952648 2.661878
39.816046 -103.791843 12.350582
40.267308 -103.072834 13.799141
39.263896 -104.129722 13.386715
35.417061 -107.853901 11.00244
36.026714 -106.980827 12.260128
23.146346 -121.825706 1.210743
23.739573 -121.752941 -0.13783
24.407711 -120.846042 0.893025
40.617172 -107.151062 -3.620007
41.078565 -106.255809 -2.253032
40.07818 -108.077202 -4.965573
40.617172 -107.151062 -3.620007
39.345968 -108.537544 -3.956374
39.55378 -108.964149 -6.312245
40.07818 -108.077202 -4.965573
44.128117 -97.494602 16.079141
44.532414 -96.895359 14.934936
43.508308 -98.670117 15.63317
44.128117 -97.494602 16.079141
42.797064 -99.851478 15.193264
43.265131 -99.323467 14.091179
43.508308 -98.670117 15.63317
28.191578 -119.611622 -7.103338
29.607404 -118.380185 -7.235173
28.925357 -118.713227 -5.954514
38.245221 -105.07431 12.955883
39.263896 -104.129722 13.386715
34.181322 -109.600659 8.496735
34.825948 -108.686501 9.701052
33.59299 -109.749066 9.552032
24.560474 -118.874241 5.627468
25.838881 -117.911484 5.385393
25.241143 -117.839459 6.669382
23.889843 -119.891357 4.620272
24.560474 -118.874241 5.627468
23.217979 -120.877629 3.569331
24.486348 -119.932537 3.292539
23.889843 -119.891357 4.620272
22.569806 -121.810367 2.551516
23.217979 -120.877629 3.569331
24.182483 -122.368576 -3.910385
25.491133 -121.312882 -4.218596
24.913095 -121.49701 -2.852216
24.182483 -122.368576 -3.910385
22.868882 -123.328865 -3.502228
45.335165 -96.384002 11.23291
45.377711 -95.685326 12.692803
44.754429 -97.686954 10.85143
45.199907 -97.085308 9.757979
45.335165 -96.384002 11.23291
44.433031 -97.563877 13.428724
44.989069 -96.317131 13.832575
44.532414 -96.895359 14.934936
32.369158 -110.707974 9.426276
33.59299 -109.749066 9.552032
31.692076 -111.704292 8.32039
32.369158 -110.707974 9.426276
31.031084 -112.658756 7.146838
32.287372 -111.617687 7.174163
31.692076 -111.704292 8.32039
29.754036 -113.761707 7.200404
30.349333 -113.675102 6.054178
31.031084 -112.658756 7.146838
28.485655 -114.76807 7.292072
29.754036 -113.761707 7.200404
27.209288 -115.817394 7.451852
27.795918 -115.827377 6.267526
28.485655 -114.76807 7.292072
25.929624 -116.764984 7.646361
27.209288 -115.817394 7.451852
25.241143 -117.839459 6.669382
25.929624 -116.764984 7.646361
33.986217 -114.464298 -7.208455
35.411069 -113.122509 -7.071987
34.637251 -113.536667 -5.9355
32.515715 -115.803734 -7.289098
31.776791 -116.180123 -6.079159
31.080107 -117.105401 -7.296289
33.986217 -114.464298 -7.208455
32.515715 -115.803734 -7.289098
26.135026 -121.064556 -5.549721
26.865638 -120.19299 -4.491553
25.491133 -121.312882 -4.218596
26.746365 -120.786053 -6.888236
26.135026 -121.064556 -5.549721
28.191578 -119.611622 -7.103338
26.746365 -120.786053 -6.888236
38.212591 -110.376205 -6.618553
37.434539 -110.829281 -5.550486
36.840154 -111.741803 -6.8671
39.55378 -108.964149 -6.312245
38.212591 -110.376205 -6.618553
44.93046 -98.565762 6.88074
45.121218 -97.82124 8.324114
44.428414 -99.132782 7.933126
44.93046 -98.565762 6.88074
44.791462 -99.342724 5.470506
42.394317 -103.599182 1.874628
43.393867 -102.304688 2.261734
42.72258 -102.758567 3.270245
41.961893 -104.468933 0.492177
42.394317 -103.599182 1.874628
41.290605 -104.922813 1.500689
41.565176 -105.34639 -0.888509
41.961893 -104.468933 0.492177
40.371571 -106.701984 -1.246286
41.078565 -106.255809 -2.253032
41.565176 -105.34639 -0.888509
42.034782 -100.944809 14.716345
42.797064 -99.851478 15.193264
41.167568 -102.059872 14.272212
40.267308 -103.072834 13.799141
41.686672 -101.619892 13.207141
42.034782 -100.944809 14.716345
41.167568 -102.059872 14.272212
37.137156 -106.086391 12.611071
36.026714 -106.980827 12.260128
37.704569 -105.860813 11.593345
38.245221 -105.07431 12.955883
37.137156 -106.086391 12.611071
36.005392 -107.705494 9.947145
35.417061 -107.853901 11.00244
34.825948 -108.686501 9.701052
23.041326 -122.642655 -1.182059
24.302692 -121.662991 -1.499777
23.739573 -121.752941 -0.13783
22.363624 -123.434433 -2.142929
23.041326 -122.642655 -1.182059
23.146346 -121.825706 1.210743
22.569806 -121.810367 2.551516
3 0 16 15
3 1 20 18
3 2 23 21
3 2 25 23
3 3 28 26
3 3 30 28
3 3 32 30
3 59 58 34
3 60 35 61
3 5 36 17
3 5 37 36
3 7 41 39
3 63 62 19
3 65 64 40
3 4 66 67
3 8 68 70
3 70 69 22
3 68 69 70
3 8 71 72
3 8 73 74
3 9 42 24
3 9 43 42
3 10 75 77
3 75 44 76
3 75 76 77
3 10 45 44
3 78 46 79
3 11 47 27
3 11 48 47
3 11 49 48
3 12 50 29
3 12 51 50
3 12 52 51
3 13 53 31
3 13 54 53
3 6 55 38
3 14 56 33
3 14 57 56
3 14 80 82
3 82 81 57
3 80 81 82
3 15 83 84
3 16 85 87
3 87 86 15
3 85 86 87
3 16 88 89
3 90 17 91
3 92 17 93
3 94 5 95
3 96 95 17
3 94 95 96
3 18 19 7
3 20 19 18
3 20 97 99
3 99 98 19
3 97 98 99
3 21 22 4
3 23 22 21
3 23 8 22
3 23 24 8
3 25 24 23
3 25 9 24
3 100 10 101
3 26 102 104
3 102 27 103
3 102 103 104
3 28 27 26
3 28 11 27
3 28 29 11
3 30 29 28
3 30 12 29
3 30 31 12
3 32 31 30
3 32 13 31
3 105 33 106
3 107 106 6
3 105 106 107
3 108 33 109
3 110 14 111
3 112 111 33
3 110 111 112
3 114 113 14
3 34 115 117
3 117 116 1
3 115 116 117
3 119 118 34
3 35 120 121
3 35 122 124
3 122 4 123
3 122 123 124
3 17 125 127
3 125 35 126
3 125 126 127
3 36 35 17
3 36 4 35
3 36 21 4
3 37 21 36
3 37 2 21
3 128 26 129
3 130 26 131
3 132 3 133
3 134 133 26
3 132 133 134
3 135 38 136
3 137 136 3
3 135 136 137
3 138 38 139
3 140 6 141
3 142 141 38
3 140 141 142
3 143 6 144
3 146 145 6
3 39 40 0
3 41 40 39
3 41 147 149
3 149 148 40
3 147 148 149
3 19 41 7
3 150 41 151
3 152 151 19
3 150 151 152
3 154 153 41
3 155 20 156
3 157 156 1
3 155 156 157
3 158 20 159
3 161 160 20
3 40 16 0
3 162 16 163
3 164 163 40
3 162 163 164
3 166 165 16
3 22 167 169
3 169 168 4
3 167 168 169
3 171 170 22
3 24 172 174
3 174 173 8
3 172 173 174
3 42 175 177
3 177 176 24
3 175 176 177
3 42 178 179
3 42 180 182
3 180 15 181
3 180 181 182
3 43 15 42
3 43 0 15
3 183 5 184
3 44 185 186
3 44 187 189
3 187 5 188
3 187 188 189
3 44 37 5
3 45 37 44
3 45 2 37
3 46 190 191
3 46 192 194
3 192 10 193
3 192 193 194
3 27 195 197
3 195 46 196
3 195 196 197
3 47 46 27
3 47 10 46
3 47 45 10
3 48 45 47
3 48 2 45
3 48 25 2
3 49 25 48
3 49 9 25
3 29 49 11
3 50 49 29
3 50 9 49
3 50 43 9
3 51 43 50
3 51 0 43
3 51 39 0
3 52 39 51
3 52 7 39
3 31 52 12
3 53 52 31
3 53 7 52
3 53 18 7
3 54 18 53
3 54 1 18
3 38 32 3
3 55 32 38
3 55 13 32
3 33 55 6
3 56 55 33
3 56 13 55
3 56 54 13
3 57 54 56
3 57 1 54
3 57 34 1
3 198 34 199
3 200 199 57
3 198 199 200
3 202 201 34
3 204 203 14
