ply
format ascii 1.0
element vertex 292
property float x
property float y
property float z
element face 249
property list uchar int vertex_index
end_header
37.130058 17.392445 -37.274467
33.927593 14.529316 -46.44162
53.37825 12.041252 -30.935751
55.764919 8.287928 -26.542128
40.530792 17.162525 -36.667702
37.155987 17.631283 -47.287941
46.948097 17.188286 -38.447586
43.125771 18.187656 -40.988029
50.417259 15.066658 -34.987717
39.259525 17.893063 -42.286888
35.78706 16.329273 -42.192223
33.085651 13.797276 -40.870483
31.86293 10.649324 -44.329636
58.646488 -0.743353 -17.366465
57.537445 3.960196 -21.978415
53.796394 7.450359 -26.358332
54.720745 5.389084 -24.260263
48.400551 18.060093 -39.701019
46.416218 18.720837 -41.36248
50.188568 12.747189 -32.211601
35.535969 17.091476 -37.1996
42.281376 19.041496 -43.832535
41.172344 18.206776 -41.80835
40.231503 18.668766 -44.552048
35.40881 16.212788 -47.052704
36.475689 16.891994 -44.837578
34.889233 15.558075 -44.419525
34.326057 15.155827 -41.661079
33.554138 14.001953 -43.679497
32.484642 12.293352 -42.680779
32.74398 12.649817 -45.51046
58.178715 1.640268 -19.671869
51.524837 11.14497 -30.353426
52.729065 9.374224 -28.395132
54.645935 10.246292 -28.769384
38.809868 17.421196 -37.100304
39.116322 18.728493 -47.115387
45.065815 17.841827 -39.854645
44.36153 19.055447 -42.755814
48.739494 16.253601 -36.810799
50.281044 17.102516 -37.821541
51.966629 13.65469 -33.01799
41.859871 17.470715 -38.935745
40.029312 17.587273 -39.530807
38.242397 17.396187 -39.817924
38.275017 17.943718 -44.888588
37.445938 17.257366 -42.411667
36.551556 16.911022 -39.797813
35.001987 16.163242 -39.490479
33.623028 15.200073 -38.934555
58.932846 -3.15773 -15.075405
56.547417 -1.39851 -17.723024
56.106674 0.936762 -19.932207
55.494133 3.209583 -22.11455
56.730579 6.185114 -24.273138
54.013094 3.895686 -23.172396
53.648651 4.975215 -24.154233
48.080723 18.735729 -41.139511
49.112873 18.37228 -40.194073
49.889204 11.54371 -30.852288
49.266419 12.36545 -31.661044
36.516474 17.703919 -36.046669
37.312885 17.632645 -35.967517
36.333013 17.24196 -37.237033
35.719429 17.553434 -36.009236
36.516474 17.703919 -36.046669
40.727791 19.067101 -45.54102
41.256439 18.855131 -44.192291
41.752728 19.253465 -45.181263
52.219314 7.99447 -27.170172
51.720743 8.959943 -28.080053
56.085926 9.59166 -27.759119
55.526434 10.570843 -28.872747
55.205427 9.26711 -27.655756
39.827129 17.309442 -35.484905
40.637542 16.964035 -35.204605
39.67033 17.29186 -36.884003
38.966667 17.438778 -35.701206
39.827129 17.309442 -35.484905
46.006956 17.515057 -39.151116
45.260365 17.09148 -38.376091
46.201505 16.76471 -37.672562
44.984457 19.427519 -43.486599
45.388874 18.888142 -42.059147
46.011801 19.260214 -42.789932
43.885583 19.439059 -44.153534
44.984457 19.427519 -43.486599
49.578377 15.66013 -35.899258
48.732444 15.208217 -35.37698
49.571327 14.614746 -34.465439
42.492821 17.829186 -39.961887
42.771396 17.260254 -38.492226
43.404347 17.618724 -39.518367
32.753818 13.938494 -39.526329
33.022507 14.639893 -38.558365
33.354339 14.498674 -39.902519
32.574424 13.059014 -40.377277
32.753818 13.938494 -39.526329
31.765105 10.576966 -42.911716
32.075961 11.39898 -42.087288
32.173786 11.471338 -43.505207
31.56184 9.625551 -43.650341
31.765105 10.576966 -42.911716
58.789667 -1.950541 -16.220935
59.730438 -1.758981 -16.045344
59.587259 -0.551793 -17.190874
57.726118 -2.252438 -16.431788
57.869297 -3.459626 -15.286258
58.789667 -1.950541 -16.220935
57.596953 -1.070931 -17.544745
56.676583 -2.580017 -16.610068
57.726118 -2.252438 -16.431788
53.186476 6.005852 -25.203268
52.752979 7.032538 -26.151772
54.25857 6.419721 -25.309297
53.186476 6.005852 -25.203268
53.648651 4.975215 -24.154233
41.388179 16.89018 -36.324589
40.637542 16.964035 -35.204605
47.088556 19.066102 -41.970242
47.408384 18.390465 -40.53175
48.080723 18.735729 -41.139511
46.011801 19.260214 -42.789932
47.088556 19.066102 -41.970242
49.456981 13.455012 -33.077381
49.266419 12.36545 -31.661044
50.302914 13.906924 -33.599659
49.571327 14.614746 -34.465439
49.456981 13.455012 -33.077381
53.511707 13.230643 -32.263518
54.241259 12.396101 -31.126227
34.957991 17.496057 -35.99435
35.719429 17.553434 -36.009236
34.79853 16.820909 -37.049938
34.957991 17.496057 -35.99435
59.337888 0.661518 -18.375235
59.587259 -0.551793 -17.190874
59.104002 1.853328 -19.527937
58.412601 0.448458 -18.519167
59.337888 0.661518 -18.375235
58.771513 3.037238 -20.726107
59.104002 1.853328 -19.527937
58.450878 4.197202 -21.879379
57.85808 2.800232 -20.825142
58.771513 3.037238 -20.726107
58.037494 5.336701 -23.083641
58.450878 4.197202 -21.879379
51.118629 9.845316 -29.0592
50.557339 10.7426 -29.923201
52.126951 10.259597 -29.374279
51.118629 9.845316 -29.0592
51.720743 8.959943 -28.080053
53.262729 8.412292 -27.376732
52.219314 7.99447 -27.170172
52.752979 7.032538 -26.151772
54.875101 11.498621 -30.043043
54.241259 12.396101 -31.126227
54.012093 11.143772 -29.852567
54.875101 11.498621 -30.043043
55.526434 10.570843 -28.872747
38.15279 17.64702 -35.880436
38.966667 17.438778 -35.701206
37.969963 17.40682 -37.187386
37.312885 17.632645 -35.967517
38.15279 17.64702 -35.880436
39.583326 19.043821 -48.069969
40.1702 19.096964 -46.822689
38.520246 18.515118 -48.281379
39.583326 19.043821 -48.069969
37.540079 17.966513 -48.367656
38.136155 18.179888 -47.201664
38.520246 18.515118 -48.281379
36.576246 17.259664 -48.363716
37.540079 17.966513 -48.367656
35.702658 16.550417 -48.246097
36.282398 16.922035 -47.170322
36.576246 17.259664 -48.363716
34.870036 15.689911 -48.034481
35.702658 16.550417 -48.246097
34.129427 14.848175 -47.728939
34.668202 15.371052 -46.747162
34.870036 15.689911 -48.034481
33.451588 13.865927 -47.330833
34.129427 14.848175 -47.728939
44.374369 17.44581 -38.951676
45.260365 17.09148 -38.376091
44.095793 18.014741 -40.421337
43.404347 17.618724 -39.518367
44.374369 17.44581 -38.951676
42.845506 19.432083 -44.691895
43.321453 19.048471 -43.294174
43.885583 19.439059 -44.153534
41.752728 19.253465 -45.181263
42.845506 19.432083 -44.691895
47.045583 16.278929 -36.982208
46.201505 16.76471 -37.672562
47.941282 15.811587 -36.163815
48.732444 15.208217 -35.37698
47.843795 16.720944 -37.629193
47.045583 16.278929 -36.982208
47.941282 15.811587 -36.163815
50.05312 17.893492 -39.254334
49.112873 18.37228 -40.194073
49.340798 17.581305 -38.76128
50.856702 11.946079 -31.282514
49.889204 11.54371 -30.852288
50.557339 10.7426 -29.923201
52.805897 14.037361 -33.304638
52.672439 12.847971 -31.97687
53.511707 13.230643 -32.263518
52.000489 14.767006 -34.394573
52.805897 14.037361 -33.304638
51.225803 15.47299 -35.379436
51.191944 14.360674 -34.002854
52.000489 14.767006 -34.394573
51.157696 16.490919 -36.796349
50.349152 16.084587 -36.404629
51.225803 15.47299 -35.379436
51.023936 17.377009 -38.209526
51.157696 16.490919 -36.796349
50.05312 17.893492 -39.254334
51.023936 17.377009 -38.209526
42.052719 17.044275 -37.45861
42.771396 17.260254 -38.492226
41.195331 17.31662 -37.801723
41.388179 16.89018 -36.324589
42.052719 17.044275 -37.45861
39.673913 18.69863 -45.833717
40.727791 19.067101 -45.54102
40.1702 19.096964 -46.822689
34.53154 16.356793 -38.195377
34.79853 16.820909 -37.049938
35.268978 16.627359 -38.345039
33.84206 15.875208 -37.917416
34.53154 16.356793 -38.195377
34.312507 15.681658 -39.212517
33.171902 15.507641 -37.674294
33.84206 15.875208 -37.917416
33.171902 15.507641 -37.674294
33.022507 14.639893 -38.558365
32.27392 12.307053 -41.282425
32.574424 13.059014 -40.377277
32.785146 13.045314 -41.775631
32.27392 12.307053 -41.282425
32.075961 11.39898 -42.087288
32.859781 12.926178 -46.865254
33.335786 13.589567 -45.97604
33.451588 13.865927 -47.330833
32.348581 11.858897 -46.312466
32.859781 12.926178 -46.865254
31.908056 10.85865 -45.722054
32.303455 11.64957 -44.920048
32.348581 11.858897 -46.312466
31.561699 9.744529 -45.051216
31.908056 10.85865 -45.722054
31.56184 9.625551 -43.650341
31.561699 9.744529 -45.051216
59.893875 -2.987023 -14.882506
59.730438 -1.758981 -16.045344
58.982208 -4.364901 -13.944257
59.893875 -2.987023 -14.882506
57.90312 -4.637747 -14.170926
58.982208 -4.364901 -13.944257
57.90312 -4.637747 -14.170926
57.869297 -3.459626 -15.286258
55.54616 -2.924683 -16.792364
56.676583 -2.580017 -16.610068
55.425055 -1.767266 -17.854233
55.54616 -2.924683 -16.792364
55.204683 -0.59963 -18.958824
55.425055 -1.767266 -17.854233
56.327045 -0.230874 -18.827616
54.995916 0.548391 -19.996948
55.204683 -0.59963 -18.958824
54.689646 1.684801 -21.08812
54.995916 0.548391 -19.996948
55.800404 2.073173 -21.023378
54.399788 2.805935 -22.099539
54.689646 1.684801 -21.08812
55.107439 4.299334 -23.187407
54.013094 3.895686 -23.172396
54.399788 2.805935 -22.099539
57.634062 6.44916 -24.231003
57.134012 5.072655 -23.125777
58.037494 5.336701 -23.083641
57.141033 7.530197 -25.433267
57.634062 6.44916 -24.231003
56.658203 8.581604 -26.567763
56.247749 7.236521 -25.407633
57.141033 7.530197 -25.433267
56.085926 9.59166 -27.759119
56.658203 8.581604 -26.567763
3 55 16 56
3 58 57 17
3 59 19 60
3 0 61 62
3 0 63 65
3 63 20 64
3 63 64 65
3 66 23 67
3 68 67 21
3 66 67 68
3 1 26 24
3 1 28 26
3 1 30 28
3 69 33 70
3 3 34 15
3 3 71 73
3 73 72 34
3 71 72 73
3 4 74 75
3 4 76 78
3 76 35 77
3 76 77 78
3 6 79 81
3 79 37 80
3 79 80 81
3 82 38 83
3 84 83 18
3 82 83 84
3 86 85 38
3 8 87 89
3 87 39 88
3 87 88 89
3 8 40 39
3 2 41 32
3 7 90 92
3 90 42 91
3 90 91 92
3 9 43 22
3 9 44 43
3 5 45 36
3 10 46 25
3 10 47 46
3 10 48 47
3 11 49 27
3 11 93 95
3 95 94 49
3 93 94 95
3 11 96 97
3 12 98 100
3 100 99 29
3 98 99 100
3 12 101 102
3 13 103 105
3 103 50 104
3 103 104 105
3 13 106 108
3 108 107 50
3 106 107 108
3 13 109 111
3 109 51 110
3 109 110 111
3 14 52 31
3 14 53 52
3 14 54 53
3 112 15 113
3 16 114 116
3 114 15 115
3 114 115 116
3 16 3 15
3 117 4 118
3 17 18 6
3 119 18 120
3 121 120 17
3 119 120 121
3 123 122 18
3 19 124 125
3 19 126 128
3 126 8 127
3 126 127 128
3 130 129 2
3 20 131 132
3 20 133 134
3 21 22 7
3 23 22 21
3 23 9 22
3 24 25 5
3 26 25 24
3 26 10 25
3 26 27 10
3 28 27 26
3 28 11 27
3 28 29 11
3 30 29 28
3 30 12 29
3 135 13 136
3 137 31 138
3 139 138 13
3 137 138 139
3 140 31 141
3 142 14 143
3 144 143 31
3 142 143 144
3 146 145 14
3 147 32 148
3 33 149 151
3 149 32 150
3 149 150 151
3 33 2 32
3 15 152 154
3 152 33 153
3 152 153 154
3 34 33 15
3 34 2 33
3 34 155 157
3 157 156 2
3 155 156 157
3 159 158 34
3 35 160 161
3 35 162 164
3 162 0 163
3 162 163 164
3 165 36 166
3 167 36 168
3 169 5 170
3 171 170 36
3 169 170 171
3 172 5 173
3 174 24 175
3 176 175 5
3 174 175 176
3 177 24 178
3 179 1 180
3 181 180 24
3 179 180 181
3 183 182 1
3 37 184 185
3 37 186 188
3 186 7 187
3 186 187 188
3 18 37 6
3 38 37 18
3 38 7 37
3 38 21 7
3 189 21 190
3 191 190 38
3 189 190 191
3 193 192 21
3 194 6 195
3 39 196 197
3 39 198 200
3 198 6 199
3 198 199 200
3 39 17 6
3 40 17 39
3 40 201 203
3 203 202 17
3 201 202 203
3 32 204 206
3 204 19 205
3 204 205 206
3 41 19 32
3 41 8 19
3 207 41 208
3 209 208 2
3 207 208 209
3 210 41 211
3 212 8 213
3 214 213 41
3 212 213 214
3 215 40 216
3 217 216 8
3 215 216 217
3 218 40 219
3 221 220 40
3 42 222 223
3 42 224 226
3 224 4 225
3 224 225 226
3 22 42 7
3 43 42 22
3 43 4 42
3 43 35 4
3 44 35 43
3 44 0 35
3 36 227 229
3 227 23 228
3 227 228 229
3 45 23 36
3 45 9 23
3 25 45 5
3 46 45 25
3 46 9 45
3 46 44 9
3 47 44 46
3 47 0 44
3 47 20 0
3 48 20 47
3 48 230 232
3 232 231 20
3 230 231 232
3 27 48 10
3 49 48 27
3 49 233 235
3 235 234 48
3 233 234 235
3 49 236 237
3 239 238 49
3 29 240 242
3 242 241 11
3 240 241 242
3 244 243 29
3 245 30 246
3 247 246 1
3 245 246 247
3 248 30 249
3 250 12 251
3 252 251 30
3 250 251 252
3 253 12 254
3 256 255 12
3 50 257 258
3 50 259 260
3 50 261 262
3 264 263 50
3 51 265 266
3 51 267 268
3 31 51 13
3 52 51 31
3 52 269 271
3 271 270 51
3 269 270 271
3 52 272 273
3 53 274 276
3 276 275 52
3 274 275 276
3 53 277 278
3 53 279 281
3 279 16 280
3 279 280 281
3 54 16 53
3 54 3 16
3 282 54 283
3 284 283 14
3 282 283 284
3 285 54 286
3 287 3 288
3 289 288 54
3 287 288 289
3 291 290 3
