ply
format ascii 1.0
element vertex 438
property float x
property float y
property float z
element face 495
property list uchar int vertex_index
end_header
17.104214 -126.378906 -0.016056
23.878307 -120.099564 -18.598379
4.467888 -120.595085 -1.732639
19.689968 -125.673592 -10.244291
5.712626 -117.393219 -11.676729
29.15435 -109.089119 -21.946951
11.189243 -123.543571 9.532655
10.066988 -126.653198 -1.48901
3.271881 -119.705025 10.213242
21.393114 -120.481041 7.494572
12.0634 -124.464005 -12.638765
15.296179 -116.884613 -18.845968
21.122803 -124.316162 -1.741852
23.193382 -123.686829 -7.202225
18.086479 -126.556046 -4.725187
28.09935 -119.451736 -16.562773
30.735184 -115.375755 -19.531878
26.370268 -115.228088 -20.727453
6.70495 -122.472626 10.023925
6.871096 -124.336121 -1.787933
10.938772 -126.227127 -7.416
7.777819 -123.529396 -7.561543
6.80835 -113.818031 -14.895702
9.712988 -118.141617 -15.938604
11.819756 -113.41214 -18.053396
18.169403 -111.133888 -20.073053
15.189245 -107.39949 -19.115465
25.53923 -122.146439 -12.363556
21.661869 -123.569427 -15.095968
5.197063 -119.589027 -7.175062
14.337103 -125.752174 4.223652
13.784653 -127.246292 -0.828331
10.008675 -125.728996 4.325311
6.285885 -123.951195 4.253069
3.574671 -120.582787 4.195117
16.226284 -122.831688 8.669975
18.913204 -124.119774 3.476802
14.514046 -127.277916 -6.529997
15.858909 -125.956909 -12.027773
17.478765 -123.266273 -16.374857
8.603985 -121.494148 -12.426931
13.373617 -121.355095 -16.493017
19.452917 -119.180275 -19.176508
22.014126 -113.765694 -20.699362
18.867472 -125.632195 -0.838724
19.682751 -125.605362 -3.399363
17.495409 -126.583015 -2.10803
26.042406 -119.975868 -17.783064
29.413708 -117.593903 -18.199469
27.294367 -117.901886 -19.207418
28.585434 -115.474236 -20.321058
25.085796 -117.83445 -19.812838
5.565819 -122.614929 -1.801954
7.325418 -124.083466 -4.74901
6.014402 -122.29364 -4.697701
9.108477 -113.856995 -16.646059
10.429506 -111.255753 -17.495035
13.359812 -110.554832 -18.682795
21.500931 -124.871994 -8.87262
24.330112 -123.043419 -9.868494
22.54418 -124.115898 -11.503242
23.65941 -123.065605 -13.909924
20.641727 -124.783936 -12.811052
12.752546 -124.834091 6.821157
12.131428 -125.956444 4.318621
10.440817 -124.780952 7.018332
4.832306 -121.285973 10.152919
6.338854 -123.336464 7.196893
4.66674 -121.976105 7.219231
4.791172 -122.443161 4.216763
3.297352 -120.240067 7.213628
13.670547 -123.406677 9.151277
15.15543 -124.447044 6.509538
22.621475 -120.836449 4.897065
20.103518 -122.419106 5.499201
11.895288 -127.168289 -1.199242
14.034872 -127.433884 -3.636147
12.2043 -127.245407 -4.140402
11.489302 -125.512032 -10.166645
13.285423 -126.367973 -9.891291
13.934971 -125.419334 -12.46133
16.63796 -124.785934 -14.3866
14.629263 -124.128891 -14.697346
5.445272 -118.652725 -9.570232
6.742176 -120.787132 -9.916603
7.072973 -119.570358 -12.113071
12.325773 -117.75985 -17.553507
11.466768 -119.894211 -16.2778
14.227459 -119.288078 -17.842573
16.270092 -120.51104 -17.998701
17.312569 -118.189262 -19.087183
20.651831 -116.629791 -20.062647
18.554497 -115.541306 -19.872435
24.760521 -122.184448 -5.276764
22.13332 -124.105026 -4.460449
20.546299 -125.360756 -6.126436
18.82856 -126.258553 -7.50152
30.010033 -118.546646 -14.950071
31.393827 -116.915909 -16.775961
32.760796 -114.92952 -18.321306
32.058529 -112.803185 -20.594412
29.914042 -112.708832 -21.178679
27.730972 -112.303078 -21.413069
8.84449 -123.231277 9.819958
5.328787 -120.405403 12.980656
3.566088 -119.009201 13.156673
8.377954 -125.699051 -1.685291
10.442335 -126.608574 -4.486588
8.805931 -125.540565 -4.684271
9.29277 -125.061012 -7.567156
9.784971 -124.261414 -10.237341
6.124538 -115.786667 -13.457554
7.502993 -118.018394 -13.974655
8.149637 -116.114632 -15.483189
10.607601 -115.946907 -17.156713
13.452028 -115.288666 -18.498053
16.612194 -114.159225 -19.564508
14.869333 -112.496147 -19.169016
16.556129 -109.405075 -19.637976
28.629402 -119.84845 -12.848835
26.802471 -120.960701 -14.611288
24.829285 -121.693184 -16.016394
22.740082 -122.011467 -17.032808
4.879831 -120.228584 -4.543024
4.159973 -117.266426 -6.814556
4.328499 -116.289406 -9.102764
3.414524 -113.708771 -8.50518
4.550886 -114.97422 -11.107677
15.853554 -126.264854 1.845835
15.608684 -126.935974 -0.407602
13.865156 -126.692421 1.794339
11.849552 -126.73938 1.640489
9.897465 -126.358772 1.474332
8.281036 -124.279602 7.13518
8.038897 -125.057495 4.294373
8.092859 -125.536072 1.334455
6.49234 -124.289772 1.237905
5.125292 -122.661522 1.191267
4.002266 -120.707573 1.197783
3.124041 -118.48893 1.26047
18.809998 -121.843132 8.103072
17.611393 -123.634895 6.060938
16.591015 -125.137413 3.957219
17.874174 -125.49424 1.545321
22.478207 -122.732605 0.179888
20.079773 -124.328201 0.895738
15.842052 -127.194878 -2.968597
16.338959 -127.128059 -5.752319
17.008331 -126.745491 -8.580624
12.692511 -126.977081 -7.078756
15.141198 -126.785767 -9.371994
17.793562 -126.043068 -11.295965
18.657953 -125.010452 -13.769768
19.585527 -123.634811 -15.909845
20.580585 -121.907143 -17.666803
6.408199 -121.688797 -7.425409
8.195843 -122.669548 -10.143696
10.276794 -123.138985 -12.611786
9.076221 -119.989586 -14.365036
10.811666 -121.686455 -14.633444
12.674538 -123.080132 -14.759495
15.392361 -122.492737 -16.546045
18.405418 -121.396454 -17.965075
21.661634 -119.827263 -19.040777
22.84973 -117.402863 -20.070883
24.157272 -114.65184 -20.82416
25.579687 -111.599907 -21.381529
20.001522 -112.588814 -20.432112
9.865246 -110.036053 -17.146603
9.142342 -111.372509 -16.746504
11.268244 -109.793793 -17.78944
9.865246 -110.036053 -17.146603
30.900434 -107.684276 -22.170244
30.213597 -109.360894 -21.896871
29.884315 -107.353878 -22.174747
30.900434 -107.684276 -22.170244
12.429895 -123.475124 9.341966
12.942134 -122.728912 10.503895
11.701483 -122.797359 10.694584
22.007295 -120.658745 6.195818
23.292105 -119.819333 5.904261
22.677925 -119.641628 7.203015
21.628062 -124.210594 -3.10115
22.868882 -123.328865 -3.502228
22.363624 -123.434433 -2.142929
32.417068 -113.977142 -19.566813
33.429874 -113.754024 -18.961527
31.74799 -115.152637 -18.926592
31.396856 -114.08947 -20.063145
33.078741 -112.690857 -20.09808
32.417068 -113.977142 -19.566813
4.768057 -119.294056 14.494178
5.744046 -119.884838 14.325298
3.886707 -118.595955 14.582186
4.447438 -119.707302 13.068665
4.768057 -119.294056 14.494178
16.82107 -106.719944 -19.550216
17.504512 -107.722736 -19.811472
15.872687 -108.402282 -19.37672
24.588291 -122.657135 -7.578009
25.371861 -121.905945 -6.615279
23.976951 -122.935639 -6.239495
26.408761 -121.503678 -11.431865
25.804202 -121.952168 -10.184334
24.934671 -122.594929 -11.116025
27.084316 -120.997445 -12.606196
27.953847 -120.354683 -11.674504
26.408761 -121.503678 -11.431865
3.737367 -116.004932 -6.577277
3.666771 -116.360042 -5.377054
3.82163 -115.516423 -7.721381
4.244236 -116.777916 -7.95866
3.737367 -116.004932 -6.577277
3.512975 -113.013492 -9.449132
3.068272 -112.31419 -8.140199
4.081156 -113.646217 -10.750381
3.982705 -114.341496 -9.806428
3.512975 -113.013492 -9.449132
4.760064 -114.135967 -11.95172
4.081156 -113.646217 -10.750381
2.55706 -117.267036 2.743928
2.882747 -118.459225 2.728365
2.806801 -117.27586 1.321442
2.55706 -117.267036 2.743928
16.849528 -121.895927 9.677419
15.523264 -122.273632 9.986861
17.518141 -122.33741 8.386523
18.141385 -121.401649 9.393967
16.849528 -121.895927 9.677419
23.146346 -121.825706 1.210743
23.739573 -121.752941 -0.13783
19.496488 -124.223988 2.18627
20.70245 -123.515064 1.878587
20.119166 -123.410851 3.169119
8.481827 -112.67313 -16.322015
7.958414 -113.837513 -15.770881
7.331764 -112.653648 -15.446837
9.768992 -112.556374 -17.070547
8.481827 -112.67313 -16.322015
9.142342 -111.372509 -16.746504
12.733397 -109.443332 -18.38332
11.894659 -110.905293 -18.088915
11.268244 -109.793793 -17.78944
13.648114 -107.865662 -18.599655
14.274528 -108.977161 -18.89913
12.733397 -109.443332 -18.38332
14.245396 -122.561127 10.227512
12.942134 -122.728912 10.503895
14.948415 -123.119182 8.910626
15.523264 -122.273632 9.986861
14.245396 -122.561127 10.227512
23.889843 -119.891357 4.620272
23.292105 -119.819333 5.904261
23.217979 -120.877629 3.569331
23.889843 -119.891357 4.620272
21.973301 -121.769188 3.87925
23.217979 -120.877629 3.569331
20.714323 -122.560517 4.180318
21.973301 -121.769188 3.87925
21.362496 -121.627778 5.198133
19.508361 -123.26944 4.488002
20.119166 -123.410851 3.169119
20.714323 -122.560517 4.180318
19.898103 -110.245731 -20.461105
19.047144 -109.483807 -20.262627
24.182483 -122.368576 -3.910385
25.491133 -121.312882 -4.218596
23.446921 -123.144737 -4.868607
24.182483 -122.368576 -3.910385
22.868882 -123.328865 -3.502228
31.60754 -117.220696 -14.95901
30.882217 -117.924476 -13.971937
32.299437 -116.405327 -15.871955
31.60754 -117.220696 -14.95901
30.70193 -117.731278 -15.863016
33.007491 -115.531994 -16.736618
32.299437 -116.405327 -15.871955
33.690976 -114.538799 -17.50929
33.007491 -115.531994 -16.736618
32.077312 -115.922714 -17.548634
34.372414 -113.483387 -18.252023
33.690976 -114.538799 -17.50929
34.372414 -113.483387 -18.252023
33.429874 -113.754024 -18.961527
33.730816 -111.338097 -20.621399
33.078741 -112.690857 -20.09808
32.718735 -111.35001 -21.016201
33.730816 -111.338097 -20.621399
31.646491 -111.302833 -21.308335
32.718735 -111.35001 -21.016201
30.986286 -112.756009 -20.886545
30.593443 -111.17075 -21.512735
31.646491 -111.302833 -21.308335
29.501908 -110.967873 -21.629931
30.593443 -111.17075 -21.512735
28.822507 -112.505955 -21.295874
28.442661 -110.696099 -21.68001
30.213597 -109.360894 -21.896871
29.501908 -110.967873 -21.629931
9.28019 -122.588211 11.072676
10.016866 -123.387424 9.676306
10.452566 -122.744358 10.929025
8.121173 -122.312027 11.26097
9.28019 -122.588211 11.072676
7.051403 -121.932701 11.362954
7.77472 -122.851952 9.921941
8.121173 -122.312027 11.26097
6.363321 -120.89909 12.84132
5.744046 -119.884838 14.325298
6.016869 -121.439015 11.502291
7.051403 -121.932701 11.362954
6.363321 -120.89909 12.84132
10.452566 -122.744358 10.929025
11.701483 -122.797359 10.694584
22.071516 -119.423626 8.45058
22.677925 -119.641628 7.203015
18.240507 -108.6194 -20.045088
19.047144 -109.483807 -20.262627
17.362766 -110.269481 -19.855514
18.240507 -108.6194 -20.045088
17.504512 -107.722736 -19.811472
26.135026 -121.064556 -5.549721
25.491133 -121.312882 -4.218596
26.135026 -121.064556 -5.549721
25.371861 -121.905945 -6.615279
25.156656 -122.33543 -8.911143
24.588291 -122.657135 -7.578009
23.761747 -123.365124 -8.53536
25.156656 -122.33543 -8.911143
25.804202 -121.952168 -10.184334
29.46414 -119.130882 -11.819004
27.953847 -120.354683 -11.674504
30.191902 -118.575378 -12.921319
29.46414 -119.130882 -11.819004
29.319717 -119.197548 -13.899453
30.882217 -117.924476 -13.971937
30.191902 -118.575378 -12.921319
4.229516 -119.281242 -3.062723
4.67386 -120.411834 -3.137831
4.023544 -119.464493 -1.657531
4.404592 -119.082695 -4.416723
4.229516 -119.281242 -3.062723
4.563209 -118.762917 -5.732741
5.038447 -119.908805 -5.859043
4.404592 -119.082695 -4.416723
4.044664 -117.601616 -5.552488
3.666771 -116.360042 -5.377054
4.678518 -118.427727 -6.994809
4.563209 -118.762917 -5.732741
4.044664 -117.601616 -5.552488
3.046519 -112.87164 -7.127206
3.068272 -112.31419 -8.140199
3.364643 -114.226105 -7.422589
3.046519 -112.87164 -7.127206
3.871511 -114.999088 -8.803972
3.82163 -115.516423 -7.721381
3.364643 -114.226105 -7.422589
5.54689 -114.542191 -13.126659
5.337712 -115.380443 -12.282616
4.760064 -114.135967 -11.95172
5.888796 -113.557873 -13.845733
6.466444 -114.802349 -14.176628
5.54689 -114.542191 -13.126659
6.260878 -112.534458 -14.524599
5.888796 -113.557873 -13.845733
7.331764 -112.653648 -15.446837
6.260878 -112.534458 -14.524599
3.080615 -117.811008 14.680089
3.886707 -118.595955 14.582186
2.858261 -118.126385 13.192421
3.080615 -117.811008 14.680089
2.711158 -118.474297 11.720705
3.418985 -119.357113 11.684957
2.858261 -118.126385 13.192421
2.661411 -118.740837 10.212421
2.711158 -118.474297 11.720705
2.674146 -119.008358 8.712613
3.284617 -119.972546 8.713435
2.661411 -118.740837 10.212421
2.771168 -119.211277 7.201941
2.674146 -119.008358 8.712613
2.909828 -119.382637 5.692685
3.436012 -120.411427 5.704372
2.771168 -119.211277 7.201941
3.108062 -119.506153 4.195688
2.909828 -119.382637 5.692685
3.321859 -119.568546 2.697021
3.788468 -120.64518 2.69645
3.108062 -119.506153 4.195688
3.563153 -119.598252 1.229127
3.321859 -119.568546 2.697021
2.882747 -118.459225 2.728365
3.351621 -118.411415 -0.160976
4.023544 -119.464493 -1.657531
3.795965 -119.542007 -0.236085
3.351621 -118.411415 -0.160976
2.806801 -117.27586 1.321442
20.758992 -120.15292 8.76465
22.071516 -119.423626 8.45058
19.467434 -120.833966 9.0689
18.141385 -121.401649 9.393967
20.101556 -121.162087 7.798822
20.758992 -120.15292 8.76465
19.467434 -120.833966 9.0689
23.041326 -122.642655 -1.182059
23.739573 -121.752941 -0.13783
21.800505 -123.524383 -0.780982
22.363624 -123.434433 -2.142929
23.041326 -122.642655 -1.182059
21.901667 -122.717266 1.520662
23.146346 -121.825706 1.210743
21.27899 -123.530403 0.537813
21.901667 -122.717266 1.520662
20.70245 -123.515064 1.878587
20.814163 -110.973194 -20.640635
19.085462 -111.861351 -20.252583
19.898103 -110.245731 -20.461105
21.763915 -111.601597 -20.801524
20.814163 -110.973194 -20.640635
22.770217 -112.190037 -20.935149
21.007824 -113.177254 -20.565737
21.763915 -111.601597 -20.801524
24.552998 -111.107144 -21.276232
23.796906 -112.6828 -21.040446
22.770217 -112.190037 -20.935149
26.33641 -109.938294 -21.603228
24.552998 -111.107144 -21.276232
28.123742 -108.682899 -21.885939
27.367019 -110.344513 -21.66424
26.33641 -109.938294 -21.603228
29.884315 -107.353878 -22.174747
28.123742 -108.682899 -21.885939
14.637661 -106.255524 -18.800546
13.648114 -107.865662 -18.599655
16.211289 -105.685207 -19.274809
14.637661 -106.255524 -18.800546
16.82107 -106.719944 -19.550216
16.211289 -105.685207 -19.274809
3 0 46 44
3 1 49 47
3 1 51 49
3 2 54 52
3 168 56 169
3 171 170 56
3 3 60 58
3 3 62 60
3 5 172 173
3 5 174 175
3 6 65 63
3 8 68 66
3 8 70 68
3 6 176 178
3 176 71 177
3 176 177 178
3 6 63 71
3 9 179 181
3 179 73 180
3 179 180 181
3 9 74 73
3 7 77 75
3 10 80 78
3 10 82 80
3 4 85 83
3 11 88 86
3 11 90 88
3 11 92 90
3 12 182 184
3 182 94 183
3 182 183 184
3 14 95 45
3 14 96 95
3 15 98 97
3 16 99 48
3 16 185 187
3 187 186 99
3 185 186 187
3 16 188 190
3 188 100 189
3 188 189 190
3 17 101 50
3 17 102 101
3 191 104 192
3 193 105 194
3 195 194 104
3 193 194 195
3 19 108 106
3 21 109 53
3 21 110 109
3 22 113 111
3 24 114 55
3 24 115 114
3 24 117 115
3 26 118 57
3 26 196 198
3 198 197 118
3 196 197 198
3 13 199 201
3 201 200 93
3 199 200 201
3 27 202 204
3 204 203 59
3 202 203 204
3 27 205 207
3 205 119 206
3 205 206 207
3 27 120 119
3 28 121 61
3 28 122 121
3 208 124 209
3 210 125 211
3 212 211 124
3 210 211 212
3 213 126 214
3 215 127 216
3 217 216 126
3 215 216 217
3 219 218 127
3 30 130 128
3 32 131 64
3 32 132 131
3 18 133 103
3 33 134 67
3 33 135 134
3 33 136 135
3 34 137 69
3 34 138 137
3 220 139 221
3 223 222 139
3 35 224 225
3 35 226 228
3 226 140 227
3 226 227 228
3 35 141 140
3 30 142 72
3 30 128 142
3 229 144 230
3 36 231 233
3 231 145 232
3 231 232 233
3 36 143 145
3 31 146 129
3 37 147 76
3 37 148 147
3 20 149 107
3 38 150 79
3 38 151 150
3 38 152 151
3 39 153 81
3 39 154 153
3 29 155 123
3 40 156 84
3 40 157 156
3 23 158 112
3 41 159 87
3 41 160 159
3 41 161 160
3 42 162 89
3 42 163 162
3 42 164 163
3 43 165 91
3 43 166 165
3 25 167 116
3 44 45 12
3 46 45 44
3 46 14 45
3 47 48 15
3 49 48 47
3 49 16 48
3 49 50 16
3 51 50 49
3 51 17 50
3 52 53 19
3 54 53 52
3 54 21 53
3 234 55 235
3 236 235 22
3 234 235 236
3 56 237 239
3 237 55 238
3 237 238 239
3 56 24 55
3 56 57 24
3 240 57 241
3 242 241 56
3 240 241 242
3 243 26 244
3 245 244 57
3 243 244 245
3 58 59 13
3 60 59 58
3 60 27 59
3 60 61 27
3 62 61 60
3 62 28 61
3 63 64 30
3 65 64 63
3 65 32 64
3 66 67 18
3 68 67 66
3 68 33 67
3 68 69 33
3 70 69 68
3 70 34 69
3 71 246 247
3 71 248 250
3 248 35 249
3 248 249 250
3 71 72 35
3 63 72 71
3 63 30 72
3 73 251 252
3 73 253 254
3 73 255 256
3 74 257 259
3 259 258 73
3 257 258 259
3 74 260 262
3 260 36 261
3 260 261 262
3 75 76 31
3 77 76 75
3 77 37 76
3 78 79 20
3 80 79 78
3 80 38 79
3 80 81 38
3 82 81 80
3 82 39 81
3 83 84 29
3 85 84 83
3 85 40 84
3 86 87 23
3 88 87 86
3 88 41 87
3 88 89 41
3 90 89 88
3 90 42 89
3 90 91 42
3 92 91 90
3 92 43 91
3 264 263 25
3 265 93 266
3 94 267 269
3 267 93 268
3 267 268 269
3 94 13 93
3 45 94 12
3 95 94 45
3 95 13 94
3 95 58 13
3 96 58 95
3 96 3 58
3 97 270 271
3 98 272 274
3 274 273 97
3 272 273 274
3 98 275 276
3 48 98 15
3 99 98 48
3 99 277 279
3 279 278 98
3 277 278 279
3 99 280 281
3 283 282 99
3 100 284 285
3 100 286 287
3 50 100 16
3 101 100 50
3 101 288 290
3 290 289 100
3 288 289 290
3 101 291 292
3 102 293 295
3 295 294 101
3 293 294 295
3 102 296 298
3 296 5 297
3 296 297 298
3 299 103 300
3 301 300 6
3 299 300 301
3 302 103 303
3 304 18 305
3 306 305 103
3 304 305 306
3 104 307 308
3 104 309 311
3 309 18 310
3 309 310 311
3 104 66 18
3 105 66 104
3 105 8 66
3 312 6 313
3 314 9 315
3 106 107 7
3 108 107 106
3 108 20 107
3 53 108 19
3 109 108 53
3 109 20 108
3 109 78 20
3 110 78 109
3 110 10 78
3 111 112 4
3 113 112 111
3 113 23 112
3 55 113 22
3 114 113 55
3 114 23 113
3 114 86 23
3 115 86 114
3 115 11 86
3 115 116 11
3 117 116 115
3 117 25 116
3 57 117 24
3 118 117 57
3 118 25 117
3 118 316 318
3 318 317 25
3 316 317 318
3 320 319 118
3 93 321 322
3 324 323 93
3 59 325 327
3 327 326 13
3 325 326 327
3 329 328 59
3 119 330 331
3 119 332 333
3 119 334 336
3 334 97 335
3 334 335 336
3 120 97 119
3 120 15 97
3 61 120 27
3 121 120 61
3 121 15 120
3 121 47 15
3 122 47 121
3 122 1 47
3 337 123 338
3 339 338 2
3 337 338 339
3 340 123 341
3 342 29 343
3 344 343 123
3 342 343 344
3 124 345 346
3 124 347 349
3 347 29 348
3 347 348 349
3 124 83 29
3 125 83 124
3 125 4 83
3 126 350 351
3 126 352 353
3 126 354 356
3 354 125 355
3 354 355 356
3 127 125 126
3 127 4 125
3 127 111 4
3 357 111 358
3 359 358 127
3 357 358 359
3 360 22 361
3 362 361 111
3 360 361 362
3 363 22 364
3 366 365 22
3 128 129 0
3 130 129 128
3 130 31 129
3 64 130 30
3 131 130 64
3 131 31 130
3 131 75 31
3 132 75 131
3 132 7 75
3 103 65 6
3 133 65 103
3 133 32 65
3 67 133 18
3 134 133 67
3 134 32 133
3 134 132 32
3 135 132 134
3 135 7 132
3 135 106 7
3 136 106 135
3 136 19 106
3 69 136 33
3 137 136 69
3 137 19 136
3 137 52 19
3 138 52 137
3 138 2 52
3 367 105 368
3 369 105 370
3 371 8 372
3 373 372 105
3 371 372 373
3 374 8 375
3 376 70 377
3 378 377 8
3 376 377 378
3 379 70 380
3 381 34 382
3 383 382 70
3 381 382 383
3 384 34 385
3 386 138 387
3 388 387 34
3 386 387 388
3 139 389 391
3 389 138 390
3 389 390 391
3 139 2 138
3 139 392 394
3 394 393 2
3 392 393 394
3 396 395 139
3 397 9 398
3 140 399 400
3 140 401 403
3 401 9 402
3 401 402 403
3 140 74 9
3 141 74 140
3 141 36 74
3 72 141 35
3 142 141 72
3 142 36 141
3 142 143 36
3 128 143 142
3 128 0 143
3 144 404 405
3 144 406 408
3 406 12 407
3 406 407 408
3 409 144 410
3 145 411 413
3 411 144 412
3 411 412 413
3 145 12 144
3 145 44 12
3 143 44 145
3 143 0 44
3 129 46 0
3 146 46 129
3 146 14 46
3 76 146 31
3 147 146 76
3 147 14 146
3 147 96 14
3 148 96 147
3 148 3 96
3 107 77 7
3 149 77 107
3 149 37 77
3 79 149 20
3 150 149 79
3 150 37 149
3 150 148 37
3 151 148 150
3 151 3 148
3 151 62 3
3 152 62 151
3 152 28 62
3 81 152 38
3 153 152 81
3 153 28 152
3 153 122 28
3 154 122 153
3 154 1 122
3 123 54 2
3 155 54 123
3 155 21 54
3 84 155 29
3 156 155 84
3 156 21 155
3 156 110 21
3 157 110 156
3 157 10 110
3 112 85 4
3 158 85 112
3 158 40 85
3 87 158 23
3 159 158 87
3 159 40 158
3 159 157 40
3 160 157 159
3 160 10 157
3 160 82 10
3 161 82 160
3 161 39 82
3 89 161 41
3 162 161 89
3 162 39 161
3 162 154 39
3 163 154 162
3 163 1 154
3 163 51 1
3 164 51 163
3 164 17 51
3 91 164 42
3 165 164 91
3 165 17 164
3 165 102 17
3 166 102 165
3 166 5 102
3 116 92 11
3 167 92 116
3 167 43 92
3 414 167 415
3 416 415 25
3 414 415 416
3 417 167 418
3 419 43 420
3 421 420 167
3 419 420 421
3 422 166 423
3 424 423 43
3 422 423 424
3 425 166 426
3 427 5 428
3 429 428 166
3 427 428 429
3 431 430 5
3 432 26 433
3 434 26 435
3 437 436 26
