ply
format ascii 1.0
element vertex 223
property float x
property float y
property float z
element face 212
property list uchar int vertex_index
end_header
6.655773 38.4352 -33.075203
12.213037 23.880409 -29.976263
1.994446 62.044792 -34.136856
5.803764 33.672356 -31.806059
8.688526 25.002655 -29.800325
8.796366 31.982243 -31.630175
3.086376 69.406929 -32.155785
4.368822 57.214745 -35.105469
6.518005 44.444134 -34.396523
9.027424 38.302338 -33.35778
1.479836 53.990257 -34.787498
3.940144 49.594948 -34.981316
4.307619 41.744358 -33.690582
11.956772 30.949566 -31.949911
15.703634 23.198959 -30.574759
6.233368 36.456371 -32.526421
7.29686 32.700203 -31.635664
7.534086 35.618519 -32.440895
10.456635 24.381584 -29.81143
10.628805 20.576302 -28.91482
12.501053 20.123444 -29.038218
14.334654 19.782803 -29.311563
6.664667 47.884926 -34.875374
2.471519 65.819588 -33.301941
1.659374 58.098274 -34.636177
5.67098 54.396614 -35.174988
4.065756 53.448029 -35.216072
5.365828 50.768097 -35.127563
5.240414 47.108398 -34.752869
3.489079 39.262829 -33.09684
2.972023 43.566246 -33.971123
10.402294 34.736195 -32.682198
5.441093 30.348251 -31.010496
6.917891 25.751896 -29.941626
7.075672 29.403954 -30.789343
8.715685 28.623184 -30.70503
10.36167 27.99696 -30.778658
4.209927 67.078972 -33.159874
3.59141 63.507164 -34.135635
3.123047 59.775795 -34.781418
4.837427 60.873352 -34.634338
6.528809 41.16338 -33.729805
7.677013 38.461861 -33.210693
7.762884 41.540043 -33.933533
2.809877 55.901299 -35.076431
2.665207 51.897682 -35.019661
2.709816 47.780502 -34.634789
4.01066 45.683868 -34.448151
5.306242 43.476582 -34.126823
5.592566 39.955971 -33.357826
4.30208 34.860321 -32.086075
4.886131 37.766064 -32.78933
8.901052 35.158146 -32.532127
10.341623 31.429508 -31.760435
12.026258 27.486858 -30.973623
13.722416 27.067181 -31.221453
13.959747 23.487309 -30.252279
16.125835 19.5541 -29.687994
7.47237 48.009025 -34.83482
6.823546 49.62183 -34.96484
1.519521 63.020378 -33.627994
1.758058 64.907776 -33.210537
2.232982 63.93219 -33.719398
1.33614 61.029335 -33.98449
1.519521 63.020378 -33.627994
1.82691 60.071533 -34.386516
1.168604 59.056076 -34.23415
1.33614 61.029335 -33.98449
6.174127 51.063415 -35.090935
5.518404 52.582355 -35.151275
6.326703 52.877674 -35.114647
6.823546 49.62183 -34.96484
6.015247 49.326511 -35.001469
6.174127 51.063415 -35.090935
2.325536 44.447872 -34.031052
2.544742 42.183809 -33.646977
4.838028 65.741733 -33.487781
5.233222 67.432144 -32.921677
4.52877 63.95583 -33.975662
3.900669 65.293068 -33.647755
4.838028 65.741733 -33.487781
5.151778 62.638923 -34.225014
4.214418 62.190258 -34.384986
4.52877 63.95583 -33.975662
8.710575 23.073025 -29.377405
7.825257 23.447645 -29.448055
7.803209 25.377275 -29.870976
10.753256 18.598499 -28.520399
11.753433 18.40898 -28.564392
2.619967 70.385044 -31.460109
3.465331 71.093872 -31.442495
0.932126 52.744907 -34.514057
0.965199 54.918373 -34.497929
1.478527 51.860211 -34.691925
0.932126 52.744907 -34.514057
3.564319 35.509687 -32.223762
4.069548 33.140414 -31.686183
14.713025 25.13307 -30.898106
14.591055 26.90229 -31.33547
15.581663 24.968179 -31.012124
12.689557 18.18255 -28.626091
11.753433 18.40898 -28.564392
11.564929 20.349873 -28.976519
13.661696 18.04938 -28.755867
12.689557 18.18255 -28.626091
14.578496 17.879059 -28.892539
13.661696 18.04938 -28.755867
13.417853 19.953124 -29.174891
15.51344 17.80332 -29.095735
14.578496 17.879059 -28.892539
7.305103 46.343031 -34.688416
7.231771 44.622635 -34.44899
6.591336 46.16453 -34.635948
7.305103 46.343031 -34.688416
7.47237 48.009025 -34.83482
2.004522 66.801968 -32.695076
2.311951 68.595639 -32.121998
2.778948 67.613259 -32.728863
2.004522 66.801968 -32.695076
1.758058 64.907776 -33.210537
1.054968 56.972381 -34.422268
1.168604 59.056076 -34.23415
1.569605 56.044266 -34.711838
0.965199 54.918373 -34.497929
1.054968 56.972381 -34.422268
2.80327 40.032101 -33.209835
3.157819 37.710942 -32.729145
3.230551 41.414538 -33.533981
2.80327 40.032101 -33.209835
2.544742 42.183809 -33.646977
10.486113 36.360354 -33.066944
9.714859 36.519267 -33.019989
9.798678 38.143425 -33.404736
11.215326 34.517817 -32.743351
10.486113 36.360354 -33.066944
11.992565 32.624502 -32.377207
11.179533 32.84288 -32.316054
11.215326 34.517817 -32.743351
16.57722 23.109577 -30.726986
15.581663 24.968179 -31.012124
16.79028 21.319797 -30.340723
16.57722 23.109577 -30.726986
6.179492 28.050073 -30.476061
6.044446 26.186516 -30.060727
5.306047 28.484693 -30.595161
4.03412 69.937035 -32.021693
3.465331 71.093872 -31.442495
4.595895 68.773056 -32.523738
5.233222 67.432144 -32.921677
3.648151 68.242951 -32.65783
4.03412 69.937035 -32.021693
4.595895 68.773056 -32.523738
5.815637 61.14949 -34.407474
5.151778 62.638923 -34.225014
5.492934 59.415466 -34.746631
5.815637 61.14949 -34.407474
5.258631 57.586163 -34.982197
4.603124 59.044049 -34.869903
5.492934 59.415466 -34.746631
5.909711 56.177098 -35.016956
5.019901 55.805679 -35.140228
5.258631 57.586163 -34.982197
6.572894 54.601895 -35.024189
5.909711 56.177098 -35.016956
6.326703 52.877674 -35.114647
6.572894 54.601895 -35.024189
6.879635 23.787514 -29.532528
6.044446 26.186516 -30.060727
6.879635 23.787514 -29.532528
7.825257 23.447645 -29.448055
9.680715 20.859848 -28.934652
8.710575 23.073025 -29.377405
9.658665 22.789479 -29.357572
9.680715 20.859848 -28.934652
10.753256 18.598499 -28.520399
7.854211 43.170589 -34.217495
7.140444 42.992088 -34.165028
7.231771 44.622635 -34.44899
8.496188 41.520331 -33.978623
7.854211 43.170589 -34.217495
9.128458 39.901478 -33.690746
8.395154 39.92119 -33.645657
8.496188 41.520331 -33.978623
9.798678 38.143425 -33.404736
9.128458 39.901478 -33.690746
2.619967 70.385044 -31.460109
2.311951 68.595639 -32.121998
2.071213 50.813923 -34.808007
1.478527 51.860211 -34.691925
2.072522 52.94397 -34.903579
2.093517 48.755333 -34.615571
2.071213 50.813923 -34.808007
2.687512 49.839092 -34.827225
2.194433 46.555 -34.362885
2.093517 48.755333 -34.615571
2.84092 45.673374 -34.302956
2.325536 44.447872 -34.031052
2.194433 46.555 -34.362885
4.639054 30.884379 -31.148393
5.306047 28.484693 -30.595161
4.871587 32.604286 -31.548285
4.639054 30.884379 -31.148393
4.069548 33.140414 -31.686183
3.89558 37.061575 -32.591458
3.564319 35.509687 -32.223762
3.157819 37.710942 -32.729145
12.803835 30.736258 -32.034072
11.992565 32.624502 -32.377207
13.686657 28.795065 -31.669843
14.591055 26.90229 -31.33547
12.839594 29.008374 -31.585682
12.803835 30.736258 -32.034072
13.686657 28.795065 -31.669843
16.409031 17.688968 -29.283951
15.51344 17.80332 -29.095735
15.230244 19.668451 -29.499778
17.00138 19.497368 -29.897341
15.914734 21.376529 -30.131377
16.79028 21.319797 -30.340723
17.303113 17.672495 -29.535652
17.00138 19.497368 -29.897341
16.409031 17.688968 -29.283951
17.303113 17.672495 -29.535652
3 0 17 15
3 1 20 18
3 1 21 20
3 59 58 22
3 2 60 62
3 62 61 23
3 60 61 62
3 2 63 64
3 2 65 67
3 65 24 66
3 65 66 67
3 68 27 69
3 70 69 25
3 68 69 70
3 71 22 72
3 73 72 27
3 71 72 73
3 74 30 75
3 3 34 32
3 5 35 16
3 5 36 35
3 76 37 77
3 78 38 79
3 80 79 37
3 78 79 80
3 81 40 82
3 83 82 38
3 81 82 83
3 4 84 86
3 86 85 33
3 84 85 86
3 88 87 19
3 8 43 41
3 6 89 90
3 10 91 92
3 10 93 94
3 7 44 39
3 11 45 26
3 11 46 45
3 11 47 46
3 8 48 28
3 8 41 48
3 95 50 96
3 12 51 29
3 12 49 51
3 9 52 42
3 13 53 31
3 13 54 53
3 14 97 99
3 97 55 98
3 97 98 99
3 14 56 55
3 14 57 56
3 15 16 3
3 17 16 15
3 17 5 16
3 18 19 4
3 20 19 18
3 20 100 102
3 102 101 19
3 100 101 102
3 20 103 104
3 21 105 107
3 107 106 20
3 105 106 107
3 21 108 109
3 22 110 112
3 112 111 8
3 110 111 112
3 114 113 22
3 23 115 117
3 117 116 6
3 115 116 117
3 119 118 23
3 24 120 121
3 24 122 124
3 122 10 123
3 122 123 124
3 25 26 7
3 27 26 25
3 27 11 26
3 27 28 11
3 22 28 27
3 22 8 28
3 125 29 126
3 30 127 129
3 127 29 128
3 127 128 129
3 30 12 29
3 130 31 131
3 132 131 9
3 130 131 132
3 133 31 134
3 135 13 136
3 137 136 31
3 135 136 137
3 138 14 139
3 141 140 14
3 32 142 144
3 142 33 143
3 142 143 144
3 34 33 32
3 34 4 33
3 16 34 3
3 35 34 16
3 35 4 34
3 35 18 4
3 36 18 35
3 36 1 18
3 145 6 146
3 37 147 148
3 37 149 151
3 149 6 150
3 149 150 151
3 37 23 6
3 38 23 37
3 38 2 23
3 38 39 2
3 40 39 38
3 40 7 39
3 152 40 153
3 154 40 155
3 156 7 157
3 158 157 40
3 156 157 158
3 159 25 160
3 161 160 7
3 159 160 161
3 162 25 163
3 165 164 25
3 33 166 167
3 169 168 33
3 19 170 172
3 172 171 4
3 170 171 172
3 174 173 19
3 41 42 0
3 43 42 41
3 43 9 42
3 175 43 176
3 177 176 8
3 175 176 177
3 178 43 179
3 180 9 181
3 182 181 43
3 180 181 182
3 184 183 9
3 186 185 6
3 39 24 2
3 44 24 39
3 44 10 24
3 26 44 7
3 45 44 26
3 45 10 44
3 45 187 189
3 189 188 10
3 187 188 189
3 46 190 192
3 192 191 45
3 190 191 192
3 46 193 194
3 46 195 197
3 195 30 196
3 195 196 197
3 47 30 46
3 47 12 30
3 28 47 11
3 48 47 28
3 48 12 47
3 48 49 12
3 41 49 48
3 41 0 49
3 198 32 199
3 50 200 202
3 200 32 201
3 200 201 202
3 50 3 32
3 29 203 205
3 203 50 204
3 203 204 205
3 51 50 29
3 51 3 50
3 51 15 3
3 49 15 51
3 49 0 15
3 42 17 0
3 52 17 42
3 52 5 17
3 31 52 9
3 53 52 31
3 53 5 52
3 53 36 5
3 54 36 53
3 54 1 36
3 206 13 207
3 55 208 209
3 55 210 212
3 210 13 211
3 210 211 212
3 55 54 13
3 56 54 55
3 56 1 54
3 56 21 1
3 57 21 56
3 57 213 215
3 215 214 21
3 213 214 215
3 216 57 217
3 218 217 14
3 216 217 218
3 219 57 220
3 222 221 57
