ply
format ascii 1.0
element vertex 337
property float x
property float y
property float z
element face 363
property list uchar int vertex_index
end_header
0.559498 -64.855553 59.418449
1.605129 -65.431305 43.021854
1.291449 -65.454193 51.818237
0.351564 -65.286514 34.206993
2.43351 -55.536182 49.045998
0.710146 -54.153938 41.44487
0.83881 -65.193024 56.020798
1.065456 -70.693649 44.586395
1.069101 -70.704773 40.058567
0.901463 -70.602036 35.560913
1.105976 -65.343613 38.605598
2.780312 -56.327709 52.910805
-0.258049 -42.499619 44.505756
0.864542 -48.899479 44.773994
-0.563812 -47.978203 41.290283
-0.562733 -53.739021 37.50243
-1.826376 -47.261848 37.56789
0.780293 -70.456978 49.133568
1.635015 -65.511635 47.439072
0.866407 -70.368996 31.091217
-0.234661 -65.1567 29.825073
1.86994 -61.014416 54.442841
2.097246 -60.671848 50.301239
2.057783 -60.28117 46.145302
2.214148 -49.998665 48.076569
1.763109 -54.773075 45.271736
1.539738 -59.928661 41.972672
0.551226 -59.715103 37.770844
-0.571917 -59.607494 33.544205
0.258905 -66.52095 58.818459
0.371382 -67.027969 56.917458
0.66008 -65.014351 57.917381
1.381931 -68.094353 43.744251
1.10146 -70.717773 42.319103
1.308193 -68.080978 41.499123
1.142544 -68.056152 39.259056
1.408503 -65.382401 40.812157
-1.084064 -41.8358 42.935249
-0.483883 -45.204323 42.990906
-1.211306 -44.682259 41.275887
-1.230803 -47.597294 39.454338
-1.850447 -44.210556 39.484344
0.805676 -67.699623 52.687187
1.038504 -67.901352 50.473732
1.231676 -68.023926 48.23716
1.495039 -65.507622 49.637848
0.6688 -67.984299 34.800285
0.845942 -70.507019 33.323357
0.457764 -67.920105 32.581299
0.329735 -67.816513 30.36734
0.011366 -65.240448 32.014336
1.722212 -61.19183 56.479729
2.640295 -55.933388 50.957695
2.374331 -58.441238 51.647064
2.335947 -58.148857 49.639862
2.126289 -60.479797 48.224014
2.220098 -57.852695 47.646271
1.937712 -47.042244 47.70092
0.754642 -51.482346 43.180992
1.368303 -51.890877 44.983131
1.280935 -54.438755 43.371338
1.665802 -57.303024 43.659531
1.209507 -57.081276 41.649094
1.089912 -59.80262 39.875385
0.654497 -56.907532 39.62159
-1.171545 -53.587521 35.4944
-0.570852 -56.682137 35.518272
-1.132753 -56.596161 33.449081
-1.042896 -59.544888 31.425478
0.569815 -67.410713 54.850655
1.060658 -65.346802 53.959564
0.732916 -73.21907 45.537964
0.864132 -73.285675 43.257751
0.954575 -73.286148 40.98719
0.990427 -70.665665 37.805733
0.914427 -68.025436 37.025925
0.735804 -65.315048 36.403809
2.784832 -53.317913 50.317627
0.646948 -43.203247 45.981155
1.124189 -46.392914 46.182236
0.305708 -45.776592 44.622566
0.145985 -48.412209 43.063721
0.097054 -51.127342 41.335686
0.080685 -53.922729 39.487957
-0.569462 -50.82716 39.444046
-1.204348 -50.573975 37.511948
-1.773535 -50.352478 35.550812
0.557554 -73.064301 47.829025
0.955332 -70.613937 46.858925
1.353655 -68.081833 45.991615
1.679028 -65.480057 45.231987
0.319569 -67.658607 28.157169
-0.354374 -65.017578 27.6397
1.157568 -63.213203 57.20192
1.349958 -63.178585 55.217743
1.551622 -63.154194 53.144279
2.358658 -58.72739 53.673622
2.002071 -60.848633 52.376785
1.737194 -63.108349 51.026649
1.873943 -63.031616 48.888535
1.926817 -62.929344 46.740578
1.865068 -62.816128 44.586891
2.388102 -52.82423 48.524216
1.561493 -49.432636 46.435303
1.915789 -52.343212 46.756168
2.145647 -55.144405 47.157455
2.002384 -57.565151 45.656197
1.865965 -60.0919 44.062344
1.670429 -62.709644 42.429367
1.344601 -62.62421 40.269661
0.913118 -62.565651 38.109352
0.423016 -62.528881 35.949425
0.042803 -56.778934 37.577137
-0.022881 -59.656349 35.66
-0.066032 -62.498783 33.790054
-0.494862 -62.453979 31.631279
-0.818026 -62.371841 29.473999
0.409201 -65.688252 59.118454
0.285415 -66.115478 59.685638
0.435712 -65.28278 59.985634
-1.506197 -42.950283 41.269827
-1.147685 -43.259029 42.105568
-1.442576 -41.527054 42.099508
-1.825767 -42.714432 40.374055
-1.530876 -44.446407 40.380116
-1.506197 -42.950283 41.269827
1.764055 -45.489491 47.54608
2.232293 -45.865155 48.243782
-1.420044 -55.021578 33.460556
-1.152149 -55.091841 34.47174
-1.43944 -53.517258 34.483216
-1.368545 -56.546479 32.411789
-1.420044 -55.021578 33.460556
1.044868 -71.970852 39.391702
0.987604 -73.261539 39.856014
1.011838 -71.995461 40.522878
1.029764 -70.685219 38.93215
1.00553 -71.951298 38.265285
1.044868 -71.970852 39.391702
3.054417 -52.243545 50.88874
2.946253 -53.564974 51.242283
0.563432 -71.627598 49.63179
0.670759 -70.329762 50.26831
0.668924 -71.760639 48.481296
0.452063 -72.93126 48.979519
0.563432 -71.627598 49.63179
1.050161 -71.807491 34.890407
0.995917 -71.874039 36.015213
1.123717 -71.600232 31.532644
1.113484 -71.669243 32.648714
0.856175 -70.438007 32.207287
1.26516 -71.481769 30.41026
1.123717 -71.600232 31.532644
0.930856 -70.272869 29.976702
1.26516 -71.481769 30.41026
1.362888 -62.321208 57.829476
1.071223 -63.273678 58.113167
2.569485 -57.527549 53.292214
2.610806 -57.72434 54.295006
2.821633 -56.5245 53.913597
2.51019 -50.290413 48.906906
2.464221 -48.854742 48.650856
2.301125 -51.411448 48.300393
2.597167 -51.703195 49.13073
2.51019 -50.290413 48.906906
-1.110294 -60.908372 29.390446
-0.930461 -60.958365 30.449738
-1.22273 -59.494896 30.366186
-0.915251 -62.302444 28.397348
-1.110294 -60.908372 29.390446
0.315144 -66.77446 57.867959
0.168101 -67.863365 57.44949
0.111863 -67.609856 58.399991
0.093494 -67.190967 59.415768
0.285415 -66.115478 59.685638
0.111863 -67.609856 58.399991
0.093494 -67.190967 59.415768
0.683451 -68.951084 52.04512
0.566527 -68.767189 53.169765
0.799865 -69.051949 50.938392
0.683451 -68.951084 52.04512
0.92209 -67.800488 51.58046
0.909398 -69.179165 49.80365
0.670759 -70.329762 50.26831
0.799865 -69.051949 50.938392
1.972328 -60.267622 57.122261
1.645211 -61.310522 57.46838
2.013912 -60.105328 56.098286
1.972328 -60.267622 57.122261
2.087776 -60.016621 55.079842
1.796076 -61.103123 55.461285
2.013912 -60.105328 56.098286
2.326003 -47.376531 48.463031
2.232293 -45.865155 48.243782
2.07593 -48.520454 47.888745
2.464221 -48.854742 48.650856
2.326003 -47.376531 48.463031
-1.323617 -58.020842 31.399988
-1.087824 -58.070525 32.43728
-1.368545 -56.546479 32.411789
-1.22273 -59.494896 30.366186
-1.323617 -58.020842 31.399988
0.242931 -68.184162 56.386738
0.168101 -67.863365 57.44949
0.342148 -68.375534 55.353336
0.242931 -68.184162 56.386738
0.470598 -67.219341 55.884056
0.448597 -68.622734 54.2515
0.342148 -68.375534 55.353336
0.687745 -67.555168 53.768921
0.566527 -68.767189 53.169765
0.448597 -68.622734 54.2515
0.703172 -74.496418 44.919872
0.595661 -74.437953 46.064446
0.76878 -74.52972 43.779766
0.703172 -74.496418 44.919872
0.798524 -73.252373 44.397858
0.869166 -74.539551 42.642454
0.76878 -74.52972 43.779766
0.914387 -74.539787 41.507174
0.869166 -74.539551 42.642454
0.909353 -73.285911 42.12247
1.013667 -74.511741 40.374557
0.914387 -74.539787 41.507174
1.013667 -74.511741 40.374557
0.987604 -73.261539 39.856014
1.040399 -71.905854 37.137623
1.00553 -71.951298 38.265285
0.945945 -70.63385 36.683323
0.995917 -71.874039 36.015213
1.040399 -71.905854 37.137623
3.067935 -55.314729 53.503487
2.821633 -56.5245 53.913597
2.943993 -55.069872 52.538872
3.067935 -55.314729 53.503487
2.873984 -54.872712 51.562317
2.710304 -56.130549 51.93425
2.943993 -55.069872 52.538872
2.712563 -54.62565 50.637661
2.873984 -54.872712 51.562317
2.946253 -53.564974 51.242283
0.885568 -44.79808 46.081696
1.357294 -45.164825 46.786738
1.118673 -43.569992 46.686197
-1.740435 -51.899737 34.511421
-1.43944 -53.517258 34.483216
-1.47254 -51.97 35.522606
0.392418 -74.241112 48.364208
0.452063 -72.93126 48.979519
0.50798 -74.360569 47.209976
0.392418 -74.241112 48.364208
0.645235 -73.141685 46.683495
0.595661 -74.437953 46.064446
0.50798 -74.360569 47.209976
0.925072 -41.934328 46.560283
1.118673 -43.569992 46.686197
0.406828 -41.524185 45.898769
0.925072 -41.934328 46.560283
-0.04567 -41.172371 45.161069
0.194449 -42.851433 45.243455
0.406828 -41.524185 45.898769
-0.523451 -40.774659 44.454603
-0.04567 -41.172371 45.161069
-0.936458 -40.442749 43.669349
-0.671056 -42.16771 43.720502
-0.523451 -40.774659 44.454603
-1.352927 -40.062596 42.905214
-0.936458 -40.442749 43.669349
-1.442576 -41.527054 42.099508
-1.352927 -40.062596 42.905214
1.0224 -71.759983 33.77163
1.050161 -71.807491 34.890407
0.873703 -70.554528 34.442135
1.0224 -71.759983 33.77163
1.113484 -71.669243 32.648714
0.662521 -68.996628 29.614763
0.930856 -70.272869 29.976702
0.598071 -69.092754 30.729278
0.657438 -68.917675 28.509678
0.662521 -68.996628 29.614763
0.324652 -67.73756 29.262254
0.78423 -68.791344 27.395853
0.657438 -68.917675 28.509678
0.381165 -67.547852 27.054093
0.78423 -68.791344 27.395853
0.044193 -66.227337 26.795358
0.381165 -67.547852 27.054093
-0.017403 -66.338093 27.898435
-0.346168 -64.914451 26.550164
0.044193 -66.227337 26.795358
0.772188 -64.094853 59.221432
0.67691 -64.308373 60.041142
0.67691 -64.308373 60.041142
0.435712 -65.28278 59.985634
0.82248 -64.174251 58.470897
0.609789 -64.934952 58.667915
0.772188 -64.094853 59.221432
0.908824 -64.113777 57.559651
0.82248 -64.174251 58.470897
1.071223 -63.273678 58.113167
1.43989 -62.202517 56.840824
1.362888 -62.321208 57.829476
1.645211 -61.310522 57.46838
2.332136 -58.873108 54.695233
2.610806 -57.72434 54.295006
2.114299 -59.870903 54.058232
2.087776 -60.016621 55.079842
2.332136 -58.873108 54.695233
2.795532 -51.950037 50.027435
3.054417 -52.243545 50.88874
2.586467 -53.071072 49.420922
2.795532 -51.950037 50.027435
2.597167 -51.703195 49.13073
1.530951 -46.717579 46.941578
1.764055 -45.489491 47.54608
1.357294 -45.164825 46.786738
-0.683425 -63.625312 27.480199
-0.5862 -63.69471 28.556849
-0.915251 -62.302444 28.397348
-0.346168 -64.914451 26.550164
-0.683425 -63.625312 27.480199
-2.123867 -42.429918 39.495029
-1.825767 -42.714432 40.374055
-2.120953 -43.997045 38.559888
-2.123867 -42.429918 39.495029
-2.108918 -45.522692 37.601661
-1.838411 -45.736202 38.526117
-2.120953 -43.997045 38.559888
-2.082262 -47.110098 36.608153
-2.108918 -45.522692 37.601661
-2.055842 -48.655412 35.599614
-1.799956 -48.807163 36.559351
-2.082262 -47.110098 36.608153
-2.017378 -50.247704 34.562077
-2.055842 -48.655412 35.599614
-1.740435 -51.899737 34.511421
-2.017378 -50.247704 34.562077
3 0 31 29
3 0 117 119
3 117 29 118
3 117 118 119
3 1 34 32
3 1 36 34
3 120 39 121
3 122 121 37
3 120 121 122
3 123 41 124
3 125 124 39
3 123 124 125
3 2 43 42
3 2 45 43
3 3 48 46
3 3 50 48
3 4 54 52
3 4 56 54
3 126 57 127
3 5 60 58
3 5 62 60
3 5 64 62
3 128 67 129
3 130 129 65
3 128 129 130
3 132 131 67
3 6 69 30
3 6 70 69
3 7 72 71
3 8 73 33
3 8 133 135
3 135 134 73
3 133 134 135
3 8 136 138
3 136 74 137
3 136 137 138
3 10 75 35
3 10 76 75
3 139 77 140
3 12 80 78
3 14 81 38
3 14 82 81
3 14 84 82
3 16 85 40
3 16 86 85
3 17 141 142
3 17 143 145
3 143 87 144
3 143 144 145
3 17 88 87
3 18 89 44
3 18 90 89
3 9 146 147
3 19 148 150
3 150 149 47
3 148 149 150
3 19 151 152
3 19 153 154
3 20 91 49
3 20 92 91
3 155 93 156
3 21 94 51
3 21 95 94
3 11 157 159
3 157 96 158
3 157 158 159
3 22 97 53
3 22 98 97
3 22 99 98
3 23 100 55
3 23 101 100
3 24 160 161
3 24 162 164
3 162 102 163
3 162 163 164
3 13 103 79
3 25 104 59
3 25 105 104
3 25 106 105
3 26 107 61
3 26 108 107
3 26 109 108
3 27 110 63
3 27 111 110
3 15 112 83
3 28 113 66
3 28 114 113
3 28 115 114
3 165 116 166
3 167 166 68
3 165 166 167
3 169 168 116
3 29 170 172
3 170 30 171
3 170 171 172
3 31 30 29
3 31 6 30
3 29 173 174
3 29 175 176
3 32 33 7
3 34 33 32
3 34 8 33
3 34 35 8
3 36 35 34
3 36 10 35
3 37 38 12
3 39 38 37
3 39 14 38
3 39 40 14
3 41 40 39
3 41 16 40
3 42 177 178
3 43 179 181
3 181 180 42
3 179 180 181
3 43 182 184
3 182 17 183
3 182 183 184
3 43 44 17
3 45 44 43
3 45 18 44
3 46 47 9
3 48 47 46
3 48 19 47
3 48 49 19
3 50 49 48
3 50 20 49
3 185 51 186
3 187 51 188
3 189 21 190
3 191 190 51
3 189 190 191
3 52 53 11
3 54 53 52
3 54 22 53
3 54 55 22
3 56 55 54
3 56 23 55
3 57 192 193
3 57 194 196
3 194 24 195
3 194 195 196
3 58 59 13
3 60 59 58
3 60 25 59
3 60 61 25
3 62 61 60
3 62 26 61
3 62 63 26
3 64 63 62
3 64 27 63
3 65 66 15
3 67 66 65
3 67 28 66
3 67 68 28
3 197 68 198
3 199 198 67
3 197 198 199
3 201 200 68
3 30 202 203
3 69 204 206
3 206 205 30
3 204 205 206
3 69 207 208
3 69 209 211
3 209 42 210
3 209 210 211
3 70 42 69
3 70 2 42
3 71 212 213
3 72 214 216
3 216 215 71
3 214 215 216
3 72 217 218
3 33 72 7
3 73 72 33
3 73 219 221
3 221 220 72
3 219 220 221
3 73 222 223
3 225 224 73
3 74 226 227
3 74 228 230
3 228 9 229
3 228 229 230
3 35 74 8
3 75 74 35
3 75 9 74
3 75 46 9
3 76 46 75
3 76 3 46
3 231 11 232
3 233 11 234
3 235 52 236
3 237 236 11
3 235 236 237
3 77 238 240
3 238 52 239
3 238 239 240
3 77 4 52
3 78 241 243
3 241 79 242
3 241 242 243
3 80 79 78
3 80 13 79
3 38 80 12
3 81 80 38
3 81 13 80
3 81 58 13
3 82 58 81
3 82 5 58
3 82 83 5
3 84 83 82
3 84 15 83
3 40 84 14
3 85 84 40
3 85 15 84
3 85 65 15
3 86 65 85
3 86 244 246
3 246 245 65
3 244 245 246
3 87 247 248
3 87 249 250
3 87 251 253
3 251 71 252
3 251 252 253
3 88 71 87
3 88 7 71
3 44 88 17
3 89 88 44
3 89 7 88
3 89 32 7
3 90 32 89
3 90 1 32
3 254 78 255
3 256 78 257
3 258 12 259
3 260 259 78
3 258 259 260
3 261 12 262
3 263 37 264
3 265 264 12
3 263 264 265
3 266 37 267
3 269 268 37
3 47 270 272
3 272 271 9
3 270 271 272
3 274 273 47
3 49 275 277
3 277 276 19
3 275 276 277
3 91 278 280
3 280 279 49
3 278 279 280
3 91 281 282
3 91 283 284
3 92 285 287
3 287 286 91
3 285 286 287
3 92 288 289
3 291 290 0
3 292 0 293
3 294 31 295
3 296 295 0
3 294 295 296
3 93 297 299
3 297 31 298
3 297 298 299
3 93 6 31
3 51 300 302
3 300 93 301
3 300 301 302
3 94 93 51
3 94 6 93
3 94 70 6
3 95 70 94
3 95 2 70
3 96 303 304
3 96 305 307
3 305 21 306
3 305 306 307
3 53 96 11
3 97 96 53
3 97 21 96
3 97 95 21
3 98 95 97
3 98 2 95
3 98 45 2
3 99 45 98
3 99 18 45
3 55 99 22
3 100 99 55
3 100 18 99
3 100 90 18
3 101 90 100
3 101 1 90
3 308 77 309
3 102 310 312
3 310 77 311
3 310 311 312
3 102 4 77
3 79 313 315
3 313 57 314
3 313 314 315
3 103 57 79
3 103 24 57
3 59 103 13
3 104 103 59
3 104 24 103
3 104 102 24
3 105 102 104
3 105 4 102
3 105 56 4
3 106 56 105
3 106 23 56
3 61 106 25
3 107 106 61
3 107 23 106
3 107 101 23
3 108 101 107
3 108 1 101
3 108 36 1
3 109 36 108
3 109 10 36
3 63 109 26
3 110 109 63
3 110 10 109
3 110 76 10
3 111 76 110
3 111 3 76
3 83 64 5
3 112 64 83
3 112 27 64
3 66 112 15
3 113 112 66
3 113 27 112
3 113 111 27
3 114 111 113
3 114 3 111
3 114 50 3
3 115 50 114
3 115 20 50
3 68 115 28
3 116 115 68
3 116 20 115
3 116 92 20
3 316 92 317
3 318 317 116
3 316 317 318
3 320 319 92
3 321 41 322
3 323 41 324
3 325 16 326
3 327 326 41
3 325 326 327
3 328 16 329
3 330 86 331
3 332 331 16
3 330 331 332
3 333 86 334
3 336 335 86
