ply
format ascii 1.0
element vertex 242
property float x
property float y
property float z
element face 189
property list uchar int vertex_index
end_header
64.633827 -54.137817 35.451302
53.136375 -47.339306 49.172897
63.243729 -54.38596 40.59687
56.359097 -56.809155 47.093742
59.282738 -57.588833 45.033058
62.997566 -56.770466 31.486479
50.540039 -50.714321 48.096802
52.57843 -55.628113 47.778496
63.343346 -55.432106 26.163612
64.002495 -54.32518 38.110786
64.320404 -52.651073 40.17709
65.117126 -52.608929 37.57122
65.166565 -53.821903 32.699394
57.939358 -57.256672 46.258018
47.4314 -47.436985 48.368492
49.622627 -48.219101 48.426735
48.323853 -49.935974 47.99493
63.190163 -56.163696 28.813499
55.587341 -54.539768 47.636177
57.350712 -55.091084 47.091251
58.902405 -55.53619 46.166252
62.925789 -56.059292 38.651222
63.48484 -55.857666 36.092381
63.931145 -55.523312 33.418182
50.997894 -46.533371 49.004936
51.80278 -49.015877 48.572968
52.700104 -51.477966 48.194611
44.872944 -50.963184 47.868542
47.106323 -51.687908 47.76516
51.54512 -53.191395 47.888283
53.639587 -53.899273 47.869019
54.561626 -56.260479 47.576782
64.295769 -55.057106 30.696362
64.601471 -54.459419 27.977226
64.860954 -53.730755 25.293322
65.216183 -53.29231 35.135722
65.457832 -52.527867 36.19568
64.875476 -53.373373 36.511261
64.900196 -53.97986 34.075348
65.482551 -53.134354 33.759767
65.216183 -53.29231 35.135722
46.768119 -48.309553 48.191913
46.356062 -47.075613 48.443302
47.214346 -49.559048 48.005133
47.877626 -48.68648 48.181711
46.768119 -48.309553 48.191913
53.834941 -46.504855 49.487728
52.788288 -46.103436 49.409435
63.312923 -53.481466 41.572174
62.785054 -54.353323 41.709164
64.396389 -51.745767 41.206869
64.864414 -51.794405 39.954735
59.755425 -56.725588 44.932352
59.565258 -55.699267 45.498949
59.092572 -56.562511 45.599655
62.659588 -56.825648 37.696754
62.41766 -56.928955 38.927967
62.939113 -56.724835 36.417334
63.205315 -55.958479 37.371802
62.659588 -56.825648 37.696754
63.113891 -56.552851 35.119631
62.939113 -56.724835 36.417334
49.921043 -46.131218 48.944405
50.664162 -45.292372 49.247376
44.305523 -51.866686 47.904699
43.792251 -50.636375 48.047525
47.667446 -52.945751 47.757702
46.537926 -52.579059 47.76204
48.228065 -52.065603 47.78854
47.667446 -52.945751 47.757702
52.061775 -54.409754 47.833389
50.997949 -54.062502 47.842944
51.514604 -55.280861 47.78805
54.174057 -47.723448 49.209667
53.529221 -48.563368 48.923133
65.262775 -51.773333 38.6518
64.864414 -51.794405 39.954735
64.718765 -52.630001 38.874155
65.663616 -51.768481 37.298206
65.262775 -51.773333 38.6518
65.663616 -51.768481 37.298206
65.457832 -52.527867 36.19568
65.776787 -52.989906 32.350865
65.482551 -53.134354 33.759767
65.394913 -53.597911 31.309819
65.776787 -52.989906 32.350865
57.471007 -58.121537 46.3759
57.149227 -57.032913 46.67588
56.680876 -57.897778 46.793762
58.151905 -58.287079 45.801364
57.471007 -58.121537 46.3759
58.823595 -58.453159 45.188885
58.611048 -57.422753 45.645538
58.151905 -58.287079 45.801364
47.077642 -46.204729 48.654125
46.002305 -45.843357 48.728935
46.356062 -47.075613 48.443302
48.137796 -46.583025 48.626182
47.077642 -46.204729 48.654125
48.527013 -47.828043 48.397614
49.23341 -46.974083 48.655304
48.137796 -46.583025 48.626182
52.068439 -56.505852 47.840187
51.514604 -55.280861 47.78805
53.074388 -56.816175 47.747321
52.068439 -56.505852 47.840187
62.519775 -57.029106 29.229345
63.093864 -56.467081 30.149989
62.423477 -57.332491 30.565835
62.538109 -56.663891 27.921259
62.519775 -57.029106 29.229345
62.6147 -56.298096 26.596315
63.266754 -55.797901 27.488556
62.538109 -56.663891 27.921259
53.834941 -46.504855 49.487728
54.174057 -47.723448 49.209667
63.851261 -52.614023 41.362284
63.312923 -53.481466 41.572174
63.782066 -53.518516 40.38698
63.851261 -52.614023 41.362284
64.396389 -51.745767 41.206869
56.125236 -53.686957 47.752684
55.171326 -53.36665 47.897419
57.006922 -53.962615 47.480221
56.125236 -53.686957 47.752684
56.469026 -54.815426 47.363714
57.870148 -54.235161 47.160646
57.006922 -53.962615 47.480221
58.645995 -54.457714 46.698147
57.870148 -54.235161 47.160646
58.126559 -55.313637 46.628751
59.407277 -54.675174 46.173397
58.645995 -54.457714 46.698147
59.407277 -54.675174 46.173397
59.565258 -55.699267 45.498949
59.376888 -58.557181 44.426262
58.823595 -58.453159 45.188885
59.833128 -57.691671 44.226675
59.376888 -58.557181 44.426262
59.755425 -56.725588 44.932352
59.833128 -57.691671 44.226675
62.731083 -55.25655 40.805599
62.785054 -54.353323 41.709164
62.572113 -56.093216 39.832775
62.41766 -56.928955 38.927967
63.084759 -55.222626 39.624046
62.731083 -55.25655 40.805599
62.572113 -56.093216 39.832775
63.337044 -56.385673 33.782532
63.707993 -55.690489 34.755282
63.113891 -56.552851 35.119631
62.870255 -57.009251 32.81668
63.464355 -56.146889 32.452331
63.337044 -56.385673 33.782532
62.386142 -57.637455 31.880072
62.870255 -57.009251 32.81668
62.423477 -57.332491 30.565835
62.386142 -57.637455 31.880072
51.719048 -45.700468 49.325454
50.664162 -45.292372 49.247376
52.067135 -46.936339 49.088916
52.788288 -46.103436 49.409435
51.719048 -45.700468 49.325454
50.31026 -47.376236 48.715835
49.921043 -46.131218 48.944405
49.23341 -46.974083 48.655304
52.862423 -49.401654 48.623169
53.529221 -48.563368 48.923133
52.469577 -48.177592 48.872933
53.311085 -50.632698 48.433991
52.862423 -49.401654 48.623169
52.251442 -50.246921 48.38379
53.727707 -51.835749 48.176636
53.311085 -50.632698 48.433991
44.406071 -49.729284 48.068793
43.792251 -50.636375 48.047525
45.488891 -50.072653 47.941938
45.022019 -48.838752 48.142189
44.406071 -49.729284 48.068793
45.421236 -52.216697 47.81373
44.305523 -51.866686 47.904699
44.853815 -53.120199 47.849888
45.989633 -51.325546 47.816851
45.421236 -52.216697 47.81373
46.537926 -52.579059 47.76204
46.605581 -50.435015 47.890248
45.488891 -50.072653 47.941938
45.989633 -51.325546 47.816851
47.715088 -50.811941 47.880045
47.214346 -49.559048 48.005133
46.605581 -50.435015 47.890248
48.836831 -51.189636 47.903425
47.715088 -50.811941 47.880045
48.228065 -52.065603 47.78854
49.944924 -51.578809 47.954361
49.431946 -50.325147 48.045866
48.836831 -51.189636 47.903425
50.447464 -52.817346 47.850102
50.997949 -54.062502 47.842944
51.04258 -51.952858 47.992542
49.944924 -51.578809 47.954361
50.447464 -52.817346 47.850102
54.197449 -53.046402 48.01384
53.727707 -51.835749 48.176636
53.169846 -52.68862 48.031815
54.613464 -54.219521 47.752598
55.171326 -53.36665 47.897419
54.197449 -53.046402 48.01384
54.065986 -57.132358 47.646463
53.570028 -55.944296 47.677639
53.074388 -56.816175 47.747321
54.979157 -57.402261 47.423874
54.065986 -57.132358 47.646463
55.877892 -57.676599 47.182354
55.460361 -56.534817 47.335262
54.979157 -57.402261 47.423874
56.680876 -57.897778 46.793762
55.877892 -57.676599 47.182354
64.959515 -54.215513 30.308303
65.394913 -53.597911 31.309819
64.731167 -54.439504 31.697878
65.112366 -53.916669 28.948735
64.959515 -54.215513 30.308303
64.44862 -54.758263 29.336794
65.309899 -53.624572 27.568558
65.112366 -53.916669 28.948735
65.43964 -53.260241 26.226605
65.309899 -53.624572 27.568558
64.731212 -54.095087 26.635274
65.609402 -52.898575 24.869636
65.43964 -53.260241 26.226605
62.624826 -55.876438 25.305822
62.6147 -56.298096 26.596315
63.40564 -55.006176 24.860618
62.624826 -55.876438 25.305822
64.164444 -54.155501 24.425472
64.10215 -54.58143 25.728467
63.40564 -55.006176 24.860618
64.968983 -53.301937 23.977573
64.164444 -54.155501 24.425472
65.609402 -52.898575 24.869636
64.968983 -53.301937 23.977573
3 0 11 9
3 0 35 37
3 37 36 11
3 35 36 37
3 0 38 40
3 38 12 39
3 38 39 40
3 41 14 42
3 43 16 44
3 45 44 14
3 43 44 45
3 1 46 47
3 2 48 49
3 51 50 10
3 3 19 18
3 4 20 13
3 4 52 54
3 54 53 20
3 52 53 54
3 55 21 56
3 57 22 58
3 59 58 21
3 57 58 59
3 61 60 22
3 62 24 63
3 6 25 15
3 6 26 25
3 64 27 65
3 66 28 67
3 69 68 28
3 7 70 72
3 70 29 71
3 70 71 72
3 7 30 29
3 7 31 30
3 5 32 23
3 8 33 17
3 8 34 33
3 74 73 1
3 9 10 2
3 11 10 9
3 11 75 77
3 77 76 10
3 75 76 77
3 11 78 79
3 81 80 11
3 12 82 83
3 12 84 85
3 86 13 87
3 88 87 3
3 86 87 88
3 89 13 90
3 91 4 92
3 93 92 13
3 91 92 93
3 14 94 96
3 94 95 96
3 14 97 98
3 14 99 101
3 99 15 100
3 99 100 101
3 16 15 14
3 16 6 15
3 102 7 103
3 105 104 7
3 106 17 107
3 108 107 5
3 106 107 108
3 109 17 110
3 111 8 112
3 113 112 17
3 111 112 113
3 115 114 1
3 10 116 118
3 118 117 2
3 116 117 118
3 120 119 10
3 18 121 122
3 19 123 125
3 125 124 18
3 123 124 125
3 19 126 127
3 13 19 3
3 20 19 13
3 20 128 130
3 130 129 19
3 128 129 130
3 20 131 132
3 134 133 20
3 135 4 136
3 137 4 138
3 140 139 4
3 141 2 142
3 21 143 144
3 21 145 147
3 145 2 146
3 145 146 147
3 21 9 2
3 22 9 21
3 22 0 9
3 22 23 0
3 148 23 149
3 150 149 22
3 148 149 150
3 151 5 152
3 153 152 23
3 151 152 153
3 154 5 155
3 157 156 5
3 24 158 159
3 24 160 162
3 160 1 161
3 160 161 162
3 15 163 165
3 163 24 164
3 163 164 165
3 25 24 15
3 25 1 24
3 25 166 168
3 168 167 1
3 166 167 168
3 26 169 171
3 171 170 25
3 169 170 171
3 26 172 173
3 27 174 175
3 27 176 178
3 176 177 178
3 179 27 180
3 179 180 181
3 28 182 184
3 182 27 183
3 182 183 184
3 28 185 187
3 187 186 27
3 185 186 187
3 28 188 190
3 188 16 189
3 188 189 190
3 191 16 192
3 193 192 28
3 191 192 193
3 194 6 195
3 196 195 16
3 194 195 196
3 29 197 198
3 29 199 201
3 199 6 200
3 199 200 201
3 29 26 6
3 30 26 29
3 30 202 204
3 204 203 26
3 202 203 204
3 30 205 207
3 205 18 206
3 205 206 207
3 31 18 30
3 31 3 18
3 208 31 209
3 210 209 7
3 208 209 210
3 211 31 212
3 213 3 214
3 215 214 31
3 213 214 215
3 217 216 3
3 23 12 0
3 32 12 23
3 32 218 220
3 220 219 12
3 218 219 220
3 17 32 5
3 33 32 17
3 33 221 223
3 223 222 32
3 221 222 223
3 33 224 225
3 34 226 228
3 228 227 33
3 226 227 228
3 34 229 230
3 231 8 232
3 233 8 234
3 235 34 236
3 237 236 8
3 235 236 237
3 238 34 239
3 241 240 34
