ply
format ascii 1.0
element vertex 754
property float x
property float y
property float z
element face 781
property list uchar int vertex_index
end_header
6.842169 -20.283512 87.863907
36.689293 -9.648259 70.498962
53.700081 8.191698 44.557236
65.689178 6.592344 24.91814
15.858356 -14.677372 83.833817
23.415022 -18.025434 81.029602
13.700243 -24.430521 84.176292
31.128767 -18.358324 75.43779
46.669403 0.63056 58.843559
48.454414 9.121408 53.820717
52.356445 0.762735 50.362938
57.494011 1.25563 40.735809
64.360313 9.00452 17.35527
41.89978 -8.213974 63.732353
36.762657 -17.477049 68.136894
59.462536 8.458462 34.711159
19.745098 -12.545425 81.100433
23.222149 -14.185778 80.293137
19.483566 -16.855143 82.852898
27.072344 -14.725813 78.554253
46.999191 -3.534005 57.125214
49.651226 0.728001 54.911423
4.289873 -17.123022 88.010063
10.033068 -22.745264 86.562561
8.962721 -27.820431 85.806221
5.538565 -26.174503 88.013237
39.562233 -8.820432 67.47496
37.278233 -13.432888 70.097816
26.728201 -22.292784 76.623283
30.400969 -22.241596 73.209053
38.236053 -5.110843 67.107323
41.517921 -4.283329 64.555595
51.09248 8.523088 49.355904
56.466133 8.276426 39.656025
65.39563 8.091986 21.129536
11.390308 -17.247711 86.126335
8.484232 -13.961405 86.576439
22.75729 -22.006939 79.863609
18.73027 -21.199251 82.715508
14.870875 -19.663092 84.86644
33.222256 -10.494011 72.91507
34.461487 -14.10248 73.448997
30.963402 -14.61558 76.239906
27.405277 -18.440571 78.485245
48.181782 4.98295 56.521538
51.170963 4.804403 52.428291
53.893791 4.679495 47.771675
56.518562 4.82172 42.874001
54.919083 0.93594 45.534302
61.3325 11.685726 21.880909
62.236992 10.235237 25.926136
34.282776 -17.989424 71.975052
33.607895 -21.950439 69.720276
44.395504 -3.767977 61.207466
58.622139 11.110453 30.974552
62.62315 8.093658 29.726557
59.193283 5.116793 37.95623
62.01738 5.106325 33.128986
64.963394 4.245872 28.544853
21.314213 -11.656565 79.681465
22.857235 -12.414726 79.385178
21.433544 -13.541163 80.827202
24.5707 -12.779553 78.728569
48.248795 -3.473438 54.878021
4.702679 -21.994547 88.468643
3.452881 -20.537983 88.533966
5.479155 -18.777073 88.075188
8.366718 -21.611656 87.360374
7.711527 -24.413158 87.325577
6.128393 -23.293167 88.065132
4.050091 -25.089888 88.619156
38.20293 -9.215829 69.075188
38.484566 -11.119818 68.86132
37.176491 -11.497757 70.551659
35.794418 -7.864812 69.955078
36.433331 -5.600223 68.127335
37.513924 -7.388912 68.806541
39.103241 -6.938961 67.500786
52.385651 8.304857 46.979923
55.055969 8.190758 42.112007
65.656677 7.439072 23.035566
66.945152 5.991402 20.893122
67.043129 5.323008 22.748264
66.865837 4.455215 24.604469
13.666742 -15.90729 85.043274
12.073997 -14.376546 85.336014
14.227829 -13.180529 84.076897
23.174473 -20.010746 80.663063
20.736065 -21.681501 81.357239
21.161057 -19.614363 81.936432
17.619455 -15.9025 83.441154
17.244808 -18.230545 83.91304
15.399301 -17.193071 84.579628
13.069784 -18.569725 85.608635
31.322508 -10.833401 73.977875
32.244202 -12.59058 74.696312
30.342169 -12.829842 75.842339
25.406601 -16.406157 79.921532
27.396011 -16.558195 78.78112
25.421875 -18.310133 79.831558
25.182476 -20.24958 79.244728
47.556931 2.820717 57.700775
51.030739 0.738285 52.694176
50.593628 2.801825 53.727455
51.991016 2.769337 51.489021
52.554955 4.716606 50.149139
53.331299 2.766104 49.138252
54.634228 2.815857 46.718544
53.646179 0.825056 47.962166
61.817131 11.023197 23.91824
59.948051 11.741779 26.435162
15.658528 -25.007088 82.681458
6.850166 -29.591379 86.69532
36.474201 -19.486027 67.05883
32.944874 -16.265442 74.570473
34.510033 -16.015888 72.918915
32.79023 -18.198721 73.756584
32.066177 -22.124741 71.469337
41.902702 -6.22199 64.330017
43.000832 -3.984468 62.98201
43.150291 -5.978024 62.459854
44.334953 -5.806241 60.419533
47.040382 9.397299 55.82254
57.488129 9.883509 35.384319
59.141457 9.87401 32.899769
60.83609 9.696993 30.38866
61.033249 8.387081 32.218483
57.208527 3.077631 41.820549
57.841755 4.972841 40.409286
58.518921 3.23629 39.396488
61.265465 3.34454 34.686169
62.713634 3.169043 32.433395
63.485168 4.810801 30.789845
17.904018 -13.556126 82.509621
16.265255 -12.115435 82.684761
18.144735 -11.18627 81.193871
23.428865 -16.074463 80.892273
21.424536 -17.552452 82.046425
21.503609 -15.518735 81.655167
19.65678 -14.68996 82.187347
28.387278 -12.955164 76.90284
26.440247 -12.94502 77.875275
25.113789 -14.555941 79.514755
47.039215 -1.454397 58.104469
48.201889 0.701931 56.972801
48.420746 -1.391022 56.028175
49.749725 -1.351158 53.807213
51.041611 -1.307083 51.482567
52.312637 -1.235317 49.098732
11.818371 -23.681984 85.488304
11.262527 -26.101665 84.960724
9.43012 -25.347668 86.274788
7.183455 -27.084213 87.057701
5.130508 -28.895035 87.809486
3.317192 -30.779594 88.484459
3.569704 -28.031254 88.589897
40.784019 -8.483144 65.691444
39.634266 -10.779253 67.00058
38.418888 -13.105713 68.194633
37.08989 -15.439809 69.230728
29.036715 -20.368149 76.095001
30.810778 -20.297579 74.40139
28.615795 -22.30048 74.930168
37.012146 -3.282798 66.407906
38.91291 -2.801016 65.511185
40.725513 -2.372656 64.445068
39.932011 -4.663313 65.926414
40.561768 -6.544082 66.011993
49.793159 8.812092 51.6502
57.935928 8.392038 37.190369
64.947868 8.594946 19.226376
9.09342 -18.703861 87.072868
7.636255 -17.168209 87.363564
9.856501 -15.704037 86.439621
18.200367 -23.341778 82.003326
16.21447 -22.799833 83.441261
19.174755 -19.03039 83.029037
16.766577 -20.534098 83.896446
14.2875 -22.080555 84.702393
12.442095 -21.164728 85.743202
10.702526 -20.03986 86.536026
35.022724 -10.086648 71.767967
35.693768 -11.89001 72.075516
34.04147 -12.265952 73.448921
32.784863 -14.393986 74.907928
31.212713 -16.457958 76.096573
29.041487 -14.735909 77.455772
29.34803 -16.565315 77.501038
29.32176 -18.447315 77.01593
27.149038 -20.359837 77.714188
24.765026 -22.202255 78.274956
33.960335 -8.329572 70.986176
46.933762 7.224375 57.101288
48.48975 7.090908 55.245544
49.120857 2.830334 55.810562
49.720158 4.906668 54.566101
49.949394 6.905991 53.190529
51.33868 6.714468 50.977112
52.684589 6.562977 48.648308
54.012024 6.488667 46.244659
55.342251 6.508017 43.799603
55.208488 4.714842 45.3358
55.919975 2.924932 44.268875
56.195053 1.088215 43.115902
53.579857 -1.122412 46.699387
62.457188 10.989893 17.562124
63.013237 10.510889 19.505102
63.515205 9.981684 21.4809
63.914543 9.339758 23.454758
64.157913 8.5291 25.394115
6.344622 -15.459678 87.428413
35.962883 -13.772625 71.848923
35.890503 -15.734175 71.138321
35.601364 -17.745731 70.098167
32.444679 -20.165968 72.641846
33.925884 -19.98457 70.823875
35.260345 -19.758011 68.957817
35.039471 -21.712959 67.973221
45.043682 0.490168 60.498932
42.441826 -2.019705 63.178833
44.061508 -1.752045 61.69796
45.590508 -1.567739 60.00235
45.721375 -3.624012 59.246643
45.488346 -5.691167 58.238075
60.447151 10.807039 28.452972
62.527618 9.269588 27.870754
64.193146 7.510134 27.272259
56.692463 6.609249 41.336273
58.075649 6.750805 38.867126
59.499847 6.866646 36.397171
59.867607 3.346291 37.013397
60.584023 5.185743 35.525208
60.966198 6.876812 33.930592
62.466 6.700438 31.479548
63.977478 6.267616 29.072262
65.462631 5.528027 26.757671
66.408905 3.377712 26.447235
21.330589 -10.737327 78.949967
21.889387 -11.305397 79.07201
21.889387 -11.305397 79.07201
22.085724 -12.035646 79.533321
22.660897 -11.684477 78.923867
22.660897 -11.684477 78.923867
23.340764 -11.762559 78.584641
52.704052 9.07173 44.856324
52.046837 9.128309 46.067667
53.042866 8.248278 45.76858
53.358482 8.994208 43.640652
52.704052 9.07173 44.856324
54.378025 8.191228 43.334621
54.036426 8.993738 42.418037
53.358482 8.994208 43.640652
29.856229 -11.952184 75.415997
30.832338 -11.831622 74.910107
30.346398 -10.953964 74.483765
30.346398 -10.953964 74.483765
30.699818 -9.95399 73.434006
47.113167 1.725639 58.272167
46.723481 2.782565 58.535007
46.279717 1.687487 59.106399
58.661436 12.439161 26.65803
59.682821 12.144433 25.401869
13.444941 -25.559604 83.812717
14.424083 -25.847887 83.0653
14.679386 -24.718804 83.428875
6.813192 -30.745126 86.542465
5.90778 -30.504131 87.140373
41.75515 -9.234063 63.276035
42.42506 -8.112849 62.675594
37.283756 -17.332504 67.123317
37.448605 -16.311502 67.672054
36.618429 -18.481538 67.597862
37.139528 -18.336993 66.584285
37.283756 -17.332504 67.123317
42.42506 -8.112849 62.675594
43.050315 -6.994874 62.039344
42.525036 -7.095999 63.096103
47.651989 10.30793 54.094937
46.944973 10.445875 55.095848
47.747398 9.259353 54.821629
62.956121 2.148619 32.208652
62.2003 2.276418 33.227737
63.456182 2.968078 31.35787
62.956121 2.148619 32.208652
64.825081 8.088725 16.455105
64.019272 9.192355 16.450572
25.991698 -12.075689 77.39457
26.931013 -12.072273 76.922436
49.618881 -2.383462 53.17688
48.99926 -2.412298 54.342617
48.868416 -3.444602 53.712284
50.264824 -2.361424 52.014557
50.395668 -1.329121 52.64489
49.618881 -2.383462 53.17688
50.887249 -2.32216 50.829007
50.264824 -2.361424 52.014557
3.339764 -18.040116 88.143253
2.921267 -19.747597 88.405204
3.871377 -18.830503 88.272015
3.782736 -16.243531 87.84998
3.339764 -18.040116 88.143253
3.120385 -26.04582 88.800824
3.394813 -24.465615 88.733589
50.183833 9.573186 49.644749
49.534172 9.717688 50.791897
50.442819 8.66759 50.503052
56.186379 9.047159 38.749581
55.440269 9.021006 39.971336
57.201031 8.334232 38.423197
56.921276 9.104965 37.516752
56.186379 9.047159 38.749581
65.995091 7.291365 20.094777
65.771209 7.542845 19.143197
65.171749 8.343466 20.177956
67.443825 5.097837 19.982148
67.560974 4.851122 20.875036
11.357309 -13.498363 85.416157
12.413018 -12.903229 84.779408
15.516541 -11.252131 82.735458
16.459214 -10.807737 81.953079
21.490322 -22.868169 80.15173
22.509009 -22.997093 79.331932
22.509009 -22.997093 79.331932
23.512876 -23.094751 78.537606
23.761158 -22.104597 79.069282
33.591296 -9.411791 71.950623
33.000695 -8.536791 71.467232
32.631655 -9.619011 72.431679
47.557772 6.103663 56.811413
46.736044 6.110909 57.680557
47.360054 4.990196 57.390682
52.788954 -2.172233 47.253929
52.946247 -1.178864 47.899059
52.155344 -2.228686 48.453602
61.418024 11.936675 17.716337
62.171366 11.233645 16.62444
61.085733 11.985526 20.866544
60.127623 12.483891 22.086731
62.172868 11.098308 20.693005
61.926102 11.398108 19.678641
61.085733 11.985526 20.866544
9.909684 -28.107365 85.069535
11.059587 -27.247982 84.646786
10.112624 -26.961048 85.383472
2.550953 -31.756104 88.755657
2.586499 -30.379497 88.747391
44.181431 0.377995 61.212269
44.579025 1.536438 60.648587
44.733923 -6.778317 58.810608
44.911649 -5.748704 59.328804
44.157227 -6.835854 59.901337
45.258051 -6.723974 57.651936
44.733923 -6.778317 58.810608
57.343266 11.767088 31.210449
57.724821 11.166723 32.218474
58.311933 11.647874 29.966096
57.343266 11.767088 31.210449
59.534645 10.958746 29.713762
59.22444 11.496167 28.705306
58.311933 11.647874 29.966096
60.04876 2.401455 36.592895
59.350935 2.371058 37.714531
20.576594 -11.031871 79.674675
19.792036 -11.476301 80.384159
20.529655 -12.100995 80.390949
20.576594 -11.031871 79.674675
21.330589 -10.737327 78.949967
24.197496 -11.944972 78.256336
25.056924 -11.992956 77.821216
23.713967 -12.59714 79.056873
24.197496 -11.944972 78.256336
23.340764 -11.762559 78.584641
47.444083 -4.542017 55.415538
47.623993 -3.503722 56.001617
46.819281 -4.5723 56.539135
48.030266 -4.506288 54.242897
47.444083 -4.542017 55.415538
48.868416 -3.444602 53.712284
48.030266 -4.506288 54.242897
4.07778 -21.266265 88.501305
3.096208 -22.189663 88.690994
3.721106 -22.917945 88.658333
3.721106 -22.917945 88.658333
3.394813 -24.465615 88.733589
4.376385 -23.542217 88.5439
26.503434 -23.250274 76.032898
25.508013 -23.21615 76.874134
36.113875 -6.732518 69.041207
35.486001 -5.848133 68.579289
35.166544 -6.980427 69.49316
51.428017 9.270559 47.273697
50.781431 9.379675 48.461687
51.739066 8.413972 48.167913
51.428017 9.270559 47.273697
52.046837 9.128309 46.067667
54.735187 8.978172 41.199327
54.036426 8.993738 42.418037
55.761051 8.233592 40.884016
55.440269 9.021006 39.971336
54.735187 8.978172 41.199327
67.609962 4.516925 21.802606
67.560974 4.851122 20.875036
66.99414 5.657205 21.820693
67.579254 4.184914 22.720937
67.609962 4.516925 21.802606
67.490608 3.751017 23.649039
67.579254 4.184914 22.720937
66.954483 4.889112 23.676367
67.312271 3.324196 24.583475
67.490608 3.751017 23.649039
13.489934 -12.30522 84.149849
12.413018 -12.903229 84.779408
13.150913 -13.778537 84.706456
31.681781 -9.788706 72.963082
30.699818 -9.95399 73.434006
32.272382 -10.663706 73.446472
32.631655 -9.619011 72.431679
31.681781 -9.788706 72.963082
47.047629 3.90908 57.980301
46.723481 2.782565 58.535007
47.869356 3.901833 57.111156
47.360054 4.990196 57.390682
47.047629 3.90908 57.980301
60.375045 12.116407 23.124742
60.127623 12.483891 22.086731
60.617361 11.785142 24.143408
61.574815 11.354461 22.899574
60.375045 12.116407 23.124742
60.882591 11.382488 25.176701
60.617361 11.785142 24.143408
59.682821 12.144433 25.401869
7.880348 -13.00976 86.569382
8.928307 -12.317575 86.066494
15.426797 -26.06732 82.247666
16.666754 -25.219705 81.873833
15.426797 -26.06732 82.247666
14.424083 -25.847887 83.0653
7.778582 -29.860402 86.010464
8.83486 -28.974928 85.565914
7.906443 -28.705905 86.25077
7.778582 -29.860402 86.010464
6.813192 -30.745126 86.542465
37.04297 -19.326253 66.102902
37.139528 -18.336993 66.584285
36.432623 -20.445089 66.650429
37.04297 -19.326253 66.102902
31.061902 -23.136623 71.794536
31.233573 -22.183169 72.339195
30.229298 -23.195051 72.664395
31.940967 -23.076045 70.983543
31.061902 -23.136623 71.794536
32.711827 -22.988893 70.109013
32.837036 -22.03759 70.594807
31.940967 -23.076045 70.983543
33.54647 -22.892544 69.316052
32.711827 -22.988893 70.109013
43.642646 -6.908982 61.019184
43.742622 -5.892132 61.439694
43.050315 -6.994874 62.039344
44.157227 -6.835854 59.901337
43.642646 -6.908982 61.019184
46.283382 10.629454 56.083076
46.279038 9.495617 56.717277
46.283382 10.629454 56.083076
46.944973 10.445875 55.095848
57.157816 10.553252 34.423357
56.3013 10.559642 35.649417
57.98448 10.548502 33.181082
57.157816 10.553252 34.423357
58.314793 9.87876 34.142044
58.881798 10.492231 31.93716
57.724821 11.166723 32.218474
57.98448 10.548502 33.181082
61.476215 2.364167 34.354124
60.747688 2.40058 35.429282
61.989549 3.256791 33.559782
61.476215 2.364167 34.354124
62.2003 2.276418 33.227737
63.841949 3.788957 30.536095
63.099401 3.989922 31.61162
63.456182 2.968078 31.35787
64.581062 3.506493 29.413599
64.224281 4.528336 29.667349
63.841949 3.788957 30.536095
65.325882 3.173245 28.408262
64.581062 3.506493 29.413599
17.398954 -10.343155 81.207634
16.459214 -10.807737 81.953079
17.204995 -11.650852 81.939316
18.991855 -10.796723 80.430878
18.944916 -11.865848 81.147152
19.792036 -11.476301 80.384159
18.269461 -9.97884 80.387485
18.991855 -10.796723 80.430878
17.398954 -10.343155 81.207634
18.269461 -9.97884 80.387485
27.904528 -12.077345 76.436218
28.878783 -12.014845 75.946247
27.413762 -12.950092 77.389058
27.904528 -12.077345 76.436218
26.931013 -12.072273 76.922436
25.505474 -12.862286 78.301922
25.991698 -12.075689 77.39457
25.056924 -11.992956 77.821216
51.522762 -2.286278 49.637089
51.677124 -1.2712 50.29065
50.887249 -2.32216 50.829007
52.155344 -2.228686 48.453602
51.522762 -2.286278 49.637089
2.538321 -21.495577 88.616089
3.096208 -22.189663 88.690994
2.538321 -21.495577 88.616089
2.921267 -19.747597 88.405204
5.047951 -30.155959 87.697456
5.90778 -30.504131 87.140373
5.990337 -29.243207 87.252403
4.22385 -29.837314 88.146973
4.141293 -31.098238 88.034942
5.047951 -30.155959 87.697456
2.712755 -29.005327 88.80011
2.586499 -30.379497 88.747391
3.443448 -29.405424 88.537178
2.880191 -27.516503 88.786194
3.809897 -26.560571 88.604526
3.120385 -26.04582 88.800824
2.712755 -29.005327 88.80011
2.880191 -27.516503 88.786194
40.722099 -9.486329 65.335266
41.279979 -9.351744 64.355721
41.341899 -8.348559 64.711899
40.147222 -10.634384 65.989834
40.722099 -9.486329 65.335266
40.209142 -9.631198 66.346012
39.525963 -11.792518 66.575352
40.147222 -10.634384 65.989834
38.918274 -12.955748 67.172379
39.525963 -11.792518 66.575352
39.026577 -11.942483 67.597606
38.27672 -14.125834 67.700923
38.918274 -12.955748 67.172379
37.612221 -15.292883 68.218971
38.27672 -14.125834 67.700923
37.754389 -14.272761 68.712681
36.926273 -16.458429 68.683811
37.448605 -16.311502 67.672054
37.612221 -15.292883 68.218971
27.447231 -23.254122 75.186341
27.671998 -22.296632 75.776725
26.503434 -23.250274 76.032898
28.412139 -23.254297 74.350349
27.447231 -23.254122 75.186341
29.304726 -23.224854 73.489792
29.508382 -22.271038 74.06961
28.412139 -23.254297 74.350349
30.229298 -23.195051 72.664395
29.304726 -23.224854 73.489792
35.73661 -4.692854 67.65519
35.486001 -5.848133 68.579289
36.026018 -3.534142 66.795475
35.73661 -4.692854 67.65519
36.722739 -4.44151 67.26762
36.273786 -2.334066 65.984448
36.026018 -3.534142 66.795475
37.299727 -2.089644 65.65472
36.273786 -2.334066 65.984448
38.250108 -1.848753 65.20636
37.299727 -2.089644 65.65472
37.962528 -3.041907 65.959545
39.246917 -1.620756 64.808094
38.250108 -1.848753 65.20636
39.819211 -2.586836 64.978127
40.153219 -1.406576 64.275036
39.246917 -1.620756 64.808094
48.938335 9.937404 51.933094
48.268963 10.092063 53.018353
49.123787 8.96675 52.735459
48.938335 9.937404 51.933094
49.534172 9.717688 50.791897
50.183833 9.573186 49.644749
50.781431 9.379675 48.461687
56.697377 9.850701 36.613727
56.3013 10.559642 35.649417
57.712029 9.137773 36.287344
56.697377 9.850701 36.613727
56.921276 9.104965 37.516752
58.164137 1.325727 39.575737
57.51524 0.313552 40.248554
65.487854 7.730818 18.249536
65.194076 7.935605 17.313983
64.65409 8.799733 18.290823
65.487854 7.730818 18.249536
65.771209 7.542845 19.143197
66.769851 6.241073 19.976571
65.995091 7.291365 20.094777
66.170391 7.041694 21.011329
66.769851 6.241073 19.976571
67.443825 5.097837 19.982148
10.248561 -14.162109 85.967961
10.965249 -15.040291 85.887818
11.357309 -13.498363 85.416157
9.562427 -13.290793 86.03637
9.170367 -14.832721 86.50803
10.248561 -14.162109 85.967961
8.928307 -12.317575 86.066494
9.562427 -13.290793 86.03637
14.497829 -11.784678 83.431527
15.246542 -12.647982 83.380829
15.516541 -11.252131 82.735458
13.489934 -12.30522 84.149849
14.497829 -11.784678 83.431527
20.479709 -22.70545 80.898545
21.490322 -22.868169 80.15173
21.746678 -21.84422 80.610424
19.211861 -23.535589 81.221588
20.479709 -22.70545 80.898545
19.468216 -22.51164 81.680283
17.937674 -24.38705 81.534767
19.211861 -23.535589 81.221588
16.929448 -24.174433 82.342392
16.666754 -25.219705 81.873833
17.937674 -24.38705 81.534767
29.364723 -12.892503 76.37259
29.856229 -11.952184 75.415997
28.878783 -12.014845 75.946247
24.526426 -23.170885 77.699971
25.508013 -23.21615 76.874134
25.746613 -22.24752 77.449119
24.526426 -23.170885 77.699971
23.512876 -23.094751 78.537606
33.269207 -7.444007 70.431042
33.000695 -8.536791 71.467232
34.249503 -7.212807 70.008709
33.269207 -7.444007 70.431042
34.877376 -8.097192 70.470627
35.166544 -6.980427 69.49316
34.249503 -7.212807 70.008709
46.097156 7.248154 57.912075
46.736044 6.110909 57.680557
46.225728 8.409155 57.356651
46.097156 7.248154 57.912075
46.987072 8.310837 56.461914
46.279038 9.495617 56.717277
46.225728 8.409155 57.356651
53.438772 -2.094529 46.092122
52.788954 -2.172233 47.253929
54.220463 -1.045962 45.511414
53.438772 -2.094529 46.092122
54.890076 -0.016786 44.928871
54.24947 -0.093236 46.116844
54.220463 -1.045962 45.511414
55.528061 0.059351 43.719672
55.557068 1.012077 44.325102
54.890076 -0.016786 44.928871
56.184672 0.147039 42.559302
55.528061 0.059351 43.719672
56.83415 0.230747 41.369255
56.844532 1.171922 41.925855
56.184672 0.147039 42.559302
57.51524 0.313552 40.248554
56.83415 0.230747 41.369255
63.067709 10.185042 16.553998
62.171366 11.233645 16.62444
63.408751 9.997207 17.458697
64.019272 9.192355 16.450572
63.067709 10.185042 16.553998
61.648077 11.637609 18.707152
61.418024 11.936675 17.716337
62.735213 10.750391 18.533613
61.648077 11.637609 18.707152
61.926102 11.398108 19.678641
6.810543 -13.758897 86.995369
7.414427 -14.710541 87.002426
7.880348 -13.00976 86.569382
5.782528 -14.539452 87.358768
6.810543 -13.758897 86.995369
4.755154 -15.371123 87.649594
5.317248 -16.29135 87.719238
5.782528 -14.539452 87.358768
3.782736 -16.243531 87.84998
4.755154 -15.371123 87.649594
12.226083 -26.395176 84.204933
13.444941 -25.559604 83.812717
12.481385 -25.266093 84.568508
12.226083 -26.395176 84.204933
11.059587 -27.247982 84.646786
9.909684 -28.107365 85.069535
8.83486 -28.974928 85.565914
3.330263 -32.038368 88.450096
4.141293 -31.098238 88.034942
3.330263 -32.038368 88.450096
2.550953 -31.756104 88.755657
41.75515 -9.234063 63.276035
41.279979 -9.351744 64.355721
35.715258 -21.558554 67.107624
36.432623 -20.445089 66.650429
35.756836 -20.599493 67.516025
34.262259 -22.773805 68.442524
34.323683 -21.831699 68.846748
33.54647 -22.892544 69.316052
35.060364 -22.634473 67.671394
34.262259 -22.773805 68.442524
35.715258 -21.558554 67.107624
35.060364 -22.634473 67.671394
45.466856 1.617291 59.934086
44.579025 1.536438 60.648587
45.856543 0.560364 59.671245
46.279717 1.687487 59.106399
45.466856 1.617291 59.934086
41.110781 -1.20972 63.784065
40.153219 -1.406576 64.275036
41.968937 -1.033245 63.150948
41.110781 -1.20972 63.784065
41.583669 -2.196181 63.811951
42.880503 -0.876941 62.552219
41.968937 -1.033245 63.150948
43.690344 -0.743111 61.811783
42.880503 -0.876941 62.552219
43.251667 -1.885875 62.438396
44.552595 -0.630939 61.098446
44.181431 0.377995 61.212269
43.690344 -0.743111 61.811783
46.063858 -5.650882 57.095565
46.819281 -4.5723 56.539135
46.243769 -4.612586 57.681645
46.063858 -5.650882 57.095565
45.258051 -6.723974 57.651936
47.651989 10.30793 54.094937
48.268963 10.092063 53.018353
58.97489 11.963537 27.696401
58.661436 12.439161 26.65803
60.197601 11.274409 27.444067
58.97489 11.963537 27.696401
59.22444 11.496167 28.705306
58.676592 2.316057 38.906076
58.006466 2.24596 40.066148
58.164137 1.325727 39.575737
59.193264 3.29129 38.204943
58.676592 2.316057 38.906076
59.350935 2.371058 37.714531
60.566536 3.345415 35.849783
60.04876 2.401455 36.592895
60.747688 2.40058 35.429282
67.083805 2.785444 25.504858
67.312271 3.324196 24.583475
66.637371 3.916463 25.525852
66.048638 2.739165 27.359453
65.686149 3.811792 27.496044
65.325882 3.173245 28.408262
66.768826 2.262768 26.448899
66.048638 2.739165 27.359453
67.083805 2.785444 25.504858
66.768826 2.262768 26.448899
64.825081 8.088725 16.455105
65.194076 7.935605 17.313983
3 238 237 59
3 239 59 240
3 241 240 60
3 239 240 241
3 242 60 243
3 0 66 64
3 0 69 67
3 0 64 69
3 1 73 71
3 1 76 74
3 1 71 76
3 2 244 246
3 246 245 78
3 244 245 246
3 2 247 248
3 2 249 251
3 249 79 250
3 249 250 251
3 3 82 80
3 3 83 82
3 4 86 84
3 5 89 87
3 4 92 90
3 4 84 92
3 252 96 253
3 254 253 94
3 252 253 254
3 5 99 97
3 5 87 99
3 255 94 256
3 8 257 259
3 257 101 258
3 257 258 259
3 10 104 102
3 10 106 104
3 10 108 106
3 260 110 261
3 6 262 264
3 264 263 111
3 262 263 264
3 266 265 112
3 13 267 268
3 14 269 270
3 14 271 273
3 271 113 272
3 271 272 273
3 7 116 114
3 13 120 118
3 13 274 276
3 276 275 120
3 274 275 276
3 9 277 279
3 279 278 122
3 277 278 279
3 15 124 123
3 15 126 124
3 11 129 127
3 280 131 281
3 283 282 131
3 12 284 285
3 16 135 133
3 17 138 136
3 16 139 61
3 16 133 139
3 286 141 287
3 17 142 62
3 17 136 142
3 20 145 143
3 288 146 289
3 290 289 63
3 288 289 290
3 291 147 292
3 293 292 146
3 291 292 293
3 295 294 147
3 22 296 298
3 298 297 65
3 296 297 298
3 22 299 300
3 23 151 149
3 25 152 68
3 25 153 152
3 25 155 153
3 302 301 70
3 26 157 156
3 27 158 72
3 27 159 158
3 28 162 160
3 30 163 75
3 30 164 163
3 30 166 164
3 26 167 77
3 26 156 167
3 32 303 305
3 305 304 168
3 303 304 305
3 33 306 307
3 33 308 310
3 308 169 309
3 308 309 310
3 34 311 313
3 313 312 170
3 311 312 313
3 315 314 81
3 35 173 171
3 317 316 85
3 319 318 134
3 37 320 321
3 38 174 88
3 38 175 174
3 18 176 137
3 39 177 91
3 39 178 177
3 39 179 178
3 35 180 93
3 35 171 180
3 40 183 181
3 42 184 95
3 42 185 184
3 19 186 140
3 43 187 98
3 43 188 187
3 43 189 188
3 37 190 100
3 37 322 324
3 324 323 190
3 322 323 324
3 40 325 327
3 325 191 326
3 325 326 327
3 40 181 191
3 44 328 330
3 328 192 329
3 328 329 330
3 44 193 192
3 21 194 144
3 45 195 103
3 45 196 195
3 45 197 196
3 46 198 105
3 46 199 198
3 46 201 199
3 48 202 107
3 48 203 202
3 331 204 332
3 333 332 148
3 331 332 333
3 334 205 335
3 49 336 337
3 49 338 340
3 338 206 339
3 338 339 340
3 49 207 206
3 50 208 109
3 50 209 208
3 36 210 172
3 24 341 343
3 343 342 150
3 341 342 343
3 345 344 154
3 41 211 182
3 51 212 115
3 51 213 212
3 29 214 161
3 52 215 117
3 52 216 215
3 52 217 216
3 346 218 347
3 31 219 165
3 53 220 119
3 53 221 220
3 53 222 221
3 348 223 349
3 350 349 121
3 348 349 350
3 352 351 223
3 54 353 354
3 54 355 356
3 54 357 359
3 357 224 358
3 357 358 359
3 55 225 125
3 55 226 225
3 47 227 200
3 56 228 128
3 56 229 228
3 360 230 361
3 57 231 130
3 57 232 231
3 57 233 232
3 58 234 132
3 58 235 234
3 58 236 235
3 59 362 364
3 364 363 16
3 362 363 364
3 366 365 59
3 60 61 17
3 59 61 60
3 59 16 61
3 367 62 368
3 60 369 371
3 369 62 370
3 369 370 371
3 60 17 62
3 372 63 373
3 374 373 20
3 372 373 374
3 375 63 376
3 378 377 63
3 64 379 381
3 379 65 380
3 379 380 381
3 66 65 64
3 66 22 65
3 67 68 23
3 69 68 67
3 69 25 68
3 69 70 25
3 64 70 69
3 64 382 384
3 384 383 70
3 382 383 384
3 71 72 26
3 73 72 71
3 73 27 72
3 386 385 28
3 74 387 389
3 387 75 388
3 387 388 389
3 76 75 74
3 76 30 75
3 76 77 30
3 71 77 76
3 71 26 77
3 78 390 392
3 392 391 32
3 390 391 392
3 394 393 78
3 79 395 396
3 79 397 399
3 397 33 398
3 397 398 399
3 80 81 34
3 82 81 80
3 82 400 402
3 402 401 81
3 400 401 402
3 82 403 404
3 83 405 407
3 407 406 82
3 405 406 407
3 83 408 409
3 84 85 35
3 86 85 84
3 86 410 412
3 412 411 85
3 410 411 412
3 87 88 37
3 89 88 87
3 89 38 88
3 90 91 18
3 92 91 90
3 92 39 91
3 92 93 39
3 84 93 92
3 84 35 93
3 94 95 40
3 96 95 94
3 96 42 95
3 97 98 19
3 99 98 97
3 99 43 98
3 99 100 43
3 87 100 99
3 87 37 100
3 94 413 414
3 94 415 417
3 415 40 416
3 415 416 417
3 101 418 419
3 101 420 422
3 420 44 421
3 420 421 422
3 102 103 21
3 104 103 102
3 104 45 103
3 104 105 45
3 106 105 104
3 106 46 105
3 106 107 46
3 108 107 106
3 108 48 107
3 423 49 424
3 425 109 426
3 427 426 49
3 425 426 427
3 110 428 430
3 428 109 429
3 428 429 430
3 110 50 109
3 432 431 36
3 111 433 434
3 436 435 111
3 112 437 439
3 439 438 24
3 437 438 439
3 441 440 112
3 113 442 443
3 113 444 445
3 114 115 41
3 116 115 114
3 116 51 115
3 446 117 447
3 448 447 29
3 446 447 448
3 449 117 450
3 451 52 452
3 453 452 117
3 451 452 453
3 455 454 52
3 118 119 31
3 120 119 118
3 120 53 119
3 120 121 53
3 456 121 457
3 458 457 120
3 456 457 458
3 460 459 121
3 122 461 462
3 464 463 122
3 123 465 466
3 124 467 469
3 469 468 123
3 467 468 469
3 124 470 472
3 470 54 471
3 470 471 472
3 124 125 54
3 126 125 124
3 126 55 125
3 127 128 47
3 129 128 127
3 129 56 128
3 473 130 474
3 131 475 477
3 475 130 476
3 475 476 477
3 131 57 130
3 131 132 57
3 478 132 479
3 480 479 131
3 478 479 480
3 481 58 482
3 483 482 132
3 481 482 483
3 485 484 58
3 133 134 4
3 135 134 133
3 135 486 488
3 488 487 134
3 486 487 488
3 489 135 490
3 491 490 16
3 489 490 491
3 492 135 493
3 495 494 135
3 136 137 5
3 138 137 136
3 138 18 137
3 61 138 17
3 139 138 61
3 139 18 138
3 139 90 18
3 133 90 139
3 133 4 90
3 496 140 497
3 141 498 500
3 498 140 499
3 498 499 500
3 141 19 140
3 62 501 503
3 501 141 502
3 501 502 503
3 142 141 62
3 142 19 141
3 142 97 19
3 136 97 142
3 136 5 97
3 143 144 8
3 145 144 143
3 145 21 144
3 63 145 20
3 146 145 63
3 146 21 145
3 146 102 21
3 147 102 146
3 147 10 102
3 147 148 10
3 504 148 505
3 506 505 147
3 504 505 506
3 508 507 148
3 65 509 510
3 512 511 65
3 149 150 6
3 151 150 149
3 151 24 150
3 68 151 23
3 152 151 68
3 152 24 151
3 152 112 24
3 153 112 152
3 153 513 515
3 515 514 112
3 513 514 515
3 153 516 518
3 516 154 517
3 516 517 518
3 155 154 153
3 155 519 521
3 521 520 154
3 519 520 521
3 70 155 25
3 522 155 523
3 524 523 70
3 522 523 524
3 526 525 155
3 156 527 529
3 529 528 13
3 527 528 529
3 157 530 532
3 532 531 156
3 530 531 532
3 157 533 534
3 72 157 26
3 158 157 72
3 158 535 537
3 537 536 157
3 535 536 537
3 158 538 539
3 159 540 542
3 542 541 158
3 540 541 542
3 159 543 545
3 543 14 544
3 543 544 545
3 160 161 7
3 162 161 160
3 162 29 161
3 546 162 547
3 548 547 28
3 546 547 548
3 549 162 550
3 551 29 552
3 553 552 162
3 551 552 553
3 555 554 29
3 75 556 557
3 163 558 560
3 560 559 75
3 558 559 560
3 163 561 562
3 163 563 564
3 164 565 567
3 567 566 163
3 565 566 567
3 164 568 569
3 164 570 572
3 570 165 571
3 570 571 572
3 166 165 164
3 166 31 165
3 77 166 30
3 167 166 77
3 167 31 166
3 167 118 31
3 156 118 167
3 156 13 118
3 168 573 575
3 575 574 9
3 573 574 575
3 577 576 168
3 579 578 32
3 580 123 581
3 169 582 584
3 582 123 583
3 582 583 584
3 169 15 123
3 586 585 11
3 170 587 589
3 589 588 12
3 587 588 589
3 591 590 170
3 81 592 594
3 594 593 34
3 592 593 594
3 596 595 81
3 171 172 0
3 173 172 171
3 173 36 172
3 85 173 35
3 597 173 598
3 599 598 85
3 597 598 599
3 600 36 601
3 602 601 173
3 600 601 602
3 604 603 36
3 134 86 4
3 605 86 606
3 607 606 134
3 605 606 607
3 609 608 86
3 88 610 612
3 612 611 37
3 610 611 612
3 174 613 615
3 615 614 88
3 613 614 615
3 174 616 617
3 174 618 620
3 618 111 619
3 618 619 620
3 175 111 174
3 175 6 111
3 137 89 5
3 176 89 137
3 176 38 89
3 91 176 18
3 177 176 91
3 177 38 176
3 177 175 38
3 178 175 177
3 178 6 175
3 178 149 6
3 179 149 178
3 179 23 149
3 93 179 39
3 180 179 93
3 180 23 179
3 180 67 23
3 171 67 180
3 171 0 67
3 181 182 1
3 183 182 181
3 183 41 182
3 95 183 40
3 184 183 95
3 184 41 183
3 184 114 41
3 185 114 184
3 185 7 114
3 140 621 623
3 621 96 622
3 621 622 623
3 186 96 140
3 186 42 96
3 98 186 19
3 187 186 98
3 187 42 186
3 187 185 42
3 188 185 187
3 188 7 185
3 188 160 7
3 189 160 188
3 189 28 160
3 100 189 43
3 190 189 100
3 190 28 189
3 190 624 626
3 626 625 28
3 624 625 626
3 628 627 190
3 191 629 630
3 191 631 632
3 191 633 635
3 633 74 634
3 633 634 635
3 181 74 191
3 181 1 74
3 192 636 637
3 192 638 639
3 192 640 642
3 640 122 641
3 640 641 642
3 193 122 192
3 193 9 122
3 144 101 8
3 194 101 144
3 194 44 101
3 103 194 21
3 195 194 103
3 195 44 194
3 195 193 44
3 196 193 195
3 196 9 193
3 196 168 9
3 197 168 196
3 197 32 168
3 105 197 45
3 198 197 105
3 198 32 197
3 198 78 32
3 199 78 198
3 199 2 78
3 199 200 2
3 201 200 199
3 201 47 200
3 107 201 46
3 202 201 107
3 202 47 201
3 202 127 47
3 203 127 202
3 203 11 127
3 148 108 10
3 204 108 148
3 204 48 108
3 643 204 644
3 645 204 646
3 647 48 648
3 649 648 204
3 647 648 649
3 650 203 651
3 652 651 48
3 650 651 652
3 653 203 654
3 655 11 656
3 657 656 203
3 655 656 657
3 659 658 11
3 205 660 661
3 205 662 664
3 662 12 663
3 662 663 664
3 665 205 666
3 206 667 669
3 667 205 668
3 667 668 669
3 206 12 205
3 206 170 12
3 207 170 206
3 207 34 170
3 109 207 49
3 208 207 109
3 208 34 207
3 208 80 34
3 209 80 208
3 209 3 80
3 172 66 0
3 210 66 172
3 210 22 66
3 670 210 671
3 672 671 36
3 670 671 672
3 673 210 674
3 675 22 676
3 677 676 210
3 675 676 677
3 679 678 22
3 150 680 682
3 682 681 6
3 680 681 682
3 684 683 150
3 686 685 24
3 154 687 688
3 690 689 154
3 692 691 13
3 182 73 1
3 211 73 182
3 211 27 73
3 115 211 41
3 212 211 115
3 212 27 211
3 212 159 27
3 213 159 212
3 213 14 159
3 161 116 7
3 214 116 161
3 214 51 116
3 117 214 29
3 215 214 117
3 215 51 214
3 215 213 51
3 216 213 215
3 216 14 213
3 216 113 14
3 217 113 216
3 217 693 695
3 695 694 113
3 693 694 695
3 696 217 697
3 698 697 52
3 696 697 698
3 699 217 700
3 702 701 217
3 218 703 704
3 218 705 707
3 705 8 706
3 705 706 707
3 165 708 709
3 219 710 712
3 712 711 165
3 710 711 712
3 219 713 714
3 119 219 31
3 220 219 119
3 220 715 717
3 717 716 219
3 715 716 717
3 220 718 720
3 718 218 719
3 718 719 720
3 221 218 220
3 221 8 218
3 221 143 8
3 222 143 221
3 222 20 143
3 121 222 53
3 223 222 121
3 223 20 222
3 223 721 723
3 723 722 20
3 721 722 723
3 725 724 223
3 727 726 9
3 728 110 729
3 224 730 732
3 730 110 731
3 730 731 732
3 224 50 110
3 125 224 54
3 225 224 125
3 225 50 224
3 225 209 50
3 226 209 225
3 226 3 209
3 200 79 2
3 227 79 200
3 227 33 79
3 128 227 47
3 228 227 128
3 228 33 227
3 228 169 33
3 229 169 228
3 229 15 169
3 733 129 734
3 735 734 11
3 733 734 735
3 230 736 738
3 736 129 737
3 736 737 738
3 230 56 129
3 130 739 741
3 739 230 740
3 739 740 741
3 231 230 130
3 231 56 230
3 231 229 56
3 232 229 231
3 232 15 229
3 232 126 15
3 233 126 232
3 233 55 126
3 132 233 57
3 234 233 132
3 234 55 233
3 234 226 55
3 235 226 234
3 235 3 226
3 235 83 3
3 236 83 235
3 236 742 744
3 744 743 83
3 742 743 744
3 745 236 746
3 747 746 58
3 745 746 747
3 748 236 749
3 751 750 236
3 753 752 12
