ply
format ascii 1.0
element vertex 247
property float x
property float y
property float z
element face 213
property list uchar int vertex_index
end_header
38.44548 16.023228 -11.620039
36.338005 26.27586 -16.636595
37.453133 20.17812 -26.648458
35.952534 33.097992 -7.83791
37.497818 21.601715 -13.961498
38.730389 18.764355 -19.298952
39.215874 9.883846 -9.537979
36.902012 22.862011 -21.484079
35.961433 29.880692 -12.10582
36.497414 24.760235 -8.935184
37.773491 11.909159 -4.119274
38.432858 5.043913 -2.411694
34.717876 22.398308 -28.197157
37.996677 18.907257 -12.753119
38.725544 17.552979 -15.470947
39.272335 14.829956 -14.400726
39.545555 6.737169 -8.569483
36.606377 24.50753 -19.01792
35.895714 31.570412 -9.940203
36.222023 27.465477 -10.456001
36.002636 29.055214 -8.166969
37.672153 9.259663 -0.723122
38.019833 5.667048 -0.001287
35.992023 22.896984 -25.013117
34.729645 24.129402 -25.990412
36.104836 21.420593 -27.445864
36.945232 24.067028 -15.254307
37.392174 22.422005 -17.770819
38.099628 20.095356 -16.590807
39.497177 16.394974 -18.258852
38.850037 12.99778 -10.551769
37.197224 21.404064 -24.031839
37.862602 20.928448 -20.371679
38.324894 19.66375 -23.055311
38.736382 18.683258 -25.811987
36.116825 28.092197 -14.335466
36.546768 25.776745 -12.817923
36.953773 23.187576 -11.40967
37.341568 20.355595 -10.108995
35.929008 30.478352 -5.958437
36.165169 26.236771 -6.544268
36.79221 21.800232 -7.545771
37.713074 17.325314 -8.909338
38.070309 14.149662 -7.802181
38.41304 10.885298 -6.779247
38.737843 7.590601 -5.83452
37.32029 12.857479 -1.593992
38.108887 8.465044 -3.207081
40.184275 4.890441 -9.480431
39.69162 5.177481 -8.104401
36.472191 25.391695 -17.827258
36.141054 26.361208 -18.561747
36.006868 27.245373 -17.371085
35.924124 32.334202 -8.889057
35.976265 33.475904 -9.904965
36.004675 34.239694 -8.853818
37.91096 5.902432 1.121083
37.730969 7.784677 0.791478
38.190297 3.897532 0.277623
37.91096 5.902432 1.121083
39.829849 15.123621 -17.75
39.111361 16.973976 -16.864899
39.444032 15.702624 -16.356047
40.287728 14.792687 -19.196045
39.829849 15.123621 -17.75
39.687942 9.450242 -10.950807
39.505024 11.007209 -11.457702
39.032955 11.440813 -10.044874
36.381893 23.704643 -22.060242
36.32531 24.599525 -20.907896
37.049618 22.133038 -22.757959
36.529499 22.97567 -23.334122
36.381893 23.704643 -22.060242
39.126704 18.310469 -23.996818
38.840103 18.680124 -22.569677
39.332448 17.820223 -25.375156
38.530638 19.173504 -24.433649
39.126704 18.310469 -23.996818
39.564487 17.629305 -26.829696
39.332448 17.820223 -25.375156
35.832659 30.935149 -12.989215
35.895546 31.821494 -11.976104
36.039129 28.986444 -13.220643
35.910354 30.040901 -14.104038
35.832659 30.935149 -12.989215
35.965078 29.012515 -5.106047
35.988337 31.078274 -4.904285
36.083158 26.891724 -5.398963
36.047089 28.357562 -6.251352
35.965078 29.012515 -5.106047
36.949284 20.217243 -6.914966
36.589306 22.477345 -6.312095
37.409716 17.979784 -7.596749
37.252642 19.562773 -8.227555
36.949284 20.217243 -6.914966
37.588334 16.391958 -7.043171
37.891692 15.737488 -8.355759
37.409716 17.979784 -7.596749
38.093266 11.397229 -5.44926
37.924496 13.101669 -5.96164
37.604721 13.613599 -4.631653
37.19928 13.255594 -0.417771
37.024498 15.101265 -0.913481
38.736041 4.685636 -3.689286
38.574055 6.396201 -4.08698
38.270873 6.754479 -2.809387
38.873335 3.104826 -3.298106
38.736041 4.685636 -3.689286
34.071542 23.747813 -27.571773
34.077427 24.61336 -26.468401
34.72376 23.263855 -27.093784
34.015239 22.754373 -28.543917
33.368906 24.103878 -27.918533
34.071542 23.747813 -27.571773
39.717428 14.341112 -15.820937
39.444032 15.702624 -16.356047
38.998939 16.191468 -14.935837
40.031585 6.380396 -9.972098
39.866745 7.953735 -10.456346
39.380714 8.310507 -9.053731
40.031585 6.380396 -9.972098
40.184275 4.890441 -9.480431
36.177492 25.422285 -19.674816
36.141054 26.361208 -18.561747
36.754194 23.68477 -20.250999
36.32531 24.599525 -20.907896
36.177492 25.422285 -19.674816
39.042851 18.230427 -20.691498
39.502535 17.146446 -20.205834
35.862686 32.666353 -10.893296
35.976265 33.475904 -9.904965
35.928573 30.725552 -11.023011
35.895546 31.821494 -11.976104
35.862686 32.666353 -10.893296
37.375538 14.15896 -3.363862
37.604721 13.613599 -4.631653
37.557129 9.580984 0.430561
37.375212 11.456686 0.017664
37.845993 7.463356 -0.362205
37.557129 9.580984 0.430561
37.730969 7.784677 0.791478
38.381712 3.686462 -0.875409
38.588225 3.374894 -2.080612
38.226346 5.355481 -1.20649
38.381712 3.686462 -0.875409
38.190297 3.897532 0.277623
35.360834 23.513193 -25.501765
34.742342 25.051737 -24.904559
35.373531 24.435528 -24.415911
39.885929 15.961756 -19.685783
39.502535 17.146446 -20.205834
39.113783 17.579664 -18.778902
39.885929 15.961756 -19.685783
40.287728 14.792687 -19.196045
36.184658 34.946445 -7.890796
36.004675 34.239694 -8.853818
37.537232 19.688712 -27.980345
38.248541 19.093331 -27.635986
39.298712 12.483285 -11.960233
39.096434 13.996009 -12.494367
38.647759 14.510504 -11.085904
39.298712 12.483285 -11.960233
39.505024 11.007209 -11.457702
39.687942 9.450242 -10.950807
39.866745 7.953735 -10.456346
35.926899 23.72213 -23.824761
35.373531 24.435528 -24.415911
36.594623 22.150524 -24.522478
35.926899 23.72213 -23.824761
36.529499 22.97567 -23.334122
38.608957 19.312473 -21.227861
38.296496 19.846401 -19.835316
39.042851 18.230427 -20.691498
38.093748 20.296099 -21.713495
38.608957 19.312473 -21.227861
38.840103 18.680124 -22.569677
38.890165 18.3459 -27.217751
38.248541 19.093331 -27.635986
38.094758 19.430689 -26.230222
38.890165 18.3459 -27.217751
39.564487 17.629305 -26.829696
39.509861 13.399373 -13.884711
38.858908 15.426592 -13.010383
39.096434 13.996009 -12.494367
40.002779 13.00172 -15.317853
39.509861 13.399373 -13.884711
39.717428 14.341112 -15.820937
40.002779 13.00172 -15.317853
35.997627 28.197993 -16.296036
36.006868 27.245373 -17.371085
35.887037 29.106161 -15.145471
35.910354 30.040901 -14.104038
36.227415 27.184029 -15.486031
35.997627 28.197993 -16.296036
35.887037 29.106161 -15.145471
36.0627 33.753137 -6.823473
36.184658 34.946445 -7.890796
36.294824 35.601591 -6.876359
36.050938 32.443317 -5.883736
35.988337 31.078274 -4.904285
35.940771 31.788172 -6.898174
36.0627 33.753137 -6.823473
36.050938 32.443317 -5.883736
36.275785 24.695614 -5.811343
36.083158 26.891724 -5.398963
36.47869 24.018501 -7.04502
36.275785 24.695614 -5.811343
36.589306 22.477345 -6.312095
37.75313 14.73385 -6.473107
37.588334 16.391958 -7.043171
38.241675 12.51748 -7.290714
37.75313 14.73385 -6.473107
37.924496 13.101669 -5.96164
39.287764 5.604197 -6.73692
39.69162 5.177481 -8.104401
39.141699 7.163885 -7.202001
37.148938 14.633119 -2.101221
37.024498 15.101265 -0.913481
37.546891 12.383319 -2.856633
37.375538 14.15896 -3.363862
37.148938 14.633119 -2.101221
37.496222 11.058571 -1.158557
37.19928 13.255594 -0.417771
37.375212 11.456686 0.017664
38.888533 5.958979 -5.400699
38.423365 8.027823 -4.5208
38.574055 6.396201 -4.08698
39.287764 5.604197 -6.73692
38.888533 5.958979 -5.400699
38.873335 3.104826 -3.298106
38.588225 3.374894 -2.080612
34.159653 25.634664 -25.500027
34.742342 25.051737 -24.904559
34.159653 25.634664 -25.500027
34.077427 24.61336 -26.468401
36.863083 20.309948 -28.379047
36.778984 20.799357 -27.047161
37.537232 19.688712 -27.980345
36.130826 20.774925 -28.678317
36.863083 20.309948 -28.379047
35.437345 21.263782 -29.053963
35.411356 21.90945 -27.821511
36.130826 20.774925 -28.678317
34.69968 21.594864 -29.306324
35.437345 21.263782 -29.053963
34.015239 22.754373 -28.543917
34.69968 21.594864 -29.306324
3 0 15 13
3 49 48 16
3 1 50 52
3 50 17 51
3 50 51 52
3 3 53 55
3 53 18 54
3 53 54 55
3 3 20 18
3 56 22 57
3 59 58 22
3 2 25 23
3 4 28 26
3 60 29 61
3 62 61 14
3 60 61 62
3 64 63 29
3 6 65 67
3 67 66 30
3 65 66 67
3 7 68 69
3 7 70 72
3 70 31 71
3 70 71 72
3 5 32 27
3 73 33 74
3 75 34 76
3 77 76 33
3 75 76 77
3 79 78 34
3 8 80 81
3 8 82 84
3 82 35 83
3 82 83 84
3 8 36 35
3 9 37 19
3 9 38 37
3 85 39 86
3 87 40 88
3 89 88 39
3 87 88 89
3 90 41 91
3 92 42 93
3 94 93 41
3 92 93 94
3 95 43 96
3 97 96 42
3 95 96 97
3 10 98 100
3 98 44 99
3 98 99 100
3 10 45 44
3 101 46 102
3 11 47 21
3 11 103 105
3 105 104 47
3 103 104 105
3 11 106 107
3 12 108 110
3 110 109 24
3 108 109 110
3 12 111 113
3 111 112 113
3 13 14 4
3 15 14 13
3 15 114 116
3 116 115 14
3 114 115 116
3 16 117 119
3 119 118 6
3 117 118 119
3 121 120 16
3 17 122 123
3 17 124 126
3 124 7 125
3 124 125 126
3 128 127 5
3 18 129 130
3 18 131 133
3 131 8 132
3 131 132 133
3 18 19 8
3 20 19 18
3 20 9 19
3 134 10 135
3 136 21 137
3 22 138 140
3 138 21 139
3 138 139 140
3 22 11 21
3 22 141 143
3 143 142 11
3 141 142 143
3 145 144 22
3 23 146 148
3 146 24 147
3 146 147 148
3 25 24 23
3 25 12 24
3 26 27 1
3 28 27 26
3 28 5 27
3 14 28 4
3 29 28 14
3 29 5 28
3 29 149 151
3 151 150 5
3 149 150 151
3 153 152 29
3 154 3 155
3 157 156 2
3 30 158 160
3 160 159 0
3 158 159 160
3 162 161 30
3 164 163 6
3 165 23 166
3 31 167 169
3 167 23 168
3 167 168 169
3 31 2 23
3 27 17 1
3 32 17 27
3 32 7 17
3 170 32 171
3 172 171 5
3 170 171 172
3 33 173 175
3 173 32 174
3 173 174 175
3 33 7 32
3 33 31 7
3 34 31 33
3 34 2 31
3 34 176 178
3 178 177 2
3 176 177 178
3 180 179 34
3 181 15 182
3 183 182 0
3 181 182 183
3 184 15 185
3 187 186 15
3 188 1 189
3 35 190 191
3 35 192 194
3 192 1 193
3 192 193 194
3 35 26 1
3 36 26 35
3 36 4 26
3 19 36 8
3 37 36 19
3 37 4 36
3 37 13 4
3 38 13 37
3 38 0 13
3 195 3 196
3 195 196 197
3 39 198 199
3 39 200 202
3 200 3 201
3 200 201 202
3 39 20 3
3 40 20 39
3 40 9 20
3 203 40 204
3 41 205 207
3 205 40 206
3 205 206 207
3 41 9 40
3 41 38 9
3 42 38 41
3 42 0 38
3 42 30 0
3 43 30 42
3 43 6 30
3 208 43 209
3 44 210 212
3 210 43 211
3 210 211 212
3 44 6 43
3 44 16 6
3 45 16 44
3 45 213 215
3 215 214 16
3 213 214 215
3 46 216 217
3 46 218 220
3 218 10 219
3 218 219 220
3 21 221 223
3 221 46 222
3 221 222 223
3 47 46 21
3 47 10 46
3 47 45 10
3 224 45 225
3 226 225 47
3 224 225 226
3 228 227 45
3 230 229 11
3 24 231 232
3 234 233 24
3 235 25 236
3 237 236 2
3 235 236 237
3 238 25 239
3 240 12 241
3 242 241 25
3 240 241 242
3 243 12 244
3 246 245 12
