ply
format ascii 1.0
element vertex 287
property float x
property float y
property float z
element face 259
property list uchar int vertex_index
end_header
66.567352 -42.63744 30.611313
66.71154 -36.576942 9.539516
65.849052 -41.438831 19.823408
67.418236 -41.001617 40.831326
67.842949 -28.599941 1.464077
66.007637 -42.470764 25.234264
68.871819 -43.531353 20.716988
68.628181 -44.670998 26.266201
62.081169 -34.661461 9.287701
63.007133 -30.776077 5.254786
67.353683 -32.869049 5.161615
66.134224 -39.473938 14.5128
69.289101 -41.568695 15.302434
67.213112 -42.071178 35.866119
64.048943 -26.302395 1.814469
65.029541 -41.520329 29.86235
66.250504 -42.65593 27.932308
67.540665 -43.535835 25.764463
67.62439 -43.762642 28.523777
64.211571 -37.187157 11.713831
61.73175 -36.281559 11.540928
64.548012 -35.589523 9.366362
64.933479 -33.773308 7.176618
67.039024 -34.811123 7.264485
68.960464 -34.080284 5.269596
68.740936 -35.947411 7.454334
63.76049 -40.489212 19.377647
63.793449 -39.643665 16.756836
65.942543 -40.5751 17.14303
67.941086 -40.474449 14.884407
67.727646 -41.568874 17.552629
67.027351 -39.662712 39.665604
66.685371 -40.307762 37.330692
67.406731 -41.581264 38.402138
65.74234 -29.625259 3.309509
63.528442 -28.591806 3.472594
66.112991 -27.373184 1.603743
66.428452 -25.051901 0.002359
65.869606 -42.06839 22.526936
67.583427 -42.443748 20.267624
67.521362 -43.09848 23.009338
68.729019 -44.204559 23.479202
59.885941 -31.904291 7.301451
62.515171 -32.813572 7.189537
65.340561 -31.772053 5.159175
67.629234 -30.786053 3.233824
69.110046 -32.079781 3.259053
63.951393 -38.542561 14.189697
66.400032 -38.137772 11.966278
68.477715 -37.650398 9.80288
68.200745 -39.164993 12.290337
69.534805 -40.290241 12.68263
69.06147 -42.651421 17.987179
65.605309 -41.268764 32.408051
66.18338 -40.854805 34.902863
66.909363 -42.434044 33.260979
67.749092 -42.920345 39.334488
67.860657 -43.339684 36.712219
67.837036 -43.641197 34.015129
67.739113 -43.791267 31.278351
68.549881 -44.936024 29.071657
60.450592 -29.860888 5.44001
61.077789 -27.673416 3.708695
64.538086 -23.943586 0.239126
64.804771 -40.964022 19.600527
63.814728 -40.787728 20.698638
64.859009 -41.262537 20.921518
67.222793 -40.332165 40.248465
67.078964 -39.310249 40.76746
67.274406 -39.979702 41.350321
67.909706 -27.473067 0.64068
67.044727 -26.859688 0.710514
66.97797 -27.986562 1.53391
68.483272 -28.207784 0.585179
67.909706 -27.473067 0.64068
65.066391 -41.958839 24.946174
65.264209 -42.028425 26.25517
65.938622 -42.269577 23.8806
64.997376 -41.757652 23.59251
65.066391 -41.958839 24.946174
69.027484 -45.038044 25.111897
69.077903 -44.804825 23.718397
68.6786 -44.437779 24.872701
60.573658 -35.021599 10.372841
60.398949 -35.831648 11.499455
61.906459 -35.47151 10.414314
60.748314 -34.210048 9.298027
60.573658 -35.021599 10.372841
62.29817 -33.737516 8.238619
60.965315 -33.286104 8.248945
60.748314 -34.210048 9.298027
69.542575 -33.791954 4.334172
69.527374 -34.745096 5.380107
69.818798 -41.546272 14.223581
69.94165 -40.907045 12.91368
69.411953 -40.929468 13.992532
65.233265 -40.461946 33.109917
64.817242 -40.688949 31.925559
67.91351 -43.803472 38.396006
67.718399 -43.63279 39.735636
67.969292 -44.013142 37.084871
67.804875 -43.130015 38.023353
67.91351 -43.803472 38.396006
68.149197 -44.326645 32.950557
68.078495 -44.280437 34.353306
68.100235 -44.40168 31.582168
67.788074 -43.716232 32.64674
68.149197 -44.326645 32.950557
68.505619 -44.974058 30.47882
68.144497 -44.363646 30.175004
68.100235 -44.40168 31.582168
62.890557 -25.843041 1.945688
61.40498 -26.528551 2.8928
62.563366 -26.987906 2.761582
64.293515 -25.122991 1.026798
63.135128 -24.663636 1.158016
62.890557 -25.843041 1.945688
66.547939 -23.870879 -0.770562
67.222409 -24.552924 -0.875945
69.222752 -37.42169 8.775495
69.124489 -38.238518 9.978687
64.775161 -41.553207 28.569214
64.133938 -40.962255 29.440444
65.385643 -42.121008 27.604192
64.775161 -41.553207 28.569214
65.640023 -42.088129 28.897329
66.129071 -42.563347 26.583286
65.264209 -42.028425 26.25517
65.385643 -42.121008 27.604192
62.97166 -36.734358 11.627379
61.61157 -36.963564 12.73256
62.851481 -37.416363 12.819011
69.41761 -35.67866 6.472476
69.527374 -34.745096 5.380107
68.8507 -35.013847 6.361965
62.695076 -40.302864 20.432253
63.814728 -40.787728 20.698638
62.592022 -40.023976 19.156104
62.695076 -40.302864 20.432253
63.776969 -40.066439 18.067242
62.608501 -39.601202 17.845698
62.592022 -40.023976 19.156104
69.376603 -43.684736 19.586789
69.260246 -44.124975 20.95207
66.894901 -38.640148 40.058212
67.078964 -39.310249 40.76746
66.6731 -39.019802 39.001238
66.894901 -38.640148 40.058212
66.856361 -39.985237 38.498148
66.50211 -39.342327 37.833782
66.6731 -39.019802 39.001238
67.202457 -25.699047 -0.090178
66.270721 -26.212542 0.803051
67.044727 -26.859688 0.710514
67.222409 -24.552924 -0.875945
67.202457 -25.699047 -0.090178
64.869286 -41.577317 22.273283
64.997376 -41.757652 23.59251
65.859329 -41.753611 21.175172
64.859009 -41.262537 20.921518
64.869286 -41.577317 22.273283
69.188846 -44.461578 22.333177
69.260246 -44.124975 20.95207
68.800419 -43.867956 22.098095
69.188846 -44.461578 22.333177
69.077903 -44.804825 23.718397
67.301536 -40.685837 41.966515
67.274406 -39.979702 41.350321
60.296017 -36.511042 12.63569
61.61157 -36.963564 12.73256
60.296017 -36.511042 12.63569
60.398949 -35.831648 11.499455
59.6507 -32.831463 8.304902
58.271712 -32.373757 8.365831
61.200556 -32.358931 7.245494
59.6507 -32.831463 8.304902
60.965315 -33.286104 8.248945
68.399131 -30.38316 2.323918
68.505989 -29.290104 1.439045
67.736092 -29.692997 2.34895
69.139537 -31.030024 2.336533
68.399131 -30.38316 2.323918
68.36964 -31.432917 3.246439
69.574932 -31.792078 2.365754
69.139537 -31.030024 2.336533
69.617367 -32.791702 3.328901
69.035255 -33.080033 4.264324
69.542575 -33.791954 4.334172
69.574932 -31.792078 2.365754
69.617367 -32.791702 3.328901
62.587852 -39.191046 16.579293
62.608501 -39.601202 17.845698
62.666825 -38.640493 15.295724
62.587852 -39.191046 16.579293
63.872421 -39.093113 15.473267
62.721392 -38.094065 14.056944
62.666825 -38.640493 15.295724
64.081482 -37.864859 12.951764
62.851481 -37.416363 12.819011
62.721392 -38.094065 14.056944
68.986004 -38.995815 11.222416
69.124489 -38.238518 9.978687
68.33923 -38.407696 11.046608
69.653034 -39.558439 11.418563
68.986004 -38.995815 11.222416
68.867775 -39.727617 12.486483
70.038849 -40.201021 11.638856
69.653034 -39.558439 11.418563
70.038849 -40.201021 11.638856
69.94165 -40.907045 12.91368
69.471428 -43.244771 18.221884
68.966645 -43.091387 19.352083
69.376603 -43.684736 19.586789
69.590717 -42.710712 16.879475
69.471428 -43.244771 18.221884
69.704533 -42.169349 15.537102
69.175286 -42.110058 16.644807
69.590717 -42.710712 16.879475
69.818798 -41.546272 14.223581
69.704533 -42.169349 15.537102
64.529358 -40.814732 30.652708
64.133938 -40.962255 29.440444
65.317425 -41.394546 31.1352
64.529358 -40.814732 30.652708
64.817242 -40.688949 31.925559
66.17004 -39.687694 36.722921
66.50211 -39.342327 37.833782
65.919044 -39.961216 35.509006
66.17004 -39.687694 36.722921
66.434376 -40.581283 36.116777
65.522301 -40.254966 34.357323
65.919044 -39.961216 35.509006
65.894345 -41.061785 33.655457
65.233265 -40.461946 33.109917
65.522301 -40.254966 34.357323
67.431785 -41.710578 41.331104
67.301536 -40.685837 41.966515
67.597214 -42.669942 40.582685
67.718399 -43.63279 39.735636
67.583664 -41.960981 40.082907
67.431785 -41.710578 41.331104
67.597214 -42.669942 40.582685
68.090305 -44.129681 35.701851
67.969292 -44.013142 37.084871
67.848847 -43.49044 35.363674
68.090305 -44.129681 35.701851
68.078495 -44.280437 34.353306
68.762214 -45.566458 29.337452
68.505619 -44.974058 30.47882
68.879158 -45.416071 27.918175
68.762214 -45.566458 29.337452
68.918308 -45.283558 26.515448
68.589031 -44.803511 27.668929
68.879158 -45.416071 27.918175
69.027484 -45.038044 25.111897
68.918308 -45.283558 26.515448
58.518103 -31.459128 7.404164
56.903874 -31.928594 8.468543
58.271712 -32.373757 8.365831
58.800428 -30.437426 6.473443
58.518103 -31.459128 7.404164
60.168267 -30.88259 6.370731
59.110872 -29.431424 5.571287
58.800428 -30.437426 6.473443
59.42447 -28.337688 4.705629
59.110872 -29.431424 5.571287
60.76419 -28.767152 4.574352
59.781136 -27.26314 3.85419
59.42447 -28.337688 4.705629
59.781136 -27.26314 3.85419
61.40498 -26.528551 2.8928
63.457266 -23.48486 0.37161
63.135128 -24.663636 1.158016
64.752293 -22.743079 -0.530969
63.457266 -23.48486 0.37161
65.602756 -23.316721 -0.652178
65.483269 -24.497743 0.120743
66.547939 -23.870879 -0.770562
64.752293 -22.743079 -0.530969
65.602756 -23.316721 -0.652178
68.483272 -28.207784 0.585179
68.505989 -29.290104 1.439045
69.354363 -36.570197 7.601223
68.609326 -36.798905 8.628607
69.222752 -37.42169 8.775495
69.41761 -35.67866 6.472476
69.354363 -36.570197 7.601223
3 0 16 15
3 0 18 16
3 1 21 19
3 1 23 21
3 1 25 23
3 2 64 66
3 64 26 65
3 64 65 66
3 2 28 26
3 2 30 28
3 3 67 69
3 67 31 68
3 67 68 69
3 3 33 31
3 4 36 34
3 4 70 72
3 72 71 36
3 70 71 72
3 4 73 74
3 5 75 76
3 5 77 79
3 77 38 78
3 77 78 79
3 5 40 38
3 7 41 17
3 7 80 82
3 82 81 41
3 80 81 82
3 8 83 85
3 85 84 20
3 83 84 85
3 8 86 87
3 8 88 90
3 88 43 89
3 88 89 90
3 10 44 22
3 10 45 44
3 10 46 45
3 92 91 24
3 11 47 27
3 11 48 47
3 11 50 48
3 12 51 29
3 12 93 95
3 95 94 51
3 93 94 95
3 6 52 39
3 96 53 97
3 13 54 32
3 13 55 54
3 98 56 99
3 100 57 101
3 102 101 56
3 100 101 102
3 103 58 104
3 105 59 106
3 107 106 58
3 105 106 107
3 108 60 109
3 110 109 59
3 108 109 110
3 9 61 42
3 14 62 35
3 14 111 113
3 113 112 62
3 111 112 113
3 14 114 116
3 114 63 115
3 114 115 116
3 118 117 37
3 120 119 49
3 15 121 122
3 16 123 125
3 125 124 15
3 123 124 125
3 16 126 128
3 126 5 127
3 126 127 128
3 16 17 5
3 18 17 16
3 18 7 17
3 19 129 131
3 129 20 130
3 129 130 131
3 21 20 19
3 21 8 20
3 21 22 8
3 23 22 21
3 23 10 22
3 23 24 10
3 25 24 23
3 25 132 134
3 134 133 24
3 132 133 134
3 26 135 136
3 26 137 138
3 26 139 141
3 139 27 140
3 139 140 141
3 28 27 26
3 28 11 27
3 28 29 11
3 30 29 28
3 30 12 29
3 143 142 6
3 31 144 145
3 31 146 147
3 31 148 150
3 148 32 149
3 148 149 150
3 33 32 31
3 33 13 32
3 34 35 9
3 36 35 34
3 36 14 35
3 36 37 14
3 151 37 152
3 153 152 36
3 151 152 153
3 155 154 37
3 38 156 157
3 38 158 160
3 158 2 159
3 158 159 160
3 38 39 2
3 40 39 38
3 40 6 39
3 17 40 5
3 41 40 17
3 41 6 40
3 41 161 163
3 163 162 6
3 161 162 163
3 165 164 41
3 166 3 167
3 20 168 169
3 171 170 20
3 172 42 173
3 43 174 176
3 174 42 175
3 174 175 176
3 43 9 42
3 22 43 8
3 44 43 22
3 44 9 43
3 44 34 9
3 45 34 44
3 45 4 34
3 45 177 179
3 179 178 4
3 177 178 179
3 46 180 182
3 182 181 45
3 180 181 182
3 46 183 184
3 24 46 10
3 185 46 186
3 187 186 24
3 185 186 187
3 189 188 46
3 27 190 191
3 47 192 194
3 194 193 27
3 192 193 194
3 47 195 196
3 47 197 199
3 197 19 198
3 197 198 199
3 48 19 47
3 48 1 19
3 48 49 1
3 50 49 48
3 50 200 202
3 202 201 49
3 200 201 202
3 29 50 11
3 51 50 29
3 51 203 205
3 205 204 50
3 203 204 205
3 51 206 207
3 209 208 51
3 39 30 2
3 52 30 39
3 52 12 30
3 210 52 211
3 212 211 6
3 210 211 212
3 213 52 214
3 215 12 216
3 217 216 52
3 215 216 217
3 219 218 12
3 220 15 221
3 53 222 224
3 222 15 223
3 222 223 224
3 53 0 15
3 32 225 226
3 54 227 229
3 229 228 32
3 227 228 229
3 54 230 231
3 54 232 234
3 232 53 233
3 232 233 234
3 55 53 54
3 55 0 53
3 235 3 236
3 56 237 238
3 56 239 241
3 239 3 240
3 239 240 241
3 56 33 3
3 57 33 56
3 57 13 33
3 242 57 243
3 58 244 246
3 244 57 245
3 244 245 246
3 58 13 57
3 58 55 13
3 59 55 58
3 59 0 55
3 59 18 0
3 60 18 59
3 60 7 18
3 247 60 248
3 249 60 250
3 251 7 252
3 253 252 60
3 251 252 253
3 255 254 7
3 42 256 258
3 256 257 258
3 61 259 261
3 261 260 42
3 259 260 261
3 61 262 263
3 35 61 9
3 62 61 35
3 62 264 266
3 266 265 61
3 264 265 266
3 62 267 268
3 270 269 62
3 63 271 272
3 63 273 274
3 37 63 14
3 275 63 276
3 277 276 37
3 275 276 277
3 279 278 63
3 281 280 4
3 49 25 1
3 282 25 283
3 284 283 49
3 282 283 284
3 286 285 25
