ply
format ascii 1.0
element vertex 106
property float x
property float y
property float z
element face 87
property list uchar int vertex_index
end_header
44.387497 35.317173 4.070744
51.978668 31.279736 6.164499
48.848511 39.67392 2.597615
48.258934 33.439392 5.249997
52.334118 37.569599 4.579227
55.120007 35.313824 6.700931
50.645348 38.652325 3.584949
44.153069 31.950272 5.440697
50.171326 32.376564 5.715784
46.618999 37.621227 3.293017
46.308849 34.435253 4.718769
48.527782 36.650112 4.069952
50.396217 35.594662 4.797118
52.156197 34.493114 5.518784
46.086327 31.051891 5.872793
53.847473 36.453159 5.611998
53.739452 33.367561 6.270094
56.092361 34.147984 7.848783
55.079903 32.223915 7.073769
44.270283 33.633722 4.755721
43.234186 32.326401 5.131883
43.3514 34.009851 4.446907
50.981943 30.147616 6.27727
50.078272 30.69603 6.052912
51.074997 31.82815 5.940142
51.89991 29.613029 6.373845
50.981943 30.147616 6.27727
43.473769 35.673372 3.664727
44.562245 36.887106 3.245166
43.3514 34.009851 4.446907
43.473769 35.673372 3.664727
47.929673 40.132765 2.087372
49.023319 41.089535 1.71972
47.733755 38.647574 2.945316
46.814917 39.106419 2.435073
47.929673 40.132765 2.087372
54.48374 35.883491 6.156465
54.470978 37.373071 5.800508
55.107245 36.803404 6.344975
56.405338 33.545198 8.447751
56.32434 35.051816 8.366328
55.045406 30.629892 7.118458
55.59956 31.639612 7.507233
54.34664 31.194748 6.855211
55.045406 30.629892 7.118458
50.769566 40.097355 2.830101
49.74693 39.163123 3.091282
49.871147 40.608153 2.336434
51.564894 39.576427 3.456095
50.769566 40.097355 2.830101
52.409279 39.035064 3.953235
51.489733 38.110962 4.082088
51.564894 39.576427 3.456095
49.871147 40.608153 2.336434
49.023319 41.089535 1.71972
43.175175 30.54999 5.783378
43.234186 32.326401 5.131883
44.087463 30.167983 6.00452
43.175175 30.54999 5.783378
49.111561 31.21813 5.943339
48.155365 31.749544 5.710445
49.21513 32.907978 5.48289
49.111561 31.21813 5.943339
50.078272 30.69603 6.052912
55.556887 36.229114 7.05718
55.107245 36.803404 6.344975
45.677996 38.039133 2.856302
46.814917 39.106419 2.435073
45.503248 36.4692 3.681881
44.562245 36.887106 3.245166
45.677996 38.039133 2.856302
45.054092 29.718792 6.220568
44.087463 30.167983 6.00452
45.119698 31.501081 5.656745
47.069062 30.555794 6.021843
47.17263 32.245641 5.561395
48.155365 31.749544 5.710445
46.015369 29.275383 6.340899
47.069062 30.555794 6.021843
45.054092 29.718792 6.220568
46.015369 29.275383 6.340899
53.119835 38.490799 4.60293
52.409279 39.035064 3.953235
53.876513 37.932579 5.119315
54.470978 37.373071 5.800508
53.090795 37.011379 5.095612
53.119835 38.490799 4.60293
53.876513 37.932579 5.119315
56.043064 35.646195 7.631106
56.32434 35.051816 8.366328
55.606184 34.730904 7.274857
55.556887 36.229114 7.05718
56.043064 35.646195 7.631106
56.105789 32.601647 7.89474
56.405338 33.545198 8.447751
55.586132 33.185949 7.461276
56.105789 32.601647 7.89474
55.59956 31.639612 7.507233
53.676414 31.766571 6.453373
54.409678 32.795738 6.671932
54.34664 31.194748 6.855211
52.796022 30.722659 6.400576
52.85906 32.323649 6.217296
53.676414 31.766571 6.453373
51.89991 29.613029 6.373845
52.796022 30.722659 6.400576
3 0 19 21
3 19 7 20
3 19 20 21
3 1 22 24
3 24 23 8
3 22 23 24
3 1 25 26
3 0 27 28
3 0 29 30
3 2 11 9
3 4 12 6
3 4 13 12
3 2 31 32
3 2 33 35
3 33 9 34
3 33 34 35
3 3 14 10
3 5 36 38
3 36 15 37
3 36 37 38
3 5 16 15
3 39 17 40
3 41 18 42
3 44 43 18
3 45 6 46
3 47 46 2
3 45 46 47
3 48 6 49
3 50 4 51
3 52 51 6
3 50 51 52
3 53 2 54
3 7 55 56
3 7 57 58
3 8 59 61
3 61 60 3
3 59 60 61
3 63 62 8
3 64 5 65
3 9 10 0
3 11 10 9
3 11 3 10
3 6 11 2
3 12 11 6
3 12 3 11
3 12 8 3
3 13 8 12
3 13 1 8
3 9 66 67
3 9 68 70
3 68 0 69
3 68 69 70
3 10 7 0
3 14 7 10
3 14 71 73
3 73 72 7
3 71 72 73
3 74 14 75
3 76 75 3
3 74 75 76
3 77 14 78
3 80 79 14
3 81 4 82
3 15 83 84
3 15 85 87
3 85 4 86
3 85 86 87
3 15 13 4
3 16 13 15
3 16 1 13
3 17 88 89
3 17 90 92
3 90 5 91
3 90 91 92
3 93 17 94
3 18 95 97
3 95 17 96
3 95 96 97
3 18 5 17
3 18 16 5
3 98 16 99
3 100 99 18
3 98 99 100
3 101 1 102
3 103 102 16
3 101 102 103
3 105 104 1
