ply
format ascii 1.0
element vertex 110
property float x
property float y
property float z
element face 95
property list uchar int vertex_index
end_header
46.587601 64.070152 -11.347015
47.873657 60.880127 -1.439663
44.720406 64.184715 2.237878
43.937813 68.348541 -8.37896
44.584251 66.566444 -3.174877
47.571175 62.837631 -6.557182
44.680553 66.71032 -12.304174
45.773697 64.303749 -13.523983
46.293045 62.59259 0.3042
44.695259 65.439583 -0.488325
46.27409 63.750809 -2.357887
46.137569 64.773766 -4.971905
47.794388 61.931419 -4.02725
49.128208 60.025764 -5.446899
49.335655 59.08622 -2.948349
48.214554 61.39534 -10.213362
47.472328 61.739021 -12.417162
43.329369 68.934578 -10.834568
45.373108 66.295563 -9.982391
44.344269 67.545631 -5.812847
45.848022 65.634361 -7.523504
47.17762 63.564949 -9.009121
48.760117 60.808647 -7.876961
48.525352 60.290329 -10.646897
48.891253 60.067203 -9.544549
43.633591 68.641559 -9.606764
42.568714 69.922882 -9.999275
42.872936 69.629863 -8.771471
43.934145 65.569996 1.887021
43.978218 64.900078 3.277452
43.795254 67.368538 -2.194384
43.850758 66.805107 -0.851109
44.639755 66.003014 -1.831601
43.673439 67.907932 -3.551209
43.795254 67.368538 -2.194384
44.46426 67.056038 -4.493862
43.553448 68.397526 -4.870195
43.673439 67.907932 -3.551209
49.628016 59.052307 -6.005851
49.825786 58.637245 -4.810986
46.992272 61.765411 -13.430231
47.696354 60.554542 -12.77899
44.209951 66.768281 -13.371328
43.582448 67.981304 -12.717385
44.756523 65.564995 -13.981233
44.209951 66.768281 -13.371328
45.227125 65.507035 -12.914078
45.242233 64.260666 -14.508507
44.756523 65.564995 -13.981233
43.156723 69.260838 -7.483491
42.872936 69.629863 -8.771471
49.92951 58.167473 -3.561711
49.825786 58.637245 -4.810986
49.231932 59.555992 -4.197624
44.715485 63.501072 3.62063
43.978218 64.900078 3.277452
45.478707 62.752086 2.624941
44.715485 63.501072 3.62063
46.265026 61.956024 1.658101
45.506726 63.388652 1.271039
45.478707 62.752086 2.624941
47.06665 61.150841 0.751756
46.265026 61.956024 1.658101
47.856956 60.294609 -0.120175
47.083351 61.736359 -0.567731
47.06665 61.150841 0.751756
48.637321 59.450344 -0.915788
47.856956 60.294609 -0.120175
48.15424 60.46217 -11.748797
47.843441 61.56718 -11.315262
48.525352 60.290329 -10.646897
47.696354 60.554542 -12.77899
48.15424 60.46217 -11.748797
42.176772 70.176495 -11.22291
42.568714 69.922882 -9.999275
42.906857 69.093434 -11.982582
42.176772 70.176495 -11.22291
44.004961 67.822449 -11.569371
43.582448 67.981304 -12.717385
42.906857 69.093434 -11.982582
43.921571 66.197429 0.52392
43.934145 65.569996 1.887021
44.707832 64.812149 0.874776
43.921571 66.197429 0.52392
43.850758 66.805107 -0.851109
43.359951 68.859383 -6.200435
43.553448 68.397526 -4.870195
44.141041 67.947086 -7.095903
43.156723 69.260838 -7.483491
43.359951 68.859383 -6.200435
49.164034 59.773857 -8.376348
48.891253 60.067203 -9.544549
48.487336 61.101993 -9.045161
49.44397 59.443748 -7.220881
48.944163 60.417206 -6.66193
49.628016 59.052307 -6.005851
49.164034 59.773857 -8.376348
49.44397 59.443748 -7.220881
49.368321 58.55339 -1.670131
48.604656 59.983173 -2.194006
48.637321 59.450344 -0.915788
50.048008 57.685451 -2.334329
49.368321 58.55339 -1.670131
49.92951 58.167473 -3.561711
50.048008 57.685451 -2.334329
46.142956 63.047775 -13.983642
46.623013 63.021385 -12.970572
46.992272 61.765411 -13.430231
45.242233 64.260666 -14.508507
46.142956 63.047775 -13.983642
3 0 7 6
3 1 10 8
3 1 12 10
3 1 14 12
3 24 23 15
3 3 25 27
3 25 17 26
3 25 26 27
3 3 18 17
3 2 28 29
3 4 30 32
3 32 31 9
3 30 31 32
3 4 33 34
3 4 35 37
3 35 19 36
3 35 36 37
3 5 20 11
3 5 21 20
3 5 22 21
3 39 38 13
3 41 40 16
3 6 42 43
3 7 44 46
3 46 45 6
3 44 45 46
3 7 47 48
3 49 3 50
3 8 9 2
3 10 9 8
3 10 4 9
3 10 11 4
3 12 11 10
3 12 5 11
3 12 13 5
3 14 13 12
3 14 51 53
3 53 52 13
3 51 52 53
3 54 2 55
3 56 2 57
3 58 8 59
3 60 59 2
3 58 59 60
3 61 8 62
3 63 1 64
3 65 64 8
3 63 64 65
3 67 66 1
3 15 16 0
3 68 16 69
3 70 69 15
3 68 69 70
3 72 71 16
3 17 73 74
3 17 75 76
3 17 77 79
3 77 6 78
3 77 78 79
3 18 6 17
3 18 0 6
3 9 80 82
3 82 81 2
3 80 81 82
3 84 83 9
3 19 85 86
3 19 87 89
3 87 3 88
3 87 88 89
3 11 19 4
3 20 19 11
3 20 3 19
3 20 18 3
3 21 18 20
3 21 0 18
3 21 15 0
3 22 15 21
3 22 90 92
3 92 91 15
3 90 91 92
3 13 22 5
3 93 22 94
3 95 94 13
3 93 94 95
3 97 96 22
3 98 14 99
3 100 99 1
3 98 99 100
3 101 14 102
3 104 103 14
3 16 7 0
3 105 7 106
3 107 106 16
3 105 106 107
3 109 108 7
