ply
format ascii 1.0
element vertex 224
property float x
property float y
property float z
element face 211
property list uchar int vertex_index
end_header
51.582611 -82.377319 -21.657412
45.985985 -80.676727 -25.463095
50.118759 -63.651058 -29.787161
54.585487 -45.974083 -36.250626
53.87896 -75.118759 -24.076361
47.207874 -60.8134 -31.111921
52.398636 -54.849731 -32.79483
49.550819 -51.719894 -34.112946
51.682568 -42.733944 -37.423576
49.047615 -81.853195 -23.968767
51.057739 -74.027893 -25.951754
53.119797 -65.945312 -28.416647
47.975426 -72.281815 -27.335794
44.937458 -69.905457 -28.538153
55.251045 -57.542637 -31.373102
54.991512 -71.406296 -25.399549
48.382458 -56.258785 -32.566597
46.961548 -54.562851 -33.194534
48.119087 -49.976185 -34.710739
47.556824 -81.34552 -24.79751
50.050468 -77.967712 -24.906805
48.532307 -77.319229 -25.676893
49.525433 -73.233566 -26.681086
46.967228 -76.510818 -26.331205
51.61116 -64.86882 -29.112837
54.18042 -61.784637 -29.837252
52.706577 -60.589218 -30.539446
53.52729 -50.415127 -34.474678
54.923523 -51.871456 -33.765274
55.972736 -47.45813 -35.538002
55.50811 -41.540237 -38.106697
44.38678 -79.84343 -26.011614
52.738861 -78.771744 -22.832769
53.821976 -78.920151 -21.463472
55.071068 -75.40274 -22.84355
48.651596 -62.299572 -30.454821
51.25053 -59.26585 -31.227175
49.811356 -57.822975 -31.905989
50.977982 -53.340069 -33.471275
52.110901 -48.86277 -35.134361
53.154572 -44.401993 -36.879417
50.669891 -47.207653 -35.736145
49.21347 -45.434883 -36.281288
50.404377 -82.198334 -22.932196
51.469467 -78.453491 -23.972715
52.526119 -74.65889 -25.099981
53.575356 -70.802238 -26.329054
52.078766 -70.024139 -27.120123
50.549576 -69.08432 -27.825102
49.024494 -67.993088 -28.487562
45.398689 -75.540604 -26.911173
46.440361 -71.173874 -27.950029
47.524166 -66.755234 -29.132597
46.055008 -65.368805 -29.764532
53.82032 -56.252987 -32.094574
56.311058 -53.227257 -33.014153
54.040962 -39.972778 -38.691277
56.209456 -69.789154 -25.588985
55.531385 -69.509659 -26.100166
45.674679 -55.980711 -32.764293
46.373066 -56.873461 -32.46902
46.260331 -53.641388 -33.487354
45.674679 -55.980711 -32.764293
46.771405 -81.011123 -25.130302
46.284502 -83.060722 -24.753732
45.499083 -82.726326 -25.086525
52.070231 -82.383144 -20.897407
51.005532 -84.154144 -21.091498
55.747589 -44.501175 -36.824898
56.441214 -45.243198 -36.468586
55.279111 -46.716106 -35.894314
55.046799 -43.75716 -37.178661
56.2089 -42.284252 -37.752933
55.747589 -44.501175 -36.824898
47.956516 -46.763302 -35.773494
48.666279 -47.705534 -35.496014
47.409324 -49.033953 -34.98822
48.48966 -44.480598 -36.533787
47.956516 -46.763302 -35.773494
48.544193 -83.769226 -23.538775
47.815294 -83.582817 -23.992481
49.725996 -82.025765 -23.450482
49.222574 -83.941795 -23.020489
48.544193 -83.769226 -23.538775
44.09942 -77.188774 -26.694986
44.892735 -77.692017 -26.461393
43.593466 -79.340187 -26.245207
45.68891 -70.539665 -28.244091
45.148159 -72.787766 -27.696003
44.396707 -72.153557 -27.990065
54.263309 -78.912323 -20.664865
54.948346 -77.217491 -21.424942
54.389717 -64.389966 -28.755871
53.869759 -66.40562 -28.039684
55.970676 -58.121657 -30.99493
55.435364 -60.242656 -30.227005
54.715733 -59.663637 -30.605177
56.475166 -56.004526 -31.796277
55.970676 -58.121657 -30.99493
56.819004 -51.039757 -33.882699
55.617291 -52.549357 -33.389713
56.125236 -50.361857 -34.258259
57.48758 -51.685456 -33.456413
56.819004 -51.039757 -33.882699
55.634985 -71.616803 -24.84189
55.078709 -73.473034 -24.180296
54.435236 -73.262528 -24.737955
55.634985 -71.616803 -24.84189
56.209456 -69.789154 -25.588985
47.083521 -57.721428 -32.155051
47.795166 -58.536093 -31.839259
46.496229 -59.998736 -31.427713
47.672003 -55.410818 -32.880566
47.083521 -57.721428 -32.155051
46.373066 -56.873461 -32.46902
46.8391 -51.348055 -34.245457
47.540318 -52.269518 -33.952636
46.260331 -53.641388 -33.487354
47.409324 -49.033953 -34.98822
46.8391 -51.348055 -34.245457
47.069899 -83.32898 -24.406852
46.284502 -83.060722 -24.753732
48.302219 -81.599357 -24.383139
47.815294 -83.582817 -23.992481
47.069899 -83.32898 -24.406852
43.646524 -71.494293 -28.2342
44.396707 -72.153557 -27.990065
44.205515 -69.186527 -28.817309
43.646524 -71.494293 -28.2342
56.649843 -48.155193 -35.144623
56.125236 -50.361857 -34.258259
55.44813 -49.664793 -34.651638
57.111799 -45.946762 -36.057118
56.649843 -48.155193 -35.144623
57.111799 -45.946762 -36.057118
56.441214 -45.243198 -36.468586
56.585873 -40.07029 -38.720504
56.2089 -42.284252 -37.752933
55.86417 -39.33659 -39.066322
56.585873 -40.07029 -38.720504
52.102129 -40.52706 -38.293582
50.935598 -41.844545 -37.661533
44.685358 -82.374706 -25.350346
45.499083 -82.726326 -25.086525
43.885756 -81.958057 -25.624606
45.186383 -80.260078 -25.737355
44.685358 -82.374706 -25.350346
43.069097 -81.518765 -25.82777
43.885756 -81.958057 -25.624606
43.593466 -79.340187 -26.245207
43.069097 -81.518765 -25.82777
55.572891 -75.458786 -22.114981
54.948346 -77.217491 -21.424942
54.446522 -77.161445 -22.153511
55.674763 -73.615025 -23.56389
54.475014 -75.26075 -23.459955
55.078709 -73.473034 -24.180296
56.234669 -73.734371 -22.898506
55.674763 -73.615025 -23.56389
55.572891 -75.458786 -22.114981
56.234669 -73.734371 -22.898506
49.701049 -43.195015 -37.090389
50.935598 -41.844545 -37.661533
50.448019 -44.084413 -36.852432
49.701049 -43.195015 -37.090389
48.48966 -44.480598 -36.533787
50.458412 -84.134956 -21.803957
51.005532 -84.154144 -21.091498
49.869295 -84.045464 -22.441349
49.222574 -83.941795 -23.020489
50.993494 -82.287826 -22.294804
50.458412 -84.134956 -21.803957
49.869295 -84.045464 -22.441349
54.823307 -69.20763 -26.564918
55.531385 -69.509659 -26.100166
54.283434 -71.104267 -25.864301
54.097538 -68.834083 -26.995888
54.823307 -69.20763 -26.564918
53.349243 -68.445034 -27.391422
54.097538 -68.834083 -26.995888
52.827061 -70.413189 -26.724588
52.599282 -67.984725 -27.768385
53.869759 -66.40562 -28.039684
53.349243 -68.445034 -27.391422
44.627323 -74.971131 -27.176575
44.09942 -77.188774 -26.694986
45.919525 -73.357239 -27.430601
44.627323 -74.971131 -27.176575
45.148159 -72.787766 -27.696003
44.76429 -66.918201 -29.430498
45.496233 -67.637131 -29.151342
44.205515 -69.186527 -28.817309
45.33606 -64.597338 -30.068379
44.76429 -66.918201 -29.430498
45.912492 -62.319636 -30.742073
46.631441 -63.091102 -30.438226
45.33606 -64.597338 -30.068379
46.496229 -59.998736 -31.427713
45.912492 -62.319636 -30.742073
53.189913 -80.65456 -20.800438
52.070231 -82.383144 -20.897407
52.702293 -80.648735 -21.560442
53.189913 -80.65456 -20.800438
54.263309 -78.912323 -20.664865
54.920029 -62.309629 -29.466174
54.389717 -64.389966 -28.755871
53.650109 -63.864975 -29.12695
54.920029 -62.309629 -29.466174
55.435364 -60.242656 -30.227005
57.005173 -53.846836 -32.616802
56.475166 -56.004526 -31.796277
55.781052 -55.384947 -32.193627
57.005173 -53.846836 -32.616802
57.48758 -51.685456 -33.456413
55.130596 -38.55286 -39.358612
55.86417 -39.33659 -39.066322
54.774536 -40.756507 -38.398987
53.281326 -39.146476 -38.927433
52.861765 -41.353361 -38.057426
52.102129 -40.52706 -38.293582
54.368158 -37.786911 -39.622227
53.281326 -39.146476 -38.927433
55.130596 -38.55286 -39.358612
54.368158 -37.786911 -39.622227
3 58 57 15
3 59 17 60
3 62 61 17
3 1 63 65
3 63 19 64
3 63 64 65
3 1 21 19
3 1 23 21
3 0 66 67
3 2 26 24
3 3 29 27
3 3 68 70
3 70 69 29
3 68 69 70
3 3 71 73
3 71 30 72
3 71 72 73
3 4 34 32
3 5 37 35
3 7 38 16
3 7 39 38
3 7 41 39
3 74 42 75
3 76 75 18
3 74 75 76
3 78 77 42
3 9 79 80
3 9 81 83
3 81 43 82
3 81 82 83
3 9 44 43
3 10 45 20
3 10 46 45
3 10 47 46
3 12 48 22
3 12 49 48
3 84 50 85
3 86 85 31
3 84 85 86
3 13 87 89
3 87 51 88
3 87 88 89
3 13 52 51
3 13 53 52
3 91 90 33
3 11 92 93
3 14 94 96
3 96 95 25
3 94 95 96
3 14 97 98
3 6 54 36
3 99 55 100
3 101 100 28
3 99 100 101
3 103 102 55
3 8 56 40
3 15 104 106
3 106 105 4
3 104 105 106
3 108 107 15
3 109 16 110
3 111 110 5
3 109 110 111
3 17 112 114
3 112 16 113
3 112 113 114
3 17 7 16
3 17 18 7
3 115 18 116
3 117 116 17
3 115 116 117
3 119 118 18
3 19 120 121
3 19 122 124
3 122 9 123
3 122 123 124
3 19 20 9
3 21 20 19
3 21 10 20
3 21 22 10
3 23 22 21
3 23 12 22
3 125 13 126
3 128 127 13
3 24 25 11
3 26 25 24
3 26 14 25
3 27 28 6
3 29 28 27
3 29 129 131
3 131 130 28
3 129 130 131
3 29 132 133
3 135 134 29
3 30 136 137
3 30 138 139
3 141 140 8
3 142 1 143
3 144 31 145
3 146 145 1
3 144 145 146
3 147 31 148
3 150 149 31
3 32 33 0
3 34 33 32
3 34 151 153
3 153 152 33
3 151 152 153
3 154 34 155
3 156 155 4
3 154 155 156
3 157 34 158
3 160 159 34
3 35 36 2
3 37 36 35
3 37 6 36
3 16 37 5
3 38 37 16
3 38 6 37
3 38 27 6
3 39 27 38
3 39 3 27
3 39 40 3
3 41 40 39
3 41 8 40
3 18 41 7
3 42 41 18
3 42 8 41
3 42 161 163
3 163 162 8
3 161 162 163
3 165 164 42
3 166 0 167
3 43 168 169
3 43 170 172
3 170 0 171
3 170 171 172
3 43 32 0
3 44 32 43
3 44 4 32
3 20 44 9
3 45 44 20
3 45 4 44
3 45 15 4
3 46 15 45
3 46 173 175
3 175 174 15
3 173 174 175
3 46 176 177
3 47 178 180
3 180 179 46
3 178 179 180
3 47 181 183
3 181 11 182
3 181 182 183
3 22 47 10
3 48 47 22
3 48 11 47
3 48 24 11
3 49 24 48
3 49 2 24
3 31 23 1
3 50 23 31
3 50 12 23
3 184 50 185
3 51 186 188
3 186 50 187
3 186 187 188
3 51 12 50
3 51 49 12
3 52 49 51
3 52 2 49
3 52 35 2
3 53 35 52
3 53 5 35
3 189 53 190
3 191 190 13
3 189 190 191
3 192 53 193
3 194 5 195
3 196 195 53
3 194 195 196
3 198 197 5
3 33 199 201
3 201 200 0
3 199 200 201
3 203 202 33
3 25 204 206
3 206 205 11
3 204 205 206
3 208 207 25
3 36 26 2
3 54 26 36
3 54 14 26
3 28 54 6
3 55 54 28
3 55 14 54
3 55 209 211
3 211 210 14
3 209 210 211
3 213 212 55
3 40 30 3
3 56 30 40
3 56 214 216
3 216 215 30
3 214 215 216
3 217 56 218
3 219 218 8
3 217 218 219
3 220 56 221
3 223 222 56
