ply
format ascii 1.0
element vertex 445
property float x
property float y
property float z
element face 485
property list uchar int vertex_index
end_header
49.896248 -10.885262 16.426113
53.000072 -31.874119 22.917637
46.569439 -28.34927 10.645838
42.8857 -10.122377 15.434201
40.785374 -21.031933 11.463001
43.170769 -22.714113 17.262663
59.377373 -38.0303 27.063494
56.434311 -37.580948 18.12295
42.388012 -18.248203 3.146982
47.663784 -31.927483 17.362925
56.657482 -32.843224 9.430211
46.040352 -10.541408 16.278091
42.647972 -16.794044 16.657242
45.748459 -17.079391 17.901846
63.238335 -40.404182 29.018539
62.007118 -40.429283 24.030262
40.46841 -13.973214 3.159034
39.765442 -14.968496 7.462966
43.022045 -25.170279 11.22783
43.828804 -23.174189 7.405369
47.493118 -28.084768 19.563187
49.899406 -32.307278 20.288174
61.49139 -37.645569 13.924191
56.16375 -35.781105 13.623843
39.709198 -15.728201 11.3211
40.618076 -16.329836 14.45454
41.364368 -22.0345 14.772934
43.283768 -26.770521 14.591257
55.80867 -35.256752 24.923059
53.319595 -35.643272 21.338409
57.519402 -38.257935 22.665377
61.423553 -39.558739 18.934561
41.247524 -19.777491 7.511464
45.328381 -20.887037 3.246264
46.146851 -22.971796 18.906128
44.799057 -27.784782 17.380707
46.52964 -30.572464 14.119224
51.656757 -35.140442 17.564596
50.960258 -33.52092 13.706636
51.261585 -30.827135 9.94408
47.89624 -10.727566 16.414452
45.829197 -13.883318 17.171631
47.70385 -14.001108 17.40057
64.520782 -41.586086 27.276077
39.324909 -12.011314 7.404475
39.302402 -12.333635 9.3453
44.635418 -26.863194 10.970401
44.995636 -25.704298 9.145765
50.157524 -30.184748 21.006313
51.359657 -32.17395 21.63221
41.639629 -9.9043 14.660304
40.564079 -13.118967 14.101423
41.499638 -13.340754 15.236257
42.788338 -19.854437 17.035799
41.676685 -19.610516 15.976662
42.111736 -22.421532 16.126942
42.160816 -24.522274 14.73677
42.838333 -25.007126 16.145405
57.518105 -36.707588 25.99761
56.340797 -36.959522 24.013464
58.359524 -38.24017 24.888842
63.868965 -41.086243 22.019629
61.629662 -40.116516 21.486858
41.314007 -16.324005 3.133664
40.123764 -18.533096 11.435215
40.148762 -18.0742 9.53767
40.905937 -20.435228 9.553389
46.334236 -23.121124 5.290779
44.51981 -22.065834 5.360881
47.721107 -20.119446 18.901949
47.996582 -22.932144 19.464258
47.190487 -30.248381 18.685408
46.012825 -28.025188 18.543653
46.077995 -29.975201 17.363522
45.256008 -29.48402 15.923429
46.949196 -31.371445 15.776329
54.553879 -36.864136 19.904663
52.374233 -35.52224 19.471878
53.977921 -36.440571 17.801458
56.321548 -34.444744 11.474128
53.500969 -34.721561 13.615512
53.599297 -33.428284 11.592176
50.990356 -32.294369 11.803787
53.908958 -31.877621 9.647736
44.360462 -10.336722 15.964984
42.699837 -13.545408 16.11985
44.15094 -13.728689 16.757463
44.075512 -16.963053 17.391092
44.185875 -20.025076 17.860691
61.315979 -39.252289 28.080395
60.459984 -39.414787 25.743011
62.550552 -40.517994 26.544977
64.125145 -41.446915 24.658085
39.509041 -11.644907 5.344604
40.060207 -14.506775 5.348002
40.794205 -16.981911 5.353147
41.741386 -23.236586 11.394954
41.950909 -22.470449 9.50028
43.31218 -24.212042 9.366004
48.483795 -25.557131 19.965101
49.200356 -27.978306 20.462107
48.562782 -30.310841 19.894356
48.656364 -32.234833 18.867754
58.815865 -37.815907 16.09338
56.198467 -36.828617 15.85162
58.860283 -36.740524 13.730452
59.066147 -35.381737 11.457982
59.415459 -33.758636 9.308353
39.481663 -12.620571 11.13028
39.89489 -12.880161 12.725495
40.028709 -16.045881 12.994076
40.352989 -18.942858 13.159227
41.491016 -16.580536 15.679523
40.865318 -19.303669 14.680503
40.927906 -21.567307 13.211535
41.800816 -23.925627 13.14757
43.002125 -26.031092 12.974881
44.541275 -27.900448 12.71567
54.294621 -33.652885 23.883707
52.802917 -33.953426 22.351999
54.472862 -35.540421 23.155214
55.345886 -37.025063 21.980459
56.875027 -38.049114 20.403616
59.769718 -39.379501 23.358936
59.263672 -39.118607 20.940622
58.947033 -38.604767 18.508879
61.382256 -38.738426 16.401751
49.740108 -14.075184 17.494057
55.931141 -33.221069 25.379986
57.294151 -34.833618 26.649761
58.84639 -36.306213 27.933971
60.540482 -37.659508 29.185656
62.301582 -38.917519 30.364616
64.029175 -40.109135 31.443066
39.633598 -15.371908 9.465992
40.388191 -17.56057 7.499146
41.759892 -19.052471 5.366401
42.385994 -21.635605 7.486606
42.994911 -20.732546 5.376825
43.721313 -19.754219 3.19295
47.633537 -17.136805 18.225965
45.842094 -20.114367 18.47118
44.52549 -22.899715 18.182934
46.690899 -25.634172 19.251799
45.127396 -25.57148 18.394096
43.833019 -25.361271 17.363804
43.883106 -27.362516 16.063063
44.743221 -28.78442 14.370593
46.407455 -29.553778 12.405173
51.492287 -34.079319 20.768745
50.394009 -33.987888 19.124863
49.535301 -33.64463 17.421097
53.625977 -35.72921 15.695124
51.182426 -34.474773 15.63486
48.938202 -33.030384 15.668342
48.616501 -32.145935 13.884108
48.572323 -31.011305 12.086658
48.793945 -29.660686 10.289846
39.338806 -10.781486 10.107003
39.197031 -10.659273 9.259636
46.778483 -27.672901 9.747333
45.811472 -26.929863 9.909615
45.602429 -27.606232 10.80812
47.912485 -28.242277 9.572906
46.778483 -27.672901 9.747333
52.179865 -32.024034 22.274923
51.646282 -31.038778 21.839936
52.46649 -30.888863 22.482649
63.814728 -40.787728 20.698638
64.859009 -41.262537 20.921518
42.731676 -17.798149 2.014754
42.194673 -16.83605 2.008095
41.85101 -17.286104 3.140323
43.447738 -18.467806 2.051912
42.731676 -17.798149 2.014754
46.769293 -22.422508 4.280854
47.830253 -22.740018 4.262443
49.013466 -22.861621 19.682739
48.888914 -21.487929 19.331844
56.903874 -31.928594 8.468543
55.529612 -31.445793 8.577306
55.28322 -32.360422 9.538974
65.066391 -41.958839 24.946174
64.322964 -41.5165 25.967081
65.264209 -42.028425 26.25517
64.997376 -41.757652 23.59251
65.066391 -41.958839 24.946174
39.258083 -10.184186 6.328449
39.297949 -10.043467 5.332135
45.287388 -25.077539 8.198125
46.308201 -25.617425 8.081188
50.145102 -27.855111 20.868241
49.830467 -26.668385 20.517988
60.573658 -35.021599 10.372841
60.398949 -35.831648 11.499455
60.748314 -34.210048 9.298027
59.240803 -34.570187 10.383167
60.573658 -35.021599 10.372841
60.965315 -33.286104 8.248945
60.748314 -34.210048 9.298027
40.26625 -11.282293 13.180141
39.889853 -11.170517 12.545053
56.292488 -32.080934 25.398716
55.355576 -32.335683 24.774927
58.089824 -34.569208 27.497985
57.481411 -33.764372 26.754852
58.865944 -35.305505 28.14009
58.07027 -35.569916 27.291866
58.089824 -34.569208 27.497985
61.16923 -37.406384 30.220406
60.409956 -36.722165 29.50636
62.049779 -38.035389 30.809886
61.421032 -38.288514 29.775136
61.16923 -37.406384 30.220406
64.445198 -39.882131 32.627425
63.694679 -39.27125 32.017516
64.817242 -40.688949 31.925559
64.445198 -39.882131 32.627425
40.703729 -13.662133 2.048726
40.139078 -12.598951 3.182704
45.76239 -20.258516 2.160556
44.958856 -19.692107 2.133898
44.524847 -20.320628 3.219607
48.663019 -17.134868 18.318807
48.686822 -15.605994 17.860011
49.716304 -15.604057 17.952854
51.506059 -29.994284 9.039506
50.272239 -29.411059 9.21239
50.027765 -30.24391 10.116963
64.775161 -41.553207 28.569214
63.879559 -40.995134 28.147308
64.133938 -40.962255 29.440444
65.385643 -42.121008 27.604192
64.775161 -41.553207 28.569214
65.264209 -42.028425 26.25517
65.385643 -42.121008 27.604192
39.208284 -10.498112 8.289224
39.166017 -10.36739 7.358385
39.313655 -12.172474 8.374887
39.208284 -10.498112 8.289224
39.197031 -10.659273 9.259636
45.991581 -26.350415 8.997297
44.815527 -26.283746 10.058083
45.811472 -26.929863 9.909615
46.308201 -25.617425 8.081188
45.991581 -26.350415 8.997297
51.045215 -30.044177 21.526987
50.623686 -28.958331 21.140344
50.75859 -31.179349 21.319261
51.045215 -30.044177 21.526987
51.646282 -31.038778 21.839936
61.61157 -36.963564 12.73256
62.851481 -37.416363 12.819011
41.101854 -11.511633 14.380864
40.600845 -11.401696 13.868105
41.13862 -9.794362 14.147545
62.695076 -40.302864 20.432253
62.749313 -40.60138 21.753243
63.814728 -40.787728 20.698638
62.592022 -40.023976 19.156104
61.526607 -39.837627 20.21071
62.695076 -40.302864 20.432253
62.608501 -39.601202 17.845698
62.592022 -40.023976 19.156104
41.603651 -15.946506 2.005193
41.180853 -14.771111 2.017877
40.891208 -15.148609 3.146349
41.603651 -15.946506 2.005193
42.194673 -16.83605 2.008095
45.86208 -21.894863 4.315905
45.427023 -22.593479 5.32583
46.769293 -22.422508 4.280854
46.266365 -21.305464 3.258597
44.924095 -21.476436 4.303572
45.86208 -21.894863 4.315905
46.73004 -20.57269 2.220441
46.266365 -21.305464 3.258597
48.751176 -20.081581 19.050689
48.706804 -18.626188 18.656799
47.858845 -21.525795 19.183104
48.751176 -20.081581 19.050689
48.888914 -21.487929 19.331844
54.158588 -30.993946 8.720175
52.834902 -30.468703 8.868346
52.585271 -31.352378 9.795908
54.158588 -30.993946 8.720175
55.529612 -31.445793 8.577306
64.869286 -41.577317 22.273283
63.997055 -41.266579 23.338857
64.997376 -41.757652 23.59251
64.859009 -41.262537 20.921518
64.869286 -41.577317 22.273283
39.659394 -11.434797 4.275489
39.297949 -10.043467 5.332135
39.988726 -12.809061 4.251819
40.139078 -12.598951 3.182704
39.659394 -11.434797 4.275489
39.416975 -11.828111 6.37454
39.258083 -10.184186 6.328449
39.166017 -10.36739 7.358385
44.44566 -24.331411 8.308244
44.153908 -24.95817 9.255885
45.287388 -25.077539 8.198125
44.703972 -23.812484 7.327927
43.570492 -23.693115 8.385687
44.44566 -24.331411 8.308244
45.956688 -23.785951 6.270632
45.08152 -23.147656 6.348074
44.703972 -23.812484 7.327927
47.376545 -23.549986 5.218825
45.956688 -23.785951 6.270632
47.830253 -22.740018 4.262443
47.376545 -23.549986 5.218825
49.472187 -25.457798 20.269485
49.257072 -24.174115 19.93316
48.842075 -26.767719 20.213604
49.472187 -25.457798 20.269485
49.830467 -26.668385 20.517988
49.67894 -29.081527 20.73421
50.145102 -27.855111 20.868241
50.623686 -28.958331 21.140344
60.296017 -36.511042 12.63569
60.175837 -37.193047 13.827322
61.61157 -36.963564 12.73256
58.963215 -36.061131 12.594217
60.296017 -36.511042 12.63569
60.398949 -35.831648 11.499455
59.6507 -32.831463 8.304902
58.271712 -32.373757 8.365831
58.036471 -33.30093 9.369282
59.6507 -32.831463 8.304902
60.965315 -33.286104 8.248945
39.683239 -11.040723 11.747445
39.428437 -10.924955 10.999493
39.688277 -12.750366 11.927888
39.683239 -11.040723 11.747445
39.889853 -11.170517 12.545053
40.229484 -12.999564 13.413459
40.26625 -11.282293 13.180141
40.600845 -11.401696 13.868105
62.587852 -39.191046 16.579293
61.402904 -39.148583 17.668156
62.608501 -39.601202 17.845698
62.666825 -38.640493 15.295724
62.587852 -39.191046 16.579293
62.721392 -38.094065 14.056944
61.436823 -38.191997 15.162971
62.666825 -38.640493 15.295724
62.851481 -37.416363 12.819011
62.721392 -38.094065 14.056944
50.87409 -12.540375 16.932109
49.818178 -12.480223 16.960085
50.95216 -10.945414 16.398137
50.820814 -14.088394 17.501069
50.87409 -12.540375 16.932109
49.716304 -15.604057 17.952854
50.820814 -14.088394 17.501069
53.422106 -30.690092 22.985304
52.46649 -30.888863 22.482649
53.890041 -31.662208 23.543753
53.422106 -30.690092 22.985304
54.537315 -32.551591 24.026788
53.647346 -32.763502 23.400672
53.890041 -31.662208 23.543753
55.112881 -33.436977 24.631847
54.537315 -32.551591 24.026788
55.355576 -32.335683 24.774927
56.799906 -32.958098 26.119965
56.292488 -32.080934 25.398716
56.612646 -34.027344 26.014874
56.799906 -32.958098 26.119965
57.481411 -33.764372 26.754852
59.56291 -36.045517 28.880518
58.865944 -35.305505 28.14009
59.693436 -36.982861 28.559814
59.56291 -36.045517 28.880518
60.409956 -36.722165 29.50636
62.830883 -38.675442 31.47829
62.049779 -38.035389 30.809886
63.165379 -39.513327 30.903841
62.830883 -38.675442 31.47829
63.694679 -39.27125 32.017516
64.529358 -40.814732 30.652708
64.133938 -40.962255 29.440444
63.633755 -40.256659 30.230803
64.529358 -40.814732 30.652708
64.817242 -40.688949 31.925559
41.743085 -8.096848 14.31717
41.13862 -9.794362 14.147545
42.392038 -8.222884 14.642779
41.743085 -8.096848 14.31717
43.015073 -8.331923 15.029727
42.262664 -10.013338 15.047252
42.392038 -8.222884 14.642779
43.767011 -8.462561 15.236318
43.015073 -8.331923 15.029727
44.504392 -8.569733 15.501709
43.623081 -10.22955 15.699592
43.767011 -8.462561 15.236318
45.34683 -8.702652 15.604013
44.504392 -8.569733 15.501709
46.186775 -8.804996 15.760566
45.200407 -10.439065 16.121537
45.34683 -8.702652 15.604013
47.105251 -8.935897 15.780966
46.186775 -8.804996 15.760566
48.033195 -9.028976 15.849146
46.968296 -10.634487 16.346272
47.105251 -8.935897 15.780966
49.012645 -9.152088 15.815405
48.033195 -9.028976 15.849146
50.012649 -9.230936 15.821236
48.896244 -10.806414 16.420282
49.012645 -9.152088 15.815405
51.038544 -9.339989 15.763137
50.012649 -9.230936 15.821236
50.95216 -10.945414 16.398137
51.038544 -9.339989 15.763137
40.703729 -13.662133 2.048726
41.180853 -14.771111 2.017877
39.392032 -12.477103 10.23779
39.338806 -10.781486 10.107003
39.428437 -10.924955 10.999493
44.114389 -19.220813 2.074896
43.447738 -18.467806 2.051912
43.054663 -19.001211 3.169966
44.114389 -19.220813 2.074896
44.958856 -19.692107 2.133898
45.76239 -20.258516 2.160556
46.73004 -20.57269 2.220441
47.677322 -18.628125 18.563957
48.663019 -17.134868 18.318807
48.706804 -18.626188 18.656799
48.240189 -24.244637 19.71468
49.013466 -22.861621 19.682739
49.257072 -24.174115 19.93316
49.024738 -28.897984 9.39491
47.912485 -28.242277 9.572906
47.681692 -29.004978 10.467842
49.024738 -28.897984 9.39491
50.272239 -29.411059 9.21239
51.506059 -29.994284 9.039506
52.834902 -30.468703 8.868346
56.903874 -31.928594 8.468543
58.271712 -32.373757 8.365831
3 0 42 40
3 158 45 159
3 2 160 162
3 162 161 46
3 160 161 162
3 2 163 164
3 1 165 167
3 165 49 166
3 165 166 167
3 3 52 50
3 5 55 53
3 5 57 55
3 6 60 58
3 169 168 61
3 8 170 172
3 172 171 63
3 170 171 172
3 8 173 174
3 4 66 64
3 176 175 67
3 177 70 178
3 9 73 71
3 9 75 73
3 7 78 76
3 10 81 79
3 10 83 81
3 10 179 181
3 181 180 83
3 179 180 181
3 11 86 84
3 13 87 41
3 13 88 87
3 14 91 89
3 182 92 183
3 184 183 43
3 182 183 184
3 186 185 92
3 187 93 188
3 17 94 44
3 17 95 94
3 18 98 96
3 190 189 47
3 191 100 192
3 21 101 48
3 21 102 101
3 22 105 103
3 193 106 194
3 195 107 196
3 197 196 106
3 195 196 197
3 199 198 107
3 200 109 201
3 25 110 51
3 25 111 110
3 12 112 85
3 26 113 54
3 26 114 113
3 26 115 114
3 27 116 56
3 27 117 116
3 28 120 118
3 30 121 59
3 30 122 121
3 15 123 90
3 31 124 62
3 31 125 124
3 31 126 125
3 202 128 203
3 204 129 205
3 206 130 207
3 208 207 129
3 206 207 208
3 209 131 210
3 211 132 212
3 213 212 131
3 211 212 213
3 214 133 215
3 217 216 133
3 16 218 219
3 24 134 108
3 32 135 65
3 32 136 135
3 19 137 97
3 33 138 68
3 33 139 138
3 33 220 222
3 222 221 139
3 220 221 222
3 223 140 224
3 225 224 127
3 223 224 225
3 34 141 69
3 34 142 141
3 20 143 99
3 35 144 72
3 35 145 144
3 35 146 145
3 36 147 74
3 36 148 147
3 29 149 119
3 37 150 77
3 37 151 150
3 23 152 104
3 38 153 80
3 38 154 153
3 38 155 154
3 39 156 82
3 39 157 156
3 39 226 228
3 228 227 157
3 226 227 228
3 40 41 11
3 42 41 40
3 42 13 41
3 229 43 230
3 231 230 14
3 229 230 231
3 232 43 233
3 235 234 43
3 236 44 237
3 45 238 240
3 238 44 239
3 238 239 240
3 45 17 44
3 46 47 18
3 241 47 242
3 243 242 46
3 241 242 243
3 245 244 47
3 246 48 247
3 49 248 250
3 248 48 249
3 248 249 250
3 49 21 48
3 252 251 22
3 50 253 255
3 253 51 254
3 253 254 255
3 52 51 50
3 52 25 51
3 53 54 12
3 55 54 53
3 55 26 54
3 55 56 26
3 57 56 55
3 57 27 56
3 58 59 28
3 60 59 58
3 60 30 59
3 61 62 15
3 256 62 257
3 258 257 61
3 256 257 258
3 259 31 260
3 261 260 62
3 259 260 261
3 263 262 31
3 63 264 266
3 266 265 16
3 264 265 266
3 268 267 63
3 64 65 24
3 66 65 64
3 66 32 65
3 67 68 19
3 269 68 270
3 271 270 67
3 269 270 271
3 272 33 273
3 274 273 68
3 272 273 274
3 276 275 33
3 277 69 278
3 70 279 281
3 279 69 280
3 279 280 281
3 70 34 69
3 71 72 20
3 73 72 71
3 73 35 72
3 73 74 35
3 75 74 73
3 75 36 74
3 76 77 29
3 78 77 76
3 78 37 77
3 79 80 23
3 81 80 79
3 81 38 80
3 81 82 38
3 83 82 81
3 83 39 82
3 83 282 284
3 284 283 39
3 282 283 284
3 286 285 83
3 84 85 3
3 86 85 84
3 86 12 85
3 41 86 11
3 87 86 41
3 87 12 86
3 87 53 12
3 88 53 87
3 88 5 53
3 89 90 6
3 91 90 89
3 91 15 90
3 43 91 14
3 92 91 43
3 92 15 91
3 92 61 15
3 287 61 288
3 289 288 92
3 287 288 289
3 291 290 61
3 93 292 293
3 93 294 296
3 294 16 295
3 294 295 296
3 44 297 299
3 297 93 298
3 297 298 299
3 94 93 44
3 94 16 93
3 94 63 16
3 95 63 94
3 95 8 63
3 96 97 4
3 98 97 96
3 98 19 97
3 47 98 18
3 300 98 301
3 302 301 47
3 300 301 302
3 303 19 304
3 305 304 98
3 303 304 305
3 306 67 307
3 308 307 19
3 306 307 308
3 309 67 310
3 312 311 67
3 313 99 314
3 100 315 317
3 315 99 316
3 315 316 317
3 100 20 99
3 48 318 320
3 318 100 319
3 318 319 320
3 101 100 48
3 101 20 100
3 101 71 20
3 102 71 101
3 102 9 71
3 103 104 7
3 105 104 103
3 105 23 104
3 321 105 322
3 323 322 22
3 321 322 323
3 106 324 326
3 324 105 325
3 324 325 326
3 106 23 105
3 106 79 23
3 107 79 106
3 107 10 79
3 107 327 329
3 329 328 10
3 327 328 329
3 331 330 107
3 332 108 333
3 109 334 336
3 334 108 335
3 334 335 336
3 109 24 108
3 51 337 339
3 337 109 338
3 337 338 339
3 110 109 51
3 110 24 109
3 110 64 24
3 111 64 110
3 111 4 64
3 85 52 3
3 112 52 85
3 112 25 52
3 54 112 12
3 113 112 54
3 113 25 112
3 113 111 25
3 114 111 113
3 114 4 111
3 114 96 4
3 115 96 114
3 115 18 96
3 56 115 26
3 116 115 56
3 116 18 115
3 116 46 18
3 117 46 116
3 117 2 46
3 118 119 1
3 120 119 118
3 120 29 119
3 59 120 28
3 121 120 59
3 121 29 120
3 121 76 29
3 122 76 121
3 122 7 76
3 90 60 6
3 123 60 90
3 123 30 60
3 62 123 15
3 124 123 62
3 124 30 123
3 124 122 30
3 125 122 124
3 125 7 122
3 125 103 7
3 126 103 125
3 126 22 103
3 340 126 341
3 342 341 31
3 340 341 342
3 343 126 344
3 345 22 346
3 347 346 126
3 345 346 347
3 349 348 22
3 350 127 351
3 352 351 0
3 350 351 352
3 353 127 354
3 356 355 127
3 357 1 358
3 359 1 360
3 361 118 362
3 363 362 1
3 361 362 363
3 128 364 366
3 364 118 365
3 364 365 366
3 128 28 118
3 367 128 368
3 129 369 371
3 369 128 370
3 369 370 371
3 129 28 128
3 129 58 28
3 130 58 129
3 130 6 58
3 372 130 373
3 131 374 376
3 374 130 375
3 374 375 376
3 131 6 130
3 131 89 6
3 132 89 131
3 132 14 89
3 377 132 378
3 133 379 381
3 379 132 380
3 379 380 381
3 133 14 132
3 133 382 384
3 384 383 14
3 382 383 384
3 386 385 133
3 387 50 388
3 389 50 390
3 391 3 392
3 393 392 50
3 391 392 393
3 394 3 395
3 396 84 397
3 398 397 3
3 396 397 398
3 399 84 400
3 401 11 402
3 403 402 84
3 401 402 403
3 404 11 405
3 406 40 407
3 408 407 11
3 406 407 408
3 409 40 410
3 411 0 412
3 413 412 40
3 411 412 413
3 414 0 415
3 417 416 0
3 419 418 16
3 108 420 422
3 420 45 421
3 420 421 422
3 134 45 108
3 134 17 45
3 65 134 24
3 135 134 65
3 135 17 134
3 135 95 17
3 136 95 135
3 136 8 95
3 97 66 4
3 137 66 97
3 137 32 66
3 68 137 19
3 138 137 68
3 138 32 137
3 138 136 32
3 139 136 138
3 139 8 136
3 139 423 425
3 425 424 8
3 423 424 425
3 427 426 139
3 429 428 33
3 127 42 0
3 140 42 127
3 140 13 42
3 69 430 432
3 430 140 431
3 430 431 432
3 141 140 69
3 141 13 140
3 141 88 13
3 142 88 141
3 142 5 88
3 99 433 435
3 433 70 434
3 433 434 435
3 143 70 99
3 143 34 70
3 72 143 20
3 144 143 72
3 144 34 143
3 144 142 34
3 145 142 144
3 145 5 142
3 145 57 5
3 146 57 145
3 146 27 57
3 74 146 35
3 147 146 74
3 147 27 146
3 147 117 27
3 148 117 147
3 148 2 117
3 119 49 1
3 149 49 119
3 149 21 49
3 77 149 29
3 150 149 77
3 150 21 149
3 150 102 21
3 151 102 150
3 151 9 102
3 104 78 7
3 152 78 104
3 152 37 78
3 80 152 23
3 153 152 80
3 153 37 152
3 153 151 37
3 154 151 153
3 154 9 151
3 154 75 9
3 155 75 154
3 155 36 75
3 82 155 38
3 156 155 82
3 156 36 155
3 156 148 36
3 157 148 156
3 157 2 148
3 157 436 438
3 438 437 2
3 436 437 438
3 440 439 157
3 442 441 39
3 444 443 10
