ply
format ascii 1.0
element vertex 763
property float x
property float y
property float z
element face 791
property list uchar int vertex_index
end_header
56.645882 -68.257851 40.761032
46.346249 -66.273041 50.361885
46.506927 -84.825897 43.900452
67.054916 -47.874947 14.167121
40.25967 -91.584564 41.664864
44.652813 -92.258408 32.793617
57.449577 -61.059349 45.779381
61.222321 -54.129566 44.702721
60.393517 -61.075497 38.078217
53.442974 -68.310852 48.220749
52.370216 -76.218964 42.810089
48.037212 -75.875702 50.219124
41.255127 -82.547531 50.681282
49.639908 -82.752548 33.361591
66.357849 -52.066395 24.44595
57.561653 -64.869949 43.769562
59.417049 -61.338829 42.501183
58.519356 -64.600533 39.451759
58.623817 -63.799622 34.503494
50.302826 -67.533218 49.890617
50.974285 -72.091003 49.34565
47.724113 -71.134811 50.944443
41.379318 -77.634628 52.374542
38.040722 -79.958382 52.510063
37.934502 -84.562477 49.718193
34.85252 -81.231651 52.054161
48.552753 -62.747417 49.219048
52.484818 -63.892445 48.686943
49.620605 -80.505623 43.549721
51.082626 -79.691376 38.370743
48.384796 -84.248131 38.862526
68.012352 -50.15097 28.486351
65.62326 -53.37392 29.920244
69.707367 -44.55489 12.474018
52.202835 -76.34639 27.400673
43.314026 -88.740746 43.401245
45.491272 -88.793633 38.755558
42.640289 -92.756554 37.582794
58.389584 -53.379238 47.230042
61.25116 -57.865856 41.456425
62.393387 -57.592003 36.742287
60.642532 -60.253529 33.045265
69.429054 -46.997139 17.589994
55.561111 -68.550735 45.084
54.66124 -72.125168 41.884689
53.295826 -72.413338 46.243
50.613831 -76.422272 47.180618
47.484161 -80.468803 47.837021
44.697296 -74.57531 51.788712
44.709732 -79.48526 50.753281
44.105282 -84.259613 47.93187
40.773148 -87.248222 47.036545
37.64579 -88.879738 44.987537
54.443855 -60.302685 47.620789
55.550507 -64.621498 46.940472
58.074192 -68.332703 7.783916
53.335503 -75.365936 37.660774
51.87624 -78.222534 32.870422
47.150208 -87.551834 33.477703
68.846275 -48.88987 22.920496
66.859093 -50.209309 19.196121
56.839844 -67.918373 38.320145
57.212036 -66.612251 42.394299
58.164543 -64.801773 41.723602
57.588112 -66.406433 40.123581
57.741177 -66.070923 37.694008
48.404037 -66.956314 50.23365
49.070816 -69.345352 50.443703
47.163193 -68.717926 50.77491
37.959953 -77.576263 53.193977
36.36755 -78.466522 53.355095
36.425858 -80.735237 52.353233
34.810543 -79.109238 53.403572
45.321156 -63.805466 49.820595
46.378548 -62.058411 49.245323
47.486954 -64.52523 49.793236
49.545349 -65.167648 49.657608
51.725426 -76.307404 22.232433
48.09317 -82.681213 43.798752
49.015366 -82.427124 41.312263
47.518204 -84.669678 41.473846
66.387009 -52.157909 32.002335
68.533524 -46.187855 13.283364
67.002808 -46.57692 11.722975
41.764767 -90.337021 42.695744
42.953144 -90.81488 40.619179
41.484413 -92.383766 39.725483
57.002655 -58.986401 46.493782
58.364452 -59.317486 45.344711
60.017193 -61.27758 40.401031
60.32579 -59.601017 41.947498
60.947235 -59.537392 39.784966
61.909531 -57.798618 39.204712
61.367496 -59.331928 37.403419
61.628227 -58.985973 34.877365
60.586018 -60.732597 35.604469
54.634178 -68.498398 46.828079
54.471436 -70.460297 45.690166
53.494987 -70.399879 47.431179
49.564911 -73.990562 49.816208
50.902058 -74.28479 48.46637
49.42749 -76.246002 48.890129
49.097504 -78.453049 47.554977
47.84293 -78.194153 49.237358
44.356075 -72.099564 51.744446
42.811523 -73.678741 52.181778
41.384079 -80.107956 51.762901
43.103123 -78.655869 51.69059
42.979099 -81.115974 50.814926
44.457417 -81.897705 49.57148
42.733131 -83.535767 49.461044
42.417969 -85.894196 47.630043
41.036125 -84.934464 49.101685
36.352703 -85.07151 48.908646
37.799904 -86.759872 47.576248
36.255547 -87.134674 46.475288
36.136997 -89.13868 43.644852
53.570347 -58.004238 47.716145
52.5952 -59.773174 48.041924
53.106079 -66.142288 48.621353
54.142277 -64.314148 47.991844
54.531944 -66.451134 47.587002
55.693771 -66.633621 46.183662
58.299774 -66.359756 7.835892
57.104836 -67.593338 9.98295
53.567619 -74.144569 42.369156
54.024639 -73.789009 39.870872
52.947205 -75.865417 40.294838
50.373756 -81.276367 35.91851
51.557056 -79.024391 35.632286
50.80909 -80.445404 33.139805
51.106747 -79.493011 30.364262
50.036831 -81.762436 30.575855
45.043179 -90.590988 35.853149
46.395691 -88.312943 36.165634
45.896645 -89.953186 33.260342
59.912148 -53.814159 46.180542
59.488487 -51.662193 47.445724
60.981697 -52.082336 46.23912
67.3442 -51.16555 26.385822
68.460678 -49.600471 25.674812
67.726776 -50.448486 23.648275
68.045197 -49.582375 20.972473
66.640518 -51.204353 21.790859
38.786785 -92.437729 40.344276
40.040798 -93.584801 38.519791
57.644806 -63.020798 44.888416
58.565495 -61.26358 44.311157
58.501373 -63.090733 43.11483
59.095634 -63.028034 41.051704
59.450264 -62.828037 38.764351
59.601501 -62.489796 36.322803
58.657753 -64.265396 37.023575
51.993298 -67.987854 49.237709
52.263283 -70.193848 48.81205
50.782394 -69.840927 49.810532
49.456909 -71.69014 50.325653
48.010925 -73.521317 50.779282
39.697182 -78.912796 52.512817
39.683163 -81.337524 51.661629
39.568161 -83.713768 50.318275
38.024265 -82.291962 51.364861
36.415535 -82.938995 50.877251
47.393654 -60.280792 48.704803
49.568863 -60.954708 48.675804
51.615417 -61.563286 48.512146
50.607384 -63.365509 49.069534
51.433689 -65.711563 49.29567
51.053593 -78.343254 43.208405
51.753632 -78.001976 40.684666
50.43792 -80.194046 41.032982
49.77755 -81.948494 38.661629
49.09346 -83.595642 36.138271
62.326378 -54.320686 42.821457
62.276146 -52.387512 44.592609
63.382118 -52.576973 42.547478
66.898918 -51.733585 29.177679
66.018326 -52.789726 27.159889
45.112392 -67.976288 50.90995
52.335159 -75.342979 24.722387
51.491417 -77.384315 24.90152
44.902176 -86.873703 43.788769
45.986351 -86.868065 41.45417
44.456451 -88.946526 41.187035
44.053955 -90.892967 38.323868
43.705074 -92.703606 35.25885
60.228111 -55.862343 44.831646
59.471039 -59.525528 43.819466
60.383518 -57.79451 43.420292
61.328342 -56.060921 43.098572
62.218437 -56.12714 41.014328
62.742943 -57.248035 34.146881
61.774719 -58.504444 32.273666
59.596458 -62.017105 33.791615
70.3582 -44.307907 14.300835
69.612839 -45.836288 15.006004
68.460609 -47.436066 15.795167
56.227386 -68.469742 43.039429
55.677826 -70.162941 41.349831
55.19548 -70.379425 43.640327
54.094769 -72.341721 44.188515
52.900829 -74.353638 44.684566
52.256214 -72.33168 47.978817
52.014046 -74.403786 46.740116
51.594109 -76.409531 45.131409
50.168186 -78.499176 45.524433
48.634422 -80.602966 45.842564
47.020752 -82.68576 46.044281
45.812653 -70.438141 51.276794
46.261684 -72.885559 51.392784
46.452782 -75.314552 51.168243
43.05806 -76.172371 52.123169
44.805492 -77.040138 51.480476
46.408577 -77.720444 50.540916
46.174042 -80.095024 49.479378
45.806763 -82.425308 47.98185
45.365551 -84.692436 46.07122
43.708706 -86.548576 45.859398
42.082695 -88.168419 45.355461
40.505821 -89.469826 44.533287
39.389557 -86.024323 48.469238
39.18399 -88.254425 46.143837
38.979176 -90.393616 43.406147
37.486511 -90.924301 42.033142
55.396687 -58.544044 47.270966
56.070808 -60.735508 46.880325
53.480408 -62.08675 48.110115
55.123764 -62.510803 47.394386
56.517426 -62.824959 46.323006
56.692253 -64.808395 45.524944
56.585663 -66.687729 44.436104
52.271454 -77.49556 38.030602
52.618275 -76.846619 35.31221
52.073555 -77.318192 30.119989
51.312057 -78.45903 27.614357
46.943504 -86.55088 38.915554
47.75462 -85.957268 36.240921
48.407028 -85.132446 33.49255
48.90313 -84.126945 30.71839
69.17038 -48.019562 20.226675
68.293259 -48.573799 18.356667
67.001984 -49.093395 16.656971
56.291821 -69.037544 39.826404
56.388801 -68.867806 38.605961
56.742863 -68.088112 39.540588
35.544115 -77.691848 53.840103
36.300009 -77.306472 53.650856
34.765612 -78.013206 53.864341
35.589047 -78.78788 53.379334
35.544115 -77.691848 53.840103
51.440811 -76.771042 20.975614
51.261291 -77.33677 22.3019
66.187919 -48.109566 13.422514
66.161866 -47.460553 12.20044
67.028862 -47.225933 12.945048
41.834274 -73.165237 52.333545
42.582497 -72.432395 52.072274
35.530516 -86.197659 47.214155
36.304125 -86.103092 47.691967
35.579094 -85.166077 48.430834
35.493306 -87.163322 45.865233
35.530516 -86.197659 47.214155
51.578789 -59.467723 48.129509
52.076825 -58.578383 47.971901
56.682568 -67.167938 11.085045
57.166878 -66.598702 9.978552
38.69244 -93.414025 38.701729
38.0531 -92.670204 39.579435
57.726112 -65.840187 36.43234
57.292731 -66.763759 36.73854
34.850456 -82.25576 51.144924
35.631963 -83.109432 50.556469
35.634028 -82.085323 51.465706
63.312923 -53.481466 41.572174
62.854248 -53.44883 42.684467
62.785054 -54.353323 41.709164
69.701138 -43.863842 11.23705
70.093422 -43.771635 12.113647
52.268997 -75.844684 26.06153
52.65287 -74.827045 25.950769
52.586708 -75.32875 27.289912
40.641062 -93.942833 37.523634
39.937147 -94.528278 36.856361
59.755425 -56.725588 44.932352
59.565258 -55.699267 45.498949
62.659588 -56.825648 37.696754
62.41766 -56.928955 38.927967
62.151459 -57.69531 37.9735
62.939113 -56.724835 36.417334
62.659588 -56.825648 37.696754
62.568165 -57.420019 35.444584
63.113891 -56.552851 35.119631
62.939113 -56.724835 36.417334
60.627468 -59.95014 31.749181
61.193562 -59.075598 31.363382
61.208625 -59.378986 32.659465
70.382721 -44.19437 15.301578
70.488663 -43.586906 13.991365
69.520946 -46.416714 16.297999
69.88686 -45.66529 15.955767
69.794967 -46.245716 17.247762
44.795767 -70.02903 51.358413
45.462522 -69.207214 51.093372
44.445636 -68.798103 51.174992
42.218689 -76.9035 52.248855
42.133189 -75.658276 52.352963
41.293818 -76.389404 52.478649
36.067394 -90.119858 42.079105
35.381346 -89.119858 42.935722
58.773786 -67.651413 6.743809
58.886578 -66.66494 6.769796
58.186983 -67.346229 7.809904
58.579456 -68.635231 6.694657
58.773786 -67.651413 6.743809
54.835747 -71.949211 40.645657
55.34404 -70.968097 40.378228
55.169533 -71.144055 41.61726
53.812455 -74.333374 37.46149
54.157022 -73.54491 38.566539
53.680071 -74.577472 38.765823
53.445366 -75.052712 36.315716
53.812455 -74.333374 37.46149
52.347639 -77.151428 32.724536
52.718656 -76.46347 33.945431
52.247258 -77.534577 34.091316
51.974897 -77.770363 31.495205
52.446297 -76.699257 31.34932
52.347639 -77.151428 32.724536
50.815819 -79.564953 27.71089
51.209402 -78.976021 28.989309
50.713164 -80.081943 29.085842
50.929577 -78.991539 26.34221
50.815819 -79.564953 27.71089
48.552246 -84.773186 29.358039
48.325413 -85.347057 30.730641
49.08524 -83.56012 29.334035
48.552246 -84.773186 29.358039
58.094836 -52.255448 47.722226
57.526358 -53.106691 47.549616
59.244739 -50.540973 48.015118
60.068699 -50.796734 47.550505
62.192276 -51.362777 45.430998
62.827557 -51.514011 44.518226
68.426106 -49.396373 28.171457
68.192341 -49.579704 29.603707
69.045597 -48.499775 23.978675
68.852799 -48.855075 25.355833
68.653477 -49.245171 24.297654
69.222187 -48.147828 22.596141
69.045597 -48.499775 23.978675
69.008328 -48.454716 21.573586
69.38424 -47.712674 21.24923
69.222187 -48.147828 22.596141
56.42247 -68.634258 37.327146
56.842064 -67.687485 37.051609
56.42247 -68.634258 37.327146
56.388801 -68.867806 38.605961
56.842064 -67.687485 37.051609
57.292731 -66.763759 36.73854
57.29051 -66.994648 38.007076
37.09621 -76.861343 53.570297
37.864593 -76.369777 53.346305
37.163752 -78.021392 53.274536
37.09621 -76.861343 53.570297
36.300009 -77.306472 53.650856
45.849852 -62.931939 49.532959
45.267865 -61.691668 49.261543
44.739169 -62.565195 49.549179
51.911335 -75.783154 20.923411
52.137822 -75.32388 22.161794
51.911335 -75.783154 20.923411
51.440811 -76.771042 20.975614
66.092773 -52.302357 33.411238
66.643258 -51.480085 33.102936
65.776787 -52.989906 32.350865
66.092773 -52.302357 33.411238
65.482551 -53.134354 33.759767
65.394913 -53.597911 31.309819
66.005134 -52.765914 30.961289
65.776787 -52.989906 32.350865
68.514924 -45.519417 12.052516
69.101845 -44.702934 11.647842
69.120446 -45.371372 12.878691
67.749566 -45.713949 11.272321
68.514924 -45.519417 12.052516
67.768166 -46.382388 12.50317
66.917393 -45.900525 10.524704
67.749566 -45.713949 11.272321
66.079353 -46.805426 11.009488
65.993939 -46.12903 9.811217
66.917393 -45.900525 10.524704
66.079353 -46.805426 11.009488
66.161866 -47.460553 12.20044
52.559608 -75.785637 28.631199
52.586708 -75.32875 27.289912
57.471007 -58.121537 46.3759
56.680876 -57.897778 46.793762
58.151905 -58.287079 45.801364
57.471007 -58.121537 46.3759
57.683554 -59.151944 45.919246
58.823595 -58.453159 45.188885
58.151905 -58.287079 45.801364
58.547249 -63.505503 33.223635
58.086214 -64.414872 33.555039
69.666622 -46.764215 18.576111
69.794967 -46.245716 17.247762
43.354772 -71.642807 51.853608
44.067478 -70.859741 51.59224
43.583799 -72.889152 51.963112
43.354772 -71.642807 51.853608
42.582497 -72.432395 52.072274
35.434031 -88.165325 44.450015
36.196272 -88.136677 45.06007
35.493306 -87.163322 45.865233
35.381346 -89.119858 42.935722
35.434031 -88.165325 44.450015
52.564398 -57.693915 47.809011
53.074388 -56.816175 47.747321
52.068439 -56.505852 47.840187
53.082774 -58.888706 47.879035
52.564398 -57.693915 47.809011
52.076825 -58.578383 47.971901
57.764347 -65.98191 8.905023
58.252403 -65.333587 7.840641
57.702305 -66.976547 8.909421
57.764347 -65.98191 8.905023
57.166878 -66.598702 9.978552
50.178206 -81.216656 29.191639
50.713164 -80.081943 29.085842
50.571789 -80.627724 30.470059
60.815304 -51.006805 46.947203
60.068699 -50.796734 47.550505
60.235092 -51.872264 46.842422
39.319446 -93.987561 37.789486
39.413792 -93.011265 39.432034
38.69244 -93.414025 38.701729
39.937147 -94.528278 36.856361
39.319446 -93.987561 37.789486
58.1844 -64.937423 36.097124
58.199465 -65.16816 37.358791
57.726112 -65.840187 36.43234
58.167433 -64.704537 34.837084
58.640785 -64.032509 35.763535
58.1844 -64.937423 36.097124
58.086214 -64.414872 33.555039
58.167433 -64.704537 34.837084
40.479997 -77.04586 52.651695
41.293818 -76.389404 52.478649
38.770315 -77.016678 53.061413
37.864593 -76.369777 53.346305
39.63893 -77.684944 52.720833
38.770315 -77.016678 53.061413
38.828567 -78.244529 52.853397
40.53825 -78.273712 52.44368
40.479997 -77.04586 52.651695
39.63893 -77.684944 52.720833
35.600547 -84.17569 49.572166
36.384119 -84.005253 49.892949
35.631963 -83.109432 50.556469
35.579094 -85.166077 48.430834
35.600547 -84.17569 49.572166
45.767212 -60.81292 48.983669
45.267865 -61.691668 49.261543
46.274765 -59.92411 48.713409
45.767212 -60.81292 48.983669
46.886101 -61.169601 48.975063
46.771983 -59.031309 48.476349
46.274765 -59.92411 48.713409
47.893863 -59.38536 48.475582
46.771983 -59.031309 48.476349
48.981468 -59.722319 48.461083
47.893863 -59.38536 48.475582
48.481258 -60.61775 48.690303
50.065621 -60.05849 48.446449
48.981468 -59.722319 48.461083
50.59214 -61.258997 48.593975
51.088898 -60.36278 48.36462
50.065621 -60.05849 48.446449
45.057739 -91.86884 31.513445
44.485562 -93.031261 31.208278
63.380543 -51.608742 43.495661
62.827557 -51.514011 44.518226
62.829132 -52.482242 43.570043
63.851261 -52.614023 41.362284
63.312923 -53.481466 41.572174
63.927246 -51.708718 42.392063
63.851261 -52.614023 41.362284
64.396389 -51.745767 41.206869
63.380543 -51.608742 43.495661
63.927246 -51.708718 42.392063
67.753868 -50.349373 29.913128
68.192341 -49.579704 29.603707
66.941197 -51.352842 31.67112
66.643258 -51.480085 33.102936
67.197151 -51.14068 30.258792
66.941197 -51.352842 31.67112
66.642964 -51.945747 30.590007
67.455635 -50.942278 28.832015
67.753868 -50.349373 29.913128
67.197151 -51.14068 30.258792
69.701138 -43.863842 11.23705
69.101845 -44.702934 11.647842
44.654781 -66.740997 50.656361
45.729321 -67.124664 50.635918
45.27171 -65.889374 50.382328
44.051656 -67.560165 50.947827
44.654781 -66.740997 50.656361
44.445636 -68.798103 51.174992
44.051656 -67.560165 50.947827
44.223898 -63.420454 49.848434
44.739169 -62.565195 49.549179
44.759163 -64.655586 50.111683
44.223898 -63.420454 49.848434
45.27171 -65.889374 50.382328
45.833703 -65.039254 50.09124
44.759163 -64.655586 50.111683
52.694774 -74.356349 24.631051
52.65287 -74.827045 25.950769
52.442688 -74.841667 23.406772
52.694774 -74.356349 24.631051
52.030293 -75.825192 23.47741
52.137822 -75.32388 22.161794
52.442688 -74.841667 23.406772
51.144287 -77.875225 23.636443
51.261291 -77.33677 22.3019
51.608421 -76.84586 23.566977
41.362869 -93.342315 38.12648
40.762606 -92.984284 39.122637
40.641062 -93.942833 37.523634
41.940807 -93.528709 37.055135
42.062351 -92.57016 38.654139
41.362869 -93.342315 38.12648
42.505413 -93.658783 35.973629
41.940807 -93.528709 37.055135
43.037806 -93.632309 34.811657
43.172682 -92.73008 36.420822
42.505413 -93.658783 35.973629
43.554527 -93.541473 33.65506
43.037806 -93.632309 34.811657
44.028396 -93.318874 32.422443
44.178944 -92.481007 34.026234
43.554527 -93.541473 33.65506
44.485562 -93.031261 31.208278
44.028396 -93.318874 32.422443
57.870148 -54.235161 47.160646
57.526358 -53.106691 47.549616
57.006922 -53.962615 47.480221
58.645995 -54.457714 46.698147
57.870148 -54.235161 47.160646
59.407277 -54.675174 46.173397
59.150866 -53.596699 46.705292
58.645995 -54.457714 46.698147
60.07013 -54.838251 45.506094
59.407277 -54.675174 46.173397
59.565258 -55.699267 45.498949
59.376888 -58.557181 44.426262
58.823595 -58.453159 45.188885
58.917745 -59.421507 44.582088
59.833128 -57.691671 44.226675
59.376888 -58.557181 44.426262
59.927278 -58.660019 43.619879
60.305814 -56.828427 44.125969
59.755425 -56.725588 44.932352
59.833128 -57.691671 44.226675
62.731083 -55.25655 40.805599
62.785054 -54.353323 41.709164
62.272407 -55.223913 41.917893
62.572113 -56.093216 39.832775
62.063984 -56.962879 40.10952
62.41766 -56.928955 38.927967
62.731083 -55.25655 40.805599
62.572113 -56.093216 39.832775
63.337044 -56.385673 33.782532
63.113891 -56.552851 35.119631
62.870255 -57.009251 32.81668
63.337044 -56.385673 33.782532
62.386142 -57.637455 31.880072
62.870255 -57.009251 32.81668
62.258831 -57.876239 33.210273
61.812053 -58.19948 30.959429
62.423477 -57.332491 30.565835
62.386142 -57.637455 31.880072
61.812053 -58.19948 30.959429
61.193562 -59.075598 31.363382
59.033569 -62.614244 32.867695
59.110138 -62.908364 34.147554
58.547249 -63.505503 33.223635
59.542231 -61.717807 32.507269
59.033569 -62.614244 32.867695
60.065268 -60.836019 32.134094
60.119495 -61.135317 33.41844
59.542231 -61.717807 32.507269
60.627468 -59.95014 31.749181
60.065268 -60.836019 32.134094
70.418838 -43.648144 13.027056
70.549301 -42.927143 12.717586
70.488663 -43.586906 13.991365
70.032783 -44.431399 13.387427
70.093422 -43.771635 12.113647
70.418838 -43.648144 13.027056
70.25954 -44.9011 15.603182
70.382721 -44.19437 15.301578
69.985519 -45.072097 14.65342
70.25954 -44.9011 15.603182
69.88686 -45.66529 15.955767
45.084364 -71.268853 51.51062
44.795767 -70.02903 51.358413
44.067478 -70.859741 51.59224
42.00992 -74.411461 52.382267
41.834274 -73.165237 52.333545
42.934792 -74.925556 52.152473
42.00992 -74.411461 52.382267
42.133189 -75.658276 52.352963
37.402963 -91.91349 40.423868
38.0531 -92.670204 39.579435
38.136648 -91.681015 41.188709
36.742151 -91.012668 41.273251
36.811754 -90.03149 42.838997
36.067394 -90.119858 42.079105
37.402963 -91.91349 40.423868
36.742151 -91.012668 41.273251
54.065986 -57.132358 47.646463
53.074388 -56.816175 47.747321
54.979157 -57.402261 47.423874
54.065986 -57.132358 47.646463
54.483517 -58.274141 47.493555
55.877892 -57.676599 47.182354
54.979157 -57.402261 47.423874
56.199671 -58.765223 46.882374
56.680876 -57.897778 46.793762
55.877892 -57.676599 47.182354
52.105308 -60.66823 48.277035
51.578789 -59.467723 48.129509
51.088898 -60.36278 48.36462
34.021178 -78.291432 54.014557
34.765612 -78.013206 53.864341
34.045805 -79.310524 53.378304
34.021178 -78.291432 54.014557
34.066794 -80.37173 52.703598
34.831531 -80.170445 52.728866
34.045805 -79.310524 53.378304
34.079228 -81.350833 51.853393
34.066794 -80.37173 52.703598
34.850456 -82.25576 51.144924
34.079228 -81.350833 51.853393
58.877594 -65.643414 6.803439
58.830223 -64.617245 6.808187
58.252403 -65.333587 7.840641
58.877594 -65.643414 6.803439
58.886578 -66.66494 6.769796
56.536088 -68.132744 11.099742
56.682568 -67.167938 11.085045
56.898293 -68.545952 9.966452
56.536088 -68.132744 11.099742
57.382971 -68.915634 8.866934
57.589514 -67.96302 8.883433
56.898293 -68.545952 9.966452
57.779062 -69.279533 7.74338
57.382971 -68.915634 8.866934
58.284327 -69.582062 6.654122
58.579456 -68.635231 6.694657
57.779062 -69.279533 7.74338
55.807793 -69.99009 40.120804
56.291821 -69.037544 39.826404
56.161854 -69.210396 41.055431
55.807793 -69.99009 40.120804
55.34404 -70.968097 40.378228
54.517447 -72.781131 39.638748
54.835747 -71.949211 40.645657
54.342939 -72.957088 40.877781
54.517447 -72.781131 39.638748
54.157022 -73.54491 38.566539
53.086752 -75.793053 35.141434
53.445366 -75.052712 36.315716
52.976889 -76.106278 36.486492
53.086752 -75.793053 35.141434
52.718656 -76.46347 33.945431
52.494968 -76.271538 29.990857
52.446297 -76.699257 31.34932
52.138195 -76.832291 28.760331
52.559608 -75.785637 28.631199
52.494968 -76.271538 29.990857
51.019256 -78.454182 24.985792
51.401737 -77.921672 26.257939
50.929577 -78.991539 26.34221
51.144287 -77.875225 23.636443
51.019256 -78.454182 24.985792
45.679655 -90.716228 31.746808
45.274729 -91.105797 33.026979
45.057739 -91.86884 31.513445
46.247923 -89.496547 31.928469
45.679655 -90.716228 31.746808
46.874704 -88.295872 32.037149
46.523426 -88.75251 33.369022
46.247923 -89.496547 31.928469
47.448952 -87.059502 32.110298
46.874704 -88.295872 32.037149
48.077362 -85.849807 32.117722
47.778618 -86.34214 33.485126
47.448952 -87.059502 32.110298
48.655079 -84.629695 32.10547
48.077362 -85.849807 32.117722
48.325413 -85.347057 30.730641
49.65209 -82.377865 29.262768
49.46998 -82.944691 30.647123
49.08524 -83.56012 29.334035
50.178206 -81.216656 29.191639
49.65209 -82.377865 29.262768
58.644287 -51.396925 47.830067
58.094836 -52.255448 47.722226
58.939036 -52.520716 47.337883
58.644287 -51.396925 47.830067
59.244739 -50.540973 48.015118
61.545051 -51.210189 46.254253
61.628921 -52.234924 45.415864
62.192276 -51.362777 45.430998
60.815304 -51.006805 46.947203
61.545051 -51.210189 46.254253
68.650269 -49.121124 26.765688
68.426106 -49.396373 28.171457
68.236515 -49.87572 27.080582
68.650269 -49.121124 26.765688
68.852799 -48.855075 25.355833
69.537285 -47.275427 19.894452
69.38424 -47.712674 21.24923
69.299717 -47.50835 18.908335
69.666622 -46.764215 18.576111
69.537285 -47.275427 19.894452
64.959515 -54.215513 30.308303
65.394913 -53.597911 31.309819
65.112366 -53.916669 28.948735
64.959515 -54.215513 30.308303
65.309899 -53.624572 27.568558
65.820793 -53.081823 28.540067
65.112366 -53.916669 28.948735
65.43964 -53.260241 26.226605
65.309899 -53.624572 27.568558
65.609402 -52.898575 24.869636
66.188087 -52.428061 25.80292
65.43964 -53.260241 26.226605
65.71743 -52.469757 23.553886
65.609402 -52.898575 24.869636
64.968983 -53.301937 23.977573
65.858765 -52.038736 22.226341
66.499184 -51.635374 23.118405
65.71743 -52.469757 23.553886
65.942291 -51.548136 20.939529
65.858765 -52.038736 22.226341
66.051579 -51.050613 19.642161
66.749806 -50.706831 20.49349
65.942291 -51.548136 20.939529
66.104802 -50.503546 18.383159
66.051579 -51.050613 19.642161
66.176247 -49.945589 17.113583
66.930538 -49.651352 17.926546
66.104802 -50.503546 18.383159
66.191658 -49.350511 15.879458
66.176247 -49.945589 17.113583
66.218124 -48.741287 14.634533
67.02845 -48.484171 15.412046
66.191658 -49.350511 15.879458
66.187919 -48.109566 13.422514
66.218124 -48.741287 14.634533
3 0 242 244
3 244 243 61
3 242 243 244
3 0 64 62
3 0 61 64
3 1 68 66
3 245 70 246
3 247 72 248
3 249 248 70
3 247 248 249
3 1 75 73
3 1 66 75
3 251 250 77
3 2 80 78
3 3 83 82
3 3 252 254
3 254 253 83
3 252 253 254
3 4 86 84
3 6 88 87
3 8 91 89
3 8 93 91
3 8 95 93
3 9 98 96
3 11 101 99
3 11 103 101
3 255 105 256
3 12 108 106
3 12 110 108
3 12 112 110
3 257 115 258
3 259 258 113
3 257 258 259
3 261 260 115
3 262 118 263
3 9 121 119
3 9 96 121
3 264 124 265
3 10 127 125
3 13 130 128
3 13 132 130
3 5 135 133
3 7 138 136
3 14 141 139
3 14 143 141
3 267 266 144
3 15 148 146
3 17 149 63
3 17 150 149
3 17 152 150
3 269 268 65
3 19 155 153
3 21 156 67
3 21 157 156
3 23 158 69
3 23 159 158
3 23 161 159
3 25 162 71
3 25 270 272
3 272 271 162
3 270 271 272
3 26 163 74
3 26 164 163
3 26 166 164
3 19 167 76
3 19 153 167
3 28 170 168
3 30 171 79
3 30 172 171
3 273 175 274
3 275 274 173
3 273 274 275
3 32 176 81
3 32 177 176
3 33 276 277
3 34 278 280
3 278 179 279
3 278 279 280
3 34 180 179
3 35 183 181
3 37 184 85
3 37 185 184
3 282 281 145
3 283 186 284
3 16 187 147
3 39 188 90
3 39 189 188
3 39 190 189
3 40 285 287
3 287 286 92
3 285 286 287
3 40 288 289
3 40 290 292
3 290 191 291
3 290 291 292
3 41 192 94
3 41 293 295
3 295 294 192
3 293 294 295
3 18 193 151
3 296 194 297
3 42 298 300
3 298 195 299
3 298 299 300
3 42 196 195
3 43 199 197
3 45 200 97
3 45 201 200
3 20 202 154
3 46 203 100
3 46 204 203
3 46 205 204
3 47 206 102
3 47 207 206
3 301 208 302
3 303 302 178
3 301 302 303
3 48 209 104
3 48 210 209
3 22 304 306
3 304 211 305
3 304 305 306
3 49 212 107
3 49 213 212
3 49 214 213
3 50 215 109
3 50 216 215
3 50 217 216
3 51 218 111
3 51 219 218
3 24 220 160
3 52 221 114
3 52 222 221
3 52 223 222
3 308 307 116
3 53 224 117
3 53 225 224
3 27 226 165
3 54 227 120
3 54 228 227
3 54 229 228
3 43 230 122
3 43 197 230
3 55 309 311
3 311 310 123
3 309 310 311
3 55 312 313
3 44 314 316
3 316 315 198
3 314 315 316
3 56 317 319
3 319 318 126
3 317 318 319
3 56 320 321
3 29 231 169
3 57 232 129
3 57 322 324
3 324 323 232
3 322 323 324
3 57 325 327
3 325 233 326
3 325 326 327
3 328 234 329
3 330 329 131
3 328 329 330
3 332 331 234
3 36 235 182
3 58 236 134
3 58 237 236
3 333 238 334
3 336 335 238
3 38 337 338
3 340 339 137
3 342 341 174
3 31 343 344
3 59 345 347
3 347 346 140
3 345 346 347
3 59 348 349
3 59 350 352
3 350 239 351
3 350 351 352
3 60 240 142
3 60 241 240
3 61 353 354
3 356 355 61
3 62 63 15
3 64 63 62
3 64 17 63
3 64 65 17
3 61 65 64
3 61 357 359
3 359 358 65
3 357 358 359
3 66 67 19
3 68 67 66
3 68 21 67
3 360 69 361
3 70 362 364
3 362 69 363
3 362 363 364
3 70 23 69
3 70 71 23
3 72 71 70
3 72 25 71
3 73 365 367
3 365 74 366
3 365 366 367
3 75 74 73
3 75 26 74
3 75 76 26
3 66 76 75
3 66 19 76
3 77 368 369
3 371 370 77
3 78 79 28
3 80 79 78
3 80 30 79
3 372 81 373
3 374 81 375
3 374 375 376
3 377 32 378
3 379 378 81
3 377 378 379
3 82 380 382
3 382 381 33
3 380 381 382
3 83 383 385
3 385 384 82
3 383 384 385
3 83 386 387
3 83 388 390
3 388 389 390
3 392 391 83
3 393 34 394
3 84 85 35
3 86 85 84
3 86 37 85
3 87 395 396
3 88 397 399
3 399 398 87
3 397 398 399
3 88 400 401
3 89 90 16
3 91 90 89
3 91 39 90
3 91 92 39
3 93 92 91
3 93 40 92
3 93 94 40
3 95 94 93
3 95 41 94
3 403 402 18
3 404 42 405
3 96 97 43
3 98 97 96
3 98 45 97
3 99 100 20
3 101 100 99
3 101 46 100
3 101 102 46
3 103 102 101
3 103 47 102
3 406 104 407
3 105 408 410
3 408 104 409
3 408 409 410
3 105 48 104
3 106 107 22
3 108 107 106
3 108 49 107
3 108 109 49
3 110 109 108
3 110 50 109
3 110 111 50
3 112 111 110
3 112 51 111
3 113 114 24
3 115 114 113
3 115 52 114
3 115 116 52
3 411 116 412
3 413 412 115
3 411 412 413
3 415 414 116
3 416 117 417
3 416 417 418
3 118 419 421
3 419 117 420
3 419 420 421
3 118 53 117
3 119 120 27
3 121 120 119
3 121 54 120
3 121 122 54
3 96 122 121
3 96 43 122
3 422 123 423
3 124 424 426
3 424 123 425
3 424 425 426
3 124 55 123
3 125 126 44
3 127 126 125
3 127 56 126
3 128 129 29
3 130 129 128
3 130 57 129
3 130 131 57
3 132 131 130
3 132 427 429
3 429 428 131
3 427 428 429
3 133 134 36
3 135 134 133
3 135 58 134
3 136 137 38
3 138 137 136
3 138 430 432
3 432 431 137
3 430 431 432
3 139 140 31
3 141 140 139
3 141 59 140
3 141 142 59
3 143 142 141
3 143 60 142
3 144 145 4
3 433 145 434
3 435 434 144
3 433 434 435
3 437 436 145
3 146 147 6
3 148 147 146
3 148 16 147
3 63 148 15
3 149 148 63
3 149 16 148
3 149 89 16
3 150 89 149
3 150 8 89
3 150 151 8
3 152 151 150
3 152 18 151
3 65 152 17
3 438 152 439
3 440 439 65
3 438 439 440
3 441 18 442
3 443 442 152
3 441 442 443
3 445 444 18
3 153 154 9
3 155 154 153
3 155 20 154
3 67 155 19
3 156 155 67
3 156 20 155
3 156 99 20
3 157 99 156
3 157 11 99
3 446 22 447
3 69 448 449
3 158 450 452
3 452 451 69
3 450 451 452
3 158 453 455
3 453 22 454
3 453 454 455
3 158 106 22
3 159 106 158
3 159 12 106
3 159 160 12
3 161 160 159
3 161 24 160
3 71 161 23
3 162 161 71
3 162 24 161
3 162 113 24
3 456 113 457
3 458 457 162
3 456 457 458
3 460 459 113
3 74 461 462
3 163 463 465
3 465 464 74
3 463 464 465
3 163 466 467
3 163 468 469
3 164 470 472
3 472 471 163
3 470 471 472
3 164 473 474
3 164 475 477
3 475 165 476
3 475 476 477
3 166 165 164
3 166 27 165
3 76 166 26
3 167 166 76
3 167 27 166
3 167 119 27
3 153 119 167
3 153 9 119
3 168 169 10
3 170 169 168
3 170 29 169
3 79 170 28
3 171 170 79
3 171 29 170
3 171 128 29
3 172 128 171
3 172 13 128
3 479 478 5
3 173 174 7
3 175 174 173
3 175 480 482
3 482 481 174
3 480 481 482
3 483 175 484
3 485 175 486
3 485 486 487
3 489 488 175
3 490 31 491
3 81 492 493
3 176 494 496
3 496 495 81
3 494 495 496
3 176 497 499
3 497 31 498
3 497 498 499
3 176 139 31
3 177 139 176
3 177 14 139
3 501 500 33
3 502 178 503
3 504 503 1
3 502 503 504
3 505 178 506
3 508 507 178
3 509 73 510
3 511 73 512
3 513 1 514
3 515 514 73
3 513 514 515
3 179 516 517
3 179 518 519
3 179 520 522
3 520 77 521
3 520 521 522
3 180 77 179
3 180 523 525
3 525 524 77
3 523 524 525
3 181 182 2
3 183 182 181
3 183 36 182
3 85 183 35
3 184 183 85
3 184 36 183
3 184 133 36
3 185 133 184
3 185 5 133
3 145 86 4
3 526 86 527
3 528 527 145
3 526 527 528
3 529 37 530
3 531 530 86
3 529 530 531
3 532 37 533
3 534 185 535
3 536 535 37
3 534 535 536
3 537 185 538
3 539 5 540
3 541 540 185
3 539 540 541
3 543 542 5
3 544 38 545
3 544 545 546
3 547 38 548
3 549 136 550
3 551 550 38
3 549 550 551
3 186 552 554
3 552 136 553
3 552 553 554
3 186 7 136
3 147 88 6
3 187 88 147
3 187 555 557
3 557 556 88
3 555 556 557
3 90 187 16
3 188 187 90
3 188 558 560
3 560 559 187
3 558 559 560
3 188 561 563
3 561 186 562
3 561 562 563
3 189 186 188
3 189 7 186
3 189 173 7
3 190 173 189
3 190 564 566
3 566 565 173
3 564 565 566
3 92 190 39
3 567 190 568
3 569 568 92
3 567 568 569
3 571 570 190
3 191 572 573
3 191 574 575
3 94 191 40
3 192 191 94
3 192 576 578
3 578 577 191
3 576 577 578
3 192 579 581
3 579 580 581
3 583 582 192
3 151 95 8
3 193 95 151
3 193 41 95
3 584 193 585
3 586 585 18
3 584 585 586
3 587 193 588
3 589 41 590
3 591 590 193
3 589 590 591
3 593 592 41
3 194 594 596
3 594 595 596
3 194 597 599
3 597 33 598
3 597 598 599
3 600 194 601
3 195 602 604
3 602 194 603
3 602 603 604
3 195 33 194
3 195 82 33
3 196 82 195
3 196 3 82
3 197 198 0
3 199 198 197
3 199 44 198
3 97 199 43
3 200 199 97
3 200 44 199
3 200 125 44
3 201 125 200
3 201 10 125
3 154 98 9
3 202 98 154
3 202 45 98
3 100 202 20
3 203 202 100
3 203 45 202
3 203 201 45
3 204 201 203
3 204 10 201
3 204 168 10
3 205 168 204
3 205 28 168
3 102 205 46
3 206 205 102
3 206 28 205
3 206 78 28
3 207 78 206
3 207 2 78
3 178 68 1
3 208 68 178
3 208 21 68
3 104 605 607
3 605 208 606
3 605 606 607
3 209 208 104
3 209 21 208
3 209 157 21
3 210 157 209
3 210 11 157
3 608 105 609
3 211 610 612
3 610 105 611
3 610 611 612
3 211 48 105
3 107 211 22
3 212 211 107
3 212 48 211
3 212 210 48
3 213 210 212
3 213 11 210
3 213 103 11
3 214 103 213
3 214 47 103
3 109 214 49
3 215 214 109
3 215 47 214
3 215 207 47
3 216 207 215
3 216 2 207
3 216 181 2
3 217 181 216
3 217 35 181
3 111 217 50
3 218 217 111
3 218 35 217
3 218 84 35
3 219 84 218
3 219 4 84
3 160 112 12
3 220 112 160
3 220 51 112
3 114 220 24
3 221 220 114
3 221 51 220
3 221 219 51
3 222 219 221
3 222 4 219
3 222 144 4
3 223 144 222
3 223 613 615
3 615 614 144
3 613 614 615
3 116 223 52
3 616 223 617
3 618 617 116
3 616 617 618
3 620 619 223
3 117 621 622
3 224 623 625
3 625 624 117
3 623 624 625
3 224 626 627
3 224 628 630
3 628 87 629
3 628 629 630
3 225 87 224
3 225 6 87
3 165 631 633
3 631 118 632
3 631 632 633
3 226 118 165
3 226 53 118
3 120 226 27
3 227 226 120
3 227 53 226
3 227 225 53
3 228 225 227
3 228 6 225
3 228 146 6
3 229 146 228
3 229 15 146
3 122 229 54
3 230 229 122
3 230 15 229
3 230 62 15
3 197 62 230
3 197 0 62
3 634 72 635
3 636 72 637
3 638 25 639
3 640 639 72
3 638 639 640
3 641 25 642
3 644 643 25
3 123 645 647
3 645 646 647
3 649 648 123
3 650 124 651
3 652 124 653
3 654 55 655
3 656 655 124
3 654 655 656
3 657 55 658
3 661 660 55
3 659 660 661
3 198 662 664
3 664 663 0
3 662 663 664
3 666 665 198
3 126 667 669
3 669 668 44
3 667 668 669
3 671 670 126
3 169 127 10
3 231 127 169
3 231 56 127
3 129 231 29
3 232 231 129
3 232 56 231
3 232 672 674
3 674 673 56
3 672 673 674
3 676 675 232
3 233 677 678
3 233 679 681
3 679 34 680
3 679 680 681
3 131 233 57
3 234 233 131
3 234 34 233
3 234 180 34
3 682 180 683
3 684 683 234
3 682 683 684
3 686 685 180
3 182 80 2
3 235 80 182
3 235 30 80
3 134 235 36
3 236 235 134
3 236 30 235
3 236 172 30
3 237 172 236
3 237 13 172
3 687 135 688
3 689 688 5
3 687 688 689
3 690 135 691
3 692 58 693
3 694 693 135
3 692 693 694
3 695 58 696
3 697 237 698
3 699 698 58
3 697 698 699
3 238 700 702
3 700 237 701
3 700 701 702
3 238 13 237
3 238 132 13
3 703 132 704
3 705 704 238
3 703 704 705
3 707 706 132
3 137 708 710
3 710 709 38
3 708 709 710
3 712 711 137
3 174 138 7
3 713 138 714
3 715 714 174
3 713 714 715
3 717 716 138
3 140 718 720
3 720 719 31
3 718 719 720
3 722 721 140
3 239 723 724
3 239 725 727
3 725 42 726
3 725 726 727
3 142 239 59
3 240 239 142
3 240 42 239
3 240 196 42
3 241 196 240
3 241 3 196
3 728 32 729
3 730 32 731
3 732 177 733
3 734 733 32
3 732 733 734
3 735 177 736
3 737 14 738
3 739 738 177
3 737 738 739
3 740 14 741
3 740 741 742
3 743 143 744
3 745 744 14
3 743 744 745
3 746 143 747
3 748 60 749
3 750 749 143
3 748 749 750
3 751 60 752
3 753 241 754
3 755 754 60
3 753 754 755
3 756 241 757
3 758 3 759
3 760 759 241
3 758 759 760
3 762 761 3
