ply
format ascii 1.0
element vertex 132
property float x
property float y
property float z
element face 116
property list uchar int vertex_index
end_header
46.326263 46.416252 -4.081184
49.964645 50.027313 -5.5121
49.53849 45.153931 -1.149675
45.197739 41.351707 0.482942
47.265182 50.726288 -9.000563
43.308098 46.664734 -7.123913
39.2514 41.787048 -5.059521
41.88026 42.174446 -2.042601
42.603634 48.036148 -11.284437
48.345703 48.2575 -4.929871
48.633774 50.501419 -7.280508
46.865776 48.640694 -6.548836
45.405853 48.749802 -8.154474
44.776409 46.689201 -5.588024
42.571983 44.555401 -4.52323
44.100632 44.4193 -3.07531
44.736992 38.457039 2.419588
49.816032 47.647354 -3.299397
47.927841 45.887032 -2.605169
45.744511 43.999031 -1.706253
47.461498 43.342373 -0.407927
45.874989 50.661659 -10.659872
43.983135 48.552231 -9.736996
41.937088 46.320045 -8.678194
39.953663 43.866688 -7.624088
41.185925 44.375103 -6.044538
40.466827 42.144897 -3.49416
43.470146 41.896835 -0.717514
41.934532 47.624066 -12.036751
41.634827 46.845249 -10.760776
43.473769 35.673372 3.664727
43.648516 37.243306 2.839149
44.562245 36.887106 3.245166
49.677261 46.400643 -2.224536
50.526009 47.255356 -2.474002
50.387237 46.008645 -1.399141
49.938468 51.186107 -6.599634
50.499511 50.908196 -5.631566
47.983738 51.700856 -9.27574
48.668033 51.588421 -8.415712
47.949478 50.613853 -8.140536
47.341244 51.730851 -10.162771
47.983738 51.700856 -9.27574
46.570086 50.693973 -9.830217
46.646147 51.698536 -10.992426
47.341244 51.730851 -10.162771
40.872263 40.885996 -1.580626
40.165546 40.871222 -2.306406
41.173544 42.159672 -2.768381
38.74422 41.443888 -5.887952
39.095352 42.483708 -7.170236
39.602531 42.826868 -6.341805
50.322201 44.712885 -0.421418
50.387237 46.008645 -1.399141
49.368309 43.829541 -0.153925
50.322201 44.712885 -0.421418
42.826614 48.815906 -12.515245
43.536646 49.160518 -11.76444
42.826614 48.815906 -12.515245
41.934532 47.624066 -12.036751
43.841706 38.778662 1.914155
44.072079 40.225996 0.945832
44.967365 39.904373 1.451265
43.841706 38.778662 1.914155
43.648516 37.243306 2.839149
38.46722 40.306736 -4.68048
38.951963 40.582229 -3.848485
50.597681 49.690525 -4.60611
50.499511 50.908196 -5.631566
50.523375 48.500546 -3.499758
50.526009 47.255356 -2.474002
49.890338 48.837333 -4.405748
50.597681 49.690525 -4.60611
50.523375 48.500546 -3.499758
48.329813 42.923761 0.216949
48.499994 44.248152 -0.778801
49.368309 43.829541 -0.153925
47.236166 41.966992 0.584601
48.329813 42.923761 0.216949
46.104287 40.971659 1.030035
46.329618 42.34704 0.037507
47.236166 41.966992 0.584601
45.873913 39.524325 1.998359
44.967365 39.904373 1.451265
46.104287 40.971659 1.030035
45.677996 38.039133 2.856302
45.873913 39.524325 1.998359
44.562245 36.887106 3.245166
45.677996 38.039133 2.856302
49.273033 51.42316 -7.483838
49.938468 51.186107 -6.599634
49.29921 50.264366 -6.396304
49.273033 51.42316 -7.483838
48.668033 51.588421 -8.415712
45.968376 51.577106 -11.824962
46.646147 51.698536 -10.992426
45.172324 50.473274 -11.452158
45.968376 51.577106 -11.824962
44.226396 49.41856 -10.99072
45.172324 50.473274 -11.452158
44.929062 49.606945 -10.198434
43.293385 48.29419 -10.510717
43.536646 49.160518 -11.76444
44.226396 49.41856 -10.99072
41.301553 45.987198 -9.457654
41.634827 46.845249 -10.760776
42.270361 47.178096 -9.981316
40.945375 45.093367 -8.151141
40.309841 44.760519 -8.930601
41.301553 45.987198 -9.457654
39.559677 40.761154 -3.065805
38.951963 40.582229 -3.848485
39.859113 41.965972 -4.276841
39.559677 40.761154 -3.065805
40.165546 40.871222 -2.306406
43.208282 40.49856 0.345604
44.333942 41.624271 -0.117286
44.072079 40.225996 0.945832
42.388159 40.696203 -0.242418
43.208282 40.49856 0.345604
41.593215 40.835009 -0.904961
42.675203 42.03564 -1.380057
42.388159 40.696203 -0.242418
40.872263 40.885996 -1.580626
41.593215 40.835009 -0.904961
39.412377 43.45328 -8.433684
40.309841 44.760519 -8.930601
38.554066 42.070299 -7.979832
39.412377 43.45328 -8.433684
39.095352 42.483708 -7.170236
38.74422 41.443888 -5.887952
38.46722 40.306736 -4.68048
3 29 28 8
3 0 11 9
3 0 13 11
3 0 15 13
3 32 31 16
3 30 31 32
3 2 33 35
3 33 17 34
3 33 34 35
3 2 18 17
3 2 20 18
3 1 36 37
3 4 38 40
3 40 39 10
3 38 39 40
3 4 41 42
3 4 43 45
3 43 21 44
3 43 44 45
3 5 22 12
3 5 23 22
3 5 25 23
3 7 26 14
3 7 46 48
3 48 47 26
3 46 47 48
3 3 27 19
3 6 49 51
3 51 50 24
3 49 50 51
3 52 2 53
3 55 54 2
3 8 56 57
3 59 58 8
3 9 10 1
3 11 10 9
3 11 4 10
3 11 12 4
3 13 12 11
3 13 5 12
3 13 14 5
3 15 14 13
3 15 7 14
3 16 60 62
3 62 61 3
3 60 61 62
3 64 63 16
3 66 65 6
3 67 1 68
3 17 69 70
3 17 71 73
3 71 1 72
3 71 72 73
3 17 9 1
3 18 9 17
3 18 0 9
3 18 19 0
3 20 19 18
3 20 3 19
3 74 20 75
3 76 75 2
3 74 75 76
3 77 20 78
3 79 3 80
3 81 80 20
3 79 80 81
3 82 16 83
3 84 83 3
3 82 83 84
3 85 16 86
3 88 87 16
3 10 89 91
3 91 90 1
3 89 90 91
3 93 92 10
3 21 94 95
3 21 96 97
3 12 21 4
3 22 21 12
3 22 98 100
3 100 99 21
3 98 99 100
3 22 101 103
3 101 8 102
3 101 102 103
3 23 8 22
3 23 104 106
3 106 105 8
3 104 105 106
3 23 107 109
3 107 24 108
3 107 108 109
3 25 24 23
3 25 6 24
3 14 25 5
3 26 25 14
3 26 6 25
3 26 110 112
3 112 111 6
3 110 111 112
3 114 113 26
3 19 15 0
3 27 15 19
3 27 7 15
3 115 27 116
3 117 116 3
3 115 116 117
3 118 27 119
3 120 7 121
3 122 121 27
3 120 121 122
3 124 123 7
3 24 125 126
3 129 128 24
3 127 128 129
3 131 130 6
