ply
format ascii 1.0
element vertex 319
property float x
property float y
property float z
element face 352
property list uchar int vertex_index
end_header
36.820679 15.66938 -54.796257
41.224079 19.465435 -46.529991
46.45512 18.670467 -51.198868
44.132927 9.824764 -57.295509
30.715204 7.445829 -51.711998
35.176552 5.436583 -57.136673
48.27002 20.022552 -46.282578
51.278419 17.87149 -47.359055
50.002312 14.938248 -51.713982
54.601601 13.550018 -47.498169
38.864014 18.677063 -51.263313
34.889 15.691254 -51.302261
32.097145 11.566607 -49.715897
33.109623 12.046621 -54.015938
32.105373 7.158064 -55.175423
35.575718 10.999767 -56.834152
48.719765 4.675463 -56.479866
43.967274 4.0723 -57.937431
45.607384 19.799591 -44.217384
43.51886 20.155529 -49.502945
41.450645 17.938164 -53.808388
39.998867 13.659359 -56.770905
44.968361 14.985832 -54.956711
49.103928 10.260916 -54.799454
53.444496 4.328398 -53.42495
29.883675 2.458302 -52.208878
31.803152 1.564995 -54.66008
35.402573 -0.51532 -55.617912
39.378979 8.224506 -58.116219
39.450535 2.369883 -57.568108
39.901051 -3.671761 -55.095421
51.974876 18.46838 -44.783745
53.473598 16.943413 -45.115555
52.908836 15.940781 -47.549759
55.015968 14.885284 -45.245506
37.76226 17.427631 -53.200745
36.755638 17.355274 -51.501892
35.699547 15.905251 -53.239128
33.90963 14.06031 -52.839272
34.820721 14.008247 -54.621407
34.152336 11.747091 -55.618629
36.08614 13.492607 -56.018044
47.760895 19.411366 -42.578003
47.352707 19.676262 -48.861534
45.916142 20.286137 -48.04969
44.901314 19.714935 -50.503265
42.437408 19.352623 -51.805496
43.942211 18.500267 -52.685204
43.107433 16.722572 -54.550728
45.643669 17.073074 -53.242126
51.928349 12.413734 -51.537636
49.493576 12.766054 -53.422287
51.551708 10.052286 -53.057121
51.273399 7.419935 -54.256798
53.637268 7.057232 -52.39994
31.336624 9.636438 -50.89109
30.234407 5.038361 -52.154312
33.448647 6.481318 -56.348587
31.87779 4.423368 -55.125885
33.370121 3.621405 -56.053444
33.435242 0.66847 -55.329048
35.228409 2.495169 -56.597542
41.977047 11.937529 -57.207985
39.587009 11.030558 -57.663841
41.706451 9.172689 -57.932991
41.663635 3.367552 -57.976387
41.812977 0.414455 -57.23748
39.648804 -0.621851 -56.554192
42.01619 -2.573503 -56.004959
49.124985 19.684284 -43.531723
50.525932 19.388664 -44.258499
49.728577 19.252327 -46.936417
48.920998 18.455372 -49.404633
48.165421 17.053505 -51.601128
50.607323 16.671108 -49.68502
52.386864 14.406391 -49.699959
40.050331 19.35915 -49.024551
37.924171 18.301743 -49.447372
35.996506 16.888046 -49.439491
34.331261 15.167034 -49.016258
32.975582 13.202538 -48.220047
33.32288 13.739437 -50.689835
32.444725 11.948536 -52.036926
31.732359 9.837938 -53.024147
31.195417 7.465124 -53.624138
32.509518 9.720861 -54.802071
33.699974 9.210577 -56.201553
35.280746 8.288214 -57.214577
46.400887 7.387678 -57.047318
43.9771 6.979649 -57.850739
46.330154 4.501127 -57.433525
43.409637 19.82267 -45.551254
46.90115 20.179138 -45.3843
44.60825 20.300816 -46.952721
42.302612 20.029385 -48.182076
41.143486 19.617832 -50.588539
40.032501 18.586018 -52.717079
39.052853 16.988991 -54.522369
38.262646 14.919903 -55.971001
40.624493 16.00214 -55.474243
42.444351 14.493557 -56.068504
44.46072 12.529043 -56.317711
47.508652 15.133537 -53.485855
46.984932 12.805048 -55.03653
46.614357 10.185898 -56.233788
48.846535 7.531567 -55.829567
51.10276 4.613655 -55.121399
30.824211 4.888834 -53.821281
30.601486 2.159451 -53.615616
37.691147 12.490171 -57.029457
37.340282 9.811249 -57.664169
37.19017 6.977215 -57.842255
41.613667 6.295397 -58.202072
39.346375 5.32214 -58.091774
37.208252 4.053587 -57.540367
37.355225 1.072222 -56.760178
37.593719 -1.96629 -55.533012
54.468388 16.323212 -43.918484
53.76088 17.150287 -43.785374
55.239573 15.294148 -43.983459
54.244783 15.914348 -45.180531
54.468388 16.323212 -43.918484
48.793045 19.047916 -41.632565
48.080723 18.735729 -41.139511
52.72757 9.806859 -52.065483
51.740028 11.23301 -52.297379
52.91589 10.987583 -51.30574
53.770349 8.309332 -51.736892
52.594488 8.554759 -52.728531
52.72757 9.806859 -52.065483
40.727791 19.067101 -45.54102
41.752728 19.253465 -45.181263
30.655851 7.320522 -50.592156
30.966561 8.415826 -50.181702
31.025914 8.541134 -51.301544
30.391658 6.191556 -50.930851
30.655851 7.320522 -50.592156
30.474806 6.242095 -51.933155
30.151259 4.987823 -51.152008
30.391658 6.191556 -50.930851
43.01399 -0.692426 -56.906559
42.937708 0.779227 -57.376739
43.115597 -2.186405 -56.290298
41.914583 -1.079524 -56.621219
43.01399 -0.692426 -56.906559
43.196884 -3.677769 -55.577484
43.115597 -2.186405 -56.290298
51.58299 18.902629 -43.145404
50.880558 19.117658 -42.854686
54.415184 12.651342 -48.470627
53.307816 13.079528 -49.571522
53.494233 13.978205 -48.599064
44.984457 19.427519 -43.486599
46.011801 19.260214 -42.789932
44.50851 19.81113 -44.884319
43.885583 19.439059 -44.153534
44.984457 19.427519 -43.486599
53.388176 2.894529 -53.777878
52.217308 3.037158 -54.626103
52.273628 4.471026 -54.273174
32.025163 11.317291 -48.415184
32.464382 12.135257 -47.667259
32.536364 12.384573 -48.967972
29.593314 1.192205 -51.304481
29.76153 2.480992 -51.334423
29.76771 1.100831 -52.046788
29.593314 1.192205 -51.304481
31.157342 0.439358 -53.842743
30.556509 0.736586 -53.320511
31.202319 1.862223 -54.137848
31.832118 0.088143 -54.232437
31.157342 0.439358 -53.842743
34.510745 -1.439438 -54.914894
33.527079 -0.847543 -54.770462
34.418908 0.076575 -55.47348
35.536028 -2.057052 -54.932224
34.510745 -1.439438 -54.914894
38.895689 -4.377797 -54.509426
37.742023 -3.525061 -54.728222
38.747385 -2.819025 -55.314217
40.036225 -5.244125 -54.185212
38.895689 -4.377797 -54.509426
53.011519 17.912771 -43.619469
52.307462 18.442487 -43.408028
52.724237 17.705897 -44.94965
53.011519 17.912771 -43.619469
53.76088 17.150287 -43.785374
48.711405 3.221045 -56.590751
49.876563 3.196099 -56.046753
47.088556 19.066102 -41.970242
48.080723 18.735729 -41.139511
46.68414 19.605479 -43.397694
46.011801 19.260214 -42.789932
47.088556 19.066102 -41.970242
31.282316 9.441529 -49.67004
31.662577 10.406613 -49.082443
31.716884 10.601522 -50.303494
31.282316 9.441529 -49.67004
30.966561 8.415826 -50.181702
29.936896 3.771021 -51.307141
30.151259 4.987823 -51.152008
30.059041 3.748331 -52.181595
29.76153 2.480992 -51.334423
29.936896 3.771021 -51.307141
42.863037 2.255775 -57.746193
42.815455 3.719926 -57.956909
44.014857 2.60815 -57.726715
41.738306 1.891004 -57.606933
42.863037 2.255775 -57.746193
42.937708 0.779227 -57.376739
42.123943 -4.101809 -55.173298
41.066374 -4.650938 -54.718529
40.958621 -3.122632 -55.55019
42.123943 -4.101809 -55.173298
43.196884 -3.677769 -55.577484
50.180084 19.265469 -42.491298
49.47509 19.184376 -42.109425
49.825458 19.536474 -43.895111
50.180084 19.265469 -42.491298
50.880558 19.117658 -42.854686
51.250404 18.928522 -44.521122
51.58299 18.902629 -43.145404
52.307462 18.442487 -43.408028
53.078558 12.083199 -50.490361
52.157606 13.410062 -50.618797
53.307816 13.079528 -49.571522
52.91589 10.987583 -51.30574
53.078558 12.083199 -50.490361
39.583326 19.043821 -48.069969
40.1702 19.096964 -46.822689
40.637205 19.412292 -47.777271
38.520246 18.515118 -48.281379
39.583326 19.043821 -48.069969
38.987251 18.830447 -49.235962
37.540079 17.966513 -48.367656
38.520246 18.515118 -48.281379
36.576246 17.259664 -48.363716
37.540079 17.966513 -48.367656
36.960338 17.594894 -49.443432
35.702658 16.550417 -48.246097
36.576246 17.259664 -48.363716
34.870036 15.689911 -48.034481
35.702658 16.550417 -48.246097
35.163883 16.02754 -49.227874
34.129427 14.848175 -47.728939
34.870036 15.689911 -48.034481
33.653422 14.184786 -48.618153
33.451588 13.865927 -47.330833
34.129427 14.848175 -47.728939
47.516599 3.133878 -57.067581
47.52496 4.588295 -56.956696
48.711405 3.221045 -56.590751
46.3498 3.043362 -57.3881
47.516599 3.133878 -57.067581
45.16836 2.828948 -57.640052
45.148714 4.286714 -57.685478
46.3498 3.043362 -57.3881
44.014857 2.60815 -57.726715
45.16836 2.828948 -57.640052
42.845506 19.432083 -44.691895
43.885583 19.439059 -44.153534
42.316858 19.644053 -46.040622
41.752728 19.253465 -45.181263
42.845506 19.432083 -44.691895
48.44294 19.547825 -43.054863
48.793045 19.047916 -41.632565
49.47509 19.184376 -42.109425
51.06806 3.165195 -55.36752
49.876563 3.196099 -56.046753
49.911263 4.644559 -55.800632
51.06806 3.165195 -55.36752
52.217308 3.037158 -54.626103
40.727791 19.067101 -45.54102
40.1702 19.096964 -46.822689
32.859781 12.926178 -46.865254
33.451588 13.865927 -47.330833
32.859781 12.926178 -46.865254
32.464382 12.135257 -47.667259
32.025163 11.317291 -48.415184
31.662577 10.406613 -49.082443
30.126615 0.951405 -52.750157
29.76771 1.100831 -52.046788
30.242581 2.308877 -52.912247
30.126615 0.951405 -52.750157
30.556509 0.736586 -53.320511
32.648163 -0.360119 -54.566921
31.832118 0.088143 -54.232437
32.619197 1.116732 -54.994564
32.648163 -0.360119 -54.566921
33.527079 -0.847543 -54.770462
36.631601 -2.782537 -54.889774
35.536028 -2.057052 -54.932224
36.498146 -1.240805 -55.575462
36.631601 -2.782537 -54.889774
37.742023 -3.525061 -54.728222
40.036225 -5.244125 -54.185212
41.066374 -4.650938 -54.718529
55.95044 14.209831 -44.029968
55.239573 15.294148 -43.983459
55.803663 13.637057 -45.200432
55.95044 14.209831 -44.029968
55.59648 12.969424 -46.326763
54.808785 14.217651 -46.371837
55.803663 13.637057 -45.200432
55.467555 12.171143 -47.344803
55.59648 12.969424 -46.326763
54.415184 12.651342 -48.470627
55.467555 12.171143 -47.344803
54.762338 6.751159 -51.365131
53.770349 8.309332 -51.736892
54.671629 5.441883 -51.933743
54.762338 6.751159 -51.365131
54.575243 4.077466 -52.446247
53.540882 5.692815 -52.912445
54.671629 5.441883 -51.933743
54.507076 2.672009 -52.876087
54.575243 4.077466 -52.446247
53.388176 2.894529 -53.777878
54.507076 2.672009 -52.876087
3 117 32 118
3 119 34 120
3 121 120 32
3 119 120 121
3 0 37 35
3 0 39 37
3 0 41 39
3 122 42 123
3 2 45 43
3 2 47 45
3 2 49 47
3 124 52 125
3 126 125 50
3 124 125 126
3 127 54 128
3 129 128 52
3 127 128 129
3 1 130 131
3 4 132 134
3 134 133 55
3 132 133 134
3 4 135 136
3 4 137 139
3 137 56 138
3 137 138 139
3 5 59 57
3 5 61 59
3 3 64 62
3 140 66 141
3 142 68 143
3 144 143 66
3 142 143 144
3 146 145 68
3 147 70 148
3 7 71 31
3 7 72 71
3 7 74 72
3 9 75 33
3 9 149 151
3 151 150 75
3 149 150 151
3 10 77 76
3 11 78 36
3 11 79 78
3 11 81 79
3 13 82 38
3 13 83 82
3 13 85 83
3 15 86 40
3 15 87 86
3 16 90 88
3 18 152 153
3 18 154 156
3 154 91 155
3 154 155 156
3 6 92 69
3 19 93 44
3 19 94 93
3 19 95 94
3 20 96 46
3 20 97 96
3 20 99 97
3 22 100 48
3 22 101 100
3 8 102 73
3 23 103 51
3 23 104 103
3 23 105 104
3 24 106 53
3 24 157 159
3 159 158 106
3 157 158 159
3 12 160 162
3 162 161 80
3 160 161 162
3 25 163 164
3 25 165 166
3 14 107 84
3 26 108 58
3 26 167 169
3 169 168 108
3 167 168 169
3 26 170 171
3 27 172 174
3 174 173 60
3 172 173 174
3 27 175 176
3 21 109 98
3 28 110 63
3 28 111 110
3 17 112 89
3 29 113 65
3 29 114 113
3 29 115 114
3 30 116 67
3 30 177 179
3 179 178 116
3 177 178 179
3 30 180 181
3 182 31 183
3 32 184 186
3 184 31 185
3 184 185 186
3 32 7 31
3 32 33 7
3 34 33 32
3 34 9 33
3 35 36 10
3 37 36 35
3 37 11 36
3 37 38 11
3 39 38 37
3 39 13 38
3 39 40 13
3 41 40 39
3 41 15 40
3 188 187 16
3 42 189 190
3 42 191 193
3 191 18 192
3 191 192 193
3 43 44 6
3 45 44 43
3 45 19 44
3 45 46 19
3 47 46 45
3 47 20 46
3 47 48 20
3 49 48 47
3 49 22 48
3 50 51 8
3 52 51 50
3 52 23 51
3 52 53 23
3 54 53 52
3 54 24 53
3 55 194 196
3 196 195 12
3 194 195 196
3 198 197 55
3 56 199 200
3 56 201 203
3 201 25 202
3 201 202 203
3 57 58 14
3 59 58 57
3 59 26 58
3 59 60 26
3 61 60 59
3 61 27 60
3 62 63 21
3 64 63 62
3 64 28 63
3 204 65 205
3 206 205 17
3 204 205 206
3 66 207 209
3 207 65 208
3 207 208 209
3 66 29 65
3 66 67 29
3 68 67 66
3 68 30 67
3 68 210 212
3 212 211 30
3 210 211 212
3 214 213 68
3 215 69 216
3 70 217 219
3 217 69 218
3 217 218 219
3 70 6 69
3 31 220 222
3 220 70 221
3 220 221 222
3 71 70 31
3 71 6 70
3 71 43 6
3 72 43 71
3 72 2 43
3 72 73 2
3 74 73 72
3 74 8 73
3 33 74 7
3 75 74 33
3 75 8 74
3 75 50 8
3 223 50 224
3 225 224 75
3 223 224 225
3 227 226 50
3 76 228 230
3 230 229 1
3 228 229 230
3 77 231 233
3 233 232 76
3 231 232 233
3 77 234 235
3 36 77 10
3 78 77 36
3 78 236 238
3 238 237 77
3 236 237 238
3 78 239 240
3 79 241 243
3 243 242 78
3 241 242 243
3 79 244 245
3 79 246 248
3 246 80 247
3 246 247 248
3 81 80 79
3 81 12 80
3 38 81 11
3 82 81 38
3 82 12 81
3 82 55 12
3 83 55 82
3 83 4 55
3 83 84 4
3 85 84 83
3 85 14 84
3 40 85 13
3 86 85 40
3 86 14 85
3 86 57 14
3 87 57 86
3 87 5 57
3 88 89 3
3 90 89 88
3 90 17 89
3 249 90 250
3 251 250 16
3 249 250 251
3 252 90 253
3 254 17 255
3 256 255 90
3 254 255 256
3 258 257 17
3 91 259 260
3 91 261 263
3 261 1 262
3 261 262 263
3 69 264 266
3 264 42 265
3 264 265 266
3 92 42 69
3 92 18 42
3 44 92 6
3 93 92 44
3 93 18 92
3 93 91 18
3 94 91 93
3 94 1 91
3 94 76 1
3 95 76 94
3 95 10 76
3 46 95 19
3 96 95 46
3 96 10 95
3 96 35 10
3 97 35 96
3 97 0 35
3 97 98 0
3 99 98 97
3 99 21 98
3 48 99 20
3 100 99 48
3 100 21 99
3 100 62 21
3 101 62 100
3 101 3 62
3 73 49 2
3 102 49 73
3 102 22 49
3 51 102 8
3 103 102 51
3 103 22 102
3 103 101 22
3 104 101 103
3 104 3 101
3 104 88 3
3 105 88 104
3 105 16 88
3 53 105 23
3 106 105 53
3 106 16 105
3 106 267 269
3 269 268 16
3 267 268 269
3 271 270 106
3 273 272 1
3 80 274 275
3 277 276 80
3 279 278 12
3 84 56 4
3 107 56 84
3 107 25 56
3 58 107 14
3 108 107 58
3 108 25 107
3 108 280 282
3 282 281 25
3 280 281 282
3 284 283 108
3 60 285 287
3 287 286 26
3 285 286 287
3 289 288 60
3 98 41 0
3 109 41 98
3 109 15 41
3 63 109 21
3 110 109 63
3 110 15 109
3 110 87 15
3 111 87 110
3 111 5 87
3 89 64 3
3 112 64 89
3 112 28 64
3 65 112 17
3 113 112 65
3 113 28 112
3 113 111 28
3 114 111 113
3 114 5 111
3 114 61 5
3 115 61 114
3 115 27 61
3 67 115 29
3 116 115 67
3 116 27 115
3 116 290 292
3 292 291 27
3 290 291 292
3 294 293 116
3 296 295 30
3 297 34 298
3 299 34 300
3 301 9 302
3 303 302 34
3 301 302 303
3 304 9 305
3 307 306 9
3 308 54 309
3 310 54 311
3 312 24 313
3 314 313 54
3 312 313 314
3 315 24 316
3 318 317 24
