ply
format ascii 1.0
element vertex 499
property float x
property float y
property float z
element face 544
property list uchar int vertex_index
end_header
3.62484 -98.800415 1.014847
13.334026 -74.56987 -2.105564
12.677906 -62.003616 -3.394693
12.822594 -64.293381 -8.120504
9.198866 -71.454178 10.394329
2.215578 -110.527573 -0.653854
8.464184 -86.885422 0.577958
3.166445 -99.522499 9.137257
9.259214 -89.393875 7.417199
13.704596 -79.669525 4.778914
11.892181 -68.605652 2.658763
10.740429 -56.459698 -2.904028
12.899403 -57.651875 -5.500502
2.450436 -104.762596 0.245845
2.265038 -109.154083 -5.053541
11.309196 -80.837891 -0.692741
10.676249 -76.54631 -3.876448
13.901382 -58.575817 -10.567568
8.627937 -89.176605 11.560843
11.447102 -84.665405 10.18141
12.06287 -84.619576 6.140661
12.929182 -80.21273 8.780594
6.218931 -66.373032 9.390229
10.738132 -70.414017 6.338008
7.68952 -64.808426 5.612819
8.963499 -62.602951 2.223299
13.797455 -68.181259 -3.121788
12.796566 -69.857094 -5.229876
13.505239 -63.422733 -5.883423
13.799772 -58.257832 -8.07918
4.721724 -67.500122 13.476692
2.903324 -115.879265 -1.351109
3.314762 -114.743439 -6.339998
5.703695 -92.829529 1.206652
1.524126 -110.806213 4.392855
2.1555 -105.243256 4.646094
3.805567 -99.642326 4.796871
6.043673 -94.297218 8.432982
6.277014 -94.188919 4.572034
9.201134 -88.884415 3.800022
11.973747 -83.532745 2.568504
13.802053 -77.900253 1.193374
12.661724 -75.525307 7.450027
13.661898 -74.336029 3.553209
14.008818 -71.924179 0.042767
12.495409 -65.775375 -0.614498
9.951553 -59.751122 -0.679556
2.920362 -101.792244 0.675177
2.322983 -104.055443 -1.719412
2.696606 -100.960114 -1.137346
12.481852 -77.731682 -1.417446
10.942091 -78.872086 -2.281313
12.145452 -75.627533 -3.016037
12.392609 -82.45166 9.479191
6.968016 -65.661247 7.457677
13.401791 -65.040329 -3.361145
13.620647 -65.895744 -4.562107
13.331127 -62.801777 -4.671482
13.498686 -58.008335 -6.798725
2.446497 -113.267746 -1.039286
3.173569 -115.453659 -3.939552
2.62483 -112.803551 -3.490126
7.026041 -89.859726 0.993984
12.702389 -67.139664 -6.716135
11.790594 -70.495834 -6.17457
11.916557 -67.6147 -7.710262
1.721817 -105.172585 7.055979
2.517368 -102.394333 7.001493
2.86224 -102.43277 4.751196
3.568848 -99.651375 6.896229
9.001888 -89.314407 9.418742
7.348808 -91.686234 10.021674
7.653753 -91.812317 7.964351
6.265377 -94.351784 6.434971
7.790993 -91.799446 6.04579
7.714254 -91.526779 4.255749
9.334444 -89.288788 5.548388
13.069986 -82.183792 5.456623
12.111958 -84.255013 4.30302
13.15303 -81.658539 3.617907
13.056374 -80.761322 1.87487
13.841389 -78.971962 2.941034
11.160528 -73.466599 8.903913
11.378366 -69.628883 4.449506
12.496719 -72.398895 4.905633
12.971453 -71.514709 3.054538
13.920546 -73.300568 1.753277
13.286192 -70.337738 1.300183
13.441221 -68.854202 -0.358341
12.263201 -67.321304 0.968516
7.374716 -59.555229 2.186047
9.491554 -61.248383 0.701971
8.028233 -58.255756 0.753713
8.65485 -56.888252 -0.525295
11.74577 -59.124146 -3.230864
12.746386 -59.870876 -4.543257
11.971775 -57.151608 -4.197304
2.215895 -107.683807 -0.213852
2.294422 -110.005745 -2.950329
2.19133 -107.080986 -2.344959
2.085176 -106.123116 -4.286915
9.92923 -83.885117 -0.003981
8.050226 -85.24826 -0.961967
9.535164 -82.078217 -1.568441
13.211567 -61.409458 -9.412479
12.311895 -64.633682 -9.177404
13.000383 -61.637829 -10.540804
10.160742 -86.893951 10.877611
10.530489 -87.004349 8.773277
10.761808 -87.009613 6.802726
11.82971 -84.717972 8.097502
12.807673 -82.413666 7.40766
13.392836 -80.053421 6.72268
7.789425 -68.992004 9.833341
10.000668 -71.003769 8.321571
8.57395 -68.405632 7.832114
9.308315 -67.673454 5.918331
9.963511 -66.756058 4.098805
10.515583 -65.627777 2.379565
8.360571 -63.792004 3.864721
13.78348 -71.373878 -2.69133
13.034046 -72.359116 -3.68811
13.533152 -69.099518 -4.222702
13.3388 -66.58255 -5.676107
13.28521 -63.905117 -7.029369
13.334946 -60.431179 -5.823385
13.538826 -60.846622 -7.061924
13.449326 -61.158653 -8.256298
13.890337 -58.435661 -9.335798
8.361666 -71.825272 12.54561
6.171488 -69.910477 14.056471
6.981686 -69.47876 11.912421
5.464357 -66.974915 11.400454
3.579201 -118.3339 -1.582422
3.929354 -117.936806 -4.290421
2.678513 -112.034508 -5.749233
4.558155 -95.809082 1.206823
11.888533 -73.192871 -4.602966
10.595169 -73.921288 -5.487051
2.489561 -116.06279 1.382415
2.099564 -113.477669 1.56463
1.95612 -110.773079 1.802267
1.705326 -108.045578 4.516973
2.060305 -107.982246 2.080703
2.410133 -105.135513 2.373048
2.999653 -102.261917 2.640475
3.818533 -99.387688 2.83629
5.680735 -94.147324 10.574906
4.520969 -96.866875 8.82156
4.835949 -96.967171 6.714516
4.956825 -96.891808 4.747017
4.850515 -96.532417 2.913518
6.06971 -93.704552 2.834467
7.43511 -90.898857 2.579584
8.885311 -88.097176 2.152826
10.806782 -86.78669 4.958284
10.653673 -86.230957 3.22552
10.336044 -85.272896 1.581878
11.683119 -82.398308 0.913405
12.81213 -79.45282 0.205173
13.614492 -76.429573 -0.482485
13.020103 -77.913193 8.098582
13.540014 -77.607903 6.063081
11.882341 -73.029541 6.85565
13.234896 -75.058914 5.450236
13.9104 -77.055977 4.135717
14.108797 -76.184433 2.308861
14.13282 -74.949181 0.569772
14.007088 -73.33902 -1.093899
13.950823 -70.20816 -1.582958
13.462547 -67.076385 -1.916433
12.616789 -63.989433 -2.076269
10.953352 -64.280991 0.769003
11.283947 -62.72736 -0.718756
11.533964 -60.995472 -2.061695
10.361128 -58.144783 -1.893421
9.252663 -55.494312 -1.619255
7.53494 -87.640519 0.02145
6.815869 -89.12767 0.229463
7.745112 -88.372574 0.785971
2.841906 -100.958416 8.069375
2.281703 -102.32143 8.197278
2.606241 -100.885514 9.265161
10.179697 -72.460388 9.649121
10.763047 -73.624207 9.974063
9.782216 -72.617997 10.719272
6.957971 -57.383169 1.501974
7.701474 -58.905492 1.46988
6.631213 -58.032905 2.218141
7.368534 -56.795026 0.823158
6.957971 -57.383169 1.501974
2.117057 -104.547214 -3.897797
2.204079 -105.08928 -3.003163
2.23596 -103.513378 -2.614046
2.068499 -105.4533 -5.153973
2.117057 -104.547214 -3.897797
9.968909 -78.218368 -3.510796
10.10183 -79.381257 -2.713229
10.80917 -77.709198 -3.07888
9.939139 -76.961182 -4.315896
9.968909 -78.218368 -3.510796
10.803922 -85.779678 10.529511
10.564155 -85.737533 11.63542
11.207334 -84.623261 11.287319
7.935873 -71.99804 13.652853
8.943879 -72.936104 12.904795
5.446606 -68.705299 13.766582
5.087483 -68.943917 14.831245
4.362601 -67.738739 14.541355
3.737367 -116.004932 -6.577277
3.666771 -116.360042 -5.377054
3.244166 -115.098549 -5.139775
3.82163 -115.516423 -7.721381
3.737367 -116.004932 -6.577277
4.946617 -93.754917 0.408851
4.373847 -95.244694 0.408936
5.130925 -94.319305 1.206738
7.181073 -85.887852 -1.505387
7.908429 -84.232158 -1.734311
10.678185 -72.493802 -6.294719
11.192882 -72.208561 -5.830811
11.275897 -70.781075 -6.638478
10.008768 -74.258881 -5.943708
10.678185 -72.493802 -6.294719
11.761611 -66.344642 -8.935542
12.134719 -64.799652 -9.699625
2.23982 -116.053967 2.804901
2.806801 -117.27586 1.321442
1.811845 -112.141941 2.978743
1.858877 -113.482441 2.928918
1.571157 -112.146713 4.34303
7.794536 -90.361068 11.893506
8.423551 -89.135532 12.704172
12.840913 -76.71925 7.774305
12.497846 -76.862545 8.82557
12.318656 -75.668602 8.501292
8.398079 -54.835755 -0.96433
8.953757 -56.191282 -1.072275
8.099172 -55.532725 -0.417349
8.809029 -54.302381 -1.472315
8.398079 -54.835755 -0.96433
10.92339 -55.575583 -3.290421
10.267824 -55.278431 -2.690993
2.422772 -101.965713 -2.323013
2.23596 -103.513378 -2.614046
2.509794 -102.507779 -1.428379
13.94238 -58.641064 -11.170738
14.399614 -57.221708 -11.07214
11.657037 -83.538742 10.926329
11.207334 -84.623261 11.287319
12.129791 -82.43187 10.575219
11.919856 -83.558533 9.8303
11.657037 -83.538742 10.926329
12.371255 -81.35204 10.21579
12.129791 -82.43187 10.575219
12.639541 -80.232574 9.866492
12.660896 -81.332195 9.129893
12.371255 -81.35204 10.21579
5.76733 -64.62253 8.270636
6.593473 -66.017139 8.423953
5.392788 -64.978422 9.236912
6.121617 -64.214185 7.334316
5.76733 -64.62253 8.270636
6.482368 -63.787775 6.411886
7.328768 -65.234837 6.535248
6.121617 -64.214185 7.334316
6.839495 -63.316807 5.520962
6.482368 -63.787775 6.411886
13.356485 -56.710823 -6.530741
13.199044 -57.830105 -6.149614
13.056844 -56.532593 -5.88163
13.696976 -56.81202 -7.196979
13.356485 -56.710823 -6.530741
13.847519 -56.936768 -7.837206
13.649229 -58.133083 -7.438952
13.696976 -56.81202 -7.196979
14.072147 -57.000395 -8.505171
13.847519 -56.936768 -7.837206
3.663916 -66.47879 14.301169
4.362601 -67.738739 14.541355
3.972419 -66.204369 13.264936
3.663916 -66.47879 14.301169
2.49353 -110.036846 -6.414379
2.264716 -108.545174 -5.992427
6.16157 -90.697975 0.328026
5.500396 -92.182876 0.434361
6.364868 -91.344628 1.100318
6.16157 -90.697975 0.328026
6.815869 -89.12767 0.229463
11.338878 -69.340508 -7.406324
11.275897 -70.781075 -6.638478
11.853575 -69.055267 -6.942416
1.261695 -110.749992 5.748933
1.571157 -112.146713 4.34303
1.883927 -103.710556 8.224521
1.465416 -105.093827 8.329879
2.119592 -103.783459 7.028736
1.883927 -103.710556 8.224521
2.281703 -102.32143 8.197278
11.568058 -74.639248 9.228235
10.763047 -73.624207 9.974063
11.911126 -74.495953 8.17697
12.318656 -75.668602 8.501292
11.568058 -74.639248 9.228235
7.681843 -56.111275 0.183654
8.341541 -57.572004 0.114209
7.368534 -56.795026 0.823158
8.099172 -55.532725 -0.417349
7.681843 -56.111275 0.183654
11.539062 -55.921537 -3.93706
11.356102 -56.805653 -3.550666
10.92339 -55.575583 -3.290421
12.122854 -56.132451 -4.573018
11.539062 -55.921537 -3.93706
12.586668 -56.382584 -5.224617
12.435589 -57.401741 -4.848903
12.122854 -56.132451 -4.573018
13.056844 -56.532593 -5.88163
12.586668 -56.382584 -5.224617
2.174785 -107.02969 -5.609115
2.264716 -108.545174 -5.992427
2.175107 -107.638599 -4.670228
2.174785 -107.02969 -5.609115
2.068499 -105.4533 -5.153973
8.650898 -82.647137 -2.037548
7.908429 -84.232158 -1.734311
8.792695 -83.663239 -1.265204
9.398366 -80.984322 -2.356793
10.238627 -80.475151 -1.924877
10.10183 -79.381257 -2.713229
8.650898 -82.647137 -2.037548
9.398366 -80.984322 -2.356793
12.478963 -63.301726 -10.381325
12.134719 -64.799652 -9.699625
12.656139 -63.135756 -9.859104
13.491881 -60.17207 -11.157356
13.450882 -60.106823 -10.554186
13.94238 -58.641064 -11.170738
12.995045 -61.754762 -11.094936
13.491881 -60.17207 -11.157356
12.478963 -63.301726 -10.381325
12.995045 -61.754762 -11.094936
2.93732 -99.444039 10.332774
2.606241 -100.885514 9.265161
9.173458 -87.987076 12.339411
8.423551 -89.135532 12.704172
9.93986 -86.845748 11.997795
10.564155 -85.737533 11.63542
9.39434 -88.035278 11.219227
9.173458 -87.987076 12.339411
9.93986 -86.845748 11.997795
7.175021 -62.808596 4.646913
8.025046 -64.300215 4.73877
6.839495 -63.316807 5.520962
7.526982 -62.272091 3.807284
7.175021 -62.808596 4.646913
7.828447 -61.677565 2.986573
8.662035 -63.197477 3.04401
7.526982 -62.272091 3.807284
7.034055 -60.153703 2.967948
8.169108 -61.07909 2.204673
7.828447 -61.677565 2.986573
6.231814 -58.605814 2.96567
7.034055 -60.153703 2.967948
6.631213 -58.032905 2.218141
6.231814 -58.605814 2.96567
14.117429 -57.089309 -9.13348
13.845054 -58.346747 -8.707489
14.072147 -57.000395 -8.505171
14.265663 -57.127459 -9.798409
14.117429 -57.089309 -9.13348
14.271185 -57.197536 -10.414295
13.89586 -58.505739 -9.951683
14.265663 -57.127459 -9.798409
14.399614 -57.221708 -11.07214
14.271185 -57.197536 -10.414295
9.363616 -72.803543 11.794912
8.943879 -72.936104 12.904795
8.780266 -71.639725 11.46997
9.782216 -72.617997 10.719272
9.363616 -72.803543 11.794912
5.772396 -70.116356 15.153331
5.087483 -68.943917 14.831245
6.840784 -71.040642 14.408283
5.772396 -70.116356 15.153331
7.266577 -70.867874 13.30104
7.935873 -71.99804 13.652853
6.840784 -71.040642 14.408283
4.343735 -65.941765 12.226817
5.09304 -67.237518 12.438573
3.972419 -66.204369 13.264936
4.671632 -65.632855 11.217779
4.343735 -65.941765 12.226817
5.048919 -65.331913 10.212667
5.841644 -66.673973 10.395342
4.671632 -65.632855 11.217779
5.392788 -64.978422 9.236912
5.048919 -65.331913 10.212667
4.229516 -119.281242 -3.062723
4.023544 -119.464493 -1.657531
4.404592 -119.082695 -4.416723
4.229516 -119.281242 -3.062723
3.754277 -118.135353 -2.936422
4.563209 -118.762917 -5.732741
4.404592 -119.082695 -4.416723
4.044664 -117.601616 -5.552488
3.551462 -116.695233 -4.114987
3.666771 -116.360042 -5.377054
4.563209 -118.762917 -5.732741
4.044664 -117.601616 -5.552488
2.700267 -111.477058 -6.762225
2.471776 -110.594296 -5.401387
2.49353 -110.036846 -6.414379
3.046519 -112.87164 -7.127206
2.700267 -111.477058 -6.762225
3.364643 -114.226105 -7.422589
2.996638 -113.388973 -6.044615
3.046519 -112.87164 -7.127206
3.82163 -115.516423 -7.721381
3.364643 -114.226105 -7.422589
3.938325 -96.817784 0.267739
3.471667 -98.31345 0.171751
4.091498 -97.304749 1.110835
3.938325 -96.817784 0.267739
4.373847 -95.244694 0.408936
4.946617 -93.754917 0.408851
5.500396 -92.182876 0.434361
7.327961 -86.821938 -0.748512
7.53494 -87.640519 0.02145
8.257205 -86.066841 -0.192005
7.327961 -86.821938 -0.748512
7.181073 -85.887852 -1.505387
9.898599 -75.648671 -5.121198
9.939139 -76.961182 -4.315896
10.635709 -75.233799 -4.68175
9.898599 -75.648671 -5.121198
10.008768 -74.258881 -5.943708
11.563942 -67.835151 -8.201971
12.114226 -66.124191 -8.443833
11.761611 -66.344642 -8.935542
11.338878 -69.340508 -7.406324
11.563942 -67.835151 -8.201971
3.351621 -118.411415 -0.160976
4.023544 -119.464493 -1.657531
3.034381 -117.198345 -0.100004
3.351621 -118.411415 -0.160976
2.806801 -117.27586 1.321442
2.053875 -114.775002 2.83781
2.23982 -116.053967 2.804901
2.294563 -114.770229 1.473523
2.053875 -114.775002 2.83781
1.858877 -113.482441 2.928918
1.367109 -109.37944 5.738518
1.261695 -110.749992 5.748933
1.465954 -106.562626 7.07008
1.465416 -105.093827 8.329879
1.457708 -107.999122 5.800577
1.465954 -106.562626 7.07008
1.713572 -106.609082 5.786476
1.614726 -109.425895 4.454914
1.367109 -109.37944 5.738518
1.457708 -107.999122 5.800577
3.634662 -98.115871 10.106853
2.93732 -99.444039 10.332774
7.154971 -91.615883 11.123922
7.794536 -90.361068 11.893506
7.988372 -90.43142 10.791259
6.320934 -92.846428 11.400538
7.154971 -91.615883 11.123922
6.514772 -92.916779 10.29829
5.480339 -94.083496 11.722452
6.320934 -92.846428 11.400538
4.891807 -95.428284 10.825678
5.480339 -94.083496 11.722452
4.311924 -96.78806 9.949005
4.891807 -95.428284 10.825678
5.100852 -95.507099 9.698233
3.843707 -98.194687 8.979408
3.634662 -98.115871 10.106853
4.311924 -96.78806 9.949005
12.656811 -79.138286 9.511309
12.639541 -80.232574 9.866492
12.702271 -77.988518 9.170303
12.497846 -76.862545 8.82557
12.974643 -79.062962 8.439588
12.656811 -79.138286 9.511309
12.702271 -77.988518 9.170303
9.523941 -54.795738 -2.048606
10.267824 -55.278431 -2.690993
9.996546 -55.977005 -2.261642
9.523941 -54.795738 -2.048606
8.809029 -54.302381 -1.472315
3.00755 -99.3933 -0.904346
3.160723 -99.880265 -0.061249
3.471667 -98.31345 0.171751
2.581799 -100.347302 -1.967411
3.00755 -99.3933 -0.904346
2.422772 -101.965713 -2.323013
2.581799 -100.347302 -1.967411
3 0 49 47
3 1 52 50
3 2 57 55
3 5 61 59
3 6 177 179
3 179 178 62
3 177 178 179
3 3 65 63
3 7 180 182
3 180 67 181
3 180 181 182
3 7 69 67
3 8 72 70
3 8 74 72
3 8 76 74
3 9 79 77
3 9 81 79
3 4 183 185
3 183 82 184
3 183 184 185
3 10 85 83
3 10 87 85
3 10 89 87
3 186 92 187
3 188 187 90
3 186 187 188
3 190 189 92
3 11 96 94
3 13 99 97
3 191 100 192
3 193 192 48
3 191 192 193
3 195 194 100
3 15 103 101
3 16 196 198
3 198 197 51
3 196 197 198
3 16 199 200
3 17 106 104
3 19 201 203
3 201 107 202
3 201 202 203
3 19 108 107
3 19 110 108
3 21 111 53
3 21 112 111
3 22 115 113
3 24 116 54
3 24 117 116
3 24 119 117
3 26 122 120
3 28 123 56
3 28 124 123
3 12 125 95
3 29 126 58
3 29 127 126
3 29 128 127
3 204 129 205
3 30 206 208
3 206 130 207
3 206 207 208
3 30 131 130
3 30 132 131
3 31 134 133
3 32 209 211
3 211 210 60
3 209 210 211
3 32 212 213
3 14 135 98
3 33 214 216
3 216 215 136
3 214 215 216
3 218 217 102
3 27 137 121
3 219 138 220
3 221 220 64
3 219 220 221
3 223 222 138
3 225 224 105
3 226 139 227
3 34 228 230
3 228 140 229
3 228 229 230
3 34 141 140
3 35 142 66
3 35 143 142
3 35 144 143
3 36 145 68
3 36 146 145
3 18 231 232
3 37 147 71
3 37 148 147
3 37 149 148
3 38 150 73
3 38 151 150
3 38 152 151
3 39 153 75
3 39 154 153
3 20 155 109
3 40 156 78
3 40 157 156
3 40 158 157
3 41 159 80
3 41 160 159
3 42 233 235
3 233 161 234
3 233 234 235
3 42 162 161
3 23 163 114
3 43 164 84
3 43 165 164
3 43 166 165
3 44 167 86
3 44 168 167
3 44 169 168
3 45 170 88
3 45 171 170
3 25 172 118
3 46 173 91
3 46 174 173
3 46 175 174
3 236 176 237
3 238 237 93
3 236 237 238
3 240 239 176
3 242 241 11
3 47 48 13
3 49 48 47
3 49 243 245
3 245 244 48
3 243 244 245
3 50 51 15
3 52 51 50
3 52 16 51
3 247 246 17
3 248 19 249
3 250 53 251
3 252 251 19
3 250 251 252
3 253 53 254
3 255 21 256
3 257 256 53
3 255 256 257
3 258 54 259
3 260 259 22
3 258 259 260
3 261 54 262
3 263 24 264
3 265 264 54
3 263 264 265
3 267 266 24
3 55 56 26
3 57 56 55
3 57 28 56
3 268 58 269
3 270 269 12
3 268 269 270
3 271 58 272
3 273 29 274
3 275 274 58
3 273 274 275
3 277 276 29
3 278 30 279
3 281 280 30
3 59 60 31
3 61 60 59
3 61 32 60
3 283 282 14
3 62 284 286
3 286 285 33
3 284 285 286
3 288 287 62
3 63 64 27
3 65 64 63
3 65 289 291
3 291 290 64
3 289 290 291
3 292 34 293
3 294 66 295
3 67 296 298
3 296 66 297
3 296 297 298
3 67 35 66
3 67 68 35
3 69 68 67
3 69 36 68
3 70 71 18
3 72 71 70
3 72 37 71
3 72 73 37
3 74 73 72
3 74 38 73
3 74 75 38
3 76 75 74
3 76 39 75
3 77 78 20
3 79 78 77
3 79 40 78
3 79 80 40
3 81 80 79
3 81 41 80
3 82 299 300
3 82 301 303
3 301 42 302
3 301 302 303
3 83 84 23
3 85 84 83
3 85 43 84
3 85 86 43
3 87 86 85
3 87 44 86
3 87 88 44
3 89 88 87
3 89 45 88
3 90 91 25
3 92 91 90
3 92 46 91
3 92 93 46
3 304 93 305
3 306 305 92
3 304 305 306
3 308 307 93
3 94 95 2
3 96 95 94
3 96 12 95
3 309 96 310
3 311 310 11
3 309 310 311
3 312 96 313
3 314 12 315
3 316 315 96
3 314 315 316
3 318 317 12
3 97 98 5
3 99 98 97
3 99 14 98
3 48 99 13
3 100 99 48
3 100 14 99
3 100 319 321
3 321 320 14
3 319 320 321
3 323 322 100
3 101 102 6
3 103 102 101
3 103 324 326
3 326 325 102
3 324 325 326
3 51 103 15
3 327 103 328
3 329 328 51
3 327 328 329
3 331 330 103
3 104 105 3
3 106 105 104
3 106 332 334
3 334 333 105
3 332 333 334
3 335 106 336
3 337 336 17
3 335 336 337
3 338 106 339
3 341 340 106
3 342 7 343
3 344 18 345
3 107 346 347
3 107 348 350
3 348 18 349
3 348 349 350
3 107 70 18
3 108 70 107
3 108 8 70
3 108 109 8
3 110 109 108
3 110 20 109
3 53 110 19
3 111 110 53
3 111 20 110
3 111 77 20
3 112 77 111
3 112 9 77
3 113 114 4
3 115 114 113
3 115 23 114
3 54 115 22
3 116 115 54
3 116 23 115
3 116 83 23
3 117 83 116
3 117 10 83
3 117 118 10
3 119 118 117
3 119 25 118
3 351 119 352
3 353 352 24
3 351 352 353
3 354 119 355
3 356 25 357
3 358 357 119
3 356 357 358
3 359 90 360
3 361 360 25
3 359 360 361
3 362 90 363
3 365 364 90
3 120 121 1
3 122 121 120
3 122 27 121
3 56 122 26
3 123 122 56
3 123 27 122
3 123 63 27
3 124 63 123
3 124 3 63
3 95 57 2
3 125 57 95
3 125 28 57
3 58 125 12
3 126 125 58
3 126 28 125
3 126 124 28
3 127 124 126
3 127 3 124
3 127 104 3
3 128 104 127
3 128 17 104
3 366 128 367
3 368 367 29
3 366 367 368
3 369 128 370
3 371 17 372
3 373 372 128
3 371 372 373
3 375 374 17
3 129 376 377
3 129 378 380
3 378 4 379
3 378 379 380
3 130 381 382
3 130 383 384
3 130 385 387
3 385 129 386
3 385 386 387
3 131 129 130
3 131 4 129
3 131 113 4
3 132 113 131
3 132 22 113
3 388 132 389
3 390 389 30
3 388 389 390
3 391 132 392
3 393 22 394
3 395 394 132
3 393 394 395
3 397 396 22
3 133 398 399
3 134 400 402
3 402 401 133
3 400 401 402
3 134 403 404
3 60 134 31
3 405 134 406
3 407 406 60
3 405 406 407
3 409 408 134
3 98 61 5
3 135 61 98
3 135 32 61
3 410 135 411
3 412 411 14
3 410 411 412
3 413 135 414
3 415 32 416
3 417 416 135
3 415 416 417
3 419 418 32
3 136 420 422
3 422 421 0
3 420 421 422
3 424 423 136
3 426 425 33
3 102 427 429
3 429 428 6
3 427 428 429
3 431 430 102
3 121 52 1
3 137 52 121
3 137 16 52
3 64 137 27
3 138 137 64
3 138 16 137
3 138 432 434
3 434 433 16
3 432 433 434
3 436 435 138
3 105 65 3
3 437 65 438
3 439 438 105
3 437 438 439
3 441 440 65
3 442 133 443
3 139 444 446
3 444 133 445
3 444 445 446
3 139 31 133
3 447 139 448
3 140 449 451
3 449 139 450
3 449 450 451
3 140 31 139
3 140 59 31
3 141 59 140
3 141 5 59
3 452 34 453
3 66 454 455
3 142 456 458
3 458 457 66
3 456 457 458
3 142 459 461
3 459 34 460
3 459 460 461
3 142 141 34
3 143 141 142
3 143 5 141
3 143 97 5
3 144 97 143
3 144 13 97
3 68 144 35
3 145 144 68
3 145 13 144
3 145 47 13
3 146 47 145
3 146 0 47
3 462 7 463
3 71 464 466
3 466 465 18
3 464 465 466
3 147 467 469
3 469 468 71
3 467 468 469
3 147 470 471
3 147 472 473
3 148 474 476
3 476 475 147
3 474 475 476
3 148 477 479
3 477 7 478
3 477 478 479
3 148 69 7
3 149 69 148
3 149 36 69
3 73 149 37
3 150 149 73
3 150 36 149
3 150 146 36
3 151 146 150
3 151 0 146
3 151 136 0
3 152 136 151
3 152 33 136
3 75 152 38
3 153 152 75
3 153 33 152
3 153 62 33
3 154 62 153
3 154 6 62
3 109 76 8
3 155 76 109
3 155 39 76
3 78 155 20
3 156 155 78
3 156 39 155
3 156 154 39
3 157 154 156
3 157 6 154
3 157 101 6
3 158 101 157
3 158 15 101
3 80 158 40
3 159 158 80
3 159 15 158
3 159 50 15
3 160 50 159
3 160 1 50
3 480 21 481
3 161 482 483
3 161 484 486
3 484 21 485
3 484 485 486
3 161 112 21
3 162 112 161
3 162 9 112
3 114 82 4
3 163 82 114
3 163 42 82
3 84 163 23
3 164 163 84
3 164 42 163
3 164 162 42
3 165 162 164
3 165 9 162
3 165 81 9
3 166 81 165
3 166 41 81
3 86 166 43
3 167 166 86
3 167 41 166
3 167 160 41
3 168 160 167
3 168 1 160
3 168 120 1
3 169 120 168
3 169 26 120
3 88 169 44
3 170 169 88
3 170 26 169
3 170 55 26
3 171 55 170
3 171 2 55
3 118 89 10
3 172 89 118
3 172 45 89
3 91 172 25
3 173 172 91
3 173 45 172
3 173 171 45
3 174 171 173
3 174 2 171
3 174 94 2
3 175 94 174
3 175 11 94
3 93 175 46
3 176 175 93
3 176 11 175
3 176 487 489
3 489 488 11
3 487 488 489
3 491 490 176
3 492 49 493
3 494 493 0
3 492 493 494
3 495 49 496
3 498 497 49
