ply
format ascii 1.0
element vertex 825
property float x
property float y
property float z
element face 901
property list uchar int vertex_index
end_header
33.749649 -60.447842 56.332909
34.72068 -76.917175 54.325111
38.294834 -47.216866 51.11499
54.75531 -52.193531 48.158661
21.999413 -79.984756 56.846832
38.095104 -62.993671 51.370918
40.857025 -72.651733 52.485313
34.110992 -67.864334 55.560211
35.175903 -54.638546 53.348465
41.726608 -56.387402 48.658722
23.890114 -73.690582 65.587814
16.263102 -77.91658 68.73114
34.805485 -85.260643 47.953022
46.104839 -49.182121 48.015335
50.562378 -59.162273 48.217094
32.650673 -55.325191 62.293198
31.816669 -62.977169 63.453949
15.875747 -63.764957 80.334564
29.718771 -71.019493 61.017181
28.723059 -78.225357 55.254967
28.430477 -84.7173 44.649582
21.589182 -87.750664 45.79546
35.212448 -61.479546 53.54232
36.149734 -65.676117 53.210159
33.87405 -63.663158 55.898865
34.364853 -57.911449 54.967422
36.515747 -58.615379 51.767296
37.769234 -75.163292 53.498634
41.88311 -47.917534 48.841621
44.157181 -61.324924 49.277763
46.150311 -57.781826 48.247894
17.299648 -58.585712 81.148994
32.783657 -51.550747 60.7463
30.750826 -67.009285 62.602043
28.577517 -68.52755 65.900208
22.656092 -76.910553 61.637169
26.028225 -75.65303 60.165718
25.479105 -78.718681 55.841446
28.582748 -81.394676 50.51635
25.210606 -81.796783 50.504738
18.388275 -91.030136 47.953091
42.041367 -64.681976 50.499405
43.778881 -69.619919 51.440033
39.667984 -67.723099 51.84417
37.081551 -70.331497 53.425392
34.43158 -72.39119 55.228088
36.378643 -51.007847 51.936028
39.628971 -51.621685 49.196945
37.908073 -55.257996 50.266014
39.91695 -59.853901 49.875992
25.721542 -70.113159 68.667404
22.17765 -71.945511 70.803185
20.238491 -75.563591 67.352608
18.984585 -78.90831 63.108101
34.625694 -89.101036 42.226593
48.228569 -54.203594 47.750244
33.260799 -58.097515 58.942284
32.897999 -61.539082 59.451904
11.546202 -65.021545 81.401718
34.178684 -51.015198 55.982506
33.576859 -54.669441 57.559883
32.432003 -65.41481 59.087227
32.004269 -69.615845 58.286377
31.785057 -73.83989 57.035683
27.057814 -72.270531 63.477654
29.041399 -74.799522 58.672462
31.751146 -77.839119 54.858788
31.761869 -81.510361 51.211769
31.701761 -84.991341 45.987537
31.470282 -88.653214 39.686119
18.40839 -82.290245 58.218048
15.110473 -89.483322 54.750351
18.334007 -86.199425 52.996864
21.734661 -83.400078 51.399315
24.994141 -85.489143 44.550068
28.055502 -88.756668 38.333809
34.295181 -60.875961 54.987312
34.552719 -62.654972 54.610992
33.795521 -61.846298 56.117508
34.022079 -59.330181 55.721321
34.779125 -59.627293 54.087639
36.232468 -76.146423 53.946617
39.988129 -47.483738 49.785416
19.360138 -57.923397 80.204834
17.781443 -56.010742 81.361839
29.418915 -66.551941 66.772881
22.265553 -78.441734 59.342369
24.019512 -77.724899 58.710739
23.76322 -79.22493 56.287666
25.323605 -80.222504 53.285561
23.590733 -80.766464 53.649429
53.922066 -49.78743 48.67337
39.974842 -63.833359 50.787651
40.888451 -66.249313 51.14991
38.904766 -65.323151 51.535431
35.138096 -66.829407 54.320213
36.630173 -67.965561 53.285065
35.452808 -69.102356 54.310204
35.756432 -71.436371 54.309967
34.265987 -70.110397 55.418793
35.705299 -52.855732 52.58989
37.066505 -53.083542 50.941093
36.390396 -54.872791 51.632515
37.286423 -60.753845 51.429634
38.074684 -59.187366 50.638794
39.018501 -61.474174 50.591461
40.994179 -62.246803 50.095917
17.104164 -76.035416 70.632332
19.155704 -74.877441 69.972412
18.27758 -76.692337 68.096687
19.521156 -77.256035 65.32206
17.585556 -78.447075 66.031647
42.35347 -71.18605 51.962769
34.731064 -87.191971 45.255177
45.280724 -46.714241 48.518112
40.605946 -53.971348 48.758949
41.602421 -52.142021 48.396187
42.694454 -54.58569 48.216274
48.394073 -58.489929 48.246361
47.167221 -55.987797 47.907036
49.405876 -56.702778 47.926865
50.450779 -54.933609 47.797604
51.558449 -57.383591 47.901878
32.993221 -56.731064 60.596878
32.877548 -58.524849 61.116768
18.091137 -63.0242 79.703804
17.178127 -65.55777 79.196602
14.92065 -66.328079 79.693382
34.753937 -49.1171 55.316757
33.840752 -49.325428 57.60659
32.674736 -53.445652 61.535263
33.183029 -53.09705 59.10788
33.072109 -54.929302 59.897873
33.413094 -56.408535 58.319832
32.398983 -62.235748 61.418472
32.67429 -63.418526 59.344147
32.037598 -64.199837 61.219009
30.203472 -69.030762 61.894325
31.241707 -68.288574 60.323471
30.895906 -70.352631 59.673294
31.865314 -71.742737 57.739067
30.625134 -72.386803 58.873413
24.742823 -71.950562 67.240349
26.334272 -71.165375 66.080986
25.539715 -72.937996 64.576408
27.312916 -76.848801 57.614258
27.577469 -75.207489 59.429115
28.847038 -76.557587 57.120293
30.320116 -76.258713 56.625999
30.256142 -78.064575 55.054558
31.759596 -79.713593 53.240303
30.221252 -79.785614 53.119507
28.519403 -83.001091 47.690605
30.157055 -83.091988 48.144295
30.092949 -84.782578 45.192245
31.616743 -86.771904 42.921108
29.981049 -86.585503 42.044777
16.769228 -81.92395 61.422356
16.620983 -83.747711 58.94413
15.300529 -91.808144 52.423523
19.958694 -89.322853 46.804642
18.379498 -88.491257 50.419464
19.998898 -86.861282 49.42939
20.01564 -84.68158 52.138245
21.670326 -85.429329 48.5756
23.381929 -84.298317 47.935631
23.273598 -86.442863 45.020302
36.48774 -62.197575 52.297417
37.138149 -64.397385 52.234039
35.670464 -63.501411 53.27494
34.833702 -64.661903 54.405853
33.978939 -65.696861 55.711693
34.743084 -56.332558 54.158684
35.807587 -56.579208 52.409424
35.279556 -58.175674 53.234612
35.863033 -60.12376 52.616051
39.318802 -73.988258 53.003174
41.208317 -75.14418 52.582756
39.580677 -76.457092 52.928848
34.848392 -83.279869 50.235687
42.933212 -58.845947 48.856064
43.901745 -57.069256 48.346336
45.155876 -59.567429 48.722015
32.197861 -53.890915 63.963837
18.818666 -60.472244 80.031509
16.672691 -61.177856 80.813972
33.078171 -49.638985 60.013657
31.103306 -63.745743 65.467911
31.309052 -64.982826 63.13118
30.448204 -65.76561 65.002708
29.741198 -67.771194 64.303604
29.054605 -69.738861 63.395889
23.193165 -75.33812 63.719521
24.888702 -74.614471 62.851097
24.386644 -76.2024 60.898712
25.704609 -77.212875 58.137283
27.133503 -78.412323 55.504753
28.643219 -79.82357 53.051682
27.011286 -79.935005 53.093147
26.919514 -81.476028 50.401367
26.832771 -83.111725 47.484089
16.87513 -92.724541 49.130325
18.270992 -93.778381 45.645721
19.817368 -92.051781 44.330288
21.426094 -90.375778 43.140701
23.095963 -88.900314 42.189312
44.19717 -65.505707 50.402771
42.990921 -67.144043 50.985703
41.699501 -68.705307 51.579323
40.333717 -70.172432 52.19873
37.785973 -66.703705 52.361382
38.392338 -69.088821 52.600174
38.915291 -71.525131 52.852501
37.470718 -72.740273 53.535049
36.02388 -73.794624 54.226357
34.5895 -74.670135 54.898865
37.234814 -49.119827 51.433556
38.84444 -49.362625 49.984528
37.874863 -51.237816 50.378555
38.71106 -53.461437 49.658623
39.704662 -55.772392 49.279259
37.187897 -56.984585 50.979485
38.871372 -57.519268 49.91684
40.810432 -58.151249 49.224571
41.973179 -60.578484 49.449173
43.12664 -63.035442 49.876274
24.028244 -70.990158 69.814377
23.003052 -72.823334 68.274582
21.132282 -73.799538 69.185196
22.117306 -74.560715 66.513763
21.398067 -76.214699 64.545647
20.849072 -77.810959 62.378716
20.458755 -79.391357 60.023628
40.683689 -49.76561 48.917221
44.90633 -55.270176 47.964722
45.969528 -53.470211 47.758919
49.349808 -52.443298 47.81192
33.50526 -59.385597 57.447891
33.351749 -60.918465 57.677734
33.092091 -59.782078 59.333946
32.683716 -60.348072 61.394958
32.218517 -61.01075 63.536781
15.769371 -56.606979 82.430717
15.215471 -59.21862 82.052933
14.521805 -61.836365 81.548302
13.677418 -64.440216 80.905785
12.702675 -67.014343 80.114334
35.873848 -49.041431 53.231865
35.152508 -50.936211 53.827255
34.629505 -52.785534 54.552544
33.411404 -51.227695 58.317482
33.808483 -52.870136 56.753311
34.253487 -54.569344 55.350555
33.966671 -56.271023 56.153404
33.722298 -57.877224 56.884674
33.25444 -62.640587 57.603615
33.170425 -64.566132 57.412231
33.104359 -66.633972 57.170822
31.636227 -66.226761 60.8424
32.19912 -67.493774 58.729378
33.069492 -68.790215 56.898438
33.07288 -70.988892 56.575546
33.110634 -73.190292 56.146515
33.169506 -75.360718 55.528084
27.239977 -69.299896 67.360611
27.770117 -70.439461 64.797195
28.446579 -71.645782 62.290001
26.474796 -74.009262 61.93911
27.951336 -73.472786 60.976517
29.328478 -72.949432 59.955467
30.436432 -74.362648 57.878296
31.753069 -75.87867 56.102089
33.231812 -77.473625 54.625542
33.281067 -79.51181 53.353035
33.305935 -81.470016 51.652626
33.301163 -83.357224 49.507019
30.194176 -81.446503 50.807686
31.745899 -83.255409 48.778549
33.265091 -85.197128 46.943493
33.19445 -87.026001 44.029572
33.078453 -88.887489 40.862923
15.617564 -79.745834 66.64827
17.085121 -80.175583 63.797791
18.619555 -80.566498 60.72982
20.207432 -81.014771 57.502098
14.938558 -87.314087 57.16613
16.814388 -90.187286 51.451683
16.698231 -87.843201 53.896896
16.61211 -85.704727 56.415108
18.325579 -84.146843 55.619705
20.070358 -82.753227 54.853844
21.832119 -81.610565 54.181206
23.474167 -82.429588 50.841713
25.111935 -83.52552 47.563465
26.723194 -84.923775 44.42495
24.814098 -87.745949 41.565228
26.555672 -86.982857 41.326492
28.288019 -86.616814 41.493317
29.79248 -88.562065 38.813629
35.544115 -77.691848 53.840103
36.300009 -77.306472 53.650856
35.476574 -76.531799 54.135864
34.765612 -78.013206 53.864341
35.544115 -77.691848 53.840103
39.141481 -47.350302 50.450203
39.773571 -46.402439 50.389168
38.926924 -46.269003 51.053955
17.98003 -54.745103 81.421097
18.768991 -55.70603 80.810604
55.344879 -51.347262 48.376175
54.928257 -50.144211 48.633529
54.338688 -50.990481 48.416016
41.834274 -73.165237 52.333545
42.582497 -72.432395 52.072274
41.605248 -71.918892 52.224041
35.530516 -86.197659 47.214155
35.579094 -85.166077 48.430834
34.768275 -86.226307 46.6041
35.493306 -87.163322 45.865233
35.530516 -86.197659 47.214155
46.768119 -48.309553 48.191913
46.356062 -47.075613 48.443302
45.692781 -47.948181 48.266723
47.214346 -49.559048 48.005133
46.768119 -48.309553 48.191913
51.578789 -59.467723 48.129509
52.076825 -58.578383 47.971901
51.060414 -58.272932 48.059486
32.631574 -56.262559 62.61034
32.802848 -56.965496 61.76218
32.821947 -56.028127 61.445038
33.740555 -48.520451 58.506366
34.187796 -48.363142 57.321075
15.740532 -84.520645 59.281761
15.774357 -83.568585 60.498222
15.357217 -93.034367 51.321717
14.568095 -92.514996 52.828583
34.850456 -82.25576 51.144924
35.631963 -83.109432 50.556469
42.552452 -47.006831 48.90604
41.592458 -46.769993 49.31448
42.911154 -48.206459 48.555332
42.552452 -47.006831 48.90604
31.934081 -54.14965 65.148331
31.915714 -53.161199 64.775318
31.915714 -53.161199 64.775318
32.20755 -52.925258 63.57745
30.331547 -65.149392 66.196022
30.775755 -64.755676 65.235309
30.659098 -64.139458 66.428624
18.10282 -95.215519 44.581663
17.526518 -94.589146 46.303425
20.4615 -92.658905 42.502573
19.653337 -93.517719 43.189455
21.265864 -91.820904 41.90778
20.621731 -91.21378 43.735495
20.4615 -92.658905 42.502573
22.105393 -91.01849 41.332808
21.265864 -91.820904 41.90778
23.102947 -71.467834 70.308781
23.676114 -70.492214 70.999191
22.750817 -70.96989 71.493595
44.795767 -70.02903 51.358413
44.445636 -68.798103 51.174992
42.133189 -75.658276 52.352963
41.293818 -76.389404 52.478649
35.311743 -90.101036 41.369976
35.381346 -89.119858 42.935722
34.55164 -90.060669 40.600706
35.311743 -90.101036 41.369976
42.15699 -51.225793 48.311348
42.670261 -52.456104 48.168522
47.667446 -52.945751 47.757702
46.537926 -52.579059 47.76204
47.099048 -53.836903 47.754582
48.789189 -53.323446 47.781082
48.228065 -52.065603 47.78854
47.667446 -52.945751 47.757702
50.997949 -54.062502 47.842944
51.514604 -55.280861 47.78805
32.583189 -59.718291 62.376595
32.780632 -59.436461 61.255863
32.680105 -58.806679 62.237499
32.350589 -60.04963 63.447506
32.451116 -60.679411 62.465869
32.583189 -59.718291 62.376595
15.016737 -55.585325 83.155456
15.998499 -55.317108 82.562706
14.183597 -59.50959 82.48135
14.486987 -58.195764 82.757454
13.836763 -60.818462 82.229035
14.868638 -60.527493 81.800618
14.183597 -59.50959 82.48135
11.980189 -63.722015 81.812599
10.971566 -63.965841 82.100292
12.61181 -64.730881 81.153751
13.045796 -63.431351 81.564632
11.980189 -63.722015 81.812599
35.727494 -48.117097 54.019268
36.349941 -48.082399 53.019551
26.480759 -69.706527 68.014008
27.003764 -68.741295 68.604298
26.244546 -69.147926 69.257694
32.182507 -89.739258 38.622341
32.986593 -89.856395 39.210743
32.274368 -88.770352 40.274521
15.395947 -80.650967 65.529324
14.631377 -80.416664 66.893513
16.129725 -80.865841 64.104084
16.351343 -79.960709 65.22303
15.395947 -80.650967 65.529324
14.210593 -89.167591 56.272866
14.340851 -90.236168 55.109001
15.024515 -88.398705 55.958241
14.124636 -88.082974 57.480755
14.210593 -89.167591 56.272866
24.666233 -89.0304 40.135806
23.95503 -88.323131 41.87727
23.807165 -89.607582 40.447848
27.305587 -87.869763 39.830151
26.42071 -88.157349 39.811396
27.170625 -89.044254 38.315054
37.09621 -76.861343 53.570297
37.864593 -76.369777 53.346305
37.000851 -75.654857 53.722626
37.09621 -76.861343 53.570297
36.300009 -77.306472 53.650856
40.644968 -46.553095 49.786377
39.773571 -46.402439 50.389168
40.93562 -47.700636 49.313519
41.592458 -46.769993 49.31448
40.644968 -46.553095 49.786377
45.267865 -61.691668 49.261543
44.739169 -62.565195 49.549179
19.558338 -56.662357 80.232101
20.35743 -57.586735 79.702297
18.570791 -56.96707 80.783337
19.558338 -56.662357 80.232101
18.768991 -55.70603 80.810604
29.268845 -65.945663 67.968288
29.816902 -65.542557 67.081108
28.807341 -66.952186 67.585183
29.268845 -65.945663 67.968288
28.386643 -67.939991 67.148846
28.998216 -67.539746 66.336545
28.807341 -66.952186 67.585183
54.566902 -48.94751 48.959903
53.529221 -48.563368 48.923133
54.566902 -48.94751 48.959903
54.928257 -50.144211 48.633529
21.765608 -71.467743 71.940113
22.750817 -70.96989 71.493595
18.129934 -75.456429 70.302372
18.636913 -74.478454 71.151161
17.611143 -75.057442 71.481121
43.354772 -71.642807 51.853608
44.067478 -70.859741 51.59224
43.066175 -70.402985 51.701401
43.354772 -71.642807 51.853608
42.582497 -72.432395 52.072274
35.434031 -88.165325 44.450015
35.493306 -87.163322 45.865233
34.678379 -88.146503 43.740885
35.381346 -89.119858 42.935722
35.434031 -88.165325 44.450015
46.002305 -45.843357 48.728935
44.982399 -45.513203 48.898331
46.002305 -45.843357 48.728935
46.356062 -47.075613 48.443302
43.216278 -53.677938 48.078565
42.670261 -52.456104 48.168522
42.148438 -53.363855 48.30623
52.068439 -56.505852 47.840187
51.514604 -55.280861 47.78805
51.004614 -56.1586 47.849741
52.564398 -57.693915 47.809011
52.068439 -56.505852 47.840187
52.564398 -57.693915 47.809011
52.076825 -58.578383 47.971901
32.745012 -57.862389 62.022126
32.935384 -57.627957 60.856823
32.802848 -56.965496 61.76218
32.680105 -58.806679 62.237499
32.745012 -57.862389 62.022126
18.756923 -63.879311 79.161373
19.181745 -62.634583 79.352471
18.300418 -65.146096 78.907772
18.756923 -63.879311 79.161373
17.634632 -64.290985 79.450203
17.785219 -66.373169 78.606163
18.300418 -65.146096 78.907772
16.64725 -66.805573 78.844642
17.785219 -66.373169 78.606163
15.518511 -67.190727 79.093032
16.64725 -66.805573 78.844642
16.049388 -65.942925 79.444992
14.384721 -67.589416 79.284301
15.518511 -67.190727 79.093032
10.537873 -65.251373 81.591232
10.971566 -63.965841 82.100292
11.060192 -66.303421 80.920437
10.537873 -65.251373 81.591232
34.644389 -48.258978 56.176159
35.167538 -48.154932 55.061714
34.297345 -49.221264 56.461674
34.644389 -48.258978 56.176159
34.187796 -48.363142 57.321075
15.848479 -82.656704 61.737336
15.971778 -81.740025 62.916367
16.695105 -82.835831 60.183243
15.848479 -82.656704 61.737336
15.774357 -83.568585 60.498222
14.435878 -91.398579 53.945587
14.568095 -92.514996 52.828583
15.205501 -90.645733 53.586937
14.340851 -90.236168 55.109001
14.435878 -91.398579 53.945587
27.872176 -89.960346 36.807206
27.170625 -89.044254 38.315054
28.772548 -89.755795 36.974476
27.872176 -89.960346 36.807206
16.542343 -75.623115 71.754165
17.611143 -75.057442 71.481121
16.058286 -76.63406 70.893642
16.542343 -75.623115 71.754165
15.637755 -77.574642 69.943047
16.683633 -76.975998 69.681736
16.058286 -76.63406 70.893642
40.479997 -77.04586 52.651695
41.293818 -76.389404 52.478649
40.394497 -75.800636 52.755802
38.770315 -77.016678 53.061413
38.674955 -75.810192 53.213741
37.864593 -76.369777 53.346305
39.63893 -77.684944 52.720833
38.770315 -77.016678 53.061413
40.479997 -77.04586 52.651695
39.63893 -77.684944 52.720833
35.600547 -84.17569 49.572166
35.631963 -83.109432 50.556469
34.826938 -84.270256 49.094354
35.579094 -85.166077 48.430834
35.600547 -84.17569 49.572166
44.251259 -46.405184 48.744286
44.982399 -45.513203 48.898331
44.609961 -47.604813 48.393578
44.251259 -46.405184 48.744286
45.022019 -48.838752 48.142189
45.692781 -47.948181 48.266723
44.609961 -47.604813 48.393578
45.767212 -60.81292 48.983669
44.656529 -60.446176 48.999889
45.267865 -61.691668 49.261543
46.274765 -59.92411 48.713409
45.767212 -60.81292 48.983669
46.771983 -59.031309 48.476349
45.653093 -58.674627 48.484955
46.274765 -59.92411 48.713409
47.893863 -59.38536 48.475582
47.272192 -58.135877 48.247128
46.771983 -59.031309 48.476349
48.981468 -59.722319 48.461083
47.893863 -59.38536 48.475582
50.065621 -60.05849 48.446449
49.478226 -58.826101 48.231728
48.981468 -59.722319 48.461083
51.088898 -60.36278 48.36462
50.065621 -60.05849 48.446449
32.210245 -54.85856 64.322498
32.436651 -55.575699 63.487179
32.424267 -54.608053 63.128518
32.210245 -54.85856 64.322498
31.934081 -54.14965 65.148331
20.13603 -58.832899 79.693913
20.35743 -57.586735 79.702297
19.865294 -60.107323 79.60725
20.13603 -58.832899 79.693913
19.089402 -59.197821 80.118172
19.54551 -61.358604 79.516323
19.865294 -60.107323 79.60725
18.454901 -61.748222 79.867657
19.181745 -62.634583 79.352471
19.54551 -61.358604 79.516323
32.957325 -48.871056 60.923057
33.359264 -48.677229 59.7099
32.737444 -49.834303 61.234493
32.957325 -48.871056 60.923057
32.590187 -50.790184 61.600815
32.930914 -50.594866 60.379978
32.737444 -49.834303 61.234493
32.500448 -51.755174 61.968682
32.590187 -50.790184 61.600815
32.445988 -52.702627 62.363163
32.729197 -52.498199 61.140782
32.500448 -51.755174 61.968682
32.436299 -53.668284 62.74955
32.445988 -52.702627 62.363163
32.20755 -52.925258 63.57745
29.93356 -66.158775 65.887794
30.331547 -65.149392 66.196022
29.816902 -65.542557 67.081108
16.828587 -94.062226 48.045727
16.144517 -93.492565 49.675117
17.573061 -93.251461 47.388023
16.828587 -94.062226 48.045727
17.526518 -94.589146 46.303425
18.88015 -94.38102 43.847172
18.10282 -95.215519 44.581663
19.04418 -92.915081 44.988005
18.88015 -94.38102 43.847172
19.653337 -93.517719 43.189455
22.940327 -90.280757 40.857113
22.261029 -89.638046 42.665007
22.105393 -91.01849 41.332808
23.807165 -89.607582 40.447848
22.940327 -90.280757 40.857113
44.654781 -66.740997 50.656361
45.27171 -65.889374 50.382328
44.051656 -67.560165 50.947827
44.654781 -66.740997 50.656361
43.594046 -66.324875 50.694237
43.384901 -68.381981 51.212868
44.445636 -68.798103 51.174992
44.051656 -67.560165 50.947827
44.223898 -63.420454 49.848434
44.739169 -62.565195 49.549179
43.641911 -62.180183 49.577019
44.759163 -64.655586 50.111683
44.223898 -63.420454 49.848434
43.661905 -64.270575 50.139522
45.27171 -65.889374 50.382328
44.759163 -64.655586 50.111683
25.429735 -69.586228 69.888966
26.244546 -69.147926 69.257694
24.583086 -70.024727 70.462452
23.676114 -70.492214 70.999191
24.874893 -70.551659 69.240891
25.429735 -69.586228 69.888966
24.583086 -70.024727 70.462452
21.187067 -72.462952 71.22144
21.765608 -71.467743 71.940113
19.676094 -73.928916 70.806053
18.636913 -74.478454 71.151161
20.664383 -73.389965 70.412445
19.676094 -73.928916 70.806053
20.143993 -74.33849 69.578804
21.654966 -72.872524 69.994191
21.187067 -72.462952 71.22144
20.664383 -73.389965 70.412445
55.709221 -52.513838 48.013925
55.171326 -53.36665 47.897419
44.795767 -70.02903 51.358413
44.067478 -70.859741 51.59224
42.00992 -74.411461 52.382267
41.834274 -73.165237 52.333545
41.032671 -73.897956 52.534035
42.00992 -74.411461 52.382267
42.133189 -75.658276 52.352963
52.862423 -49.401654 48.623169
53.529221 -48.563368 48.923133
53.311085 -50.632698 48.433991
52.862423 -49.401654 48.623169
53.727707 -51.835749 48.176636
54.338688 -50.990481 48.416016
53.311085 -50.632698 48.433991
41.697624 -50.037588 48.571865
41.143055 -50.953816 48.656704
42.15699 -51.225793 48.311348
42.297335 -49.11355 48.534065
41.2834 -48.841572 48.879421
41.697624 -50.037588 48.571865
42.911154 -48.206459 48.555332
42.297335 -49.11355 48.534065
45.488891 -50.072653 47.941938
45.022019 -48.838752 48.142189
44.322216 -54.020181 47.95279
43.216278 -53.677938 48.078565
43.800392 -54.927933 48.090498
44.853815 -53.120199 47.849888
44.322216 -54.020181 47.95279
45.437929 -54.370193 47.861821
45.421236 -52.216697 47.81373
44.853815 -53.120199 47.849888
45.421236 -52.216697 47.81373
46.537926 -52.579059 47.76204
46.605581 -50.435015 47.890248
45.488891 -50.072653 47.941938
47.214346 -49.559048 48.005133
46.605581 -50.435015 47.890248
48.836831 -51.189636 47.903425
48.228065 -52.065603 47.78854
49.944924 -51.578809 47.954361
48.836831 -51.189636 47.903425
50.447464 -52.817346 47.850102
49.900294 -53.688453 47.804762
50.997949 -54.062502 47.842944
49.944924 -51.578809 47.954361
50.447464 -52.817346 47.850102
54.197449 -53.046402 48.01384
53.727707 -51.835749 48.176636
55.171326 -53.36665 47.897419
54.197449 -53.046402 48.01384
51.578789 -59.467723 48.129509
51.088898 -60.36278 48.36462
32.631574 -56.262559 62.61034
32.436651 -55.575699 63.487179
32.109175 -60.375475 64.565731
32.350589 -60.04963 63.447506
31.927546 -61.371659 64.603741
32.109175 -60.375475 64.565731
31.726622 -62.354868 64.562325
32.017593 -61.99396 63.495365
31.927546 -61.371659 64.603741
31.36994 -62.739155 65.569305
31.459988 -63.361456 64.46093
31.726622 -62.354868 64.562325
30.993682 -63.119182 66.595024
31.36994 -62.739155 65.569305
30.659098 -64.139458 66.428624
30.993682 -63.119182 66.595024
17.004535 -55.01899 82.028267
17.98003 -54.745103 81.421097
16.775407 -56.308861 81.896278
17.004535 -55.01899 82.028267
15.998499 -55.317108 82.562706
14.763937 -56.889944 82.946346
15.016737 -55.585325 83.155456
15.492421 -57.9128 82.241825
14.763937 -56.889944 82.946346
14.486987 -58.195764 82.757454
13.46799 -62.129425 81.885891
13.836763 -60.818462 82.229035
14.099611 -63.138291 81.227044
13.46799 -62.129425 81.885891
13.045796 -63.431351 81.564632
13.275733 -67.932548 79.494777
14.384721 -67.589416 79.284301
13.811663 -66.671211 79.903858
11.638429 -67.29982 80.276745
12.124439 -66.017944 80.758026
11.060192 -66.303421 80.920437
12.171957 -68.279968 79.637378
11.638429 -67.29982 80.276745
13.275733 -67.932548 79.494777
12.171957 -68.279968 79.637378
38.155888 -46.209927 51.844078
38.926924 -46.269003 51.053955
37.560434 -47.170117 51.961113
38.155888 -46.209927 51.844078
37.030424 -48.121597 52.120396
37.764824 -48.168346 51.274273
37.560434 -47.170117 51.961113
36.554331 -49.080629 52.332711
37.030424 -48.121597 52.120396
36.349941 -48.082399 53.019551
35.313893 -49.079266 54.274311
35.727494 -48.117097 54.019268
35.167538 -48.154932 55.061714
33.459462 -49.482207 58.810124
33.740555 -48.520451 58.506366
33.359264 -48.677229 59.7099
27.717872 -68.326164 67.879048
27.003764 -68.741295 68.604298
27.908747 -68.913723 66.63041
28.386643 -67.939991 67.148846
27.717872 -68.326164 67.879048
34.021178 -78.291432 54.014557
34.765612 -78.013206 53.864341
33.976246 -77.1954 54.475327
34.045805 -79.310524 53.378304
34.021178 -78.291432 54.014557
33.256439 -78.492717 53.989289
34.066794 -80.37173 52.703598
34.045805 -79.310524 53.378304
34.079228 -81.350833 51.853393
34.066794 -80.37173 52.703598
33.293501 -80.490913 52.502831
34.077163 -82.374943 50.944156
34.850456 -82.25576 51.144924
34.079228 -81.350833 51.853393
33.778019 -89.953896 39.918871
34.55164 -90.060669 40.600706
33.852074 -88.994262 41.544758
33.778019 -89.953896 39.918871
32.986593 -89.856395 39.210743
15.244838 -78.550602 68.982597
15.637755 -77.574642 69.943047
14.922069 -79.465229 67.941162
14.631377 -80.416664 66.893513
15.940333 -78.831207 67.689705
15.244838 -78.550602 68.982597
14.922069 -79.465229 67.941162
16.927174 -81.049767 62.610073
16.129725 -80.865841 64.104084
15.971778 -81.740025 62.916367
14.038213 -87.065674 58.672191
14.124636 -88.082974 57.480755
14.89932 -86.303833 58.392761
14.038213 -87.065674 58.672191
16.087829 -92.266343 50.776924
15.357217 -93.034367 51.321717
16.144517 -93.492565 49.675117
15.736096 -85.499153 58.01725
14.89932 -86.303833 58.392761
15.775334 -86.509407 56.790619
16.616546 -84.726219 57.679619
15.740532 -84.520645 59.281761
15.736096 -85.499153 58.01725
25.549923 -88.538895 39.930763
24.666233 -89.0304 40.135806
25.684885 -87.364403 41.44586
25.549923 -88.538895 39.930763
26.42071 -88.157349 39.811396
29.641037 -89.658493 37.214386
28.923991 -88.659367 38.573719
28.772548 -89.755795 36.974476
30.512034 -89.622654 37.607135
29.641037 -89.658493 37.214386
31.350935 -89.668228 38.04338
30.631381 -88.60764 39.249874
30.512034 -89.622654 37.607135
32.182507 -89.739258 38.622341
31.350935 -89.668228 38.04338
55.344879 -51.347262 48.376175
55.709221 -52.513838 48.013925
3 0 78 76
3 0 76 79
3 1 299 301
3 301 300 81
3 299 300 301
3 1 302 303
3 2 304 306
3 304 82 305
3 304 305 306
3 307 84 308
3 4 88 86
3 4 90 88
3 3 309 311
3 311 310 91
3 309 310 311
3 5 94 92
3 7 97 95
3 7 99 97
3 8 102 100
3 5 105 103
3 5 92 105
3 11 109 107
3 11 111 109
3 6 312 314
3 314 313 112
3 312 313 314
3 12 315 316
3 12 317 319
3 317 113 318
3 317 318 319
3 13 320 322
3 322 321 114
3 320 321 322
3 13 323 324
3 9 117 115
3 14 120 118
3 14 122 120
3 14 325 327
3 327 326 122
3 325 326 327
3 15 328 330
3 330 329 123
3 328 329 330
3 17 126 125
3 17 127 126
3 331 129 332
3 15 132 130
3 15 123 132
3 16 136 134
3 18 139 137
3 18 141 139
3 10 144 142
3 19 147 145
3 19 149 147
3 19 151 149
3 20 154 152
3 20 156 154
3 333 158 334
3 335 159 336
3 21 162 160
3 21 164 162
3 21 166 164
3 22 169 167
3 24 170 77
3 24 171 170
3 25 174 172
3 22 175 80
3 22 167 175
3 27 178 176
3 337 179 338
3 28 339 340
3 28 341 342
3 29 182 180
3 344 343 183
3 31 184 83
3 31 185 184
3 345 183 346
3 347 189 348
3 349 348 187
3 347 348 349
3 34 190 85
3 34 191 190
3 35 194 192
3 37 195 87
3 37 196 195
3 37 198 196
3 39 199 89
3 39 200 199
3 350 202 351
3 352 203 353
3 354 204 355
3 356 355 203
3 354 355 356
3 358 357 204
3 41 207 206
3 43 208 93
3 43 209 208
3 23 210 168
3 44 211 96
3 44 212 211
3 44 213 212
3 45 214 98
3 45 215 214
3 46 218 216
3 48 219 101
3 48 220 219
3 26 221 173
3 49 222 104
3 49 223 222
3 49 224 223
3 41 225 106
3 41 206 225
3 51 359 361
3 359 226 360
3 359 360 361
3 51 227 226
3 52 228 108
3 52 229 228
3 52 230 229
3 53 231 110
3 53 232 231
3 42 362 363
3 365 364 177
3 54 366 367
3 54 368 369
3 47 233 217
3 371 370 116
3 30 234 181
3 55 235 119
3 55 372 374
3 374 373 235
3 372 373 374
3 55 375 377
3 375 236 376
3 375 376 377
3 379 378 121
3 56 239 237
3 380 240 381
3 382 381 124
3 380 381 382
3 383 241 384
3 385 384 240
3 383 384 385
3 386 242 387
3 388 243 389
3 390 244 391
3 392 391 243
3 390 391 392
3 58 393 394
3 58 395 397
3 395 245 396
3 395 396 397
3 58 246 245
3 398 247 399
3 59 248 128
3 59 249 248
3 32 250 186
3 60 251 131
3 60 252 251
3 60 253 252
3 56 254 133
3 56 237 254
3 57 255 238
3 61 256 135
3 61 257 256
3 33 258 188
3 62 259 138
3 62 260 259
3 62 261 260
3 63 262 140
3 63 263 262
3 50 400 402
3 400 264 401
3 400 401 402
3 64 265 143
3 64 266 265
3 36 267 193
3 65 268 146
3 65 269 268
3 65 270 269
3 66 271 148
3 66 272 271
3 66 273 272
3 67 274 150
3 67 275 274
3 38 276 197
3 68 277 153
3 68 278 277
3 68 279 278
3 69 280 155
3 69 403 405
3 405 404 280
3 403 404 405
3 406 281 407
3 408 282 409
3 410 409 281
3 408 409 410
3 70 283 157
3 70 284 283
3 71 411 412
3 71 413 415
3 413 285 414
3 413 414 415
3 40 286 201
3 72 287 161
3 72 288 287
3 72 289 288
3 73 290 163
3 73 291 290
3 73 292 291
3 74 293 165
3 74 294 293
3 416 295 417
3 418 417 205
3 416 417 418
3 75 419 421
3 419 296 420
3 419 420 421
3 75 297 296
3 75 298 297
3 76 77 22
3 78 77 76
3 78 24 77
3 79 80 25
3 76 80 79
3 76 22 80
3 81 422 424
3 424 423 27
3 422 423 424
3 426 425 81
3 82 427 428
3 82 429 431
3 429 28 430
3 429 430 431
3 433 432 29
3 434 83 435
3 84 436 438
3 436 83 437
3 436 437 438
3 84 31 83
3 439 85 440
3 441 85 442
3 443 34 444
3 445 444 85
3 443 444 445
3 86 87 35
3 88 87 86
3 88 37 87
3 88 89 37
3 90 89 88
3 90 39 89
3 91 446 447
3 449 448 91
3 92 93 41
3 94 93 92
3 94 43 93
3 95 96 23
3 97 96 95
3 97 44 96
3 97 98 44
3 99 98 97
3 99 45 98
3 100 101 46
3 102 101 100
3 102 48 101
3 103 104 26
3 105 104 103
3 105 49 104
3 105 106 49
3 92 106 105
3 92 41 106
3 450 51 451
3 107 452 454
3 452 108 453
3 452 453 454
3 109 108 107
3 109 52 108
3 109 110 52
3 111 110 109
3 111 53 110
3 112 455 457
3 457 456 42
3 455 456 457
3 459 458 112
3 113 460 461
3 113 462 464
3 462 54 463
3 462 463 464
3 114 465 466
3 468 467 114
3 115 116 47
3 117 116 115
3 117 469 471
3 471 470 116
3 469 470 471
3 118 119 30
3 120 119 118
3 120 55 119
3 120 121 55
3 122 121 120
3 122 472 474
3 474 473 121
3 472 473 474
3 122 475 476
3 478 477 122
3 123 124 56
3 479 124 480
3 481 480 123
3 479 480 481
3 483 482 124
3 125 484 485
3 126 486 488
3 488 487 125
3 486 487 488
3 126 489 490
3 126 491 492
3 127 493 495
3 495 494 126
3 493 494 495
3 127 496 497
3 498 58 499
3 501 500 58
3 502 128 503
3 129 504 506
3 504 128 505
3 504 505 506
3 129 59 128
3 130 131 32
3 132 131 130
3 132 60 131
3 132 133 60
3 123 133 132
3 123 56 133
3 134 135 57
3 136 135 134
3 136 61 135
3 137 138 33
3 139 138 137
3 139 62 138
3 139 140 62
3 141 140 139
3 141 63 140
3 142 143 50
3 144 143 142
3 144 64 143
3 145 146 36
3 147 146 145
3 147 65 146
3 147 148 65
3 149 148 147
3 149 66 148
3 149 150 66
3 151 150 149
3 151 67 150
3 152 153 38
3 154 153 152
3 154 68 153
3 154 155 68
3 156 155 154
3 156 69 155
3 507 157 508
3 158 509 511
3 509 157 510
3 509 510 511
3 158 70 157
3 159 512 513
3 159 514 516
3 514 71 515
3 514 515 516
3 160 161 40
3 162 161 160
3 162 72 161
3 162 163 72
3 164 163 162
3 164 73 163
3 164 165 73
3 166 165 164
3 166 74 165
3 517 75 518
3 520 519 75
3 167 168 5
3 169 168 167
3 169 23 168
3 77 169 22
3 170 169 77
3 170 23 169
3 170 95 23
3 171 95 170
3 171 7 95
3 172 173 8
3 174 173 172
3 174 26 173
3 80 174 25
3 175 174 80
3 175 26 174
3 175 103 26
3 167 103 175
3 167 5 103
3 521 107 522
3 523 107 524
3 525 11 526
3 527 526 107
3 525 526 527
3 176 177 6
3 178 177 176
3 178 528 530
3 530 529 177
3 528 529 530
3 531 178 532
3 533 532 27
3 531 532 533
3 534 178 535
3 537 536 178
3 179 538 539
3 179 540 542
3 540 12 541
3 540 541 542
3 543 114 544
3 545 114 546
3 547 13 548
3 549 548 114
3 547 548 549
3 180 181 9
3 182 181 180
3 182 30 181
3 550 182 551
3 552 551 29
3 550 551 552
3 553 182 554
3 555 30 556
3 557 556 182
3 555 556 557
3 558 118 559
3 560 559 30
3 558 559 560
3 561 118 562
3 563 14 564
3 565 564 118
3 563 564 565
3 567 566 14
3 183 568 570
3 570 569 15
3 568 569 570
3 572 571 183
3 83 573 574
3 184 575 577
3 577 576 83
3 575 576 577
3 184 578 579
3 184 580 582
3 580 125 581
3 580 581 582
3 185 125 184
3 185 17 125
3 583 186 584
3 585 186 586
3 587 32 588
3 589 588 186
3 587 588 589
3 590 32 591
3 592 130 593
3 594 593 32
3 592 593 594
3 183 595 597
3 595 130 596
3 595 596 597
3 183 15 130
3 187 188 16
3 189 188 187
3 189 33 188
3 85 598 600
3 598 189 599
3 598 599 600
3 190 189 85
3 190 33 189
3 190 137 33
3 191 137 190
3 191 18 137
3 192 193 10
3 194 193 192
3 194 36 193
3 87 194 35
3 195 194 87
3 195 36 194
3 195 145 36
3 196 145 195
3 196 19 145
3 196 197 19
3 198 197 196
3 198 38 197
3 89 198 37
3 199 198 89
3 199 38 198
3 199 152 38
3 200 152 199
3 200 20 152
3 601 201 602
3 202 603 605
3 603 201 604
3 603 604 605
3 202 40 201
3 606 202 607
3 203 608 610
3 608 202 609
3 608 609 610
3 203 40 202
3 203 160 40
3 204 160 203
3 204 21 160
3 204 205 21
3 611 205 612
3 613 612 204
3 611 612 613
3 615 614 205
3 206 616 617
3 207 618 620
3 620 619 206
3 618 619 620
3 207 621 623
3 621 42 622
3 621 622 623
3 93 207 41
3 208 207 93
3 208 42 207
3 208 112 42
3 209 112 208
3 209 6 112
3 168 94 5
3 210 94 168
3 210 43 94
3 96 210 23
3 211 210 96
3 211 43 210
3 211 209 43
3 212 209 211
3 212 6 209
3 212 176 6
3 213 176 212
3 213 27 176
3 98 213 44
3 214 213 98
3 214 27 213
3 214 81 27
3 215 81 214
3 215 1 81
3 216 217 2
3 218 217 216
3 218 47 217
3 101 218 46
3 219 218 101
3 219 47 218
3 219 115 47
3 220 115 219
3 220 9 115
3 173 102 8
3 221 102 173
3 221 48 102
3 104 221 26
3 222 221 104
3 222 48 221
3 222 220 48
3 223 220 222
3 223 9 220
3 223 180 9
3 224 180 223
3 224 29 180
3 106 224 49
3 225 224 106
3 225 29 224
3 225 624 626
3 626 625 29
3 624 625 626
3 206 627 629
3 629 628 225
3 627 628 629
3 206 630 631
3 632 50 633
3 226 634 635
3 226 636 638
3 636 50 637
3 636 637 638
3 226 142 50
3 227 142 226
3 227 10 142
3 639 51 640
3 108 641 642
3 228 643 645
3 645 644 108
3 643 644 645
3 228 646 648
3 646 51 647
3 646 647 648
3 228 227 51
3 229 227 228
3 229 10 227
3 229 192 10
3 230 192 229
3 230 35 192
3 110 230 52
3 231 230 110
3 231 35 230
3 231 86 35
3 232 86 231
3 232 4 86
3 650 649 3
3 652 651 42
3 177 653 655
3 655 654 6
3 653 654 655
3 657 656 177
3 658 91 659
3 660 91 661
3 662 3 663
3 664 663 91
3 662 663 664
3 217 82 2
3 233 82 217
3 233 28 82
3 116 233 47
3 665 233 666
3 667 666 116
3 665 666 667
3 668 28 669
3 670 669 233
3 668 669 670
3 672 671 28
3 673 13 674
3 181 117 9
3 234 117 181
3 234 675 677
3 677 676 117
3 675 676 677
3 119 234 30
3 235 234 119
3 235 678 680
3 680 679 234
3 678 679 680
3 235 681 682
3 684 683 235
3 685 13 686
3 688 687 13
3 236 689 690
3 236 691 692
3 121 236 55
3 693 236 694
3 695 694 121
3 693 694 695
3 697 696 236
3 698 3 699
3 701 700 3
3 703 702 14
3 237 238 0
3 239 238 237
3 239 57 238
3 124 239 56
3 240 239 124
3 240 57 239
3 240 134 57
3 241 134 240
3 241 16 134
3 705 704 15
3 706 241 707
3 708 241 709
3 710 16 711
3 712 711 241
3 710 711 712
3 713 187 714
3 715 714 16
3 713 714 715
3 716 187 717
3 719 718 187
3 720 84 721
3 242 722 724
3 722 84 723
3 722 723 724
3 242 31 84
3 725 242 726
3 243 727 729
3 727 242 728
3 727 728 729
3 243 31 242
3 243 185 31
3 244 185 243
3 244 17 185
3 730 244 731
3 245 732 734
3 732 244 733
3 732 733 734
3 245 17 244
3 245 127 17
3 246 127 245
3 246 735 737
3 737 736 127
3 735 736 737
3 738 246 739
3 740 739 58
3 738 739 740
3 741 246 742
3 744 743 246
3 745 2 746
3 747 2 748
3 749 216 750
3 751 750 2
3 749 750 751
3 247 752 754
3 752 216 753
3 752 753 754
3 247 46 216
3 128 755 757
3 755 247 756
3 755 756 757
3 248 247 128
3 248 46 247
3 248 100 46
3 249 100 248
3 249 8 100
3 186 758 760
3 758 129 759
3 758 759 760
3 250 129 186
3 250 59 129
3 131 250 32
3 251 250 131
3 251 59 250
3 251 249 59
3 252 249 251
3 252 8 249
3 252 172 8
3 253 172 252
3 253 25 172
3 133 253 60
3 254 253 133
3 254 25 253
3 254 79 25
3 237 79 254
3 237 0 79
3 238 78 0
3 255 78 238
3 255 24 78
3 135 255 57
3 256 255 135
3 256 24 255
3 256 171 24
3 257 171 256
3 257 7 171
3 188 136 16
3 258 136 188
3 258 61 136
3 138 258 33
3 259 258 138
3 259 61 258
3 259 257 61
3 260 257 259
3 260 7 257
3 260 99 7
3 261 99 260
3 261 45 99
3 140 261 62
3 262 261 140
3 262 45 261
3 262 215 45
3 263 215 262
3 263 1 215
3 264 761 762
3 264 763 765
3 763 34 764
3 763 764 765
3 143 264 50
3 265 264 143
3 265 34 264
3 265 191 34
3 266 191 265
3 266 18 191
3 193 144 10
3 267 144 193
3 267 64 144
3 146 267 36
3 268 267 146
3 268 64 267
3 268 266 64
3 269 266 268
3 269 18 266
3 269 141 18
3 270 141 269
3 270 63 141
3 148 270 65
3 271 270 148
3 271 63 270
3 271 263 63
3 272 263 271
3 272 1 263
3 272 766 768
3 768 767 1
3 766 767 768
3 273 769 771
3 771 770 272
3 769 770 771
3 273 772 773
3 150 273 66
3 274 273 150
3 274 774 776
3 776 775 273
3 774 775 776
3 274 777 779
3 777 179 778
3 777 778 779
3 275 179 274
3 275 12 179
3 197 151 19
3 276 151 197
3 276 67 151
3 153 276 38
3 277 276 153
3 277 67 276
3 277 275 67
3 278 275 277
3 278 12 275
3 278 113 12
3 279 113 278
3 279 54 113
3 155 279 68
3 280 279 155
3 280 54 279
3 280 780 782
3 782 781 54
3 780 781 782
3 784 783 280
3 785 11 786
3 281 787 788
3 281 789 791
3 789 11 790
3 789 790 791
3 281 111 11
3 282 111 281
3 282 53 111
3 157 792 794
3 792 282 793
3 792 793 794
3 283 282 157
3 283 53 282
3 283 232 53
3 284 232 283
3 284 4 232
3 285 795 796
3 285 797 798
3 201 799 801
3 799 159 800
3 799 800 801
3 286 159 201
3 286 71 159
3 161 286 40
3 287 286 161
3 287 71 286
3 287 285 71
3 288 285 287
3 288 802 804
3 804 803 285
3 802 803 804
3 288 805 807
3 805 158 806
3 805 806 807
3 289 158 288
3 289 70 158
3 163 289 72
3 290 289 163
3 290 70 289
3 290 284 70
3 291 284 290
3 291 4 284
3 291 90 4
3 292 90 291
3 292 39 90
3 165 292 73
3 293 292 165
3 293 39 292
3 293 200 39
3 294 200 293
3 294 20 200
3 205 166 21
3 295 166 205
3 295 74 166
3 808 295 809
3 296 810 812
3 810 295 811
3 810 811 812
3 296 74 295
3 296 294 74
3 297 294 296
3 297 20 294
3 297 156 20
3 298 156 297
3 298 69 156
3 813 298 814
3 815 814 75
3 813 814 815
3 816 298 817
3 818 69 819
3 820 819 298
3 818 819 820
3 822 821 69
3 824 823 3
