ply
format ascii 1.0
element vertex 231
property float x
property float y
property float z
element face 218
property list uchar int vertex_index
end_header
33.276367 32.45937 -22.817266
40.666019 45.65435 -10.237114
36.391624 40.342949 -16.410173
31.101881 34.144939 -25.800409
29.683651 29.174137 -28.311827
32.364414 28.050583 -26.178377
38.3894 43.452721 -13.332739
36.206745 37.328918 -12.015253
37.409538 40.105328 -8.43996
34.954346 29.883949 -19.646624
34.755039 25.974072 -23.818705
34.655254 36.612198 -19.550478
35.426826 33.796955 -15.731264
32.267502 33.402584 -24.356188
31.589304 31.102646 -25.836115
32.759056 30.275845 -24.492353
39.963089 46.108566 -14.251642
39.487564 44.687225 -11.789904
37.922569 41.921745 -10.886477
38.87109 43.039871 -9.24328
30.701048 26.278469 -28.698309
29.261549 26.540627 -29.447439
35.675732 28.214886 -18.105574
35.748608 26.33704 -20.331713
37.453766 43.223118 -17.096224
36.255558 41.516193 -18.51174
35.486851 38.540943 -17.966852
35.093971 35.326012 -17.641764
35.681747 37.212917 -15.914225
36.056816 35.381397 -9.869726
35.829659 33.762295 -11.846388
29.750673 34.710869 -27.114447
28.86034 32.145088 -28.224672
30.297297 31.716484 -27.090193
31.068354 28.720619 -27.289843
32.084194 25.807491 -27.857447
40.163994 47.380447 -16.524488
38.692314 44.765362 -15.682013
37.359638 41.991447 -14.869551
36.344604 38.966904 -14.218803
37.087048 40.55014 -12.545088
36.742836 38.83424 -10.210089
36.416782 36.794899 -7.943682
28.191528 29.444935 -29.221609
34.16188 31.293209 -21.231058
33.830807 29.215092 -23.099581
34.823841 27.905285 -21.700537
35.861774 24.547276 -22.636404
30.846704 37.127197 -25.919924
32.084831 36.445034 -24.468039
33.094421 35.60376 -22.870531
33.912708 34.5784 -21.167391
34.584827 33.341431 -19.411821
35.154549 31.864033 -17.658812
35.657249 30.120125 -15.955477
35.774353 35.634365 -13.853598
35.703884 31.989605 -13.87261
33.589661 27.139927 -25.009642
33.425209 25.097317 -26.94639
40.965725 46.433166 -11.513089
41.634827 46.845249 -10.760776
40.076791 45.170788 -11.013509
40.376497 45.949604 -12.289484
40.965725 46.433166 -11.513089
30.586497 25.039926 -29.373995
31.299719 24.92396 -29.105393
36.141054 26.361208 -18.561747
36.006868 27.245373 -17.371085
35.976265 33.475904 -9.904965
36.004675 34.239694 -8.853818
40.888884 47.997867 -15.846069
40.871275 48.659908 -16.899608
28.505028 26.587819 -29.769253
29.140594 25.192557 -29.970476
36.381893 23.704643 -22.060242
35.805191 25.442158 -21.484058
36.32531 24.599525 -20.907896
36.529499 22.97567 -23.334122
36.381893 23.704643 -22.060242
30.78505 38.590595 -25.984225
30.103095 37.400701 -26.564438
32.654091 37.528021 -23.793732
32.103865 37.917373 -24.572245
33.158886 37.107384 -22.994978
32.589626 36.024397 -23.669285
32.654091 37.528021 -23.793732
34.353355 37.153614 -20.47325
34.884556 38.140444 -19.74655
34.283981 35.595299 -20.358934
33.982082 36.136715 -21.281706
34.353355 37.153614 -20.47325
35.832659 30.935149 -12.989215
35.766772 32.87595 -12.859499
35.895546 31.821494 -11.976104
35.910354 30.040901 -14.104038
35.832659 30.935149 -12.989215
34.071542 23.747813 -27.571773
34.077427 24.61336 -26.468401
33.368906 24.103878 -27.918533
34.071542 23.747813 -27.571773
40.61426 46.660274 -13.520353
40.788431 47.361927 -14.709646
39.725326 45.397896 -13.020773
40.61426 46.660274 -13.520353
40.376497 45.949604 -12.289484
29.866747 25.171005 -29.74856
29.981299 26.409548 -29.072874
30.586497 25.039926 -29.373995
29.140594 25.192557 -29.970476
29.866747 25.171005 -29.74856
36.177492 25.422285 -19.674816
35.71217 27.275963 -19.218643
36.141054 26.361208 -18.561747
36.32531 24.599525 -20.907896
36.177492 25.422285 -19.674816
37.357107 43.768007 -18.119065
38.08083 44.578363 -17.46838
36.758003 42.914545 -18.826822
37.357107 43.768007 -18.119065
36.854662 42.369656 -17.803982
36.049822 42.030651 -19.480818
36.758003 42.914545 -18.826822
35.684708 40.592441 -19.22718
36.049822 42.030651 -19.480818
35.300354 39.104816 -18.954736
35.684708 40.592441 -19.22718
35.871205 40.028568 -18.239296
35.071053 37.576571 -18.758665
34.884556 38.140444 -19.74655
35.300354 39.104816 -18.954736
35.862686 32.666353 -10.893296
35.943237 34.571846 -10.858057
35.976265 33.475904 -9.904965
35.895546 31.821494 -11.976104
35.862686 32.666353 -10.893296
34.742342 25.051737 -24.904559
35.373531 24.435528 -24.415911
29.305506 33.427979 -27.669559
28.528951 33.636988 -28.253588
28.974117 34.919878 -27.698475
31.991292 24.688471 -28.684962
31.299719 24.92396 -29.105393
31.392621 26.04298 -28.277878
40.065604 47.977836 -17.523161
40.871275 48.659908 -16.899608
39.435944 46.657028 -17.182512
40.065604 47.977836 -17.523161
40.063541 46.744506 -15.388065
40.888884 47.997867 -15.846069
40.788431 47.361927 -14.709646
38.700103 45.349486 -16.761274
39.435944 46.657028 -17.182512
39.428154 46.072904 -16.103251
38.07304 43.99424 -16.389118
38.08083 44.578363 -17.46838
38.700103 45.349486 -16.761274
36.184658 34.946445 -7.890796
36.004675 34.239694 -8.853818
36.236799 36.088148 -8.906704
41.301553 45.987198 -9.457654
41.634827 46.845249 -10.760776
40.309841 44.760519 -8.930601
41.301553 45.987198 -9.457654
28.062576 32.284456 -28.725334
28.528951 33.636988 -28.253588
27.72817 30.93438 -29.223802
28.062576 32.284456 -28.725334
28.525934 30.795012 -28.72314
27.385573 29.510426 -29.615358
27.72817 30.93438 -29.223802
27.970018 28.039973 -29.656337
28.726539 27.992781 -29.334524
28.505028 26.587819 -29.769253
27.385573 29.510426 -29.615358
27.970018 28.039973 -29.656337
35.926899 23.72213 -23.824761
35.373531 24.435528 -24.415911
35.308406 25.260674 -23.227555
35.926899 23.72213 -23.824761
36.529499 22.97567 -23.334122
29.555079 36.192538 -27.161699
28.974117 34.919878 -27.698475
30.298688 35.919033 -26.517186
29.555079 36.192538 -27.161699
30.103095 37.400701 -26.564438
31.484801 38.258455 -25.298188
30.78505 38.590595 -25.984225
31.465767 36.786116 -25.193981
31.484801 38.258455 -25.298188
32.103865 37.917373 -24.572245
33.572938 36.649395 -22.133276
33.158886 37.107384 -22.994978
33.503564 35.09108 -22.018961
33.572938 36.649395 -22.133276
33.982082 36.136715 -21.281706
35.997627 28.197993 -16.296036
36.006868 27.245373 -17.371085
35.66649 29.167506 -17.030525
35.887037 29.106161 -15.145471
35.680566 31.054865 -14.914044
35.910354 30.040901 -14.104038
35.997627 28.197993 -16.296036
35.887037 29.106161 -15.145471
39.412377 43.45328 -8.433684
39.768555 44.34711 -9.740197
40.309841 44.760519 -8.930601
38.554066 42.070299 -7.979832
39.412377 43.45328 -8.433684
37.82329 40.603027 -7.578171
38.140314 41.572599 -8.84162
38.554066 42.070299 -7.979832
37.178146 39.03079 -7.260035
37.82329 40.603027 -7.578171
36.681768 37.375576 -7.011896
36.91316 38.450114 -8.191821
37.178146 39.03079 -7.260035
36.294824 35.601591 -6.876359
36.681768 37.375576 -7.011896
36.184658 34.946445 -7.890796
36.294824 35.601591 -6.876359
34.159653 25.634664 -25.500027
34.17235 26.556999 -24.414174
34.742342 25.051737 -24.904559
33.507435 26.118622 -25.978016
34.159653 25.634664 -25.500027
34.077427 24.61336 -26.468401
32.698398 24.458965 -28.374061
32.754701 25.452404 -27.401919
33.368906 24.103878 -27.918533
31.991292 24.688471 -28.684962
32.698398 24.458965 -28.374061
3 0 15 13
3 1 59 60
3 1 61 63
3 61 17 62
3 61 62 63
3 1 19 17
3 65 64 20
3 67 66 22
3 2 25 24
3 2 26 25
3 2 28 26
3 69 68 29
3 3 33 31
3 5 34 14
3 5 35 34
3 70 36 71
3 6 37 16
3 6 38 37
3 6 40 38
3 8 41 18
3 8 42 41
3 4 43 32
3 73 72 21
3 9 46 44
3 74 47 75
3 76 75 23
3 74 75 76
3 78 77 47
3 79 48 80
3 81 49 82
3 83 50 84
3 85 84 49
3 83 84 85
3 11 86 87
3 11 88 90
3 88 51 89
3 88 89 90
3 11 52 51
3 12 53 27
3 12 54 53
3 7 55 39
3 91 56 92
3 93 92 30
3 91 92 93
3 95 94 56
3 10 57 45
3 96 58 97
3 99 98 58
3 13 14 3
3 15 14 13
3 15 5 14
3 100 16 101
3 17 102 104
3 102 16 103
3 102 103 104
3 17 6 16
3 17 18 6
3 19 18 17
3 19 8 18
3 20 21 4
3 105 21 106
3 107 106 20
3 105 106 107
3 109 108 21
3 22 23 9
3 110 23 111
3 112 111 22
3 110 111 112
3 114 113 23
3 24 115 116
3 25 117 119
3 119 118 24
3 117 118 119
3 25 120 121
3 25 122 123
3 26 124 126
3 126 125 25
3 124 125 126
3 26 127 129
3 127 11 128
3 127 128 129
3 26 27 11
3 28 27 26
3 28 12 27
3 29 30 7
3 130 30 131
3 132 131 29
3 130 131 132
3 134 133 30
3 136 135 10
3 31 137 139
3 137 32 138
3 137 138 139
3 33 32 31
3 33 4 32
3 14 33 3
3 34 33 14
3 34 4 33
3 34 20 4
3 35 20 34
3 35 140 142
3 142 141 20
3 140 141 142
3 36 143 144
3 36 145 146
3 16 147 149
3 147 36 148
3 147 148 149
3 37 36 16
3 37 150 152
3 152 151 36
3 150 151 152
3 37 153 155
3 153 24 154
3 153 154 155
3 38 24 37
3 38 2 24
3 38 39 2
3 40 39 38
3 40 7 39
3 18 40 6
3 41 40 18
3 41 7 40
3 41 29 7
3 42 29 41
3 42 156 158
3 158 157 29
3 156 157 158
3 159 1 160
3 162 161 1
3 32 163 164
3 43 165 167
3 167 166 32
3 165 166 167
3 43 168 169
3 21 43 4
3 170 43 171
3 172 171 21
3 170 171 172
3 174 173 43
3 44 45 0
3 46 45 44
3 46 10 45
3 23 46 9
3 47 46 23
3 47 10 46
3 47 175 177
3 177 176 10
3 175 176 177
3 179 178 47
3 180 31 181
3 48 182 184
3 182 31 183
3 182 183 184
3 48 3 31
3 185 48 186
3 49 187 189
3 187 48 188
3 187 188 189
3 49 3 48
3 49 13 3
3 50 13 49
3 50 0 13
3 190 50 191
3 51 192 194
3 192 50 193
3 192 193 194
3 51 0 50
3 51 44 0
3 52 44 51
3 52 9 44
3 27 52 11
3 53 52 27
3 53 9 52
3 53 22 9
3 54 22 53
3 54 195 197
3 197 196 22
3 195 196 197
3 39 28 2
3 55 28 39
3 55 12 28
3 30 55 7
3 56 55 30
3 56 12 55
3 56 54 12
3 198 54 199
3 200 199 56
3 198 199 200
3 202 201 54
3 203 19 204
3 205 204 1
3 203 204 205
3 206 19 207
3 208 8 209
3 210 209 19
3 208 209 210
3 211 8 212
3 213 42 214
3 215 214 8
3 213 214 215
3 216 42 217
3 219 218 42
3 45 15 0
3 57 15 45
3 57 5 15
3 220 57 221
3 222 221 10
3 220 221 222
3 58 223 225
3 223 57 224
3 223 224 225
3 58 5 57
3 58 35 5
3 226 35 227
3 228 227 58
3 226 227 228
3 230 229 35
