ply
format ascii 1.0
element vertex 733
property float x
property float y
property float z
element face 800
property list uchar int vertex_index
end_header
0.767208 -84.198616 51.69146
0.14839 -73.429382 71.459534
4.372818 -56.422585 87.118919
-0.447538 -73.764175 55.930077
0.458405 -75.656837 46.590927
-0.376373 -69.133499 65.16687
-0.558191 -80.18512 61.595001
2.225525 -55.116833 81.77832
2.860577 -74.592484 28.458313
1.290443 -75.620026 37.501953
2.232512 -83.669983 67.039024
3.455046 -89.749802 57.309036
2.890562 -57.12809 56.97525
2.510397 -65.320007 80.110329
1.401295 -62.576756 73.905052
-0.035179 -68.698761 57.981522
0.327379 -69.834755 53.652344
0.045771 -66.785233 61.981812
-0.643595 -71.780563 60.601219
1.248892 -69.92408 26.634537
2.111483 -69.250732 22.185593
3.319933 -68.425476 17.775221
3.16246 -88.664345 49.882263
1.846968 -84.883926 47.040146
0.874199 -75.793427 42.027157
1.629877 -74.82061 73.970329
2.819147 -79.730438 71.650192
0.690964 -78.843323 69.426765
-0.08901 -82.627182 56.550957
0.835848 -85.351013 59.477234
1.838964 -87.464981 54.574776
4.84799 -91.639473 52.649277
3.638142 -60.953739 83.892036
2.148922 -58.917778 77.994225
1.822781 -60.910549 69.847527
-0.355623 -79.131393 53.728775
0.292976 -80.204803 48.978897
-0.012421 -75.033745 51.229057
-0.437653 -71.440376 68.429428
-0.493391 -77.047653 66.636429
-0.865942 -74.612694 63.592232
-0.795452 -77.240204 58.639442
2.746439 -56.038506 85.196663
4.366623 -79.048988 30.649662
1.054295 -80.548721 44.383926
1.926651 -80.36705 39.848572
2.998631 -79.839142 35.284271
1.892233 -75.220306 32.986343
4.919102 -83.722244 68.829628
4.858795 -87.474762 64.170059
0.410589 -82.414474 64.512093
2.474886 -87.056076 62.154167
5.62924 -90.735085 59.442818
6.882465 -93.431633 54.882858
1.204517 -62.399117 62.200035
1.568209 -61.429214 58.457031
3.02424 -70.482414 78.037827
1.23963 -69.491241 75.95414
2.378674 -60.158184 81.528778
1.509579 -64.132065 77.43425
0.44371 -67.91069 73.053398
0.396608 -66.0103 69.610519
0.753708 -64.067505 65.909721
0.311926 -65.710007 60.552818
-0.071918 -67.860985 60.013077
0.44276 -67.437096 25.951017
1.625931 -69.612495 24.408205
0.695484 -67.150108 23.751184
1.059992 -66.80217 21.56201
1.82214 -86.506676 50.766937
2.450966 -86.855667 48.449501
1.288237 -84.644943 49.345551
0.766424 -74.217049 72.797218
1.087881 -76.878647 71.755585
0.305519 -76.177002 70.486885
0.301355 -83.527512 54.092072
0.712936 -85.133179 55.545074
1.233612 -85.93631 53.127563
2.479578 -88.178055 52.206627
4.578653 -54.115047 88.422096
4.062618 -58.705864 85.593002
-0.495281 -76.451599 54.824471
-0.254919 -77.149574 52.430618
-0.245008 -74.486282 53.576134
0.561226 -70.202545 51.403053
-0.469574 -70.309738 66.808952
-0.716789 -73.081467 66.03344
-0.707571 -71.833893 64.457451
-0.590996 -72.862015 58.276138
-0.800825 -74.483597 59.660507
-0.685619 -75.560997 57.239525
-0.610804 -78.286636 56.169052
3.632927 -76.832939 29.524067
4.369364 -76.397163 27.216486
2.033276 -65.952461 17.241131
4.003477 -67.977356 15.606018
0.300014 -77.991043 47.739632
0.662037 -80.45639 46.667099
0.592733 -78.168823 45.440865
1.072758 -75.737335 39.761925
1.208994 -78.163231 40.897305
1.555893 -78.026382 38.634735
2.430239 -80.139229 37.573631
1.954155 -77.820358 36.369644
2.424517 -77.551155 34.098076
1.554489 -75.447769 35.244267
2.425682 -81.760933 69.39933
3.751343 -81.868965 70.32058
3.473259 -83.854988 68.044296
4.775484 -85.656624 66.530731
3.414738 -85.715965 65.678352
-0.598799 -78.689377 64.13089
-0.175894 -79.793289 65.604591
-0.174299 -81.404358 63.079239
2.002384 -87.654411 58.406181
1.562311 -86.348686 60.872803
2.88798 -88.497871 59.711555
3.939497 -89.013206 60.858414
4.47142 -90.423904 58.480247
6.228678 -92.159668 57.137794
5.119492 -91.65934 56.150566
5.554428 -92.271866 50.362343
6.496201 -93.566727 51.60788
1.752264 -60.917419 63.847572
1.951067 -60.26403 61.827591
3.410749 -65.700615 81.032928
3.802834 -68.222656 79.897942
2.703424 -67.914108 79.121384
2.000673 -70.075371 77.112839
1.872709 -67.431679 78.074425
2.353502 -55.635353 83.64534
2.635567 -58.113197 83.42981
2.33609 -57.620319 81.819916
1.838675 -60.770794 75.980438
1.812103 -61.503452 77.854935
1.363657 -63.38385 75.755394
0.976833 -66.048599 75.275391
0.856268 -65.2127 73.595291
0.347313 -66.982994 71.381683
0.898426 -64.326096 71.779068
1.275745 -62.530449 67.883102
1.519657 -61.684414 65.869545
0.982584 -63.17382 64.04509
2.222443 -59.343414 57.764793
2.305613 -59.018826 55.716843
-0.279243 -71.150368 56.999634
-0.101431 -71.855667 54.731346
0.114481 -69.340355 55.856018
-0.193827 -67.94561 63.542397
-0.577351 -70.530289 62.898628
-0.356688 -69.198105 61.399376
-0.376846 -70.268921 59.223053
2.060974 -72.299393 27.4827
3.495916 -74.20034 26.182232
2.570362 -71.95089 25.232277
3.177452 -71.561989 22.978251
2.683474 -68.851318 19.971926
1.51298 -66.400902 19.389507
4.673748 -90.711403 48.997932
3.851027 -88.940804 47.578438
3.095972 -87.006439 46.152885
2.430456 -84.942802 44.754673
0.673428 -75.773766 44.301781
1.020634 -73.236931 38.724838
1.09037 -73.146042 36.469513
2.746149 -75.21096 74.949188
2.11676 -77.35939 72.856529
1.634743 -79.415489 70.627777
1.326885 -81.36235 68.281281
-0.382429 -81.506485 59.058884
-0.014717 -82.848686 60.540321
0.288183 -84.099251 58.020439
1.279091 -86.520203 56.999077
2.578892 -88.749596 55.987114
4.127775 -90.799156 54.957336
3.249022 -89.623207 53.621727
3.963737 -90.274033 51.299774
3.11137 -63.159725 82.055092
2.285547 -57.029243 79.932434
2.332167 -58.204601 75.916862
2.02232 -60.000088 73.944969
1.571974 -61.742653 71.923355
2.862955 -56.721291 54.916389
0.046009 -81.731659 52.678177
0.449955 -82.280449 50.30085
-0.049398 -79.768806 51.330948
0.014959 -77.658379 50.068115
0.227282 -75.417923 48.899391
0.118193 -72.400536 52.43512
0.346571 -72.798218 50.130013
-0.243359 -72.491898 69.991631
-0.240822 -75.286736 69.085411
-0.572063 -74.243248 67.588463
-0.768349 -75.893463 65.126556
-0.828075 -77.417755 62.62326
-0.815037 -73.233887 62.071136
-0.88743 -76.007858 61.120979
-0.759001 -78.7883 60.102303
-0.577085 -79.977768 57.589897
-0.302155 -80.963486 55.109756
3.51236 -54.103119 87.835838
3.420059 -56.304947 86.37001
2.71875 -53.940693 86.791451
2.208426 -53.631165 85.329315
1.974806 -53.189056 83.511833
0.895855 -82.620956 47.972538
1.374441 -82.775406 45.679703
1.881891 -82.772797 43.404556
0.893076 -78.217651 43.163269
1.472715 -80.510193 42.115391
2.420465 -82.643158 41.129501
2.997723 -82.412209 38.840321
3.623901 -82.098465 36.527596
3.643108 -79.473701 32.976921
2.98237 -77.220879 31.817116
2.324539 -74.935066 30.725403
1.198858 -73.012947 34.219902
1.381027 -72.831467 31.974072
1.663914 -72.594543 29.729303
0.995306 -70.176743 28.862186
6.522993 -88.953278 62.479759
-0.014133 -78.042641 68.083138
0.461271 -80.6959 67.002472
1.210573 -83.180885 65.847488
0.53919 -83.974648 61.991562
1.291523 -84.850334 63.364693
2.250095 -85.440865 64.609589
3.575739 -87.439568 63.268677
5.154688 -89.170181 61.794601
6.923077 -90.659256 60.149437
7.455261 -92.266212 57.863953
8.046055 -93.762207 55.634689
5.818323 -92.709259 53.86657
7.510372 -94.537033 52.661652
0.794321 -63.761192 60.663834
0.984879 -63.334152 59.024414
1.400322 -61.810005 60.355026
2.106785 -59.744236 59.80307
3.489475 -72.984657 76.899956
2.287067 -72.684555 76.063828
1.342493 -72.179115 75.005913
0.652292 -71.493301 73.749695
3.208527 -58.481487 84.703552
2.869457 -60.624641 82.881027
2.416986 -62.728413 80.937904
2.149315 -59.579292 79.882156
1.991968 -62.166645 79.52317
1.881735 -64.788101 78.89949
1.304214 -66.799576 76.781105
0.729065 -68.758514 74.589622
0.200256 -70.658997 72.326416
-0.041401 -69.711441 70.770844
-0.109055 -68.68631 69.118523
-0.043491 -67.6185 67.405067
1.054369 -63.421558 69.863457
0.546272 -65.026688 67.775154
0.11458 -66.543167 65.666512
0.328075 -65.499855 63.940186
0.564749 -64.542206 62.264061
0.285415 -66.115478 59.685638
0.435712 -65.28278 59.985634
0.17876 -65.980716 24.605905
0.569122 -67.293602 24.851101
0.052398 -66.124211 25.705822
0.250057 -65.841636 23.521573
0.17876 -65.980716 24.605905
4.979821 -56.40646 87.27153
5.082738 -55.252691 87.923119
4.475735 -55.268816 87.770508
4.780668 -57.599655 86.595089
4.979821 -56.40646 87.27153
4.217718 -57.564224 86.355961
4.625568 -58.741295 85.832131
4.780668 -57.599655 86.595089
2.319692 -65.70496 16.183388
1.402365 -64.618885 17.071049
6.319572 -93.250519 49.85212
5.872675 -92.488343 49.213539
2.175663 -59.796165 63.611614
2.06267 -60.135883 64.696941
1.946366 -60.51938 65.707928
1.811769 -60.895466 66.790634
2.06267 -60.135883 64.696941
1.63596 -61.300916 64.858559
1.946366 -60.51938 65.707928
2.986152 -70.200737 21.45488
3.519137 -71.356365 21.851209
2.644468 -70.406361 22.581922
2.397479 -69.051025 21.07876
3.272147 -70.00103 20.348047
2.986152 -70.200737 21.45488
0.782345 -65.292439 20.264145
1.286486 -66.601536 20.475758
0.555851 -65.493073 21.350397
0.946377 -65.08405 19.198009
0.782345 -65.292439 20.264145
1.044868 -71.970852 39.391702
0.987604 -73.261539 39.856014
1.00553 -71.951298 38.265285
1.044868 -71.970852 39.391702
3.860518 -62.195865 83.36681
4.161133 -61.041219 84.211315
3.374756 -62.056732 82.973564
3.597132 -63.298859 82.448338
3.860518 -62.195865 83.36681
2.488802 -57.836483 74.806896
2.548665 -56.937862 75.736748
2.333878 -58.734226 73.820949
2.177244 -59.102345 74.930915
2.488802 -57.836483 74.806896
2.165239 -59.609846 72.867393
2.333878 -58.734226 73.820949
0.563432 -71.627598 49.63179
0.453898 -71.500382 50.766533
0.670759 -70.329762 50.26831
0.452063 -72.93126 48.979519
0.563432 -71.627598 49.63179
3.049451 -52.964802 88.002445
3.515648 -52.9953 88.442997
2.652646 -52.883589 87.480251
3.115555 -54.021906 87.313644
3.049451 -52.964802 88.002445
1.88929 -52.439963 85.218753
2.072271 -52.62133 86.082634
1.77248 -52.218908 84.310012
2.091616 -53.410111 84.420574
1.88929 -52.439963 85.218753
5.108104 -79.908123 30.033383
4.709059 -80.157509 31.23283
4.335235 -75.066478 25.53767
3.855333 -73.98782 25.039074
4.346618 -69.373856 17.012706
3.959312 -69.579899 18.126423
5.087483 -68.943917 14.831245
4.362601 -67.738739 14.541355
3.653123 -80.776336 34.735414
3.965758 -81.905998 35.357077
3.311266 -80.968804 35.905934
3.320869 -79.656421 34.130596
3.975361 -80.593616 33.581739
3.653123 -80.776336 34.735414
1.050161 -71.807491 34.890407
1.144614 -73.079494 35.344707
0.995917 -71.874039 36.015213
1.123717 -71.600232 31.532644
1.113484 -71.669243 32.648714
1.26516 -71.481769 30.41026
1.52247 -72.713005 30.851688
1.123717 -71.600232 31.532644
0.930856 -70.272869 29.976702
1.32961 -71.385643 29.295745
1.26516 -71.481769 30.41026
3.526937 -79.750286 72.057907
3.105068 -78.662472 72.705406
5.102942 -82.700157 69.924267
4.519063 -81.773517 70.669743
4.335222 -82.795604 69.575104
5.732942 -83.499344 69.101864
5.102942 -82.700157 69.924267
5.615945 -84.491897 67.984318
5.732942 -83.499344 69.101864
5.583811 -87.314209 64.497173
5.542155 -86.40514 65.677509
4.817139 -86.565693 65.350395
5.690894 -88.21402 63.324909
6.415909 -88.053467 63.652023
5.583811 -87.314209 64.497173
7.745671 -94.279831 54.167324
8.327466 -94.445118 54.543239
7.46426 -93.59692 55.258774
7.771753 -94.999443 51.552006
7.003286 -94.05188 52.134766
7.264667 -94.51429 51.02512
8.282826 -95.43795 51.974152
7.771753 -94.999443 51.552006
2.435003 -58.912886 60.50967
2.028926 -60.004133 60.815331
2.357144 -59.172782 61.52193
2.48309 -58.65827 59.441128
2.435003 -58.912886 60.50967
3.66654 -70.587333 78.375313
4.055837 -69.457454 79.305371
3.413537 -69.352535 78.967884
3.256857 -71.733536 77.468891
3.899158 -71.838455 77.806377
3.66654 -70.587333 78.375313
1.362888 -62.321208 57.829476
1.071223 -63.273678 58.113167
1.276544 -62.381683 58.740723
2.610806 -57.72434 54.295006
2.821633 -56.5245 53.913597
0.168101 -67.863365 57.44949
0.111863 -67.609856 58.399991
0.093494 -67.190967 59.415768
0.120004 -66.785496 60.282948
0.285415 -66.115478 59.685638
0.111863 -67.609856 58.399991
-0.053548 -68.279873 58.997299
0.093494 -67.190967 59.415768
0.432311 -65.667667 22.426986
0.877738 -66.976139 22.656597
0.250057 -65.841636 23.521573
0.555851 -65.493073 21.350397
0.432311 -65.667667 22.426986
5.235224 -54.049896 88.482238
4.646411 -52.957874 88.93618
5.235224 -54.049896 88.482238
5.082738 -55.252691 87.923119
4.373371 -59.917282 85.061798
4.625568 -58.741295 85.832131
3.85038 -59.829802 84.742519
4.161133 -61.041219 84.211315
4.373371 -59.917282 85.061798
0.683451 -68.951084 52.04512
0.444302 -70.01865 52.527698
0.566527 -68.767189 53.169765
0.799865 -69.051949 50.938392
0.683451 -68.951084 52.04512
0.670759 -70.329762 50.26831
0.799865 -69.051949 50.938392
4.397244 -77.70443 28.912808
4.764091 -78.812454 29.475606
3.999775 -77.940963 30.086864
4.765462 -77.486542 27.759018
4.397244 -77.70443 28.912808
4.001145 -76.615051 28.370276
5.190175 -77.235825 26.574666
4.765462 -77.486542 27.759018
3.304793 -66.717407 15.365832
3.018377 -66.964909 16.423575
2.319692 -65.70496 16.183388
4.362601 -67.738739 14.541355
3.304793 -66.717407 15.365832
6.790458 -93.89795 50.474888
6.025315 -92.919297 50.985112
6.319572 -93.250519 49.85212
7.264667 -94.51429 51.02512
6.790458 -93.89795 50.474888
2.275065 -59.46947 62.601624
1.851666 -60.590725 62.837581
2.175663 -59.796165 63.611614
2.357144 -59.172782 61.52193
2.275065 -59.46947 62.601624
3.606791 -66.961635 80.465435
4.192629 -67.066696 80.772926
3.996586 -65.805676 81.340419
1.689812 -61.318483 67.797413
1.549263 -61.720499 68.865314
1.963331 -60.508533 68.779625
1.397701 -62.107431 66.876323
1.689812 -61.318483 67.797413
1.811769 -60.895466 66.790634
1.972328 -60.267622 57.122261
1.645211 -61.310522 57.46838
1.895326 -60.386314 58.110912
2.013912 -60.105328 56.098286
1.972328 -60.267622 57.122261
2.264028 -59.18112 56.740818
2.087776 -60.016621 55.079842
2.013912 -60.105328 56.098286
0.242931 -68.184162 56.386738
0.039651 -69.019558 56.91877
0.168101 -67.863365 57.44949
0.342148 -68.375534 55.353336
0.242931 -68.184162 56.386738
0.448597 -68.622734 54.2515
0.22093 -69.587555 54.754181
0.342148 -68.375534 55.353336
0.566527 -68.767189 53.169765
0.448597 -68.622734 54.2515
3.392556 -72.863095 24.564096
3.855333 -73.98782 25.039074
3.033139 -73.075615 25.707254
3.696101 -72.668644 23.437083
3.392556 -72.863095 24.564096
2.873907 -71.756439 24.105264
4.086318 -72.451248 22.289827
3.696101 -72.668644 23.437083
4.086318 -72.451248 22.289827
3.519137 -71.356365 21.851209
3.641082 -69.79282 19.224775
3.272147 -70.00103 20.348047
3.001703 -68.638397 18.873573
3.959312 -69.579899 18.126423
3.641082 -69.79282 19.224775
1.206525 -64.859829 18.123821
1.773128 -66.176682 18.315319
0.946377 -65.08405 19.198009
1.402365 -64.618885 17.071049
1.206525 -64.859829 18.123821
5.00488 -90.832436 47.841991
5.432335 -91.708111 48.531334
4.59352 -89.947136 47.132244
5.00488 -90.832436 47.841991
4.262387 -89.826104 48.288185
4.183246 -88.986885 46.422825
4.59352 -89.947136 47.132244
3.805719 -88.019703 45.710048
4.183246 -88.986885 46.422825
3.473499 -87.973622 46.865662
3.417868 -86.99773 45.002372
3.805719 -88.019703 45.710048
3.08511 -85.965912 44.303266
3.417868 -86.99773 45.002372
2.763214 -85.974621 45.453779
2.731279 -84.897937 43.611015
3.08511 -85.965912 44.303266
0.703172 -74.496418 44.919872
0.565917 -75.715301 45.446354
0.595661 -74.437953 46.064446
0.76878 -74.52972 43.779766
0.703172 -74.496418 44.919872
0.869166 -74.539551 42.642454
0.773813 -75.783596 43.164469
0.76878 -74.52972 43.779766
0.914387 -74.539787 41.507174
0.869166 -74.539551 42.642454
1.013667 -74.511741 40.374557
0.973479 -75.765381 40.894541
0.914387 -74.539787 41.507174
1.046696 -74.487133 39.243381
1.013667 -74.511741 40.374557
0.987604 -73.261539 39.856014
1.040399 -71.905854 37.137623
1.055502 -73.191486 37.597175
1.00553 -71.951298 38.265285
0.995917 -71.874039 36.015213
1.040399 -71.905854 37.137623
3.068569 -76.402732 74.354904
3.428338 -75.289524 75.331066
2.753875 -77.476947 73.308574
3.068569 -76.402732 74.354904
2.431455 -76.285175 73.902859
2.467954 -78.544914 72.25336
3.105068 -78.662472 72.705406
2.753875 -77.476947 73.308574
5.432335 -91.708111 48.531334
5.872675 -92.488343 49.213539
5.114088 -91.491635 49.680138
3.746822 -64.569304 81.937255
3.996586 -65.805676 81.340419
3.261059 -64.43017 81.54401
3.746822 -64.569304 81.937255
3.597132 -63.298859 82.448338
2.308496 -55.769749 79.797264
2.255536 -56.073038 80.855377
2.278485 -54.813544 80.720207
2.365272 -56.699506 78.879547
2.308496 -55.769749 79.797264
2.296959 -57.643774 77.910443
2.217234 -57.973511 78.96333
2.365272 -56.699506 78.879547
2.388581 -57.287185 76.871761
2.548665 -56.937862 75.736748
2.240545 -58.561189 76.955544
2.296959 -57.643774 77.910443
2.388581 -57.287185 76.871761
1.940065 -60.481128 71.856586
1.797147 -60.87137 72.934162
2.165239 -59.609846 72.867393
2.065469 -60.065077 70.818672
1.697377 -61.326601 70.885441
1.940065 -60.481128 71.856586
2.231981 -59.681791 69.69994
2.065469 -60.065077 70.818672
1.963331 -60.508533 68.779625
2.231981 -59.681791 69.69994
3.192989 -55.756237 55.517055
2.876759 -56.92469 55.945819
3.206792 -55.959637 56.546486
3.109256 -55.511521 54.506279
3.192989 -55.756237 55.517055
3.067935 -55.314729 53.503487
2.821633 -56.5245 53.913597
3.109256 -55.511521 54.506279
0.392418 -74.241112 48.364208
0.286927 -74.10807 49.514702
0.452063 -72.93126 48.979519
0.50798 -74.360569 47.209976
0.342844 -75.53738 47.745159
0.392418 -74.241112 48.364208
0.595661 -74.437953 46.064446
0.50798 -74.360569 47.209976
4.048794 -53.001264 88.736126
4.646411 -52.957874 88.93618
4.045507 -54.109083 88.128967
4.048794 -53.001264 88.736126
3.515648 -52.9953 88.442997
2.327434 -52.776094 86.813702
2.652646 -52.883589 87.480251
2.463588 -53.785929 86.060383
2.327434 -52.776094 86.813702
2.072271 -52.62133 86.082634
1.724744 -51.972297 83.2854
1.77248 -52.218908 84.310012
1.985059 -52.913282 82.461349
1.724744 -51.972297 83.2854
2.110419 -53.87717 81.594593
2.100166 -54.152945 82.645076
1.985059 -52.913282 82.461349
2.278485 -54.813544 80.720207
2.110419 -53.87717 81.594593
5.108104 -79.908123 30.033383
4.764091 -78.812454 29.475606
4.771959 -76.16489 26.054797
3.93264 -75.298752 26.699359
4.335235 -75.066478 25.53767
5.190175 -77.235825 26.574666
4.771959 -76.16489 26.054797
4.688391 -69.149796 15.928104
4.346618 -69.373856 17.012706
3.661705 -68.201416 16.69062
5.772396 -70.116356 15.153331
4.688391 -69.149796 15.928104
5.087483 -68.943917 14.831245
2.456996 -83.812935 42.935957
2.731279 -84.897937 43.611015
2.156173 -83.857799 44.079614
2.726283 -83.748115 41.798429
2.456996 -83.812935 42.935957
2.151178 -82.707977 42.267028
3.036243 -83.643783 40.644538
2.726283 -83.748115 41.798429
3.324871 -83.528309 39.499949
3.036243 -83.643783 40.644538
2.709094 -82.527683 39.984911
3.646575 -83.376251 38.329384
3.324871 -83.528309 39.499949
3.959664 -83.21938 37.173022
3.646575 -83.376251 38.329384
3.310812 -82.255337 37.683959
4.296503 -83.0276 35.982544
3.959664 -83.21938 37.173022
4.296503 -83.0276 35.982544
3.965758 -81.905998 35.357077
4.347302 -80.369865 32.396459
3.975361 -80.593616 33.581739
4.004865 -79.261345 31.813291
4.709059 -80.157509 31.23283
4.347302 -80.369865 32.396459
1.0224 -71.759983 33.77163
1.050161 -71.807491 34.890407
1.289942 -72.922207 33.096987
1.0224 -71.759983 33.77163
1.113484 -71.669243 32.648714
0.662521 -68.996628 29.614763
0.930856 -70.272869 29.976702
0.657438 -68.917675 28.509678
0.662521 -68.996628 29.614763
0.78423 -68.791344 27.395853
1.122099 -70.050411 27.748362
0.657438 -68.917675 28.509678
0.381165 -67.547852 27.054093
0.845826 -68.680588 26.292777
0.78423 -68.791344 27.395853
0.044193 -66.227337 26.795358
0.381165 -67.547852 27.054093
0.052398 -66.124211 25.705822
0.044193 -66.227337 26.795358
3.993035 -80.819549 71.393101
3.526937 -79.750286 72.057907
3.285245 -80.799701 70.985386
3.993035 -80.819549 71.393101
4.519063 -81.773517 70.669743
5.544136 -85.459087 66.834869
5.615945 -84.491897 67.984318
4.847293 -84.689434 67.68018
5.544136 -85.459087 66.834869
5.542155 -86.40514 65.677509
7.274634 -88.660954 62.685478
6.415909 -88.053467 63.652023
7.431446 -89.572907 61.525318
7.274634 -88.660954 62.685478
7.631488 -90.425895 60.360157
7.431446 -89.572907 61.525318
6.723035 -89.806267 61.314598
7.857416 -91.311383 59.220608
7.631488 -90.425895 60.360157
8.123508 -92.11486 58.077866
7.857416 -91.311383 59.220608
7.189169 -91.462734 59.006695
8.381519 -92.969352 56.969487
8.123508 -92.11486 58.077866
8.676916 -93.71735 55.854855
8.381519 -92.969352 56.969487
7.750658 -93.014209 56.749321
8.92176 -94.529991 54.777359
8.676916 -93.71735 55.854855
8.92176 -94.529991 54.777359
8.327466 -94.445118 54.543239
8.059624 -94.832531 53.056721
7.745671 -94.279831 54.167324
7.196419 -93.984333 53.772255
8.059624 -94.832531 53.056721
8.282826 -95.43795 51.974152
0.8896 -63.547672 59.844124
0.772188 -64.094853 59.221432
0.67691 -64.308373 60.041142
2.54092 -58.457859 58.421989
2.164614 -59.543825 58.783931
2.48309 -58.65827 59.441128
2.874979 -57.350197 58.027218
2.556503 -58.235752 57.370022
2.54092 -58.457859 58.421989
3.246128 -56.210425 57.602944
2.874979 -57.350197 58.027218
3.206792 -55.959637 56.546486
3.246128 -56.210425 57.602944
4.483131 -68.282592 80.147061
4.192629 -67.066696 80.772926
4.483131 -68.282592 80.147061
4.055837 -69.457454 79.305371
4.215159 -73.024639 77.201549
3.899158 -71.838455 77.806377
3.800001 -74.176372 76.30645
4.215159 -73.024639 77.201549
3.117812 -74.097808 75.924572
3.428338 -75.289524 75.331066
3.800001 -74.176372 76.30645
0.67691 -64.308373 60.041142
0.435712 -65.28278 59.985634
0.553123 -64.7356 60.608326
0.82248 -64.174251 58.470897
0.772188 -64.094853 59.221432
0.82248 -64.174251 58.470897
1.071223 -63.273678 58.113167
1.362888 -62.321208 57.829476
1.645211 -61.310522 57.46838
2.332136 -58.873108 54.695233
2.584284 -57.870058 55.316616
2.610806 -57.72434 54.295006
2.087776 -60.016621 55.079842
2.332136 -58.873108 54.695233
3 260 259 63
3 261 67 262
3 263 262 65
3 261 262 263
3 265 264 67
3 0 71 69
3 1 74 72
3 0 77 75
3 0 69 77
3 2 266 268
3 268 267 79
3 266 267 268
3 2 269 270
3 2 271 273
3 271 80 272
3 271 272 273
3 3 83 81
3 5 87 85
3 3 90 88
3 3 81 90
3 8 93 92
3 275 274 94
3 4 98 96
3 9 101 99
3 9 103 101
3 9 105 103
3 10 108 106
3 10 110 108
3 6 113 111
3 11 116 114
3 11 118 116
3 11 120 118
3 277 276 121
3 279 278 123
3 13 127 125
3 13 129 127
3 7 132 130
3 14 135 133
3 14 137 135
3 14 139 137
3 280 141 281
3 282 123 283
3 284 283 141
3 282 283 284
3 12 144 143
3 15 147 145
3 17 150 148
3 15 151 64
3 15 145 151
3 19 154 152
3 20 155 66
3 20 285 287
3 287 286 155
3 285 286 287
3 20 288 290
3 288 156 289
3 288 289 290
3 291 157 292
3 293 292 68
3 291 292 293
3 295 294 157
3 22 159 158
3 23 160 70
3 23 161 160
3 296 163 297
3 299 298 163
3 25 166 165
3 27 167 73
3 27 168 167
3 28 171 169
3 30 172 76
3 30 173 172
3 30 175 173
3 22 176 78
3 22 158 176
3 32 300 301
3 32 302 304
3 302 177 303
3 302 303 304
3 305 179 306
3 307 180 308
3 309 308 179
3 307 308 309
3 311 310 180
3 35 185 183
3 37 186 82
3 37 187 186
3 16 188 146
3 312 189 313
3 314 313 84
3 312 313 314
3 316 315 189
3 38 192 190
3 40 193 86
3 40 194 193
3 18 195 149
3 41 196 89
3 41 197 196
3 41 198 197
3 35 199 91
3 35 183 199
3 317 200 318
3 319 202 320
3 321 320 200
3 319 320 321
3 322 203 323
3 324 204 325
3 326 325 203
3 324 325 326
3 43 327 328
3 330 329 153
3 21 331 332
3 334 333 95
3 36 205 184
3 44 206 97
3 44 207 206
3 24 208 162
3 45 209 100
3 45 210 209
3 45 211 210
3 46 212 102
3 46 335 337
3 337 336 212
3 335 336 337
3 46 338 340
3 338 213 339
3 338 339 340
3 47 214 104
3 47 215 214
3 341 216 342
3 343 342 164
3 341 342 343
3 344 217 345
3 346 218 347
3 348 347 217
3 346 347 348
3 349 219 350
3 351 350 218
3 349 350 351
3 26 352 353
3 48 354 356
3 356 355 107
3 354 355 356
3 48 357 358
3 48 359 360
3 49 361 363
3 363 362 109
3 361 362 363
3 49 364 366
3 364 220 365
3 364 365 366
3 39 221 191
3 50 222 112
3 50 223 222
3 29 224 170
3 51 225 115
3 51 226 225
3 51 227 226
3 52 228 117
3 52 229 228
3 52 230 229
3 53 231 119
3 53 367 369
3 369 368 231
3 367 368 369
3 31 232 174
3 370 233 371
3 372 371 122
3 370 371 372
3 374 373 233
3 54 236 234
3 375 237 376
3 377 376 124
3 375 376 377
3 379 378 237
3 56 380 382
3 382 381 126
3 380 381 382
3 56 383 385
3 383 238 384
3 383 384 385
3 56 239 238
3 57 240 128
3 57 241 240
3 42 242 201
3 58 243 131
3 58 244 243
3 33 245 178
3 59 246 134
3 59 247 246
3 59 248 247
3 60 249 136
3 60 250 249
3 60 251 250
3 61 252 138
3 61 253 252
3 34 254 181
3 62 255 140
3 62 256 255
3 62 257 256
3 54 258 142
3 54 234 258
3 55 386 388
3 388 387 235
3 386 387 388
3 390 389 182
3 392 391 15
3 63 64 17
3 393 64 394
3 395 394 63
3 393 394 395
3 396 15 397
3 398 397 64
3 396 397 398
3 65 66 19
3 67 66 65
3 67 20 66
3 67 68 20
3 399 68 400
3 401 400 67
3 399 400 401
3 403 402 68
3 69 70 22
3 71 70 69
3 71 23 70
3 72 73 25
3 74 73 72
3 74 27 73
3 75 76 28
3 77 76 75
3 77 30 76
3 77 78 30
3 69 78 77
3 69 22 78
3 79 404 405
3 407 406 79
3 80 408 409
3 80 410 412
3 410 32 411
3 410 411 412
3 81 82 35
3 83 82 81
3 83 37 82
3 413 84 414
3 415 414 16
3 413 414 415
3 416 84 417
3 419 418 84
3 85 86 38
3 87 86 85
3 87 40 86
3 88 89 18
3 90 89 88
3 90 41 89
3 90 91 41
3 81 91 90
3 81 35 91
3 92 420 422
3 422 421 43
3 420 421 422
3 93 423 425
3 425 424 92
3 423 424 425
3 93 426 427
3 94 95 21
3 428 95 429
3 430 429 94
3 428 429 430
3 432 431 95
3 96 97 36
3 98 97 96
3 98 44 97
3 99 100 24
3 101 100 99
3 101 45 100
3 101 102 45
3 103 102 101
3 103 46 102
3 103 104 46
3 105 104 103
3 105 47 104
3 106 107 26
3 108 107 106
3 108 48 107
3 108 109 48
3 110 109 108
3 110 49 109
3 111 112 39
3 113 112 111
3 113 50 112
3 114 115 29
3 116 115 114
3 116 51 115
3 116 117 51
3 118 117 116
3 118 52 117
3 118 119 52
3 120 119 118
3 120 53 119
3 121 122 31
3 433 122 434
3 435 434 121
3 433 434 435
3 437 436 122
3 123 124 54
3 438 124 439
3 440 439 123
3 438 439 440
3 442 441 124
3 125 443 445
3 443 126 444
3 443 444 445
3 127 126 125
3 127 56 126
3 127 128 56
3 129 128 127
3 129 57 128
3 130 131 42
3 132 131 130
3 132 58 131
3 133 134 33
3 135 134 133
3 135 59 134
3 135 136 59
3 137 136 135
3 137 60 136
3 137 138 60
3 139 138 137
3 139 61 138
3 446 140 447
3 448 447 34
3 446 447 448
3 141 449 451
3 449 140 450
3 449 450 451
3 141 62 140
3 141 142 62
3 123 142 141
3 123 54 142
3 143 452 454
3 454 453 55
3 452 453 454
3 144 455 457
3 457 456 143
3 455 456 457
3 144 458 459
3 145 146 3
3 147 146 145
3 147 16 146
3 460 147 461
3 462 461 15
3 460 461 462
3 463 147 464
3 465 16 466
3 467 466 147
3 465 466 467
3 469 468 16
3 148 149 5
3 150 149 148
3 150 18 149
3 64 150 17
3 151 150 64
3 151 18 150
3 151 88 18
3 145 88 151
3 145 3 88
3 152 153 8
3 154 153 152
3 154 470 472
3 472 471 153
3 470 471 472
3 66 154 19
3 155 154 66
3 155 473 475
3 475 474 154
3 473 474 475
3 155 476 477
3 479 478 155
3 156 480 481
3 156 482 484
3 482 21 483
3 482 483 484
3 68 156 20
3 157 156 68
3 157 21 156
3 157 94 21
3 485 94 486
3 487 486 157
3 485 486 487
3 489 488 94
3 158 490 491
3 159 492 494
3 494 493 158
3 492 493 494
3 159 495 496
3 70 159 22
3 160 159 70
3 160 497 499
3 499 498 159
3 497 498 499
3 160 500 501
3 161 502 504
3 504 503 160
3 502 503 504
3 161 505 506
3 507 162 508
3 509 508 4
3 507 508 509
3 510 162 511
3 512 24 513
3 514 513 162
3 512 513 514
3 515 24 516
3 517 99 518
3 519 518 24
3 517 518 519
3 163 520 522
3 520 99 521
3 520 521 522
3 163 9 99
3 163 164 9
3 523 164 524
3 525 524 163
3 523 524 525
3 527 526 164
3 165 528 529
3 166 530 532
3 532 531 165
3 530 531 532
3 166 533 535
3 533 26 534
3 533 534 535
3 73 166 25
3 167 166 73
3 167 26 166
3 167 106 26
3 168 106 167
3 168 10 106
3 169 170 6
3 171 170 169
3 171 29 170
3 76 171 28
3 172 171 76
3 172 29 171
3 172 114 29
3 173 114 172
3 173 11 114
3 173 174 11
3 175 174 173
3 175 31 174
3 78 175 30
3 176 175 78
3 176 31 175
3 176 121 31
3 158 121 176
3 158 536 538
3 538 537 121
3 536 537 538
3 539 125 540
3 177 541 543
3 541 125 542
3 541 542 543
3 177 13 125
3 544 178 545
3 546 545 7
3 544 545 546
3 547 178 548
3 549 33 550
3 551 550 178
3 549 550 551
3 179 552 553
3 179 554 556
3 554 33 555
3 554 555 556
3 179 133 33
3 180 133 179
3 180 14 133
3 180 181 14
3 557 181 558
3 559 558 180
3 557 558 559
3 560 34 561
3 562 561 181
3 560 561 562
3 563 34 564
3 566 565 34
3 567 182 568
3 569 568 12
3 567 568 569
3 570 182 571
3 574 573 182
3 572 573 574
3 183 184 0
3 185 184 183
3 185 36 184
3 82 185 35
3 186 185 82
3 186 36 185
3 186 96 36
3 187 96 186
3 187 4 96
3 146 83 3
3 188 83 146
3 188 37 83
3 84 188 16
3 189 188 84
3 189 37 188
3 189 187 37
3 575 187 576
3 577 576 189
3 575 576 577
3 578 4 579
3 580 579 187
3 578 579 580
3 582 581 4
3 190 191 1
3 192 191 190
3 192 39 191
3 86 192 38
3 193 192 86
3 193 39 192
3 193 111 39
3 194 111 193
3 194 6 111
3 149 87 5
3 195 87 149
3 195 40 87
3 89 195 18
3 196 195 89
3 196 40 195
3 196 194 40
3 197 194 196
3 197 6 194
3 197 169 6
3 198 169 197
3 198 28 169
3 91 198 41
3 199 198 91
3 199 28 198
3 199 75 28
3 183 75 199
3 183 0 75
3 583 79 584
3 200 585 587
3 585 79 586
3 585 586 587
3 200 2 79
3 200 201 2
3 202 201 200
3 202 42 201
3 588 202 589
3 203 590 592
3 590 202 591
3 590 591 592
3 203 42 202
3 203 130 42
3 204 130 203
3 204 7 130
3 593 204 594
3 595 204 596
3 597 7 598
3 599 598 204
3 597 598 599
3 601 600 7
3 603 602 43
3 153 93 8
3 604 93 605
3 606 605 153
3 604 605 606
3 608 607 93
3 95 609 611
3 611 610 21
3 609 610 611
3 614 613 95
3 612 613 614
3 184 71 0
3 205 71 184
3 205 23 71
3 97 205 36
3 206 205 97
3 206 23 205
3 206 161 23
3 207 161 206
3 207 615 617
3 617 616 161
3 615 616 617
3 162 98 4
3 208 98 162
3 208 44 98
3 100 208 24
3 209 208 100
3 209 44 208
3 209 207 44
3 210 207 209
3 210 618 620
3 620 619 207
3 618 619 620
3 210 621 622
3 211 623 625
3 625 624 210
3 623 624 625
3 211 626 627
3 102 211 45
3 212 211 102
3 212 628 630
3 630 629 211
3 628 629 630
3 212 631 632
3 634 633 212
3 213 635 636
3 213 637 639
3 637 43 638
3 637 638 639
3 104 213 46
3 214 213 104
3 214 43 213
3 214 92 43
3 215 92 214
3 215 8 92
3 164 105 9
3 216 105 164
3 216 47 105
3 640 216 641
3 217 642 644
3 642 216 643
3 642 643 644
3 217 47 216
3 217 215 47
3 218 215 217
3 218 8 215
3 218 152 8
3 219 152 218
3 219 19 152
3 645 219 646
3 647 219 648
3 649 19 650
3 651 650 219
3 649 650 651
3 652 65 653
3 654 653 19
3 652 653 654
3 655 65 656
3 658 657 65
3 107 659 661
3 661 660 26
3 659 660 661
3 663 662 107
3 109 664 666
3 666 665 48
3 664 665 666
3 668 667 109
3 220 669 670
3 220 671 672
3 191 74 1
3 221 74 191
3 221 27 74
3 112 221 39
3 222 221 112
3 222 27 221
3 222 168 27
3 223 168 222
3 223 10 168
3 170 113 6
3 224 113 170
3 224 50 113
3 115 224 29
3 225 224 115
3 225 50 224
3 225 223 50
3 226 223 225
3 226 10 223
3 226 110 10
3 227 110 226
3 227 49 110
3 117 227 51
3 228 227 117
3 228 49 227
3 228 220 49
3 229 220 228
3 229 673 675
3 675 674 220
3 673 674 675
3 229 676 677
3 230 678 680
3 680 679 229
3 678 679 680
3 230 681 682
3 119 230 52
3 231 230 119
3 231 683 685
3 685 684 230
3 683 684 685
3 231 686 687
3 689 688 231
3 174 120 11
3 232 120 174
3 232 53 120
3 122 232 31
3 233 232 122
3 233 53 232
3 233 690 692
3 692 691 53
3 690 691 692
3 694 693 233
3 234 695 697
3 695 235 696
3 695 696 697
3 236 235 234
3 236 55 235
3 124 236 54
3 237 236 124
3 237 55 236
3 237 143 55
3 698 143 699
3 700 699 237
3 698 699 700
3 701 12 702
3 703 702 143
3 701 702 703
3 704 12 705
3 707 706 12
3 126 708 709
3 711 710 126
3 238 712 713
3 238 714 715
3 238 716 718
3 716 165 717
3 716 717 718
3 239 165 238
3 239 25 165
3 128 239 56
3 240 239 128
3 240 25 239
3 240 72 25
3 241 72 240
3 241 1 72
3 201 80 2
3 242 80 201
3 242 32 80
3 131 242 42
3 243 242 131
3 243 32 242
3 243 177 32
3 244 177 243
3 244 13 177
3 178 132 7
3 245 132 178
3 245 58 132
3 134 245 33
3 246 245 134
3 246 58 245
3 246 244 58
3 247 244 246
3 247 13 244
3 247 129 13
3 248 129 247
3 248 57 129
3 136 248 59
3 249 248 136
3 249 57 248
3 249 241 57
3 250 241 249
3 250 1 241
3 250 190 1
3 251 190 250
3 251 38 190
3 138 251 60
3 252 251 138
3 252 38 251
3 252 85 38
3 253 85 252
3 253 5 85
3 181 139 14
3 254 139 181
3 254 61 139
3 140 254 34
3 255 254 140
3 255 61 254
3 255 253 61
3 256 253 255
3 256 5 253
3 256 148 5
3 257 148 256
3 257 17 148
3 142 257 62
3 258 257 142
3 258 17 257
3 258 63 17
3 234 63 258
3 234 719 721
3 721 720 63
3 719 720 721
3 235 722 723
3 725 724 235
3 727 726 55
3 182 144 12
3 728 144 729
3 730 729 182
3 728 729 730
3 732 731 144
