ply
format ascii 1.0
element vertex 542
property float x
property float y
property float z
element face 504
property list uchar int vertex_index
end_header
-4.643549 25.224438 30.175343
-2.920248 40.487057 22.250427
-5.569643 -22.317596 33.733498
-5.001673 9.020395 36.435493
-3.710997 -39.185684 33.964436
-3.097223 -52.56292 25.354908
-6.477816 19.301109 28.459375
-6.116068 27.334583 24.710213
-1.441568 47.585472 18.319355
-4.083036 42.669525 16.306097
-2.306288 49.692497 12.117985
-2.988646 50.854851 5.759041
-4.963575 17.234436 33.629074
-6.503061 11.086462 31.652866
-5.878328 -29.899151 30.21048
-4.622152 -31.013332 34.01767
-4.683107 -38.297821 30.175673
-3.570173 -46.063583 29.821758
-4.461882 -45.303413 25.872234
-3.6024 -51.709614 21.26844
-3.984072 32.996925 26.295553
-5.745737 -6.07616 35.850246
-5.105898 -14.96637 36.88739
-6.477571 -13.383007 32.96701
-7.012548 -21.092251 29.745148
-5.348253 35.164963 20.590027
-3.376993 50.972878 -0.648504
-4.807924 0.550394 38.467796
-6.239523 2.637743 34.135883
-4.411882 -23.799725 37.438225
-1.818979 -58.3587 20.905294
-1.642012 -57.312771 16.778313
-1.145981 -55.917542 12.749779
-0.137772 -54.210735 8.94194
-5.596998 22.375511 29.34186
-6.342485 23.339352 26.642994
-5.387426 26.357864 27.474781
-1.88933 48.746414 15.242553
-1.284464 52.998787 10.155321
-3.90135 23.948807 32.813099
-4.094477 19.991531 34.530613
-4.842043 21.255604 31.970646
-5.72159 18.346008 31.082928
-5.942102 -33.65918 28.277409
-5.276674 -34.166733 30.24551
-5.28026 -37.833603 28.22789
-4.625612 -41.857262 28.078327
-5.182173 -41.401054 26.089001
-6.47389 -5.226227 33.756401
-6.134058 -9.658585 34.445854
-6.877771 -8.922199 32.35022
-3.505934 36.78392 24.276482
-4.677786 34.163765 23.471432
-4.157495 37.963623 21.393112
-4.599401 43.454647 13.25419
-1.837442 54.06395 3.707608
-3.224424 51.044044 2.551459
-2.038343 54.213432 0.476505
-4.280882 11.902742 37.492531
-4.28414 7.766451 38.692078
-4.930464 4.818178 37.550484
-5.504583 1.665401 36.349686
-5.652716 5.931749 35.317841
-5.356531 -18.591404 35.350121
-4.761045 -19.408924 37.211174
-4.946348 -23.022404 35.611694
-4.162298 -35.17878 34.025295
-4.132254 -31.618135 35.858734
-3.72658 -35.713852 35.874298
-3.399645 -49.38266 27.61327
-3.043707 -49.676773 29.603598
-2.821379 -52.868732 27.385078
-2.594572 -55.56493 23.09882
-2.786963 -54.617287 18.979067
-2.792166 -54.006989 16.924768
-1.446516 -56.658054 14.745887
-2.689886 -53.308281 14.886436
-2.228003 44.091564 20.252853
-3.516455 41.671902 19.305584
-2.755613 45.270691 17.243265
-3.251757 46.248703 14.181438
-3.69837 47.000771 11.072156
-4.074751 47.504349 7.923113
-2.677999 50.401276 8.953188
-1.5837 53.659081 6.93989
-4.219183 15.976868 36.099236
-5.014765 13.157726 35.12426
-5.743059 10.130753 34.089802
-5.768183 14.266537 32.672844
-6.529409 15.218899 30.13653
-5.746904 -26.102493 32.024963
-5.093611 -26.714981 33.925953
-5.206804 -30.444969 32.141624
-4.67375 -34.668175 32.154285
-4.158987 -38.743027 32.081696
-3.66271 -42.64967 31.944872
-4.113272 -42.268379 30.024647
-3.997339 -45.710648 27.860214
-3.765871 -49.027042 25.610716
-3.359705 -52.17915 23.317762
-4.140535 -48.597908 23.586277
-3.633238 27.848259 30.978634
-4.360441 29.140171 28.272995
-3.282721 31.685764 29.062735
-5.071104 -7.054069 37.849628
-4.806364 -11.477987 38.355461
-5.438013 -10.51084 36.442505
-5.756994 -14.124174 34.969479
-6.036413 -17.86025 33.421009
-6.77392 -17.20965 31.403709
-6.275862 -21.67725 31.785542
-6.464899 -25.527924 30.050074
-5.084372 30.290298 25.508577
-5.788702 31.280807 22.68441
-4.782438 38.96833 18.453808
-4.641748 -3.777655 39.197952
-5.30739 -2.666523 37.188801
-6.016729 -1.688023 35.086952
-6.764235 -0.849319 32.883434
-6.404295 6.895176 32.990059
-4.523222 -15.910081 38.734341
-4.536974 -27.377193 35.77557
-4.060537 -28.099115 37.587822
-3.173906 -46.377548 31.769855
-2.712206 -55.136272 21.038368
-1.759336 -57.879616 18.833906
0.254677 -59.118122 12.708153
0.73568 -58.346729 10.758186
-0.715401 -55.097519 10.808251
1.31666 -57.490803 8.878752
-5.593117 -37.584848 27.223779
-5.611181 -35.746392 28.252649
-5.924038 -35.497637 27.248539
-5.544073 -39.368574 26.154335
-5.231217 -39.617328 27.158445
-5.593117 -37.584848 27.223779
-5.455849 -41.144725 25.066461
-5.544073 -39.368574 26.154335
-7.051165 -6.714224 31.951641
-6.675831 -7.074213 33.05331
-6.849224 -4.866238 32.654731
-5.228876 41.90511 12.83187
-4.820333 43.728531 11.704313
-1.367423 55.686439 1.143516
-1.937892 54.138691 2.092056
-1.266973 55.611699 2.759067
-1.462371 55.750244 -0.479511
-1.367423 55.686439 1.143516
-3.508007 -39.413845 34.899237
-3.515798 -37.677929 35.854168
-3.718788 -37.449768 34.919367
-3.483107 -41.101887 33.908522
-3.508007 -39.413845 34.899237
-2.769556 -54.234982 25.258075
-2.631634 -54.387888 26.27316
-2.959301 -52.715826 26.369993
-2.845897 -54.063925 24.226864
-2.518231 -55.735986 24.130032
-2.769556 -54.234982 25.258075
-3.341164 -52.254395 17.031301
-3.293554 -52.578585 18.065433
-3.290024 -51.905041 16.012135
-2.741026 -53.657635 15.905602
-3.341164 -52.254395 17.031301
-6.838985 19.696226 27.106991
-6.871821 17.654621 27.984986
-6.582142 25.735287 24.290479
-6.69535 23.737671 25.25687
-6.229277 25.336968 25.676603
-6.458754 27.737316 23.294453
-6.582142 25.735287 24.290479
-0.913955 54.919556 7.635383
-1.434082 53.328934 8.547605
-0.764336 54.589409 9.243099
-1.032849 55.226388 6.00607
-0.913955 54.919556 7.635383
-6.871821 17.654621 27.984986
-6.897617 15.613516 28.823563
-6.503613 17.260004 29.297953
-2.931366 30.969972 30.416798
-3.457979 29.767011 30.020685
-3.106624 29.05122 31.374747
-3.106624 29.05122 31.374747
-3.270676 27.141577 32.301147
-6.893234 -19.150951 30.574428
-7.138046 -16.921535 30.340641
-7.25736 -18.862836 29.511361
-5.89789 33.629238 20.194043
-6.118114 31.68716 21.241234
-5.568478 33.222885 21.637218
-3.675015 49.298767 5.253122
-4.218067 47.623516 6.335159
-3.531699 49.1796 6.841077
-3.960512 49.341328 0.457488
-3.884228 49.376911 2.05747
-3.300708 51.008461 0.951477
-3.997038 49.193878 -1.126142
-3.960512 49.341328 0.457488
-3.411608 50.817204 -2.232481
-3.997038 49.193878 -1.126142
-4.470489 -0.071692 39.479668
-4.520598 2.058597 39.078972
-4.724836 -1.613631 38.832874
-4.387401 -2.235717 39.844746
-4.470489 -0.071692 39.479668
-4.320469 -22.057364 38.226099
-4.49505 -19.861963 38.112573
-4.586464 -21.604324 37.3247
-4.168867 -24.226579 38.327795
-4.320469 -22.057364 38.226099
-3.880453 -30.185006 37.630539
-4.096395 -29.858625 36.723278
-3.916311 -31.944516 36.765995
-3.834167 -28.492636 38.47414
-3.880453 -30.185006 37.630539
-2.859573 -49.80055 30.596546
-2.779896 -51.392219 29.508645
-1.361785 -59.866115 20.915336
-1.823404 -58.554949 21.947417
-1.263561 -59.644226 19.866845
-1.361785 -59.866115 20.915336
-1.047832 -58.859934 16.766734
-1.106494 -59.143356 17.794531
-1.700674 -57.596193 17.806109
-0.889467 -58.558453 15.745051
-1.047832 -58.859934 16.766734
-0.426586 -54.654127 9.875096
-1.365024 -53.392713 10.871878
-1.07621 -52.949321 9.938723
0.931674 -55.384018 8.014647
1.65889 -57.024052 7.983053
0.589444 -55.850769 8.910346
-1.238927 49.854866 15.863504
-1.665449 48.165943 16.780954
-1.015046 49.274395 17.401905
-1.41943 50.420299 14.291396
-1.238927 49.854866 15.863504
-1.627909 50.893341 12.729112
-2.097809 49.219456 13.680269
-1.41943 50.420299 14.291396
-1.116997 52.546486 11.747781
-1.795376 51.345642 11.136653
-1.627909 50.893341 12.729112
-0.63549 54.160034 10.863077
-1.116997 52.546486 11.747781
-0.764336 54.589409 9.243099
-0.63549 54.160034 10.863077
-3.997914 21.970169 33.671856
-3.629542 21.270025 34.958258
-3.532978 23.248663 34.099501
-5.059632 -43.115322 24.96723
-4.699486 -45.066502 24.858846
-4.822027 -43.352233 25.980618
-5.059632 -43.115322 24.96723
-5.455849 -41.144725 25.066461
-7.35429 -20.824191 28.67012
-7.25736 -18.862836 29.511361
-7.093744 -23.036741 28.862812
-7.35429 -20.824191 28.67012
-4.978859 41.614317 14.356429
-4.720676 41.221756 15.882383
-4.341219 43.062086 14.780144
-4.978859 41.614317 14.356429
-5.228876 41.90511 12.83187
-2.111187 54.167747 -1.127655
-2.780512 52.547471 -1.69016
-2.707668 52.593155 -0.085999
-2.111187 54.167747 -1.127655
-1.462371 55.750244 -0.479511
-3.918455 11.210782 38.633301
-3.882826 13.246064 37.991417
-3.920084 9.142637 39.233075
-3.918455 11.210782 38.633301
-4.282511 9.834596 38.092304
-3.927477 7.077183 39.773659
-3.920084 9.142637 39.233075
-4.258705 5.666625 39.191113
-3.927477 7.077183 39.773659
-4.581867 4.192488 38.620316
-4.258705 5.666625 39.191113
-4.607302 6.292314 38.121281
-4.869194 2.684286 38.00914
-4.520598 2.058597 39.078972
-4.581867 4.192488 38.620316
-6.831129 9.39435 31.106248
-6.876934 11.483975 30.385767
-3.713474 -33.992374 36.773777
-3.916311 -31.944516 36.765995
-3.929417 -33.665993 35.866516
-3.521166 -36.000017 36.788922
-3.713474 -33.992374 36.773777
-3.521166 -36.000017 36.788922
-3.515798 -37.677929 35.854168
-2.668732 -52.988199 28.399385
-2.779896 -51.392219 29.508645
-2.932543 -51.272752 28.494338
-2.531809 -54.518892 27.306455
-2.668732 -52.988199 28.399385
-2.531809 -54.518892 27.306455
-2.631634 -54.387888 26.27316
-2.2112 -57.158064 23.04418
-2.518231 -55.735986 24.130032
-2.206776 -56.961815 22.002057
-1.823404 -58.554949 21.947417
-2.2112 -57.158064 23.04418
-3.290953 -52.883734 19.092583
-3.194681 -53.16345 20.123753
-3.698671 -51.429898 20.237269
-2.789565 -54.312138 17.951918
-3.290953 -52.883734 19.092583
-3.293554 -52.578585 18.065433
-0.765012 -52.509107 9.005461
-1.07621 -52.949321 9.938723
0.227906 -53.744361 8.056016
-0.765012 -52.509107 9.005461
-6.77132 21.715348 26.198801
-6.838985 19.696226 27.106991
-6.410151 21.320231 27.551185
-6.77132 21.715348 26.198801
-6.69535 23.737671 25.25687
-4.369817 45.501593 10.613296
-4.820333 43.728531 11.704313
-4.148886 45.227709 12.163173
-3.88656 47.25256 9.497635
-4.558008 45.753382 9.038775
-4.369817 45.501593 10.613296
-1.15972 55.428822 4.389929
-1.710571 53.861515 5.323749
-1.032849 55.226388 6.00607
-1.266973 55.611699 2.759067
-1.15972 55.428822 4.389929
-3.724884 19.295463 35.774866
-3.629542 21.270025 34.958258
-3.787237 17.288132 36.559178
-3.724884 19.295463 35.774866
-4.15683 17.984199 35.314925
-3.851977 15.283127 37.29477
-3.787237 17.288132 36.559178
-4.250032 13.939805 36.795884
-3.882826 13.246064 37.991417
-3.851977 15.283127 37.29477
-6.890108 13.550194 29.627599
-6.876934 11.483975 30.385767
-6.516235 13.15268 30.894698
-6.890108 13.550194 29.627599
-6.897617 15.613516 28.823563
-4.538813 -46.713749 23.715868
-4.301208 -46.95066 24.729256
-4.699486 -45.066502 24.858846
-4.316723 -48.342455 22.559856
-4.538813 -46.713749 23.715868
-4.047655 -49.898308 21.400938
-3.871467 -50.153761 22.427358
-4.316723 -48.342455 22.559856
-3.698671 -51.429898 20.237269
-4.047655 -49.898308 21.400938
-2.728682 32.842703 29.466148
-2.931366 30.969972 30.416798
-3.062693 33.569626 28.082885
-2.728682 32.842703 29.466148
-3.413368 34.225206 26.699294
-3.633396 32.341344 27.679144
-3.062693 33.569626 28.082885
-3.1743 36.118704 25.689758
-3.745003 34.890422 25.286017
-3.413368 34.225206 26.699294
-2.907238 37.962477 24.707241
-3.1743 36.118704 25.689758
-2.614395 39.814045 23.694214
-3.213091 38.635489 23.263455
-2.907238 37.962477 24.707241
-2.301025 41.612331 22.727976
-2.614395 39.814045 23.694214
-1.954903 43.414585 21.72919
-2.574126 42.28931 21.25164
-2.301025 41.612331 22.727976
-1.600896 45.163057 20.79723
-1.954903 43.414585 21.72919
-1.207679 46.910011 19.830481
-1.834786 45.838518 19.286104
-1.600896 45.163057 20.79723
-0.825295 48.606739 18.949245
-1.207679 46.910011 19.830481
-1.015046 49.274395 17.401905
-0.825295 48.606739 18.949245
-3.404732 25.191851 33.21838
-3.532978 23.248663 34.099501
-3.767294 25.898533 31.895867
-3.404732 25.191851 33.21838
-3.270676 27.141577 32.301147
-4.938734 -9.266028 38.102545
-4.623401 -9.815449 39.05886
-4.755771 -7.60349 38.805944
-7.245842 -8.611111 31.243966
-7.051165 -6.714224 31.951641
-7.050896 -10.830743 31.605116
-7.245842 -8.611111 31.243966
-6.850796 -13.061147 31.913511
-6.677671 -11.152603 32.658615
-7.050896 -10.830743 31.605116
-6.99897 -14.974469 31.131861
-7.138046 -16.921535 30.340641
-6.625746 -15.296328 32.18536
-6.850796 -13.061147 31.913511
-6.99897 -14.974469 31.131861
-6.81992 -25.254577 29.015275
-6.738723 -23.310088 29.897611
-7.093744 -23.036741 28.862812
-6.524004 -27.445343 29.125976
-6.81992 -25.254577 29.015275
-6.230719 -29.630956 29.206179
-6.171613 -27.713538 30.130277
-6.524004 -27.445343 29.125976
-6.262606 -31.510971 28.239643
-5.910215 -31.779165 29.243944
-6.230719 -29.630956 29.206179
-6.271753 -33.396338 27.254694
-6.262606 -31.510971 28.239643
-5.924038 -35.497637 27.248539
-6.271753 -33.396338 27.254694
-6.29507 29.710428 22.281551
-6.458754 27.737316 23.294453
-5.952385 29.307695 23.697311
-6.29507 29.710428 22.281551
-6.118114 31.68716 21.241234
-5.070377 39.371158 16.956238
-4.432737 40.818928 17.379953
-4.720676 41.221756 15.882383
-5.376915 37.473663 18.051843
-5.070377 39.371158 16.956238
-5.659822 35.571979 19.119953
-5.065345 37.066647 19.521918
-5.376915 37.473663 18.051843
-5.89789 33.629238 20.194043
-5.659822 35.571979 19.119953
-4.729798 45.897604 7.469739
-4.558008 45.753382 9.038775
-4.729798 45.897604 7.469739
-4.218067 47.623516 6.335159
-3.792903 49.393363 3.649331
-3.675015 49.298767 5.253122
-3.106535 50.949447 4.15525
-3.792903 49.393363 3.649331
-3.884228 49.376911 2.05747
-3.411608 50.817204 -2.232481
-2.780512 52.547471 -1.69016
-4.315494 -4.392485 40.155758
-4.387401 -2.235717 39.844746
-4.541093 -5.965283 39.480106
-4.315494 -4.392485 40.155758
-4.856426 -5.415862 38.52379
-4.755771 -7.60349 38.805944
-4.541093 -5.965283 39.480106
-6.994397 -2.677784 32.218248
-6.849224 -4.866238 32.654731
-6.619063 -3.037773 33.319918
-6.781746 7.298707 31.774845
-6.453678 8.990819 32.321463
-6.831129 9.39435 31.106248
-6.699738 5.177913 32.403872
-6.781746 7.298707 31.774845
-6.617351 3.049197 32.976783
-6.321909 4.766459 33.562971
-6.699738 5.177913 32.403872
-6.879708 1.305666 32.350559
-6.501879 0.894212 33.509659
-6.617351 3.049197 32.976783
-7.136567 -0.501122 31.724226
-6.879708 1.305666 32.350559
-6.994397 -2.677784 32.218248
-7.136567 -0.501122 31.724226
-4.509445 -12.01585 39.272396
-4.623401 -9.815449 39.05886
-4.367874 -14.231897 39.461836
-4.509445 -12.01585 39.272396
-4.664793 -13.694034 38.544901
-4.244116 -16.430121 39.622141
-4.367874 -14.231897 39.461836
-4.376138 -18.112541 38.874157
-4.642133 -17.659502 37.972758
-4.49505 -19.861963 38.112573
-4.244116 -16.430121 39.622141
-4.376138 -18.112541 38.874157
-3.993194 -26.376274 38.402594
-4.168867 -24.226579 38.327795
-4.23621 -25.94942 37.513024
-3.993194 -26.376274 38.402594
-3.834167 -28.492636 38.47414
-3.458964 -42.83388 32.89874
-3.483107 -41.101887 33.908522
-3.686853 -40.917677 32.954654
-3.214562 -44.697818 32.811231
-3.458964 -42.83388 32.89874
-3.418308 -44.513609 31.857363
-2.975341 -46.523634 32.741113
-3.214562 -44.697818 32.811231
-2.924673 -48.150938 31.679674
-3.108807 -48.02716 30.686726
-2.859573 -49.80055 30.596546
-2.975341 -46.523634 32.741113
-2.924673 -48.150938 31.679674
-1.233739 -59.404684 18.831151
-1.263561 -59.644226 19.866845
-1.789157 -58.119158 19.8696
-1.233739 -59.404684 18.831151
-1.106494 -59.143356 17.794531
-0.791718 -58.231094 14.728838
-0.889467 -58.558453 15.745051
-1.544264 -56.985412 15.7621
0.058878 -59.461128 13.709971
-0.791718 -58.231094 14.728838
-0.595919 -57.888088 13.72702
0.988445 -60.617452 12.753984
0.058878 -59.461128 13.709971
1.269729 -60.266437 11.7664
0.988445 -60.617452 12.753984
1.510231 -59.880741 10.791417
1.269729 -60.266437 11.7664
0.495178 -58.732426 11.733169
1.821943 -59.48377 9.837685
1.510231 -59.880741 10.791417
-3.262924 -51.540362 14.983221
-3.290024 -51.905041 16.012135
-2.565492 -52.919058 13.884396
-3.262924 -51.540362 14.983221
-1.79354 -54.223688 12.816067
-1.917933 -54.612911 13.818107
-2.565492 -52.919058 13.884396
-1.57825 -53.813677 11.845303
-1.365024 -53.392713 10.871878
-0.930691 -55.507531 11.779015
-1.79354 -54.223688 12.816067
-1.57825 -53.813677 11.845303
2.112433 -59.055807 8.897968
1.821943 -59.48377 9.837685
1.02617 -57.918766 9.818469
2.452926 -58.609379 7.985397
2.112433 -59.055807 8.897968
2.452926 -58.609379 7.985397
1.65889 -57.024052 7.983053
0.931674 -55.384018 8.014647
0.227906 -53.744361 8.056016
3 0 36 34
3 0 41 39
3 0 34 41
3 130 45 131
3 132 131 43
3 130 131 132
3 133 47 134
3 135 134 45
3 133 134 135
3 137 136 47
3 138 50 139
3 140 139 48
3 138 139 140
3 1 53 51
3 142 141 54
3 143 57 144
3 145 144 55
3 143 144 145
3 147 146 57
3 3 59 58
3 3 60 59
3 3 62 60
3 2 65 63
3 4 68 66
3 4 148 150
3 150 149 68
3 148 149 150
3 4 151 152
3 5 71 69
3 5 153 155
3 155 154 71
3 153 154 155
3 5 156 158
3 156 72 157
3 156 157 158
3 159 74 160
3 161 76 162
3 163 162 74
3 161 162 163
3 6 164 165
3 7 166 168
3 168 167 35
3 166 167 168
3 7 169 170
3 8 79 77
3 10 80 37
3 10 81 80
3 10 83 81
3 171 84 172
3 173 172 38
3 171 172 173
3 175 174 84
3 12 85 40
3 12 86 85
3 12 88 86
3 6 89 42
3 6 176 178
3 178 177 89
3 176 177 178
3 14 92 90
3 16 93 44
3 16 94 93
3 16 96 94
3 18 97 46
3 18 98 97
3 18 100 98
3 179 103 180
3 181 180 101
3 179 180 181
3 182 101 183
3 21 106 104
3 23 107 49
3 23 108 107
3 24 184 186
3 184 109 185
3 184 185 186
3 24 110 109
3 24 111 110
3 20 112 102
3 25 113 52
3 25 187 189
3 189 188 113
3 187 188 189
3 9 114 78
3 11 190 192
3 192 191 82
3 190 191 192
3 26 193 195
3 195 194 56
3 193 194 195
3 26 196 197
3 26 198 199
3 27 200 201
3 27 202 204
3 202 115 203
3 202 203 204
3 27 116 115
3 28 117 61
3 28 118 117
3 13 119 87
3 22 120 105
3 29 205 207
3 207 206 64
3 205 206 207
3 29 208 209
3 15 121 91
3 210 122 211
3 212 211 67
3 210 211 212
3 214 213 122
3 17 123 95
3 216 215 70
3 30 217 218
3 30 219 220
3 19 124 99
3 31 125 73
3 31 221 223
3 223 222 125
3 221 222 223
3 31 224 225
3 32 126 75
3 32 127 126
3 33 226 228
3 226 128 227
3 226 227 228
3 33 129 128
3 33 229 231
3 231 230 129
3 229 230 231
3 34 35 6
3 36 35 34
3 36 7 35
3 232 37 233
3 234 233 8
3 232 233 234
3 235 37 236
3 237 10 238
3 239 238 37
3 237 238 239
3 240 38 241
3 242 241 10
3 240 241 242
3 243 38 244
3 246 245 38
3 39 247 249
3 247 40 248
3 247 248 249
3 41 40 39
3 41 12 40
3 41 42 12
3 34 42 41
3 34 6 42
3 43 44 14
3 45 44 43
3 45 16 44
3 45 46 16
3 47 46 45
3 47 18 46
3 47 250 252
3 252 251 18
3 250 251 252
3 254 253 47
3 48 49 21
3 50 49 48
3 50 23 49
3 255 24 256
3 258 257 24
3 51 52 20
3 53 52 51
3 53 25 52
3 54 259 261
3 261 260 9
3 259 260 261
3 263 262 54
3 55 56 11
3 57 56 55
3 57 26 56
3 57 264 266
3 266 265 26
3 264 265 266
3 268 267 57
3 58 269 270
3 59 271 273
3 273 272 58
3 271 272 273
3 59 274 275
3 59 276 277
3 60 278 280
3 280 279 59
3 278 279 280
3 60 281 283
3 281 27 282
3 281 282 283
3 60 61 27
3 62 61 60
3 62 28 61
3 285 284 13
3 63 64 22
3 65 64 63
3 65 29 64
3 66 67 15
3 68 67 66
3 68 286 288
3 288 287 67
3 286 287 288
3 68 289 290
3 292 291 68
3 69 70 17
3 71 70 69
3 71 293 295
3 295 294 70
3 293 294 295
3 71 296 297
3 299 298 71
3 72 300 301
3 72 302 304
3 302 30 303
3 302 303 304
3 305 73 306
3 307 306 19
3 305 306 307
3 74 308 310
3 308 73 309
3 308 309 310
3 74 31 73
3 74 75 31
3 76 75 74
3 76 32 75
3 311 33 312
3 314 313 33
3 35 315 317
3 317 316 6
3 315 316 317
3 319 318 35
3 77 78 1
3 79 78 77
3 79 9 78
3 37 79 8
3 80 79 37
3 80 9 79
3 80 54 9
3 81 54 80
3 81 320 322
3 322 321 54
3 320 321 322
3 81 323 325
3 323 82 324
3 323 324 325
3 83 82 81
3 83 11 82
3 38 83 10
3 84 83 38
3 84 11 83
3 84 55 11
3 326 55 327
3 328 327 84
3 326 327 328
3 330 329 55
3 40 331 332
3 85 333 335
3 335 334 40
3 333 334 335
3 85 336 337
3 85 338 340
3 338 58 339
3 338 339 340
3 86 58 85
3 86 3 58
3 86 87 3
3 88 87 86
3 88 13 87
3 42 88 12
3 89 88 42
3 89 13 88
3 89 341 343
3 343 342 13
3 341 342 343
3 345 344 89
3 90 91 2
3 92 91 90
3 92 15 91
3 44 92 14
3 93 92 44
3 93 15 92
3 93 66 15
3 94 66 93
3 94 4 66
3 94 95 4
3 96 95 94
3 96 17 95
3 46 96 16
3 97 96 46
3 97 17 96
3 97 69 17
3 98 69 97
3 98 5 69
3 98 99 5
3 100 99 98
3 100 19 99
3 346 100 347
3 348 347 18
3 346 347 348
3 349 100 350
3 351 19 352
3 353 352 100
3 351 352 353
3 355 354 19
3 101 102 0
3 103 102 101
3 103 20 102
3 356 103 357
3 358 103 359
3 360 20 361
3 362 361 103
3 360 361 362
3 363 51 364
3 365 364 20
3 363 364 365
3 366 51 367
3 368 1 369
3 370 369 51
3 368 369 370
3 371 1 372
3 373 77 374
3 375 374 1
3 373 374 375
3 376 77 377
3 378 8 379
3 380 379 77
3 378 379 380
3 381 8 382
3 384 383 8
3 385 39 386
3 101 387 389
3 387 39 388
3 387 388 389
3 101 0 39
3 104 390 392
3 390 105 391
3 390 391 392
3 106 105 104
3 106 22 105
3 49 106 21
3 107 106 49
3 107 22 106
3 107 63 22
3 108 63 107
3 108 2 63
3 393 50 394
3 395 50 396
3 397 23 398
3 399 398 50
3 397 398 399
3 109 400 401
3 109 402 404
3 402 23 403
3 402 403 404
3 109 108 23
3 110 108 109
3 110 2 108
3 110 90 2
3 111 90 110
3 111 14 90
3 405 111 406
3 407 406 24
3 405 406 407
3 408 111 409
3 410 14 411
3 412 411 111
3 410 411 412
3 413 43 414
3 415 414 14
3 413 414 415
3 416 43 417
3 419 418 43
3 102 36 0
3 112 36 102
3 112 7 36
3 52 112 20
3 113 112 52
3 113 7 112
3 113 420 422
3 422 421 7
3 420 421 422
3 424 423 113
3 78 53 1
3 114 53 78
3 114 25 53
3 425 114 426
3 427 426 9
3 425 426 427
3 428 114 429
3 430 25 431
3 432 431 114
3 430 431 432
3 434 433 25
3 82 435 436
3 438 437 82
3 56 439 441
3 441 440 11
3 439 440 441
3 443 442 56
3 445 444 26
3 115 446 447
3 115 448 449
3 115 450 452
3 450 104 451
3 450 451 452
3 116 104 115
3 116 21 104
3 61 116 27
3 117 116 61
3 117 21 116
3 117 48 21
3 118 48 117
3 118 453 455
3 455 454 48
3 453 454 455
3 87 62 3
3 119 62 87
3 119 28 62
3 456 119 457
3 458 457 13
3 456 457 458
3 459 119 460
3 461 28 462
3 463 462 119
3 461 462 463
3 464 118 465
3 466 465 28
3 464 465 466
3 467 118 468
3 470 469 118
3 105 471 472
3 120 473 475
3 475 474 105
3 473 474 475
3 120 476 477
3 64 120 22
3 478 120 479
3 480 479 64
3 478 479 480
3 482 481 120
3 91 65 2
3 121 65 91
3 121 29 65
3 67 121 15
3 122 121 67
3 122 29 121
3 122 483 485
3 485 484 29
3 483 484 485
3 487 486 122
3 95 488 490
3 490 489 4
3 488 489 490
3 123 491 493
3 493 492 95
3 491 492 493
3 123 494 495
3 70 123 17
3 496 123 497
3 498 497 70
3 496 497 498
3 500 499 123
3 99 72 5
3 124 72 99
3 124 30 72
3 73 124 19
3 125 124 73
3 125 30 124
3 125 501 503
3 503 502 30
3 501 502 503
3 505 504 125
3 75 506 508
3 508 507 31
3 506 507 508
3 126 509 511
3 511 510 75
3 509 510 511
3 126 512 513
3 126 514 515
3 127 516 518
3 518 517 126
3 516 517 518
3 127 519 520
3 521 76 522
3 523 76 524
3 525 32 526
3 527 526 76
3 525 526 527
3 128 528 529
3 128 530 532
3 530 32 531
3 530 531 532
3 128 127 32
3 129 127 128
3 129 533 535
3 535 534 127
3 533 534 535
3 129 536 537
3 539 538 129
3 541 540 33
