ply
format ascii 1.0
element vertex 730
property float x
property float y
property float z
element face 831
property list uchar int vertex_index
end_header
46.127853 -7.662731 54.712303
21.809494 -25.920544 77.703697
7.276403 -39.232185 87.989426
37.243225 -24.777103 66.05764
58.054901 -6.176364 38.924961
51.377678 -7.044213 45.806515
54.099701 -13.066685 47.26701
46.452023 -14.676192 52.602982
32.360081 -32.076004 73.212608
22.424137 -32.624474 76.771568
12.976614 -32.602272 81.969574
4.965395 -31.416882 87.585426
40.808754 -16.210903 59.916786
29.922634 -25.976713 71.371696
65.229988 -6.698997 33.957001
44.519409 -21.862654 61.553848
63.198608 1.128195 31.983908
48.566063 -7.428116 50.080666
48.481895 -11.004391 48.84996
45.492466 -11.511497 52.760834
49.488037 -3.415765 52.546547
51.998051 -3.222055 47.808472
21.515581 -29.518311 76.319527
17.581911 -32.681232 79.138184
17.070717 -29.331982 79.40126
39.41766 -12.805782 66.150124
25.944431 -26.069271 74.425255
26.060244 -29.505713 73.664604
61.710403 -6.153815 36.267662
59.599289 -9.421154 40.547737
52.99865 -16.057346 52.064995
39.034752 -20.555462 62.888962
41.92025 -19.441851 59.774475
40.813141 -23.475561 63.753265
57.533897 -2.531191 39.055077
60.229912 1.456619 36.172394
60.712139 -2.455576 35.372002
64.079971 -2.947977 32.227051
17.67498 -25.432322 81.066208
54.560383 -6.558615 42.07605
55.759415 -9.772485 42.852219
51.972431 -10.378533 45.560928
50.155891 -13.840148 49.710983
49.081669 -17.02603 54.428528
35.03772 -28.657616 69.518356
39.346733 -27.46789 67.772949
37.178192 -31.211039 71.629646
54.64558 -2.88179 43.236679
19.188843 -35.494217 80.270432
14.301031 -35.69104 82.516678
9.697006 -35.835228 85.070488
12.848686 -28.823334 82.721664
8.727449 -32.242161 84.991203
5.534178 -35.755024 87.510277
43.9795 -7.865468 59.383141
43.104195 -11.910221 57.156342
41.201832 -12.307315 61.738861
38.783382 -16.880148 64.042519
36.391045 -21.40415 66.242027
33.667934 -25.593773 68.581589
30.592945 -29.277893 71.428734
27.389969 -32.467865 74.850685
57.951881 -12.546091 45.072647
43.29715 -15.474652 56.030495
45.287613 -18.206722 56.962059
43.477024 -25.765564 65.956062
66.266815 -0.075745 28.353424
67.284409 -4.212481 29.667625
47.302757 -7.559752 52.369331
46.939869 -9.489521 51.350861
45.67646 -9.648007 53.583115
46.63937 -5.610596 55.953056
47.811737 -5.539137 53.607773
49.023438 -5.452621 51.247673
21.528648 -27.773939 76.813354
19.272837 -29.455557 77.812523
19.380592 -27.648119 78.444908
24.287825 -24.139515 77.124985
26.278667 -24.207764 75.442513
23.887537 -26.028301 76.041389
23.690083 -27.835394 75.257385
9.429066 -39.028198 86.901794
59.877197 -6.105158 37.543381
60.602875 -7.794695 38.375408
58.720901 -7.847017 39.558609
52.550934 -17.512667 54.499252
38.17387 -22.696136 64.443199
39.744129 -22.115053 63.067017
39.017708 -24.181576 64.883698
57.667648 -4.396601 38.752075
59.088177 -2.43931 37.147926
59.367825 -4.316869 37.113777
61.118229 -4.350797 35.606266
52.924873 -6.803998 43.867783
53.184967 -8.507596 43.74263
51.465488 -8.791595 45.416981
47.346199 -12.87257 50.635643
49.100342 -12.521448 49.018333
48.252373 -14.258938 51.092056
49.543869 -15.450846 52.018539
47.615788 -15.938371 53.322868
33.751923 -30.426067 71.354355
36.081745 -29.981159 70.547829
34.799797 -31.715652 72.430641
51.614296 -5.172217 46.652603
53.297688 -3.066645 45.484856
53.011154 -4.975589 44.486687
54.484238 -4.760957 42.440529
23.265629 -34.005203 77.539459
21.700129 -35.402733 79.292023
20.753967 -34.076252 78.515686
15.242311 -32.666195 80.504395
15.858736 -34.192505 80.798576
13.503807 -34.222866 82.106544
11.954687 -35.778481 83.772316
11.231539 -34.213116 83.493111
15.195067 -27.127552 81.813873
13.189638 -26.688686 83.449142
8.706999 -30.129425 85.325607
6.776217 -31.898872 86.38961
7.005733 -33.981144 86.258255
5.092426 -33.707691 87.462578
3.679726 -35.561081 88.466164
42.95034 -8.011724 61.618835
42.539665 -10.067677 60.556412
41.610519 -10.254151 62.819717
38.134552 -15.145956 67.207214
39.071404 -14.859805 65.088989
37.804855 -17.18796 66.109741
37.61174 -19.166479 65.146973
30.057627 -24.148506 72.119736
31.815758 -24.027348 70.497749
33.485046 -23.83465 68.911827
31.823824 -25.830147 69.942795
32.162319 -27.50206 69.925568
30.091436 -27.692707 71.126503
24.197025 -31.108351 75.130348
26.592993 -31.044586 74.058426
24.898573 -32.562931 75.76368
25.801462 -33.919346 76.65036
54.846786 -11.463203 44.998749
56.801228 -11.191536 43.864285
56.055603 -12.76075 46.153305
41.865334 -14.050834 58.503204
42.98933 -13.782253 56.365807
41.974495 -15.850835 57.927589
43.091221 -20.738636 60.481239
43.539734 -18.828226 58.329704
44.895638 -20.005196 59.2565
46.777252 -19.287033 58.061226
46.427422 -21.04141 60.445419
40.56205 -28.636909 68.894775
41.437443 -26.664696 66.890205
42.680538 -27.770208 67.975349
61.686966 1.383793 34.022079
64.19873 2.767113 30.282345
65.68837 2.100618 28.271671
64.740402 0.650681 30.083345
64.625343 -4.869088 32.949326
65.735939 -3.475372 30.868301
66.272758 -5.391932 31.788717
49.923992 -7.256316 47.883606
49.842266 -9.06006 47.24752
48.330086 -9.295003 49.23037
46.914597 -11.275493 50.731842
45.729675 -13.199556 52.406624
30.880041 -33.618069 75.024422
33.380081 -33.340652 74.224907
50.732887 -3.337238 50.175446
50.287659 -5.332918 48.916481
21.818264 -31.135448 76.315659
19.980629 -32.664013 77.892929
19.47057 -31.129374 77.623329
17.168598 -31.082672 79.05217
14.927119 -30.980171 80.585243
40.660179 -10.489514 64.979088
28.208483 -24.208113 73.770531
27.960827 -26.052505 72.866814
27.984627 -27.799648 72.412979
25.847191 -27.843636 73.789429
23.783106 -29.533615 74.936302
63.512291 -6.346219 35.077946
64.201294 -8.097267 36.166065
62.444443 -7.871947 37.253483
61.455063 -9.414222 39.471127
60.560486 -10.94645 41.722549
53.49696 -14.589584 49.635704
55.43055 -14.257945 48.510719
54.887794 -15.700594 50.900375
39.888279 -18.384914 61.381393
41.142555 -17.932272 59.578133
40.426285 -20.024649 61.296227
41.376003 -21.453135 61.748253
42.645302 -22.689035 62.649742
57.536469 -0.628527 39.761299
58.834263 1.395824 38.415665
58.961136 -0.515026 37.616875
60.455078 -0.499884 35.582905
62.014076 -0.627287 33.671547
63.618393 -0.934984 31.896507
62.387627 -2.61541 33.73053
62.886459 -4.527224 34.220795
22.260727 -23.987247 78.800255
19.731688 -25.729061 79.390434
20.223354 -23.729399 80.43985
5.254108 -39.387711 88.918884
56.275215 -6.338317 40.431076
56.8368 -8.003616 40.8311
54.982666 -8.234541 42.218739
53.843445 -10.059367 44.142609
52.887493 -11.794628 46.218178
50.17598 -10.70103 47.12645
50.959599 -12.155943 47.550617
52.119576 -13.435398 48.443672
51.520168 -14.99485 50.796753
51.048492 -16.505758 53.234619
50.647209 -18.016405 55.697998
36.202892 -26.771032 67.747589
38.185856 -26.19779 66.743217
37.211697 -28.137871 68.638275
38.35725 -29.383043 69.739868
39.470097 -30.554964 70.77285
35.817806 -32.937569 73.38868
54.861069 -0.969513 44.323441
56.17429 -0.794136 42.002701
56.054398 -2.691833 41.087978
56.036865 -4.556543 40.527237
17.730053 -36.918934 81.940712
18.280376 -34.139774 79.599052
16.717743 -35.592041 81.344025
15.291819 -37.060387 83.031967
12.907627 -37.214493 84.195648
10.595459 -37.367325 85.403702
8.376982 -37.497765 86.603043
17.263828 -27.439856 80.126015
14.924575 -29.128487 81.054619
12.760427 -30.801998 82.185066
10.856647 -28.394299 84.332848
10.682343 -30.525957 83.791702
10.799845 -32.46867 83.488297
9.059195 -34.140961 84.903252
7.548897 -35.836792 86.345467
6.277842 -37.5783 87.717285
4.32757 -37.577309 88.653954
45.027756 -7.756781 57.065796
44.535442 -9.784113 55.891113
43.50008 -9.917106 58.2313
42.110104 -12.101385 59.446732
40.872406 -14.31551 60.697418
40.325024 -12.539835 63.987076
39.961788 -14.583557 62.90654
39.763172 -16.554255 61.966667
38.729599 -18.798546 63.245987
37.706028 -21.018171 64.542137
36.632248 -23.178368 65.878204
35.081257 -23.555988 67.369568
35.467754 -25.247389 67.287697
34.197739 -27.202244 68.802971
32.829716 -29.030914 70.44104
31.383955 -30.732498 72.191109
28.333731 -29.426964 72.498772
28.99301 -30.928173 73.084961
29.883087 -32.316006 74.009247
28.345932 -33.799858 75.822029
57.689075 -9.549517 41.664001
58.716454 -11.010079 42.783169
57.285141 -14.024773 47.396637
44.224136 -11.718797 54.913696
44.274315 -13.501163 54.323387
44.791931 -15.082764 54.250481
42.533081 -17.450302 57.858131
44.080311 -16.949892 56.237984
45.782036 -16.442179 54.726326
47.146378 -17.599289 55.665581
48.707756 -18.615271 56.880348
40.155163 -25.489367 65.768387
42.116871 -24.67169 64.797333
44.071686 -23.786776 63.802208
67.128746 1.147825 26.450563
67.710678 -1.0662 26.833563
65.228981 -1.452036 30.275421
66.785812 -2.198523 28.831348
68.210091 -3.186859 27.593338
7.868187 -40.014799 88.082748
8.944518 -39.912806 87.538932
8.352735 -39.130192 87.44561
53.19619 -18.042611 55.032123
52.321293 -18.26048 55.6861
13.444941 -25.559604 83.812717
14.424083 -25.847887 83.0653
5.870806 -31.657877 86.987518
6.813192 -30.745126 86.542465
5.90778 -30.504131 87.140373
4.154364 -32.357012 88.00058
4.21788 -33.502416 87.939155
5.028911 -32.562286 87.524002
41.75515 -9.234063 63.276035
42.280429 -9.132938 62.219276
42.42506 -8.112849 62.675594
37.283756 -17.332504 67.123317
37.969704 -16.166958 66.658478
37.448605 -16.311502 67.672054
37.139528 -18.336993 66.584285
37.283756 -17.332504 67.123317
42.42506 -8.112849 62.675594
43.050315 -6.994874 62.039344
65.526955 -7.588998 34.524132
66.015541 -6.958489 33.425953
42.166075 -28.76609 68.89899
41.621294 -28.203558 68.435062
41.106831 -29.199441 69.358703
62.956121 2.148619 32.208652
62.2003 2.276418 33.227737
62.442787 1.255994 33.002994
63.698669 1.947654 31.133126
63.456182 2.968078 31.35787
62.956121 2.148619 32.208652
66.015541 -6.958489 33.425953
66.536926 -6.304956 32.341811
65.751373 -6.045464 32.872859
31.361832 -34.243456 75.440197
30.105412 -34.346423 75.865116
49.618881 -2.383462 53.17688
48.868416 -3.444602 53.712284
50.264824 -2.361424 52.014557
49.618881 -2.383462 53.17688
50.110462 -3.376501 51.360996
50.887249 -2.32216 50.829007
50.264824 -2.361424 52.014557
21.490322 -22.868169 80.15173
21.242041 -23.858323 79.620053
22.509009 -22.997093 79.331932
22.509009 -22.997093 79.331932
23.512876 -23.094751 78.537606
4.867789 -40.334855 89.388939
4.325774 -39.423677 89.257595
35.057329 -33.749813 74.171368
34.598943 -33.139111 73.806793
33.838466 -33.951355 74.589482
52.788954 -2.172233 47.253929
52.155344 -2.228686 48.453602
19.698091 -36.145363 80.598843
20.953734 -36.099621 80.109639
20.444486 -35.448475 79.781227
18.459448 -36.206575 81.105572
18.968697 -36.857721 81.433983
19.698091 -36.145363 80.598843
9.909684 -28.107365 85.069535
11.059587 -27.247982 84.646786
3.119254 -36.512011 88.891125
2.847269 -35.395356 88.791145
26.294581 -34.56592 77.094787
25.019745 -34.616484 77.520493
44.733923 -6.778317 58.810608
44.157227 -6.835854 59.901337
44.503628 -7.811125 58.224469
45.258051 -6.723974 57.651936
44.733923 -6.778317 58.810608
64.52858 -8.967369 36.740706
63.710556 -8.823241 37.284425
58.855726 -12.497796 44.533907
59.238012 -11.72979 43.389168
58.334167 -11.778085 43.927908
56.983019 -14.740346 48.559838
56.357845 -14.141359 47.953678
56.055723 -14.856931 49.116878
48.527804 -19.441869 58.092918
47.742504 -18.951152 57.470787
47.562551 -19.77775 58.683357
49.478108 -19.098114 57.499305
48.527804 -19.441869 58.092918
60.04876 2.401455 36.592895
59.350935 2.371058 37.714531
59.532088 1.426222 37.294029
67.962437 -4.690319 29.158348
68.425278 -4.177507 28.121204
67.74725 -3.69967 28.630482
47.444083 -4.542017 55.415538
46.819281 -4.5723 56.539135
48.030266 -4.506288 54.242897
47.444083 -4.542017 55.415538
47.225554 -5.574867 54.780414
48.649887 -4.477451 53.07716
48.868416 -3.444602 53.712284
48.030266 -4.506288 54.242897
25.283246 -24.17364 76.283749
26.503434 -23.250274 76.032898
25.508013 -23.21615 76.874134
10.02846 -39.769703 86.98611
10.555079 -38.917505 86.321498
10.02846 -39.769703 86.98611
8.944518 -39.912806 87.538932
53.463991 -17.317922 53.885548
53.687849 -16.590261 52.668419
52.774792 -16.785007 53.282123
53.463991 -17.317922 53.885548
53.19619 -18.042611 55.032123
22.482879 -34.703968 78.415741
22.969079 -35.358177 78.841324
23.751829 -34.659413 77.965042
15.426797 -26.06732 82.247666
16.435023 -26.279937 81.440041
16.666754 -25.219705 81.873833
14.192353 -26.908119 82.631507
15.426797 -26.06732 82.247666
14.424083 -25.847887 83.0653
7.778582 -29.860402 86.010464
8.83486 -28.974928 85.565914
7.741608 -31.014149 85.857608
7.778582 -29.860402 86.010464
6.813192 -30.745126 86.542465
3.51153 -34.429112 88.440949
4.386076 -34.634386 87.964371
4.21788 -33.502416 87.939155
2.847269 -35.395356 88.791145
3.51153 -34.429112 88.440949
37.04297 -19.326253 66.102902
37.708298 -18.177219 65.628357
37.139528 -18.336993 66.584285
36.432623 -20.445089 66.650429
37.001392 -20.285314 65.6945
37.04297 -19.326253 66.102902
31.061902 -23.136623 71.794536
30.229298 -23.195051 72.664395
31.940967 -23.076045 70.983543
31.061902 -23.136623 71.794536
30.936692 -24.087927 71.308742
32.711827 -22.988893 70.109013
31.940967 -23.076045 70.983543
32.650402 -23.930999 69.704788
33.54647 -22.892544 69.316052
32.711827 -22.988893 70.109013
23.751829 -34.659413 77.965042
25.019745 -34.616484 77.520493
24.533546 -33.962274 77.094909
43.642646 -6.908982 61.019184
43.050315 -6.994874 62.039344
43.46492 -7.938596 60.500988
44.157227 -6.835854 59.901337
43.642646 -6.908982 61.019184
47.387636 -20.654939 59.875454
47.562551 -19.77775 58.683357
46.602337 -20.164222 59.253322
61.476215 2.364167 34.354124
60.747688 2.40058 35.429282
60.958439 1.420206 35.097236
61.476215 2.364167 34.354124
62.2003 2.276418 33.227737
63.841949 3.788957 30.536095
63.456182 2.968078 31.35787
64.581062 3.506493 29.413599
63.841949 3.788957 30.536095
64.94355 2.433866 29.277008
65.325882 3.173245 28.408262
64.581062 3.506493 29.413599
67.013175 -5.7469 31.267493
67.519001 -5.157175 30.206947
66.778583 -4.802207 30.728171
67.013175 -5.7469 31.267493
66.536926 -6.304956 32.341811
32.611852 -34.104748 75.040439
32.130061 -33.47936 74.624664
31.361832 -34.243456 75.440197
33.838466 -33.951355 74.589482
32.611852 -34.104748 75.040439
51.522762 -2.286278 49.637089
50.887249 -2.32216 50.829007
51.365469 -3.279647 48.991959
52.155344 -2.228686 48.453602
51.522762 -2.286278 49.637089
5.047951 -30.155959 87.697456
5.90778 -30.504131 87.140373
4.141293 -31.098238 88.034942
5.047951 -30.155959 87.697456
40.722099 -9.486329 65.335266
41.279979 -9.351744 64.355721
40.147222 -10.634384 65.989834
40.722099 -9.486329 65.335266
39.525963 -11.792518 66.575352
40.038919 -11.647648 65.564606
40.147222 -10.634384 65.989834
38.918274 -12.955748 67.172379
39.525963 -11.792518 66.575352
38.27672 -14.125834 67.700923
38.776106 -13.975869 66.678669
38.918274 -12.955748 67.172379
37.612221 -15.292883 68.218971
38.27672 -14.125834 67.700923
37.448605 -16.311502 67.672054
37.612221 -15.292883 68.218971
27.447231 -23.254122 75.186341
26.503434 -23.250274 76.032898
28.412139 -23.254297 74.350349
27.447231 -23.254122 75.186341
27.243575 -24.207939 74.606522
29.304726 -23.224854 73.489792
28.412139 -23.254297 74.350349
29.133055 -24.17831 72.945133
30.229298 -23.195051 72.664395
29.304726 -23.224854 73.489792
62.83213 -8.710581 37.828135
63.710556 -8.823241 37.284425
63.322868 -7.984607 36.709774
62.33744 -9.481719 38.936957
62.83213 -8.710581 37.828135
61.949753 -8.643085 38.362305
61.87952 -10.218361 40.061053
62.33744 -9.481719 38.936957
61.432232 -10.984475 41.186763
61.87952 -10.218361 40.061053
61.007774 -10.180336 40.596838
61.008388 -11.719621 42.307893
61.432232 -10.984475 41.186763
55.784346 -15.578256 50.311706
56.055723 -14.856931 49.116878
55.159172 -14.97927 49.705547
54.632421 -16.411886 52.086109
53.943222 -15.87897 51.482685
53.687849 -16.590261 52.668419
55.490486 -16.282698 51.453941
54.632421 -16.411886 52.086109
55.784346 -15.578256 50.311706
55.490486 -16.282698 51.453941
58.185366 0.383649 39.088482
58.164137 1.325727 39.575737
57.51524 0.313552 40.248554
20.479709 -22.70545 80.898545
21.490322 -22.868169 80.15173
19.211861 -23.535589 81.221588
20.479709 -22.70545 80.898545
17.937674 -24.38705 81.534767
18.949167 -24.580861 80.753029
19.211861 -23.535589 81.221588
16.666754 -25.219705 81.873833
17.937674 -24.38705 81.534767
24.526426 -23.170885 77.699971
25.508013 -23.21615 76.874134
23.274276 -24.063381 77.96262
24.526426 -23.170885 77.699971
23.512876 -23.094751 78.537606
5.826584 -40.226792 89.027344
6.837732 -40.149029 88.562614
6.265256 -39.309948 88.454155
5.826584 -40.226792 89.027344
4.867789 -40.334855 89.388939
51.36943 -18.512349 56.285473
52.321293 -18.26048 55.6861
51.599071 -17.764536 55.098625
40.560854 -30.158468 70.297741
41.106831 -29.199441 69.358703
40.016074 -29.595937 69.833812
36.2374 -33.533139 73.676487
35.057329 -33.749813 74.171368
36.990057 -32.664198 72.934002
36.2374 -33.533139 73.676487
37.67025 -31.800933 72.054485
36.497999 -32.074304 72.509163
36.990057 -32.664198 72.934002
38.816203 -31.472895 71.626087
38.324145 -30.883001 71.201248
37.67025 -31.800933 72.054485
39.926716 -31.128189 71.116741
38.816203 -31.472895 71.626087
40.560854 -30.158468 70.297741
39.926716 -31.128189 71.116741
53.438772 -2.094529 46.092122
52.788954 -2.172233 47.253929
52.647869 -3.14435 46.646664
54.220463 -1.045962 45.511414
53.438772 -2.094529 46.092122
54.079379 -2.018079 44.904149
54.890076 -0.016786 44.928871
54.220463 -1.045962 45.511414
55.528061 0.059351 43.719672
54.890076 -0.016786 44.928871
56.184672 0.147039 42.559302
55.528061 0.059351 43.719672
55.517679 -0.881825 43.163071
56.83415 0.230747 41.369255
56.184672 0.147039 42.559302
56.855379 -0.711332 40.882
57.51524 0.313552 40.248554
56.83415 0.230747 41.369255
22.205241 -36.047058 79.635651
22.969079 -35.358177 78.841324
22.205241 -36.047058 79.635651
20.953734 -36.099621 80.109639
18.264693 -37.577319 82.153916
18.968697 -36.857721 81.433983
17.057432 -37.65898 82.692009
18.264693 -37.577319 82.153916
15.838315 -37.729706 83.237637
17.057432 -37.65898 82.692009
16.510936 -36.98966 82.486339
14.64921 -37.826138 83.803066
15.838315 -37.729706 83.237637
13.457114 -37.90319 84.384906
14.64921 -37.826138 83.803066
14.099723 -37.13744 83.613808
12.294359 -38.010652 84.968425
13.457114 -37.90319 84.384906
11.138275 -38.087069 85.572452
12.294359 -38.010652 84.968425
11.751543 -37.290909 84.799675
10.012263 -38.197761 86.152748
10.555079 -38.917505 86.321498
11.138275 -38.087069 85.572452
12.226083 -26.395176 84.204933
13.444941 -25.559604 83.812717
12.023143 -27.541493 83.890995
12.226083 -26.395176 84.204933
11.059587 -27.247982 84.646786
9.781823 -29.261862 84.829228
9.909684 -28.107365 85.069535
8.83486 -28.974928 85.565914
3.862505 -38.518476 89.12513
4.325774 -39.423677 89.257595
4.790839 -38.48251 88.786419
3.443175 -37.520125 88.98502
4.003648 -36.569195 88.560059
3.119254 -36.512011 88.891125
3.862505 -38.518476 89.12513
3.443175 -37.520125 88.98502
4.154364 -32.357012 88.00058
4.141293 -31.098238 88.034942
41.135349 -10.371833 63.899403
41.75515 -9.234063 63.276035
41.279979 -9.351744 64.355721
35.715258 -21.558554 67.107624
36.432623 -20.445089 66.650429
34.262259 -22.773805 68.442524
33.54647 -22.892544 69.316052
35.060364 -22.634473 67.671394
34.262259 -22.773805 68.442524
34.283152 -23.695319 68.140698
35.736151 -22.480069 66.805797
35.715258 -21.558554 67.107624
35.060364 -22.634473 67.671394
28.838358 -34.437317 76.26392
30.105412 -34.346423 75.865116
29.612986 -33.708963 75.423226
27.566816 -34.506176 76.680622
27.073697 -33.859602 76.236195
26.294581 -34.56592 77.094787
28.838358 -34.437317 76.26392
27.566816 -34.506176 76.680622
46.063858 -5.650882 57.095565
46.819281 -4.5723 56.539135
45.833563 -6.683689 56.509426
46.063858 -5.650882 57.095565
45.258051 -6.723974 57.651936
7.868187 -40.014799 88.082748
6.837732 -40.149029 88.562614
65.012608 -8.288134 35.628664
65.526955 -7.588998 34.524132
64.715641 -7.398132 35.061533
65.012608 -8.288134 35.628664
64.52858 -8.967369 36.740706
60.160028 -11.697976 42.858858
59.63847 -10.978264 42.252859
59.238012 -11.72979 43.389168
61.008388 -11.719621 42.307893
60.160028 -11.697976 42.858858
57.820343 -14.683723 47.957482
56.983019 -14.740346 48.559838
58.160019 -13.969378 46.833225
57.820343 -14.683723 47.957482
58.493389 -13.230037 45.671231
57.618511 -13.285432 46.234642
58.160019 -13.969378 46.833225
58.855726 -12.497796 44.533907
58.493389 -13.230037 45.671231
50.447834 -18.79868 56.90813
49.677482 -18.315838 56.289173
49.478108 -19.098114 57.499305
51.36943 -18.512349 56.285473
50.447834 -18.79868 56.90813
43.191551 -28.319341 68.359722
42.166075 -28.76609 68.89899
43.689521 -27.30001 67.461067
43.191551 -28.319341 68.359722
44.087764 -26.297688 66.451424
43.078781 -26.767886 66.965705
43.689521 -27.30001 67.461067
44.466566 -25.294184 65.447227
44.087764 -26.297688 66.451424
44.763897 -24.304789 64.3703
43.774355 -24.77617 64.879135
44.466566 -25.294184 65.447227
45.04212 -23.336488 63.279136
44.763897 -24.304789 64.3703
45.265982 -22.374427 62.154956
44.295547 -22.824715 62.678028
45.04212 -23.336488 63.279136
46.219988 -21.963805 61.600742
45.473416 -21.452032 60.999634
45.265982 -22.374427 62.154956
47.175499 -21.532382 61.040688
46.219988 -21.963805 61.600742
47.387636 -20.654939 59.875454
47.175499 -21.532382 61.040688
58.676592 2.316057 38.906076
58.164137 1.325727 39.575737
58.676592 2.316057 38.906076
59.350935 2.371058 37.714531
60.04876 2.401455 36.592895
60.747688 2.40058 35.429282
66.048638 2.739165 27.359453
65.325882 3.173245 28.408262
66.768826 2.262768 26.448899
66.048638 2.739165 27.359453
66.408558 1.624221 27.361117
67.443725 1.6705 25.506522
66.768826 2.262768 26.448899
67.787312 0.525155 25.662239
67.443725 1.6705 25.506522
68.078277 -0.581858 25.853739
67.787312 0.525155 25.662239
67.419712 0.040813 26.642063
68.349117 -1.696111 26.199664
68.078277 -0.581858 25.853739
68.598824 -2.75644 26.579552
68.349117 -1.696111 26.199664
67.960385 -2.12653 27.213451
68.810833 -3.805875 27.094479
68.598824 -2.75644 26.579552
68.810833 -3.805875 27.094479
68.425278 -4.177507 28.121204
67.962437 -4.690319 29.158348
67.519001 -5.157175 30.206947
3 0 70 68
3 0 72 71
3 0 68 72
3 1 76 74
3 1 79 77
3 1 74 79
3 2 283 285
3 285 284 81
3 283 284 285
3 4 84 82
3 287 286 85
3 3 88 86
3 4 91 89
3 4 82 91
3 5 95 93
3 7 98 96
3 7 100 98
3 8 103 101
3 5 106 104
3 5 93 106
3 9 110 108
3 10 113 111
3 10 115 113
3 288 117 289
3 11 290 292
3 290 119 291
3 290 291 292
3 11 121 119
3 11 293 295
3 295 294 121
3 293 294 295
3 296 125 297
3 298 297 123
3 296 297 298
3 299 128 300
3 301 300 126
3 299 300 301
3 303 302 128
3 13 131 130
3 13 133 131
3 13 135 133
3 9 138 136
3 9 108 138
3 304 123 305
3 14 306 307
3 6 142 140
3 12 145 143
3 15 148 146
3 15 150 148
3 308 153 309
3 310 309 151
3 308 309 310
3 16 311 313
3 313 312 154
3 311 312 313
3 16 314 316
3 314 155 315
3 314 315 316
3 16 157 155
3 14 160 158
3 14 317 319
3 319 318 160
3 317 318 319
3 17 163 161
3 19 164 69
3 19 165 164
3 321 320 166
3 20 322 323
3 20 324 325
3 20 326 328
3 326 168 327
3 326 327 328
3 17 169 73
3 17 161 169
3 22 172 170
3 24 173 75
3 24 174 173
3 26 176 78
3 26 177 176
3 26 179 177
3 22 180 80
3 22 170 180
3 28 183 181
3 29 184 83
3 29 185 184
3 30 188 186
3 31 191 189
3 33 192 87
3 33 193 192
3 34 196 194
3 36 197 90
3 36 198 197
3 36 200 198
3 28 201 92
3 28 181 201
3 329 204 330
3 331 330 202
3 329 330 331
3 332 202 333
3 335 334 205
3 39 208 206
3 41 209 94
3 41 210 209
3 18 211 162
3 42 212 97
3 42 213 212
3 42 214 213
3 43 215 99
3 43 216 215
3 44 219 217
3 46 220 102
3 46 221 220
3 336 222 337
3 338 337 167
3 336 337 338
3 21 339 340
3 47 223 105
3 47 224 223
3 47 225 224
3 39 226 107
3 39 206 226
3 48 341 343
3 343 342 109
3 341 342 343
3 48 344 346
3 344 227 345
3 344 345 346
3 23 228 171
3 49 229 112
3 49 230 229
3 49 231 230
3 50 232 114
3 50 233 232
3 38 234 203
3 51 235 116
3 51 236 235
3 347 237 348
3 52 238 118
3 52 239 238
3 52 240 239
3 53 241 120
3 53 242 241
3 53 243 242
3 350 349 122
3 54 246 244
3 56 247 124
3 56 248 247
3 25 249 175
3 57 250 127
3 57 251 250
3 57 252 251
3 58 253 129
3 58 254 253
3 59 255 132
3 59 256 255
3 59 257 256
3 60 258 134
3 60 259 258
3 27 260 178
3 61 261 137
3 61 262 261
3 61 263 262
3 352 351 139
3 54 353 354
3 54 355 357
3 355 244 356
3 355 356 357
3 359 358 182
3 40 264 207
3 62 265 141
3 62 360 362
3 362 361 265
3 360 361 362
3 363 266 364
3 365 364 187
3 363 364 365
3 55 267 245
3 63 268 144
3 63 269 268
3 32 270 190
3 64 271 147
3 64 272 271
3 64 273 272
3 366 274 367
3 368 367 149
3 366 367 368
3 370 369 274
3 45 275 218
3 65 276 152
3 65 277 276
3 35 371 373
3 373 372 195
3 371 372 373
3 66 278 156
3 66 279 278
3 37 280 199
3 67 281 159
3 67 282 281
3 67 374 376
3 376 375 282
3 374 375 376
3 68 69 17
3 70 69 68
3 70 19 69
3 71 377 378
3 72 379 381
3 381 380 71
3 379 380 381
3 72 382 384
3 382 20 383
3 382 383 384
3 72 73 20
3 68 73 72
3 68 17 73
3 74 75 22
3 76 75 74
3 76 24 75
3 77 385 387
3 385 78 386
3 385 386 387
3 79 78 77
3 79 26 78
3 79 80 26
3 74 80 79
3 74 22 80
3 81 388 389
3 391 390 81
3 82 83 28
3 84 83 82
3 84 29 83
3 85 392 394
3 394 393 30
3 392 393 394
3 396 395 85
3 86 87 31
3 88 87 86
3 88 33 87
3 89 90 34
3 91 90 89
3 91 36 90
3 91 92 36
3 82 92 91
3 82 28 92
3 93 94 39
3 95 94 93
3 95 41 94
3 96 97 18
3 98 97 96
3 98 42 97
3 98 99 42
3 100 99 98
3 100 43 99
3 101 102 44
3 103 102 101
3 103 46 102
3 104 105 21
3 106 105 104
3 106 47 105
3 106 107 47
3 93 107 106
3 93 39 107
3 108 397 399
3 397 109 398
3 397 398 399
3 110 109 108
3 110 48 109
3 111 112 23
3 113 112 111
3 113 49 112
3 113 114 49
3 115 114 113
3 115 50 114
3 400 116 401
3 402 401 38
3 400 401 402
3 117 403 405
3 403 116 404
3 403 404 405
3 117 51 116
3 406 118 407
3 119 408 410
3 408 118 409
3 408 409 410
3 119 52 118
3 119 120 52
3 121 120 119
3 121 53 120
3 121 122 53
3 411 122 412
3 413 412 121
3 411 412 413
3 415 414 122
3 123 124 54
3 125 124 123
3 125 56 124
3 126 127 25
3 128 127 126
3 128 57 127
3 128 129 57
3 416 129 417
3 418 417 128
3 416 417 418
3 419 58 420
3 421 420 129
3 419 420 421
3 130 422 423
3 131 424 426
3 426 425 130
3 424 425 426
3 131 427 428
3 131 429 431
3 429 132 430
3 429 430 431
3 133 132 131
3 133 59 132
3 133 134 59
3 135 134 133
3 135 60 134
3 136 137 27
3 138 137 136
3 138 61 137
3 138 139 61
3 108 139 138
3 108 432 434
3 434 433 139
3 432 433 434
3 123 435 436
3 123 437 439
3 437 54 438
3 437 438 439
3 140 141 40
3 142 141 140
3 142 62 141
3 143 144 55
3 145 144 143
3 145 63 144
3 146 147 32
3 148 147 146
3 148 64 147
3 148 149 64
3 150 149 148
3 150 440 442
3 442 441 149
3 440 441 442
3 151 152 45
3 153 152 151
3 153 65 152
3 154 443 445
3 445 444 35
3 443 444 445
3 447 446 154
3 155 448 449
3 155 450 451
3 155 452 454
3 452 156 453
3 452 453 454
3 157 156 155
3 157 66 156
3 158 159 37
3 160 159 158
3 160 67 159
3 160 455 457
3 457 456 67
3 455 456 457
3 459 458 160
3 161 162 5
3 163 162 161
3 163 18 162
3 69 163 17
3 164 163 69
3 164 18 163
3 164 96 18
3 165 96 164
3 165 7 96
3 166 167 8
3 460 167 461
3 462 461 166
3 460 461 462
3 464 463 167
3 168 465 466
3 168 467 469
3 467 21 468
3 467 468 469
3 73 168 20
3 169 168 73
3 169 21 168
3 169 104 21
3 161 104 169
3 161 5 104
3 170 171 9
3 172 171 170
3 172 23 171
3 75 172 22
3 173 172 75
3 173 23 172
3 173 111 23
3 174 111 173
3 174 10 111
3 470 11 471
3 473 472 11
3 474 175 475
3 476 175 477
3 478 25 479
3 480 479 175
3 478 479 480
3 481 25 482
3 483 126 484
3 485 484 25
3 483 484 485
3 486 126 487
3 489 488 126
3 78 490 491
3 176 492 494
3 494 493 78
3 492 493 494
3 176 495 496
3 176 497 499
3 497 130 498
3 497 498 499
3 177 130 176
3 177 13 130
3 177 178 13
3 179 178 177
3 179 27 178
3 80 179 26
3 180 179 80
3 180 27 179
3 180 136 27
3 170 136 180
3 170 9 136
3 181 182 14
3 183 182 181
3 183 500 502
3 502 501 182
3 500 501 502
3 83 183 28
3 184 183 83
3 184 503 505
3 505 504 183
3 503 504 505
3 184 506 507
3 185 508 510
3 510 509 184
3 508 509 510
3 185 511 512
3 186 187 6
3 188 187 186
3 188 513 515
3 515 514 187
3 513 514 515
3 516 188 517
3 518 517 30
3 516 517 518
3 519 188 520
3 522 521 188
3 189 190 12
3 191 190 189
3 191 32 190
3 87 191 31
3 192 191 87
3 192 32 191
3 192 146 32
3 193 146 192
3 193 15 146
3 194 523 525
3 523 195 524
3 523 524 525
3 196 195 194
3 196 35 195
3 90 196 34
3 197 196 90
3 197 35 196
3 197 154 35
3 198 154 197
3 198 16 154
3 198 199 16
3 200 199 198
3 200 37 199
3 92 200 36
3 201 200 92
3 201 37 200
3 201 158 37
3 181 158 201
3 181 14 158
3 202 203 1
3 204 203 202
3 204 38 203
3 526 204 527
3 528 204 529
3 530 38 531
3 532 531 204
3 530 531 532
3 534 533 38
3 535 77 536
3 202 537 539
3 537 77 538
3 537 538 539
3 202 1 77
3 205 540 542
3 542 541 2
3 540 541 542
3 544 543 205
3 206 207 4
3 208 207 206
3 208 40 207
3 94 208 39
3 209 208 94
3 209 40 208
3 209 140 40
3 210 140 209
3 210 6 140
3 162 95 5
3 211 95 162
3 211 41 95
3 97 211 18
3 212 211 97
3 212 41 211
3 212 210 41
3 213 210 212
3 213 6 210
3 213 186 6
3 214 186 213
3 214 30 186
3 99 214 42
3 215 214 99
3 215 30 214
3 215 85 30
3 216 85 215
3 216 545 547
3 547 546 85
3 545 546 547
3 217 218 3
3 219 218 217
3 219 45 218
3 102 219 44
3 220 219 102
3 220 45 219
3 220 151 45
3 221 151 220
3 221 548 550
3 550 549 151
3 548 549 550
3 167 103 8
3 222 103 167
3 222 46 103
3 551 222 552
3 553 222 554
3 555 46 556
3 557 556 222
3 555 556 557
3 558 221 559
3 560 559 46
3 558 559 560
3 561 221 562
3 564 563 221
3 105 565 567
3 567 566 21
3 565 566 567
3 223 568 570
3 570 569 105
3 568 569 570
3 223 571 572
3 223 573 574
3 224 575 577
3 577 576 223
3 575 576 577
3 224 578 579
3 224 580 582
3 580 194 581
3 580 581 582
3 225 194 224
3 225 34 194
3 107 225 47
3 226 225 107
3 226 34 225
3 226 89 34
3 206 89 226
3 206 4 89
3 109 583 584
3 586 585 109
3 227 587 588
3 227 589 590
3 171 110 9
3 228 110 171
3 228 48 110
3 112 228 23
3 229 228 112
3 229 48 228
3 229 227 48
3 230 227 229
3 230 591 593
3 593 592 227
3 591 592 593
3 230 594 595
3 231 596 598
3 598 597 230
3 596 597 598
3 231 599 600
3 114 231 49
3 232 231 114
3 232 601 603
3 603 602 231
3 601 602 603
3 232 604 606
3 604 81 605
3 604 605 606
3 233 81 232
3 233 2 81
3 203 76 1
3 234 76 203
3 234 24 76
3 116 234 38
3 235 234 116
3 235 24 234
3 235 174 24
3 236 174 235
3 236 10 174
3 607 117 608
3 237 609 611
3 609 117 610
3 609 610 611
3 237 51 117
3 118 612 614
3 612 237 613
3 612 613 614
3 238 237 118
3 238 51 237
3 238 236 51
3 239 236 238
3 239 10 236
3 239 115 10
3 240 115 239
3 240 50 115
3 120 240 52
3 241 240 120
3 241 50 240
3 241 233 50
3 242 233 241
3 242 2 233
3 242 205 2
3 243 205 242
3 243 615 617
3 617 616 205
3 615 616 617
3 122 243 53
3 618 243 619
3 620 619 122
3 618 619 620
3 622 621 243
3 624 623 11
3 244 245 0
3 246 245 244
3 246 55 245
3 124 246 54
3 247 246 124
3 247 55 246
3 247 143 55
3 248 143 247
3 248 12 143
3 175 625 627
3 625 125 626
3 625 626 627
3 249 125 175
3 249 56 125
3 127 249 25
3 250 249 127
3 250 56 249
3 250 248 56
3 251 248 250
3 251 12 248
3 251 189 12
3 252 189 251
3 252 31 189
3 129 252 57
3 253 252 129
3 253 31 252
3 253 86 31
3 254 86 253
3 254 3 86
3 628 58 629
3 132 630 631
3 255 632 634
3 634 633 132
3 632 633 634
3 255 635 637
3 635 58 636
3 635 636 637
3 255 254 58
3 256 254 255
3 256 3 254
3 256 217 3
3 257 217 256
3 257 44 217
3 134 257 59
3 258 257 134
3 258 44 257
3 258 101 44
3 259 101 258
3 259 8 101
3 178 135 13
3 260 135 178
3 260 60 135
3 137 260 27
3 261 260 137
3 261 60 260
3 261 259 60
3 262 259 261
3 262 8 259
3 262 166 8
3 263 166 262
3 263 638 640
3 640 639 166
3 638 639 640
3 139 263 61
3 641 263 642
3 643 642 139
3 641 642 643
3 645 644 263
3 646 71 647
3 244 648 650
3 648 71 649
3 648 649 650
3 244 0 71
3 652 651 2
3 182 653 655
3 655 654 14
3 653 654 655
3 657 656 182
3 207 84 4
3 264 84 207
3 264 29 84
3 141 264 40
3 265 264 141
3 265 29 264
3 265 185 29
3 658 185 659
3 660 659 265
3 658 659 660
3 662 661 185
3 187 142 6
3 266 142 187
3 266 62 142
3 663 266 664
3 665 266 666
3 667 62 668
3 669 668 266
3 667 668 669
3 671 670 62
3 245 70 0
3 267 70 245
3 267 19 70
3 144 267 55
3 268 267 144
3 268 19 267
3 268 165 19
3 269 165 268
3 269 7 165
3 190 145 12
3 270 145 190
3 270 63 145
3 147 270 32
3 271 270 147
3 271 63 270
3 271 269 63
3 272 269 271
3 272 7 269
3 272 100 7
3 273 100 272
3 273 43 100
3 149 273 64
3 274 273 149
3 274 43 273
3 274 216 43
3 672 216 673
3 674 673 274
3 672 673 674
3 676 675 216
3 218 88 3
3 275 88 218
3 275 33 88
3 152 275 45
3 276 275 152
3 276 33 275
3 276 193 33
3 277 193 276
3 277 15 193
3 677 153 678
3 679 153 680
3 681 65 682
3 683 682 153
3 681 682 683
3 684 65 685
3 686 277 687
3 688 687 65
3 686 687 688
3 689 277 690
3 691 15 692
3 693 692 277
3 691 692 693
3 694 150 695
3 696 695 15
3 694 695 696
3 697 150 698
3 700 699 150
3 195 701 702
3 704 703 195
3 706 705 35
3 156 707 708
3 278 709 711
3 711 710 156
3 709 710 711
3 278 712 713
3 278 714 715
3 279 716 718
3 718 717 278
3 716 717 718
3 279 719 720
3 199 157 16
3 280 157 199
3 280 66 157
3 159 280 37
3 281 280 159
3 281 66 280
3 281 279 66
3 282 279 281
3 282 721 723
3 723 722 279
3 721 722 723
3 282 724 725
3 727 726 282
3 729 728 67
