ply
format ascii 1.0
element vertex 191
property float x
property float y
property float z
element face 180
property list uchar int vertex_index
end_header
49.892799 -87.475082 2.170938
55.240547 -79.566299 -5.69832
49.567024 -92.42482 -7.603529
54.375294 -81.548691 -14.390783
51.810539 -81.98848 2.691777
55.095173 -78.526535 -1.392099
52.177193 -83.911346 -1.836981
51.63961 -87.362144 -11.018845
50.008488 -90.02417 -2.681318
49.423531 -84.910576 7.063951
52.118458 -85.714287 -6.394754
54.975708 -80.574326 -10.058662
50.754669 -84.645645 2.480586
52.035942 -82.965668 0.422511
50.945103 -85.783905 0.141811
55.223221 -79.060402 -3.541334
57.008537 -76.490784 -3.360943
49.85495 -91.253365 -5.132071
50.980904 -87.984596 -4.552181
50.809254 -89.028427 -6.931192
52.928925 -84.525276 -12.700314
53.23262 -83.901627 -10.469025
54.718044 -81.077332 -12.242447
56.647728 -77.763428 -11.914331
56.335648 -78.128052 -14.041643
54.86866 -77.939781 0.765172
53.347019 -80.347221 0.619023
53.529636 -81.112465 -1.57938
53.611202 -81.840637 -3.777777
49.158516 -93.510147 -10.077465
50.525715 -90.011536 -9.3258
50.138718 -90.90654 -11.708748
51.258469 -88.075165 -13.301624
52.528503 -85.072433 -14.876753
56.821198 -76.144272 -1.240736
49.126953 -90.419571 1.739603
50.017899 -88.759232 -0.251217
49.143524 -91.827736 -0.772554
50.504971 -83.494141 4.838979
49.672092 -86.186508 4.603586
48.755901 -87.627518 6.79162
48.979023 -89.013359 4.255242
51.02726 -86.899345 -2.196898
52.205917 -84.827209 -4.105391
53.582561 -82.545403 -5.990969
51.925919 -86.565559 -8.704834
53.451996 -83.234428 -8.224236
55.153198 -80.067535 -7.871649
53.924629 -81.949478 -16.458067
56.158085 -78.180225 -5.590711
56.149422 -77.927277 -4.512218
55.231884 -79.31335 -4.619827
56.133896 -78.329159 -6.657812
56.158085 -78.180225 -5.590711
52.578779 -81.167851 1.6554
53.221407 -79.94128 1.727802
52.453167 -80.76191 2.76418
49.386074 -92.69183 -12.111628
49.648617 -92.208344 -10.893107
48.895973 -93.993633 -11.295986
51.011032 -88.373482 -14.401523
50.449896 -89.878525 -13.667395
51.64605 -86.872116 -15.189087
51.893486 -86.573799 -14.089189
51.011032 -88.373482 -14.401523
57.943653 -75.298508 -3.281859
58.013179 -75.354058 -4.334497
48.731123 -92.619282 0.202672
49.135238 -91.123654 0.483525
48.722837 -91.915199 1.45875
49.964251 -84.202359 5.951465
50.386263 -82.919731 6.0361
49.845543 -83.627949 7.148587
48.456101 -89.031948 6.592216
48.360384 -88.317875 7.914811
48.567661 -89.724868 5.324027
48.867462 -88.320438 5.523431
48.456101 -89.031948 6.592216
48.638056 -90.461433 4.01625
48.567661 -89.724868 5.324027
55.927578 -78.993439 -9.911664
56.016323 -78.740044 -8.818157
55.064453 -80.320931 -8.965155
57.671948 -76.181557 -11.797821
57.524079 -76.294376 -12.857491
53.627707 -82.094773 -17.424507
52.963453 -83.728424 -16.701284
57.04208 -76.642468 -4.422023
56.115879 -77.775593 -3.451138
56.149422 -77.927277 -4.512218
58.013179 -75.354058 -4.334497
57.04208 -76.642468 -4.422023
49.327461 -84.289315 8.313149
49.845543 -83.627949 7.148587
57.368038 -76.476688 -13.921146
57.524079 -76.294376 -12.857491
56.491688 -77.94574 -12.977987
53.982228 -78.73756 1.800877
54.722435 -77.612304 1.85701
54.107839 -79.143501 0.692098
53.982228 -78.73756 1.800877
53.221407 -79.94128 1.727802
49.89002 -91.294213 -12.870957
49.386074 -92.69183 -12.111628
50.698594 -89.490853 -12.505186
49.89002 -91.294213 -12.870957
50.449896 -89.878525 -13.667395
55.697784 -76.830528 0.829062
54.722435 -77.612304 1.85701
56.674053 -75.932773 -0.173893
55.697784 -76.830528 0.829062
55.844929 -77.042026 -0.237782
57.71096 -75.035897 -1.168529
56.674053 -75.932773 -0.173893
57.849984 -75.125252 -2.221756
56.914867 -76.317528 -2.300839
57.943653 -75.298508 -3.281859
57.71096 -75.035897 -1.168529
57.849984 -75.125252 -2.221756
48.662706 -93.373848 -1.096952
48.731123 -92.619282 0.202672
49.07365 -92.522599 -2.034771
48.662706 -93.373848 -1.096952
49.506132 -91.620815 -2.989153
49.576006 -90.925953 -1.726936
49.07365 -92.522599 -2.034771
49.429364 -92.235413 -4.214529
49.931719 -90.638768 -3.906694
49.506132 -91.620815 -2.989153
49.281864 -92.908539 -5.486308
49.429364 -92.235413 -4.214529
49.137901 -93.494267 -6.722036
49.710987 -91.839092 -6.3678
49.281864 -92.908539 -5.486308
48.919712 -94.130295 -7.998868
49.137901 -93.494267 -6.722036
48.715458 -94.672958 -9.235836
49.36277 -92.967484 -8.840497
48.919712 -94.130295 -7.998868
48.432316 -95.254544 -10.502793
48.715458 -94.672958 -9.235836
48.895973 -93.993633 -11.295986
48.432316 -95.254544 -10.502793
51.682378 -81.486702 3.840974
52.453167 -80.76191 2.76418
51.029595 -82.239532 4.914575
50.386263 -82.919731 6.0361
51.157755 -82.74131 3.765378
51.682378 -81.486702 3.840974
51.029595 -82.239532 4.914575
48.981159 -85.595776 8.212419
49.327461 -84.289315 8.313149
48.647345 -86.954246 8.076254
48.360384 -88.317875 7.914811
49.089716 -86.269047 6.927786
48.981159 -85.595776 8.212419
48.647345 -86.954246 8.076254
48.712021 -91.16454 2.75843
49.052988 -89.716465 2.997422
48.638056 -90.461433 4.01625
48.722837 -91.915199 1.45875
48.712021 -91.16454 2.75843
56.090221 -78.579777 -7.744476
56.133896 -78.329159 -6.657812
55.196872 -79.816917 -6.784985
56.090221 -78.579777 -7.744476
56.016323 -78.740044 -8.818157
56.763588 -77.58799 -10.839499
55.927578 -78.993439 -9.911664
55.811718 -79.168877 -10.986497
56.763588 -77.58799 -10.839499
57.671948 -76.181557 -11.797821
52.26539 -85.289901 -15.910628
51.64605 -86.872116 -15.189087
53.226566 -83.510955 -15.66741
52.26539 -85.289901 -15.910628
52.963453 -83.728424 -16.701284
54.660927 -80.346466 -17.262467
53.627707 -82.094773 -17.424507
54.926731 -80.209751 -16.283272
54.660927 -80.346466 -17.262467
55.152063 -80.009357 -15.24963
54.149962 -81.749085 -15.424425
54.926731 -80.209751 -16.283272
56.13224 -78.299038 -15.07506
55.355471 -79.838371 -14.216213
55.152063 -80.009357 -15.24963
57.176014 -76.603004 -14.958592
56.13224 -78.299038 -15.07506
57.368038 -76.476688 -13.921146
57.176014 -76.603004 -14.958592
3 0 14 12
3 1 49 51
3 51 50 15
3 49 50 51
3 1 52 53
3 2 19 17
3 3 22 20
3 3 24 22
3 4 54 56
3 54 26 55
3 54 55 56
3 6 27 13
3 6 28 27
3 57 31 58
3 59 58 29
3 57 58 59
3 60 32 61
3 62 33 63
3 64 63 32
3 62 63 64
3 5 34 25
3 66 65 16
3 67 37 68
3 69 68 35
3 67 68 69
3 9 70 72
3 70 38 71
3 70 71 72
3 9 39 38
3 73 40 74
3 75 41 76
3 77 76 40
3 75 76 77
3 79 78 41
3 8 42 36
3 10 43 18
3 10 44 43
3 7 45 30
3 11 46 21
3 11 47 46
3 11 80 82
3 82 81 47
3 80 81 82
3 84 83 23
3 85 48 86
3 12 13 4
3 14 13 12
3 14 6 13
3 15 16 5
3 87 16 88
3 89 88 15
3 87 88 89
3 91 90 16
3 92 9 93
3 17 18 8
3 19 18 17
3 19 10 18
3 20 21 7
3 22 21 20
3 22 11 21
3 22 23 11
3 24 23 22
3 24 94 96
3 96 95 23
3 94 95 96
3 97 25 98
3 26 99 101
3 99 25 100
3 99 100 101
3 26 5 25
3 13 26 4
3 27 26 13
3 27 5 26
3 27 15 5
3 28 15 27
3 28 1 15
3 29 30 2
3 31 30 29
3 31 7 30
3 102 31 103
3 32 104 106
3 104 31 105
3 104 105 106
3 32 7 31
3 32 20 7
3 33 20 32
3 33 3 20
3 25 107 108
3 34 109 111
3 111 110 25
3 109 110 111
3 34 112 113
3 16 34 5
3 114 34 115
3 116 115 16
3 114 115 116
3 118 117 34
3 35 36 0
3 37 36 35
3 37 8 36
3 119 37 120
3 121 37 122
3 123 8 124
3 125 124 37
3 123 124 125
3 126 17 127
3 128 127 8
3 126 127 128
3 129 17 130
3 131 2 132
3 133 132 17
3 131 132 133
3 134 2 135
3 136 29 137
3 138 137 2
3 136 137 138
3 139 29 140
3 142 141 29
3 143 4 144
3 38 145 146
3 38 147 149
3 147 4 148
3 147 148 149
3 38 12 4
3 39 12 38
3 39 0 12
3 150 9 151
3 40 152 153
3 40 154 156
3 154 9 155
3 154 155 156
3 40 39 9
3 41 39 40
3 41 0 39
3 41 35 0
3 157 35 158
3 159 158 41
3 157 158 159
3 161 160 35
3 36 14 0
3 42 14 36
3 42 6 14
3 18 42 8
3 43 42 18
3 43 6 42
3 43 28 6
3 44 28 43
3 44 1 28
3 30 19 2
3 45 19 30
3 45 10 19
3 21 45 7
3 46 45 21
3 46 10 45
3 46 44 10
3 47 44 46
3 47 1 44
3 47 162 164
3 164 163 1
3 162 163 164
3 166 165 47
3 23 167 169
3 169 168 11
3 167 168 169
3 171 170 23
3 172 33 173
3 48 174 176
3 174 33 175
3 174 175 176
3 48 3 33
3 177 48 178
3 179 48 180
3 181 3 182
3 183 182 48
3 181 182 183
3 184 24 185
3 186 185 3
3 184 185 186
3 187 24 188
3 190 189 24
