ply
format ascii 1.0
element vertex 512
property float x
property float y
property float z
element face 489
property list uchar int vertex_index
end_header
16.179115 -53.338146 -12.451799
36.002796 -6.775681 -52.556732
28.770947 -24.248219 -37.430534
29.162489 -13.058142 -42.695946
30.246103 -15.23662 -45.833664
29.533188 -3.07889 -51.208328
25.883593 -41.957405 -22.698122
28.692789 -36.446182 -30.166445
28.642673 -8.074938 -47.171738
29.087294 -2.649885 -48.440498
29.339888 -28.460693 -32.806541
28.473654 -33.857342 -29.679007
28.815264 -30.154228 -33.97776
30.289608 -32.941429 -34.095543
29.625711 -26.123791 -38.184998
32.694553 -10.782574 -49.414574
33.619537 -17.600502 -45.568596
36.755039 -13.520237 -48.5755
15.196817 -53.373043 -9.634317
28.849384 -18.570335 -40.381004
28.935772 -19.791952 -41.822891
28.566042 -13.796758 -44.875725
29.647896 -8.987889 -48.964699
32.037003 -4.427565 -52.605583
30.705776 6.854094 -46.961418
29.780979 2.378773 -48.400047
19.385601 -48.887589 -13.945679
21.016479 -48.221149 -17.107676
22.994665 -47.138847 -20.127211
27.244276 -39.476257 -26.36537
31.200338 -21.889322 -42.102455
29.217052 -5.217478 -46.356506
14.897846 -55.867599 -11.576712
29.181973 -23.62611 -36.633324
29.003443 -26.39435 -35.135262
28.821264 -29.197807 -33.528481
28.79203 -27.164589 -35.759483
29.139482 -28.172203 -36.104424
28.919138 -25.06266 -37.947662
34.260761 -8.695303 -51.044472
34.674992 -12.032234 -49.142342
36.375446 -10.073765 -50.636436
14.344521 -55.742958 -8.931162
14.570232 -53.328255 -8.232784
28.977097 -15.793559 -41.628784
28.553909 -16.201113 -42.675751
28.604658 -13.365813 -43.930229
28.903116 -5.558352 -49.249672
28.856693 -8.431789 -48.231255
29.53001 -5.991718 -50.219574
30.697948 -6.653664 -50.84668
30.544939 -3.626755 -52.086357
31.228008 9.24662 -48.44899
30.596498 7.195215 -49.472313
30.212337 4.695786 -47.849068
30.068111 4.937284 -50.149704
29.639385 2.503681 -50.459969
20.175472 -48.600384 -15.5403
23.634579 -45.301624 -19.737257
24.510277 -44.491058 -21.389898
24.149979 -46.406712 -21.600355
25.438358 -43.537601 -23.038561
28.334984 -34.988808 -30.059378
27.919247 -36.625122 -28.032587
27.954481 -38.025928 -28.245279
27.42075 -41.188805 -26.420259
28.440105 -39.792877 -28.196386
29.438669 -17.51667 -43.881432
29.84528 -20.716478 -42.101913
30.695805 -18.505573 -44.0298
35.522133 -19.146769 -45.045441
34.088234 -21.222385 -43.518967
28.743889 -10.586357 -44.985062
28.95521 -7.86758 -45.806519
28.827915 -5.320884 -47.95414
29.055792 -2.768017 -49.986122
28.938755 -31.144342 -31.277784
28.609863 -32.05468 -31.829504
28.79896 -33.240063 -32.104736
29.466785 -34.747074 -32.123055
29.340639 -31.392605 -34.155014
29.989162 -29.460699 -36.186958
30.771536 -27.459679 -38.169983
31.342646 -12.979372 -47.677467
31.802067 -16.298082 -45.844551
33.13953 -14.125712 -47.546677
35.109928 -15.510485 -47.123711
37.101448 -17.136417 -46.453133
14.640989 -55.819256 -10.261021
15.701649 -53.372261 -11.045338
29.373423 -20.882477 -38.007896
28.783377 -21.387165 -38.975838
28.726473 -22.041662 -39.667122
28.597216 -19.091518 -41.248199
28.697292 -16.75849 -43.431091
29.125443 -14.408703 -45.512924
28.549948 -10.901971 -46.133018
28.928963 -11.382061 -46.973045
29.889242 -12.067581 -47.489372
30.967186 -9.768545 -49.35981
32.319477 -7.554974 -51.121017
33.90065 -5.479382 -52.759697
31.953182 11.067976 -47.114471
31.260468 8.839733 -45.772797
29.406799 -0.076929 -48.596313
29.302952 -0.073893 -50.400085
29.651745 -0.256641 -51.884697
30.511532 -0.686279 -53.025406
31.861084 -1.388708 -53.804794
33.618916 -2.363556 -54.211876
35.669483 -3.598784 -54.246536
37.890327 -5.083832 -53.923431
16.341927 -51.192516 -10.226526
17.039124 -51.1287 -11.723143
18.590736 -49.090294 -12.345188
17.697672 -51.012829 -13.225504
18.398287 -50.844749 -14.711592
19.211853 -50.617737 -16.160036
20.187937 -50.317505 -17.556826
22.802486 -45.974571 -18.065256
21.94945 -47.738651 -18.635798
21.347637 -49.923382 -18.901976
28.35375 -35.544121 -27.539541
27.521931 -38.135208 -26.028929
26.556633 -40.78904 -24.520727
26.413668 -42.437431 -24.707029
29.257927 -22.908051 -40.069084
30.306589 -24.024065 -40.192635
31.709187 -25.406271 -40.070786
32.308907 -19.739271 -43.89666
32.814358 -23.319397 -41.859932
15.709725 -54.621391 -12.659882
15.069091 -55.886117 -12.222338
15.53848 -54.602873 -12.014256
16.454963 -53.307846 -13.143973
15.709725 -54.621391 -12.659882
37.108441 -7.544988 -52.289772
37.294765 -9.19403 -51.329624
36.189121 -8.424723 -51.596584
14.161989 -53.276815 -7.542701
14.232749 -54.47198 -7.914008
29.48847 -14.260092 -41.506138
29.606447 -12.925931 -41.948753
29.069793 -14.42585 -42.162365
29.395774 -15.6278 -40.972557
29.48847 -14.260092 -41.506138
30.655851 7.320522 -50.592156
30.966561 8.415826 -50.181702
30.391658 6.191556 -50.930851
30.332304 6.066249 -49.811008
30.655851 7.320522 -50.592156
30.151259 4.987823 -51.152008
30.391658 6.191556 -50.930851
25.196935 -43.224232 -22.04401
24.860694 -43.733306 -21.13651
25.547352 -42.46648 -21.790623
29.07434 -37.350521 -30.103212
28.947998 -39.023868 -29.118183
28.566447 -38.119529 -29.181415
35.69182 -21.049974 -43.995865
36.445251 -20.041047 -44.68687
29.298407 -7.80037 -44.983788
29.173126 -9.11829 -44.679276
29.777539 -28.154851 -32.327008
29.517836 -27.124263 -33.526733
29.51351 -29.44267 -31.638577
29.777539 -28.154851 -32.327008
29.139322 -29.802518 -32.042163
29.312943 -30.784495 -30.874198
29.51351 -29.44267 -31.638577
37.782673 -14.384903 -48.170422
37.955877 -16.192993 -47.109238
36.928243 -15.328327 -47.514316
29.111404 -19.726406 -39.19445
29.479222 -19.521373 -38.625244
29.217202 -18.365302 -39.811798
32.025163 11.317291 -48.415184
32.464382 12.135257 -47.667259
30.785715 6.722265 -45.61259
31.063061 7.715085 -45.01828
30.983122 7.846914 -46.367108
30.599915 5.656254 -46.138451
30.785715 6.722265 -45.61259
29.964171 2.291074 -47.237721
30.179851 3.44958 -46.962231
29.996658 3.537279 -48.124558
29.800813 1.10498 -47.453991
29.964171 2.291074 -47.237721
29.593889 1.150922 -48.49818
29.613723 -0.12287 -47.552124
29.800813 1.10498 -47.453991
29.593314 1.192205 -51.304481
29.471169 1.214894 -50.430027
29.76153 2.480992 -51.334423
29.76771 1.100831 -52.046788
29.477348 -0.165267 -51.142391
29.593314 1.192205 -51.304481
31.157342 0.439358 -53.842743
30.556509 0.736586 -53.320511
31.832118 0.088143 -54.232437
31.186308 -1.037494 -53.4151
31.157342 0.439358 -53.842743
34.510745 -1.439438 -54.914894
33.527079 -0.847543 -54.770462
35.536028 -2.057052 -54.932224
34.644199 -2.98117 -54.229206
34.510745 -1.439438 -54.914894
38.895689 -4.377797 -54.509426
37.742023 -3.525061 -54.728222
40.036225 -5.244125 -54.185212
39.030862 -5.950161 -53.599216
38.895689 -4.377797 -54.509426
17.034939 -50.202604 -10.494597
16.540147 -50.225032 -9.722415
17.383538 -50.170696 -11.242905
16.690525 -51.160608 -10.974835
17.034939 -50.202604 -10.494597
18.988169 -48.988941 -13.145433
19.431801 -48.159607 -12.657519
19.829234 -48.058255 -13.457765
23.659945 -44.906887 -18.565724
23.287847 -45.260364 -17.656204
22.838149 -48.275032 -20.170179
22.014635 -49.667299 -19.557562
22.171151 -48.531115 -19.514594
24.151339 -47.581758 -21.562348
24.771339 -45.967474 -22.343246
28.413702 -34.700732 -28.609274
28.712093 -34.26367 -28.283668
28.772044 -33.420281 -29.353401
27.052813 -42.840514 -25.520321
27.701346 -42.240344 -26.327263
30.37634 -34.76325 -33.016822
29.964928 -35.666073 -32.030578
29.878197 -33.844251 -33.109299
33.653351 -24.162405 -41.641475
33.451296 -22.270891 -42.68945
34.290289 -23.113899 -42.470993
33.038399 -25.1875 -40.80629
33.653351 -24.162405 -41.641475
29.554709 -5.188107 -45.421486
29.429328 -6.475319 -45.258781
29.363345 -3.932192 -46.477726
29.554709 -5.188107 -45.421486
29.298466 -2.648395 -47.519722
29.152173 -3.933681 -47.398502
29.363345 -3.932192 -46.477726
14.440613 -57.286955 -11.675311
14.399614 -57.221708 -11.07214
14.440613 -57.286955 -11.675311
15.069091 -55.886117 -12.222338
29.438879 -24.706971 -35.440124
29.60032 -23.370962 -36.108006
29.349614 -26.091091 -34.691093
29.438879 -24.706971 -35.440124
29.092708 -25.01023 -35.884293
29.171665 -27.427521 -33.970901
29.517836 -27.124263 -33.526733
29.349614 -26.091091 -34.691093
37.454178 -10.88347 -50.28627
37.643974 -12.606706 -49.255802
36.565242 -11.797001 -49.605968
37.454178 -10.88347 -50.28627
37.294765 -9.19403 -51.329624
14.119893 -55.679331 -8.263197
14.072147 -57.000395 -8.505171
14.457377 -54.535607 -8.581973
14.119893 -55.679331 -8.263197
14.232749 -54.47198 -7.914008
29.281059 -16.976914 -40.435688
29.395774 -15.6278 -40.972557
28.913241 -17.181947 -41.004894
29.217202 -18.365302 -39.811798
29.281059 -16.976914 -40.435688
31.282316 9.441529 -49.67004
31.662577 10.406613 -49.082443
30.912253 8.220918 -48.960651
31.282316 9.441529 -49.67004
30.966561 8.415826 -50.181702
29.936896 3.771021 -51.307141
29.853748 3.720483 -50.304837
30.151259 4.987823 -51.152008
29.76153 2.480992 -51.334423
29.936896 3.771021 -51.307141
20.274013 -47.909859 -14.30589
19.829234 -48.058255 -13.457765
20.668948 -47.766256 -15.1032
19.780537 -48.743986 -14.74299
20.274013 -47.909859 -14.30589
21.083014 -47.558186 -15.95581
20.668948 -47.766256 -15.1032
21.503518 -47.368568 -16.739498
20.595976 -48.410766 -16.323988
21.083014 -47.558186 -15.95581
24.422845 -44.138589 -20.31019
24.075992 -44.570414 -19.401724
24.072428 -44.896341 -20.563578
24.422845 -44.138589 -20.31019
24.860694 -43.733306 -21.13651
25.415529 -44.532919 -23.062349
24.771339 -45.967474 -22.343246
24.794168 -44.972156 -22.319458
28.211024 -41.542379 -27.215326
27.701346 -42.240344 -26.327263
27.930428 -40.490841 -27.308323
28.841807 -40.859626 -28.070772
28.211024 -41.542379 -27.215326
28.841807 -40.859626 -28.070772
28.947998 -39.023868 -29.118183
30.880535 -33.870339 -33.977749
30.735235 -31.993249 -35.073635
34.974871 -22.087781 -43.232628
34.805183 -20.184577 -44.282204
35.69182 -21.049974 -43.995865
34.290289 -23.113899 -42.470993
34.974871 -22.087781 -43.232628
29.276765 -11.713571 -43.123989
29.606447 -12.925931 -41.948753
29.067465 -10.477678 -44.268547
28.953189 -11.822249 -43.840504
29.276765 -11.713571 -43.123989
28.84955 -9.226968 -45.395791
29.067465 -10.477678 -44.268547
29.173126 -9.11829 -44.679276
29.086131 -6.542529 -46.081513
29.298407 -7.80037 -44.983788
29.429328 -6.475319 -45.258781
26.269364 -41.338482 -22.389372
25.547352 -42.46648 -21.790623
29.004595 -32.063781 -30.15279
29.312943 -30.784495 -30.874198
28.706204 -32.500842 -30.478395
28.772044 -33.420281 -29.353401
29.004595 -32.063781 -30.15279
30.585012 -30.252884 -36.119343
30.735235 -31.993249 -35.073635
30.139385 -31.201064 -35.14125
30.976199 -29.252374 -37.110855
30.585012 -30.252884 -36.119343
30.380349 -28.460189 -37.178471
31.46787 -28.268021 -38.060589
30.976199 -29.252374 -37.110855
37.234909 -19.035871 -45.390716
36.445251 -20.041047 -44.68687
36.311791 -18.141593 -45.749287
38.053131 -18.068975 -46.023827
38.186592 -19.968428 -44.96141
37.234909 -19.035871 -45.390716
38.053131 -18.068975 -46.023827
37.955877 -16.192993 -47.109238
37.782673 -14.384903 -48.170422
37.643974 -12.606706 -49.255802
14.117429 -57.089309 -9.13348
14.072147 -57.000395 -8.505171
14.265663 -57.127459 -9.798409
14.117429 -57.089309 -9.13348
14.492755 -55.781107 -9.596091
14.271185 -57.197536 -10.414295
14.265663 -57.127459 -9.798409
14.769417 -55.843428 -10.918867
14.399614 -57.221708 -11.07214
14.271185 -57.197536 -10.414295
29.843905 -20.662721 -37.402512
29.479222 -19.521373 -38.625244
29.696045 -21.999146 -36.795292
29.843905 -20.662721 -37.402512
29.277698 -22.254294 -37.32061
29.60032 -23.370962 -36.108006
29.696045 -21.999146 -36.795292
32.348581 11.858897 -46.312466
32.859781 12.926178 -46.865254
32.464382 12.135257 -47.667259
31.908056 10.85865 -45.722054
32.348581 11.858897 -46.312466
31.590595 10.157298 -47.781731
32.025163 11.317291 -48.415184
31.662577 10.406613 -49.082443
31.561699 9.744529 -45.051216
31.908056 10.85865 -45.722054
31.606825 9.953855 -46.443634
31.260609 8.720755 -44.371921
31.56184 9.625551 -43.650341
31.561699 9.744529 -45.051216
31.260609 8.720755 -44.371921
31.063061 7.715085 -45.01828
30.353195 4.5771 -46.582276
30.599915 5.656254 -46.138451
30.459057 5.77494 -47.405243
30.353195 4.5771 -46.582276
30.179851 3.44958 -46.962231
29.458219 -1.361917 -47.597629
29.613723 -0.12287 -47.552124
29.247046 -1.363407 -48.518406
29.298466 -2.648395 -47.519722
29.458219 -1.361917 -47.597629
30.126615 0.951405 -52.750157
29.76771 1.100831 -52.046788
30.081638 -0.47146 -52.455051
30.126615 0.951405 -52.750157
30.556509 0.736586 -53.320511
32.648163 -0.360119 -54.566921
31.832118 0.088143 -54.232437
32.74 -1.876132 -54.008335
32.648163 -0.360119 -54.566921
33.527079 -0.847543 -54.770462
36.631601 -2.782537 -54.889774
35.536028 -2.057052 -54.932224
36.779905 -4.341308 -54.084983
36.631601 -2.782537 -54.889774
37.742023 -3.525061 -54.728222
38.052206 -6.699063 -52.973122
37.108441 -7.544988 -52.289772
36.946562 -5.929756 -53.240082
38.052206 -6.699063 -52.973122
39.030862 -5.950161 -53.599216
14.558722 -52.239553 -7.775441
14.161989 -53.276815 -7.542701
15.050116 -52.264544 -8.493296
14.558722 -52.239553 -7.775441
15.363408 -52.286938 -9.194062
14.883525 -53.350649 -8.93355
15.050116 -52.264544 -8.493296
15.935963 -51.196674 -9.490167
16.540147 -50.225032 -9.722415
15.769372 -52.28278 -9.930421
15.363408 -52.286938 -9.194062
15.935963 -51.196674 -9.490167
18.932336 -48.251213 -11.825654
19.431801 -48.159607 -12.657519
18.159343 -49.151493 -11.553928
18.932336 -48.251213 -11.825654
17.81493 -50.109497 -12.034166
17.383538 -50.170696 -11.242905
18.159343 -49.151493 -11.553928
17.214242 -52.145188 -13.530826
16.454963 -53.307846 -13.143973
16.938394 -52.175488 -12.838652
17.564549 -52.061148 -14.273869
17.214242 -52.145188 -13.530826
18.04798 -50.928789 -13.968548
17.922622 -52.016267 -14.945439
17.564549 -52.061148 -14.273869
18.329405 -51.902761 -15.669662
17.922622 -52.016267 -14.945439
18.80507 -50.731243 -15.435814
18.801567 -51.83618 -16.312939
18.329405 -51.902761 -15.669662
19.289609 -51.686064 -17.011333
18.801567 -51.83618 -16.312939
19.699895 -50.467621 -16.858431
19.889647 -51.585398 -17.62417
19.289609 -51.686064 -17.011333
22.396521 -46.245279 -17.218288
23.287847 -45.260364 -17.656204
21.909482 -47.09786 -17.586466
21.503518 -47.368568 -16.739498
22.396521 -46.245279 -17.218288
23.218532 -45.638098 -18.901257
23.659945 -44.906887 -18.565724
24.075992 -44.570414 -19.401724
20.469496 -51.388336 -18.296746
19.889647 -51.585398 -17.62417
20.767787 -50.120443 -18.229401
21.191738 -51.237746 -18.885539
20.469496 -51.388336 -18.296746
21.191738 -51.237746 -18.885539
22.014635 -49.667299 -19.557562
23.415806 -47.908964 -20.906751
22.838149 -48.275032 -20.170179
23.572322 -46.772779 -20.863783
23.415806 -47.908964 -20.906751
24.151339 -47.581758 -21.562348
26.497664 -40.731093 -23.372261
26.269364 -41.338482 -22.389372
28.747787 -35.117249 -27.167654
28.712093 -34.26367 -28.283668
28.275148 -36.319527 -26.479414
28.747787 -35.117249 -27.167654
27.859238 -37.615071 -25.724108
28.275148 -36.319527 -26.479414
27.937841 -36.839664 -26.784235
27.316834 -38.819994 -25.037664
27.859238 -37.615071 -25.724108
26.834184 -40.14691 -24.283563
27.316834 -38.819994 -25.037664
27.039282 -39.462124 -25.274828
26.220113 -41.373222 -23.609425
26.497664 -40.731093 -23.372261
26.834184 -40.14691 -24.283563
25.903184 -43.982833 -23.896583
25.415529 -44.532919 -23.062349
25.926013 -42.987516 -23.872795
26.549272 -43.464827 -24.663705
26.917209 -41.813118 -25.563644
27.052813 -42.840514 -25.520321
25.903184 -43.982833 -23.896583
26.549272 -43.464827 -24.663705
29.461338 -36.500967 -31.081518
29.07434 -37.350521 -30.103212
29.079787 -35.596628 -31.14475
29.461338 -36.500967 -31.081518
29.964928 -35.666073 -32.030578
30.37634 -34.76325 -33.016822
30.880535 -33.870339 -33.977749
31.936695 -27.241317 -39.01099
31.46787 -28.268021 -38.060589
31.240361 -26.432975 -39.120385
32.485813 -26.230937 -39.911716
32.261772 -24.362834 -40.965359
33.038399 -25.1875 -40.80629
31.936695 -27.241317 -39.01099
32.485813 -26.230937 -39.911716
3 0 131 133
3 133 132 32
3 131 132 133
3 0 134 135
3 2 34 33
3 2 36 34
3 2 38 36
3 1 41 39
3 1 136 138
3 138 137 41
3 136 137 138
3 139 43 140
3 3 141 142
3 3 143 145
3 143 44 144
3 143 144 145
3 3 46 44
3 5 49 47
3 5 51 49
3 146 53 147
3 148 55 149
3 150 149 53
3 148 149 150
3 152 151 55
3 6 153 155
3 153 59 154
3 153 154 155
3 6 61 59
3 7 64 62
3 7 66 64
3 7 156 158
3 158 157 66
3 156 157 158
3 4 69 67
3 160 159 70
3 161 73 162
3 9 74 31
3 9 75 74
3 10 163 164
3 10 165 166
3 10 167 169
3 167 76 168
3 167 168 169
3 12 77 35
3 12 78 77
3 12 80 78
3 14 81 37
3 14 82 81
3 15 85 83
3 17 86 40
3 17 87 86
3 17 170 172
3 172 171 87
3 170 171 172
3 18 88 42
3 18 89 88
3 19 173 175
3 173 90 174
3 173 174 175
3 19 91 90
3 19 93 91
3 21 94 45
3 21 95 94
3 8 96 72
3 22 97 48
3 22 98 97
3 22 99 98
3 23 100 50
3 23 101 100
3 176 102 177
3 24 103 52
3 24 178 180
3 180 179 103
3 178 179 180
3 24 181 182
3 25 183 185
3 185 184 54
3 183 184 185
3 25 186 187
3 25 188 190
3 188 104 189
3 188 189 190
3 191 105 192
3 193 192 56
3 191 192 193
3 194 106 195
3 196 195 105
3 194 195 196
3 197 107 198
3 199 108 200
3 201 200 107
3 199 200 201
3 202 109 203
3 204 110 205
3 206 205 109
3 204 205 206
3 207 111 208
3 211 210 111
3 209 210 211
3 212 112 213
3 214 113 215
3 216 215 112
3 214 215 216
3 26 217 219
3 217 114 218
3 217 218 219
3 26 115 114
3 26 116 115
3 27 117 57
3 27 118 117
3 220 119 221
3 28 120 58
3 28 121 120
3 28 222 224
3 224 223 121
3 222 223 224
3 226 225 60
3 11 227 229
3 227 122 228
3 227 228 229
3 29 123 63
3 29 124 123
3 29 125 124
3 231 230 65
3 13 232 234
3 234 233 79
3 232 233 234
3 20 126 92
3 30 127 68
3 30 128 127
3 16 129 84
3 235 130 236
3 237 236 71
3 235 236 237
3 239 238 130
3 240 31 241
3 242 31 243
3 244 9 245
3 246 245 31
3 244 245 246
3 32 247 248
3 250 249 32
3 33 251 252
3 34 253 255
3 255 254 33
3 253 254 255
3 34 256 258
3 256 10 257
3 256 257 258
3 34 35 10
3 36 35 34
3 36 12 35
3 36 37 12
3 38 37 36
3 38 14 37
3 39 40 15
3 41 40 39
3 41 17 40
3 41 259 261
3 261 260 17
3 259 260 261
3 263 262 41
3 264 42 265
3 43 266 268
3 266 42 267
3 266 267 268
3 43 18 42
3 44 269 270
3 44 271 273
3 271 19 272
3 271 272 273
3 44 45 19
3 46 45 44
3 46 21 45
3 47 48 8
3 49 48 47
3 49 22 48
3 49 50 22
3 51 50 49
3 51 23 50
3 274 52 275
3 53 276 278
3 276 52 277
3 276 277 278
3 53 24 52
3 53 54 24
3 55 54 53
3 55 25 54
3 55 56 25
3 279 56 280
3 281 280 55
3 279 280 281
3 283 282 56
3 284 26 285
3 286 57 287
3 288 287 26
3 286 287 288
3 289 57 290
3 291 27 292
3 293 292 57
3 291 292 293
3 294 58 295
3 59 296 298
3 296 58 297
3 296 297 298
3 59 28 58
3 59 60 28
3 61 60 59
3 61 299 301
3 301 300 60
3 299 300 301
3 62 63 11
3 64 63 62
3 64 29 63
3 64 65 29
3 66 65 64
3 66 302 304
3 304 303 65
3 302 303 304
3 66 305 306
3 308 307 66
3 310 309 13
3 67 68 20
3 69 68 67
3 69 30 68
3 70 71 16
3 311 71 312
3 313 312 70
3 311 312 313
3 315 314 71
3 316 3 317
3 318 72 319
3 320 319 3
3 318 319 320
3 73 321 323
3 321 72 322
3 321 322 323
3 73 8 72
3 31 324 326
3 324 73 325
3 324 325 326
3 74 73 31
3 74 8 73
3 74 47 8
3 75 47 74
3 75 5 47
3 327 6 328
3 76 329 330
3 76 331 333
3 331 11 332
3 331 332 333
3 35 76 10
3 77 76 35
3 77 11 76
3 77 62 11
3 78 62 77
3 78 7 62
3 78 79 7
3 80 79 78
3 80 13 79
3 37 80 12
3 81 80 37
3 81 13 80
3 81 334 336
3 336 335 13
3 334 335 336
3 82 337 339
3 339 338 81
3 337 338 339
3 82 340 341
3 83 84 4
3 85 84 83
3 85 16 84
3 40 85 15
3 86 85 40
3 86 16 85
3 86 70 16
3 87 70 86
3 87 342 344
3 344 343 70
3 342 343 344
3 87 345 347
3 345 346 347
3 349 348 87
3 351 350 17
3 42 352 353
3 88 354 356
3 356 355 42
3 354 355 356
3 88 357 358
3 88 359 361
3 359 32 360
3 359 360 361
3 89 32 88
3 89 0 32
3 90 362 363
3 90 364 365
3 90 366 368
3 366 33 367
3 366 367 368
3 91 33 90
3 91 2 33
3 91 92 2
3 93 92 91
3 93 20 92
3 45 93 19
3 94 93 45
3 94 20 93
3 94 67 20
3 95 67 94
3 95 4 67
3 72 46 3
3 96 46 72
3 96 21 46
3 48 96 8
3 97 96 48
3 97 21 96
3 97 95 21
3 98 95 97
3 98 4 95
3 98 83 4
3 99 83 98
3 99 15 83
3 50 99 22
3 100 99 50
3 100 15 99
3 100 39 15
3 101 39 100
3 101 1 39
3 102 369 371
3 369 370 371
3 102 372 373
3 52 374 376
3 374 102 375
3 374 375 376
3 103 102 52
3 103 377 379
3 379 378 102
3 377 378 379
3 103 380 382
3 380 381 382
3 384 383 103
3 54 385 387
3 387 386 24
3 385 386 387
3 389 388 54
3 104 390 391
3 104 392 394
3 392 9 393
3 392 393 394
3 56 104 25
3 105 104 56
3 105 9 104
3 105 75 9
3 106 75 105
3 106 5 75
3 395 106 396
3 107 397 399
3 397 106 398
3 397 398 399
3 107 5 106
3 107 51 5
3 108 51 107
3 108 23 51
3 400 108 401
3 109 402 404
3 402 108 403
3 402 403 404
3 109 23 108
3 109 101 23
3 110 101 109
3 110 1 101
3 405 110 406
3 111 407 409
3 407 110 408
3 407 408 409
3 111 1 110
3 111 410 412
3 412 411 1
3 410 411 412
3 414 413 111
3 415 43 416
3 417 43 418
3 419 18 420
3 421 420 43
3 419 420 421
3 112 422 423
3 112 424 426
3 424 18 425
3 424 425 426
3 112 89 18
3 113 89 112
3 113 0 89
3 114 427 428
3 114 429 430
3 114 431 433
3 431 113 432
3 431 432 433
3 115 113 114
3 115 0 113
3 115 434 436
3 436 435 0
3 434 435 436
3 116 437 439
3 439 438 115
3 437 438 439
3 116 440 441
3 57 116 26
3 117 116 57
3 117 442 444
3 444 443 116
3 442 443 444
3 117 445 446
3 118 447 449
3 449 448 117
3 447 448 449
3 118 450 451
3 119 452 453
3 119 454 456
3 454 27 455
3 454 455 456
3 58 457 459
3 457 119 458
3 457 458 459
3 120 119 58
3 120 27 119
3 120 118 27
3 121 118 120
3 121 460 462
3 462 461 118
3 460 461 462
3 121 463 464
3 466 465 121
3 60 467 469
3 469 468 28
3 467 468 469
3 471 470 60
3 472 6 473
3 122 474 475
3 122 476 477
3 63 122 11
3 123 122 63
3 123 478 480
3 480 479 122
3 478 479 480
3 123 481 482
3 124 483 485
3 485 484 123
3 483 484 485
3 124 486 488
3 486 6 487
3 486 487 488
3 124 61 6
3 125 61 124
3 125 489 491
3 491 490 61
3 489 490 491
3 65 125 29
3 492 125 493
3 494 493 65
3 492 493 494
3 496 495 125
3 79 497 499
3 499 498 7
3 497 498 499
3 501 500 79
3 503 502 13
3 92 38 2
3 126 38 92
3 126 14 38
3 68 126 20
3 127 126 68
3 127 14 126
3 127 82 14
3 128 82 127
3 128 504 506
3 506 505 82
3 504 505 506
3 84 69 4
3 129 69 84
3 129 30 69
3 71 129 16
3 130 129 71
3 130 30 129
3 130 128 30
3 507 128 508
3 509 508 130
3 507 508 509
3 511 510 128
