ply
format ascii 1.0
element vertex 542
property float x
property float y
property float z
element face 549
property list uchar int vertex_index
end_header
67.789528 -19.42757 -4.882795
55.463177 15.703011 -42.721413
63.965462 -0.755936 -21.70075
70.77404 -41.502659 11.127046
49.825195 18.684467 -40.687126
62.7286 -5.35404 -12.15044
66.240753 -10.14474 -12.23649
56.666946 13.048172 -31.578508
67.711342 -27.481136 -5.194647
70.333076 -34.907848 1.982778
60.919006 4.468479 -21.606199
52.640049 18.416595 -42.03231
65.541794 -16.67967 -4.462595
65.636208 -11.783588 -7.978813
67.167519 -14.792255 -8.300333
70.039818 -31.504375 1.472455
70.094284 -35.409908 5.490618
69.556877 -41.709824 7.597552
66.831978 -45.224129 9.326433
64.345375 -1.95623 -16.558691
62.132408 -0.389553 -16.743315
63.079865 2.904829 -21.509916
61.415085 7.588531 -26.707346
62.676083 3.919903 -26.954645
69.771263 -38.826637 10.154495
65.219803 -6.870772 -12.010786
65.141502 -5.465304 -16.737249
53.562653 16.346558 -36.356873
56.326569 15.60812 -37.163673
68.486488 -23.136843 -5.201164
67.1968 -18.93733 -8.604527
68.016365 -24.053947 -1.754248
69.492043 -27.348701 -1.979799
69.25943 -31.216129 -1.774969
67.54557 -35.398148 -0.987095
70.812065 -38.395672 6.296448
68.846283 -38.614288 3.078235
59.106735 9.019344 -26.601233
59.223618 11.903868 -31.983774
58.724457 12.437592 -37.63102
54.048161 17.357162 -42.455193
66.851677 -17.913645 -4.670265
66.778801 -15.516396 -6.339413
67.524063 -17.110308 -6.536837
68.496323 -44.850979 10.821667
64.322556 -1.086798 -19.059416
63.759285 0.48698 -18.993235
63.672356 1.308258 -21.586927
62.959152 3.678213 -24.183455
63.344711 1.593655 -24.302916
66.303566 -10.715299 -10.040644
65.489853 -9.328835 -9.926815
65.918221 -8.310637 -12.099409
65.451591 -5.902764 -14.297066
65.704758 -7.809825 -14.420038
55.104267 12.75095 -31.316702
53.645164 14.420033 -33.591286
55.198296 14.802151 -34.005981
54.993965 16.286243 -36.807045
56.6091 14.636238 -34.328072
68.266129 -25.249479 -5.251139
67.503021 -23.269215 -6.924158
67.976463 -26.346193 -0.182716
68.967422 -25.615007 -1.908077
69.123596 -27.815626 -0.29372
70.427704 -33.154926 1.657136
70.074455 -31.206337 -0.202698
69.868149 -33.076073 0.041975
68.560074 -33.283966 -1.458982
69.245407 -35.021793 0.438055
70.542892 -40.111801 10.595083
70.67466 -38.548645 8.14841
70.847008 -40.006798 8.657257
68.032722 -41.998871 6.083841
69.277237 -40.184631 5.284491
67.587715 -40.521553 3.836453
67.002052 -39.02927 1.687129
61.004745 -5.276271 -12.422831
61.600677 2.064314 -19.149469
60.52803 -0.360233 -17.015284
60.029289 2.066389 -19.384005
59.364311 4.434208 -21.780344
58.537544 6.713205 -24.188868
60.088486 6.796 -24.096148
61.262688 8.261147 -29.495821
60.39679 9.806341 -29.346277
60.217323 10.420296 -32.168854
58.994537 12.447752 -34.825027
66.520668 -16.832792 -10.473677
51.235184 18.846653 -41.450874
63.899109 -15.756655 -4.294352
64.178322 -13.301428 -6.04356
65.653488 -14.234179 -6.162401
66.594116 -13.11694 -8.12319
66.734161 -12.47135 -10.196491
56.406933 10.895393 -28.97611
66.875641 -29.794851 -5.010763
69.169029 -29.980267 1.414013
70.124687 -33.503624 3.398748
70.638611 -35.046135 3.665154
70.479477 -42.98838 11.753277
70.503677 -41.553307 9.275522
69.694908 -43.172794 10.000082
68.333542 -43.447784 8.417397
66.53273 -43.840118 6.985398
63.848625 -3.392674 -14.251102
62.510147 -2.868872 -14.404774
63.414574 -0.913193 -16.589777
62.851837 1.546427 -19.015841
62.163631 3.967701 -21.510717
61.348427 6.328239 -24.055254
62.302711 5.279408 -24.088236
62.165215 6.003992 -26.826975
64.315491 -10.835822 -7.90876
64.305115 -8.360764 -9.899748
64.14782 -5.878158 -12.016562
64.834976 -4.411613 -14.225552
64.916565 -3.493326 -16.622702
64.561172 -3.11234 -19.171206
52.034348 15.879322 -35.771156
51.766827 17.651501 -38.597511
53.198845 17.701668 -39.194061
54.580177 17.143421 -39.653374
55.917496 15.956398 -39.995682
68.334389 -21.182558 -5.069456
67.880577 -18.967167 -6.719448
67.86264 -21.03619 -6.857355
66.812561 -20.306616 -3.085075
66.667427 -22.689857 -1.543482
67.95475 -21.743752 -3.303665
68.701607 -23.399883 -3.481974
69.038185 -25.242332 -3.592636
68.971481 -27.236591 -3.608341
69.829178 -29.443314 -0.307957
69.583382 -29.226542 -1.943039
68.528976 -29.347027 -3.504616
67.756927 -31.538198 -3.261705
66.718079 -33.77681 -2.867571
69.967789 -37.192982 7.748111
70.714935 -36.852634 5.831476
70.646049 -36.688778 4.067082
70.408455 -40.020699 6.886709
70.173943 -38.408745 4.608231
69.787071 -36.736122 2.4569
68.264488 -37.014267 0.988708
66.291809 -37.53154 -0.361473
60.854904 -2.816315 -14.689608
57.551487 8.87528 -26.593397
57.968323 11.11195 -29.102327
60.398598 8.602703 -26.629995
59.301567 10.764294 -29.214808
58.042664 12.785213 -31.788546
57.872421 13.8493 -34.597694
57.566414 14.306339 -37.442284
57.217533 14.187481 -40.216034
67.359924 -16.752205 -8.471382
66.794823 -14.532999 -10.352463
66.208519 -12.303688 -12.376837
65.622726 -10.058689 -14.546272
58.487526 11.923822 -40.290108
56.884911 13.534378 -42.81443
54.468388 16.323212 -43.918484
53.76088 17.150287 -43.785374
54.755669 16.530086 -42.588303
55.239573 15.294148 -43.983459
54.468388 16.323212 -43.918484
48.793045 19.047916 -41.632565
48.080723 18.735729 -41.139511
49.112873 18.37228 -40.194073
67.280991 -26.551783 -6.045407
67.558384 -25.435954 -6.073652
67.988736 -26.365308 -5.222893
67.909706 -27.473067 0.64068
67.044727 -26.859688 0.710514
68.483272 -28.207784 0.585179
68.550029 -27.08091 -0.238218
67.909706 -27.473067 0.64068
66.844876 -41.482914 4.274042
67.810219 -41.260212 4.960147
67.067379 -42.221573 5.397735
66.56702 -40.785782 3.176446
66.844876 -41.482914 4.274042
61.866672 -5.315156 -12.286635
60.989757 -6.498529 -11.326751
61.851685 -6.537413 -11.190555
60.631027 9.411762 -32.244126
60.740005 9.340722 -30.832338
61.153709 8.332187 -30.907609
60.104408 10.457961 -33.580281
60.631027 9.411762 -32.244126
51.58299 18.902629 -43.145404
50.880558 19.117658 -42.854686
51.937616 18.631624 -41.741592
56.085926 9.59166 -27.759119
55.526434 10.570843 -28.872747
65.897819 -30.167281 -5.745144
66.350235 -30.975925 -4.847813
70.109486 -34.456766 4.444683
69.542575 -33.791954 4.334172
69.527374 -34.745096 5.380107
69.701138 -43.863842 11.23705
70.087193 -43.080587 10.87668
70.093422 -43.771635 12.113647
65.854966 -45.463901 8.64276
65.705342 -44.771896 7.472243
66.682354 -44.532123 8.155915
62.300123 5.059762 -28.294207
62.04469 6.101807 -28.230372
62.420649 4.961947 -26.89081
67.112793 -22.280493 -7.798771
66.749615 -23.517837 -7.790076
65.88953 -20.924594 -2.19307
66.060303 -19.712135 -2.969495
67.341896 -23.371902 -1.648865
66.547939 -23.870879 -0.770562
67.222409 -24.552924 -0.875945
66.516441 -35.71611 -1.653325
66.102696 -34.905441 -2.593563
67.131824 -34.587479 -1.927333
69.869526 -38.00981 8.951303
69.222752 -37.42169 8.775495
69.124489 -38.238518 9.978687
65.587803 -38.597859 0.022085
66.64693 -38.280405 0.662828
65.942925 -39.346723 1.046386
65.218795 -37.909592 -0.992976
65.587803 -38.597859 0.022085
59.730438 -1.758981 -16.045344
59.587259 -0.551793 -17.190874
66.329727 -14.623143 -11.417307
66.657746 -15.682896 -10.41307
66.19265 -15.773039 -11.477914
66.036575 -13.508487 -12.429494
66.501671 -13.418343 -11.36465
66.329727 -14.623143 -11.417307
65.166484 -10.226662 -15.733809
65.438782 -11.3142 -14.590101
65.338752 -8.926232 -15.699078
65.166484 -10.226662 -15.733809
58.399536 11.436829 -41.499184
59.111573 10.595254 -40.237301
59.023583 10.108261 -41.446377
57.598229 12.242107 -42.761345
57.686219 12.7291 -41.552269
58.399536 11.436829 -41.499184
56.738135 12.961604 -43.984893
57.598229 12.242107 -42.761345
53.011519 17.912771 -43.619469
52.307462 18.442487 -43.408028
53.344105 17.886879 -42.243752
53.011519 17.912771 -43.619469
53.76088 17.150287 -43.785374
69.41761 -35.67866 6.472476
69.527374 -34.745096 5.380107
68.514924 -45.519417 12.052516
69.101845 -44.702934 11.647842
67.749566 -45.713949 11.272321
68.514924 -45.519417 12.052516
66.917393 -45.900525 10.524704
67.664151 -45.037554 10.07405
67.749566 -45.713949 11.272321
65.993939 -46.12903 9.811217
66.917393 -45.900525 10.524704
54.374716 13.585491 -32.453994
53.511707 13.230643 -32.263518
54.241259 12.396101 -31.126227
67.17683 -24.445822 -6.910162
67.884575 -24.259347 -6.087649
67.558384 -25.435954 -6.073652
66.749615 -23.517837 -7.790076
67.17683 -24.445822 -6.910162
67.202457 -25.699047 -0.090178
67.044727 -26.859688 0.710514
67.996414 -25.20007 -0.968482
67.222409 -24.552924 -0.875945
67.202457 -25.699047 -0.090178
66.274189 -40.03964 2.101784
67.294883 -39.775411 2.761791
66.56702 -40.785782 3.176446
65.942925 -39.346723 1.046386
66.274189 -40.03964 2.101784
59.972414 -6.618858 -11.509069
60.989757 -6.498529 -11.326751
60.018158 -5.424171 -12.617971
59.972414 -6.618858 -11.509069
59.337888 0.661518 -18.375235
59.587259 -0.551793 -17.190874
60.27866 0.853078 -18.199644
59.104002 1.853328 -19.527937
59.337888 0.661518 -18.375235
58.771513 3.037238 -20.726107
59.104002 1.853328 -19.527937
59.6968 3.250298 -20.582175
58.450878 4.197202 -21.879379
58.771513 3.037238 -20.726107
58.950927 5.573707 -22.984606
58.037494 5.336701 -23.083641
58.450878 4.197202 -21.879379
59.493015 11.471689 -34.908367
59.60593 11.434024 -33.496941
60.104408 10.457961 -33.580281
59.357975 11.466609 -36.311363
58.859497 12.442672 -36.228023
59.493015 11.471689 -34.908367
66.24324 -18.070099 -10.503442
66.858734 -17.885061 -9.539102
66.581306 -19.122367 -9.568867
65.895573 -17.068171 -11.498897
66.24324 -18.070099 -10.503442
66.19265 -15.773039 -11.477914
65.895573 -17.068171 -11.498897
50.180084 19.265469 -42.491298
49.47509 19.184376 -42.109425
50.530189 18.76556 -41.069
50.180084 19.265469 -42.491298
50.880558 19.117658 -42.854686
51.58299 18.902629 -43.145404
52.307462 18.442487 -43.408028
64.038715 -14.529041 -5.168956
63.078911 -14.230222 -5.122611
62.939305 -15.457835 -4.248007
54.875101 11.498621 -30.043043
54.241259 12.396101 -31.126227
55.7556 11.823172 -30.146406
54.875101 11.498621 -30.043043
55.526434 10.570843 -28.872747
66.421104 -28.925973 -5.881922
66.838955 -27.769115 -5.973864
67.293492 -28.637994 -5.102705
66.421104 -28.925973 -5.881922
65.897819 -30.167281 -5.745144
68.399131 -30.38316 2.323918
68.505989 -29.290104 1.439045
69.139537 -31.030024 2.336533
68.399131 -30.38316 2.323918
69.574932 -31.792078 2.365754
69.604423 -30.742321 1.443234
69.139537 -31.030024 2.336533
69.617367 -32.791702 3.328901
69.542575 -33.791954 4.334172
70.082252 -32.503999 2.435601
69.574932 -31.792078 2.365754
69.617367 -32.791702 3.328901
69.095616 -44.011887 10.410875
69.701138 -43.863842 11.23705
69.101845 -44.702934 11.647842
66.317383 -43.142196 5.848514
67.067379 -42.221573 5.397735
67.282726 -42.919494 6.534619
65.509518 -44.108249 6.329818
66.317383 -43.142196 5.848514
65.509518 -44.108249 6.329818
65.705342 -44.771896 7.472243
65.854966 -45.463901 8.64276
65.993939 -46.12903 9.811217
61.593426 7.230384 -29.564794
61.713952 7.132569 -28.161398
62.04469 6.101807 -28.230372
61.153709 8.332187 -30.907609
61.593426 7.230384 -29.564794
68.986004 -38.995815 11.222416
69.124489 -38.238518 9.978687
69.653034 -39.558439 11.418563
68.986004 -38.995815 11.222416
70.038849 -40.201021 11.638856
70.157077 -39.469219 10.374789
69.653034 -39.558439 11.418563
70.445694 -40.817825 11.869906
70.038849 -40.201021 11.638856
70.561267 -41.513254 12.135887
70.658466 -40.80723 10.861065
70.445694 -40.817825 11.869906
70.696583 -42.184283 12.404471
70.561267 -41.513254 12.135887
70.549301 -42.927143 12.717586
70.626758 -42.24552 11.440162
70.696583 -42.184283 12.404471
70.418838 -43.648144 13.027056
70.549301 -42.927143 12.717586
70.093422 -43.771635 12.113647
70.418838 -43.648144 13.027056
48.793045 19.047916 -41.632565
49.47509 19.184376 -42.109425
62.756009 -6.592685 -11.072838
61.851685 -6.537413 -11.190555
63.290142 -13.018553 -6.031986
63.078911 -14.230222 -5.122611
63.358726 -11.78575 -6.964586
63.290142 -13.018553 -6.031986
64.246906 -12.068625 -6.97616
63.4944 -10.564374 -7.929534
63.358726 -11.78575 -6.964586
63.489212 -9.326846 -8.925028
63.4944 -10.564374 -7.929534
64.310303 -9.598293 -8.904254
63.544266 -8.096047 -9.947492
63.489212 -9.326846 -8.925028
63.465618 -6.854744 -11.005899
63.544266 -8.096047 -9.947492
64.226467 -7.119461 -10.958155
63.43821 -5.616099 -12.083501
62.756009 -6.592685 -11.072838
63.465618 -6.854744 -11.005899
50.05312 17.893492 -39.254334
49.112873 18.37228 -40.194073
52.805897 14.037361 -33.304638
53.511707 13.230643 -32.263518
52.000489 14.767006 -34.394573
52.805897 14.037361 -33.304638
52.839756 15.149677 -34.681221
51.225803 15.47299 -35.379436
52.000489 14.767006 -34.394573
51.157696 16.490919 -36.796349
51.225803 15.47299 -35.379436
51.023936 17.377009 -38.209526
51.157696 16.490919 -36.796349
51.900588 16.765411 -37.184333
50.796011 18.167984 -39.642319
50.05312 17.893492 -39.254334
51.023936 17.377009 -38.209526
67.292603 -21.163981 -7.76537
67.68283 -22.152703 -6.890757
67.112793 -22.280493 -7.798771
66.959682 -20.11455 -8.638955
67.52972 -19.98676 -7.730941
67.292603 -21.163981 -7.76537
66.581306 -19.122367 -9.568867
66.959682 -20.11455 -8.638955
67.280991 -26.551783 -6.045407
66.838955 -27.769115 -5.973864
62.661373 -16.659653 -3.387393
62.939305 -15.457835 -4.248007
63.694901 -16.978176 -3.467739
62.661373 -16.659653 -3.387393
64.516243 -17.439684 -3.551861
64.720451 -16.218163 -4.378474
63.694901 -16.978176 -3.467739
65.424919 -17.898663 -3.658256
64.516243 -17.439684 -3.551861
66.07986 -18.51565 -3.76209
66.196735 -17.296658 -4.56643
65.424919 -17.898663 -3.658256
66.832119 -19.11013 -3.87767
66.07986 -18.51565 -3.76209
66.060303 -19.712135 -2.969495
65.602756 -23.316721 -0.652178
66.547939 -23.870879 -0.770562
65.816963 -22.116214 -1.422273
64.752293 -22.743079 -0.530969
65.602756 -23.316721 -0.652178
66.739994 -21.498236 -2.314278
65.88953 -20.924594 -2.19307
65.816963 -22.116214 -1.422273
69.146312 -28.897947 0.560146
68.483272 -28.207784 0.585179
68.505989 -29.290104 1.439045
66.790878 -31.847598 -3.973285
66.350235 -30.975925 -4.847813
67.316284 -30.666525 -4.136234
66.271454 -32.966904 -3.776218
66.790878 -31.847598 -3.973285
67.237503 -32.657504 -3.064638
65.675454 -34.157682 -3.538936
66.271454 -32.966904 -3.776218
65.675454 -34.157682 -3.538936
66.102696 -34.905441 -2.593563
69.354363 -36.570197 7.601223
69.222752 -37.42169 8.775495
70.031036 -36.301445 6.619364
69.41761 -35.67866 6.472476
69.354363 -36.570197 7.601223
65.889561 -36.782806 -1.340514
66.516441 -35.71611 -1.653325
66.918689 -36.464844 -0.674284
65.889561 -36.782806 -1.340514
65.218795 -37.909592 -0.992976
59.943237 -4.194193 -13.751359
60.018158 -5.424171 -12.617971
60.929824 -4.046293 -13.55622
59.893875 -2.987023 -14.882506
60.691467 -1.588274 -15.852446
59.730438 -1.758981 -16.045344
59.943237 -4.194193 -13.751359
59.893875 -2.987023 -14.882506
57.634062 6.44916 -24.231003
58.037494 5.336701 -23.083641
57.141033 7.530197 -25.433267
57.634062 6.44916 -24.231003
58.044516 7.794243 -25.391132
56.658203 8.581604 -26.567763
57.141033 7.530197 -25.433267
56.97921 9.885337 -27.784754
56.085926 9.59166 -27.759119
56.658203 8.581604 -26.567763
65.731678 -12.436699 -13.505384
66.036575 -13.508487 -12.429494
65.915622 -11.181188 -13.461555
65.731678 -12.436699 -13.505384
65.438782 -11.3142 -14.590101
65.379768 -7.8018 -15.635962
65.663742 -8.934257 -14.483155
65.338752 -8.926232 -15.699078
65.09814 -6.629539 -16.794567
65.42313 -6.637564 -15.578643
65.379768 -7.8018 -15.635962
64.828102 -5.486282 -18.007009
65.09814 -6.629539 -16.794567
64.537937 -4.3098 -19.223988
64.851337 -4.288822 -17.954228
64.828102 -5.486282 -18.007009
64.281635 -3.156891 -20.48514
64.537937 -4.3098 -19.223988
63.98378 -1.978689 -21.749912
64.263317 -1.934138 -20.435978
64.281635 -3.156891 -20.48514
63.734463 -0.82008 -23.047798
63.98378 -1.978689 -21.749912
63.424087 0.354716 -24.348881
63.655086 0.418859 -23.001833
63.734463 -0.82008 -23.047798
63.167533 1.511583 -25.671584
63.424087 0.354716 -24.348881
62.833219 2.674707 -26.997448
63.010397 2.756779 -25.62878
63.167533 1.511583 -25.671584
62.547956 3.818554 -28.333754
62.833219 2.674707 -26.997448
62.300123 5.059762 -28.294207
62.547956 3.818554 -28.333754
59.270462 11.265851 -37.664719
59.357975 11.466609 -36.311363
59.151997 11.008966 -38.994263
59.111573 10.595254 -40.237301
58.605992 12.180707 -38.960564
59.270462 11.265851 -37.664719
59.151997 11.008966 -38.994263
55.95044 14.209831 -44.029968
55.239573 15.294148 -43.983459
56.174044 14.618695 -42.767921
55.803663 13.637057 -45.200432
55.95044 14.209831 -44.029968
56.738135 12.961604 -43.984893
3 1 161 163
3 163 162 40
3 161 162 163
3 1 164 165
3 0 43 41
3 2 47 45
3 2 49 47
3 4 166 168
3 166 167 168
3 6 52 50
3 6 54 52
3 7 57 55
3 7 59 57
3 8 169 171
3 171 170 60
3 169 170 171
3 172 62 173
3 174 64 175
3 176 175 62
3 174 175 176
3 9 67 65
3 9 69 67
3 3 72 70
3 177 75 178
3 179 178 73
3 177 178 179
3 181 180 75
3 5 182 184
3 182 77 183
3 182 183 184
3 10 80 78
3 10 81 80
3 10 83 81
3 185 86 186
3 187 186 84
3 185 186 187
3 189 188 86
3 11 190 192
3 192 191 89
3 190 191 192
3 12 92 90
3 14 93 42
3 14 94 93
3 193 95 194
3 196 195 96
3 16 197 199
3 197 98 198
3 197 198 199
3 16 99 98
3 200 102 201
3 202 201 100
3 200 201 202
3 18 103 44
3 18 104 103
3 18 203 205
3 205 204 104
3 203 204 205
3 19 107 105
3 21 108 46
3 21 109 108
3 21 111 109
3 23 112 48
3 23 206 208
3 208 207 112
3 206 207 208
3 13 113 91
3 25 114 51
3 25 115 114
3 25 116 115
3 26 117 53
3 26 118 117
3 27 119 56
3 27 120 119
3 27 121 120
3 28 122 58
3 28 123 122
3 29 126 124
3 210 209 61
3 211 127 212
3 31 213 215
3 213 128 214
3 213 214 215
3 31 129 128
3 31 130 129
3 32 131 63
3 32 132 131
3 15 133 97
3 33 134 66
3 33 135 134
3 33 136 135
3 34 137 68
3 34 216 218
3 218 217 137
3 216 217 218
3 24 219 221
3 219 138 220
3 219 220 221
3 35 139 71
3 35 140 139
3 17 141 101
3 36 142 74
3 36 143 142
3 36 144 143
3 222 145 223
3 224 223 76
3 222 223 224
3 226 225 145
3 20 146 106
3 228 227 79
3 37 147 82
3 37 148 147
3 22 149 110
3 38 150 85
3 38 151 150
3 38 152 151
3 39 153 87
3 39 154 153
3 30 155 125
3 229 156 230
3 231 230 88
3 229 230 231
3 232 157 233
3 234 233 156
3 232 233 234
3 235 158 236
3 238 237 158
3 239 159 240
3 239 240 241
3 242 160 243
3 244 243 159
3 242 243 244
3 246 245 160
3 40 247 249
3 249 248 11
3 247 248 249
3 251 250 40
3 41 42 12
3 43 42 41
3 43 14 42
3 252 16 253
3 254 44 255
3 256 44 257
3 258 18 259
3 260 259 44
3 258 259 260
3 262 261 18
3 45 46 19
3 47 46 45
3 47 21 46
3 47 48 21
3 49 48 47
3 49 23 48
3 50 51 13
3 52 51 50
3 52 25 51
3 52 53 25
3 54 53 52
3 54 26 53
3 55 263 265
3 263 56 264
3 263 264 265
3 57 56 55
3 57 27 56
3 57 58 27
3 59 58 57
3 59 28 58
3 60 61 29
3 266 61 267
3 268 267 60
3 266 267 268
3 270 269 61
3 62 271 272
3 62 273 275
3 273 31 274
3 273 274 275
3 62 63 31
3 64 63 62
3 64 32 63
3 65 66 15
3 67 66 65
3 67 33 66
3 67 68 33
3 69 68 67
3 69 34 68
3 70 71 24
3 72 71 70
3 72 35 71
3 73 74 17
3 75 74 73
3 75 36 74
3 75 76 36
3 276 76 277
3 278 277 75
3 276 277 278
3 280 279 76
3 77 281 282
3 77 283 284
3 78 79 20
3 80 79 78
3 80 285 287
3 287 286 79
3 285 286 287
3 80 288 289
3 81 290 292
3 292 291 80
3 290 291 292
3 81 293 294
3 81 295 297
3 295 82 296
3 295 296 297
3 83 82 81
3 83 37 82
3 84 85 22
3 86 85 84
3 86 38 85
3 86 87 38
3 298 87 299
3 300 299 86
3 298 299 300
3 301 39 302
3 303 302 87
3 301 302 303
3 304 88 305
3 306 305 30
3 304 305 306
3 307 88 308
3 310 309 88
3 89 311 313
3 313 312 4
3 311 312 313
3 315 314 89
3 317 316 11
3 90 318 320
3 318 91 319
3 318 319 320
3 92 91 90
3 92 13 91
3 42 92 12
3 93 92 42
3 93 13 92
3 93 50 13
3 94 50 93
3 94 6 50
3 321 55 322
3 95 323 325
3 323 55 324
3 323 324 325
3 95 7 55
3 96 326 328
3 328 327 8
3 326 327 328
3 330 329 96
3 331 97 332
3 333 97 334
3 335 15 336
3 337 336 97
3 335 336 337
3 98 338 339
3 98 340 342
3 340 15 341
3 340 341 342
3 98 65 15
3 99 65 98
3 99 9 65
3 100 101 3
3 102 101 100
3 102 17 101
3 44 343 345
3 343 102 344
3 343 344 345
3 103 102 44
3 103 17 102
3 103 73 17
3 104 73 103
3 104 346 348
3 348 347 73
3 346 347 348
3 104 349 350
3 352 351 104
3 354 353 18
3 105 106 5
3 107 106 105
3 107 20 106
3 46 107 19
3 108 107 46
3 108 20 107
3 108 78 20
3 109 78 108
3 109 10 78
3 109 110 10
3 111 110 109
3 111 22 110
3 48 111 21
3 112 111 48
3 112 22 111
3 112 84 22
3 355 84 356
3 357 356 112
3 355 356 357
3 359 358 84
3 360 24 361
3 362 24 363
3 364 70 365
3 366 365 24
3 364 365 366
3 367 70 368
3 369 3 370
3 371 370 70
3 369 370 371
3 372 3 373
3 374 100 375
3 376 375 3
3 374 375 376
3 377 100 378
3 380 379 100
3 382 381 4
3 383 5 384
3 91 385 386
3 113 387 389
3 389 388 91
3 387 388 389
3 113 390 391
3 51 113 13
3 114 113 51
3 114 392 394
3 394 393 113
3 392 393 394
3 114 395 396
3 115 397 399
3 399 398 114
3 397 398 399
3 115 400 402
3 400 5 401
3 400 401 402
3 115 105 5
3 116 105 115
3 116 19 105
3 53 116 25
3 117 116 53
3 117 19 116
3 117 45 19
3 118 45 117
3 118 2 45
3 403 4 404
3 56 405 406
3 119 407 409
3 409 408 56
3 407 408 409
3 119 410 411
3 119 412 413
3 120 414 416
3 416 415 119
3 414 415 416
3 120 417 419
3 417 4 418
3 417 418 419
3 120 89 4
3 121 89 120
3 121 11 89
3 58 121 27
3 122 121 58
3 122 11 121
3 122 40 11
3 123 40 122
3 123 1 40
3 124 125 0
3 126 125 124
3 126 30 125
3 61 126 29
3 420 126 421
3 422 421 61
3 420 421 422
3 423 30 424
3 425 424 126
3 423 424 425
3 427 426 30
3 429 428 8
3 430 90 431
3 432 90 433
3 434 12 435
3 436 435 90
3 434 435 436
3 437 12 438
3 439 41 440
3 441 440 12
3 439 440 441
3 127 442 444
3 442 41 443
3 442 443 444
3 127 0 41
3 128 445 446
3 128 447 449
3 447 448 449
3 128 450 452
3 450 127 451
3 450 451 452
3 129 127 128
3 129 0 127
3 129 124 0
3 130 124 129
3 130 29 124
3 63 130 31
3 131 130 63
3 131 29 130
3 131 60 29
3 132 60 131
3 132 8 60
3 97 453 455
3 453 64 454
3 453 454 455
3 133 64 97
3 133 32 64
3 66 133 15
3 134 133 66
3 134 32 133
3 134 132 32
3 135 132 134
3 135 8 132
3 135 96 8
3 136 96 135
3 136 456 458
3 458 457 96
3 456 457 458
3 68 136 33
3 137 136 68
3 137 459 461
3 461 460 136
3 459 460 461
3 137 462 463
3 465 464 137
3 138 466 467
3 138 468 470
3 468 16 469
3 468 469 470
3 71 138 24
3 139 138 71
3 139 16 138
3 139 99 16
3 140 99 139
3 140 9 99
3 101 72 3
3 141 72 101
3 141 35 72
3 74 141 17
3 142 141 74
3 142 35 141
3 142 140 35
3 143 140 142
3 143 9 140
3 143 69 9
3 144 69 143
3 144 34 69
3 76 144 36
3 145 144 76
3 145 34 144
3 145 471 473
3 473 472 34
3 471 472 473
3 475 474 145
3 106 77 5
3 146 77 106
3 146 476 478
3 478 477 77
3 476 477 478
3 79 146 20
3 479 146 480
3 481 480 79
3 479 480 481
3 483 482 146
3 82 484 485
3 147 486 488
3 488 487 82
3 486 487 488
3 147 489 490
3 147 491 493
3 491 95 492
3 491 492 493
3 148 95 147
3 148 7 95
3 110 83 10
3 149 83 110
3 149 37 83
3 85 149 22
3 150 149 85
3 150 37 149
3 150 148 37
3 151 148 150
3 151 7 148
3 151 59 7
3 152 59 151
3 152 28 59
3 87 152 38
3 153 152 87
3 153 28 152
3 153 123 28
3 154 123 153
3 154 1 123
3 125 43 0
3 155 43 125
3 155 14 43
3 88 155 30
3 156 155 88
3 156 14 155
3 156 94 14
3 157 94 156
3 157 6 94
3 494 157 495
3 158 496 498
3 496 157 497
3 496 497 498
3 158 6 157
3 158 54 6
3 499 54 500
3 501 500 158
3 499 500 501
3 502 26 503
3 504 503 54
3 502 503 504
3 505 26 506
3 507 118 508
3 509 508 26
3 507 508 509
3 510 118 511
3 512 2 513
3 514 513 118
3 512 513 514
3 515 2 516
3 517 49 518
3 519 518 2
3 517 518 519
3 520 49 521
3 522 23 523
3 524 523 49
3 522 523 524
3 525 23 526
3 528 527 23
3 529 39 530
3 159 531 532
3 159 533 535
3 533 39 534
3 533 534 535
3 159 154 39
3 160 154 159
3 160 1 154
3 160 536 538
3 538 537 1
3 536 537 538
3 541 540 160
3 539 540 541
