ply
format ascii 1.0
element vertex 712
property float x
property float y
property float z
element face 767
property list uchar int vertex_index
end_header
51.639511 -32.794903 52.631256
30.329344 -49.452221 68.779091
18.178616 -53.479465 81.480354
62.929413 -19.970882 45.467152
28.321741 -43.456738 75.62883
25.28447 -51.364849 76.116203
20.623325 -44.430649 81.431229
34.451332 -42.006218 67.993462
58.108303 -26.096977 50.846519
44.337627 -39.800705 51.59536
51.873646 -42.390968 50.096649
46.994091 -32.164223 59.064026
38.970741 -40.016441 58.660324
33.640358 -47.715473 59.406143
66.557228 -23.323652 39.77034
24.59152 -43.941124 78.654922
55.070618 -29.388882 52.214859
57.829395 -30.816097 50.561684
54.674362 -34.151932 51.322388
41.009239 -43.448776 51.057022
44.684074 -44.312164 49.278549
31.633566 -52.431484 65.5868
21.921888 -52.394897 78.952087
42.9142 -36.12851 58.937027
40.735016 -37.146191 63.534851
31.657032 -45.63134 68.077118
33.739655 -44.72805 63.486992
32.05669 -48.534645 64.239517
66.768883 -18.629444 38.845787
64.96122 -21.536032 42.63092
29.164598 -46.438511 72.148979
28.109283 -50.392769 72.757088
26.175505 -47.167068 75.650917
22.767311 -47.89254 78.712585
19.069284 -48.675446 81.545082
31.648367 -42.846184 72.116562
60.704067 -22.964016 48.54068
62.957024 -24.482977 46.006824
60.605087 -27.56864 48.737709
47.979713 -36.264526 52.291237
51.291225 -37.49733 51.088821
47.888275 -40.857765 50.216095
48.844193 -45.729065 48.883873
43.738102 -52.770187 47.940857
16.541794 -45.018311 84.167046
15.212624 -49.535141 84.31353
58.585106 -21.789787 51.452217
55.960098 -24.972113 53.670197
52.786957 -28.408407 54.911247
50.761421 -28.222511 58.584915
49.136597 -32.040131 55.255493
45.224823 -35.762276 54.980782
41.385513 -39.521675 54.516556
38.037437 -43.33247 54.33934
36.793819 -40.977081 63.37014
35.722729 -43.862556 58.707764
35.581139 -47.192764 54.806671
55.04586 -39.065025 50.9412
53.396317 -31.08157 52.535004
54.777729 -31.741796 51.676109
53.088905 -33.424568 51.829567
39.559013 -45.32114 50.99292
41.301807 -45.622452 49.787338
30.99173 -50.950066 67.178574
30.962727 -52.948273 67.882385
30.147018 -51.449802 69.367432
20.085932 -52.932503 80.239365
42.821236 -35.155731 63.565598
30.810083 -47.512062 68.340019
31.80183 -47.067959 66.112602
31.238251 -48.988602 66.568695
31.723553 -50.472786 64.861664
63.948341 -18.505676 43.711693
64.96286 -19.253033 42.25499
63.972588 -20.714556 44.044636
28.712738 -44.939354 73.90947
27.729721 -46.808151 73.96608
27.080193 -45.249031 75.601524
22.628189 -44.178223 80.058792
23.534988 -45.839645 78.672279
21.658875 -46.145138 80.109016
20.946453 -48.274559 80.143944
19.7351 -46.469574 81.51799
29.858852 -41.773479 75.651962
31.675447 -41.493305 73.992249
30.045753 -43.175598 73.945427
30.228975 -44.601776 72.081215
59.459484 -24.510048 49.80275
60.614845 -25.231842 48.581718
59.311829 -26.809168 49.718918
57.917015 -33.243496 50.651093
59.370888 -31.577808 49.986839
46.138798 -38.021721 51.95649
47.790955 -38.518555 51.143471
46.043953 -40.245422 50.714996
46.723885 -44.972473 48.939758
26.771292 -50.872948 74.511375
27.984617 -52.497692 73.269493
26.640673 -53.045197 74.962227
14.490082 -45.363171 85.536087
15.799628 -47.194614 84.320045
13.818329 -47.596634 85.703918
12.796728 -52.492332 85.422707
56.31789 -22.984755 54.328918
54.954742 -24.643223 55.356537
54.441307 -26.659859 54.412704
53.434685 -26.38516 56.128319
47.913754 -30.504757 61.043564
49.736214 -28.473923 60.63855
48.938499 -30.178356 58.924652
49.955383 -30.076591 56.944168
48.038651 -31.987366 57.04158
47.195 -33.895233 55.171349
46.048496 -33.914219 56.987251
40.891624 -38.081917 58.786522
42.035076 -37.766525 56.642502
40.124943 -39.686333 56.472939
39.622509 -41.41914 54.364716
38.363403 -41.607132 56.384644
36.284836 -40.212185 68.059685
37.541039 -39.656113 65.794769
35.666515 -41.504307 65.725632
33.602463 -46.184185 61.371056
34.717113 -44.274864 61.088554
34.518818 -45.787945 58.966286
35.526226 -45.466724 56.639824
34.53484 -47.400856 57.035561
66.65255 -20.970613 39.275902
67.436371 -19.510296 37.28046
63.069893 -26.805841 46.416168
64.078835 -25.311533 44.811859
51.477592 -39.928246 50.557457
53.128876 -38.267075 50.936188
53.453568 -40.732922 50.609467
27.932449 -42.000477 77.175598
26.496252 -43.706024 77.18895
25.922247 -42.195232 78.592072
23.852737 -42.378799 79.934662
21.744152 -42.569702 81.236862
56.644669 -27.724815 51.653351
57.902168 -28.424793 50.622925
56.38765 -30.072155 51.27697
56.291866 -32.479172 51.077034
56.375801 -34.921726 51.022507
42.614632 -41.608253 51.274734
44.358719 -42.00116 50.301628
42.767616 -43.792946 49.97287
43.221794 -46.096127 48.970459
43.939198 -48.495384 48.269043
23.661942 -51.871765 77.588066
25.126675 -53.610268 76.48568
45.956501 -32.551651 61.238892
44.968853 -34.153587 59.049736
43.91013 -34.583321 61.272415
41.833191 -36.580666 61.200508
39.796051 -38.538712 61.084892
32.883396 -43.802559 67.977005
34.038551 -43.339378 65.718475
32.735115 -45.187748 65.833504
32.716312 -46.619858 63.774513
32.836479 -48.103127 61.832458
32.396717 -50.029621 62.45533
32.217239 -51.959602 63.191063
65.880096 -20.083733 40.778061
65.846184 -22.412874 41.211014
29.706347 -47.945576 70.429878
29.293242 -49.920238 70.845833
28.471428 -48.369316 72.37114
27.100163 -48.788536 74.165138
25.598139 -49.210217 75.822693
25.348011 -45.544682 77.179802
24.515867 -47.525555 77.224396
23.977859 -49.640976 77.362244
22.255463 -50.085659 78.808464
20.448788 -50.546532 80.189888
18.576929 -51.023006 81.533997
34.896088 -40.714516 70.195831
33.359318 -41.143066 72.176132
33.117012 -42.457104 70.131233
31.618814 -44.224731 70.103653
30.472633 -46.048378 70.186607
61.854782 -21.453848 47.085957
62.93045 -22.19142 45.714264
61.816944 -23.694132 47.236778
61.831902 -26.00432 47.470078
61.952911 -28.348249 47.839104
59.27034 -29.17519 49.776901
60.719551 -29.941307 49.041016
49.824276 -34.52314 52.535019
51.343433 -35.114586 51.762169
49.567734 -36.811073 51.514862
49.578461 -39.171558 50.699585
49.843597 -41.590797 50.042221
46.247959 -42.567833 49.716431
48.251549 -43.267776 49.47403
50.330429 -44.051373 49.489815
42.711559 -50.309566 48.226509
29.151587 -51.966194 71.402733
19.611927 -42.782639 82.527641
17.46814 -43.028221 83.82621
18.590538 -44.708443 82.796608
17.777386 -46.818535 82.919624
17.151989 -49.096298 82.934303
16.660904 -51.511456 82.859077
11.854837 -48.018055 87.029381
13.272943 -49.986053 85.660378
14.724787 -52.004917 84.164536
16.227627 -54.027237 82.694695
62.862076 -17.866926 45.152138
61.854286 -19.328312 46.9086
60.785202 -20.808571 48.515358
59.631714 -22.318983 49.943726
58.374054 -23.870424 51.166107
57.339336 -23.349846 52.680267
56.99836 -25.470268 52.160301
55.498596 -27.120522 52.913208
53.877571 -28.817524 53.423317
52.147087 -30.55335 53.701813
52.43335 -26.326355 58.00927
51.762856 -28.202045 56.650764
51.011017 -30.206625 55.182426
50.327232 -32.31831 53.772797
48.445236 -34.103867 53.672928
46.534397 -35.904987 53.450302
44.633171 -37.721169 53.162148
44.029629 -35.842758 56.834442
43.271301 -37.637337 54.741974
42.784496 -39.555691 52.871155
41.03466 -41.413216 52.64019
39.430943 -43.296459 52.5261
38.016941 -45.202988 52.573166
38.696499 -39.082054 63.447945
37.877827 -40.464439 60.988922
35.115799 -42.852165 63.364845
36.160145 -42.371658 60.972977
37.224758 -41.940376 58.617393
36.813026 -43.533699 56.428192
36.67905 -45.259804 54.479881
36.826035 -47.123367 52.807236
67.636971 -17.16787 36.853157
63.993866 -22.997719 44.3829
64.99659 -23.853304 43.065361
65.864601 -24.74272 41.733063
52.998951 -35.825523 51.314453
54.770821 -36.59864 51.10807
39.773571 -46.402439 50.389168
38.926924 -46.269003 51.053955
18.967577 -54.440392 80.869862
19.921235 -54.166911 80.249367
19.132274 -53.205984 80.859859
17.98003 -54.745103 81.421097
18.967577 -54.440392 80.869862
58.76236 -33.620743 50.467656
58.035044 -34.466036 50.730793
13.47114 -45.551955 86.204624
13.841964 -44.500265 85.988056
13.135264 -46.668686 86.288539
14.154205 -46.479903 85.620002
13.47114 -45.551955 86.204624
54.445557 -24.579437 56.265907
55.109768 -23.724462 55.715855
53.685528 -25.450406 56.651798
54.194714 -25.514191 55.742428
54.445557 -24.579437 56.265907
33.740555 -48.520451 58.506366
34.187796 -48.363142 57.321075
34.087599 -47.558165 58.220852
66.886871 -22.604709 38.758362
66.934533 -21.428189 38.511143
66.604889 -22.147132 39.523121
66.786041 -23.785536 39.035223
66.886871 -22.604709 38.758362
63.663441 -27.215945 45.888022
63.17936 -27.970444 46.681484
26.69765 -41.388254 78.493664
26.927348 -42.097854 77.883835
27.702751 -41.290876 77.785427
23.462034 -41.628849 80.402062
24.572523 -41.555868 79.796444
22.407742 -41.7243 81.053162
22.798445 -42.47425 80.585762
23.462034 -41.628849 80.402062
27.702751 -41.290876 77.785427
28.760937 -41.200388 77.110405
42.552452 -47.006831 48.90604
42.2618 -45.85929 49.378898
41.592458 -46.769993 49.31448
42.911154 -48.206459 48.555332
43.580496 -47.295755 48.619751
42.552452 -47.006831 48.90604
31.651933 -53.419935 65.959812
31.915714 -53.161199 64.775318
30.992265 -53.963166 68.237079
30.556215 -53.222872 68.96072
22.69031 -53.294118 78.404221
23.560337 -53.032553 77.72221
22.791915 -52.133331 78.270077
45.416224 -32.831094 62.358318
46.39485 -31.78962 62.226974
44.393038 -33.84693 62.37508
44.933316 -33.567486 61.255654
45.416224 -32.831094 62.358318
31.915714 -53.161199 64.775318
32.20755 -52.925258 63.57745
31.925402 -52.195543 64.388931
35.081932 -40.083058 71.183628
35.877476 -39.835983 70.205891
60.839748 -31.135601 49.244484
60.04522 -30.759557 49.513928
60.165417 -31.953851 49.717396
61.45492 -30.322754 48.682389
60.839748 -31.135601 49.244484
49.921043 -46.131218 48.944405
50.664162 -45.292372 49.247376
49.587311 -44.890219 49.186844
43.22483 -51.539876 48.083683
42.15699 -51.225793 48.311348
42.670261 -52.456104 48.168522
44.305523 -51.866686 47.904699
43.792251 -50.636375 48.047525
43.22483 -51.539876 48.083683
28.570994 -53.284752 72.648891
27.975711 -53.582884 73.550194
25.851059 -54.447842 75.961804
25.060437 -54.766855 76.669517
19.094957 -42.004971 82.894722
20.220278 -41.910733 82.294808
17.004967 -44.023266 83.996628
16.39617 -43.170487 84.481189
15.932997 -44.165532 84.651607
11.607373 -49.227862 86.976688
10.895876 -48.231558 87.628639
12.316426 -50.211861 86.292187
12.56389 -49.002054 86.344879
11.607373 -49.227862 86.976688
14.494445 -53.284294 84.022366
13.760758 -52.248624 84.793622
13.530416 -53.528002 84.651452
15.245865 -54.295454 83.287445
15.476207 -53.016077 83.429615
14.494445 -53.284294 84.022366
15.998499 -55.317108 82.562706
15.245865 -54.295454 83.287445
62.746493 -16.891627 44.903137
63.347012 -17.141636 44.212235
61.299423 -19.068979 47.639679
61.781075 -18.343511 46.742604
60.764881 -19.809108 48.443058
61.319744 -20.068441 47.711979
61.299423 -19.068979 47.639679
59.10841 -22.054385 50.697971
59.672191 -21.300199 49.975056
59.148888 -21.035601 50.729301
51.076418 -27.359593 59.286038
50.563814 -27.485299 60.312855
50.248818 -28.348217 59.611733
51.597386 -27.274433 58.297093
51.912382 -26.411515 58.998215
51.076418 -27.359593 59.286038
35.727494 -48.117097 54.019268
36.349941 -48.082399 53.019551
36.203587 -47.158065 53.806954
67.202927 -17.898657 37.849472
67.245094 -16.759458 37.628094
66.81105 -17.490245 38.624409
67.821495 -18.765939 36.261364
67.651436 -19.959262 36.480524
65.052208 -25.010854 43.336655
64.537712 -24.582419 43.93861
64.593331 -25.739968 44.209903
65.486213 -25.455562 42.670506
65.430595 -24.298012 42.399212
65.052208 -25.010854 43.336655
55.834164 -38.223571 50.982143
55.696644 -36.990379 51.065579
54.90834 -37.831833 51.024635
40.644968 -46.553095 49.786377
40.43041 -45.471796 50.390129
39.773571 -46.402439 50.389168
41.592458 -46.769993 49.31448
40.644968 -46.553095 49.786377
30.14836 -52.473636 69.703243
30.556215 -53.222872 68.96072
30.554873 -52.199038 68.624909
20.872718 -53.862391 79.670857
21.790696 -53.593587 79.027218
21.00391 -52.6637 79.595726
20.872718 -53.862391 79.670857
19.921235 -54.166911 80.249367
43.262268 -34.471598 64.631996
43.848591 -34.133134 63.521671
42.236217 -35.484287 64.70607
43.262268 -34.471598 64.631996
41.193107 -36.479517 64.690697
41.778126 -36.150961 63.550224
42.236217 -35.484287 64.70607
64.455601 -18.879354 42.983341
64.94709 -18.15234 42.049221
64.43983 -17.778661 42.777572
30.767149 -41.633392 74.822105
31.644174 -40.829203 74.78347
30.735876 -40.96929 75.613327
59.489296 -32.787899 50.135529
58.643952 -32.410652 50.318966
58.76236 -33.620743 50.467656
60.165417 -31.953851 49.717396
59.489296 -32.787899 50.135529
46.002305 -45.843357 48.728935
45.70398 -44.642319 49.109153
44.982399 -45.513203 48.898331
47.077642 -46.204729 48.654125
46.002305 -45.843357 48.728935
48.137796 -46.583025 48.626182
47.784039 -45.350769 48.911816
47.077642 -46.204729 48.654125
49.23341 -46.974083 48.655304
48.137796 -46.583025 48.626182
43.216278 -53.677938 48.078565
42.670261 -52.456104 48.168522
27.303739 -53.856637 74.39656
27.975711 -53.582884 73.550194
27.312645 -52.771445 74.11586
14.907141 -44.337962 85.336128
13.841964 -44.500265 85.988056
15.515938 -45.190741 84.851566
15.932997 -44.165532 84.651607
14.907141 -44.337962 85.336128
11.853176 -52.724964 85.999379
12.078318 -51.465 86.173351
12.559767 -53.782529 85.213883
11.853176 -52.724964 85.999379
13.530416 -53.528002 84.651452
12.559767 -53.782529 85.213883
58.597 -20.843521 51.500488
59.148888 -21.035601 50.729301
55.791342 -22.895228 55.202045
56.371652 -22.091043 54.522628
55.636316 -23.813989 54.842728
55.791342 -22.895228 55.202045
55.109768 -23.724462 55.715855
48.824984 -29.48934 60.841057
49.189148 -28.706921 61.684311
48.277918 -29.722338 61.886818
36.912937 -39.934149 66.927227
37.913906 -39.020748 66.94804
37.285805 -39.298784 68.080498
34.644389 -48.258978 56.176159
35.167538 -48.154932 55.061714
35.05799 -47.29681 55.921116
34.644389 -48.258978 56.176159
34.187796 -48.363142 57.321075
67.326443 -20.698031 37.513422
67.04446 -20.240454 38.278181
66.934533 -21.428189 38.511143
67.651436 -19.959262 36.480524
67.326443 -20.698031 37.513422
64.167912 -26.468791 45.085867
63.574364 -26.058687 45.614013
63.663441 -27.215945 45.888022
64.593331 -25.739968 44.209903
64.167912 -26.468791 45.085867
25.607278 -41.464084 79.125149
26.69765 -41.388254 78.493664
24.887492 -42.287015 79.263367
25.607278 -41.464084 79.125149
24.572523 -41.555868 79.796444
29.724139 -41.086889 76.348587
30.735876 -40.96929 75.613327
28.89565 -41.886978 76.41378
29.724139 -41.086889 76.348587
28.760937 -41.200388 77.110405
57.264437 -35.305151 50.9165
58.035044 -34.466036 50.730793
57.146408 -34.082611 50.8368
44.251259 -46.405184 48.744286
44.982399 -45.513203 48.898331
43.952934 -45.204146 49.124504
44.609961 -47.604813 48.393578
44.251259 -46.405184 48.744286
43.580496 -47.295755 48.619751
45.022019 -48.838752 48.142189
44.609961 -47.604813 48.393578
31.316513 -53.67833 67.107605
31.651933 -53.419935 65.959812
31.298147 -52.689878 66.734592
31.316513 -53.67833 67.107605
30.992265 -53.963166 68.237079
24.292704 -53.901804 77.171017
24.394309 -52.741017 77.036873
23.560337 -53.032553 77.72221
25.060437 -54.766855 76.669517
24.292704 -53.901804 77.171017
22.69031 -53.294118 78.404221
21.790696 -53.593587 79.027218
47.373476 -30.766173 62.129311
48.277918 -29.722338 61.886818
46.935128 -31.528204 61.141228
47.373476 -30.766173 62.129311
46.39485 -31.78962 62.226974
43.365683 -34.869526 62.419007
44.393038 -33.84693 62.37508
43.848591 -34.133134 63.521671
32.957325 -48.871056 60.923057
33.359264 -48.677229 59.7099
33.238418 -47.9093 60.619301
32.737444 -49.834303 61.234493
32.957325 -48.871056 60.923057
32.616598 -49.066374 62.143894
32.590187 -50.790184 61.600815
32.737444 -49.834303 61.234493
32.500448 -51.755174 61.968682
32.590187 -50.790184 61.600815
32.306978 -50.994611 62.823196
32.445988 -52.702627 62.363163
32.500448 -51.755174 61.968682
32.445988 -52.702627 62.363163
32.20755 -52.925258 63.57745
66.344086 -18.214236 39.606781
66.81105 -17.490245 38.624409
65.441075 -18.52603 41.311383
64.94709 -18.15234 42.049221
65.899693 -18.941381 40.572918
65.441075 -18.52603 41.311383
65.421478 -19.668383 41.516526
66.324489 -19.356589 39.811924
66.344086 -18.214236 39.606781
65.899693 -18.941381 40.572918
52.904364 -42.798694 50.173557
52.156924 -43.629266 49.871311
36.57185 -39.584818 69.137818
37.285805 -39.298784 68.080498
35.590462 -40.463351 69.127758
36.57185 -39.584818 69.137818
35.877476 -39.835983 70.205891
32.594754 -40.673454 73.974171
31.644174 -40.829203 74.78347
33.436689 -40.498334 73.066113
32.594754 -40.673454 73.974171
32.517382 -41.318185 73.084191
34.313547 -40.297332 72.173778
33.436689 -40.498334 73.066113
34.127703 -40.928791 71.185981
35.081932 -40.083058 71.183628
34.313547 -40.297332 72.173778
62.620869 -28.741649 47.392952
63.17936 -27.970444 46.681484
62.511402 -27.577045 47.127636
62.0716 -29.526225 48.081432
61.336231 -29.144778 48.44006
61.45492 -30.322754 48.682389
62.620869 -28.741649 47.392952
62.0716 -29.526225 48.081432
51.385315 -44.459469 49.567894
52.156924 -43.629266 49.871311
51.102038 -43.22117 49.793232
51.385315 -44.459469 49.567894
50.664162 -45.292372 49.247376
49.921043 -46.131218 48.944405
49.23341 -46.974083 48.655304
41.697624 -50.037588 48.571865
42.15699 -51.225793 48.311348
42.297335 -49.11355 48.534065
41.697624 -50.037588 48.571865
43.325378 -49.402475 48.247776
42.911154 -48.206459 48.555332
42.297335 -49.11355 48.534065
44.406071 -49.729284 48.068793
43.325378 -49.402475 48.247776
43.792251 -50.636375 48.047525
45.022019 -48.838752 48.142189
44.406071 -49.729284 48.068793
44.322216 -54.020181 47.95279
43.216278 -53.677938 48.078565
44.853815 -53.120199 47.849888
44.322216 -54.020181 47.95279
44.305523 -51.866686 47.904699
44.853815 -53.120199 47.849888
29.650644 -52.731832 70.720894
30.14836 -52.473636 69.703243
29.649302 -51.707998 70.385082
29.15448 -53.019003 71.715511
28.568102 -52.231943 72.336113
28.570994 -53.284752 72.648891
29.650644 -52.731832 70.720894
29.15448 -53.019003 71.715511
26.608058 -54.165306 75.200077
25.883674 -53.327732 75.723953
25.851059 -54.447842 75.961804
27.303739 -53.856637 74.39656
26.608058 -54.165306 75.200077
21.286391 -41.804264 81.649418
22.407742 -41.7243 81.053162
20.67804 -42.67617 81.882251
21.286391 -41.804264 81.649418
20.220278 -41.910733 82.294808
16.899513 -42.240944 84.154461
16.39617 -43.170487 84.481189
18.023064 -42.127762 83.544006
16.899513 -42.240944 84.154461
18.540033 -42.90543 83.176926
19.094957 -42.004971 82.894722
18.023064 -42.127762 83.544006
11.152904 -47.079786 87.575504
10.895876 -48.231558 87.628639
12.153517 -46.879396 86.951271
11.152904 -47.079786 87.575504
12.836583 -47.807344 86.366649
13.135264 -46.668686 86.288539
12.153517 -46.879396 86.951271
13.034835 -51.239193 85.541542
12.316426 -50.211861 86.292187
12.078318 -51.465 86.173351
17.004535 -55.01899 82.028267
17.98003 -54.745103 81.421097
17.203122 -53.753351 82.087525
17.004535 -55.01899 82.028267
15.998499 -55.317108 82.562706
63.890144 -17.461011 43.492012
64.43983 -17.778661 42.777572
63.405209 -18.186301 44.431916
63.890144 -17.461011 43.492012
63.347012 -17.141636 44.212235
62.28497 -17.612818 45.864373
62.746493 -16.891627 44.903137
62.358181 -18.597619 46.030369
62.28497 -17.612818 45.864373
61.781075 -18.343511 46.742604
60.248936 -20.544994 49.260872
60.764881 -19.809108 48.443058
60.208458 -21.563777 49.229542
60.248936 -20.544994 49.260872
59.672191 -21.300199 49.975056
58.057715 -21.598461 52.252567
58.597 -20.843521 51.500488
56.924107 -22.195945 53.690917
56.371652 -22.091043 54.522628
57.43483 -22.37849 52.866592
56.924107 -22.195945 53.690917
56.828613 -23.1673 53.504593
57.962221 -22.569817 52.066242
58.057715 -21.598461 52.252567
57.43483 -22.37849 52.866592
50.001675 -27.682391 61.312691
49.189148 -28.706921 61.684311
50.001675 -27.682391 61.312691
50.563814 -27.485299 60.312855
52.646795 -25.467346 58.537819
51.912382 -26.411515 58.998215
53.18486 -25.421003 57.592274
52.646795 -25.467346 58.537819
52.934017 -26.355757 57.068794
53.685528 -25.450406 56.651798
53.18486 -25.421003 57.592274
38.155888 -46.209927 51.844078
38.926924 -46.269003 51.053955
38.787977 -45.262064 51.783043
40.151474 -37.456278 64.696293
41.193107 -36.479517 64.690697
38.554485 -38.711239 65.826252
37.913906 -39.020748 66.94804
39.132216 -38.42421 64.65284
38.554485 -38.711239 65.826252
38.118769 -39.369084 64.621357
39.715758 -38.114123 63.491398
40.151474 -37.456278 64.696293
39.132216 -38.42421 64.65284
37.560434 -47.170117 51.961113
38.155888 -46.209927 51.844078
37.421488 -46.163178 52.690201
37.030424 -48.121597 52.120396
37.560434 -47.170117 51.961113
37.030424 -48.121597 52.120396
36.349941 -48.082399 53.019551
35.727494 -48.117097 54.019268
35.167538 -48.154932 55.061714
33.740555 -48.520451 58.506366
33.359264 -48.677229 59.7099
67.700066 -16.04193 36.618763
67.245094 -16.759458 37.628094
68.057431 -16.43402 35.838173
67.700066 -16.04193 36.618763
67.921795 -17.594726 36.047713
67.536671 -18.339083 37.066809
67.821495 -18.765939 36.261364
68.057431 -16.43402 35.838173
67.921795 -17.594726 36.047713
65.907772 -25.895015 42.044514
65.486213 -25.455562 42.670506
66.187256 -25.197669 41.047912
65.907772 -25.895015 42.044514
66.533569 -24.488135 40.066551
66.210915 -24.033186 40.751701
66.187256 -25.197669 41.047912
66.786041 -23.785536 39.035223
66.533569 -24.488135 40.066551
56.499134 -36.151922 51.022797
55.573311 -35.760183 51.065288
55.696644 -36.990379 51.065579
57.264437 -35.305151 50.9165
56.499134 -36.151922 51.022797
53.694324 -41.969672 50.429966
52.663607 -41.561945 50.353058
52.904364 -42.798694 50.173557
54.457918 -41.134139 50.66383
53.694324 -41.969672 50.429966
55.254064 -40.30019 50.829696
54.249714 -39.898973 50.775334
54.457918 -41.134139 50.66383
56.020568 -39.455286 50.951649
55.254064 -40.30019 50.829696
55.834164 -38.223571 50.982143
56.020568 -39.455286 50.951649
3 0 60 58
3 246 245 61
3 1 65 63
3 2 247 249
3 249 248 66
3 247 248 249
3 2 250 251
3 1 70 68
3 1 63 70
3 3 74 72
3 4 77 75
3 6 80 78
3 6 82 80
3 4 85 83
3 4 75 85
3 8 89 87
3 253 252 90
3 9 94 92
3 5 98 96
3 254 99 255
3 256 101 257
3 258 257 99
3 256 257 258
3 259 104 260
3 261 106 262
3 263 262 104
3 261 262 263
3 11 109 107
3 11 111 109
3 11 113 111
3 12 116 114
3 12 118 116
3 7 121 119
3 13 124 122
3 13 126 124
3 13 264 266
3 266 265 126
3 264 265 266
3 14 267 269
3 269 268 127
3 267 268 269
3 14 270 271
3 273 272 129
3 10 133 131
3 274 136 275
3 276 275 134
3 274 275 276
3 277 137 278
3 279 138 280
3 281 280 137
3 279 280 281
3 282 134 283
3 16 141 139
3 18 142 59
3 18 143 142
3 19 146 144
3 284 147 285
3 286 285 62
3 284 285 286
3 287 148 288
3 289 288 147
3 287 288 289
3 21 290 291
3 293 292 64
3 22 294 296
3 296 295 149
3 294 295 296
3 297 151 298
3 299 153 300
3 301 300 151
3 299 300 301
3 24 154 67
3 24 155 154
3 25 158 156
3 27 159 69
3 27 160 159
3 27 161 160
3 21 162 71
3 21 302 304
3 304 303 162
3 302 303 304
3 29 163 73
3 29 164 163
3 30 167 165
3 32 168 76
3 32 169 168
3 15 170 135
3 33 171 79
3 33 172 171
3 33 173 172
3 34 174 81
3 34 175 174
3 305 176 306
3 35 177 84
3 35 178 177
3 35 179 178
3 30 180 86
3 30 165 180
3 36 183 181
3 38 184 88
3 38 185 184
3 17 186 140
3 307 187 308
3 309 308 91
3 307 308 309
3 311 310 187
3 39 190 188
3 41 191 93
3 41 192 191
3 20 193 145
3 42 194 95
3 42 195 194
3 42 312 314
3 314 313 195
3 312 313 314
3 43 315 317
3 315 196 316
3 315 316 317
3 43 318 320
3 320 319 196
3 318 319 320
3 31 197 166
3 322 321 97
3 324 323 150
3 325 198 326
3 44 327 329
3 327 199 328
3 327 328 329
3 44 200 199
3 44 201 200
3 45 202 100
3 45 203 202
3 330 204 331
3 332 205 333
3 334 333 204
3 332 333 334
3 335 206 336
3 337 336 102
3 335 336 337
3 338 207 339
3 340 339 206
3 338 339 340
3 342 341 207
3 343 208 344
3 345 209 346
3 347 210 348
3 349 348 209
3 347 348 349
3 46 350 352
3 350 211 351
3 350 351 352
3 46 212 211
3 47 213 103
3 47 214 213
3 47 215 214
3 48 216 105
3 48 217 216
3 49 353 355
3 355 354 108
3 353 354 355
3 49 356 358
3 356 218 357
3 356 357 358
3 49 219 218
3 50 220 110
3 50 221 220
3 50 222 221
3 51 223 112
3 51 224 223
3 23 225 152
3 52 226 115
3 52 227 226
3 52 228 227
3 53 229 117
3 53 230 229
3 54 231 120
3 54 232 231
3 26 233 157
3 55 234 123
3 55 235 234
3 55 236 235
3 56 237 125
3 56 238 237
3 56 359 361
3 361 360 238
3 359 360 361
3 28 362 364
3 362 239 363
3 362 363 364
3 366 365 128
3 37 240 182
3 367 241 368
3 369 368 130
3 367 368 369
3 370 242 371
3 372 371 241
3 370 371 372
3 40 243 189
3 57 244 132
3 57 373 375
3 375 374 244
3 373 374 375
3 58 59 16
3 60 59 58
3 60 18 59
3 61 62 19
3 376 62 377
3 378 377 61
3 376 377 378
3 380 379 62
3 63 64 21
3 65 64 63
3 65 381 383
3 383 382 64
3 381 382 383
3 66 384 386
3 386 385 22
3 384 385 386
3 388 387 66
3 389 67 390
3 391 67 392
3 393 24 394
3 395 394 67
3 393 394 395
3 68 69 25
3 70 69 68
3 70 27 69
3 70 71 27
3 63 71 70
3 63 21 71
3 72 396 398
3 396 73 397
3 396 397 398
3 74 73 72
3 74 29 73
3 75 76 30
3 77 76 75
3 77 32 76
3 78 79 15
3 80 79 78
3 80 33 79
3 80 81 33
3 82 81 80
3 82 34 81
3 83 399 401
3 399 84 400
3 399 400 401
3 85 84 83
3 85 35 84
3 85 86 35
3 75 86 85
3 75 30 86
3 87 88 36
3 89 88 87
3 89 38 88
3 90 91 17
3 402 91 403
3 404 403 90
3 402 403 404
3 406 405 91
3 92 93 39
3 94 93 92
3 94 41 93
3 407 95 408
3 409 408 20
3 407 408 409
3 410 95 411
3 412 42 413
3 414 413 95
3 412 413 414
3 416 415 42
3 417 43 418
3 96 97 31
3 98 97 96
3 98 419 421
3 421 420 97
3 419 420 421
3 99 422 423
3 99 424 426
3 424 44 425
3 424 425 426
3 99 100 44
3 101 100 99
3 101 45 100
3 427 102 428
3 429 102 430
3 432 431 102
3 433 46 434
3 435 103 436
3 104 437 439
3 437 103 438
3 437 438 439
3 104 47 103
3 104 105 47
3 106 105 104
3 106 48 105
3 107 440 442
3 440 108 441
3 440 441 442
3 109 108 107
3 109 49 108
3 109 110 49
3 111 110 109
3 111 50 110
3 111 112 50
3 113 112 111
3 113 51 112
3 114 115 23
3 116 115 114
3 116 52 115
3 116 117 52
3 118 117 116
3 118 53 117
3 119 443 445
3 443 120 444
3 443 444 445
3 121 120 119
3 121 54 120
3 122 123 26
3 124 123 122
3 124 55 123
3 124 125 55
3 126 125 124
3 126 56 125
3 126 446 448
3 448 447 56
3 446 447 448
3 450 449 126
3 127 128 28
3 451 128 452
3 453 452 127
3 451 452 453
3 455 454 128
3 129 130 37
3 456 130 457
3 458 457 129
3 456 457 458
3 460 459 130
3 131 132 40
3 133 132 131
3 133 57 132
3 134 135 4
3 136 135 134
3 136 15 135
3 461 136 462
3 137 463 465
3 463 136 464
3 463 464 465
3 137 15 136
3 137 78 15
3 138 78 137
3 138 6 78
3 466 83 467
3 134 468 470
3 468 83 469
3 468 469 470
3 134 4 83
3 139 140 8
3 141 140 139
3 141 17 140
3 59 141 16
3 142 141 59
3 142 17 141
3 142 90 17
3 143 90 142
3 143 471 473
3 473 472 90
3 471 472 473
3 144 145 9
3 146 145 144
3 146 20 145
3 62 146 19
3 147 146 62
3 147 20 146
3 147 474 476
3 476 475 20
3 474 475 476
3 148 477 479
3 479 478 147
3 477 478 479
3 148 480 481
3 64 482 484
3 484 483 21
3 482 483 484
3 486 485 64
3 149 150 5
3 487 150 488
3 489 488 149
3 487 488 489
3 491 490 150
3 493 492 22
3 494 107 495
3 151 496 498
3 496 107 497
3 496 497 498
3 151 11 107
3 151 152 11
3 153 152 151
3 153 23 152
3 67 499 501
3 499 153 500
3 499 500 501
3 154 153 67
3 154 23 153
3 154 114 23
3 155 114 154
3 155 12 114
3 156 157 7
3 158 157 156
3 158 26 157
3 69 158 25
3 159 158 69
3 159 26 158
3 159 122 26
3 160 122 159
3 160 13 122
3 160 502 504
3 504 503 13
3 502 503 504
3 161 505 507
3 507 506 160
3 505 506 507
3 161 508 509
3 71 161 27
3 162 161 71
3 162 510 512
3 512 511 161
3 510 511 512
3 162 513 514
3 516 515 162
3 517 28 518
3 73 519 520
3 163 521 523
3 523 522 73
3 521 522 523
3 163 524 526
3 524 28 525
3 524 525 526
3 163 127 28
3 164 127 163
3 164 14 127
3 528 527 10
3 165 166 1
3 167 166 165
3 167 31 166
3 76 167 30
3 168 167 76
3 168 31 167
3 168 96 31
3 169 96 168
3 169 5 96
3 135 77 4
3 170 77 135
3 170 32 77
3 79 170 15
3 171 170 79
3 171 32 170
3 171 169 32
3 172 169 171
3 172 5 169
3 172 149 5
3 173 149 172
3 173 22 149
3 81 173 33
3 174 173 81
3 174 22 173
3 174 66 22
3 175 66 174
3 175 2 66
3 529 119 530
3 176 531 533
3 531 119 532
3 531 532 533
3 176 7 119
3 84 534 535
3 177 536 538
3 538 537 84
3 536 537 538
3 177 539 540
3 177 541 543
3 541 176 542
3 541 542 543
3 178 176 177
3 178 7 176
3 178 156 7
3 179 156 178
3 179 25 156
3 86 179 35
3 180 179 86
3 180 25 179
3 180 68 25
3 165 68 180
3 165 1 68
3 181 182 3
3 183 182 181
3 183 37 182
3 88 183 36
3 184 183 88
3 184 37 183
3 184 129 37
3 185 129 184
3 185 544 546
3 546 545 129
3 544 545 546
3 140 89 8
3 186 89 140
3 186 38 89
3 91 186 17
3 187 186 91
3 187 38 186
3 187 185 38
3 547 185 548
3 549 548 187
3 547 548 549
3 551 550 185
3 188 189 0
3 190 189 188
3 190 40 189
3 93 190 39
3 191 190 93
3 191 40 190
3 191 131 40
3 192 131 191
3 192 10 131
3 145 94 9
3 193 94 145
3 193 41 94
3 95 193 20
3 194 193 95
3 194 41 193
3 194 192 41
3 195 192 194
3 195 10 192
3 195 552 554
3 554 553 10
3 552 553 554
3 556 555 195
3 558 557 42
3 196 559 560
3 196 561 562
3 196 563 565
3 563 148 564
3 563 564 565
3 566 148 567
3 568 567 196
3 566 567 568
3 570 569 148
3 571 43 572
3 573 43 574
3 576 575 43
3 166 65 1
3 197 65 166
3 197 577 579
3 579 578 65
3 577 578 579
3 97 197 31
3 580 197 581
3 582 581 97
3 580 581 582
3 584 583 197
3 150 98 5
3 585 98 586
3 587 586 150
3 585 586 587
3 589 588 98
3 590 138 591
3 198 592 594
3 592 138 593
3 592 593 594
3 198 6 138
3 199 595 596
3 199 597 598
3 199 599 601
3 599 198 600
3 599 600 601
3 200 198 199
3 200 6 198
3 200 82 6
3 201 82 200
3 201 34 82
3 100 201 44
3 202 201 100
3 202 34 201
3 202 175 34
3 203 175 202
3 203 2 175
3 204 602 603
3 204 604 605
3 204 606 608
3 606 101 607
3 606 607 608
3 205 101 204
3 205 45 101
3 102 609 611
3 609 205 610
3 609 610 611
3 206 205 102
3 206 45 205
3 206 203 45
3 207 203 206
3 207 2 203
3 207 612 614
3 614 613 2
3 612 613 614
3 616 615 207
3 617 72 618
3 208 619 621
3 619 72 620
3 619 620 621
3 208 3 72
3 622 208 623
3 209 624 626
3 624 208 625
3 624 625 626
3 209 3 208
3 209 181 3
3 210 181 209
3 210 36 181
3 627 210 628
3 211 629 631
3 629 210 630
3 629 630 631
3 211 36 210
3 211 87 36
3 212 87 211
3 212 8 87
3 632 46 633
3 103 634 635
3 213 636 638
3 638 637 103
3 636 637 638
3 213 639 641
3 639 46 640
3 639 640 641
3 213 212 46
3 214 212 213
3 214 8 212
3 214 139 8
3 215 139 214
3 215 16 139
3 105 215 47
3 216 215 105
3 216 16 215
3 216 58 16
3 217 58 216
3 217 0 58
3 108 642 643
3 645 644 108
3 218 646 647
3 218 648 649
3 218 650 652
3 650 106 651
3 650 651 652
3 219 106 218
3 219 48 106
3 110 219 49
3 220 219 110
3 220 48 219
3 220 217 48
3 221 217 220
3 221 0 217
3 221 188 0
3 222 188 221
3 222 39 188
3 112 222 50
3 223 222 112
3 223 39 222
3 223 92 39
3 224 92 223
3 224 9 92
3 152 113 11
3 225 113 152
3 225 51 113
3 115 225 23
3 226 225 115
3 226 51 225
3 226 224 51
3 227 224 226
3 227 9 224
3 227 144 9
3 228 144 227
3 228 19 144
3 117 228 52
3 229 228 117
3 229 19 228
3 229 61 19
3 230 61 229
3 230 653 655
3 655 654 61
3 653 654 655
3 656 24 657
3 120 658 659
3 231 660 662
3 662 661 120
3 660 661 662
3 231 663 665
3 663 24 664
3 663 664 665
3 231 155 24
3 232 155 231
3 232 12 155
3 157 121 7
3 233 121 157
3 233 54 121
3 123 233 26
3 234 233 123
3 234 54 233
3 234 232 54
3 235 232 234
3 235 12 232
3 235 118 12
3 236 118 235
3 236 53 118
3 125 236 55
3 237 236 125
3 237 53 236
3 237 230 53
3 238 230 237
3 238 666 668
3 668 667 230
3 666 667 668
3 238 669 670
3 672 671 238
3 674 673 56
3 676 675 13
3 239 677 678
3 239 679 680
3 128 239 28
3 681 239 682
3 683 682 128
3 681 682 683
3 685 684 239
3 182 74 3
3 240 74 182
3 240 29 74
3 130 240 37
3 241 240 130
3 241 29 240
3 241 164 29
3 242 164 241
3 242 14 164
3 686 242 687
3 688 242 689
3 690 14 691
3 692 691 242
3 690 691 692
3 694 693 14
3 189 60 0
3 243 60 189
3 243 18 60
3 132 243 40
3 244 243 132
3 244 18 243
3 244 143 18
3 695 143 696
3 697 696 244
3 695 696 697
3 699 698 143
3 700 133 701
3 702 701 10
3 700 701 702
3 703 133 704
3 705 57 706
3 707 706 133
3 705 706 707
3 708 57 709
3 711 710 57
