ply
format ascii 1.0
element vertex 241
property float x
property float y
property float z
element face 213
property list uchar int vertex_index
end_header
-0.337963 -64.811325 25.460627
-1.801088 -41.218307 41.263767
-1.707335 -53.446995 33.472031
0.05171 -64.183975 21.138783
-1.265234 -35.416206 44.301407
-1.402563 -59.444904 29.306894
-2.042875 -27.61694 44.070415
-2.740652 -33.742268 41.171402
-3.700369 -32.270897 37.673256
-2.885695 -40.126194 37.686981
-2.776777 -46.66972 33.712372
-2.516085 -53.107666 29.413691
-1.776377 -59.05938 25.085653
-0.19537 -64.533165 23.291962
-0.290754 -36.306381 45.675285
-0.712286 -32.585197 45.549526
-1.604338 -56.496796 31.374498
-2.809114 -26.573921 42.563805
-2.475637 -30.646301 42.694221
-3.102934 -29.737568 41.073292
-3.315752 -36.286182 37.703545
-3.305017 -39.642006 35.834038
-2.847666 -43.390694 35.752083
-3.255217 -43.018089 33.852608
-2.242239 -56.169052 27.227833
-2.441889 -55.907043 25.161243
-1.827829 -58.751198 22.98954
1.203197 -40.665409 47.139412
0.166708 -39.845123 45.816383
-0.788853 -39.049698 44.40345
-1.62179 -38.289391 42.875179
-1.012476 -62.233047 27.320698
-1.095186 -28.692535 45.433952
-1.681429 -31.600367 44.191689
-2.08436 -34.557739 42.797035
-2.311193 -37.572567 41.233017
-3.607798 -28.886158 39.360458
-3.260542 -32.978535 39.452473
-2.863733 -36.90448 39.498852
-2.397287 -40.649281 39.505714
-2.391459 -43.783535 37.635433
-2.338148 -46.958347 35.648415
-2.261221 -50.142929 33.573341
-2.67544 -49.924328 31.589493
-2.153051 -53.294292 31.443256
-1.971064 -56.360851 29.299465
-1.642664 -59.287769 27.192345
-1.078772 -62.024227 25.17527
-1.034723 -61.738415 23.04216
-0.904591 -61.373531 20.925377
0.17876 -65.980716 24.605905
0.052398 -66.124211 25.705822
-0.266667 -64.672245 24.376295
0.250057 -65.841636 23.521573
0.17876 -65.980716 24.605905
-1.506197 -42.950283 41.269827
-1.442576 -41.527054 42.099508
-1.825767 -42.714432 40.374055
-1.506197 -42.950283 41.269827
-0.347969 -31.184193 46.103632
-0.154722 -33.085751 46.164122
-1.420044 -55.021578 33.460556
-1.43944 -53.517258 34.483216
-1.655836 -54.971896 32.423265
-1.368545 -56.546479 32.411789
-1.420044 -55.021578 33.460556
-3.113187 -26.077557 41.749584
-2.954739 -24.472374 42.482738
-3.260097 -27.659381 41.004328
-2.956024 -28.155744 41.818549
-3.113187 -26.077557 41.749584
-3.508007 -39.413845 34.899237
-3.515798 -37.677929 35.854168
-3.483107 -41.101887 33.908522
-3.280117 -41.330048 34.843323
-3.508007 -39.413845 34.899237
-2.769556 -54.234982 25.258075
-2.631634 -54.387888 26.27316
-2.518231 -55.735986 24.130032
-2.769556 -54.234982 25.258075
0.782345 -65.292439 20.264145
0.555851 -65.493073 21.350397
0.215742 -63.975586 20.072648
0.946377 -65.08405 19.198009
0.782345 -65.292439 20.264145
1.002381 -38.940899 47.038424
1.577719 -39.400305 47.637783
0.484136 -38.530756 46.376909
0.684953 -40.255266 46.477897
1.002381 -38.940899 47.038424
-1.110294 -60.908372 29.390446
-1.22273 -59.494896 30.366186
-1.20752 -60.838976 28.313796
-0.915251 -62.302444 28.397348
-1.110294 -60.908372 29.390446
-1.74279 -26.134546 44.696863
-2.201353 -25.555006 44.001966
-1.56903 -28.154737 44.752184
-1.268946 -26.672343 45.378631
-1.74279 -26.134546 44.696863
-3.880453 -30.185006 37.630539
-3.916311 -31.944516 36.765995
-3.654083 -30.578527 38.516857
-3.834167 -28.492636 38.47414
-3.880453 -30.185006 37.630539
-2.595763 -51.515997 30.501592
-2.859573 -49.80055 30.596546
-2.779896 -51.392219 29.508645
-1.361785 -59.866115 20.915336
-1.36621 -60.062365 21.957459
-1.823404 -58.554949 21.947417
-1.263561 -59.644226 19.866845
-0.806367 -61.151641 19.876887
-1.361785 -59.866115 20.915336
0.432311 -65.667667 22.426986
0.250057 -65.841636 23.521573
-0.07183 -64.35857 22.215373
0.555851 -65.493073 21.350397
0.432311 -65.667667 22.426986
0.056044 -34.946343 46.227001
0.255405 -36.761385 46.30636
-0.50152 -34.445789 45.612406
0.056044 -34.946343 46.227001
-0.154722 -33.085751 46.164122
-1.323617 -58.020842 31.399988
-1.368545 -56.546479 32.411789
-1.503451 -57.97085 30.340696
-1.22273 -59.494896 30.366186
-1.323617 -58.020842 31.399988
-2.584472 -25.033497 43.248661
-2.954739 -24.472374 42.482738
-2.425994 -27.09543 43.31711
-2.201353 -25.555006 44.001966
-2.584472 -25.033497 43.248661
-3.713474 -33.992374 36.773777
-3.916311 -31.944516 36.765995
-3.521166 -36.000017 36.788922
-3.508061 -34.278539 37.688401
-3.713474 -33.992374 36.773777
-3.310384 -37.964094 36.768791
-3.521166 -36.000017 36.788922
-3.515798 -37.677929 35.854168
-2.668732 -52.988199 28.399385
-2.779896 -51.392219 29.508645
-2.531809 -54.518892 27.306455
-2.379162 -54.638359 28.320762
-2.668732 -52.988199 28.399385
-2.342064 -56.038048 26.194538
-2.531809 -54.518892 27.306455
-2.631634 -54.387888 26.27316
-2.2112 -57.158064 23.04418
-2.134859 -57.329121 24.075392
-2.518231 -55.735986 24.130032
-1.823404 -58.554949 21.947417
-2.2112 -57.158064 23.04418
-1.740435 -51.899737 34.511421
-1.43944 -53.517258 34.483216
1.734437 -41.082521 47.781597
1.577719 -39.400305 47.637783
1.396798 -42.301073 47.265326
1.734437 -41.082521 47.781597
0.925072 -41.934328 46.560283
1.118673 -43.569992 46.686197
1.396798 -42.301073 47.265326
0.406828 -41.524185 45.898769
0.925072 -41.934328 46.560283
0.684953 -40.255266 46.477897
-0.04567 -41.172371 45.161069
0.406828 -41.524185 45.898769
-0.062023 -38.075752 45.745834
0.484136 -38.530756 46.376909
0.255405 -36.761385 46.30636
-0.523451 -40.774659 44.454603
-0.04567 -41.172371 45.161069
-0.311073 -39.447411 45.109916
-0.936458 -40.442749 43.669349
-0.523451 -40.774659 44.454603
-1.352927 -40.062596 42.905214
-0.936458 -40.442749 43.669349
-1.205322 -38.669545 43.639314
-1.711439 -39.753849 42.069473
-1.442576 -41.527054 42.099508
-1.352927 -40.062596 42.905214
-0.346168 -64.914451 26.550164
0.052398 -66.124211 25.705822
0.044193 -66.227337 26.795358
-0.683425 -63.625312 27.480199
-0.915251 -62.302444 28.397348
-0.675219 -63.522186 26.390662
-0.346168 -64.914451 26.550164
-0.683425 -63.625312 27.480199
-0.724631 -27.260008 46.000889
-1.268946 -26.672343 45.378631
-0.539419 -29.237862 46.045845
-0.724631 -27.260008 46.000889
-0.903736 -30.638866 45.491739
-0.347969 -31.184193 46.103632
-0.539419 -29.237862 46.045845
-3.766825 -26.769796 39.288911
-3.834167 -28.492636 38.47414
-3.512529 -27.233676 40.147911
-3.766825 -26.769796 39.288911
-3.355366 -29.311863 40.216875
-3.260097 -27.659381 41.004328
-3.512529 -27.233676 40.147911
-2.123867 -42.429918 39.495029
-1.825767 -42.714432 40.374055
-2.099188 -40.933794 40.38474
-2.120953 -43.997045 38.559888
-2.123867 -42.429918 39.495029
-2.394373 -42.216408 38.570573
-2.108918 -45.522692 37.601661
-2.120953 -43.997045 38.559888
-2.082262 -47.110098 36.608153
-2.108918 -45.522692 37.601661
-2.364803 -45.370941 36.641924
-2.055842 -48.655412 35.599614
-2.082262 -47.110098 36.608153
-2.017378 -50.247704 34.562077
-2.055842 -48.655412 35.599614
-2.299684 -48.550638 34.610878
-1.984278 -51.794962 33.522686
-1.740435 -51.899737 34.511421
-2.017378 -50.247704 34.562077
-3.458964 -42.83388 32.89874
-3.483107 -41.101887 33.908522
-3.214562 -44.697818 32.811231
-3.458964 -42.83388 32.89874
-2.975341 -46.523634 32.741113
-3.015997 -44.843905 33.78249
-3.214562 -44.697818 32.811231
-2.924673 -48.150938 31.679674
-2.859573 -49.80055 30.596546
-2.726109 -48.297024 32.650933
-2.975341 -46.523634 32.741113
-2.924673 -48.150938 31.679674
-0.262409 -62.570364 19.965944
0.215742 -63.975586 20.072648
-0.426441 -62.778753 21.03208
-0.262409 -62.570364 19.965944
-0.806367 -61.151641 19.876887
3 0 50 51
3 0 52 54
3 52 13 53
3 52 53 54
3 1 55 56
3 1 57 58
3 59 15 60
3 2 61 62
3 2 63 65
3 63 16 64
3 63 64 65
3 66 17 67
3 68 19 69
3 70 69 17
3 68 69 70
3 71 21 72
3 73 23 74
3 75 74 21
3 73 74 75
3 76 25 77
3 79 78 25
3 3 80 81
3 3 82 84
3 82 83 84
3 85 27 86
3 87 28 88
3 89 88 27
3 87 88 89
3 4 29 14
3 4 30 29
3 5 90 91
3 5 92 94
3 92 31 93
3 92 93 94
3 6 95 96
3 6 97 99
3 97 32 98
3 97 98 99
3 6 33 32
3 7 34 18
3 7 35 34
3 8 100 101
3 8 102 104
3 102 36 103
3 102 103 104
3 8 37 36
3 9 38 20
3 9 39 38
3 9 40 39
3 10 41 22
3 10 42 41
3 11 105 107
3 105 43 106
3 105 106 107
3 11 44 43
3 11 45 44
3 12 46 24
3 12 47 46
3 12 48 47
3 108 49 109
3 110 109 26
3 108 109 110
3 113 112 49
3 111 112 113
3 13 114 115
3 13 116 118
3 116 3 117
3 116 117 118
3 119 14 120
3 15 121 123
3 121 14 122
3 121 122 123
3 15 4 14
3 16 124 125
3 16 126 128
3 126 5 127
3 126 127 128
3 17 129 130
3 17 131 133
3 131 6 132
3 131 132 133
3 17 18 6
3 19 18 17
3 19 7 18
3 134 8 135
3 136 20 137
3 138 137 8
3 136 137 138
3 21 139 141
3 139 20 140
3 139 140 141
3 21 9 20
3 21 22 9
3 23 22 21
3 23 10 22
3 142 11 143
3 144 24 145
3 146 145 11
3 144 145 146
3 25 147 149
3 147 24 148
3 147 148 149
3 25 12 24
3 25 26 12
3 150 26 151
3 152 151 25
3 150 151 152
3 154 153 26
3 155 2 156
3 27 157 158
3 27 159 160
3 27 161 163
3 161 162 163
3 28 164 166
3 166 165 27
3 164 165 166
3 28 167 168
3 14 169 171
3 169 28 170
3 169 170 171
3 29 28 14
3 29 172 174
3 174 173 28
3 172 173 174
3 29 175 176
3 30 177 179
3 179 178 29
3 177 178 179
3 30 180 182
3 180 1 181
3 180 181 182
3 183 0 184
3 183 184 185
3 31 186 187
3 31 188 190
3 188 0 189
3 188 189 190
3 32 191 192
3 32 193 194
3 32 195 197
3 195 15 196
3 195 196 197
3 33 15 32
3 33 4 15
3 18 33 6
3 34 33 18
3 34 4 33
3 34 30 4
3 35 30 34
3 35 1 30
3 36 198 199
3 36 200 201
3 36 202 204
3 202 19 203
3 202 203 204
3 37 19 36
3 37 7 19
3 20 37 8
3 38 37 20
3 38 7 37
3 38 35 7
3 39 35 38
3 39 1 35
3 39 205 207
3 207 206 1
3 205 206 207
3 40 208 210
3 210 209 39
3 208 209 210
3 40 211 212
3 22 40 9
3 41 40 22
3 41 213 215
3 215 214 40
3 213 214 215
3 41 216 217
3 42 218 220
3 220 219 41
3 218 219 220
3 42 221 223
3 221 2 222
3 221 222 223
3 224 23 225
3 226 23 227
3 228 10 229
3 230 229 23
3 228 229 230
3 43 231 232
3 43 233 235
3 233 10 234
3 233 234 235
3 43 42 10
3 44 42 43
3 44 2 42
3 44 16 2
3 45 16 44
3 45 5 16
3 24 45 11
3 46 45 24
3 46 5 45
3 46 31 5
3 47 31 46
3 47 0 31
3 47 13 0
3 48 13 47
3 48 3 13
3 26 48 12
3 49 48 26
3 49 3 48
3 49 236 238
3 238 237 3
3 236 237 238
3 240 239 49
