ply
format ascii 1.0
element vertex 394
property float x
property float y
property float z
element face 434
property list uchar int vertex_index
end_header
9.012888 -81.193024 -10.802362
9.300985 -108.816353 -16.79817
2.458542 -106.336746 -8.564226
3.275688 -92.553642 -5.13854
7.99288 -78.167175 -5.72003
12.382881 -65.674911 -12.314407
19.591356 -52.853291 -17.691515
7.430115 -96.397644 -12.941547
2.148937 -102.971313 -3.50868
7.766632 -83.216057 -2.506655
11.957544 -64.965622 -10.221846
14.279205 -58.842766 -12.950336
15.907524 -59.106659 -15.174166
17.446957 -53.187786 -15.179287
5.247677 -87.382431 -7.959028
4.13665 -94.900162 -9.099644
7.883289 -88.987793 -11.360723
3.611425 -112.318214 -10.393084
4.878407 -108.418213 -13.251961
13.88089 -74.1707 -13.585127
13.011673 -82.076019 -13.529577
3.048992 -96.448593 -2.237713
4.998421 -89.834267 -1.836802
5.270361 -85.354935 -4.85932
7.178905 -79.742355 -8.052641
10.7612 -71.066315 -7.102386
9.58009 -72.174294 -9.078432
10.584953 -73.303596 -11.301058
14.811499 -66.325272 -14.361176
2.328968 -99.64048 -6.568405
3.995409 -102.026299 -11.117901
7.853437 -103.101562 -14.985306
12.396406 -89.651436 -14.42737
12.37595 -96.567963 -16.021334
13.253731 -102.538567 -17.74132
13.983379 -58.70631 -11.773909
15.240336 -55.904636 -12.867964
15.782816 -55.935265 -14.121168
16.730812 -53.277546 -13.836147
7.855177 -111.489265 -15.997972
12.106983 -108.331833 -18.083845
6.937391 -84.40271 -9.381268
6.266479 -88.270233 -9.666407
8.37771 -85.119949 -10.937084
2.264393 -107.936264 -6.931314
2.722021 -110.919609 -7.775217
2.910652 -109.433151 -9.534975
4.057529 -110.554489 -11.976999
3.40011 -107.567749 -11.013613
16.426846 -70.410843 -14.944212
5.297098 -91.536224 -0.337931
6.605696 -88.395615 -0.535057
7.722197 -80.83728 -4.087997
6.27158 -84.297592 -3.586653
6.576427 -81.756538 -5.174473
6.011263 -82.669464 -6.434849
7.270607 -78.953979 -6.816069
11.939085 -65.312637 -11.267498
10.802307 -68.49913 -9.696398
10.855837 -68.960403 -10.732397
9.772612 -72.745567 -10.165201
11.466238 -69.427353 -11.795397
12.647247 -69.862221 -12.864479
13.345701 -66.027527 -13.350517
17.761473 -55.921703 -16.461657
17.307846 -59.175648 -16.206743
19.231808 -55.81583 -17.545038
2.9849 -94.680077 -3.713945
2.402369 -98.115334 -4.320337
2.665468 -96.12516 -5.735722
5.519045 -95.789124 -11.087992
3.940617 -98.533386 -10.043165
5.480019 -99.362823 -12.098253
5.683571 -102.755028 -13.18186
7.521385 -99.858101 -13.952452
12.652016 -85.925926 -13.864693
14.986685 -92.900124 -16.473368
15.170965 -96.070877 -17.262022
12.688587 -99.685547 -16.90291
15.594797 -98.983086 -18.05266
16.279518 -101.618919 -18.787848
2.051821 -104.783485 -6.02103
9.261568 -79.890427 -3.145144
9.202028 -77.376053 -4.755344
12.989708 -61.871696 -11.649067
13.323002 -62.120834 -12.737236
14.091251 -62.37291 -13.797039
14.899818 -58.983231 -14.087383
16.609543 -55.949375 -15.322001
18.391281 -53.054623 -16.465841
4.018446 -90.109077 -6.546137
3.372395 -93.79866 -7.079109
4.576393 -91.170601 -8.382732
5.786589 -92.077751 -10.250731
7.558622 -92.760239 -12.048914
4.969242 -113.297714 -12.795763
5.713406 -111.250885 -14.153496
6.864637 -108.843048 -15.192995
11.368021 -77.77449 -12.206642
10.807255 -81.738159 -12.194639
13.432476 -78.14299 -13.440819
3.318495 -97.826485 -0.671345
4.189539 -94.680305 -0.38895
3.897465 -93.142715 -1.90234
3.841341 -91.221489 -3.372385
6.31192 -86.527443 -2.048807
4.952444 -87.758453 -3.332134
4.152798 -88.957108 -4.839354
4.9091 -86.39257 -6.330673
6.127539 -83.565285 -7.855024
7.770422 -80.506004 -9.400389
9.422367 -74.596474 -6.400364
11.211327 -68.055603 -8.69368
9.955336 -71.61573 -8.059738
8.613678 -75.261353 -7.393587
8.350473 -75.935822 -8.491791
8.729515 -76.609055 -9.686598
9.758505 -77.241516 -10.941397
11.98686 -73.799133 -12.451828
14.339464 -70.210251 -13.917055
16.70108 -66.512054 -15.3416
15.321262 -62.594326 -14.817795
16.976421 -62.736992 -15.796865
2.466993 -99.734489 -2.797476
2.094252 -101.496254 -5.119896
2.26232 -103.059074 -7.545086
2.985874 -97.431099 -7.883081
2.862503 -100.966614 -8.875204
3.001184 -104.360054 -9.952648
4.306446 -105.334198 -12.218699
6.142004 -105.925468 -14.239613
8.443047 -106.094955 -15.953634
10.331547 -85.648613 -12.447878
9.974274 -89.467224 -12.962536
9.771103 -93.154549 -13.699902
12.290279 -93.211815 -15.169601
9.75655 -96.670006 -14.592075
9.961521 -99.974312 -15.553358
10.411259 -103.033707 -16.497019
11.123529 -105.82386 -17.353491
14.086077 -105.111557 -18.485628
17.233332 -103.970924 -19.434153
15.709725 -54.621391 -12.659882
15.069091 -55.886117 -12.222338
16.454963 -53.307846 -13.143973
15.985574 -54.591091 -13.352056
15.709725 -54.621391 -12.659882
9.865246 -110.036053 -17.146603
9.142342 -111.372509 -16.746504
8.578081 -110.152809 -16.398071
10.703984 -108.574093 -17.441007
11.268244 -109.793793 -17.78944
9.865246 -110.036053 -17.146603
17.59274 -70.409306 -15.45297
17.657864 -68.471031 -15.625936
7.53494 -87.640519 0.02145
6.815869 -89.12767 0.229463
20.313598 -52.7027 -18.280308
20.133823 -54.18397 -18.20707
19.411582 -54.33456 -17.618277
16.606055 -95.621788 -17.823045
16.45979 -94.13689 -17.464661
16.817971 -97.077892 -18.218364
15.382881 -97.526982 -17.657341
16.606055 -95.621788 -17.823045
17.090941 -98.427208 -18.568911
16.817971 -97.077892 -18.218364
2.117057 -104.547214 -3.897797
2.23596 -103.513378 -2.614046
2.100379 -103.877399 -4.764855
2.068499 -105.4533 -5.153973
2.117057 -104.547214 -3.897797
9.968909 -78.218368 -3.510796
10.10183 -79.381257 -2.713229
9.939139 -76.961182 -4.315896
9.231798 -78.63324 -3.950244
9.968909 -78.218368 -3.510796
3.512975 -113.013492 -9.449132
3.068272 -112.31419 -8.140199
3.166723 -111.618911 -9.08415
4.081156 -113.646217 -10.750381
3.512975 -113.013492 -9.449132
4.290334 -112.807964 -11.594424
4.760064 -114.135967 -11.95172
4.081156 -113.646217 -10.750381
4.946617 -93.754917 0.408851
4.373847 -95.244694 0.408936
7.039276 -84.87175 -2.277731
7.181073 -85.887852 -1.505387
7.908429 -84.232158 -1.734311
10.678185 -72.493802 -6.294719
11.275897 -70.781075 -6.638478
10.091784 -72.831395 -6.751375
10.008768 -74.258881 -5.943708
10.678185 -72.493802 -6.294719
11.584436 -66.510613 -9.457763
11.761611 -66.344642 -8.935542
12.134719 -64.799652 -9.699625
18.014553 -60.940298 -16.4967
17.142133 -60.95632 -16.001804
18.180266 -59.159626 -16.701639
17.971666 -62.742157 -16.272996
18.014553 -60.940298 -16.4967
18.316413 -102.129734 -19.581242
16.756425 -102.794922 -19.111
17.839506 -100.953732 -19.25809
18.855498 -103.197204 -19.864054
18.316413 -102.129734 -19.581242
2.422772 -101.965713 -2.323013
2.23596 -103.513378 -2.614046
14.440613 -57.286955 -11.675311
13.94238 -58.641064 -11.170738
14.399614 -57.221708 -11.07214
14.611857 -57.305473 -12.320937
14.440613 -57.286955 -11.675311
15.069091 -55.886117 -12.222338
8.481827 -112.67313 -16.322015
7.331764 -112.653648 -15.446837
8.481827 -112.67313 -16.322015
9.142342 -111.372509 -16.746504
12.733397 -109.443332 -18.38332
11.268244 -109.793793 -17.78944
13.648114 -107.865662 -18.599655
12.733397 -109.443332 -18.38332
2.493207 -109.427936 -7.353266
2.49353 -110.036846 -6.414379
2.264716 -108.545174 -5.992427
16.275624 -72.383697 -14.816025
15.002645 -74.263626 -14.136482
15.153868 -72.290772 -14.26467
16.275624 -72.383697 -14.816025
17.59274 -70.409306 -15.45297
6.16157 -90.697975 0.328026
5.500396 -92.182876 0.434361
5.951397 -89.96592 -0.436494
6.16157 -90.697975 0.328026
6.815869 -89.12767 0.229463
11.338878 -69.340508 -7.406324
11.275897 -70.781075 -6.638478
19.142246 -57.479717 -17.370787
18.180266 -59.159626 -16.701639
18.269827 -57.495739 -16.875891
20.100527 -55.703051 -18.070492
19.142246 -57.479717 -17.370787
20.100527 -55.703051 -18.070492
20.133823 -54.18397 -18.20707
14.059054 -84.038276 -14.328808
12.831844 -84.000973 -13.697135
14.238882 -82.113323 -14.16125
13.918527 -85.914005 -14.521733
14.059054 -84.038276 -14.328808
13.790723 -87.77676 -14.803072
12.524211 -87.788681 -14.146031
13.918527 -85.914005 -14.521733
16.36765 -92.551514 -17.070334
16.333295 -90.941304 -16.733105
17.71426 -90.592693 -17.33007
15.078825 -94.485501 -16.867695
16.36765 -92.551514 -17.070334
16.45979 -94.13689 -17.464661
17.433302 -99.745125 -18.936504
15.937157 -100.301003 -18.420254
17.090941 -98.427208 -18.568911
17.839506 -100.953732 -19.25809
17.433302 -99.745125 -18.936504
2.174785 -107.02969 -5.609115
2.264716 -108.545174 -5.992427
2.158107 -106.359874 -6.476172
2.174785 -107.02969 -5.609115
2.068499 -105.4533 -5.153973
8.650898 -82.647137 -2.037548
7.908429 -84.232158 -1.734311
9.398366 -80.984322 -2.356793
10.10183 -79.381257 -2.713229
8.5141 -81.553242 -2.8259
8.650898 -82.647137 -2.037548
9.398366 -80.984322 -2.356793
12.478963 -63.301726 -10.381325
12.134719 -64.799652 -9.699625
13.491881 -60.17207 -11.157356
13.94238 -58.641064 -11.170738
12.995045 -61.754762 -11.094936
13.491881 -60.17207 -11.157356
13.486543 -60.289003 -11.711488
12.473626 -63.418659 -10.935457
12.478963 -63.301726 -10.381325
12.995045 -61.754762 -11.094936
2.700267 -111.477058 -6.762225
2.49353 -110.036846 -6.414379
3.046519 -112.87164 -7.127206
2.700267 -111.477058 -6.762225
3.068272 -112.31419 -8.140199
5.54689 -114.542191 -13.126659
4.760064 -114.135967 -11.95172
5.888796 -113.557873 -13.845733
5.54689 -114.542191 -13.126659
6.260878 -112.534458 -14.524599
5.888796 -113.557873 -13.845733
5.341324 -112.274299 -13.47463
6.784292 -111.370075 -15.075734
7.331764 -112.653648 -15.446837
6.260878 -112.534458 -14.524599
14.778439 -76.249771 -14.064328
13.656683 -76.156845 -13.512973
15.002645 -74.263626 -14.136482
14.613637 -78.214973 -14.034658
14.778439 -76.249771 -14.064328
14.403235 -80.181488 -14.079038
13.222074 -80.109504 -13.485198
14.613637 -78.214973 -14.034658
14.238882 -82.113323 -14.16125
14.403235 -80.181488 -14.079038
3.938325 -96.817784 0.267739
3.471667 -98.31345 0.171751
3.754017 -96.253395 -0.530147
3.938325 -96.817784 0.267739
4.373847 -95.244694 0.408936
4.743318 -93.108265 -0.36344
4.946617 -93.754917 0.408851
5.500396 -92.182876 0.434361
7.327961 -86.821938 -0.748512
7.53494 -87.640519 0.02145
6.458808 -87.461529 -1.291932
7.327961 -86.821938 -0.748512
7.181073 -85.887852 -1.505387
9.898599 -75.648671 -5.121198
9.939139 -76.961182 -4.315896
9.312197 -75.986264 -5.577854
9.898599 -75.648671 -5.121198
10.008768 -74.258881 -5.943708
11.563942 -67.835151 -8.201971
11.761611 -66.344642 -8.935542
10.986263 -69.560959 -7.898033
11.338878 -69.340508 -7.406324
11.563942 -67.835151 -8.201971
17.794981 -66.521636 -15.82463
17.657864 -68.471031 -15.625936
16.563963 -68.461449 -15.142906
17.833996 -64.629688 -16.045364
16.83875 -64.624523 -15.569233
17.971666 -62.742157 -16.272996
17.794981 -66.521636 -15.82463
17.833996 -64.629688 -16.045364
17.214242 -52.145188 -13.530826
16.454963 -53.307846 -13.143973
17.564549 -52.061148 -14.273869
17.214242 -52.145188 -13.530826
17.922622 -52.016267 -14.945439
17.088884 -53.232666 -14.507717
17.564549 -52.061148 -14.273869
18.329405 -51.902761 -15.669662
17.922622 -52.016267 -14.945439
18.801567 -51.83618 -16.312939
17.919119 -53.121205 -15.822564
18.329405 -51.902761 -15.669662
19.289609 -51.686064 -17.011333
18.801567 -51.83618 -16.312939
19.889647 -51.585398 -17.62417
18.991318 -52.953957 -17.078678
19.289609 -51.686064 -17.011333
20.469496 -51.388336 -18.296746
19.889647 -51.585398 -17.62417
21.191738 -51.237746 -18.885539
20.313598 -52.7027 -18.280308
20.469496 -51.388336 -18.296746
3.00755 -99.3933 -0.904346
3.471667 -98.31345 0.171751
2.581799 -100.347302 -1.967411
3.00755 -99.3933 -0.904346
2.892744 -98.780487 -1.734411
2.307965 -101.352901 -3.153078
2.422772 -101.965713 -2.323013
2.581799 -100.347302 -1.967411
13.701708 -89.575039 -15.091919
13.790723 -87.77676 -14.803072
14.996847 -91.199383 -16.114918
16.333295 -90.941304 -16.733105
13.648644 -91.355229 -15.463034
14.996847 -91.199383 -16.114918
13.638482 -93.05597 -15.821485
12.343343 -91.431625 -14.798485
13.701708 -89.575039 -15.091919
13.648644 -91.355229 -15.463034
14.637661 -106.255524 -18.800546
13.648114 -107.865662 -18.599655
13.09653 -106.721695 -18.284737
16.211289 -105.685207 -19.274809
14.637661 -106.255524 -18.800546
15.659705 -104.541241 -18.959891
17.843114 -105.005661 -19.70956
16.82107 -106.719944 -19.550216
16.211289 -105.685207 -19.274809
17.843114 -105.005661 -19.70956
18.855498 -103.197204 -19.864054
3 142 36 143
3 144 38 145
3 146 145 36
3 144 145 146
3 1 147 149
3 149 148 39
3 147 148 149
3 1 150 152
3 150 40 151
3 150 151 152
3 0 43 41
3 2 46 44
3 2 48 46
3 154 153 49
3 155 51 156
3 4 54 52
3 4 56 54
3 5 59 57
3 5 61 59
3 5 63 61
3 6 66 64
3 6 157 159
3 159 158 66
3 157 158 159
3 3 69 67
3 7 72 70
3 7 74 72
3 160 77 161
3 162 79 163
3 164 163 77
3 162 163 164
3 166 165 79
3 8 167 168
3 8 169 171
3 169 81 170
3 169 170 171
3 172 82 173
3 174 83 175
3 176 175 82
3 174 175 176
3 11 84 35
3 11 85 84
3 11 87 85
3 13 88 37
3 13 89 88
3 14 92 90
3 16 93 42
3 16 94 93
3 17 177 179
3 179 178 45
3 177 178 179
3 17 180 181
3 17 182 184
3 182 95 183
3 182 183 184
3 18 96 47
3 18 97 96
3 19 100 98
3 185 102 186
3 22 103 50
3 22 104 103
3 9 187 189
3 187 105 188
3 187 188 189
3 23 106 53
3 23 107 106
3 23 108 107
3 24 109 55
3 24 110 109
3 25 190 191
3 25 192 194
3 192 111 193
3 192 193 194
3 10 195 197
3 195 112 196
3 195 196 197
3 26 113 58
3 26 114 113
3 26 115 114
3 27 116 60
3 27 117 116
3 27 118 117
3 28 119 62
3 28 120 119
3 12 121 86
3 198 122 199
3 200 199 65
3 198 199 200
3 202 201 122
3 21 123 101
3 29 124 68
3 29 125 124
3 15 126 91
3 30 127 71
3 30 128 127
3 30 129 128
3 31 130 73
3 31 131 130
3 20 132 99
3 32 133 75
3 32 134 133
3 33 135 76
3 33 136 135
3 33 137 136
3 34 138 78
3 34 139 138
3 34 140 139
3 203 141 204
3 205 204 80
3 203 204 205
3 207 206 141
3 208 8 209
3 210 35 211
3 210 211 212
3 36 213 215
3 213 35 214
3 213 214 215
3 36 11 35
3 36 37 11
3 38 37 36
3 38 13 37
3 39 216 217
3 219 218 39
3 40 220 221
3 40 222 223
3 41 42 14
3 43 42 41
3 43 16 42
3 44 224 226
3 224 45 225
3 224 225 226
3 46 45 44
3 46 17 45
3 46 47 17
3 48 47 46
3 48 18 47
3 49 227 229
3 229 228 19
3 227 228 229
3 231 230 49
3 232 50 233
3 51 234 236
3 234 50 235
3 234 235 236
3 51 22 50
3 52 53 9
3 54 53 52
3 54 23 53
3 54 55 23
3 56 55 54
3 56 24 55
3 237 25 238
3 57 58 10
3 59 58 57
3 59 26 58
3 59 60 26
3 61 60 59
3 61 27 60
3 61 62 27
3 63 62 61
3 63 28 62
3 64 65 12
3 66 65 64
3 66 239 241
3 241 240 65
3 239 240 241
3 66 242 243
3 245 244 66
3 67 68 21
3 69 68 67
3 69 29 68
3 70 71 15
3 72 71 70
3 72 30 71
3 72 73 30
3 74 73 72
3 74 31 73
3 246 75 247
3 248 247 20
3 246 247 248
3 249 75 250
3 251 32 252
3 253 252 75
3 251 252 253
3 254 76 255
3 254 255 256
3 77 257 259
3 257 76 258
3 257 258 259
3 77 33 76
3 77 78 33
3 79 78 77
3 79 34 78
3 79 80 34
3 260 80 261
3 262 261 79
3 260 261 262
3 264 263 80
3 265 44 266
3 81 267 269
3 267 44 268
3 267 268 269
3 81 2 44
3 270 9 271
3 82 272 273
3 82 274 276
3 274 9 275
3 274 275 276
3 82 52 9
3 83 52 82
3 83 4 52
3 277 10 278
3 35 279 280
3 84 281 283
3 283 282 35
3 281 282 283
3 84 284 286
3 284 10 285
3 284 285 286
3 84 57 10
3 85 57 84
3 85 5 57
3 85 86 5
3 87 86 85
3 87 12 86
3 37 87 11
3 88 87 37
3 88 12 87
3 88 64 12
3 89 64 88
3 89 6 64
3 90 91 3
3 92 91 90
3 92 15 91
3 42 92 14
3 93 92 42
3 93 15 92
3 93 70 15
3 94 70 93
3 94 7 70
3 45 287 288
3 291 290 45
3 289 290 291
3 95 292 293
3 95 294 295
3 47 95 17
3 96 95 47
3 96 296 298
3 298 297 95
3 296 297 298
3 96 299 301
3 299 39 300
3 299 300 301
3 97 39 96
3 97 1 39
3 98 99 0
3 100 99 98
3 100 20 99
3 302 100 303
3 304 303 19
3 302 303 304
3 305 100 306
3 307 20 308
3 309 308 100
3 307 308 309
3 311 310 20
3 312 101 313
3 102 314 316
3 314 101 315
3 314 315 316
3 102 21 101
3 50 317 319
3 317 102 318
3 317 318 319
3 103 102 50
3 103 21 102
3 103 67 21
3 104 67 103
3 104 3 67
3 320 51 321
3 105 322 324
3 322 51 323
3 322 323 324
3 105 22 51
3 53 105 9
3 106 105 53
3 106 22 105
3 106 104 22
3 107 104 106
3 107 3 104
3 107 90 3
3 108 90 107
3 108 14 90
3 55 108 23
3 109 108 55
3 109 14 108
3 109 41 14
3 110 41 109
3 110 0 41
3 325 83 326
3 111 327 329
3 327 83 328
3 327 328 329
3 111 4 83
3 112 330 331
3 112 332 334
3 332 25 333
3 332 333 334
3 58 112 10
3 113 112 58
3 113 25 112
3 113 111 25
3 114 111 113
3 114 4 111
3 114 56 4
3 115 56 114
3 115 24 56
3 60 115 26
3 116 115 60
3 116 24 115
3 116 110 24
3 117 110 116
3 117 0 110
3 117 98 0
3 118 98 117
3 118 19 98
3 62 118 27
3 119 118 62
3 119 19 118
3 119 49 19
3 120 49 119
3 120 335 337
3 337 336 49
3 335 336 337
3 86 63 5
3 121 63 86
3 121 28 63
3 65 121 12
3 122 121 65
3 122 28 121
3 122 120 28
3 338 120 339
3 340 339 122
3 338 339 340
3 342 341 120
3 343 38 344
3 345 38 346
3 347 13 348
3 349 348 38
3 347 348 349
3 350 13 351
3 352 89 353
3 354 353 13
3 352 353 354
3 355 89 356
3 357 6 358
3 359 358 89
3 357 358 359
3 360 6 361
3 364 363 6
3 362 363 364
3 101 365 366
3 123 367 369
3 369 368 101
3 367 368 369
3 123 370 372
3 370 8 371
3 370 371 372
3 68 123 21
3 124 123 68
3 124 8 123
3 124 81 8
3 125 81 124
3 125 2 81
3 91 69 3
3 126 69 91
3 126 29 69
3 71 126 15
3 127 126 71
3 127 29 126
3 127 125 29
3 128 125 127
3 128 2 125
3 128 48 2
3 129 48 128
3 129 18 48
3 73 129 30
3 130 129 73
3 130 18 129
3 130 97 18
3 131 97 130
3 131 1 97
3 99 43 0
3 132 43 99
3 132 16 43
3 75 132 20
3 133 132 75
3 133 16 132
3 133 94 16
3 134 94 133
3 134 7 94
3 373 32 374
3 76 375 376
3 135 377 379
3 379 378 76
3 377 378 379
3 135 380 382
3 380 32 381
3 380 381 382
3 135 134 32
3 136 134 135
3 136 7 134
3 136 74 7
3 137 74 136
3 137 31 74
3 78 137 33
3 138 137 78
3 138 31 137
3 138 131 31
3 139 131 138
3 139 1 131
3 139 40 1
3 140 40 139
3 140 383 385
3 385 384 40
3 383 384 385
3 80 140 34
3 141 140 80
3 141 386 388
3 388 387 140
3 386 387 388
3 141 389 391
3 389 390 391
3 393 392 141
