ply
format ascii 1.0
element vertex 409
property float x
property float y
property float z
element face 445
property list uchar int vertex_index
end_header
3.129343 -18.759716 51.199524
-4.440439 -8.152911 39.76226
0.865461 4.054701 66.983788
1.564367 -2.631432 51.638565
-1.336836 -13.380199 46.330704
-2.026014 3.377621 44.861824
4.680784 -23.700863 57.22081
3.081182 -7.746293 58.332222
2.246655 8.265684 57.885788
-3.417261 -25.581194 40.935364
1.72654 -24.23772 48.742546
1.208286 5.342613 50.935921
-0.229101 0.28372 48.411682
-0.350163 8.346231 47.126335
3.644299 -26.061476 61.259026
0.882 -4.254745 66.882256
2.355394 -10.159456 62.170074
1.969002 -1.955137 62.624168
2.547045 0.305098 58.530617
1.751017 6.165474 62.397148
-3.112738 -10.650192 43.297478
-2.641584 -19.264673 43.772079
-3.96501 -16.950161 40.509941
0.886011 12.22455 66.229156
2.248291 -10.689334 51.584404
0.923079 -16.126425 48.854965
0.220676 -7.893178 48.879723
-1.804213 -4.948284 45.895012
-3.437815 -2.045382 42.412971
-3.570814 6.387915 40.85524
4.535473 -21.271809 53.87529
2.929865 -18.278969 61.535706
3.827644 -15.81496 57.709991
3.608416 -13.305792 54.419708
2.811523 -5.280045 54.852478
2.287195 2.680048 54.661224
1.628479 14.170349 61.211929
-0.706306 -21.750168 46.497726
2.514416 -21.491041 49.88916
1.157377 9.298466 50.227631
0.460907 6.806667 49.058273
0.862968 -0.086048 67.020546
1.458942 -3.093626 64.73893
1.381401 1.030321 64.814232
1.842539 2.120527 62.619644
1.331226 5.1231 64.690758
-3.808516 -9.358706 41.583546
-3.597582 -13.724793 41.934216
-4.212526 -12.553713 40.189331
1.87085 -6.651355 51.683167
1.27507 -9.315526 50.242935
0.949034 -5.250346 50.225601
-1.153494 1.821852 46.69101
-1.028368 -2.289028 47.157291
-1.949247 -0.766378 45.47168
-2.673037 -3.474983 44.21814
-2.780523 0.741974 43.662102
-3.556028 10.518822 39.774071
-4.233271 3.566799 39.690147
4.773809 -22.495005 55.456253
2.197174 -19.498356 63.626801
1.940985 -15.469996 63.891586
2.825466 -8.95323 60.207581
3.139957 -13.018445 59.886093
3.432821 -11.788519 58.039879
3.871906 -14.568644 55.99736
3.452755 -10.549077 56.307266
3.182774 -9.289171 54.684654
3.08098 -6.527262 56.548676
2.370102 4.29661 58.329491
2.529684 1.466412 56.568687
2.358021 5.431047 56.253883
2.141283 6.63069 54.22319
1.266998 13.206985 63.726379
-0.244789 -14.762459 47.643948
0.107683 -18.909472 47.653828
-1.036413 -17.588482 46.428303
-3.100363 -22.370827 42.401672
-2.359831 -23.493073 43.933517
1.34219 1.366327 51.400864
0.699553 -1.20664 50.04834
0.536573 2.812424 49.668274
-0.330746 4.330408 47.883369
-1.200811 5.897223 46.014496
4.285175 -24.889889 59.161339
1.733059 -11.37089 64.210777
1.57369 -7.23516 64.516434
2.13842 -6.054155 62.454491
2.560879 -4.883133 60.451279
2.783976 -3.71067 58.516273
2.34906 -0.828014 60.55098
2.187984 3.201746 60.453583
2.070892 7.204199 60.123657
-2.297674 -12.000427 44.88401
-2.045069 -16.267851 45.070618
-2.892809 -14.971167 43.568893
-3.36133 -18.074545 42.197952
-3.700991 -21.305866 40.751724
0.877176 8.158237 66.728699
2.676044 -14.732854 51.402184
2.080996 -17.460001 50.017738
1.65991 -13.391956 50.154243
0.549076 -12.010609 48.903168
-0.562185 -10.594247 47.589325
-0.04327 -3.791995 48.731766
-0.828156 -6.430799 47.442932
-1.596735 -9.15842 46.16724
-2.509756 -7.727944 44.612953
-3.296556 -6.33359 42.924198
-3.989241 -5.007314 41.113564
-2.033697 7.478151 44.042152
-2.815313 9.032267 41.960449
-2.828203 4.912958 42.915264
-3.530615 2.19829 41.73119
-4.133055 -0.693779 40.491539
3.972677 -20.028431 52.467361
1.627377 -24.603373 65.738686
2.497108 -23.422962 63.476822
3.275188 -22.227978 61.323357
3.88372 -21.01878 59.296745
2.620501 -14.245018 61.840065
3.496716 -17.050987 59.559013
4.249994 -19.796406 57.414833
4.319586 -18.560846 55.690804
4.067375 -17.309422 54.127022
3.503971 -16.036161 52.708984
3.051132 -12.016472 52.960213
2.639406 -7.9946 53.154366
2.290581 -3.986611 53.226189
2.770714 -2.519688 56.654251
2.510332 -1.289425 54.86084
2.020056 0.000763 53.119347
1.834448 3.967533 52.792511
1.730904 7.916204 52.222588
1.297089 9.180832 64.333923
1.683733 10.18033 61.931
1.987047 11.182791 59.544067
1.322054 -20.213486 48.786575
0.479919 -23.00164 47.659882
-0.354076 -25.82748 46.567825
-1.758959 -20.497721 45.208038
-1.442705 -24.652151 45.323311
-4.229055 -20.315002 39.013973
-3.925852 -24.653433 39.217365
2.82188 -20.125379 50.544342
3.048411 -22.115396 50.462387
3.355874 -20.749734 51.117569
0.811315 10.036634 49.218163
1.16741 11.264976 49.752289
0.864214 1.984326 67.002167
0.637084 1.428726 68.137055
0.638331 3.4991 68.118675
4.945693 -25.020035 56.286735
4.889529 -25.599355 57.201706
4.727296 -23.097934 56.338532
4.992205 -24.417106 55.404457
4.945693 -25.020035 56.286735
1.485475 -14.029478 65.105793
1.558429 -16.081224 64.960636
2.24754 8.821665 56.788215
2.303223 7.404347 55.972263
2.302338 6.848365 57.069835
-3.113187 -26.077557 41.749584
-2.954739 -24.472374 42.482738
-3.258812 -23.976011 41.668518
-3.260097 -27.659381 41.004328
-3.113187 -26.077557 41.749584
1.923131 -26.200268 48.749909
2.331996 -24.844266 49.279411
1.293074 -25.619709 48.218102
1.923131 -26.200268 48.749909
4.16322 -27.348895 60.230301
3.832963 -27.908021 61.321824
3.964737 -25.475682 60.210183
4.483658 -26.763101 59.181458
4.16322 -27.348895 60.230301
0.592271 -4.849429 67.961922
0.615179 -2.747196 68.051865
0.908162 -6.343292 66.754463
0.592271 -4.849429 67.961922
1.227845 -5.744953 65.699345
1.254007 -7.8335 65.571552
0.908162 -6.343292 66.754463
-2.004624 9.504624 43.52322
-1.603741 8.705911 44.577837
-4.470489 -0.071692 39.479668
-4.183163 1.43651 40.090843
-4.520598 2.058597 39.078972
-4.387401 -2.235717 39.844746
-4.470489 -0.071692 39.479668
4.483228 -22.616798 53.085888
4.761311 -23.216283 53.800476
4.254075 -20.65012 53.171325
4.20183 -21.995109 52.381923
4.483228 -22.616798 53.085888
1.501281 -22.655572 65.778408
1.080955 -23.255135 66.917068
1.936146 -22.065366 64.647476
2.062242 -24.013168 64.607754
1.501281 -22.655572 65.778408
1.897305 9.240798 52.878712
1.936094 7.273447 53.222889
2.102494 8.598041 53.879013
1.714813 9.88183 51.813488
1.897305 9.240798 52.878712
-1.74279 -26.134546 44.696863
-1.901268 -24.072612 44.628414
-2.201353 -25.555006 44.001966
-1.268946 -26.672343 45.378631
-1.74279 -26.134546 44.696863
-4.320469 -22.057364 38.226099
-4.49505 -19.861963 38.112573
-4.168867 -24.226579 38.327795
-4.077453 -22.484217 39.115669
-4.320469 -22.057364 38.226099
2.725934 -23.470927 49.852718
3.048411 -22.115396 50.462387
2.120478 -22.86438 49.315853
2.331996 -24.844266 49.279411
2.725934 -23.470927 49.852718
0.463079 8.790735 48.633483
0.809142 8.052566 49.642952
0.811315 10.036634 49.218163
0.057544 9.560517 47.667514
0.055372 7.576449 48.092304
0.463079 8.790735 48.633483
3.23846 -26.638465 62.374844
3.832963 -27.908021 61.321824
0.605663 -0.662847 68.12101
0.637084 1.428726 68.137055
0.872484 -2.170396 66.951401
0.615179 -2.747196 68.051865
0.605663 -0.662847 68.12101
-3.918455 11.210782 38.633301
-3.520399 12.554104 39.132187
-3.920084 9.142637 39.233075
-3.918455 11.210782 38.633301
-3.927477 7.077183 39.773659
-3.563421 8.453368 40.314656
-3.920084 9.142637 39.233075
-4.258705 5.666625 39.191113
-3.902043 4.977357 40.272694
-3.927477 7.077183 39.773659
-4.581867 4.192488 38.620316
-4.258705 5.666625 39.191113
-4.520598 2.058597 39.078972
-4.581867 4.192488 38.620316
4.880479 -23.827881 54.590958
4.992205 -24.417106 55.404457
4.654641 -21.883407 54.665771
4.761311 -23.216283 53.800476
4.880479 -23.827881 54.590958
1.686523 -18.095403 64.828243
1.78618 -20.103064 64.722465
2.069079 -17.484176 63.759193
1.686523 -18.095403 64.828243
1.558429 -16.081224 64.960636
2.194854 8.004169 54.956917
2.249652 6.030869 55.238537
2.303223 7.404347 55.972263
2.102494 8.598041 53.879013
2.194854 8.004169 54.956917
1.073918 14.733482 64.600456
1.076504 12.715768 64.977767
0.883425 14.242265 65.851844
1.248334 15.207895 63.295433
1.073918 14.733482 64.600456
1.429075 15.689577 62.038208
1.447739 13.688667 62.469154
1.248334 15.207895 63.295433
-2.584472 -25.033497 43.248661
-2.730097 -22.93195 43.167594
-2.954739 -24.472374 42.482738
-2.201353 -25.555006 44.001966
-2.584472 -25.033497 43.248661
4.691724 -26.193868 58.171971
4.483658 -26.763101 59.181458
4.482979 -24.295376 58.191074
4.889529 -25.599355 57.201706
4.691724 -26.193868 58.171971
1.333692 -9.901365 65.418724
1.381512 -11.979926 65.265389
1.653374 -9.303025 64.363606
1.333692 -9.901365 65.418724
1.254007 -7.8335 65.571552
0.671607 5.572734 68.035484
0.638331 3.4991 68.118675
0.677464 7.624502 67.90794
0.871318 6.106469 66.856244
0.671607 5.572734 68.035484
0.706425 9.677971 67.708027
0.677464 7.624502 67.90794
0.710843 11.711127 67.458256
0.881593 10.191394 66.478927
0.706425 9.677971 67.708027
0.729988 13.746329 67.132351
0.710843 11.711127 67.458256
0.883425 14.242265 65.851844
0.729988 13.746329 67.132351
-4.623401 -9.815449 39.05886
-4.755771 -7.60349 38.805944
-0.322835 10.336953 46.631626
0.057544 9.560517 47.667514
-0.761973 9.139951 46.119929
-0.322835 10.336953 46.631626
-1.187298 7.915447 45.564009
-0.775487 7.121727 46.570415
-0.761973 9.139951 46.119929
-1.617254 6.687687 45.028324
-1.187298 7.915447 45.564009
-1.603741 8.705911 44.577837
-3.149625 11.807593 40.284474
-3.520399 12.554104 39.132187
-2.779268 11.064315 41.377662
-3.149625 11.807593 40.284474
-3.185671 9.775544 40.86726
-2.395431 10.281681 42.482368
-2.779268 11.064315 41.377662
-2.424505 8.255209 43.0013
-2.004624 9.504624 43.52322
-2.395431 10.281681 42.482368
-4.315494 -4.392485 40.155758
-4.061148 -2.850547 40.802551
-4.387401 -2.235717 39.844746
-4.541093 -5.965283 39.480106
-4.21484 -6.580113 40.437912
-4.315494 -4.392485 40.155758
-4.755771 -7.60349 38.805944
-4.541093 -5.965283 39.480106
3.777541 -21.384092 51.751487
4.20183 -21.995109 52.381923
3.55101 -19.394074 51.833442
3.355874 -20.749734 51.117569
3.777541 -21.384092 51.751487
1.182297 -25.186996 66.914757
1.080955 -23.255135 66.917068
1.778109 -26.478303 65.785943
1.182297 -25.186996 66.914757
2.229999 -25.909413 64.614674
2.380731 -27.784343 64.66193
1.778109 -26.478303 65.785943
2.664865 -25.319208 63.483742
2.229999 -25.909413 64.614674
2.062242 -24.013168 64.607754
3.070704 -24.742219 62.367924
3.23846 -26.638465 62.374844
2.664865 -25.319208 63.483742
2.347141 -21.460659 63.551811
1.936146 -22.065366 64.647476
1.78618 -20.103064 64.722465
1.837022 -13.420443 64.051181
1.485475 -14.029478 65.105793
1.381512 -11.979926 65.265389
1.42805 10.572961 50.816009
1.444141 8.607335 51.22511
1.714813 9.88183 51.813488
1.16741 11.264976 49.752289
1.42805 10.572961 50.816009
1.601087 16.156023 60.727031
1.429075 15.689577 62.038208
1.776042 14.656418 59.962257
1.601087 16.156023 60.727031
1.955326 13.162639 59.128326
1.807763 12.67657 60.377998
1.776042 14.656418 59.962257
2.076124 11.69962 58.367081
1.955326 13.162639 59.128326
2.205928 10.241067 57.537941
2.116851 9.724238 58.714928
2.076124 11.69962 58.367081
2.24754 8.821665 56.788215
2.205928 10.241067 57.537941
0.669763 -25.001669 47.67677
1.293074 -25.619709 48.218102
1.103229 -23.61968 48.201214
0.252766 -26.414589 47.130741
0.669763 -25.001669 47.67677
0.062921 -24.41456 47.113854
-0.168864 -27.805335 46.612781
0.252766 -26.414589 47.130741
-0.724631 -27.260008 46.000889
-0.89839 -25.239815 45.945568
-1.268946 -26.672343 45.378631
-0.539419 -29.237862 46.045845
-0.168864 -27.805335 46.612781
-0.724631 -27.260008 46.000889
-4.509445 -12.01585 39.272396
-4.326483 -10.353312 39.975796
-4.623401 -9.815449 39.05886
-4.367874 -14.231897 39.461836
-4.509445 -12.01585 39.272396
-4.244116 -16.430121 39.622141
-4.088768 -14.751937 40.349636
-4.367874 -14.231897 39.461836
-4.376138 -18.112541 38.874157
-4.49505 -19.861963 38.112573
-4.097033 -18.632582 39.761957
-4.244116 -16.430121 39.622141
-4.376138 -18.112541 38.874157
-3.993194 -26.376274 38.402594
-4.168867 -24.226579 38.327795
-3.766825 -26.769796 39.288911
-3.993194 -26.376274 38.402594
-3.834167 -28.492636 38.47414
-3.512529 -27.233676 40.147911
-3.671556 -25.117314 40.076364
-3.766825 -26.769796 39.288911
-3.260097 -27.659381 41.004328
-3.512529 -27.233676 40.147911
3 0 144 146
3 144 38 145
3 144 145 146
3 148 147 39
3 2 149 151
3 149 41 150
3 149 150 151
3 2 43 41
3 2 45 43
3 1 48 46
3 3 51 49
3 5 54 52
3 5 56 54
3 6 152 153
3 6 154 156
3 154 59 155
3 154 155 156
3 157 61 158
3 7 64 62
3 7 66 64
3 7 68 66
3 8 71 69
3 8 159 161
3 161 160 71
3 159 160 161
3 4 76 74
3 9 162 164
3 164 163 77
3 162 163 164
3 9 165 166
3 10 167 168
3 10 169 170
3 11 81 79
3 13 82 40
3 13 83 82
3 14 171 172
3 14 173 175
3 173 84 174
3 173 174 175
3 15 176 177
3 15 178 179
3 15 180 182
3 180 86 181
3 180 181 182
3 17 87 42
3 17 88 87
3 17 90 88
3 19 91 44
3 19 92 91
3 20 95 93
3 22 96 47
3 22 97 96
3 24 101 99
3 26 102 50
3 26 103 102
3 12 104 80
3 27 105 53
3 27 106 105
3 27 107 106
3 28 108 55
3 28 109 108
3 183 110 184
3 29 111 57
3 29 112 111
3 29 113 112
3 185 114 186
3 187 186 58
3 185 186 187
3 189 188 114
3 30 190 191
3 30 192 194
3 192 115 193
3 192 193 194
3 195 116 196
3 197 117 198
3 199 198 116
3 197 198 199
3 31 118 60
3 31 119 118
3 16 120 85
3 32 121 63
3 32 122 121
3 32 123 122
3 33 124 65
3 33 125 124
3 33 126 125
3 34 127 67
3 34 128 127
3 18 129 89
3 35 130 70
3 35 131 130
3 35 132 131
3 200 133 201
3 202 201 72
3 200 201 202
3 204 203 133
3 23 134 98
3 36 135 73
3 36 136 135
3 25 137 100
3 37 138 75
3 37 139 138
3 21 140 94
3 205 141 206
3 207 206 78
3 205 206 207
3 209 208 141
3 210 142 211
3 212 143 213
3 214 213 142
3 212 213 214
3 38 215 216
3 38 217 219
3 217 10 218
3 217 218 219
3 39 40 11
3 220 40 221
3 222 221 39
3 220 221 222
3 223 13 224
3 225 224 40
3 223 224 225
3 226 14 227
3 41 228 229
3 41 230 232
3 230 15 231
3 230 231 232
3 41 42 15
3 43 42 41
3 43 17 42
3 43 44 17
3 45 44 43
3 45 19 44
3 46 47 20
3 48 47 46
3 48 22 47
3 49 50 24
3 51 50 49
3 51 26 50
3 52 53 12
3 54 53 52
3 54 27 53
3 54 55 27
3 56 55 54
3 56 28 55
3 233 57 234
3 235 57 236
3 237 29 238
3 239 238 57
3 237 238 239
3 240 58 241
3 242 241 29
3 240 241 242
3 243 58 244
3 246 245 58
3 59 247 248
3 59 249 251
3 249 30 250
3 249 250 251
3 252 60 253
3 61 254 256
3 254 60 255
3 254 255 256
3 61 31 60
3 62 63 16
3 64 63 62
3 64 32 63
3 64 65 32
3 66 65 64
3 66 33 65
3 66 67 33
3 68 67 66
3 68 34 67
3 69 70 18
3 71 70 69
3 71 35 70
3 71 72 35
3 257 72 258
3 259 258 71
3 257 258 259
3 261 260 72
3 262 73 263
3 264 263 23
3 262 263 264
3 265 73 266
3 267 36 268
3 269 268 73
3 267 268 269
3 74 75 25
3 76 75 74
3 76 37 75
3 77 78 21
3 270 78 271
3 272 271 77
3 270 271 272
3 274 273 78
3 79 80 3
3 81 80 79
3 81 12 80
3 40 81 11
3 82 81 40
3 82 12 81
3 82 52 12
3 83 52 82
3 83 5 52
3 84 275 276
3 84 277 279
3 277 6 278
3 277 278 279
3 280 85 281
3 86 282 284
3 282 85 283
3 282 283 284
3 86 16 85
3 42 86 15
3 87 86 42
3 87 16 86
3 87 62 16
3 88 62 87
3 88 7 62
3 88 89 7
3 90 89 88
3 90 18 89
3 44 90 17
3 91 90 44
3 91 18 90
3 91 69 18
3 92 69 91
3 92 8 69
3 93 94 4
3 95 94 93
3 95 21 94
3 47 95 20
3 96 95 47
3 96 21 95
3 96 77 21
3 97 77 96
3 97 9 77
3 285 2 286
3 287 98 288
3 289 288 2
3 287 288 289
3 290 98 291
3 292 23 293
3 294 293 98
3 292 293 294
3 295 23 296
3 298 297 23
3 300 299 1
3 99 100 0
3 101 100 99
3 101 25 100
3 50 101 24
3 102 101 50
3 102 25 101
3 102 74 25
3 103 74 102
3 103 4 74
3 80 51 3
3 104 51 80
3 104 26 51
3 53 104 12
3 105 104 53
3 105 26 104
3 105 103 26
3 106 103 105
3 106 4 103
3 106 93 4
3 107 93 106
3 107 20 93
3 55 107 27
3 108 107 55
3 108 20 107
3 108 46 20
3 109 46 108
3 109 1 46
3 301 13 302
3 303 13 304
3 305 83 306
3 307 306 13
3 305 306 307
3 110 308 310
3 308 83 309
3 308 309 310
3 110 5 83
3 57 311 312
3 111 313 315
3 315 314 57
3 313 314 315
3 111 316 317
3 111 318 320
3 318 110 319
3 318 319 320
3 112 110 111
3 112 5 110
3 112 56 5
3 113 56 112
3 113 28 56
3 58 113 29
3 114 113 58
3 114 28 113
3 114 109 28
3 321 109 322
3 323 322 114
3 321 322 323
3 324 1 325
3 326 325 109
3 324 325 326
3 328 327 1
3 115 329 330
3 115 331 333
3 331 0 332
3 331 332 333
3 116 334 335
3 116 336 337
3 116 338 340
3 338 339 340
3 117 341 343
3 343 342 116
3 341 342 343
3 117 344 346
3 344 14 345
3 344 345 346
3 60 347 349
3 347 117 348
3 347 348 349
3 118 117 60
3 118 14 117
3 118 84 14
3 119 84 118
3 119 6 84
3 85 350 352
3 350 61 351
3 350 351 352
3 120 61 85
3 120 31 61
3 63 120 16
3 121 120 63
3 121 31 120
3 121 119 31
3 122 119 121
3 122 6 119
3 122 59 6
3 123 59 122
3 123 30 59
3 65 123 32
3 124 123 65
3 124 30 123
3 124 115 30
3 125 115 124
3 125 0 115
3 125 99 0
3 126 99 125
3 126 24 99
3 67 126 33
3 127 126 67
3 127 24 126
3 127 49 24
3 128 49 127
3 128 3 49
3 89 68 7
3 129 68 89
3 129 34 68
3 70 129 18
3 130 129 70
3 130 34 129
3 130 128 34
3 131 128 130
3 131 3 128
3 131 79 3
3 132 79 131
3 132 11 79
3 72 132 35
3 133 132 72
3 133 11 132
3 133 39 11
3 353 39 354
3 355 354 133
3 353 354 355
3 357 356 39
3 98 45 2
3 134 45 98
3 134 19 45
3 73 134 23
3 135 134 73
3 135 19 134
3 135 92 19
3 136 92 135
3 136 8 92
3 358 36 359
3 360 36 361
3 362 136 363
3 364 363 36
3 362 363 364
3 365 136 366
3 367 8 368
3 369 368 136
3 367 368 369
3 371 370 8
3 100 38 0
3 137 38 100
3 137 10 38
3 75 137 25
3 138 137 75
3 138 10 137
3 138 372 374
3 374 373 10
3 372 373 374
3 139 375 377
3 377 376 138
3 375 376 377
3 139 378 379
3 94 76 4
3 140 76 94
3 140 37 76
3 78 140 21
3 141 140 78
3 141 37 140
3 141 139 37
3 380 139 381
3 382 381 141
3 380 381 382
3 385 384 139
3 383 384 385
3 386 48 387
3 388 387 1
3 386 387 388
3 389 48 390
3 391 22 392
3 393 392 48
3 391 392 393
3 142 394 395
3 142 396 398
3 396 22 397
3 396 397 398
3 142 97 22
3 143 97 142
3 143 9 97
3 399 143 400
3 401 143 402
3 401 402 403
3 404 9 405
3 406 405 143
3 404 405 406
3 408 407 9
