ply
format ascii 1.0
element vertex 275
property float x
property float y
property float z
element face 285
property list uchar int vertex_index
end_header
20.324636 36.093727 -31.753332
33.691959 56.614212 -23.119101
15.905793 75.587906 -25.743494
21.493032 61.556236 -26.877401
29.884037 70.431129 -21.443853
15.316761 50.134987 -32.290161
25.680761 47.385567 -27.897837
22.845596 73.367645 -23.393942
12.738132 57.546776 -32.395973
27.788845 59.200493 -24.671629
23.802834 54.215355 -27.296793
29.471317 52.253166 -25.369967
12.584885 70.618546 -29.207952
15.429079 63.52523 -29.645628
18.843212 68.926353 -26.538965
25.542118 66.476395 -24.103373
32.148571 63.563736 -22.366899
17.804625 42.921249 -32.105316
18.050085 56.042389 -29.78583
20.427177 48.770393 -30.007582
22.557625 41.99918 -30.252024
37.972618 60.311935 -21.071066
38.362106 53.909767 -21.546289
30.838873 57.930626 -23.841757
28.713238 55.654694 -25.007967
31.546576 54.500702 -24.200903
32.038609 51.231316 -24.531763
34.119934 53.318192 -23.42993
18.185764 36.370087 -32.383682
14.158823 73.252342 -27.514059
15.629454 69.89743 -27.894617
17.403851 72.392441 -26.240114
26.390392 71.974266 -22.345781
24.247452 70.02243 -23.799173
27.707726 68.604263 -22.782732
28.895721 65.069221 -23.146074
31.09568 67.060486 -21.939631
14.238256 47.07238 -33.149193
15.519213 43.433662 -32.942619
16.564613 46.484665 -32.208488
18.402897 62.607178 -28.228994
16.770187 59.789673 -29.720392
19.686726 58.857887 -28.337595
24.803858 50.722832 -27.59041
22.029835 51.546295 -28.678621
23.073895 48.079628 -28.913118
21.522522 45.319016 -30.146544
24.022413 44.758968 -29.138945
37.319633 63.63855 -20.617296
39.974327 61.795662 -19.966043
40.34824 55.519539 -20.505377
19.325161 74.587433 -24.550306
24.950443 75.075882 -21.769686
14.045723 53.839447 -32.357559
24.644741 60.413124 -25.678141
22.694147 57.84285 -27.057398
25.72979 56.771042 -25.944307
26.691277 53.248535 -26.267241
27.505878 49.881882 -26.617239
30.038334 49.018036 -25.709204
12.615635 64.248375 -31.01362
14.029764 67.164825 -29.50017
17.048855 66.317917 -28.105322
20.208138 65.28138 -26.725012
20.78949 71.296936 -24.971518
22.168144 67.770897 -25.247889
23.454456 64.10923 -25.460531
26.72547 62.835365 -24.37702
29.945631 61.47847 -23.489244
33.023781 60.050667 -22.75773
16.827894 39.861485 -32.690514
19.052399 39.458382 -31.959654
13.99194 60.590721 -31.102583
15.316752 56.859398 -31.127234
16.590883 53.129555 -31.136797
20.897648 55.150772 -28.481234
19.26923 52.353035 -29.879332
17.820286 49.46096 -31.156351
19.011919 45.89315 -31.183443
20.173244 42.443443 -31.192293
21.315281 39.108501 -31.147875
34.329384 65.401077 -21.241358
35.208023 61.971947 -21.707701
35.855263 58.566238 -22.095934
40.341255 58.611259 -20.337831
38.330296 57.0467 -21.386751
36.235802 55.266792 -22.395426
36.323334 52.121704 -22.57757
19.967638 34.528577 -31.890365
18.898203 34.666758 -32.20554
19.2552 36.231907 -32.068507
14.285916 75.944577 -26.312134
15.143395 77.014878 -25.35646
15.032308 74.420124 -26.628777
13.412432 74.776794 -27.197416
14.285916 75.944577 -26.312134
14.777508 48.603684 -32.719677
13.599934 48.910572 -33.232975
14.139187 50.441876 -32.803459
26.053978 45.790382 -28.027832
25.224804 44.477083 -28.648386
24.851587 46.072268 -28.518391
40.884567 62.379452 -19.334396
39.628992 63.393906 -19.684719
25.990552 75.723038 -20.9086
24.176839 76.452759 -21.378874
26.737656 74.320549 -21.300472
25.990552 75.723038 -20.9086
12.202759 55.982738 -32.916851
11.539564 57.785904 -32.940865
13.391928 55.693112 -32.376766
12.856555 54.129074 -32.897644
12.202759 55.982738 -32.916851
32.16946 49.679848 -24.655554
33.16242 50.710354 -24.089886
13.307325 68.891685 -29.354061
12.61383 67.456829 -30.147072
11.891391 69.183689 -30.000963
11.174538 70.813771 -29.788173
11.853314 72.210033 -28.947971
11.891391 69.183689 -30.000963
11.174538 70.813771 -29.788173
23.051741 40.395262 -30.266466
22.430568 38.949922 -30.714392
21.936453 40.55384 -30.699949
35.369644 66.165428 -20.636555
33.789744 67.074318 -20.963915
41.28417 57.757236 -19.863739
41.274295 59.258881 -19.755531
12.062684 59.36879 -32.382103
11.539564 57.785904 -32.940865
34.203083 51.753792 -23.538969
33.16242 50.710354 -24.089886
33.079272 52.274754 -23.980846
17.889242 34.776308 -32.412075
17.143587 36.543894 -32.63794
17.889242 34.776308 -32.412075
18.898203 34.666758 -32.20554
12.640283 73.526931 -28.101025
13.412432 74.776794 -27.197416
13.371854 71.935444 -28.361005
11.853314 72.210033 -28.947971
12.640283 73.526931 -28.101025
13.15468 47.33823 -33.537906
13.599934 48.910572 -33.232975
13.802784 45.512882 -33.394634
13.15468 47.33823 -33.537906
14.878735 45.253021 -33.045906
14.443262 43.693523 -33.291348
13.802784 45.512882 -33.394634
24.45107 43.163403 -29.219332
23.718676 41.783508 -29.775872
23.290019 43.379074 -29.695484
24.45107 43.163403 -29.219332
25.224804 44.477083 -28.648386
38.301645 64.315349 -20.010345
36.864768 65.284165 -20.324524
38.64698 62.717106 -20.291669
38.301645 64.315349 -20.010345
39.628992 63.393906 -19.684719
41.091593 54.765004 -19.924755
41.287662 56.211377 -19.947512
40.166258 54.042225 -20.481033
41.091593 54.765004 -19.924755
39.173191 53.237339 -21.001489
39.355173 54.714653 -21.025833
40.166258 54.042225 -20.481033
38.21278 52.418884 -21.537143
39.173191 53.237339 -21.001489
18.55958 76.073467 -24.226593
17.615477 75.08767 -25.1469
16.849896 76.573704 -24.823187
20.335648 75.502796 -23.680595
18.55958 76.073467 -24.226593
22.095865 74.892902 -23.102413
21.085379 73.977539 -23.972124
20.335648 75.502796 -23.680595
23.148288 75.74702 -22.290285
24.176839 76.452759 -21.378874
23.89802 74.221763 -22.581814
22.095865 74.892902 -23.102413
23.148288 75.74702 -22.290285
27.457631 72.769741 -21.58852
25.670417 73.525074 -22.057733
26.737656 74.320549 -21.300472
29.204453 71.998173 -21.137556
28.137214 71.202697 -21.894817
27.457631 72.769741 -21.58852
16.849896 76.573704 -24.823187
15.143395 77.014878 -25.35646
13.503668 52.294106 -32.837158
12.856555 54.129074 -32.897644
14.681242 51.987217 -32.32386
14.139187 50.441876 -32.803459
13.503668 52.294106 -32.837158
27.831444 48.278835 -26.776733
26.918886 47.030678 -27.417032
26.593319 48.633724 -27.257538
29.097673 47.846913 -26.322716
27.831444 48.278835 -26.776733
28.772106 49.449959 -26.163221
30.223629 47.477733 -25.835825
29.097673 47.846913 -26.322716
31.169323 48.573208 -25.244274
31.038471 50.124676 -25.120483
32.16946 49.679848 -24.655554
30.223629 47.477733 -25.835825
31.169323 48.573208 -25.244274
11.906766 65.998604 -30.903797
11.30716 64.472172 -31.616295
13.322699 65.7066 -30.256895
11.906766 65.998604 -30.903797
12.61383 67.456829 -30.147072
20.98226 34.455383 -31.62278
21.390664 35.982258 -31.390845
15.109999 41.874246 -33.11887
14.443262 43.693523 -33.291348
15.76434 40.088158 -32.992817
15.109999 41.874246 -33.11887
16.173554 41.647574 -32.816567
16.464652 38.289593 -32.791356
15.76434 40.088158 -32.992817
17.506829 38.115786 -32.537098
17.143587 36.543894 -32.63794
16.464652 38.289593 -32.791356
12.001435 62.719589 -31.690926
11.30716 64.472172 -31.616295
12.689588 60.890763 -31.735408
12.001435 62.719589 -31.690926
13.303787 62.419548 -31.058101
13.365036 59.068748 -31.749278
12.062684 59.36879 -32.382103
12.689588 60.890763 -31.735408
21.885987 37.489645 -31.088116
21.390664 35.982258 -31.390845
20.819958 37.601114 -31.450603
21.885987 37.489645 -31.088116
22.430568 38.949922 -30.714392
23.051741 40.395262 -30.266466
23.718676 41.783508 -29.775872
26.053978 45.790382 -28.027832
26.918886 47.030678 -27.417032
30.93804 71.164288 -20.729745
29.204453 71.998173 -21.137556
31.56707 69.589344 -21.065162
30.93804 71.164288 -20.729745
32.172892 67.904022 -21.313052
30.489859 68.745807 -21.691742
31.56707 69.589344 -21.065162
32.712532 66.230782 -21.590494
32.172892 67.904022 -21.313052
33.789744 67.074318 -20.963915
35.824509 64.519813 -20.929327
35.369644 66.165428 -20.636555
36.864768 65.284165 -20.324524
41.090832 60.851082 -19.569637
40.884567 62.379452 -19.334396
40.157791 60.20346 -20.151937
41.090832 60.851082 -19.569637
41.274295 59.258881 -19.755531
40.344747 57.065399 -20.421604
41.28417 57.757236 -19.863739
41.287662 56.211377 -19.947512
35.304783 51.155548 -23.112789
34.203083 51.753792 -23.538969
35.221634 52.719948 -23.00375
37.193394 51.524853 -22.052784
37.34272 53.015736 -22.06193
38.21278 52.418884 -21.537143
36.221516 50.629661 -22.592877
37.193394 51.524853 -22.052784
35.304783 51.155548 -23.112789
36.221516 50.629661 -22.592877
19.967638 34.528577 -31.890365
20.98226 34.455383 -31.62278
3 1 25 23
3 1 27 25
3 0 88 90
3 90 89 28
3 88 89 90
3 2 31 29
3 4 34 32
3 4 36 34
3 2 91 92
3 2 93 95
3 93 29 94
3 93 94 95
3 5 96 98
3 96 37 97
3 96 97 98
3 5 39 37
3 3 42 40
3 6 45 43
3 6 47 45
3 6 99 101
3 101 100 47
3 99 100 101
3 102 49 103
3 104 52 105
3 107 106 52
3 8 108 109
3 8 110 112
3 110 53 111
3 110 111 112
3 9 56 54
3 11 57 24
3 11 58 57
3 11 59 58
3 114 113 26
3 12 115 117
3 115 61 116
3 115 116 117
3 14 62 30
3 14 63 62
3 7 64 51
3 15 65 33
3 15 66 65
3 15 67 66
3 16 68 35
3 16 69 68
3 12 118 119
3 12 120 121
3 17 70 38
3 17 71 70
3 13 72 60
3 18 73 41
3 18 74 73
3 10 75 55
3 19 76 44
3 19 77 76
3 19 78 77
3 20 79 46
3 20 80 79
3 20 122 124
3 124 123 80
3 122 123 124
3 125 81 126
3 21 82 48
3 21 83 82
3 127 84 128
3 22 85 50
3 22 86 85
3 22 87 86
3 129 8 130
3 23 24 9
3 25 24 23
3 25 11 24
3 25 26 11
3 27 26 25
3 27 131 133
3 133 132 26
3 131 132 133
3 28 134 135
3 137 136 28
3 29 30 12
3 31 30 29
3 31 14 30
3 32 33 7
3 34 33 32
3 34 15 33
3 34 35 15
3 36 35 34
3 36 16 35
3 29 138 139
3 29 140 142
3 140 12 141
3 140 141 142
3 37 143 144
3 37 145 146
3 37 147 149
3 147 38 148
3 147 148 149
3 39 38 37
3 39 17 38
3 40 41 13
3 42 41 40
3 42 18 41
3 43 44 10
3 45 44 43
3 45 19 44
3 45 46 19
3 47 46 45
3 47 20 46
3 47 150 152
3 152 151 20
3 150 151 152
3 154 153 47
3 155 48 156
3 49 157 159
3 157 48 158
3 157 158 159
3 49 21 48
3 160 50 161
3 162 50 163
3 164 22 165
3 166 165 50
3 164 165 166
3 168 167 22
3 169 51 170
3 171 170 2
3 169 170 171
3 172 51 173
3 174 7 175
3 176 175 51
3 174 175 176
3 52 177 178
3 52 179 181
3 179 7 180
3 179 180 181
3 52 32 7
3 182 32 183
3 184 183 52
3 182 183 184
3 185 4 186
3 187 186 32
3 185 186 187
3 188 2 189
3 53 190 191
3 53 192 194
3 192 5 193
3 192 193 194
3 54 55 3
3 56 55 54
3 56 10 55
3 24 56 9
3 57 56 24
3 57 10 56
3 57 43 10
3 58 43 57
3 58 6 43
3 58 195 197
3 197 196 6
3 195 196 197
3 59 198 200
3 200 199 58
3 198 199 200
3 59 201 202
3 26 59 11
3 203 59 204
3 205 204 26
3 203 204 205
3 207 206 59
3 208 60 209
3 61 210 212
3 210 60 211
3 210 211 212
3 61 13 60
3 30 61 12
3 62 61 30
3 62 13 61
3 62 40 13
3 63 40 62
3 63 3 40
3 51 31 2
3 64 31 51
3 64 14 31
3 33 64 7
3 65 64 33
3 65 14 64
3 65 63 14
3 66 63 65
3 66 3 63
3 66 54 3
3 67 54 66
3 67 9 54
3 35 67 15
3 68 67 35
3 68 9 67
3 68 23 9
3 69 23 68
3 69 1 23
3 214 213 0
3 38 215 216
3 70 217 219
3 219 218 38
3 217 218 219
3 70 220 221
3 70 222 224
3 222 28 223
3 222 223 224
3 71 28 70
3 71 0 28
3 60 225 226
3 72 227 229
3 229 228 60
3 227 228 229
3 72 230 232
3 230 8 231
3 230 231 232
3 41 72 13
3 73 72 41
3 73 8 72
3 73 53 8
3 74 53 73
3 74 5 53
3 55 42 3
3 75 42 55
3 75 18 42
3 44 75 10
3 76 75 44
3 76 18 75
3 76 74 18
3 77 74 76
3 77 5 74
3 77 39 5
3 78 39 77
3 78 17 39
3 46 78 19
3 79 78 46
3 79 17 78
3 79 71 17
3 80 71 79
3 80 0 71
3 80 233 235
3 235 234 0
3 233 234 235
3 237 236 80
3 239 238 20
3 241 240 6
3 242 4 243
3 244 4 245
3 246 36 247
3 248 247 4
3 246 247 248
3 81 249 251
3 249 36 250
3 249 250 251
3 81 16 36
3 48 252 254
3 252 81 253
3 252 253 254
3 82 81 48
3 82 16 81
3 82 69 16
3 83 69 82
3 83 1 69
3 255 49 256
3 84 257 259
3 257 49 258
3 257 258 259
3 84 21 49
3 50 260 262
3 260 84 261
3 260 261 262
3 85 84 50
3 85 21 84
3 85 83 21
3 86 83 85
3 86 1 83
3 86 27 1
3 87 27 86
3 87 263 265
3 265 264 27
3 263 264 265
3 266 87 267
3 268 267 22
3 266 267 268
3 269 87 270
3 272 271 87
3 274 273 0
