ply
format ascii 1.0
element vertex 248
property float x
property float y
property float z
element face 243
property list uchar int vertex_index
end_header
52.572174 43.289768 1.791972
51.473625 53.578568 -5.606697
53.383507 49.784485 3.517124
56.280018 38.873962 8.346491
52.351662 44.822216 13.438243
52.395519 48.531067 -1.839567
53.223366 47.438492 8.465079
56.22813 36.363567 11.829028
54.253468 46.600441 2.075733
54.964775 41.15818 4.940167
55.225182 44.434402 6.28862
55.107372 42.042603 10.662028
53.86644 39.33181 14.882379
50.523365 57.248726 -4.175072
52.783287 51.867645 -1.187019
50.893784 41.542385 2.075253
52.48444 40.50053 3.327242
52.556923 45.955856 0.040083
51.235985 46.863358 -1.648607
51.105911 44.271839 0.306839
49.198128 42.50515 0.841825
50.595505 54.216858 -7.710747
54.121532 48.207153 2.656427
54.866409 45.542519 4.147772
54.402924 47.118088 4.939976
52.872086 46.16761 10.96876
54.264511 44.76202 9.6443
53.843422 43.479877 11.991651
54.621525 40.733879 12.811973
53.197411 42.113209 14.27739
52.187668 52.47274 2.112988
52.050011 53.545815 -0.350225
53.178299 50.862328 1.128813
53.619774 49.236572 0.446042
55.780342 40.036697 6.617798
55.094482 38.292984 5.989019
55.993767 37.144405 7.413429
52.046261 51.057182 -3.751574
51.034378 51.789078 -5.751032
51.230717 49.353737 -3.700119
47.010834 40.59161 1.577129
52.167847 51.325691 4.642399
53.396786 48.642746 5.969716
52.006054 50.112526 7.22681
51.72039 48.835655 9.842256
51.324974 47.492798 12.453185
56.432926 37.655426 10.095437
56.55632 35.955647 8.883872
49.912292 52.344902 -7.687168
53.726795 44.965534 1.786997
53.877739 42.244656 3.331319
54.694599 43.919361 3.606999
55.414047 42.829643 5.502057
55.846329 41.695747 7.457454
54.451912 45.971466 7.279763
55.309006 43.271435 8.472841
55.963745 40.507114 9.442381
55.753387 39.248459 11.416742
55.220455 37.903927 13.340206
54.391716 36.461243 15.182022
52.342152 40.65073 16.463953
52.872635 37.826492 16.846054
51.278992 55.403275 -5.074032
50.760361 56.284683 -1.72031
51.746941 54.530327 -2.745548
52.209251 52.782555 -3.431257
52.918591 50.194466 -1.688112
53.417175 47.602737 0.081573
53.905552 39.411999 4.626633
51.034565 53.897713 -6.658722
50.623818 55.174557 -7.521276
51.062877 54.855412 -6.469252
50.526009 47.255356 -2.474002
50.387237 46.008645 -1.399141
47.929673 40.132765 2.087372
48.104481 41.54838 1.209477
49.023319 41.089535 1.71972
46.814917 39.106419 2.435073
47.929673 40.132765 2.087372
51.32963 51.467895 6.621462
52.086951 50.719109 5.934605
51.410527 52.074478 5.329256
50.930548 49.501248 10.626421
51.072365 50.180683 9.272502
50.732839 48.829819 11.931886
51.522682 48.164226 11.147721
50.930548 49.501248 10.626421
51.410527 52.074478 5.329256
51.48592 52.690601 4.009357
56.490366 35.536789 11.102232
56.592764 36.182719 10.235437
56.330528 37.009496 10.962232
49.938468 51.186107 -6.599634
50.473335 52.06699 -6.7191
50.499511 50.908196 -5.631566
51.586565 41.25959 17.288245
52.005575 42.021558 16.147417
52.279858 37.020367 17.77055
52.087616 38.455469 17.687365
53.094471 36.370576 16.887463
52.279858 37.020367 17.77055
50.325594 57.663788 -5.369937
49.825786 58.637245 -4.810986
50.901179 56.326 -4.624552
50.703407 56.741062 -5.819417
50.325594 57.663788 -5.369937
50.804263 55.749245 -0.461906
50.080674 57.152622 -1.056112
54.470978 37.373071 5.800508
55.107245 36.803404 6.344975
56.32434 35.051816 8.366328
56.637317 34.44903 8.965295
50.769566 40.097355 2.830101
49.871147 40.608153 2.336434
51.564894 39.576427 3.456095
50.769566 40.097355 2.830101
51.689112 41.021457 2.701248
52.409279 39.035064 3.953235
51.564894 39.576427 3.456095
50.322201 44.712885 -0.421418
50.387237 46.008645 -1.399141
51.170948 45.567599 -0.670884
50.152019 43.388495 0.574332
49.368309 43.829541 -0.153925
50.322201 44.712885 -0.421418
49.871147 40.608153 2.336434
49.023319 41.089535 1.71972
50.045956 42.023768 1.458539
56.403123 34.877125 11.845757
55.954042 35.67353 12.672603
50.233784 55.446354 -8.607532
50.623818 55.174557 -7.521276
50.092697 54.434089 -8.720591
50.233784 55.446354 -8.607532
49.92951 58.167473 -3.561711
49.825786 58.637245 -4.810986
52.118839 53.009277 0.881382
51.449087 54.37981 0.223137
51.517916 53.843273 1.454743
55.556887 36.229114 7.05718
55.107245 36.803404 6.344975
55.544124 37.718694 6.701224
50.597681 49.690525 -4.60611
50.499511 50.908196 -5.631566
51.132548 50.571408 -4.725575
50.523375 48.500546 -3.499758
51.233351 48.108548 -2.674363
50.526009 47.255356 -2.474002
50.597681 49.690525 -4.60611
50.523375 48.500546 -3.499758
48.329813 42.923761 0.216949
49.368309 43.829541 -0.153925
47.236166 41.966992 0.584601
48.329813 42.923761 0.216949
48.104481 41.54838 1.209477
46.104287 40.971659 1.030035
47.236166 41.966992 0.584601
45.873913 39.524325 1.998359
46.104287 40.971659 1.030035
45.677996 38.039133 2.856302
45.873913 39.524325 1.998359
46.814917 39.106419 2.435073
51.215197 50.819119 7.964779
51.32963 51.467895 6.621462
51.863222 49.474091 8.534533
51.215197 50.819119 7.964779
51.072365 50.180683 9.272502
51.49583 53.264126 2.744651
51.517916 53.843273 1.454743
52.177757 51.899215 3.377694
51.49583 53.264126 2.744651
51.48592 52.690601 4.009357
56.654461 35.332829 9.629655
56.494623 36.805537 9.489655
56.592764 36.182719 10.235437
56.637317 34.44903 8.965295
56.654461 35.332829 9.629655
56.490366 35.536789 11.102232
56.403123 34.877125 11.845757
49.751091 53.498112 -8.708802
50.092697 54.434089 -8.720591
50.253899 53.28088 -7.698957
49.273033 51.42316 -7.483838
49.938468 51.186107 -6.599634
49.307293 52.510162 -8.619042
49.273033 51.42316 -7.483838
49.751091 53.498112 -8.708802
49.307293 52.510162 -8.619042
55.450205 36.443711 13.428192
55.954042 35.67353 12.672603
55.724293 37.133747 12.584617
55.035836 35.722369 14.3491
55.450205 36.443711 13.428192
54.806086 37.182585 14.261114
54.611199 34.984089 15.160763
55.035836 35.722369 14.3491
50.568491 48.119286 13.278344
50.732839 48.829819 11.931886
51.074944 46.785256 13.73547
50.568491 48.119286 13.278344
51.588287 45.449965 14.227999
51.838318 46.157507 12.945714
51.074944 46.785256 13.73547
52.01033 44.107301 14.634563
51.588287 45.449965 14.227999
52.433205 42.752798 15.054136
52.774536 43.467712 13.857817
52.01033 44.107301 14.634563
52.769782 41.381969 15.370672
52.433205 42.752798 15.054136
52.005575 42.021558 16.147417
51.822374 39.867588 17.496314
51.586565 41.25959 17.288245
52.607394 39.238611 16.655003
51.822374 39.867588 17.496314
52.087616 38.455469 17.687365
53.854011 35.687952 16.055447
53.632176 37.143867 16.014038
53.094471 36.370576 16.887463
54.611199 34.984089 15.160763
53.854011 35.687952 16.055447
50.965561 55.767765 -6.202919
50.703407 56.741062 -5.819417
51.376309 54.490921 -5.340364
51.062877 54.855412 -6.469252
50.965561 55.767765 -6.202919
50.048008 57.685451 -2.334329
49.368321 58.55339 -1.670131
50.080674 57.152622 -1.056112
50.641863 56.766705 -2.947691
49.92951 58.167473 -3.561711
50.048008 57.685451 -2.334329
51.405186 54.915249 -1.035268
50.804263 55.749245 -0.461906
51.449087 54.37981 0.223137
53.119835 38.490799 4.60293
52.409279 39.035064 3.953235
53.194996 39.956265 3.976938
53.876513 37.932579 5.119315
54.500017 38.852491 5.307826
54.470978 37.373071 5.800508
53.119835 38.490799 4.60293
53.876513 37.932579 5.119315
56.043064 35.646195 7.631106
56.275043 36.550026 8.148651
56.32434 35.051816 8.366328
55.556887 36.229114 7.05718
56.043064 35.646195 7.631106
3 0 16 15
3 0 19 17
3 0 15 19
3 1 69 71
3 69 21 70
3 69 70 71
3 2 24 22
3 4 27 25
3 4 29 27
3 2 32 30
3 2 22 32
3 3 36 34
3 5 39 37
3 73 72 18
3 74 40 75
3 76 75 20
3 74 75 76
3 78 77 40
3 79 43 80
3 81 80 41
3 79 80 81
3 82 44 83
3 84 45 85
3 86 85 44
3 84 85 86
3 87 41 88
3 7 89 91
3 91 90 46
3 89 90 91
3 92 48 93
3 94 93 38
3 92 93 94
3 8 51 49
3 10 52 23
3 10 53 52
3 6 54 42
3 11 55 26
3 11 56 55
3 11 57 56
3 12 58 28
3 12 59 58
3 95 60 96
3 97 61 98
3 100 99 61
3 13 101 102
3 13 103 105
3 103 62 104
3 103 104 105
3 106 63 107
3 14 64 31
3 14 65 64
3 14 66 65
3 8 67 33
3 8 49 67
3 9 68 50
3 109 108 35
3 111 110 47
3 15 112 113
3 16 114 116
3 116 115 15
3 114 115 116
3 16 117 118
3 17 18 5
3 19 18 17
3 19 119 121
3 121 120 18
3 119 120 121
3 19 122 124
3 122 20 123
3 122 123 124
3 15 20 19
3 15 125 127
3 127 126 20
3 125 126 127
3 129 128 7
3 21 130 131
3 21 132 133
3 22 23 8
3 24 23 22
3 24 10 23
3 25 26 6
3 27 26 25
3 27 11 26
3 27 28 11
3 29 28 27
3 29 12 28
3 134 13 135
3 30 136 138
3 136 31 137
3 136 137 138
3 32 31 30
3 32 14 31
3 32 33 14
3 22 33 32
3 22 8 33
3 34 35 9
3 36 35 34
3 36 139 141
3 141 140 35
3 139 140 141
3 37 38 1
3 39 38 37
3 39 142 144
3 144 143 38
3 142 143 144
3 18 39 5
3 145 39 146
3 147 146 18
3 145 146 147
3 149 148 39
3 20 150 151
3 40 152 154
3 154 153 20
3 152 153 154
3 40 155 156
3 40 157 158
3 161 160 40
3 159 160 161
3 41 42 2
3 43 42 41
3 43 6 42
3 162 43 163
3 44 164 166
3 164 43 165
3 164 165 166
3 44 6 43
3 44 25 6
3 45 25 44
3 45 4 25
3 167 30 168
3 41 169 171
3 169 30 170
3 169 170 171
3 41 2 30
3 46 47 3
3 172 47 173
3 174 173 46
3 172 173 174
3 176 175 47
3 178 177 7
3 38 21 1
3 48 21 38
3 48 179 181
3 181 180 21
3 179 180 181
3 182 48 183
3 184 48 185
3 187 186 48
3 49 50 0
3 51 50 49
3 51 9 50
3 23 51 8
3 52 51 23
3 52 9 51
3 52 34 9
3 53 34 52
3 53 3 34
3 42 24 2
3 54 24 42
3 54 10 24
3 26 54 6
3 55 54 26
3 55 10 54
3 55 53 10
3 56 53 55
3 56 3 53
3 56 46 3
3 57 46 56
3 57 7 46
3 28 57 11
3 58 57 28
3 58 7 57
3 58 188 190
3 190 189 7
3 188 189 190
3 59 191 193
3 193 192 58
3 191 192 193
3 59 194 195
3 196 45 197
3 198 45 199
3 200 4 201
3 202 201 45
3 200 201 202
3 203 4 204
3 205 29 206
3 207 206 4
3 205 206 207
3 60 208 210
3 208 29 209
3 208 209 210
3 60 12 29
3 211 60 212
3 61 213 215
3 213 60 214
3 213 214 215
3 61 12 60
3 61 59 12
3 216 59 217
3 218 217 61
3 216 217 218
3 220 219 59
3 62 221 222
3 62 223 225
3 223 1 224
3 223 224 225
3 63 226 228
3 226 227 228
3 63 229 231
3 229 13 230
3 229 230 231
3 31 232 234
3 232 63 233
3 232 233 234
3 64 63 31
3 64 13 63
3 64 62 13
3 65 62 64
3 65 1 62
3 65 37 1
3 66 37 65
3 66 5 37
3 33 66 14
3 67 66 33
3 67 5 66
3 67 17 5
3 49 17 67
3 49 0 17
3 50 16 0
3 68 16 50
3 68 235 237
3 237 236 16
3 235 236 237
3 35 68 9
3 238 68 239
3 240 239 35
3 238 239 240
3 242 241 68
3 47 36 3
3 243 36 244
3 245 244 47
3 243 244 245
3 247 246 36
