ply
format ascii 1.0
element vertex 90
property float x
property float y
property float z
element face 69
property list uchar int vertex_index
end_header
-0.13155 69.136848 -22.504393
-2.136072 52.867111 -27.261957
-1.246965 61.434555 -25.449194
0.854513 75.633018 -21.536043
-0.336006 68.633591 -25.222879
-0.704277 65.390457 -24.111429
-0.868271 64.800583 -26.690733
-1.345919 60.754333 -27.880297
0.4569 72.671066 -20.648245
0.238018 72.249535 -23.497057
0.201633 71.591705 -26.128099
-1.734461 57.263351 -26.502241
-1.745813 56.490891 -28.774614
-0.611279 66.353863 -27.197754
-0.602139 66.717087 -25.956806
-0.345147 68.270367 -26.463827
-0.856426 64.401962 -27.851446
-0.611279 66.353863 -27.197754
0.759027 74.324768 -19.607596
0.63088 72.785759 -19.145857
0.530768 73.645256 -23.900791
0.546265 73.941277 -22.51655
0.839016 75.336997 -22.920284
0.512576 73.316341 -25.216312
0.219826 71.92062 -24.812578
0.530768 73.645256 -23.900791
-2.27841 50.552162 -27.496215
-2.320555 50.981044 -26.391178
-2.087606 52.435276 -28.312509
-2.27841 50.552162 -27.496215
-0.268064 67.476921 -21.922446
0.037626 69.299381 -21.058762
-1.129568 61.700836 -24.127083
-0.858224 63.678787 -23.458201
-0.975621 63.412506 -24.780311
-1.417196 59.669731 -24.720681
-1.129568 61.700836 -24.127083
-1.490713 59.348953 -25.975718
-1.660944 57.584129 -25.247204
-1.417196 59.669731 -24.720681
-1.501333 58.188065 -29.401893
-1.545866 58.622612 -28.327455
-1.301386 60.319786 -28.954735
-1.657358 56.020927 -29.756113
-1.501333 58.188065 -29.401893
1.19138 77.194 -20.450501
0.957834 75.805744 -20.051495
1.189712 76.92923 -21.896938
1.19138 77.194 -20.450501
0.839016 75.336997 -22.920284
1.189712 76.92923 -21.896938
-2.116163 53.242695 -26.078865
-2.320555 50.981044 -26.391178
-1.095251 62.378838 -28.446228
-1.107095 62.777458 -27.285515
-0.856426 64.401962 -27.851446
-1.301386 60.319786 -28.954735
-1.095251 62.378838 -28.446228
0.331851 71.06649 -20.130688
0.63088 72.785759 -19.145857
0.162675 70.903957 -21.576319
0.037626 69.299381 -21.058762
0.331851 71.06649 -20.130688
0.655706 74.152042 -21.092144
0.759027 74.324768 -19.607596
0.957834 75.805744 -20.051495
-0.076327 69.749424 -26.916437
-0.345147 68.270367 -26.463827
-0.067187 70.112648 -25.675489
-0.554427 65.603725 -22.725963
-0.268064 67.476921 -21.922446
-0.417914 67.263653 -23.307911
-0.554427 65.603725 -22.725963
-0.858224 63.678787 -23.458201
-1.915358 55.440815 -25.699007
-1.660944 57.584129 -25.247204
-1.935267 55.065231 -26.882099
-2.116163 53.242695 -26.078865
-1.915358 55.440815 -25.699007
-1.892477 54.247166 -29.068838
-2.087606 52.435276 -28.312509
-1.940943 54.679001 -28.018285
-1.892477 54.247166 -29.068838
-1.657358 56.020927 -29.756113
0.607977 72.874695 -26.466533
0.512576 73.316341 -25.216312
0.296855 71.121994 -27.30109
0.607977 72.874695 -26.466533
-0.076327 69.749424 -26.916437
0.296855 71.121994 -27.30109
3 13 6 14
3 15 14 4
3 13 14 15
3 17 16 6
3 18 8 19
3 20 9 21
3 22 21 3
3 20 21 22
3 23 10 24
3 25 24 9
3 23 24 25
3 1 26 27
3 1 28 29
3 0 30 31
3 2 32 34
3 34 33 5
3 32 33 34
3 2 35 36
3 2 37 39
3 37 11 38
3 37 38 39
3 40 12 41
3 42 41 7
3 40 41 42
3 44 43 12
3 45 3 46
3 47 3 48
3 50 49 3
3 51 1 52
3 4 5 0
3 6 5 4
3 6 2 5
3 6 7 2
3 53 7 54
3 55 54 6
3 53 54 55
3 57 56 7
3 8 58 59
3 8 60 62
3 60 0 61
3 60 61 62
3 3 63 65
3 63 8 64
3 63 64 65
3 9 8 3
3 9 0 8
3 9 4 0
3 10 4 9
3 10 66 68
3 68 67 4
3 66 67 68
3 5 69 71
3 71 70 0
3 69 70 71
3 73 72 5
3 11 74 75
3 11 76 78
3 76 1 77
3 76 77 78
3 7 11 2
3 12 11 7
3 12 1 11
3 12 79 81
3 81 80 1
3 79 80 81
3 83 82 12
3 84 10 85
3 86 10 87
3 89 88 10
