ply
format ascii 1.0
element vertex 664
property float x
property float y
property float z
element face 674
property list uchar int vertex_index
end_header
69.877029 -9.418596 30.266304
26.127491 -37.882099 79.369202
52.091652 -19.008293 56.872948
42.395203 -34.521881 67.832436
41.651611 -29.761972 69.822632
35.379749 -36.983078 74.782715
16.384811 -38.399025 83.443306
12.452198 -45.740738 86.873161
66.839317 -14.185835 37.854446
61.456291 -12.492791 42.893238
58.328865 -18.218994 51.321281
53.936371 -24.515652 57.175278
48.95303 -26.159466 64.528397
69.943283 -12.74904 30.803173
27.473053 -40.581276 78.395256
23.071331 -40.878899 80.869461
29.330784 -35.074776 76.705811
34.296852 -34.562057 74.954056
30.916691 -37.584888 77.27697
31.6129 -40.1651 75.574692
11.681091 -38.806812 85.741203
14.099585 -41.721596 85.72065
9.753593 -42.361477 88.117363
63.219818 -9.549216 38.402786
56.680897 -15.455918 49.723038
55.470444 -18.28964 54.196777
56.425415 -21.19733 54.716339
53.917336 -21.361418 58.067551
42.862103 -32.05809 70.150787
45.60807 -27.928055 67.509773
46.088963 -30.360872 66.730743
48.642082 -28.939919 62.730072
44.875946 -33.110538 63.477745
64.93132 -17.051647 41.843452
38.889961 -33.557648 72.852562
39.256195 -35.930672 71.659302
38.286774 -38.385384 68.101311
35.267776 -39.451599 72.171425
24.238029 -35.313622 78.390625
21.236736 -38.101711 81.343246
18.577988 -41.227303 83.261803
68.155853 -7.891078 31.894928
68.620956 -11.495734 33.741329
66.325073 -10.276974 36.187469
64.454025 -13.045429 40.52774
62.630909 -15.916327 44.654137
59.902653 -15.376598 47.275612
60.74456 -18.809645 48.370758
48.347851 -20.268467 59.305489
47.361847 -23.895676 63.811035
50.885963 -22.311752 61.173759
51.688416 -24.924677 60.963203
69.714226 -6.351835 27.852922
68.47789 -15.700169 34.823189
70.35463 -9.438058 28.865263
70.01255 -10.839113 30.507259
26.881624 -39.207939 79.151115
25.292309 -40.732937 79.658226
24.553146 -39.330818 80.262817
27.735571 -36.480904 78.174606
30.219095 -36.3274 77.250877
28.546789 -37.75705 78.355904
29.166012 -39.06105 77.978035
10.627853 -40.511208 87.070427
8.45997 -40.797413 88.176071
54.377048 -17.123177 53.271843
53.841446 -18.572556 55.564995
54.760918 -19.774834 56.234444
53.223213 -20.098703 57.716934
42.830807 -33.268951 69.311844
44.568878 -31.206131 68.529037
44.327061 -32.469212 67.407089
45.651001 -31.70142 65.358574
43.7033 -33.787464 65.698395
41.651199 -35.812843 65.846542
34.988178 -35.769981 75.180916
36.656994 -34.128708 73.964294
37.204872 -35.316303 73.966263
39.265152 -34.734894 72.59343
37.405216 -36.514107 73.309113
37.267628 -37.726906 72.020645
35.458141 -38.20911 73.750282
18.799332 -38.235703 82.367119
19.846668 -39.597401 82.440338
17.497845 -39.772419 83.559982
13.193846 -43.63736 86.440025
15.3242 -43.312752 85.136169
66.801094 -7.217981 32.894905
67.259415 -9.009179 34.014824
65.823921 -8.479 35.091263
62.303978 -11.0225 40.650978
63.920052 -11.25169 39.540951
63.025406 -12.690048 41.743416
63.539688 -14.477184 42.630035
62.166283 -14.131823 43.90028
57.680912 -16.751846 50.702782
58.355545 -15.342672 48.518326
59.13736 -16.794682 49.358963
60.473129 -16.997902 47.98114
59.579269 -18.434904 49.846413
59.712669 -20.281416 50.006386
58.608894 -19.897255 51.548759
55.264793 -22.8057 56.075172
47.359352 -27.003759 66.104446
46.603264 -25.875124 65.781273
48.383499 -24.969212 64.462479
49.177891 -23.042046 62.557503
50.029877 -24.170927 62.988708
51.535759 -23.528503 61.374893
50.39238 -25.451563 62.801819
67.753593 -6.101869 30.746269
67.759003 -12.803512 35.788792
68.628426 -13.508846 34.348419
67.763161 -14.915991 36.384369
31.843622 -34.868843 75.855972
32.647766 -36.100311 76.264832
33.205864 -37.335327 76.096657
33.486263 -38.584969 75.307137
31.37825 -38.862297 76.707626
29.589426 -40.400299 77.045212
14.006601 -38.591888 84.574165
15.168248 -39.985161 84.71608
12.872063 -40.234451 85.897636
11.899948 -42.028015 86.949196
11.095837 -43.996239 87.695511
56.093178 -16.864801 52.007507
56.965302 -18.170078 52.777367
57.437054 -19.676702 53.120567
56.162548 -19.633778 54.692825
55.230865 -21.179045 56.402512
54.137283 -22.833347 57.868568
42.455017 -30.89217 70.299713
43.702564 -28.868473 68.744095
44.3592 -30.006144 68.971375
46.086784 -29.100861 67.462128
47.638496 -28.239887 65.775925
49.02536 -27.485329 63.936462
47.437927 -29.585537 64.782295
46.833199 -31.027588 63.215057
65.893295 -15.608656 39.883484
66.853218 -16.351046 38.40303
65.919289 -17.799028 40.367775
6.399061 -41.065872 89.135803
38.162308 -32.390827 72.479324
40.383335 -31.701414 71.460632
40.965683 -32.857643 71.588837
41.14447 -34.040916 71.043961
40.918907 -35.253731 69.829651
40.355122 -36.494621 68.046585
38.899784 -37.146729 70.115089
36.858864 -38.957451 70.21595
33.514061 -39.853603 73.956093
25.225338 -36.592873 79.072311
23.684353 -37.989143 80.353493
22.710352 -36.691383 79.979279
20.20734 -36.796509 80.927254
26.787699 -35.212494 77.539215
22.20269 -39.45433 81.348763
20.82863 -41.038826 82.061974
16.330885 -41.453667 84.482712
7.689091 -42.700844 89.152
9.055773 -44.37468 88.836082
10.45097 -46.141518 88.121628
9.936916 -48.445061 88.227898
69.217216 -8.672034 30.985012
69.365623 -10.320383 31.814941
68.45475 -9.651948 32.929085
67.590485 -10.846105 35.002777
66.670937 -12.163605 37.124413
64.855865 -9.837471 37.315346
65.383713 -11.636215 38.370762
65.730087 -13.551054 39.233978
64.783836 -14.97509 41.292221
63.831947 -16.416346 43.272331
59.759571 -12.449501 43.995167
59.034897 -13.913984 46.269814
60.664215 -13.945383 45.109741
61.324604 -15.567338 45.988464
61.707863 -17.358711 46.576607
57.530323 -21.407135 53.052917
50.248459 -19.580956 58.118263
44.698505 -26.829813 66.946785
45.456108 -24.822803 64.938393
46.012554 -22.8862 62.756065
47.923576 -22.023354 61.635956
49.781013 -21.246687 60.425781
51.556637 -20.595551 59.118431
52.469315 -21.743126 59.669441
52.901531 -23.076063 59.653099
52.860241 -24.608337 59.066368
50.267136 -26.890858 61.986832
51.391415 -26.496675 59.98716
39.567932 -37.766365 65.857735
68.640465 -5.168156 28.649071
68.983643 -6.994239 29.849236
69.874458 -8.065342 29.167057
70.427673 -7.795396 27.337048
69.403427 -12.148481 32.356857
69.263649 -14.229633 32.79023
7.868187 -40.014799 88.082748
8.944518 -39.912806 87.538932
52.966549 -18.790425 56.218972
53.19619 -18.042611 55.032123
52.321293 -18.26048 55.6861
13.47114 -45.551955 86.204624
13.841964 -44.500265 85.988056
12.823022 -44.689049 86.656593
13.135264 -46.668686 86.288539
13.47114 -45.551955 86.204624
65.526955 -7.588998 34.524132
66.312508 -7.84849 33.993084
66.015541 -6.958489 33.425953
54.445557 -24.579437 56.265907
55.109768 -23.724462 55.715855
54.600582 -23.660676 56.625225
53.685528 -25.450406 56.651798
54.445557 -24.579437 56.265907
42.166075 -28.76609 68.89899
41.106831 -29.199441 69.358703
66.015541 -6.958489 33.425953
66.536926 -6.304956 32.341811
70.08973 -13.026661 29.954478
70.197445 -11.98039 29.856359
69.794895 -13.841093 30.964266
70.08973 -13.026661 29.954478
26.69765 -41.388254 78.493664
27.702751 -41.290876 77.785427
23.462034 -41.628849 80.402062
24.572523 -41.555868 79.796444
24.18182 -40.805918 80.263844
22.407742 -41.7243 81.053162
23.462034 -41.628849 80.402062
30.587203 -34.971809 76.280891
31.361832 -34.243456 75.440197
30.105412 -34.346423 75.865116
27.702751 -41.290876 77.785427
28.760937 -41.200388 77.110405
28.531239 -40.490787 77.720234
45.416224 -32.831094 62.358318
46.39485 -31.78962 62.226974
45.854573 -32.069063 63.346401
44.393038 -33.84693 62.37508
45.416224 -32.831094 62.358318
35.057329 -33.749813 74.171368
33.838466 -33.951355 74.589482
35.081932 -40.083058 71.183628
35.877476 -39.835983 70.205891
36.06332 -39.204525 71.193688
19.698091 -36.145363 80.598843
20.953734 -36.099621 80.109639
18.968697 -36.857721 81.433983
19.698091 -36.145363 80.598843
25.512864 -35.263058 77.96492
26.294581 -34.56592 77.094787
25.019745 -34.616484 77.520493
19.094957 -42.004971 82.894722
20.220278 -41.910733 82.294808
19.703309 -41.133065 82.661889
16.39617 -43.170487 84.481189
15.932997 -44.165532 84.651607
6.715525 -42.858173 89.558491
7.044076 -41.883358 89.143901
6.07051 -42.040688 89.550392
8.786157 -45.460835 89.01899
8.081255 -44.561329 89.306294
9.483756 -46.344254 88.661763
9.753372 -45.258099 88.478855
8.786157 -45.460835 89.01899
10.648412 -49.441365 87.575947
9.721716 -49.658485 88.127537
10.895876 -48.231558 87.628639
10.648412 -49.441365 87.575947
64.037841 -9.693344 37.859066
64.52858 -8.967369 36.740706
63.710556 -8.823241 37.284425
62.746493 -16.891627 44.903137
63.347012 -17.141636 44.212235
63.231428 -16.166336 43.963234
58.855726 -12.497796 44.533907
59.238012 -11.72979 43.389168
56.983019 -14.740346 48.559838
56.055723 -14.856931 49.116878
61.299423 -19.068979 47.639679
61.781075 -18.343511 46.742604
61.226212 -18.084178 47.473683
60.764881 -19.809108 48.443058
61.299423 -19.068979 47.639679
59.672191 -21.300199 49.975056
59.148888 -21.035601 50.729301
48.527804 -19.441869 58.092918
47.562551 -19.77775 58.683357
49.298155 -19.924712 58.711876
49.478108 -19.098114 57.499305
48.527804 -19.441869 58.092918
51.076418 -27.359593 59.286038
50.563814 -27.485299 60.312855
51.912382 -26.411515 58.998215
51.076418 -27.359593 59.286038
67.962437 -4.690319 29.158348
68.425278 -4.177507 28.121204
70.070949 -7.073616 27.594985
70.364883 -6.858292 26.605017
70.00816 -6.136512 26.862954
68.715812 -16.09936 34.002371
69.108692 -15.364092 32.985892
68.870769 -14.964901 33.806709
67.245094 -16.759458 37.628094
66.81105 -17.490245 38.624409
70.403119 -10.324899 28.887404
70.548752 -9.48884 27.99408
70.232079 -11.025427 29.708402
70.403119 -10.324899 28.887404
70.18359 -10.138585 29.686261
69.977916 -11.794076 30.655216
70.197445 -11.98039 29.856359
70.232079 -11.025427 29.708402
10.02846 -39.769703 86.98611
11.154472 -39.65901 86.405815
10.555079 -38.917505 86.321498
9.543912 -40.654311 87.623249
10.02846 -39.769703 86.98611
8.944518 -39.912806 87.538932
53.463991 -17.317922 53.885548
53.687849 -16.590261 52.668419
54.109247 -17.847866 54.418419
53.463991 -17.317922 53.885548
53.19619 -18.042611 55.032123
43.262268 -34.471598 64.631996
43.848591 -34.133134 63.521671
44.289623 -33.449001 64.58807
42.236217 -35.484287 64.70607
43.262268 -34.471598 64.631996
42.67725 -34.800154 65.772469
41.193107 -36.479517 64.690697
42.236217 -35.484287 64.70607
64.94709 -18.15234 42.049221
64.43983 -17.778661 42.777572
31.644174 -40.829203 74.78347
30.735876 -40.96929 75.613327
22.969079 -35.358177 78.841324
23.751829 -34.659413 77.965042
23.751829 -34.659413 77.965042
25.019745 -34.616484 77.520493
14.907141 -44.337962 85.336128
14.259023 -43.475056 85.788097
13.841964 -44.500265 85.988056
15.932997 -44.165532 84.651607
14.907141 -44.337962 85.336128
58.597 -20.843521 51.500488
59.148888 -21.035601 50.729301
59.160781 -20.089336 50.777572
55.791342 -22.895228 55.202045
56.371652 -22.091043 54.522628
55.845104 -22.001515 55.395755
55.791342 -22.895228 55.202045
55.109768 -23.724462 55.715855
47.387636 -20.654939 59.875454
47.562551 -19.77775 58.683357
49.189148 -28.706921 61.684311
48.277918 -29.722338 61.886818
37.913906 -39.020748 66.94804
37.285805 -39.298784 68.080498
67.013175 -5.7469 31.267493
67.519001 -5.157175 30.206947
67.277344 -6.659925 31.820587
67.013175 -5.7469 31.267493
66.536926 -6.304956 32.341811
69.5629 -5.388363 27.22427
70.00816 -6.136512 26.862954
25.607278 -41.464084 79.125149
26.69765 -41.388254 78.493664
26.382681 -40.657106 79.026741
25.607278 -41.464084 79.125149
24.572523 -41.555868 79.796444
32.611852 -34.104748 75.040439
31.361832 -34.243456 75.440197
33.070237 -34.71545 75.405014
33.838466 -33.951355 74.589482
32.611852 -34.104748 75.040439
29.724139 -41.086889 76.348587
30.735876 -40.96929 75.613327
30.601163 -40.282699 76.309952
29.724139 -41.086889 76.348587
28.760937 -41.200388 77.110405
62.83213 -8.710581 37.828135
63.710556 -8.823241 37.284425
62.33744 -9.481719 38.936957
62.83213 -8.710581 37.828135
61.87952 -10.218361 40.061053
62.761898 -10.285858 39.526882
62.33744 -9.481719 38.936957
61.432232 -10.984475 41.186763
61.87952 -10.218361 40.061053
61.008388 -11.719621 42.307893
61.880134 -11.757646 41.772108
61.432232 -10.984475 41.186763
55.784346 -15.578256 50.311706
56.055723 -14.856931 49.116878
54.632421 -16.411886 52.086109
53.687849 -16.590261 52.668419
55.490486 -16.282698 51.453941
54.632421 -16.411886 52.086109
55.235113 -16.993989 52.639675
56.387038 -16.160359 50.865273
55.784346 -15.578256 50.311706
55.490486 -16.282698 51.453941
47.373476 -30.766173 62.129311
48.277918 -29.722338 61.886818
47.73764 -29.983753 62.972565
47.373476 -30.766173 62.129311
46.39485 -31.78962 62.226974
44.393038 -33.84693 62.37508
43.848591 -34.133134 63.521671
66.344086 -18.214236 39.606781
66.81105 -17.490245 38.624409
66.386254 -17.075037 39.385402
65.441075 -18.52603 41.311383
65.425305 -17.425337 41.105614
64.94709 -18.15234 42.049221
65.899693 -18.941381 40.572918
65.441075 -18.52603 41.311383
66.344086 -18.214236 39.606781
65.899693 -18.941381 40.572918
5.826584 -40.226792 89.027344
6.837732 -40.149029 88.562614
5.440265 -41.173935 89.497399
5.826584 -40.226792 89.027344
6.07051 -42.040688 89.550392
5.440265 -41.173935 89.497399
51.36943 -18.512349 56.285473
52.321293 -18.26048 55.6861
40.560854 -30.158468 70.297741
41.106831 -29.199441 69.358703
36.2374 -33.533139 73.676487
35.057329 -33.749813 74.171368
35.476923 -34.345382 74.459175
36.990057 -32.664198 72.934002
36.2374 -33.533139 73.676487
37.409651 -33.259768 73.221809
37.67025 -31.800933 72.054485
36.990057 -32.664198 72.934002
38.816203 -31.472895 71.626087
37.67025 -31.800933 72.054485
39.926716 -31.128189 71.116741
38.816203 -31.472895 71.626087
39.272822 -32.046121 71.969978
41.017473 -30.731693 70.641632
40.560854 -30.158468 70.297741
39.926716 -31.128189 71.116741
36.57185 -39.584818 69.137818
37.285805 -39.298784 68.080498
37.572819 -38.671418 69.158631
36.57185 -39.584818 69.137818
35.877476 -39.835983 70.205891
32.594754 -40.673454 73.974171
32.56348 -40.009352 74.765392
31.644174 -40.829203 74.78347
33.436689 -40.498334 73.066113
32.594754 -40.673454 73.974171
34.313547 -40.297332 72.173778
34.390918 -39.652601 73.063759
33.436689 -40.498334 73.066113
35.081932 -40.083058 71.183628
34.313547 -40.297332 72.173778
22.205241 -36.047058 79.635651
23.47419 -36.002503 79.184952
22.969079 -35.358177 78.841324
21.458846 -36.743946 80.453267
22.205241 -36.047058 79.635651
20.953734 -36.099621 80.109639
18.264693 -37.577319 82.153916
19.503336 -37.516106 81.647187
18.968697 -36.857721 81.433983
17.057432 -37.65898 82.692009
17.592071 -38.317364 82.905213
18.264693 -37.577319 82.153916
15.838315 -37.729706 83.237637
17.057432 -37.65898 82.692009
14.64921 -37.826138 83.803066
15.195706 -38.495457 84.008736
15.838315 -37.729706 83.237637
13.457114 -37.90319 84.384906
14.64921 -37.826138 83.803066
12.294359 -38.010652 84.968425
12.843846 -38.69935 85.157684
13.457114 -37.90319 84.384906
11.138275 -38.087069 85.572452
12.294359 -38.010652 84.968425
10.555079 -38.917505 86.321498
11.138275 -38.087069 85.572452
28.838358 -34.437317 76.26392
30.105412 -34.346423 75.865116
27.566816 -34.506176 76.680622
26.294581 -34.56592 77.094787
28.059241 -35.143635 77.122513
28.838358 -34.437317 76.26392
27.566816 -34.506176 76.680622
21.286391 -41.804264 81.649418
22.407742 -41.7243 81.053162
21.949981 -40.958862 81.465718
21.286391 -41.804264 81.649418
20.220278 -41.910733 82.294808
16.899513 -42.240944 84.154461
15.827542 -42.38321 84.80944
16.39617 -43.170487 84.481189
18.023064 -42.127762 83.544006
17.454436 -41.340485 83.872258
16.899513 -42.240944 84.154461
19.094957 -42.004971 82.894722
18.023064 -42.127762 83.544006
7.429515 -40.931642 88.655937
7.868187 -40.014799 88.082748
6.837732 -40.149029 88.562614
7.397914 -43.724411 89.464253
6.715525 -42.858173 89.558491
8.372432 -43.537762 88.994041
7.397914 -43.724411 89.464253
8.081255 -44.561329 89.306294
9.01815 -48.65028 88.719265
9.721716 -49.658485 88.127537
9.226729 -47.496025 88.714898
9.01815 -48.65028 88.719265
10.193943 -47.29329 88.174763
9.483756 -46.344254 88.661763
9.226729 -47.496025 88.714898
11.152904 -47.079786 87.575504
10.193943 -47.29329 88.174763
10.895876 -48.231558 87.628639
12.153517 -46.879396 86.951271
11.451584 -45.941128 87.497394
11.152904 -47.079786 87.575504
13.135264 -46.668686 86.288539
12.153517 -46.879396 86.951271
65.012608 -8.288134 35.628664
65.526955 -7.588998 34.524132
65.339893 -9.158235 36.203305
65.012608 -8.288134 35.628664
64.52858 -8.967369 36.740706
63.890144 -17.461011 43.492012
64.43983 -17.778661 42.777572
64.381633 -16.733996 42.557891
63.890144 -17.461011 43.492012
63.347012 -17.141636 44.212235
60.160028 -11.697976 42.858858
59.238012 -11.72979 43.389168
60.607931 -12.471146 43.444203
61.008388 -11.719621 42.307893
60.160028 -11.697976 42.858858
57.820343 -14.683723 47.957482
56.983019 -14.740346 48.559838
57.518221 -15.399295 49.120682
58.160019 -13.969378 46.833225
57.820343 -14.683723 47.957482
58.695221 -14.628328 47.39407
58.493389 -13.230037 45.671231
58.160019 -13.969378 46.833225
59.397234 -13.181742 45.132491
58.855726 -12.497796 44.533907
58.493389 -13.230037 45.671231
62.28497 -17.612818 45.864373
62.746493 -16.891627 44.903137
62.169386 -16.637519 45.615372
62.28497 -17.612818 45.864373
61.781075 -18.343511 46.742604
60.248936 -20.544994 49.260872
60.764881 -19.809108 48.443058
60.228614 -19.54553 49.188572
60.248936 -20.544994 49.260872
59.672191 -21.300199 49.975056
58.057715 -21.598461 52.252567
58.597 -20.843521 51.500488
58.069609 -20.652195 52.300838
56.924107 -22.195945 53.690917
56.977869 -21.302233 53.884628
56.371652 -22.091043 54.522628
57.43483 -22.37849 52.866592
56.924107 -22.195945 53.690917
58.057715 -21.598461 52.252567
57.43483 -22.37849 52.866592
50.447834 -18.79868 56.90813
49.478108 -19.098114 57.499305
51.170056 -19.294624 57.495605
51.36943 -18.512349 56.285473
50.447834 -18.79868 56.90813
43.191551 -28.319341 68.359722
42.166075 -28.76609 68.89899
42.677087 -29.315223 69.283364
43.689521 -27.30001 67.461067
43.191551 -28.319341 68.359722
44.200535 -27.849143 67.84544
44.087764 -26.297688 66.451424
43.689521 -27.30001 67.461067
44.466566 -25.294184 65.447227
44.087764 -26.297688 66.451424
45.077306 -25.826308 65.942589
44.763897 -24.304789 64.3703
44.466566 -25.294184 65.447227
45.04212 -23.336488 63.279136
44.763897 -24.304789 64.3703
45.734331 -23.854501 63.847229
45.265982 -22.374427 62.154956
45.04212 -23.336488 63.279136
46.219988 -21.963805 61.600742
45.265982 -22.374427 62.154956
47.175499 -21.532382 61.040688
46.219988 -21.963805 61.600742
46.968065 -22.454777 62.19601
48.135713 -21.14591 60.470723
47.387636 -20.654939 59.875454
47.175499 -21.532382 61.040688
50.001675 -27.682391 61.312691
49.454609 -27.915388 62.358452
49.189148 -28.706921 61.684311
50.829276 -26.693767 60.986996
50.001675 -27.682391 61.312691
50.563814 -27.485299 60.312855
52.646795 -25.467346 58.537819
52.125828 -25.552506 59.526764
51.912382 -26.411515 58.998215
53.18486 -25.421003 57.592274
53.398306 -24.561994 58.120823
52.646795 -25.467346 58.537819
53.685528 -25.450406 56.651798
53.18486 -25.421003 57.592274
40.151474 -37.456278 64.696293
41.193107 -36.479517 64.690697
40.609566 -36.789604 65.852138
38.554485 -38.711239 65.826252
38.927353 -38.075874 66.979523
37.913906 -39.020748 66.94804
39.132216 -38.42421 64.65284
38.554485 -38.711239 65.826252
40.151474 -37.456278 64.696293
39.132216 -38.42421 64.65284
69.02602 -4.796523 27.622345
68.425278 -4.177507 28.121204
69.177346 -5.759996 28.250996
69.5629 -5.388363 27.22427
69.02602 -4.796523 27.622345
68.197029 -5.635013 29.69767
67.962437 -4.690319 29.158348
67.519001 -5.157175 30.206947
70.620934 -7.739508 26.390707
70.364883 -6.858292 26.605017
70.585273 -8.667509 27.229973
70.620934 -7.739508 26.390707
70.391152 -8.616727 28.101155
70.548752 -9.48884 27.99408
70.585273 -8.667509 27.229973
69.455078 -14.58139 31.957794
69.794895 -13.841093 30.964266
69.603466 -13.489337 31.796702
69.455078 -14.58139 31.957794
69.108692 -15.364092 32.985892
67.700066 -16.04193 36.618763
67.308189 -15.633519 37.393699
67.245094 -16.759458 37.628094
68.057431 -16.43402 35.838173
68.120525 -15.30808 35.603779
67.700066 -16.04193 36.618763
68.342254 -16.860875 35.032729
68.057431 -16.43402 35.838173
68.715812 -16.09936 34.002371
68.342254 -16.860875 35.032729
3 0 55 54
3 1 58 56
3 1 61 59
3 1 56 61
3 199 64 200
3 2 201 203
3 201 66 202
3 201 202 203
3 2 68 66
3 3 71 69
3 3 73 71
3 3 74 73
3 5 77 75
3 5 79 77
3 5 81 79
3 6 84 82
3 7 204 206
3 206 205 85
3 204 205 206
3 7 207 208
3 209 89 210
3 211 210 87
3 209 210 211
3 9 92 90
3 9 94 92
3 10 97 95
3 10 99 97
3 10 101 99
3 11 212 214
3 214 213 102
3 212 213 214
3 11 215 216
3 4 217 218
3 12 105 103
3 12 107 105
3 12 109 107
3 219 87 220
3 8 113 111
3 13 221 222
3 13 223 224
3 14 225 226
3 15 227 229
3 229 228 57
3 227 228 229
3 15 230 231
3 16 232 234
3 232 114 233
3 232 233 234
3 18 115 60
3 18 116 115
3 18 118 116
3 14 119 62
3 14 235 237
3 237 236 119
3 235 236 237
3 20 122 120
3 22 123 63
3 22 124 123
3 25 125 65
3 25 126 125
3 25 128 126
3 27 129 67
3 27 130 129
3 28 133 131
3 30 134 70
3 30 135 134
3 30 137 135
3 32 138 72
3 32 238 240
3 240 239 138
3 238 239 240
3 32 241 242
3 33 141 139
3 17 243 244
3 34 143 76
3 34 144 143
3 34 145 144
3 35 146 78
3 35 147 146
3 35 149 147
3 37 150 80
3 37 245 247
3 247 246 150
3 245 246 247
3 19 151 117
3 38 154 152
3 248 155 249
3 251 250 155
3 38 252 254
3 252 156 253
3 252 253 254
3 38 152 156
3 39 157 153
3 40 158 83
3 40 255 257
3 257 256 158
3 255 256 257
3 21 159 121
3 259 258 86
3 260 160 261
3 262 261 142
3 260 261 262
3 263 161 264
3 265 162 266
3 267 266 161
3 265 266 267
3 268 163 269
3 271 270 163
3 41 166 164
3 43 167 88
3 43 168 167
3 23 272 274
3 272 169 273
3 272 273 274
3 44 170 91
3 44 171 170
3 44 172 171
3 45 173 93
3 45 275 277
3 277 276 173
3 275 276 277
3 278 174 279
3 24 280 281
3 46 175 96
3 46 176 175
3 46 177 176
3 47 178 98
3 47 282 284
3 284 283 178
3 282 283 284
3 47 285 286
3 288 287 100
3 26 179 127
3 48 289 290
3 48 291 293
3 291 180 292
3 291 292 293
3 29 181 132
3 49 182 104
3 49 183 182
3 49 184 183
3 50 185 106
3 50 186 185
3 50 187 186
3 51 188 108
3 51 189 188
3 31 190 136
3 294 191 295
3 297 296 191
3 36 192 148
3 298 193 299
3 41 194 110
3 41 164 194
3 52 300 302
3 300 196 301
3 300 301 302
3 52 195 196
3 42 197 165
3 53 198 112
3 53 303 305
3 305 304 198
3 303 304 305
3 307 306 140
3 54 308 309
3 55 310 312
3 312 311 54
3 310 311 312
3 55 313 315
3 313 13 314
3 313 314 315
3 56 57 14
3 58 57 56
3 58 15 57
3 59 60 16
3 61 60 59
3 61 18 60
3 61 62 18
3 56 62 61
3 56 14 62
3 316 63 317
3 318 317 20
3 316 317 318
3 64 319 321
3 319 63 320
3 319 320 321
3 64 22 63
3 322 65 323
3 66 324 326
3 324 65 325
3 324 325 326
3 66 25 65
3 66 67 25
3 68 67 66
3 68 27 67
3 69 70 28
3 71 70 69
3 71 30 70
3 71 72 30
3 73 72 71
3 73 32 72
3 73 327 329
3 329 328 32
3 327 328 329
3 74 330 332
3 332 331 73
3 330 331 332
3 74 333 334
3 336 335 33
3 75 76 17
3 77 76 75
3 77 34 76
3 77 78 34
3 79 78 77
3 79 35 78
3 79 80 35
3 81 80 79
3 81 37 80
3 338 337 19
3 340 339 38
3 341 38 342
3 82 83 39
3 84 83 82
3 84 40 83
3 85 86 21
3 343 86 344
3 345 344 85
3 343 344 345
3 347 346 86
3 87 88 41
3 89 88 87
3 89 43 88
3 90 91 23
3 92 91 90
3 92 44 91
3 92 93 44
3 94 93 92
3 94 45 93
3 95 96 24
3 97 96 95
3 97 46 96
3 97 98 46
3 99 98 97
3 99 47 98
3 99 100 47
3 101 100 99
3 101 348 350
3 350 349 100
3 348 349 350
3 102 351 353
3 353 352 26
3 351 352 353
3 355 354 102
3 356 48 357
3 103 104 29
3 105 104 103
3 105 49 104
3 105 106 49
3 107 106 105
3 107 50 106
3 107 108 50
3 109 108 107
3 109 51 108
3 359 358 31
3 361 360 36
3 362 110 363
3 87 364 366
3 364 110 365
3 364 365 366
3 87 41 110
3 367 52 368
3 111 112 42
3 113 112 111
3 113 53 112
3 57 369 371
3 371 370 14
3 369 370 371
3 373 372 57
3 114 374 375
3 114 376 378
3 376 17 377
3 376 377 378
3 60 114 16
3 115 114 60
3 115 17 114
3 115 75 17
3 116 75 115
3 116 5 75
3 116 117 5
3 118 117 116
3 118 19 117
3 62 118 18
3 119 118 62
3 119 19 118
3 119 379 381
3 381 380 19
3 379 380 381
3 383 382 119
3 120 121 6
3 122 121 120
3 122 21 121
3 63 122 20
3 123 122 63
3 123 21 122
3 123 85 21
3 124 85 123
3 124 7 85
3 384 23 385
3 386 23 387
3 388 90 389
3 390 389 23
3 388 389 390
3 391 90 392
3 393 9 394
3 395 394 90
3 393 394 395
3 396 24 397
3 65 398 399
3 125 400 402
3 402 401 65
3 400 401 402
3 125 403 405
3 403 24 404
3 403 404 405
3 125 95 24
3 126 95 125
3 126 10 95
3 126 127 10
3 128 127 126
3 128 26 127
3 67 128 25
3 129 128 67
3 129 26 128
3 129 102 26
3 130 102 129
3 130 11 102
3 131 132 4
3 133 132 131
3 133 29 132
3 70 133 28
3 134 133 70
3 134 29 133
3 134 103 29
3 135 103 134
3 135 12 103
3 135 136 12
3 137 136 135
3 137 31 136
3 72 137 30
3 138 137 72
3 138 31 137
3 138 406 408
3 408 407 31
3 406 407 408
3 410 409 138
3 412 411 32
3 139 140 8
3 141 140 139
3 141 413 415
3 415 414 140
3 413 414 415
3 416 141 417
3 418 417 33
3 416 417 418
3 419 141 420
3 422 421 141
3 423 142 424
3 425 142 426
3 428 427 142
3 429 2 430
3 431 4 432
3 76 433 435
3 435 434 17
3 433 434 435
3 143 436 438
3 438 437 76
3 436 437 438
3 143 439 440
3 143 441 442
3 144 443 445
3 445 444 143
3 443 444 445
3 144 446 448
3 446 4 447
3 446 447 448
3 144 131 4
3 145 131 144
3 145 28 131
3 78 145 34
3 146 145 78
3 146 28 145
3 146 69 28
3 147 69 146
3 147 3 69
3 147 148 3
3 149 148 147
3 149 36 148
3 80 149 35
3 150 149 80
3 150 36 149
3 150 449 451
3 451 450 36
3 449 450 451
3 453 452 150
3 117 81 5
3 151 81 117
3 151 37 81
3 454 151 455
3 456 455 19
3 454 455 456
3 457 151 458
3 459 37 460
3 461 460 151
3 459 460 461
3 463 462 37
3 152 153 1
3 154 153 152
3 154 39 153
3 464 154 465
3 466 465 38
3 464 465 466
3 155 467 469
3 467 154 468
3 467 468 469
3 155 39 154
3 155 82 39
3 470 82 471
3 472 471 155
3 470 471 472
3 473 6 474
3 475 474 82
3 473 474 475
3 476 6 477
3 478 120 479
3 480 479 6
3 478 479 480
3 481 120 482
3 483 20 484
3 485 484 120
3 483 484 485
3 486 20 487
3 489 488 20
3 490 16 491
3 156 492 493
3 156 494 496
3 494 16 495
3 494 495 496
3 156 59 16
3 152 59 156
3 152 1 59
3 153 58 1
3 157 58 153
3 157 15 58
3 83 157 39
3 158 157 83
3 158 15 157
3 158 497 499
3 499 498 15
3 497 498 499
3 501 500 158
3 121 84 6
3 159 84 121
3 159 40 84
3 86 159 21
3 502 159 503
3 504 503 86
3 502 503 504
3 505 40 506
3 507 506 159
3 505 506 507
3 509 508 40
3 142 510 512
3 510 64 511
3 510 511 512
3 160 64 142
3 160 22 64
3 513 160 514
3 161 515 517
3 515 160 516
3 515 516 517
3 161 22 160
3 161 124 22
3 162 124 161
3 162 7 124
3 163 518 519
3 163 520 521
3 163 522 524
3 522 162 523
3 522 523 524
3 525 162 526
3 527 526 163
3 525 526 527
3 528 7 529
3 530 529 162
3 528 529 530
3 532 531 7
3 164 165 0
3 166 165 164
3 166 42 165
3 88 166 41
3 167 166 88
3 167 42 166
3 167 111 42
3 168 111 167
3 168 8 111
3 533 89 534
3 169 535 537
3 535 89 536
3 535 536 537
3 169 43 89
3 91 169 23
3 170 169 91
3 170 43 169
3 170 168 43
3 171 168 170
3 171 8 168
3 171 139 8
3 172 139 171
3 172 33 139
3 93 172 44
3 173 172 93
3 173 33 172
3 173 538 540
3 540 539 33
3 538 539 540
3 542 541 173
3 174 543 544
3 174 545 547
3 545 9 546
3 545 546 547
3 96 548 550
3 550 549 24
3 548 549 550
3 175 551 553
3 553 552 96
3 551 552 553
3 175 554 555
3 175 556 558
3 556 174 557
3 556 557 558
3 176 174 175
3 176 9 174
3 176 94 9
3 177 94 176
3 177 45 94
3 98 177 46
3 178 177 98
3 178 45 177
3 178 559 561
3 561 560 45
3 559 560 561
3 563 562 178
3 100 564 566
3 566 565 47
3 564 565 566
3 568 567 100
3 127 101 10
3 179 101 127
3 179 569 571
3 571 570 101
3 569 570 571
3 572 179 573
3 574 573 26
3 572 573 574
3 575 179 576
3 578 577 179
3 180 579 580
3 180 581 583
3 581 2 582
3 581 582 583
3 132 584 586
3 586 585 4
3 584 585 586
3 181 587 589
3 589 588 132
3 587 588 589
3 181 590 591
3 104 181 29
3 182 181 104
3 182 592 594
3 594 593 181
3 592 593 594
3 182 595 596
3 183 597 599
3 599 598 182
3 597 598 599
3 183 600 601
3 183 602 603
3 184 604 606
3 606 605 183
3 604 605 606
3 184 607 609
3 607 48 608
3 607 608 609
3 106 184 49
3 185 184 106
3 185 48 184
3 185 180 48
3 186 180 185
3 186 2 180
3 186 68 2
3 187 68 186
3 187 27 68
3 108 187 50
3 188 187 108
3 188 27 187
3 188 130 27
3 189 130 188
3 189 11 130
3 136 109 12
3 190 109 136
3 190 51 109
3 610 190 611
3 612 611 31
3 610 611 612
3 191 613 615
3 613 190 614
3 613 614 615
3 191 51 190
3 191 189 51
3 616 189 617
3 618 617 191
3 616 617 618
3 619 11 620
3 621 620 189
3 619 620 621
3 623 622 11
3 148 74 3
3 192 74 148
3 192 624 626
3 626 625 74
3 624 625 626
3 627 192 628
3 629 628 36
3 627 628 629
3 630 192 631
3 633 632 192
3 193 634 635
3 193 636 638
3 636 52 637
3 636 637 638
3 110 639 641
3 639 193 640
3 639 640 641
3 194 193 110
3 194 52 193
3 194 195 52
3 164 195 194
3 164 0 195
3 196 642 643
3 196 644 645
3 196 646 648
3 646 54 647
3 646 647 648
3 195 54 196
3 195 0 54
3 165 55 0
3 197 55 165
3 197 13 55
3 112 197 42
3 198 197 112
3 198 13 197
3 198 649 651
3 651 650 13
3 649 650 651
3 653 652 198
3 140 113 8
3 654 113 655
3 656 655 140
3 654 655 656
3 657 53 658
3 659 658 113
3 657 658 659
3 660 53 661
3 663 662 53
