ply
format ascii 1.0
element vertex 142
property float x
property float y
property float z
element face 119
property list uchar int vertex_index
end_header
47.220535 54.726784 -13.422504
44.469658 50.284889 -12.244444
44.364254 53.565018 -16.51309
41.613773 48.615288 -15.16765
49.567951 58.739067 -8.875736
47.92038 59.370064 -13.140818
49.58989 54.651321 -9.730436
43.049595 49.595665 -13.746052
41.26543 47.211983 -12.789064
50.65213 56.132256 -7.331806
49.872063 56.67585 -9.504318
47.848846 57.020851 -13.480118
46.592804 56.74295 -15.220121
42.758698 52.531967 -17.833628
46.061764 52.492554 -12.990051
45.853981 54.303963 -15.047789
44.635525 51.934845 -14.533268
43.139183 51.073418 -15.955599
41.578556 49.939369 -17.274729
48.836151 59.185318 -11.080431
48.939331 56.987099 -11.564869
48.464745 54.834641 -11.643148
48.702293 52.675423 -9.550917
47.417305 52.735413 -11.32498
50.127823 58.07885 -6.564802
40.965725 46.433166 -11.513089
41.934532 47.624066 -12.036751
41.634827 46.845249 -10.760776
40.376497 45.949604 -12.289484
40.965725 46.433166 -11.513089
50.623818 55.174557 -7.521276
51.062877 54.855412 -6.469252
42.296822 53.271218 -18.588881
41.906891 51.888065 -18.43896
40.888884 47.997867 -15.846069
40.871275 48.659908 -16.899608
41.596165 49.277328 -16.22119
49.202051 58.962193 -9.978084
48.525352 60.290329 -10.646897
48.891253 60.067203 -9.544549
47.983738 51.700856 -9.27574
48.668033 51.588421 -8.415712
47.341244 51.730851 -10.162771
48.059799 52.705418 -10.437949
47.983738 51.700856 -9.27574
46.646147 51.698536 -10.992426
47.341244 51.730851 -10.162771
50.325594 57.663788 -5.369937
49.628016 59.052307 -6.005851
49.825786 58.637245 -4.810986
50.703407 56.741062 -5.819417
50.325594 57.663788 -5.369937
47.216297 60.580933 -13.792059
46.992272 61.765411 -13.430231
47.696354 60.554542 -12.77899
44.764982 54.851692 -16.640888
45.509845 55.221165 -15.908237
45.109117 53.934491 -15.780439
42.826614 48.815906 -12.515245
43.759626 49.940277 -12.995248
43.536646 49.160518 -11.76444
42.157512 48.403824 -13.267558
42.826614 48.815906 -12.515245
41.934532 47.624066 -12.036751
40.61426 46.660274 -13.520353
40.788431 47.361927 -14.709646
41.439602 47.913635 -13.978357
40.61426 46.660274 -13.520353
40.376497 45.949604 -12.289484
50.233784 55.446354 -8.607532
50.262096 56.404053 -8.418062
50.623818 55.174557 -7.521276
50.092697 54.434089 -8.720591
49.730976 55.663585 -9.617377
50.233784 55.446354 -8.607532
47.32759 58.135818 -14.249028
47.363357 59.310425 -14.079379
47.884613 58.195458 -13.310468
46.699569 57.996868 -15.11903
47.32759 58.135818 -14.249028
47.220825 56.881901 -14.350119
46.03804 57.771191 -15.952082
46.699569 57.996868 -15.11903
43.165833 53.874432 -17.982912
43.968611 54.390957 -17.322643
43.561476 53.048493 -17.173359
43.165833 53.874432 -17.982912
42.296822 53.271218 -18.588881
41.31682 50.591766 -18.15951
41.906891 51.888065 -18.43896
42.168627 51.235668 -17.554178
40.772885 49.257297 -17.898281
41.31682 50.591766 -18.15951
40.065604 47.977836 -17.523161
40.772885 49.257297 -17.898281
40.871275 48.659908 -16.899608
40.888884 47.997867 -15.846069
40.788431 47.361927 -14.709646
48.15424 60.46217 -11.748797
48.525352 60.290329 -10.646897
48.378265 59.277691 -12.110625
47.696354 60.554542 -12.77899
48.15424 60.46217 -11.748797
49.751091 53.498112 -8.708802
50.092697 54.434089 -8.720591
49.307293 52.510162 -8.619042
49.273033 51.42316 -7.483838
48.668033 51.588421 -8.415712
49.146091 53.663372 -9.640676
49.751091 53.498112 -8.708802
49.307293 52.510162 -8.619042
45.968376 51.577106 -11.824962
46.739534 52.613984 -12.157515
46.646147 51.698536 -10.992426
45.172324 50.473274 -11.452158
45.265711 51.388722 -12.617247
45.968376 51.577106 -11.824962
44.226396 49.41856 -10.99072
45.172324 50.473274 -11.452158
43.536646 49.160518 -11.76444
44.226396 49.41856 -10.99072
49.164034 59.773857 -8.376348
48.891253 60.067203 -9.544549
49.44397 59.443748 -7.220881
49.628016 59.052307 -6.005851
49.847887 58.408958 -7.720269
49.164034 59.773857 -8.376348
49.44397 59.443748 -7.220881
50.965561 55.767765 -6.202919
50.389977 57.105553 -6.948304
50.703407 56.741062 -5.819417
51.062877 54.855412 -6.469252
50.965561 55.767765 -6.202919
47.216297 60.580933 -13.792059
47.363357 59.310425 -14.079379
45.879257 56.440658 -15.994404
46.223393 55.523457 -15.133955
45.509845 55.221165 -15.908237
46.03804 57.771191 -15.952082
45.879257 56.440658 -15.994404
44.764982 54.851692 -16.640888
43.968611 54.390957 -17.322643
3 25 8 26
3 25 26 27
3 29 28 8
3 31 30 9
3 0 12 11
3 33 32 13
3 1 16 14
3 3 17 7
3 3 18 17
3 3 34 36
3 36 35 18
3 34 35 36
3 4 37 39
3 37 19 38
3 37 38 39
3 6 20 10
3 6 21 20
3 40 22 41
3 42 23 43
3 44 43 22
3 42 43 44
3 46 45 23
3 47 24 48
3 47 48 49
3 51 50 24
3 5 52 54
3 52 53 54
3 2 55 57
3 57 56 15
3 55 56 57
3 58 7 59
3 60 59 1
3 58 59 60
3 8 61 63
3 61 7 62
3 61 62 63
3 8 3 7
3 8 64 66
3 66 65 3
3 64 65 66
3 68 67 8
3 9 10 4
3 69 10 70
3 71 70 9
3 69 70 71
3 72 6 73
3 74 73 10
3 72 73 74
3 11 75 77
3 77 76 5
3 75 76 77
3 12 78 80
3 80 79 11
3 78 79 80
3 12 81 82
3 13 83 85
3 85 84 2
3 83 84 85
3 87 86 13
3 14 15 0
3 16 15 14
3 16 2 15
3 7 16 1
3 17 16 7
3 17 2 16
3 17 13 2
3 18 13 17
3 18 88 90
3 90 89 13
3 88 89 90
3 18 91 92
3 95 94 18
3 93 94 95
3 97 96 3
3 19 98 99
3 19 100 102
3 100 5 101
3 100 101 102
3 10 19 4
3 20 19 10
3 20 5 19
3 20 11 5
3 21 11 20
3 21 0 11
3 103 6 104
3 22 105 107
3 105 106 107
3 22 108 110
3 108 6 109
3 108 109 110
3 22 21 6
3 23 21 22
3 23 0 21
3 23 14 0
3 111 14 112
3 113 112 23
3 111 112 113
3 114 1 115
3 116 115 14
3 114 115 116
3 117 1 118
3 120 119 1
3 121 4 122
3 24 123 124
3 24 125 127
3 125 4 126
3 125 126 127
3 24 9 4
3 128 9 129
3 130 129 24
3 128 129 130
3 132 131 9
3 134 133 5
3 15 12 0
3 135 12 136
3 137 136 15
3 135 136 137
3 139 138 12
3 141 140 2
