ply
format ascii 1.0
element vertex 189
property float x
property float y
property float z
element face 181
property list uchar int vertex_index
end_header
13.597265 88.057419 2.25206
7.045027 88.504112 -9.574484
12.004593 87.726654 9.16751
9.050196 89.272079 3.087247
4.359369 85.723862 -15.037514
15.343995 87.343376 -4.126703
10.251995 89.243301 -3.772657
11.710186 88.186226 -10.012045
8.220436 87.170906 -15.584801
16.691807 85.255722 8.349497
21.463161 81.7323 7.980089
18.674107 85.064819 1.933063
6.318277 88.767441 -2.855204
12.796946 88.037804 5.656244
10.519577 88.744446 6.119684
11.223671 88.951172 2.611775
16.374691 86.690887 -7.043436
13.539497 87.97316 -7.100777
14.528393 87.21489 -9.961462
10.82955 86.961922 -15.550562
9.095245 86.092499 -18.192392
6.666056 85.896584 -18.215521
15.778865 84.959526 11.734126
18.082727 83.349724 11.359032
20.138826 83.514061 4.971479
8.60372 89.128441 -6.708649
8.104055 89.342232 -3.372589
6.654255 88.770012 -6.280787
5.620672 87.364105 -12.356218
5.334152 87.678268 -9.115393
14.432953 87.812889 -1.018339
11.934889 88.873566 -0.780369
12.690836 88.536652 -4.028584
10.923134 88.832008 -6.988049
9.189787 88.653801 -9.880892
12.659805 87.324181 -12.802189
9.917555 87.930428 -12.844931
7.549059 87.971397 -12.693123
6.047853 86.774918 -15.409401
4.716311 85.076813 -18.010965
14.323814 86.693764 8.706625
15.192981 86.837494 5.303944
20.373133 81.563225 11.087981
19.073273 83.552666 8.10471
17.649807 85.278305 5.073688
16.097866 86.711174 2.02357
17.068928 86.355652 -1.108122
18.143642 85.819099 -4.065702
9.643324 89.396255 -0.40379
7.636538 89.28405 0.090448
16.044711 86.550777 -9.849647
15.451542 86.952889 -8.502449
16.967859 86.288776 -8.390635
9.638578 85.402752 -19.327393
10.519352 85.914139 -18.06992
8.299316 85.40017 -19.452417
9.638578 85.402752 -19.327393
18.727776 82.251152 12.830592
17.617819 83.1124 13.032829
18.262869 82.013828 14.50439
10.902932 87.983749 9.443202
11.606265 87.419456 10.963864
8.745365 89.066329 4.881151
9.480055 88.802513 6.397369
9.784886 89.008263 4.603466
8.104361 89.110412 3.370011
8.745365 89.066329 4.881151
4.263225 85.905686 -13.449571
4.893877 86.725807 -12.108923
4.99002 86.543983 -13.696866
13.229102 86.785786 -14.058079
14.175142 86.801418 -12.687652
5.000007 84.599335 -19.364288
5.691184 85.486699 -18.113243
5.97488 85.00922 -19.466566
4.139444 83.995411 -19.243668
5.000007 84.599335 -19.364288
22.064574 80.734475 9.456577
22.667898 80.829479 7.982149
20.918147 81.647762 9.534035
21.51956 80.649937 11.010523
22.064574 80.734475 9.456577
19.589563 84.971867 -3.95928
18.968315 85.241592 -2.557476
18.750143 85.481506 -5.445025
19.589563 84.971867 -3.95928
6.151821 88.632469 -1.092323
6.810951 88.890774 0.380503
6.977407 89.025745 -1.382378
5.231025 87.702515 -7.425944
4.707479 86.932644 -8.827382
3.757547 84.879776 -14.769249
3.812905 84.672073 -16.317733
11.386505 86.34885 -16.749004
12.313975 86.604657 -15.432265
9.962397 86.52721 -16.871477
11.386505 86.34885 -16.749004
10.519352 85.914139 -18.06992
7.084721 85.302212 -19.463981
7.88065 85.994541 -18.203957
8.299316 85.40017 -19.452417
5.97488 85.00922 -19.466566
7.084721 85.302212 -19.463981
16.465888 83.917301 13.220377
15.338679 84.664188 13.466162
16.930796 84.154625 11.546579
16.465888 83.917301 13.220377
17.617819 83.1124 13.032829
22.058324 81.712765 6.490703
22.667898 80.829479 7.982149
21.396157 82.603645 4.986398
20.800994 82.62318 6.475784
22.058324 81.712765 6.490703
20.718429 83.395839 3.476606
21.396157 82.603645 4.986398
19.986069 84.171219 1.957398
19.406467 84.28944 3.452271
20.718429 83.395839 3.476606
19.233548 84.864452 0.441906
19.986069 84.171219 1.957398
10.160424 88.492645 7.919289
10.902932 87.983749 9.443202
11.262085 88.23555 7.643597
10.160424 88.492645 7.919289
9.480055 88.802513 6.397369
4.750617 86.882889 -10.488511
5.477412 87.521186 -10.735805
4.893877 86.725807 -12.108923
4.707479 86.932644 -8.827382
4.750617 86.882889 -10.488511
4.263225 85.905686 -13.449571
3.757547 84.879776 -14.769249
15.109436 86.746773 -11.267288
16.044711 86.550777 -9.849647
13.594099 87.269535 -11.381825
15.109436 86.746773 -11.267288
14.175142 86.801418 -12.687652
11.744677 87.143051 -14.176375
13.229102 86.785786 -14.058079
12.313975 86.604657 -15.432265
3.991376 84.348549 -17.804458
3.812905 84.672073 -16.317733
4.53784 85.400338 -16.52424
3.991376 84.348549 -17.804458
4.139444 83.995411 -19.243668
12.738218 86.990478 10.685902
11.606265 87.419456 10.963864
12.339889 86.683281 12.482257
14.625353 85.606914 11.96921
15.338679 84.664188 13.466162
13.897828 86.474033 10.455459
14.625353 85.606914 11.96921
15.05134 85.826645 10.220375
13.164203 87.210209 8.937068
12.738218 86.990478 10.685902
13.897828 86.474033 10.455459
20.97233 80.448231 12.54247
21.51956 80.649937 11.010523
19.872979 81.357902 12.695067
20.97233 80.448231 12.54247
19.22793 82.456474 11.223506
18.727776 82.251152 12.830592
19.872979 81.357902 12.695067
18.430958 85.509869 -1.078686
17.871517 85.710236 0.41247
19.233548 84.864452 0.441906
17.606285 86.087376 -2.586912
18.430958 85.509869 -1.078686
18.968315 85.241592 -2.557476
17.865668 85.9174 -6.933892
17.259166 86.254993 -5.554569
18.750143 85.481506 -5.445025
16.967859 86.288776 -8.390635
17.865668 85.9174 -6.933892
7.397531 89.116398 1.871611
8.104361 89.110412 3.370011
8.343367 89.278064 1.588847
7.397531 89.116398 1.871611
6.810951 88.890774 0.380503
5.891076 88.248386 -6.008641
5.994203 88.22414 -7.69809
5.231025 87.702515 -7.425944
5.723087 88.247101 -4.29585
6.486266 88.768726 -4.567996
5.891076 88.248386 -6.008641
5.630968 88.142441 -2.555798
5.723087 88.247101 -4.29585
6.151821 88.632469 -1.092323
5.630968 88.142441 -2.555798
3 0 15 13
3 50 18 51
3 52 51 16
3 50 51 52
3 53 20 54
3 56 55 20
3 57 23 58
3 57 58 59
3 1 27 25
3 2 60 61
3 3 62 64
3 64 63 14
3 62 63 64
3 3 65 66
3 4 67 69
3 69 68 28
3 67 68 69
3 5 32 30
3 7 33 17
3 7 34 33
3 70 35 71
3 8 36 19
3 8 37 36
3 8 38 37
3 72 39 73
3 74 73 21
3 72 73 74
3 76 75 39
3 9 40 22
3 9 41 40
3 10 77 78
3 10 79 81
3 79 42 80
3 79 80 81
3 10 43 42
3 11 44 24
3 11 45 44
3 11 46 45
3 82 47 83
3 85 84 47
3 6 48 31
3 12 49 26
3 12 86 88
3 88 87 49
3 86 87 88
3 90 89 29
3 13 14 2
3 15 14 13
3 15 3 14
3 92 91 4
3 16 17 5
3 18 17 16
3 18 7 17
3 93 19 94
3 20 95 97
3 95 19 96
3 95 96 97
3 20 8 19
3 20 21 8
3 98 21 99
3 100 99 20
3 98 99 100
3 102 101 21
3 103 22 104
3 23 105 107
3 105 22 106
3 105 106 107
3 23 9 22
3 108 10 109
3 110 24 111
3 112 111 10
3 110 111 112
3 113 24 114
3 115 11 116
3 117 116 24
3 115 116 117
3 119 118 11
3 25 26 6
3 27 26 25
3 27 12 26
3 14 120 122
3 122 121 2
3 120 121 122
3 124 123 14
3 28 29 1
3 125 29 126
3 127 126 28
3 125 126 127
3 129 128 29
3 131 130 4
3 30 31 0
3 32 31 30
3 32 6 31
3 17 32 5
3 33 32 17
3 33 6 32
3 33 25 6
3 34 25 33
3 34 1 25
3 132 18 133
3 35 134 136
3 134 18 135
3 134 135 136
3 35 7 18
3 19 137 139
3 137 35 138
3 137 138 139
3 36 35 19
3 36 7 35
3 36 34 7
3 37 34 36
3 37 1 34
3 37 28 1
3 38 28 37
3 38 4 28
3 21 38 8
3 39 38 21
3 39 4 38
3 39 140 142
3 142 141 4
3 140 141 142
3 144 143 39
3 145 2 146
3 145 146 147
3 22 148 149
3 40 150 152
3 152 151 22
3 150 151 152
3 40 153 155
3 153 2 154
3 153 154 155
3 40 13 2
3 41 13 40
3 41 0 13
3 42 156 157
3 42 158 159
3 42 160 162
3 160 23 161
3 160 161 162
3 43 23 42
3 43 9 23
3 24 43 10
3 44 43 24
3 44 9 43
3 44 41 9
3 45 41 44
3 45 0 41
3 45 30 0
3 46 30 45
3 46 5 30
3 163 46 164
3 165 164 11
3 163 164 165
3 47 166 168
3 166 46 167
3 166 167 168
3 47 5 46
3 47 16 5
3 169 16 170
3 171 170 47
3 169 170 171
3 173 172 16
3 31 15 0
3 48 15 31
3 48 3 15
3 26 48 6
3 49 48 26
3 49 3 48
3 49 174 176
3 176 175 3
3 174 175 176
3 178 177 49
3 29 27 1
3 179 27 180
3 181 180 29
3 179 180 181
3 182 12 183
3 184 183 27
3 182 183 184
3 185 12 186
3 188 187 12
