ply
format ascii 1.0
element vertex 424
property float x
property float y
property float z
element face 449
property list uchar int vertex_index
end_header
66.836197 -10.679463 18.143646
70.800636 -9.901105 23.503925
58.69133 -11.097974 16.332146
50.03035 -22.791098 19.90122
68.987556 -2.326021 25.565765
58.359665 1.020283 10.80404
65.115601 0.107254 13.160477
69.465187 -0.40209 18.239395
70.742874 -9.539621 27.122898
63.053459 -10.950062 16.854584
58.821213 -16.59837 18.902336
61.872444 0.428236 11.619246
63.466705 5.534107 11.566449
67.432335 4.561174 17.356499
68.176796 3.710842 20.856949
69.844948 -1.085993 21.697767
67.758705 2.193176 24.562481
69.526329 -10.31741 20.376677
62.939209 9.775532 13.828311
54.199905 -11.082246 16.302776
49.692501 -17.132931 18.41165
54.167183 -16.954111 18.592485
54.45755 -22.276241 20.626911
50.403538 -4.162932 13.902319
54.695423 1.886515 10.739973
54.428219 -4.766189 13.588854
58.553806 -5.184176 13.588564
62.597244 -5.37534 14.140505
66.250595 -5.390535 15.376004
65.740944 5.045973 14.214615
67.788933 -0.088816 15.370736
69.049889 -5.34484 17.418634
70.563538 -5.376248 20.321432
70.681694 -5.640094 23.92355
70.451607 -11.21174 28.909546
65.05024 -10.827762 17.388725
63.174942 -13.595743 18.272356
65.16523 -13.397348 18.884125
68.115379 3.04682 22.693609
70.345871 -10.111694 21.844437
56.439461 -11.112702 16.275143
54.150932 -14.080045 17.499733
56.449596 -14.013468 17.52368
58.902031 -19.159214 20.187729
56.589851 -19.441004 19.855314
56.74865 -21.942295 21.030144
54.769104 -24.698454 21.677103
48.482849 -3.824559 14.049955
50.684425 -0.660236 12.545163
56.543308 1.424438 10.683702
54.567902 -1.474163 12.146109
56.522934 -1.821543 12.088439
56.488388 -5.003106 13.530422
58.468452 -2.110189 12.175824
63.541656 0.239943 12.303944
62.267624 -2.490189 12.844227
64.068886 -2.590544 13.433582
64.499123 -5.398694 14.665077
65.749184 -2.649416 14.197234
63.67823 9.38019 15.545873
64.426186 7.46339 13.929968
65.289848 7.17293 15.55494
68.57338 2.117586 17.661283
67.844246 2.348436 16.109514
68.777298 -0.214008 16.723917
68.517654 -2.728945 16.276741
69.488815 -2.798965 17.605907
69.984703 -5.341905 18.766384
70.124695 -2.922951 19.12496
69.552094 -1.628599 23.593857
70.35778 -3.427909 22.64912
70.005806 -3.85339 24.587891
70.302094 -5.921188 25.872986
69.411575 -4.424891 26.595619
49.781246 -20.043715 19.19943
70.916115 -9.702675 25.292957
70.671356 -11.574017 27.152294
70.236176 -13.304281 29.105782
60.913284 -11.041954 16.513327
58.754631 -13.906996 17.630476
61.016018 -13.76627 17.86623
61.087227 -16.374071 19.238014
60.139053 0.686695 11.116209
61.409821 3.359318 10.513569
62.919273 3.065536 11.305058
64.35363 2.84343 12.276407
66.02784 6.86669 17.272696
66.594551 6.490744 19.060019
67.942497 4.204273 19.071173
69.008934 1.786709 19.332405
69.822807 -0.683958 19.904167
69.128883 1.321808 21.105392
68.933289 0.69808 22.9594
68.445877 -0.097515 24.873915
50.460579 -25.358465 20.573868
68.345947 -10.508337 19.138161
66.918671 -13.17007 19.727526
68.373558 -12.910926 20.814909
61.885544 11.477396 15.686755
52.008072 -11.005565 16.370161
51.90152 -14.101604 17.50808
51.884506 -17.069969 18.514376
51.977711 -19.896433 19.418297
56.495834 -16.793972 18.703644
54.263733 -19.690794 19.61731
52.200584 -22.565691 20.269691
52.572647 -25.063198 21.126793
46.333199 -7.068583 15.243042
48.170151 -7.330386 15.28384
50.129051 -7.57661 15.216358
52.823421 2.388758 10.937243
52.616371 -1.081436 12.315205
52.393158 -4.481827 13.728924
52.18084 -7.794716 15.100161
54.298431 -7.973455 14.991878
56.455948 -8.104837 14.94019
58.625839 -8.185379 14.984212
60.39024 -2.332895 12.425665
60.600815 -5.30697 13.786505
60.774895 -8.216352 15.155202
62.860313 -8.20313 15.480062
64.827957 -8.153894 15.984282
66.614365 -8.078172 16.692268
63.4758 7.785063 12.422529
64.655289 5.269108 12.819647
65.68277 2.671635 13.409039
66.682617 4.825512 15.732211
66.863495 2.519239 14.689602
66.549538 0.007355 14.183084
67.252403 -2.687534 15.142174
67.788292 -5.366869 16.289616
68.153252 -7.985741 17.62446
69.385269 -7.886375 18.792042
70.268654 -7.790622 20.191257
70.787323 -7.711588 21.799143
70.410172 -3.125113 20.815788
70.78627 -5.46803 22.055101
70.955254 -7.667588 23.571524
70.814194 -7.683619 25.444366
70.514865 -11.095778 23.590637
70.287483 -11.201072 22.760893
70.573253 -10.0064 22.674181
57.882717 -21.76056 21.28118
57.82534 -20.550755 20.608936
58.959408 -20.36902 20.859972
56.872311 -23.115348 21.653786
57.882717 -21.76056 21.28118
50.812664 1.125852 11.882849
49.739052 -0.444007 12.658896
57.451487 1.222361 10.743871
57.380036 2.807974 10.117869
58.288214 2.605896 10.178038
64.825081 8.088725 16.455105
64.484039 8.27656 15.550407
64.019272 9.192355 16.450572
49.013466 -22.861621 19.682739
48.888914 -21.487929 19.331844
49.905798 -21.417406 19.550325
70.08973 -13.026661 29.954478
70.343891 -12.258011 29.007664
70.197445 -11.98039 29.856359
69.794895 -13.841093 30.964266
69.941341 -14.118714 30.115571
70.08973 -13.026661 29.954478
62.158833 -16.249026 19.495587
62.131085 -14.984907 18.755185
63.20269 -14.859862 19.012758
61.113629 -17.613461 19.950689
62.158833 -16.249026 19.495587
61.144724 4.824676 10.051912
60.625429 3.547127 10.218528
63.192989 4.299822 11.435754
62.561531 4.467356 10.892553
62.835247 5.701641 11.023249
65.995091 7.291365 20.094777
65.771209 7.542845 19.143197
68.059646 3.957558 19.964061
67.443825 5.097837 19.982148
67.560974 4.851122 20.875036
50.145102 -27.855111 20.868241
49.830467 -26.668385 20.517988
50.775214 -26.54519 20.924122
61.132202 12.180426 16.778652
60.931729 12.504133 15.829829
61.418024 11.936675 17.716337
62.171366 11.233645 16.62444
61.132202 12.180426 16.778652
53.941524 -26.038289 21.859834
54.995769 -25.824143 22.245222
66.050679 -14.508143 20.104045
66.897919 -14.352358 20.58372
46.495808 -5.27492 14.675666
45.490761 -6.935664 15.140738
54.744058 3.591846 10.099612
55.61508 3.302369 10.071499
53.759422 2.137637 10.838608
53.808058 3.842967 10.198247
54.744058 3.591846 10.099612
63.207504 8.780297 13.12542
62.82193 9.008564 12.328658
62.553635 10.003799 13.031548
70.364883 -6.858292 26.605017
70.00816 -6.136512 26.862954
48.663019 -17.134868 18.318807
49.716304 -15.604057 17.952854
70.403119 -10.324899 28.887404
70.59724 -10.375681 28.016222
70.548752 -9.48884 27.99408
70.232079 -11.025427 29.708402
70.403119 -10.324899 28.887404
70.197445 -11.98039 29.856359
70.232079 -11.025427 29.708402
64.197834 -14.760665 19.318643
63.20269 -14.859862 19.012758
64.170086 -13.496545 18.57824
62.965969 6.853582 11.314139
62.835247 5.701641 11.023249
67.609962 4.516925 21.802606
67.560974 4.851122 20.875036
67.579254 4.184914 22.720937
68.146087 3.378831 21.775279
67.609962 4.516925 21.802606
67.490608 3.751017 23.649039
67.579254 4.184914 22.720937
67.312271 3.324196 24.583475
67.937042 2.619998 23.628045
67.490608 3.751017 23.649039
69.915093 -11.364531 21.992525
69.505322 -11.467389 21.258645
69.9361 -10.214552 21.110557
69.915093 -11.364531 21.992525
70.287483 -11.201072 22.760893
55.882538 -24.493428 21.977266
55.758877 -23.320374 21.353623
56.872311 -23.115348 21.653786
54.995769 -25.824143 22.245222
55.882538 -24.493428 21.977266
48.638264 -2.026168 13.411292
47.570633 -3.652907 14.079123
49.583637 -2.242398 13.297559
48.638264 -2.026168 13.411292
49.739052 -0.444007 12.658896
56.539023 3.07133 10.043363
57.380036 2.807974 10.117869
55.619366 1.655477 10.711838
55.61508 3.302369 10.071499
56.539023 3.07133 10.043363
69.5629 -5.388363 27.22427
70.00816 -6.136512 26.862954
69.856834 -5.173039 26.234302
48.751176 -20.081581 19.050689
48.706804 -18.626188 18.656799
49.736874 -18.588323 18.80554
48.751176 -20.081581 19.050689
48.888914 -21.487929 19.331844
70.765103 -10.82033 25.333196
70.707363 -10.919545 24.438679
70.858375 -9.80189 24.398441
70.642723 -11.756001 26.262864
70.765103 -10.82033 25.333196
70.793735 -10.638346 26.222625
70.461029 -12.703049 27.252632
70.642723 -11.756001 26.262864
70.243439 -13.568181 28.229376
70.461029 -12.703049 27.252632
70.453766 -12.439149 28.129038
69.992173 -14.454377 29.253765
70.243439 -13.568181 28.229376
69.992173 -14.454377 29.253765
69.941341 -14.118714 30.115571
60.021031 -19.006033 20.425547
59.994629 -17.766642 19.712871
61.113629 -17.613461 19.950689
58.959408 -20.36902 20.859972
60.021031 -19.006033 20.425547
59.100352 2.37761 10.363763
58.288214 2.605896 10.178038
59.990045 2.210815 10.519848
59.249359 0.853489 10.960124
59.100352 2.37761 10.363763
60.774437 2.023007 10.814889
59.990045 2.210815 10.519848
60.625429 3.547127 10.218528
61.806805 4.614247 10.496809
61.144724 4.824676 10.051912
62.164547 3.212427 10.909313
61.806805 4.614247 10.496809
62.561531 4.467356 10.892553
65.487854 7.730818 18.249536
65.194076 7.935605 17.313983
66.311195 6.678717 18.166358
65.487854 7.730818 18.249536
65.771209 7.542845 19.143197
66.769851 6.241073 19.976571
65.995091 7.291365 20.094777
67.268524 5.347508 19.065596
66.769851 6.241073 19.976571
67.443825 5.097837 19.982148
49.472187 -25.457798 20.269485
49.257072 -24.174115 19.93316
50.245464 -24.074782 20.237544
49.472187 -25.457798 20.269485
49.830467 -26.668385 20.517988
67.625362 -14.222786 21.127412
66.897919 -14.352358 20.58372
67.646115 -13.040498 20.271217
68.928936 -12.764146 21.477761
68.949944 -11.614168 20.595793
69.505322 -11.467389 21.258645
68.315312 -14.046038 21.724588
68.928936 -12.764146 21.477761
67.625362 -14.222786 21.127412
68.315312 -14.046038 21.724588
70.514865 -11.095778 23.590637
70.707363 -10.919545 24.438679
62.130907 10.897883 13.870997
62.553635 10.003799 13.031548
61.604075 11.748815 14.800219
60.650259 12.775552 14.943293
60.931729 12.504133 15.829829
62.412377 10.626464 14.757533
62.130907 10.897883 13.870997
61.604075 11.748815 14.800219
63.067709 10.185042 16.553998
62.781887 10.428793 15.616314
62.171366 11.233645 16.62444
64.019272 9.192355 16.450572
63.067709 10.185042 16.553998
50.87409 -12.540375 16.932109
50.95216 -10.945414 16.398137
50.820814 -14.088394 17.501069
50.87409 -12.540375 16.932109
51.954796 -12.553584 16.939121
50.79701 -15.617268 17.959865
49.716304 -15.604057 17.952854
50.820814 -14.088394 17.501069
51.831248 -26.397557 21.200584
50.775214 -26.54519 20.924122
51.516613 -25.210831 20.85033
52.843296 -26.220661 21.584678
53.670876 -24.880826 21.401948
53.941524 -26.038289 21.859834
51.831248 -26.397557 21.200584
52.843296 -26.220661 21.584678
65.173958 -14.621782 19.682344
66.04195 -13.283709 19.305826
66.050679 -14.508143 20.104045
64.197834 -14.760665 19.318643
65.173958 -14.621782 19.682344
67.083805 2.785444 25.504858
67.312271 3.324196 24.583475
67.443725 1.6705 25.506522
67.083805 2.785444 25.504858
66.768826 2.262768 26.448899
67.787312 0.525155 25.662239
68.102291 1.04783 24.718198
67.443725 1.6705 25.506522
68.078277 -0.581858 25.853739
67.787312 0.525155 25.662239
68.349117 -1.696111 26.199664
68.716716 -1.211768 25.21984
68.078277 -0.581858 25.853739
68.598824 -2.75644 26.579552
68.349117 -1.696111 26.199664
68.810833 -3.805875 27.094479
69.199566 -3.375456 26.080692
68.598824 -2.75644 26.579552
69.02602 -4.796523 27.622345
68.810833 -3.805875 27.094479
68.425278 -4.177507 28.121204
69.5629 -5.388363 27.22427
69.02602 -4.796523 27.622345
45.34683 -8.702652 15.604013
44.504392 -8.569733 15.501709
45.490761 -6.935664 15.140738
46.186775 -8.804996 15.760566
45.34683 -8.702652 15.604013
47.408024 -5.446571 14.646498
46.495808 -5.27492 14.675666
47.570633 -3.652907 14.079123
47.105251 -8.935897 15.780966
46.186775 -8.804996 15.760566
47.251675 -7.199485 15.263441
48.033195 -9.028976 15.849146
47.105251 -8.935897 15.780966
49.012645 -9.152088 15.815405
48.033195 -9.028976 15.849146
49.149601 -7.453498 15.250099
50.012649 -9.230936 15.821236
49.012645 -9.152088 15.815405
52.908747 4.148282 10.308908
53.893383 5.602491 9.569912
53.808058 3.842967 10.198247
51.882162 2.650349 11.078889
52.908747 4.148282 10.308908
51.753923 0.864261 11.741203
50.812664 1.125852 11.882849
51.882162 2.650349 11.078889
51.038544 -9.339989 15.763137
50.012649 -9.230936 15.821236
51.154945 -7.685663 15.158259
52.094456 -9.400141 15.735161
50.95216 -10.945414 16.398137
51.038544 -9.339989 15.763137
62.970517 7.979059 11.742179
62.82193 9.008564 12.328658
63.471252 6.659585 11.994489
62.965969 6.853582 11.314139
62.970517 7.979059 11.742179
65.658844 7.01981 16.413818
64.825081 8.088725 16.455105
65.194076 7.935605 17.313983
70.620934 -7.739508 26.390707
70.558144 -6.802404 25.658676
70.364883 -6.858292 26.605017
70.585273 -8.667509 27.229973
70.778534 -8.61162 26.283632
70.620934 -7.739508 26.390707
70.548752 -9.48884 27.99408
70.585273 -8.667509 27.229973
48.663019 -17.134868 18.318807
48.706804 -18.626188 18.656799
49.013466 -22.861621 19.682739
49.257072 -24.174115 19.93316
3 0 37 35
3 1 139 141
3 141 140 39
3 139 140 141
3 2 42 40
3 142 45 143
3 144 143 43
3 142 143 144
3 146 145 45
3 147 48 148
3 5 149 151
3 149 49 150
3 149 150 151
3 5 51 49
3 5 53 51
3 6 56 54
3 6 58 56
3 152 61 153
3 154 153 59
3 152 153 154
3 7 64 62
3 7 66 64
3 7 68 66
3 4 71 69
3 4 73 71
3 3 155 157
3 157 156 74
3 155 156 157
3 8 76 75
3 158 77 159
3 160 159 34
3 158 159 160
3 163 162 77
3 161 162 163
3 9 80 78
3 164 81 165
3 166 165 36
3 164 165 166
3 168 167 81
3 169 83 170
3 12 171 173
3 171 84 172
3 171 172 173
3 12 85 84
3 174 87 175
3 14 176 178
3 176 88 177
3 176 177 178
3 14 89 88
3 14 91 89
3 16 92 38
3 16 93 92
3 181 180 94
3 179 180 181
3 17 97 95
3 182 98 183
3 186 185 98
3 184 185 186
3 19 100 99
3 21 101 41
3 21 102 101
3 10 103 79
3 22 104 44
3 22 105 104
3 22 106 105
3 188 187 46
3 190 189 96
3 191 107 192
3 23 108 47
3 23 109 108
3 24 193 194
3 24 195 197
3 195 110 196
3 195 196 197
3 24 111 110
3 25 112 50
3 25 113 112
3 25 114 113
3 26 115 52
3 26 116 115
3 11 117 82
3 27 118 55
3 27 119 118
3 27 120 119
3 28 121 57
3 28 122 121
3 18 198 200
3 198 123 199
3 198 199 200
3 29 124 60
3 29 125 124
3 13 126 86
3 30 127 63
3 30 128 127
3 30 129 128
3 31 130 65
3 31 131 130
3 31 132 131
3 32 133 67
3 32 134 133
3 15 135 90
3 33 136 70
3 33 137 136
3 33 138 137
3 202 201 72
3 20 203 204
3 205 34 206
3 207 206 8
3 205 206 207
3 208 34 209
3 211 210 34
3 35 36 9
3 37 36 35
3 37 212 214
3 214 213 36
3 212 213 214
3 215 12 216
3 217 14 218
3 219 38 220
3 221 220 14
3 219 220 221
3 222 38 223
3 224 16 225
3 226 225 38
3 224 225 226
3 39 227 229
3 229 228 17
3 227 228 229
3 231 230 39
3 40 41 19
3 42 41 40
3 42 21 41
3 43 44 10
3 45 44 43
3 45 22 44
3 45 46 22
3 232 46 233
3 234 233 45
3 232 233 234
3 236 235 46
3 237 47 238
3 48 239 241
3 239 47 240
3 239 240 241
3 48 23 47
3 49 242 243
3 49 244 246
3 244 24 245
3 244 245 246
3 49 50 24
3 51 50 49
3 51 25 50
3 51 52 25
3 53 52 51
3 53 26 52
3 54 55 11
3 56 55 54
3 56 27 55
3 56 57 27
3 58 57 56
3 58 28 57
3 59 60 18
3 61 60 59
3 61 29 60
3 62 63 13
3 64 63 62
3 64 30 63
3 64 65 30
3 66 65 64
3 66 31 65
3 66 67 31
3 68 67 66
3 68 32 67
3 69 70 15
3 71 70 69
3 71 33 70
3 71 72 33
3 73 72 71
3 73 247 249
3 249 248 72
3 247 248 249
3 74 250 252
3 252 251 20
3 250 251 252
3 254 253 74
3 75 255 257
3 257 256 1
3 255 256 257
3 76 258 260
3 260 259 75
3 258 259 260
3 76 261 262
3 34 76 8
3 77 76 34
3 77 263 265
3 265 264 76
3 263 264 265
3 77 266 267
3 269 268 77
3 78 79 2
3 80 79 78
3 80 10 79
3 36 80 9
3 81 80 36
3 81 10 80
3 81 43 10
3 270 43 271
3 272 271 81
3 270 271 272
3 274 273 43
3 275 5 276
3 277 82 278
3 279 278 5
3 277 278 279
3 83 280 282
3 280 82 281
3 280 281 282
3 83 11 82
3 283 83 284
3 84 285 287
3 285 83 286
3 285 286 287
3 84 11 83
3 84 54 11
3 85 54 84
3 85 6 54
3 288 86 289
3 87 290 292
3 290 86 291
3 290 291 292
3 87 13 86
3 293 87 294
3 88 295 297
3 295 87 296
3 295 296 297
3 88 13 87
3 88 62 13
3 89 62 88
3 89 7 62
3 89 90 7
3 91 90 89
3 91 15 90
3 38 91 14
3 92 91 38
3 92 15 91
3 92 69 15
3 93 69 92
3 93 4 69
3 94 298 300
3 300 299 3
3 298 299 300
3 302 301 94
3 95 96 0
3 97 96 95
3 97 303 305
3 305 304 96
3 303 304 305
3 306 97 307
3 308 307 17
3 306 307 308
3 309 97 310
3 312 311 97
3 314 313 1
3 315 18 316
3 98 317 319
3 317 318 319
3 98 320 322
3 320 18 321
3 320 321 322
3 98 59 18
3 323 59 324
3 325 324 98
3 323 324 325
3 327 326 59
3 99 328 329
3 100 330 332
3 332 331 99
3 330 331 332
3 100 333 335
3 333 20 334
3 333 334 335
3 41 100 19
3 101 100 41
3 101 20 100
3 101 74 20
3 102 74 101
3 102 3 74
3 79 42 2
3 103 42 79
3 103 21 42
3 44 103 10
3 104 103 44
3 104 21 103
3 104 102 21
3 105 102 104
3 105 3 102
3 105 94 3
3 106 94 105
3 106 336 338
3 338 337 94
3 336 337 338
3 46 106 22
3 339 106 340
3 341 340 46
3 339 340 341
3 343 342 106
3 96 37 0
3 344 37 345
3 346 345 96
3 344 345 346
3 348 347 37
3 349 16 350
3 351 16 352
3 351 352 353
3 354 93 355
3 356 355 16
3 354 355 356
3 357 93 358
3 359 4 360
3 361 360 93
3 359 360 361
3 362 4 363
3 364 73 365
3 366 365 4
3 364 365 366
3 367 73 368
3 367 368 369
3 371 370 73
3 107 372 374
3 372 373 374
3 107 375 376
3 47 377 379
3 377 107 378
3 377 378 379
3 108 107 47
3 108 380 382
3 382 381 107
3 380 381 382
3 108 383 384
3 109 385 387
3 387 386 108
3 385 386 387
3 109 388 389
3 110 390 392
3 390 391 392
3 110 393 394
3 110 395 397
3 395 48 396
3 395 396 397
3 111 48 110
3 111 23 48
3 50 111 24
3 112 111 50
3 112 23 111
3 112 109 23
3 113 109 112
3 113 398 400
3 400 399 109
3 398 399 400
3 113 401 403
3 401 99 402
3 401 402 403
3 114 99 113
3 114 19 99
3 52 114 25
3 115 114 52
3 115 19 114
3 115 40 19
3 116 40 115
3 116 2 40
3 82 53 5
3 117 53 82
3 117 26 53
3 55 117 11
3 118 117 55
3 118 26 117
3 118 116 26
3 119 116 118
3 119 2 116
3 119 78 2
3 120 78 119
3 120 9 78
3 57 120 27
3 121 120 57
3 121 9 120
3 121 35 9
3 122 35 121
3 122 0 35
3 123 404 405
3 123 406 408
3 406 12 407
3 406 407 408
3 60 123 18
3 124 123 60
3 124 12 123
3 124 85 12
3 125 85 124
3 125 6 85
3 86 409 411
3 409 61 410
3 409 410 411
3 126 61 86
3 126 29 61
3 63 126 13
3 127 126 63
3 127 29 126
3 127 125 29
3 128 125 127
3 128 6 125
3 128 58 6
3 129 58 128
3 129 28 58
3 65 129 30
3 130 129 65
3 130 28 129
3 130 122 28
3 131 122 130
3 131 0 122
3 131 95 0
3 132 95 131
3 132 17 95
3 67 132 31
3 133 132 67
3 133 17 132
3 133 39 17
3 134 39 133
3 134 1 39
3 90 68 7
3 135 68 90
3 135 32 68
3 70 135 15
3 136 135 70
3 136 32 135
3 136 134 32
3 137 134 136
3 137 1 134
3 137 75 1
3 138 75 137
3 138 8 75
3 72 138 33
3 412 138 413
3 414 413 72
3 412 413 414
3 415 8 416
3 417 416 138
3 415 416 417
3 419 418 8
3 421 420 20
3 423 422 3
