ply
format ascii 1.0
element vertex 383
property float x
property float y
property float z
element face 333
property list uchar int vertex_index
end_header
62.637047 -68.58847 -13.459587
66.350418 -20.12406 -39.887909
67.099739 -37.529243 -33.698372
68.302597 -55.324787 -20.918177
61.474823 -4.093284 -46.644333
65.872154 -62.180626 -17.329668
64.823593 -26.858294 -40.445419
63.641052 -18.234726 -44.133568
59.017822 -74.217331 -5.30805
58.907463 -74.427849 -9.549021
67.175034 -28.743587 -36.608345
64.816742 -35.748047 -37.003578
58.400429 -74.825325 -13.80065
67.000923 -54.854828 -24.833937
68.43647 -47.189983 -27.724489
66.365471 -46.151718 -31.010485
57.59901 -2.498753 -50.994232
61.146751 -10.065785 -47.777718
62.877251 -68.720474 -11.324238
64.637566 -65.655708 -13.273928
66.211761 -62.445908 -15.195877
64.342583 -65.447113 -15.412872
57.075623 -76.794151 -5.483103
59.021629 -74.309464 -7.422398
57.027245 -77.092018 -7.617304
68.300293 -33.987309 -33.293892
68.248375 -29.656853 -34.676842
67.232239 -33.134247 -35.108727
66.106697 -32.238731 -36.911942
65.968895 -36.681892 -35.372787
69.186508 -51.749855 -22.532469
67.813217 -51.090981 -26.343775
67.462082 -46.716431 -29.424639
59.718067 -0.410477 -48.083168
57.712898 0.391027 -50.285378
59.609344 -3.226766 -48.887367
62.549553 -14.083942 -45.984642
60.879608 -13.200961 -47.984901
59.318062 -9.257927 -49.77095
68.178505 -38.303215 -31.98736
67.568054 -59.11808 -17.060579
67.196739 -58.803268 -19.175768
65.686241 -23.452942 -40.25856
65.049973 -19.172628 -42.037018
64.397804 -22.499722 -42.272865
61.040337 -71.6996 -7.249268
60.98217 -71.612869 -9.3696
60.803337 -71.58786 -11.498672
67.998032 -25.353931 -36.158607
66.892395 -24.396847 -38.205948
66.026978 -27.817215 -38.542145
64.947784 -31.285065 -38.683411
56.879448 -77.412552 -9.764666
58.696167 -74.599686 -11.681311
60.525261 -71.64537 -13.622599
62.290657 -68.562164 -15.576799
63.929779 -65.358849 -17.51956
65.398773 -62.040783 -19.416986
66.67186 -58.609974 -21.231489
65.993378 -58.481934 -23.187197
67.737442 -55.0653 -22.929785
68.593613 -51.403942 -24.491213
69.244644 -47.624191 -25.914328
68.880447 -43.161438 -29.006632
67.897919 -42.559799 -30.715212
66.805634 -41.883316 -32.347275
65.65451 -41.10405 -33.909019
64.481468 -40.208782 -35.40464
55.70599 3.826534 -51.467545
55.569656 1.015619 -52.327225
63.059685 -7.919228 -45.053139
64.103287 -14.995388 -43.838486
62.856255 -10.935923 -45.614929
61.342049 -7.008033 -47.314842
59.47765 -6.198169 -49.463364
57.49807 -5.488594 -51.419075
56.158085 -78.180225 -5.590711
56.149422 -77.927277 -4.512218
56.133896 -78.329159 -6.657812
57.051434 -76.943084 -6.550204
56.158085 -78.180225 -5.590711
68.940834 -53.757816 -20.708872
68.497048 -55.509737 -19.877657
68.744552 -53.537321 -21.725323
69.38279 -51.97035 -21.516018
68.940834 -53.757816 -20.708872
60.596445 -2.25188 -47.363751
60.624308 -0.900991 -46.934013
61.502685 -2.742394 -46.214596
65.939121 -18.034703 -40.754707
66.572895 -18.539632 -39.639381
60.690331 -14.780104 -47.930542
61.503479 -15.248839 -47.046318
59.98793 -12.776351 -48.868218
60.690331 -14.780104 -47.930542
68.666493 -38.665093 -31.112715
68.720967 -36.561451 -31.730577
58.948296 -74.161782 -4.255413
58.013179 -75.354058 -4.334497
59.985416 -73.009487 -5.224752
58.948296 -74.161782 -4.255413
60.02908 -72.958466 -6.278659
60.996674 -71.750621 -6.195361
59.985416 -73.009487 -5.224752
64.232681 -35.235791 -37.786781
64.298203 -33.0043 -38.626697
64.882263 -33.516556 -37.843494
55.927578 -78.993439 -9.911664
56.016323 -78.740044 -8.818157
58.548298 -74.712506 -12.74098
57.671948 -76.181557 -11.797821
57.524079 -76.294376 -12.857491
62.065928 -68.59026 -16.610475
61.223273 -70.16853 -15.646276
62.885489 -66.988602 -17.581856
63.110218 -66.960507 -16.548179
62.065928 -68.59026 -16.610475
65.094341 -62.009863 -20.417484
64.398754 -63.697851 -19.487167
65.730885 -60.294459 -21.324735
66.035316 -60.325378 -20.324238
65.094341 -62.009863 -20.417484
66.497151 -56.668381 -24.010567
65.57581 -58.414309 -24.09419
66.079582 -56.600756 -24.917561
69.067795 -45.459831 -27.471931
69.471882 -45.676935 -26.566851
68.840557 -47.407087 -26.819409
68.658458 -45.17571 -28.365561
69.289783 -43.445558 -28.113003
69.067795 -45.459831 -27.471931
64.820465 -42.864544 -33.888717
65.423985 -43.282108 -33.198467
64.233944 -42.41691 -34.636528
65.067989 -40.656416 -34.65683
64.820465 -42.864544 -33.888717
56.772943 3.46844 -50.395897
55.7967 5.13581 -50.898933
56.540636 -2.204851 -51.939838
55.525959 -0.447665 -52.606335
56.584333 -0.741567 -51.660728
63.741726 -9.896452 -44.206986
63.823162 -8.431325 -43.897026
57.440575 -7.005149 -51.462024
58.408066 -7.373261 -50.595012
58.350571 -8.889816 -50.637962
56.461384 -5.1897 -52.255879
57.440575 -7.005149 -51.462024
63.838219 -67.353786 -11.226487
62.934662 -68.834171 -10.257689
64.718377 -65.821404 -12.201332
63.838219 -67.353786 -11.226487
63.757409 -67.188091 -12.299083
65.521698 -64.254 -13.160043
64.718377 -65.821404 -12.201332
65.424664 -64.050808 -14.234903
66.308796 -62.6491 -14.121018
65.521698 -64.254 -13.160043
64.191662 -26.356068 -41.356338
64.288505 -28.561305 -40.41584
57.04208 -76.642468 -4.422023
56.149422 -77.927277 -4.512218
58.046723 -75.505741 -5.395576
58.013179 -75.354058 -4.334497
57.04208 -76.642468 -4.422023
68.274334 -31.822081 -33.985367
68.72612 -30.118445 -33.72028
68.752079 -32.283673 -33.028805
69.710884 -50.181916 -22.28268
69.38279 -51.97035 -21.516018
69.519207 -49.914661 -23.270924
69.710884 -50.181916 -22.28268
57.368038 -76.476688 -13.921146
57.524079 -76.294376 -12.857491
66.550808 -54.737766 -25.71467
66.079582 -56.600756 -24.917561
66.956955 -52.855843 -26.469589
67.40707 -52.972904 -25.588856
66.550808 -54.737766 -25.71467
67.339592 -50.916759 -27.203978
66.956955 -52.855843 -26.469589
67.651218 -48.966261 -27.894334
68.124843 -49.140482 -27.034132
67.339592 -50.916759 -27.203978
67.164024 -48.729484 -28.744409
67.949276 -46.953207 -28.574564
67.651218 -48.966261 -27.894334
66.622379 -48.506655 -29.53161
67.164024 -48.729484 -28.744409
66.074074 -48.224299 -30.324534
66.913776 -46.434075 -30.217562
66.622379 -48.506655 -29.53161
59.753597 0.884604 -47.571151
60.624308 -0.900991 -46.934013
58.778982 1.349934 -48.703709
59.753597 0.884604 -47.571151
58.715483 -0.009725 -49.184273
57.776398 1.750687 -49.804814
58.778982 1.349934 -48.703709
62.338452 -15.69033 -46.046188
63.095303 -16.159334 -45.059105
62.884201 -17.765721 -45.120651
61.71458 -13.642451 -46.984772
62.338452 -15.69033 -46.046188
61.503479 -15.248839 -47.046318
59.207157 -10.804834 -49.761242
60.098835 -11.229444 -48.877926
59.98793 -12.776351 -48.868218
58.350571 -8.889816 -50.637962
59.207157 -10.804834 -49.761242
68.78186 -34.403498 -32.383843
68.752079 -32.283673 -33.028805
68.239399 -36.145262 -32.640626
68.78186 -34.403498 -32.383843
68.720967 -36.561451 -31.730577
66.994354 -61.013995 -15.05762
66.308796 -62.6491 -14.121018
67.672501 -59.350081 -15.989971
66.994354 -61.013995 -15.05762
66.889907 -60.781994 -16.128228
68.232219 -57.665087 -16.890606
67.672501 -59.350081 -15.989971
68.129776 -57.406384 -17.948858
68.232219 -57.665087 -16.890606
67.944119 -57.248978 -19.006453
68.129776 -57.406384 -17.948858
67.382396 -58.960674 -18.118174
67.749668 -57.064028 -20.046973
68.497048 -55.509737 -19.877657
67.944119 -57.248978 -19.006453
62.309971 -4.59905 -45.486637
61.502685 -2.742394 -46.214596
63.978767 -24.176782 -42.270061
64.610698 -24.679008 -41.359142
64.191662 -26.356068 -41.356338
63.710968 -22.011075 -43.229908
63.978767 -24.176782 -42.270061
63.332592 -19.878577 -44.160259
64.019428 -20.367224 -43.203216
63.710968 -22.011075 -43.229908
62.884201 -17.765721 -45.120651
63.332592 -19.878577 -44.160259
61.997014 -70.464309 -7.159863
60.996674 -71.750621 -6.195361
62.016205 -70.323734 -8.220204
61.997014 -70.464309 -7.159863
61.987122 -70.280369 -9.280369
62.016205 -70.323734 -8.220204
61.011254 -71.656235 -8.309434
61.92971 -70.166672 -10.346919
62.934662 -68.834171 -10.257689
61.987122 -70.280369 -9.280369
66.935756 -20.618206 -38.812905
66.572895 -18.539632 -39.639381
68.605743 -28.003225 -34.409408
68.72612 -30.118445 -33.72028
68.480572 -25.851763 -35.150291
68.605743 -28.003225 -34.409408
68.123203 -27.505392 -35.417725
68.260197 -23.759262 -35.889313
68.480572 -25.851763 -35.150291
67.759563 -23.233142 -36.948254
68.260197 -23.759262 -35.889313
67.206745 -22.7546 -37.971924
67.759563 -23.233142 -36.948254
67.445213 -24.875389 -37.182277
66.621407 -22.260454 -39.046928
66.935756 -20.618206 -38.812905
67.206745 -22.7546 -37.971924
64.350601 -30.774691 -39.534836
64.288505 -28.561305 -40.41584
64.885689 -29.07168 -39.564415
64.350601 -30.774691 -39.534836
64.298203 -33.0043 -38.626697
56.090221 -78.579777 -7.744476
56.133896 -78.329159 -6.657812
56.953346 -77.252285 -8.690985
56.090221 -78.579777 -7.744476
56.016323 -78.740044 -8.818157
56.763588 -77.58799 -10.839499
55.927578 -78.993439 -9.911664
57.787807 -76.006119 -10.722988
56.763588 -77.58799 -10.839499
57.671948 -76.181557 -11.797821
58.208405 -74.951641 -14.838095
57.368038 -76.476688 -13.921146
59.278159 -73.30011 -14.758202
58.208405 -74.951641 -14.838095
60.340575 -71.710133 -14.669176
59.462845 -73.235348 -13.711624
59.278159 -73.30011 -14.758202
61.407959 -70.103767 -14.599699
60.340575 -71.710133 -14.669176
61.223273 -70.16853 -15.646276
63.664257 -65.356884 -18.538454
62.885489 -66.988602 -17.581856
64.664276 -63.699816 -18.468273
63.664257 -65.356884 -18.538454
64.398754 -63.697851 -19.487167
65.014233 -60.204457 -23.237561
65.57581 -58.414309 -24.09419
65.391644 -60.230439 -22.302589
65.014233 -60.204457 -23.237561
66.332619 -58.545954 -22.209343
65.730885 -60.294459 -21.324735
65.391644 -60.230439 -22.302589
69.222759 -49.741705 -24.250296
69.519207 -49.914661 -23.270924
68.890061 -51.576898 -23.511841
69.548275 -47.85183 -24.961853
69.222759 -49.741705 -24.250296
68.919128 -49.514066 -25.20277
69.77565 -45.969368 -25.636576
69.548275 -47.85183 -24.961853
69.77565 -45.969368 -25.636576
69.471882 -45.676935 -26.566851
69.424145 -41.447281 -28.726408
69.289783 -43.445558 -28.113003
69.017464 -41.094204 -29.622351
69.424145 -41.447281 -28.726408
68.5262 -40.793385 -30.476641
69.017464 -41.094204 -29.622351
68.389183 -42.860619 -29.860922
68.038212 -40.431507 -31.351286
68.666493 -38.665093 -31.112715
68.5262 -40.793385 -30.476641
65.4836 -47.93035 -31.039108
66.074074 -48.224299 -30.324534
65.779465 -45.805943 -31.7492
65.4836 -47.93035 -31.039108
65.999547 -43.671741 -32.417595
66.585553 -44.017517 -31.67888
65.779465 -45.805943 -31.7492
66.230072 -41.493683 -33.128147
65.999547 -43.671741 -32.417595
65.423985 -43.282108 -33.198467
63.625484 -41.927692 -35.283375
64.233944 -42.41691 -34.636528
63.891621 -39.702849 -36.117233
63.625484 -41.927692 -35.283375
64.059258 -37.472481 -36.916702
64.649105 -37.978414 -36.204109
63.891621 -39.702849 -36.117233
64.232681 -35.235791 -37.786781
64.059258 -37.472481 -36.916702
54.671629 5.441883 -51.933743
55.7967 5.13581 -50.898933
54.575243 4.077466 -52.446247
54.671629 5.441883 -51.933743
56.709444 2.10878 -50.876462
56.772943 3.46844 -50.395897
57.776398 1.750687 -49.804814
54.507076 2.672009 -52.876087
54.575243 4.077466 -52.446247
55.637823 2.421076 -51.897385
54.450756 1.23814 -53.229016
54.507076 2.672009 -52.876087
54.450756 1.23814 -53.229016
55.525959 -0.447665 -52.606335
63.102402 -6.512022 -44.69104
63.823162 -8.431325 -43.897026
62.267254 -6.006256 -45.848736
62.309971 -4.59905 -45.486637
63.102402 -6.512022 -44.69104
65.288898 -17.558986 -41.829262
65.939121 -18.034703 -40.754707
65.700196 -19.648344 -40.962463
64.815555 -15.470367 -42.729996
65.288898 -17.558986 -41.829262
64.57663 -17.084008 -42.937752
64.263527 -13.434532 -43.599659
64.815555 -15.470367 -42.729996
63.640011 -11.404799 -44.487881
64.263527 -13.434532 -43.599659
63.479771 -12.965656 -44.726708
62.95797 -9.427575 -45.334034
63.741726 -9.896452 -44.206986
63.640011 -11.404799 -44.487881
56.490166 -3.699772 -52.15226
56.540636 -2.204851 -51.939838
57.54854 -3.993673 -51.206654
56.490166 -3.699772 -52.15226
56.461384 -5.1897 -52.255879
3 0 19 18
3 0 21 19
3 76 22 77
3 78 24 79
3 80 79 22
3 78 79 80
3 2 27 25
3 2 29 27
3 3 81 82
3 3 83 85
3 83 30 84
3 83 84 85
3 4 86 88
3 86 33 87
3 86 87 88
3 4 35 33
3 1 89 90
3 91 37 92
3 94 93 37
3 95 39 96
3 5 40 20
3 5 41 40
3 6 44 42
3 8 97 98
3 8 99 100
3 8 101 103
3 101 45 102
3 101 102 103
3 9 46 23
3 9 47 46
3 10 48 26
3 10 49 48
3 10 50 49
3 11 51 28
3 11 104 106
3 106 105 51
3 104 105 106
3 107 52 108
3 12 109 111
3 109 53 110
3 109 110 111
3 12 54 53
3 112 55 113
3 114 56 115
3 116 115 55
3 114 115 116
3 117 57 118
3 119 58 120
3 121 120 57
3 119 120 121
3 13 122 124
3 122 59 123
3 122 123 124
3 13 60 59
3 13 61 60
3 14 62 31
3 14 125 127
3 127 126 62
3 125 126 127
3 14 128 130
3 128 63 129
3 128 129 130
3 15 64 32
3 15 65 64
3 131 66 132
3 133 67 134
3 135 134 66
3 133 134 135
3 136 68 137
3 16 69 34
3 16 138 140
3 140 139 69
3 138 139 140
3 141 70 142
3 7 71 43
3 17 72 36
3 17 73 72
3 17 74 73
3 143 75 144
3 145 144 38
3 143 144 145
3 147 146 75
3 18 148 149
3 19 150 152
3 152 151 18
3 150 151 152
3 19 153 154
3 19 155 157
3 155 20 156
3 155 156 157
3 21 20 19
3 21 5 20
3 159 158 6
3 22 160 161
3 22 162 164
3 162 8 163
3 162 163 164
3 22 23 8
3 24 23 22
3 24 9 23
3 25 165 167
3 165 26 166
3 165 166 167
3 27 26 25
3 27 10 26
3 27 28 10
3 29 28 27
3 29 11 28
3 30 168 169
3 30 170 171
3 172 12 173
3 174 13 175
3 176 31 177
3 178 177 13
3 176 177 178
3 179 31 180
3 181 14 182
3 183 182 31
3 181 182 183
3 184 32 185
3 186 185 14
3 184 185 186
3 187 32 188
3 189 15 190
3 191 190 32
3 189 190 191
3 33 192 193
3 33 194 195
3 33 196 198
3 196 34 197
3 196 197 198
3 35 34 33
3 35 16 34
3 199 36 200
3 201 200 7
3 199 200 201
3 37 202 204
3 202 36 203
3 202 203 204
3 37 17 36
3 37 38 17
3 205 38 206
3 207 206 37
3 205 206 207
3 209 208 38
3 210 25 211
3 39 212 214
3 212 25 213
3 212 213 214
3 39 2 25
3 20 215 216
3 40 217 219
3 219 218 20
3 217 218 219
3 40 220 221
3 40 222 223
3 41 224 226
3 226 225 40
3 224 225 226
3 41 227 229
3 227 3 228
3 227 228 229
3 230 4 231
3 42 43 1
3 44 43 42
3 44 7 43
3 232 44 233
3 234 233 6
3 232 233 234
3 235 44 236
3 237 7 238
3 239 238 44
3 237 238 239
3 241 240 7
3 45 242 243
3 45 244 245
3 23 45 8
3 46 45 23
3 46 246 248
3 248 247 45
3 246 247 248
3 46 249 251
3 249 18 250
3 249 250 251
3 47 18 46
3 47 0 18
3 252 1 253
3 26 254 255
3 48 256 258
3 258 257 26
3 256 257 258
3 48 259 260
3 48 261 262
3 49 263 265
3 265 264 48
3 263 264 265
3 49 266 268
3 266 1 267
3 266 267 268
3 49 42 1
3 50 42 49
3 50 6 42
3 28 50 10
3 51 50 28
3 51 6 50
3 51 269 271
3 271 270 6
3 269 270 271
3 273 272 51
3 274 24 275
3 52 276 278
3 276 24 277
3 276 277 278
3 52 9 24
3 279 52 280
3 53 281 283
3 281 52 282
3 281 282 283
3 53 9 52
3 53 47 9
3 54 47 53
3 54 0 47
3 284 12 285
3 286 12 287
3 288 54 289
3 290 289 12
3 288 289 290
3 55 291 293
3 291 54 292
3 291 292 293
3 55 0 54
3 55 21 0
3 56 21 55
3 56 5 21
3 294 56 295
3 57 296 298
3 296 56 297
3 296 297 298
3 57 5 56
3 57 41 5
3 58 41 57
3 58 3 41
3 59 299 300
3 59 301 302
3 59 303 305
3 303 58 304
3 303 304 305
3 60 58 59
3 60 3 58
3 60 30 3
3 61 30 60
3 61 306 308
3 308 307 30
3 306 307 308
3 31 61 13
3 62 61 31
3 62 309 311
3 311 310 61
3 309 310 311
3 62 312 313
3 315 314 62
3 63 316 317
3 63 318 319
3 32 63 14
3 64 63 32
3 64 320 322
3 322 321 63
3 320 321 322
3 64 323 325
3 323 39 324
3 323 324 325
3 65 39 64
3 65 2 39
3 326 15 327
3 328 15 329
3 330 65 331
3 332 331 15
3 330 331 332
3 66 333 335
3 333 65 334
3 333 334 335
3 66 2 65
3 66 29 2
3 67 29 66
3 67 11 29
3 336 67 337
3 338 67 339
3 340 11 341
3 342 341 67
3 340 341 342
3 344 343 11
3 68 345 346
3 68 347 348
3 34 349 351
3 349 68 350
3 349 350 351
3 69 68 34
3 69 352 354
3 354 353 68
3 352 353 354
3 69 355 356
3 358 357 69
3 70 359 360
3 70 361 363
3 361 4 362
3 361 362 363
3 43 364 366
3 366 365 1
3 364 365 366
3 71 367 369
3 369 368 43
3 367 368 369
3 71 370 371
3 36 71 7
3 72 71 36
3 72 372 374
3 374 373 71
3 372 373 374
3 72 375 377
3 375 70 376
3 375 376 377
3 73 70 72
3 73 4 70
3 73 35 4
3 74 35 73
3 74 16 35
3 38 74 17
3 75 74 38
3 75 16 74
3 75 378 380
3 380 379 16
3 378 379 380
3 382 381 75
