ply
format ascii 1.0
element vertex 878
property float x
property float y
property float z
element face 891
property list uchar int vertex_index
end_header
40.055321 61.472893 24.367535
31.830742 32.267654 57.599022
45.925564 42.342335 30.133554
34.284664 75.107491 4.032663
44.648949 52.900566 28.089344
37.077663 68.749542 15.412534
33.521976 42.330093 50.433167
39.96909 39.689045 46.100708
38.768085 31.851524 55.085793
37.016335 20.778332 61.015808
40.755836 71.730392 -4.651949
16.027031 76.885803 27.557369
42.800831 45.874969 37.1213
42.665787 19.714642 55.656502
41.702991 61.308571 21.643847
44.220554 56.571342 23.120121
42.382607 57.76255 26.239641
38.646358 64.899513 20.517519
40.493336 64.984352 16.528133
36.926064 63.156677 24.361565
34.764042 67.501564 19.740753
32.754425 37.741081 54.353607
36.406982 37.379368 53.223007
35.681694 32.4333 57.042152
31.167946 14.071674 62.299515
47.012798 45.967979 25.613358
36.016434 75.967834 -6.1068
37.493473 73.980278 -0.463465
20.126801 73.665222 26.115866
17.596077 79.541237 20.922394
31.327078 50.547386 42.663307
41.025543 50.725601 35.162445
40.957127 34.181957 47.082581
41.788704 37.522495 42.5112
39.393333 14.976948 60.995399
40.31358 20.617443 59.062683
42.703201 14.813931 58.527649
46.113552 51.32003 24.539944
45.950821 47.698013 29.447199
35.686287 72.221146 9.826101
38.517868 71.498489 5.273478
39.413681 68.479042 10.984397
34.399349 46.017654 46.076149
38.150303 44.595505 44.236885
37.123756 41.360439 48.836754
39.231331 36.173855 50.730858
40.732979 30.352982 51.681137
45.517693 9.593935 57.612015
30.532089 26.198605 59.955452
34.604614 26.655514 59.894485
33.037827 20.406841 61.547142
35.433556 14.630371 62.115471
39.425827 73.270241 -9.917042
41.460205 69.547951 0.870136
11.655838 79.130829 29.269833
13.21949 82.298882 22.242203
14.898492 84.368851 15.198197
14.577927 73.280907 33.997429
18.728374 70.513428 32.173912
42.100971 54.202499 30.701767
44.129601 49.270706 32.71431
44.870388 44.116913 33.905457
43.253582 40.737595 38.157658
44.263081 38.709877 34.284805
38.135414 26.645126 58.667984
40.682606 25.82151 55.858452
40.852142 61.492821 23.218401
42.158302 59.519547 23.985432
41.133919 59.871887 25.243652
39.431385 63.026962 22.705627
40.263897 63.26564 21.018003
38.732983 62.271492 24.401443
37.754795 64.240166 22.412151
32.3288 35.101204 56.07618
34.273289 35.147263 55.805901
33.821449 32.418476 57.460297
46.563881 44.16798 27.93615
33.480927 76.353691 1.104715
35.144638 75.821228 -1.146095
35.880104 74.678276 1.751211
33.44347 49.849304 42.152721
31.895838 52.135307 40.361191
40.687252 12.235186 60.729874
41.142475 14.971249 59.93045
42.462978 12.246794 59.563087
44.539112 54.739525 25.651318
45.269714 53.973038 23.857384
45.474571 52.15197 26.406628
46.147156 49.51564 27.056517
45.457153 50.321564 28.844654
36.364742 70.554695 12.657304
37.658752 70.482674 10.401423
38.245476 68.80204 13.216505
35.909973 68.310822 17.577768
33.801628 69.618546 17.157104
35.073292 70.262993 14.90416
34.284019 72.087715 12.127665
31.546913 42.573914 50.827576
31.950953 44.673164 48.789467
32.391605 46.558701 46.652176
33.932755 44.273724 48.295395
35.825089 43.735325 47.554192
35.395676 41.934608 49.782715
37.658669 34.692589 54.28566
37.945461 36.887592 52.146446
38.992409 34.12635 52.971382
40.038765 33.334549 51.322838
39.90052 31.211594 53.540878
29.726255 23.05685 60.789062
31.818924 23.319065 60.876976
30.937237 20.143356 61.499069
33.312431 14.355206 62.272522
34.569374 11.57016 62.40609
36.704651 11.864759 62.117981
38.515862 73.969048 -5.37463
37.742599 74.784042 -8.076014
40.186836 72.595657 -7.333649
41.80806 70.911186 -9.163982
42.375633 70.173134 -6.588022
40.288101 69.30368 5.886543
39.966209 70.666252 3.042406
41.67717 68.25676 3.674017
13.861509 78.17115 28.380627
12.421621 80.843376 25.767639
14.633566 79.749878 24.980129
18.451321 80.48056 17.592299
16.273411 82.114883 18.115108
17.152912 82.875076 14.706627
12.414909 74.307068 35.049664
20.699081 68.919571 31.404003
40.798035 56.558929 29.418407
40.345463 54.810249 31.609436
42.064461 48.327629 36.259468
42.735126 50.008789 34.042961
43.537132 47.53331 34.932106
44.683399 46.720718 33.415848
43.99268 44.999802 35.594986
39.170837 42.209087 45.282204
40.532887 41.253193 43.796997
42.30899 36.360718 40.505173
42.46183 39.122993 40.307587
43.029701 38.022797 38.365562
43.857822 39.714241 36.271839
43.398079 36.9384 36.327301
35.841434 23.734074 60.615433
36.469479 26.736687 59.473312
37.64431 23.772091 60.01326
41.609318 20.260132 57.518997
40.561104 23.292591 57.61264
41.62273 22.743225 55.859398
41.531826 25.085781 53.938805
45.526382 11.861609 56.343613
43.019272 59.047432 22.365921
43.408558 57.225021 24.826912
43.593399 55.401848 27.208395
37.842567 66.842842 18.05257
38.883751 67.004135 15.955522
39.571781 65.135139 18.575466
41.110725 63.143288 19.157965
35.805019 65.329666 22.160667
36.807125 66.279831 20.103254
31.155365 40.246456 52.747688
33.140316 40.155323 52.46228
35.01931 39.915573 51.926071
34.65913 37.653378 53.947205
36.069267 35.026245 55.228752
37.348965 32.255886 56.260132
29.997993 16.967148 61.95034
47.273506 47.722595 23.152279
33.263443 77.772858 -6.843147
34.280815 76.855499 -4.020182
36.828007 75.03653 -3.307901
39.121368 73.000427 -2.602858
18.115324 75.353539 26.802029
16.792694 78.339333 24.25499
18.87521 76.703239 23.594105
19.690788 77.819977 20.364071
39.752956 53.0867 33.836708
39.064556 51.433655 36.09045
40.550594 37.01421 46.69677
41.015007 38.646816 44.38953
41.282738 35.891857 44.774445
38.181889 17.840572 61.120491
38.774578 20.784012 60.235352
39.921906 17.831512 60.182976
41.453659 17.65897 58.876495
42.767342 17.312225 57.232986
46.701454 50.406883 22.563757
46.703236 48.648895 25.135014
46.512276 46.854248 27.573023
46.100365 45.040459 29.879242
35.006794 73.736298 6.945076
36.518108 73.417274 4.651553
37.09663 72.022316 7.539865
38.958893 70.057175 8.138597
40.607986 67.810783 8.733498
39.920174 66.778 13.790841
33.510841 73.76049 9.27863
32.886242 48.266335 44.4338
34.937813 47.613228 43.800728
36.333321 45.364517 45.273598
37.586334 43.044563 46.545418
38.6618 40.605385 47.598495
36.74292 39.48526 51.0765
38.263878 38.848354 49.900452
39.542171 38.014503 48.424126
40.236893 35.258743 49.022377
40.790264 32.347305 49.401634
41.283306 29.313786 49.578438
43.861469 9.680798 59.150558
31.235613 29.2841 58.896164
33.271137 29.505123 58.87133
32.603699 26.455185 60.01152
33.878502 23.564423 60.8685
35.084728 20.636425 61.42765
32.117325 17.229465 61.989311
34.226311 17.494793 61.949562
36.266846 17.714577 61.692757
37.477238 14.851864 61.714027
38.75795 12.09877 61.576454
35.031242 76.749565 -8.826321
36.77108 75.405586 -10.666632
38.044209 72.803375 2.402258
39.592216 71.897942 0.209101
41.167694 70.708458 -1.909262
43.147884 66.955276 1.536165
43.006256 68.170631 -1.213892
42.762627 69.24942 -3.927542
15.435945 81.069626 21.550179
14.045637 83.479141 18.710741
13.471842 86.254303 12.204294
13.119814 76.351044 31.738008
15.28929 75.194595 30.807537
16.690277 71.992867 33.037537
17.391121 73.780029 29.95575
19.412102 72.186325 29.182297
39.825981 60.337204 25.982677
41.07505 58.265701 27.285423
42.356575 55.991905 28.470741
43.539146 53.576126 29.53075
41.643219 52.433113 32.931885
43.244198 51.767548 31.805447
44.512398 51.069077 30.439949
45.188904 48.502396 31.175476
45.514374 45.890038 31.721657
45.480705 43.2314 32.072979
41.635311 40.21167 42.127468
42.382462 41.764137 39.918259
43.195812 43.350437 37.750092
44.087029 42.397743 36.036423
44.706036 41.450798 34.18911
45.135303 40.515526 32.235664
35.202763 29.628716 58.611748
36.96545 29.592651 58.008316
38.499153 29.350628 57.007095
39.230667 23.633774 59.01152
39.550079 26.344578 57.454491
39.75787 28.878872 55.608864
40.719944 28.178947 53.857407
41.394997 27.275967 51.821358
44.073242 12.120636 58.089844
44.076965 14.502029 56.822418
31.063299 33.610264 56.874962
30.801697 32.158924 57.595344
32.079771 33.684429 56.837601
31.312328 35.027039 56.113541
31.063299 33.610264 56.874962
46.134966 41.8921 29.134839
46.454125 42.804922 28.036137
46.244723 43.255157 29.034852
45.712963 40.965263 30.174497
46.134966 41.8921 29.134839
33.067768 75.884529 3.737991
33.499014 75.193687 5.205447
33.882796 75.730591 2.568689
32.6659 76.50763 2.274017
33.067768 75.884529 3.737991
33.752774 50.609867 40.990591
34.497061 49.486897 41.822446
42.261767 10.94603 59.986057
41.575115 12.24099 60.146481
41.373903 10.940226 60.569451
29.284647 21.477106 61.115421
28.693214 22.943907 60.782169
29.890138 20.020359 61.470425
30.331746 21.600103 61.144065
29.284647 21.477106 61.115421
34.150742 10.070929 62.562462
33.48494 11.41347 62.468502
35.243792 10.245681 62.440827
34.150742 10.070929 62.562462
41.773342 67.548451 5.08556
40.982636 68.78022 4.78028
41.078807 68.071911 6.191822
18.262869 82.013828 14.50439
17.802117 81.677818 16.149463
18.912073 80.81657 15.947226
17.617819 83.1124 13.032829
18.262869 82.013828 14.50439
39.338302 55.120106 31.952005
39.641789 55.977429 30.847726
42.830608 36.611515 38.384784
42.669346 37.191757 39.435367
42.470253 35.780475 39.45459
43.014798 36.069316 37.365654
43.21389 37.480598 37.346431
42.830608 36.611515 38.384784
43.123614 35.503675 36.282387
43.014798 36.069316 37.365654
42.549938 20.859007 54.73766
42.02841 22.373298 54.839107
42.144258 21.228934 55.75795
42.361131 60.178002 22.004884
42.758572 59.961273 21.08466
42.100431 61.091842 20.723623
42.100431 61.091842 20.723623
41.804298 62.009201 19.480682
41.406858 62.225929 20.400906
36.365541 64.243172 23.261116
35.33033 64.691422 23.221096
35.890852 63.604927 24.321545
31.954895 38.993769 53.550647
30.951712 38.972072 53.638538
31.751241 37.719385 54.441497
47.307836 45.5014 24.624564
47.43819 46.378708 23.394024
47.143152 46.845287 24.382818
33.422147 77.174652 -2.920489
32.89412 77.694801 -4.370337
20.718485 76.9207 20.126126
20.293202 76.382751 21.684136
20.137207 78.258507 18.757922
20.718485 76.9207 20.126126
30.543746 51.736336 41.732265
29.493805 52.079814 41.932961
30.277137 50.890865 42.864002
31.116756 53.332447 39.410152
32.205865 52.907207 39.183803
38.001202 51.791412 36.472101
38.358469 52.593178 35.323545
44.563816 56.172207 22.161874
43.991978 57.480999 21.807209
46.006971 52.208054 23.221663
45.585053 53.534558 22.880384
45.691633 52.646534 24.198664
46.407503 50.863456 23.551851
46.300922 51.75148 22.23357
46.006971 52.208054 23.221663
33.672337 68.079361 19.592218
34.216772 66.935581 20.84145
32.689105 70.242344 16.987676
33.353038 70.623379 15.80472
29.846093 27.616351 59.396705
29.492267 26.073519 59.923233
30.883851 27.741352 59.425808
30.197855 29.159098 58.867061
29.846093 27.616351 59.396705
38.4097 10.669642 61.813187
37.731301 11.981765 61.847217
37.383051 10.552636 62.08395
39.439056 10.795407 61.474746
38.4097 10.669642 61.813187
38.932932 73.486709 -11.136579
37.605559 74.554382 -11.511374
38.098453 74.337913 -10.291837
40.225001 72.344326 -10.764147
38.932932 73.486709 -11.136579
42.568714 69.922882 -9.999275
42.872936 69.629863 -8.771471
43.934145 65.569996 1.887021
43.191958 66.285358 2.926596
43.978218 64.900078 3.277452
43.795254 67.368538 -2.194384
43.850758 66.805107 -0.851109
43.673439 67.907932 -3.551209
42.884442 68.710026 -2.570717
43.795254 67.368538 -2.194384
43.553448 68.397526 -4.870195
43.673439 67.907932 -3.551209
10.936644 80.337017 27.940608
10.567292 79.414245 29.741307
12.1075 82.718972 22.618061
11.708565 81.991219 24.380779
12.820556 81.571129 24.004921
12.511193 83.383106 20.807842
12.1075 82.718972 22.618061
13.764596 84.939598 15.48356
13.338169 84.494743 17.239832
14.472064 83.923996 16.954469
14.185167 85.311577 13.701246
13.051272 85.882324 13.986608
13.764596 84.939598 15.48356
17.709325 71.253148 32.605725
17.377016 70.321945 34.058217
18.396065 69.582226 33.626404
21.035604 69.710533 29.946089
21.66707 68.106549 31.065258
39.634939 59.578892 26.971565
38.981535 60.669148 26.138071
40.259473 58.54314 27.622938
40.450515 59.301452 26.63405
39.634939 59.578892 26.971565
38.481581 45.338082 43.086483
37.540148 45.740071 43.602961
44.421934 38.219357 33.256714
44.858046 39.122181 32.232143
44.699192 39.612702 33.260234
41.762453 25.72298 51.796043
41.463411 26.180874 52.880082
41.830868 24.627887 52.854767
41.978159 25.192473 50.67411
41.610703 26.745459 50.699425
41.762453 25.72298 51.796043
44.682961 14.277674 55.844116
44.801673 13.181819 56.583016
45.407669 12.957463 55.604714
43.978664 15.651784 56.064667
44.682961 14.277674 55.844116
31.538429 36.399446 55.302784
31.312328 35.027039 56.113541
32.541612 36.421143 55.214894
31.751241 37.719385 54.441497
31.538429 36.399446 55.302784
46.808979 43.716368 26.943789
47.033437 44.616367 25.782393
46.788339 45.067979 26.774754
46.808979 43.716368 26.943789
46.454125 42.804922 28.036137
34.312782 76.087459 -0.02069
33.854059 76.657516 -1.483445
33.022204 76.923748 -0.35804
20.511208 74.305374 24.560033
21.110459 72.792812 25.811658
32.184593 77.140789 0.797763
32.6659 76.50763 2.274017
33.022204 76.923748 -0.35804
32.184593 77.140789 0.797763
32.978957 51.752868 40.094826
32.669654 50.992306 41.256956
33.752774 50.609867 40.990591
32.205865 52.907207 39.183803
32.978957 51.752868 40.094826
41.186501 33.58839 46.028082
41.113373 32.696877 47.179871
40.954756 64.733165 15.454781
41.215412 63.840419 16.831764
33.988871 70.945603 14.678247
33.353038 70.623379 15.80472
34.43746 69.940769 16.030632
34.678656 71.175354 13.515912
33.594234 71.857964 13.29
33.988871 70.945603 14.678247
30.731693 43.771113 49.96304
30.529867 42.644505 50.939583
30.933713 44.820737 48.943985
30.731693 43.771113 49.96304
31.748933 43.623539 49.808521
31.14754 45.841129 47.916321
30.933713 44.820737 48.943985
32.171279 45.615932 47.720821
31.367866 46.783897 46.847675
31.14754 45.841129 47.916321
29.08935 24.502642 60.340038
28.693214 22.943907 60.782169
30.129172 24.627727 60.372257
29.492267 26.073519 59.923233
29.08935 24.502642 60.340038
32.856468 12.805993 62.401718
32.240189 14.21344 62.286018
31.784226 12.664227 62.415215
33.940902 12.962683 62.339306
32.856468 12.805993 62.401718
33.48494 11.41347 62.468502
36.31143 10.392981 62.296772
35.637012 11.71746 62.262035
35.243792 10.245681 62.440827
37.383051 10.552636 62.08395
36.31143 10.392981 62.296772
43.156723 69.260838 -7.483491
42.872936 69.629863 -8.771471
42.091847 70.54216 -7.876002
16.465888 83.917301 13.220377
15.338679 84.664188 13.466162
16.025702 83.621964 14.952412
16.465888 83.917301 13.220377
17.617819 83.1124 13.032829
12.087078 73.181236 36.685148
11.333867 74.656475 35.612662
11.006036 73.530643 37.248146
13.157893 72.733696 36.090888
12.087078 73.181236 36.685148
14.239402 72.220616 35.56477
13.496418 73.793988 34.523546
13.157893 72.733696 36.090888
19.390205 68.842869 33.201752
18.396065 69.582226 33.626404
20.375559 68.045941 32.816797
19.713727 69.716499 31.788958
19.390205 68.842869 33.201752
21.348355 67.279263 32.447876
20.375559 68.045941 32.816797
21.024833 66.405632 33.86067
21.66707 68.106549 31.065258
21.348355 67.279263 32.447876
39.868074 56.851768 29.752212
40.120966 57.689754 28.68943
40.571749 55.684589 30.513921
39.868074 56.851768 29.752212
39.641789 55.977429 30.847726
39.484743 42.965834 44.131909
38.974476 44.159042 43.609249
38.66057 43.402296 44.759545
40.165768 42.487887 43.389305
39.484743 42.965834 44.131909
39.851862 41.73114 44.5396
40.878577 42.011109 42.665249
40.165768 42.487887 43.389305
43.532593 36.411781 35.274383
43.965094 37.297519 34.253135
43.83058 37.824139 35.306053
43.532593 36.411781 35.274383
43.123614 35.503675 36.282387
41.982958 23.544576 53.878811
41.577278 23.914503 54.899102
42.02841 22.373298 54.839107
41.830868 24.627887 52.854767
41.982958 23.544576 53.878811
46.283382 10.629454 56.083076
45.522037 10.727772 56.977814
46.279038 9.495617 56.717277
46.187973 11.678031 55.356384
46.283382 10.629454 56.083076
46.944973 10.445875 55.095848
45.407669 12.957463 55.604714
46.187973 11.678031 55.356384
43.391337 58.719044 21.430109
42.758572 59.961273 21.08466
43.619913 57.809387 22.743021
43.991978 57.480999 21.807209
43.391337 58.719044 21.430109
41.524107 62.919888 18.14668
41.215412 63.840419 16.831764
40.802031 64.06382 17.843049
41.524107 62.919888 18.14668
41.804298 62.009201 19.480682
34.737261 65.849632 22.051406
35.33033 64.691422 23.221096
35.284531 66.415615 20.95071
34.216772 66.935581 20.84145
34.737261 65.849632 22.051406
30.134247 40.248499 52.819676
30.951712 38.972072 53.638538
30.334093 41.480776 51.899639
30.134247 40.248499 52.819676
31.351139 41.410185 51.787632
30.529867 42.644505 50.939583
30.334093 41.480776 51.899639
28.960821 16.858497 61.971447
29.420516 18.432255 61.69606
29.525744 15.39431 62.145263
28.960821 16.858497 61.971447
30.11072 13.946573 62.319851
30.58297 15.519411 62.124927
29.525744 15.39431 62.145263
30.70792 12.518681 62.457359
30.11072 13.946573 62.319851
29.650695 12.39358 62.477695
31.784226 12.664227 62.415215
30.70792 12.518681 62.457359
47.635757 47.230331 22.166773
47.328131 48.57177 21.855367
47.635757 47.230331 22.166773
47.43819 46.378708 23.394024
47.307836 45.5014 24.624564
47.033437 44.616367 25.782393
32.385434 78.153481 -5.781819
31.77863 78.615338 -7.203984
33.772129 77.314178 -5.431665
32.385434 78.153481 -5.781819
32.89412 77.694801 -4.370337
34.712727 76.338363 -2.583139
33.422147 77.174652 -2.920489
33.854059 76.657516 -1.483445
19.885413 75.824382 23.299152
19.501005 75.18423 24.854985
20.511208 74.305374 24.560033
19.282999 77.261608 21.979088
19.885413 75.824382 23.299152
20.293202 76.382751 21.684136
19.517474 79.588798 17.372036
19.071055 79.150268 18.978185
20.137207 78.258507 18.757922
18.912073 80.81657 15.947226
19.517474 79.588798 17.372036
30.828126 52.530296 40.581207
30.543746 51.736336 41.732265
31.611458 51.341347 41.512249
30.828126 52.530296 40.581207
31.116756 53.332447 39.410152
38.702669 53.419701 34.196675
39.042049 54.258331 33.065641
39.408756 52.260177 34.963579
38.702669 53.419701 34.196675
38.358469 52.593178 35.323545
38.698061 50.649536 37.22859
38.001202 51.791412 36.472101
39.684899 50.268867 36.74563
38.698061 50.649536 37.22859
40.665392 49.91484 36.281627
40.04505 51.079628 35.626447
39.684899 50.268867 36.74563
41.184851 48.715855 36.830139
41.545002 49.526615 35.710956
40.665392 49.91484 36.281627
41.683503 47.530606 37.367735
41.184851 48.715855 36.830139
42.051687 46.304276 37.798651
42.432646 47.101299 36.690384
41.683503 47.530606 37.367735
41.349306 34.44334 44.874014
41.119933 35.036907 45.928513
41.186501 33.58839 46.028082
41.521639 35.294787 43.741551
41.349306 34.44334 44.874014
41.774622 36.110106 42.609928
41.535721 36.707176 43.642823
41.521639 35.294787 43.741551
42.034765 35.529217 41.606915
42.048847 36.941606 41.508187
41.774622 36.110106 42.609928
42.174236 34.920443 40.523556
42.034765 35.529217 41.606915
42.470253 35.780475 39.45459
42.174236 34.920443 40.523556
45.088396 54.873055 22.530506
44.563816 56.172207 22.161874
44.745134 55.27219 23.488753
45.088396 54.873055 22.530506
45.585053 53.534558 22.880384
46.634874 51.263275 21.219065
46.300922 51.75148 22.23357
47.042105 49.913913 21.561106
46.634874 51.263275 21.219065
46.98748 49.064739 22.858018
47.328131 48.57177 21.855367
47.042105 49.913913 21.561106
41.23875 67.325462 7.6153
41.078807 68.071911 6.191822
40.448043 68.557232 7.310021
40.668175 65.629989 14.086135
40.206755 65.881176 15.159487
40.954756 64.733165 15.454781
40.446797 66.487389 12.681227
40.668175 65.629989 14.086135
40.19355 67.337909 11.278004
39.666927 67.628521 12.387619
40.446797 66.487389 12.681227
40.790702 67.00378 10.152555
40.010833 68.144913 9.858947
40.19355 67.337909 11.278004
41.349414 66.55888 9.033882
40.790702 67.00378 10.152555
41.23875 67.325462 7.6153
41.349414 66.55888 9.033882
33.19113 69.137852 18.300393
33.672337 68.079361 19.592218
34.282835 68.560055 18.448929
33.19113 69.137852 18.300393
32.689105 70.242344 16.987676
33.163853 72.791222 11.892088
33.594234 71.857964 13.29
32.777264 73.627609 10.467571
33.163853 72.791222 11.892088
33.89743 72.924103 10.703148
32.34536 74.482326 9.034782
32.777264 73.627609 10.467571
33.112102 74.520187 7.82843
32.34536 74.482326 9.034782
33.860079 74.508091 6.661653
33.112102 74.520187 7.82843
34.258817 73.748394 8.111853
34.645729 74.421895 5.488869
33.499014 75.193687 5.205447
33.860079 74.508091 6.661653
31.069091 49.701782 43.779083
30.277137 50.890865 42.864002
31.601354 47.707439 45.773517
31.367866 46.783897 46.847675
31.848673 48.561256 44.664329
31.601354 47.707439 45.773517
32.638924 47.412518 45.542988
32.10666 49.406861 43.548553
31.069091 49.701782 43.779083
31.848673 48.561256 44.664329
35.244232 48.368859 42.64645
34.497061 49.486897 41.822446
34.190641 48.731266 42.976725
35.933903 47.248932 43.384882
35.244232 48.368859 42.64645
36.631657 46.124577 44.121317
35.933903 47.248932 43.384882
35.635567 46.488872 44.537163
37.241812 44.980011 44.755241
37.540148 45.740071 43.602961
36.631657 46.124577 44.121317
41.029941 31.77955 48.339398
41.113373 32.696877 47.179871
40.873695 33.264631 48.242108
41.276463 30.262791 48.427799
41.029941 31.77955 48.339398
41.036785 30.830545 49.490036
41.44301 28.730549 48.442006
41.276463 30.262791 48.427799
43.660049 8.447396 59.617542
42.961012 9.663032 59.779792
44.56101 8.476365 58.93671
43.660049 8.447396 59.617542
45.389122 8.432934 58.167439
44.689581 9.637366 58.381287
44.56101 8.476365 58.93671
46.225728 8.409155 57.356651
45.389122 8.432934 58.167439
46.097156 7.248154 57.912075
46.279038 9.495617 56.717277
46.225728 8.409155 57.356651
30.504133 30.667147 58.243915
30.197855 29.159098 58.867061
31.533178 30.775877 58.247593
30.801697 32.158924 57.595344
30.504133 30.667147 58.243915
30.467615 18.555252 61.724705
29.890138 20.020359 61.470425
29.420516 18.432255 61.69606
40.403707 10.863615 61.051457
39.722601 12.166978 61.153164
39.439056 10.795407 61.474746
41.373903 10.940226 60.569451
40.403707 10.863615 61.051457
32.667439 78.156537 -8.211676
31.77863 78.615338 -7.203984
33.551338 77.64489 -9.203264
32.667439 78.156537 -8.211676
34.147343 77.261212 -7.834734
34.439737 77.041702 -10.126358
33.551338 77.64489 -9.203264
35.309656 76.369712 -11.046513
34.439737 77.041702 -10.126358
35.901161 76.077575 -9.746476
36.172979 75.590644 -11.884555
35.309656 76.369712 -11.046513
36.172979 75.590644 -11.884555
37.605559 74.554382 -11.511374
41.416117 71.164799 -10.387617
40.225001 72.344326 -10.764147
40.616943 72.090713 -9.540512
42.176772 70.176495 -11.22291
41.416117 71.164799 -10.387617
42.568714 69.922882 -9.999275
42.4566 66.9361 3.995522
41.773342 67.548451 5.08556
42.412527 67.606018 2.605091
42.4566 66.9361 3.995522
43.191958 66.285358 2.926596
43.921571 66.197429 0.52392
43.934145 65.569996 1.887021
43.07707 67.562953 0.161137
43.921571 66.197429 0.52392
43.850758 66.805107 -0.851109
43.359951 68.859383 -6.200435
42.56913 69.711277 -5.257782
43.553448 68.397526 -4.870195
43.156723 69.260838 -7.483491
43.359951 68.859383 -6.200435
11.319536 81.193291 26.189511
10.936644 80.337017 27.940608
12.038729 79.987103 27.518736
11.319536 81.193291 26.189511
11.708565 81.991219 24.380779
12.924266 83.973236 19.042111
12.511193 83.383106 20.807842
13.632563 82.889012 20.476472
12.924266 83.973236 19.042111
13.338169 84.494743 17.239832
12.339889 86.683281 12.482257
13.051272 85.882324 13.986608
12.738218 86.990478 10.685902
12.339889 86.683281 12.482257
14.625353 85.606914 11.96921
14.185167 85.311577 13.701246
15.338679 84.664188 13.466162
13.897828 86.474033 10.455459
14.625353 85.606914 11.96921
12.738218 86.990478 10.685902
13.897828 86.474033 10.455459
11.292606 78.155224 31.00486
10.567292 79.414245 29.741307
11.672142 75.743344 33.894776
11.333867 74.656475 35.612662
12.024594 76.765332 32.238948
11.672142 75.743344 33.894776
12.767361 75.329056 33.393836
12.387826 77.740937 30.50392
11.292606 78.155224 31.00486
12.024594 76.765332 32.238948
15.295052 71.642132 35.021984
14.239402 72.220616 35.56477
16.351227 70.998112 34.542038
17.377016 70.321945 34.058217
15.634102 72.636887 33.517483
15.295052 71.642132 35.021984
16.351227 70.998112 34.542038
20.392115 71.34391 28.835235
20.055591 70.552948 30.29315
21.035604 69.710533 29.946089
20.749465 72.083359 27.30202
19.769452 72.925773 27.649082
20.392115 71.34391 28.835235
21.110459 72.792812 25.811658
20.749465 72.083359 27.30202
36.533265 62.450394 25.394897
35.890852 63.604927 24.321545
37.531576 62.078884 25.327515
36.533265 62.450394 25.394897
38.435036 61.636291 25.347454
37.829523 62.714084 24.381504
37.531576 62.078884 25.327515
39.279482 61.304348 25.19206
38.435036 61.636291 25.347454
38.981535 60.669148 26.138071
40.936543 57.412315 28.351915
40.259473 58.54314 27.622938
40.120966 57.689754 28.68943
40.04921 53.948475 32.723072
39.338302 55.120106 31.952005
39.042049 54.258331 33.065641
38.481581 45.338082 43.086483
38.974476 44.159042 43.609249
42.401694 45.08488 38.21714
42.051687 46.304276 37.798651
41.429789 41.490347 41.830484
40.878577 42.011109 42.665249
41.084099 40.732432 42.962232
41.803364 42.266581 40.72588
41.429789 41.490347 41.830484
42.008887 40.987904 41.022863
42.192509 43.029465 39.61562
41.803364 42.266581 40.72588
42.599184 43.822615 38.531537
42.192509 43.029465 39.61562
42.789137 42.557287 38.834176
42.998322 44.612703 37.435696
42.401694 45.08488 38.21714
42.599184 43.822615 38.531537
45.317833 40.051859 31.225552
45.712963 40.965263 30.174497
45.530434 41.42893 31.184609
45.317833 40.051859 31.225552
44.858046 39.122181 32.232143
44.421934 38.219357 33.256714
43.965094 37.297519 34.253135
41.554857 27.764368 49.577965
41.339151 28.294877 50.699898
41.610703 26.745459 50.699425
41.44301 28.730549 48.442006
41.554857 27.764368 49.577965
43.162223 10.963796 59.356822
42.261767 10.94603 59.986057
42.961012 9.663032 59.779792
43.323853 17.056883 56.26995
43.422154 15.907127 57.027702
43.978664 15.651784 56.064667
43.273075 18.258091 55.481708
42.716565 18.513434 56.444744
43.323853 17.056883 56.26995
43.091586 19.360421 54.600075
43.273075 18.258091 55.481708
42.549938 20.859007 54.73766
43.091586 19.360421 54.600075
3 0 68 66
3 0 66 69
3 0 69 71
3 1 262 263
3 1 264 266
3 264 73 265
3 264 265 266
3 1 75 73
3 2 267 269
3 269 268 76
3 267 268 269
3 2 270 271
3 3 79 77
3 3 272 273
3 3 274 276
3 274 77 275
3 274 275 276
3 278 277 80
3 279 84 280
3 281 280 82
3 279 280 281
3 4 87 85
3 4 89 87
3 5 92 90
3 5 95 93
3 5 90 95
3 6 98 97
3 6 100 98
3 6 102 100
3 8 105 103
3 8 107 105
3 282 108 283
3 284 110 285
3 286 285 108
3 284 285 286
3 287 112 288
3 290 289 112
3 10 116 114
3 10 118 116
3 291 121 292
3 293 292 119
3 291 292 293
3 11 124 122
3 294 127 295
3 296 295 125
3 294 295 296
3 298 297 127
3 299 131 300
3 12 134 132
3 12 136 134
3 7 138 137
3 301 141 302
3 303 302 139
3 301 302 303
3 304 143 305
3 306 305 141
3 304 305 306
3 308 307 143
3 9 146 144
3 13 149 147
3 13 309 311
3 311 310 149
3 309 310 311
3 14 312 314
3 312 152 313
3 312 313 314
3 16 153 67
3 16 154 153
3 17 157 155
3 14 158 70
3 14 315 317
3 317 316 158
3 315 316 317
3 19 318 320
3 318 159 319
3 318 319 320
3 17 160 72
3 17 155 160
3 21 321 323
3 321 161 322
3 321 322 323
3 21 162 161
3 21 164 162
3 23 165 74
3 23 166 165
3 25 324 326
3 326 325 168
3 324 325 326
3 327 170 328
3 27 171 78
3 27 172 171
3 28 175 173
3 329 176 330
3 332 331 176
3 30 333 335
3 333 334 335
3 337 336 81
3 338 178 339
3 32 181 179
3 34 184 182
3 36 185 83
3 36 186 185
3 15 340 341
3 37 342 344
3 344 343 86
3 342 343 344
3 37 345 347
3 345 187 346
3 345 346 347
3 37 188 187
3 38 189 88
3 38 190 189
3 39 193 191
3 41 194 91
3 41 195 194
3 18 196 156
3 20 348 349
3 351 350 94
3 39 197 96
3 39 191 197
3 42 198 99
3 42 199 198
3 42 200 199
3 44 201 101
3 44 202 201
3 22 203 163
3 45 204 104
3 45 205 204
3 45 206 205
3 46 207 106
3 46 208 207
3 48 352 353
3 48 354 356
3 354 210 355
3 354 355 356
3 48 212 210
3 50 213 109
3 50 214 213
3 24 215 167
3 51 216 111
3 51 217 216
3 51 218 217
3 357 219 358
3 359 358 113
3 357 358 359
3 361 360 219
3 26 220 169
3 52 221 115
3 52 362 364
3 364 363 221
3 362 363 364
3 52 365 366
3 368 367 117
3 40 222 192
3 53 223 120
3 53 224 223
3 369 225 370
3 369 370 371
3 372 226 373
3 374 227 375
3 376 375 226
3 374 375 376
3 378 377 227
3 54 379 380
3 55 381 383
3 383 382 123
3 381 382 383
3 55 384 385
3 29 228 174
3 56 229 126
3 56 386 388
3 388 387 229
3 386 387 388
3 56 389 391
3 389 230 390
3 389 390 391
3 57 231 128
3 57 232 231
3 58 392 394
3 392 233 393
3 392 393 394
3 58 234 233
3 58 235 234
3 396 395 129
3 397 236 398
3 399 237 400
3 401 400 236
3 399 400 401
3 59 238 130
3 59 239 238
3 31 240 177
3 60 241 133
3 60 242 241
3 60 243 242
3 61 244 135
3 61 245 244
3 43 402 403
3 33 246 180
3 62 247 140
3 62 248 247
3 62 249 248
3 63 250 142
3 63 251 250
3 63 404 406
3 406 405 251
3 404 405 406
3 49 252 211
3 64 253 145
3 64 254 253
3 35 255 183
3 65 256 148
3 65 257 256
3 65 258 257
3 407 259 408
3 409 408 150
3 407 408 409
3 412 411 259
3 410 411 412
3 47 260 209
3 413 261 414
3 415 414 151
3 413 414 415
3 417 416 261
3 66 67 14
3 68 67 66
3 68 16 67
3 69 70 17
3 66 70 69
3 66 14 70
3 71 72 19
3 69 72 71
3 69 17 72
3 73 418 419
3 73 420 422
3 420 21 421
3 420 421 422
3 73 74 21
3 75 74 73
3 75 23 74
3 76 423 425
3 425 424 25
3 423 424 425
3 427 426 76
3 77 428 430
3 428 78 429
3 428 429 430
3 79 78 77
3 79 27 78
3 432 431 28
3 77 433 434
3 77 435 436
3 80 81 30
3 437 81 438
3 439 438 80
3 437 438 439
3 441 440 81
3 443 442 32
3 82 83 34
3 84 83 82
3 84 36 83
3 85 86 15
3 87 86 85
3 87 37 86
3 87 88 37
3 89 88 87
3 89 38 88
3 90 91 39
3 92 91 90
3 92 41 91
3 445 444 18
3 93 94 20
3 95 94 93
3 95 446 448
3 448 447 94
3 446 447 448
3 95 449 451
3 449 96 450
3 449 450 451
3 90 96 95
3 90 39 96
3 97 452 453
3 98 454 456
3 456 455 97
3 454 455 456
3 98 457 458
3 98 459 461
3 459 99 460
3 459 460 461
3 100 99 98
3 100 42 99
3 100 101 42
3 102 101 100
3 102 44 101
3 103 104 22
3 105 104 103
3 105 45 104
3 105 106 45
3 107 106 105
3 107 46 106
3 108 462 463
3 108 464 466
3 464 48 465
3 464 465 466
3 108 109 48
3 110 109 108
3 110 50 109
3 467 111 468
3 469 468 24
3 467 468 469
3 112 470 472
3 470 111 471
3 470 471 472
3 112 51 111
3 112 113 51
3 473 113 474
3 475 474 112
3 473 474 475
3 477 476 113
3 114 115 26
3 116 115 114
3 116 52 115
3 116 117 52
3 118 117 116
3 118 478 480
3 480 479 117
3 478 479 480
3 119 120 40
3 121 120 119
3 121 53 120
3 122 123 54
3 124 123 122
3 124 55 123
3 125 126 29
3 127 126 125
3 127 56 126
3 127 481 483
3 483 482 56
3 481 482 483
3 485 484 127
3 486 128 487
3 486 487 488
3 489 128 490
3 491 57 492
3 493 492 128
3 491 492 493
3 494 58 495
3 496 129 497
3 498 497 58
3 496 497 498
3 499 129 500
3 499 500 501
3 503 502 129
3 504 130 505
3 131 506 508
3 506 130 507
3 506 507 508
3 131 59 130
3 132 133 31
3 134 133 132
3 134 60 133
3 134 135 60
3 136 135 134
3 136 61 135
3 137 509 511
3 511 510 43
3 509 510 511
3 138 512 514
3 514 513 137
3 512 513 514
3 138 515 516
3 139 140 33
3 141 140 139
3 141 62 140
3 141 142 62
3 143 142 141
3 143 63 142
3 143 517 519
3 519 518 63
3 517 518 519
3 521 520 143
3 144 145 49
3 146 145 144
3 146 64 145
3 147 148 35
3 149 148 147
3 149 65 148
3 149 150 65
3 522 150 523
3 524 523 149
3 522 523 524
3 526 525 150
3 527 151 528
3 529 528 47
3 527 528 529
3 530 151 531
3 530 531 532
3 534 533 151
3 152 535 536
3 152 537 539
3 537 15 538
3 537 538 539
3 67 152 14
3 153 152 67
3 153 15 152
3 153 85 15
3 154 85 153
3 154 4 85
3 155 156 5
3 157 156 155
3 157 18 156
3 70 157 17
3 158 157 70
3 158 18 157
3 158 540 542
3 542 541 18
3 540 541 542
3 544 543 158
3 159 545 546
3 159 547 549
3 547 20 548
3 547 548 549
3 72 159 19
3 160 159 72
3 160 20 159
3 160 93 20
3 155 93 160
3 155 5 93
3 161 550 551
3 161 552 553
3 161 554 556
3 554 97 555
3 554 555 556
3 162 97 161
3 162 6 97
3 162 163 6
3 164 163 162
3 164 22 163
3 74 164 21
3 165 164 74
3 165 22 164
3 165 103 22
3 166 103 165
3 166 8 103
3 557 167 558
3 559 167 560
3 561 24 562
3 563 562 167
3 561 562 563
3 564 24 565
3 564 565 566
3 568 567 24
3 168 569 570
3 572 571 168
3 574 573 25
3 575 169 576
3 170 577 579
3 577 169 578
3 577 578 579
3 170 26 169
3 78 580 582
3 580 170 581
3 580 581 582
3 171 170 78
3 171 26 170
3 171 114 26
3 172 114 171
3 172 10 114
3 173 174 11
3 175 174 173
3 175 29 174
3 583 175 584
3 585 584 28
3 583 584 585
3 176 586 588
3 586 175 587
3 586 587 588
3 176 29 175
3 176 125 29
3 589 125 590
3 591 590 176
3 589 590 591
3 593 592 125
3 81 594 596
3 596 595 30
3 594 595 596
3 598 597 81
3 599 177 600
3 178 601 603
3 601 177 602
3 601 602 603
3 178 31 177
3 604 178 605
3 606 178 607
3 608 31 609
3 610 609 178
3 608 609 610
3 611 132 612
3 613 612 31
3 611 612 613
3 614 132 615
3 616 12 617
3 618 617 132
3 616 617 618
3 179 180 7
3 181 180 179
3 181 33 180
3 619 181 620
3 621 620 32
3 619 620 621
3 622 181 623
3 624 33 625
3 626 625 181
3 624 625 626
3 627 139 628
3 629 628 33
3 627 628 629
3 630 139 631
3 633 632 139
3 182 183 9
3 184 183 182
3 184 35 183
3 83 184 34
3 185 184 83
3 185 35 184
3 185 147 35
3 186 147 185
3 186 13 147
3 86 634 636
3 636 635 15
3 634 635 636
3 638 637 86
3 187 639 640
3 187 641 642
3 187 643 645
3 643 168 644
3 643 644 645
3 188 168 187
3 188 25 168
3 88 188 37
3 189 188 88
3 189 25 188
3 189 76 25
3 190 76 189
3 190 2 76
3 191 192 3
3 193 192 191
3 193 40 192
3 91 193 39
3 194 193 91
3 194 40 193
3 194 119 40
3 195 119 194
3 195 646 648
3 648 647 119
3 646 647 648
3 156 92 5
3 196 92 156
3 196 41 92
3 649 196 650
3 651 650 18
3 649 650 651
3 652 196 653
3 654 41 655
3 656 655 196
3 654 655 656
3 657 195 658
3 659 658 41
3 657 658 659
3 660 195 661
3 663 662 195
3 94 664 666
3 666 665 20
3 664 665 666
3 668 667 94
3 96 669 670
3 197 671 673
3 673 672 96
3 671 672 673
3 197 674 675
3 197 676 677
3 191 678 680
3 680 679 197
3 678 679 680
3 191 681 683
3 681 3 682
3 681 682 683
3 684 30 685
3 99 686 687
3 198 688 690
3 690 689 99
3 688 689 690
3 198 691 693
3 691 30 692
3 691 692 693
3 198 80 30
3 199 80 198
3 199 694 696
3 696 695 80
3 694 695 696
3 199 697 698
3 200 699 701
3 701 700 199
3 699 700 701
3 200 702 704
3 702 43 703
3 702 703 704
3 101 200 42
3 201 200 101
3 201 43 200
3 201 137 43
3 202 137 201
3 202 7 137
3 163 102 6
3 203 102 163
3 203 44 102
3 104 203 22
3 204 203 104
3 204 44 203
3 204 202 44
3 205 202 204
3 205 7 202
3 205 179 7
3 206 179 205
3 206 32 179
3 106 206 45
3 207 206 106
3 207 32 206
3 207 705 707
3 707 706 32
3 705 706 707
3 208 708 710
3 710 709 207
3 708 709 710
3 208 711 712
3 713 209 714
3 715 209 716
3 717 47 718
3 719 718 209
3 717 718 719
3 720 47 721
3 720 721 722
3 724 723 47
3 210 725 726
3 210 727 729
3 727 1 728
3 727 728 729
3 210 211 1
3 212 211 210
3 212 49 211
3 109 212 48
3 213 212 109
3 213 49 212
3 213 144 49
3 214 144 213
3 214 9 144
3 167 730 732
3 730 110 731
3 730 731 732
3 215 110 167
3 215 50 110
3 111 215 24
3 216 215 111
3 216 50 215
3 216 214 50
3 217 214 216
3 217 9 214
3 217 182 9
3 218 182 217
3 218 34 182
3 113 218 51
3 219 218 113
3 219 34 218
3 219 82 34
3 733 82 734
3 735 734 219
3 733 734 735
3 737 736 82
3 169 738 739
3 220 740 742
3 742 741 169
3 740 741 742
3 220 743 744
3 115 220 26
3 221 220 115
3 221 745 747
3 747 746 220
3 745 746 747
3 221 748 749
3 751 750 221
3 117 752 754
3 754 753 52
3 752 753 754
3 757 756 117
3 755 756 757
3 192 79 3
3 222 79 192
3 222 27 79
3 120 222 40
3 223 222 120
3 223 27 222
3 223 172 27
3 224 172 223
3 224 10 172
3 758 121 759
3 225 760 762
3 760 121 761
3 760 761 762
3 225 53 121
3 763 225 764
3 226 765 767
3 765 225 766
3 765 766 767
3 226 53 225
3 226 224 53
3 227 224 226
3 227 10 224
3 227 118 10
3 768 118 769
3 770 769 227
3 768 769 770
3 772 771 118
3 123 773 775
3 775 774 54
3 773 774 775
3 777 776 123
3 174 124 11
3 228 124 174
3 228 55 124
3 126 228 29
3 229 228 126
3 229 55 228
3 229 778 780
3 780 779 55
3 778 779 780
3 782 781 229
3 230 783 784
3 230 785 786
3 787 230 788
3 789 788 56
3 787 788 789
3 790 230 791
3 793 792 230
3 794 54 795
3 128 796 797
3 231 798 800
3 800 799 128
3 798 799 800
3 231 801 803
3 801 54 802
3 801 802 803
3 231 122 54
3 232 122 231
3 232 11 122
3 804 57 805
3 233 806 807
3 233 808 810
3 808 57 809
3 808 809 810
3 233 232 57
3 234 232 233
3 234 11 232
3 234 173 11
3 235 173 234
3 235 28 173
3 129 235 58
3 811 235 812
3 813 812 129
3 811 812 813
3 814 28 815
3 816 815 235
3 814 815 816
3 818 817 28
3 819 19 820
3 821 19 822
3 823 71 824
3 825 824 19
3 823 824 825
3 236 826 828
3 826 71 827
3 826 827 828
3 236 0 71
3 236 68 0
3 237 68 236
3 237 16 68
3 130 829 831
3 829 237 830
3 829 830 831
3 238 237 130
3 238 16 237
3 238 154 16
3 239 154 238
3 239 4 154
3 177 832 834
3 832 131 833
3 832 833 834
3 240 131 177
3 240 59 131
3 133 240 31
3 241 240 133
3 241 59 240
3 241 239 59
3 242 239 241
3 242 4 239
3 242 89 4
3 243 89 242
3 243 38 89
3 135 243 60
3 244 243 135
3 244 38 243
3 244 190 38
3 245 190 244
3 245 2 190
3 836 835 43
3 837 12 838
3 180 138 7
3 246 138 180
3 246 839 841
3 841 840 138
3 839 840 841
3 140 246 33
3 247 246 140
3 247 842 844
3 844 843 246
3 842 843 844
3 247 845 846
3 248 847 849
3 849 848 247
3 847 848 849
3 248 850 852
3 850 12 851
3 850 851 852
3 248 136 12
3 249 136 248
3 249 61 136
3 142 249 62
3 250 249 142
3 250 61 249
3 250 245 61
3 251 245 250
3 251 2 245
3 251 853 855
3 855 854 2
3 853 854 855
3 857 856 251
3 859 858 63
3 211 75 1
3 252 75 211
3 252 23 75
3 145 252 49
3 253 252 145
3 253 23 252
3 253 166 23
3 254 166 253
3 254 8 166
3 183 146 9
3 255 146 183
3 255 64 146
3 148 255 35
3 256 255 148
3 256 64 255
3 256 254 64
3 257 254 256
3 257 8 254
3 257 107 8
3 258 107 257
3 258 46 107
3 150 258 65
3 259 258 150
3 259 46 258
3 259 208 46
3 860 208 861
3 862 861 259
3 860 861 862
3 864 863 208
3 209 865 867
3 865 84 866
3 865 866 867
3 260 84 209
3 260 36 84
3 151 260 47
3 261 260 151
3 261 36 260
3 261 186 36
3 868 186 869
3 870 869 261
3 868 869 870
3 871 13 872
3 873 872 186
3 871 872 873
3 874 13 875
3 877 876 13
