ply
format ascii 1.0
element vertex 452
property float x
property float y
property float z
element face 467
property list uchar int vertex_index
end_header
53.287331 -1.474695 -54.474251
56.071259 -67.613022 -26.800783
62.446362 -33.611233 -40.036118
44.215004 -1.799307 -56.575638
52.845589 -13.260794 -51.396118
60.567055 -68.763847 -21.456987
65.052704 -54.293442 -28.189619
59.996002 -51.310184 -32.978561
56.71302 -28.525669 -43.966263
60.501053 -16.359247 -47.876183
48.756363 -1.152611 -56.443459
48.859573 -7.0068 -54.407509
53.237244 -7.380136 -53.857033
56.074715 -75.514832 -21.386412
58.644745 -68.538559 -24.554976
63.12397 -61.810841 -24.985243
60.844772 -61.142776 -27.767229
62.628086 -53.165413 -30.862261
58.12339 -59.702122 -29.793745
62.212494 -24.800062 -43.941635
59.161499 -22.590216 -46.558418
59.808037 -31.161064 -42.473549
57.522411 -75.311523 -17.863333
61.841198 -68.618355 -17.644152
64.789909 -61.978943 -21.417982
63.98642 -44.625038 -33.868416
61.547638 -42.537163 -36.370773
57.32695 -48.852257 -34.751244
59.020771 -39.997578 -38.480423
56.22023 -37.132942 -40.025948
57.38308 -8.521705 -51.504974
56.881767 -14.576948 -50.458977
55.603432 -20.479523 -47.84008
51.03336 1.716736 -55.61364
48.703045 1.766628 -56.701637
51.037399 -1.211519 -55.680054
51.066803 -4.141141 -55.270172
53.274544 -4.429379 -54.398491
56.278458 -71.827309 -24.284231
57.427399 -68.172012 -25.778421
59.796234 -64.906029 -26.168062
58.509445 -64.410858 -27.309645
59.521057 -60.521782 -28.859426
57.116051 -63.716854 -28.269751
63.753418 -30.264317 -40.386261
63.559731 -25.853842 -42.267258
62.500114 -29.174833 -41.967957
61.154518 -28.02302 -43.366333
61.177349 -32.419445 -41.354324
44.062439 1.143999 -57.515999
44.377579 -4.782035 -55.150009
50.96991 -10.005982 -52.986427
48.810394 -9.985215 -52.714859
50.749607 -12.970045 -51.235298
52.407299 -16.188616 -49.638115
58.333023 -72.138443 -21.402662
56.885788 -75.473045 -19.715509
59.087608 -72.078911 -19.652208
59.685066 -71.937973 -17.740858
61.274803 -68.706985 -19.619856
63.398735 -65.354919 -19.557348
62.735363 -65.375 -21.481707
64.168228 -58.130463 -26.639151
65.158241 -58.346684 -25.001184
66.100693 -54.620705 -26.595404
66.865967 -50.742538 -28.06418
65.782677 -50.296879 -29.638582
61.322533 -52.325275 -31.975378
63.3629 -48.955536 -32.365181
62.098801 -48.034294 -33.551155
62.769501 -43.646603 -35.162109
60.827553 -46.958946 -34.644119
58.250862 -44.435394 -36.576233
56.909691 -43.028267 -37.39917
57.663635 -38.600342 -39.334312
62.12735 -17.296717 -46.107735
59.096252 -12.351741 -49.751534
57.200367 -11.559086 -51.195312
58.752846 -15.440285 -49.352097
58.088875 -25.606464 -45.380928
57.436913 -21.495089 -47.380577
56.373795 -24.411522 -45.928352
54.585461 -23.303127 -46.173187
55.024029 -27.211449 -44.328362
46.369446 1.585596 -57.342674
46.47176 -1.335859 -56.737556
46.58577 -4.271431 -55.618416
48.826557 -4.072154 -55.673943
51.062595 -7.068329 -54.361969
53.11198 -10.322845 -52.83992
57.39827 -72.066002 -22.953463
59.694149 -68.72496 -23.111994
61.920319 -65.348473 -23.246897
60.940067 -65.20903 -24.8155
62.05571 -61.564983 -26.481108
63.036331 -57.77187 -28.082567
63.883568 -53.818871 -29.608541
61.788498 -57.230988 -29.33359
60.460083 -56.492798 -30.415125
59.087406 -55.564075 -31.363817
63.024132 -21.522429 -44.186951
61.548092 -20.518196 -45.924599
59.949913 -19.499342 -47.404259
60.753288 -23.704865 -45.395164
59.687584 -26.824451 -44.519836
58.318596 -29.854477 -43.351219
53.331856 1.460661 -54.130806
54.61972 -66.865929 -27.662722
63.648621 -34.723534 -38.569984
46.663895 -7.252413 -54.03624
54.704643 -78.904495 -19.866259
55.397224 -78.743454 -18.066866
55.928833 -78.470024 -16.108477
58.01638 -75.077957 -15.87554
60.155888 -71.774895 -15.715754
64.035088 -61.926979 -23.287924
64.60173 -49.708981 -31.067732
65.193459 -45.460167 -32.487915
63.301773 -39.196915 -36.829826
62.107414 -38.076614 -38.167412
55.659637 -62.834621 -29.095095
56.690308 -58.700676 -30.616758
57.699287 -54.466415 -32.219452
58.664101 -50.143654 -33.898674
59.549686 -45.75164 -35.653496
60.306679 -41.314758 -37.484009
60.872536 -36.860672 -39.38739
59.56448 -35.563221 -40.452057
58.157646 -34.198524 -41.325928
56.644859 -32.781387 -41.987961
54.695354 -35.601044 -40.553177
55.044384 -31.328682 -42.442665
55.482262 -1.91095 -52.885445
55.424698 -4.890806 -53.092682
55.351513 -7.882296 -52.891022
55.199265 -10.863755 -52.240616
54.902603 -13.825422 -51.145271
58.218925 -18.495949 -48.551498
56.363674 -17.55773 -49.313881
54.412491 -16.756962 -49.671333
53.706318 -19.630442 -47.947517
56.749329 -67.892517 -26.289602
56.209456 -69.789154 -25.588985
55.531385 -69.509659 -26.100166
43.01399 -0.692426 -56.906559
42.937708 0.779227 -57.376739
44.138722 -0.327654 -57.045818
43.115597 -2.186405 -56.290298
43.01399 -0.692426 -56.906559
44.296291 -3.290671 -55.862823
43.196884 -3.677769 -55.577484
43.115597 -2.186405 -56.290298
55.747589 -44.501175 -36.824898
56.441214 -45.243198 -36.468586
56.2089 -42.284252 -37.752933
55.747589 -44.501175 -36.824898
60.690331 -14.780104 -47.930542
61.503479 -15.248839 -47.046318
61.314201 -16.827982 -46.991959
59.798653 -14.355494 -48.813858
59.98793 -12.776351 -48.868218
60.690331 -14.780104 -47.930542
53.388176 2.894529 -53.777878
52.217308 3.037158 -54.626103
64.232681 -35.235791 -37.786781
64.298203 -33.0043 -38.626697
47.740196 -10.152228 -52.404758
48.731283 -11.510451 -51.717964
55.389679 -77.209664 -20.626335
54.263309 -78.912323 -20.664865
54.948346 -77.217491 -21.424942
62.065928 -68.59026 -16.610475
61.223273 -70.16853 -15.646276
60.998543 -70.196625 -16.679953
62.885489 -66.988602 -17.581856
62.065928 -68.59026 -16.610475
65.094341 -62.009863 -20.417484
64.398754 -63.697851 -19.487167
64.094322 -63.666931 -20.487665
65.730885 -60.294459 -21.324735
65.094341 -62.009863 -20.417484
65.57581 -58.414309 -24.09419
66.079582 -56.600756 -24.917561
64.820465 -42.864544 -33.888717
65.423985 -43.282108 -33.198467
64.589939 -45.042603 -33.178166
64.233944 -42.41691 -34.636528
64.820465 -42.864544 -33.888717
54.389717 -64.389966 -28.755871
55.139679 -64.850275 -28.378909
53.869759 -66.40562 -28.039684
55.970676 -58.121657 -30.99493
55.435364 -60.242656 -30.227005
56.475166 -56.004526 -31.796277
57.194797 -56.583545 -31.418105
55.970676 -58.121657 -30.99493
56.819004 -51.039757 -33.882699
56.125236 -50.361857 -34.258259
57.995525 -49.497956 -34.324959
57.48758 -51.685456 -33.456413
56.819004 -51.039757 -33.882699
53.90611 -34.803978 -40.746914
53.608522 -36.96061 -39.858383
54.080625 -32.667797 -41.691658
54.869869 -33.464863 -41.497921
53.90611 -34.803978 -40.746914
54.222898 -30.594373 -42.585254
54.080625 -32.667797 -41.691658
56.540636 -2.204851 -51.939838
55.525959 -0.447665 -52.606335
57.440575 -7.005149 -51.462024
58.350571 -8.889816 -50.637962
56.403889 -6.706256 -52.298828
56.461384 -5.1897 -52.255879
57.440575 -7.005149 -51.462024
53.687967 -22.840665 -46.163483
53.949763 -24.633713 -45.327362
49.868203 1.741682 -56.157638
48.711405 3.221045 -56.590751
49.876563 3.196099 -56.046753
55.634985 -71.616803 -24.84189
55.078709 -73.473034 -24.180296
56.852929 -69.999661 -25.031326
55.634985 -71.616803 -24.84189
56.209456 -69.789154 -25.588985
63.656575 -28.059079 -41.326759
64.191662 -26.356068 -41.356338
64.288505 -28.561305 -40.41584
42.863037 2.255775 -57.746193
44.014857 2.60815 -57.726715
42.863037 2.255775 -57.746193
42.937708 0.779227 -57.376739
43.304638 -5.206075 -54.745823
42.123943 -4.101809 -55.173298
43.196884 -3.677769 -55.577484
44.443523 -6.313969 -54.235893
43.304638 -5.206075 -54.745823
49.70089 -13.002866 -50.978184
48.731283 -11.510451 -51.717964
49.78 -11.47763 -51.975078
50.569143 -14.466906 -50.245533
49.70089 -13.002866 -50.978184
51.39799 -16.076192 -49.446942
50.569143 -14.466906 -50.245533
51.578453 -14.579331 -50.436706
52.102995 -17.629753 -48.686684
51.39799 -16.076192 -49.446942
66.550808 -54.737766 -25.71467
66.079582 -56.600756 -24.917561
65.629467 -56.483694 -25.798294
66.956955 -52.855843 -26.469589
66.550808 -54.737766 -25.71467
67.339592 -50.916759 -27.203978
66.956955 -52.855843 -26.469589
66.48333 -52.681622 -27.329792
67.651218 -48.966261 -27.894334
67.339592 -50.916759 -27.203978
67.164024 -48.729484 -28.744409
67.651218 -48.966261 -27.894334
66.622379 -48.506655 -29.53161
67.164024 -48.729484 -28.744409
66.324322 -50.519709 -28.851381
66.074074 -48.224299 -30.324534
66.622379 -48.506655 -29.53161
56.649843 -48.155193 -35.144623
56.125236 -50.361857 -34.258259
57.111799 -45.946762 -36.057118
57.788906 -46.643826 -35.663739
56.649843 -48.155193 -35.144623
57.580276 -43.731831 -36.987702
57.111799 -45.946762 -36.057118
56.441214 -45.243198 -36.468586
56.585873 -40.07029 -38.720504
57.286663 -40.814304 -38.366741
56.2089 -42.284252 -37.752933
55.86417 -39.33659 -39.066322
56.941933 -37.866642 -39.68013
56.585873 -40.07029 -38.720504
62.338452 -15.69033 -46.046188
62.884201 -17.765721 -45.120651
62.338452 -15.69033 -46.046188
61.503479 -15.248839 -47.046318
59.207157 -10.804834 -49.761242
59.98793 -12.776351 -48.868218
58.239666 -10.436723 -50.628254
58.350571 -8.889816 -50.637962
59.207157 -10.804834 -49.761242
54.169047 -26.587875 -44.40495
53.949763 -24.633713 -45.327362
54.804745 -25.257288 -45.250774
47.516599 3.133878 -57.067581
48.711405 3.221045 -56.590751
46.3498 3.043362 -57.3881
47.516599 3.133878 -57.067581
47.536246 1.676112 -57.022155
45.16836 2.828948 -57.640052
46.3498 3.043362 -57.3881
45.215942 1.364797 -57.429337
44.014857 2.60815 -57.726715
45.16836 2.828948 -57.640052
55.572891 -75.458786 -22.114981
54.948346 -77.217491 -21.424942
55.674763 -73.615025 -23.56389
55.078709 -73.473034 -24.180296
56.234669 -73.734371 -22.898506
55.674763 -73.615025 -23.56389
56.838364 -71.946655 -23.618847
56.736492 -73.790417 -22.169937
55.572891 -75.458786 -22.114981
56.234669 -73.734371 -22.898506
63.978767 -24.176782 -42.270061
64.191662 -26.356068 -41.356338
63.710968 -22.011075 -43.229908
63.978767 -24.176782 -42.270061
63.291932 -23.688136 -43.227104
63.332592 -19.878577 -44.160259
63.710968 -22.011075 -43.229908
62.575741 -19.409573 -45.147343
62.884201 -17.765721 -45.120651
63.332592 -19.878577 -44.160259
51.06806 3.165195 -55.36752
49.876563 3.196099 -56.046753
52.182608 1.588699 -54.872223
51.06806 3.165195 -55.36752
52.217308 3.037158 -54.626103
54.823307 -69.20763 -26.564918
55.531385 -69.509659 -26.100166
54.097538 -68.834083 -26.995888
55.345489 -67.239475 -27.231752
54.823307 -69.20763 -26.564918
53.349243 -68.445034 -27.391422
54.097538 -68.834083 -26.995888
53.869759 -66.40562 -28.039684
53.349243 -68.445034 -27.391422
64.350601 -30.774691 -39.534836
64.288505 -28.561305 -40.41584
63.70102 -32.493926 -39.478122
64.350601 -30.774691 -39.534836
64.298203 -33.0043 -38.626697
45.586681 -7.549158 -53.679008
44.443523 -6.313969 -54.235893
45.520737 -6.017224 -54.593125
46.666946 -8.785827 -53.065449
47.737144 -8.618814 -53.375549
47.740196 -10.152228 -52.404758
45.586681 -7.549158 -53.679008
46.666946 -8.785827 -53.065449
53.631247 -80.646732 -20.001831
54.263309 -78.912323 -20.664865
54.017713 -80.572281 -19.128603
53.631247 -80.646732 -20.001831
54.364004 -80.49176 -18.228907
54.017713 -80.572281 -19.128603
55.050933 -78.823974 -18.966563
54.660927 -80.346466 -17.262467
54.364004 -80.49176 -18.228907
54.926731 -80.209751 -16.283272
54.660927 -80.346466 -17.262467
55.663028 -78.606739 -17.087671
55.152063 -80.009357 -15.24963
54.926731 -80.209751 -16.283272
56.13224 -78.299038 -15.07506
55.152063 -80.009357 -15.24963
57.176014 -76.603004 -14.958592
56.13224 -78.299038 -15.07506
56.972606 -76.77399 -15.992009
58.208405 -74.951641 -14.838095
57.368038 -76.476688 -13.921146
57.176014 -76.603004 -14.958592
59.278159 -73.30011 -14.758202
58.208405 -74.951641 -14.838095
59.086134 -73.426426 -15.795647
60.340575 -71.710133 -14.669176
59.278159 -73.30011 -14.758202
60.340575 -71.710133 -14.669176
61.223273 -70.16853 -15.646276
63.664257 -65.356884 -18.538454
62.885489 -66.988602 -17.581856
62.619967 -66.986637 -18.60075
63.664257 -65.356884 -18.538454
64.398754 -63.697851 -19.487167
65.014233 -60.204457 -23.237561
64.596665 -60.136831 -24.144554
65.57581 -58.414309 -24.09419
65.391644 -60.230439 -22.302589
64.412498 -61.952961 -22.352953
65.014233 -60.204457 -23.237561
65.730885 -60.294459 -21.324735
65.391644 -60.230439 -22.302589
65.4836 -47.93035 -31.039108
66.074074 -48.224299 -30.324534
65.192204 -50.00293 -30.353157
65.779465 -45.805943 -31.7492
65.4836 -47.93035 -31.039108
64.897594 -47.584574 -31.777824
65.999547 -43.671741 -32.417595
65.779465 -45.805943 -31.7492
65.999547 -43.671741 -32.417595
65.423985 -43.282108 -33.198467
63.625484 -41.927692 -35.283375
64.233944 -42.41691 -34.636528
63.377961 -44.135821 -34.515263
63.891621 -39.702849 -36.117233
63.625484 -41.927692 -35.283375
63.035637 -41.421759 -35.995967
64.059258 -37.472481 -36.916702
63.891621 -39.702849 -36.117233
63.475197 -36.960224 -37.699905
64.232681 -35.235791 -37.786781
64.059258 -37.472481 -36.916702
54.920029 -62.309629 -29.466174
54.389717 -64.389966 -28.755871
56.174972 -60.767648 -29.855927
54.920029 -62.309629 -29.466174
55.435364 -60.242656 -30.227005
57.005173 -53.846836 -32.616802
56.475166 -56.004526 -31.796277
58.181694 -52.305034 -33.059063
57.005173 -53.846836 -32.616802
57.48758 -51.685456 -33.456413
55.130596 -38.55286 -39.358612
55.86417 -39.33659 -39.066322
54.368158 -37.786911 -39.622227
53.281326 -39.146476 -38.927433
53.608522 -36.96061 -39.858383
55.457792 -36.366993 -40.289563
55.130596 -38.55286 -39.358612
54.368158 -37.786911 -39.622227
54.212721 -28.535757 -43.528103
55.034206 -29.270066 -43.385514
54.222898 -30.594373 -42.585254
54.169047 -26.587875 -44.40495
54.212721 -28.535757 -43.528103
54.450756 1.23814 -53.229016
53.388176 2.894529 -53.777878
54.507076 2.672009 -52.876087
54.407059 -0.225144 -53.508125
54.450756 1.23814 -53.229016
55.525959 -0.447665 -52.606335
56.490166 -3.699772 -52.15226
56.540636 -2.204851 -51.939838
55.45348 -3.400878 -52.989064
56.490166 -3.699772 -52.15226
56.461384 -5.1897 -52.255879
52.752505 -19.350665 -47.841385
52.102995 -17.629753 -48.686684
53.056809 -17.909529 -48.792816
53.248396 -21.004322 -47.050647
54.14589 -21.466784 -47.060352
53.687967 -22.840665 -46.163483
52.752505 -19.350665 -47.841385
53.248396 -21.004322 -47.050647
3 0 35 33
3 0 37 35
3 1 141 143
3 141 39 142
3 141 142 143
3 1 41 39
3 1 43 41
3 2 46 44
3 2 48 46
3 3 144 146
3 146 145 49
3 144 145 146
3 3 147 148
3 3 149 151
3 149 50 150
3 149 150 151
3 4 53 51
3 4 54 53
3 5 57 55
3 5 59 57
3 5 61 59
3 6 64 62
3 6 65 64
3 6 66 65
3 7 69 67
3 7 71 69
3 152 73 153
3 155 154 73
3 9 156 158
3 158 157 75
3 156 157 158
3 9 159 161
3 159 76 160
3 159 160 161
3 9 78 76
3 8 81 79
3 8 83 81
3 10 84 34
3 10 85 84
3 10 87 85
3 12 88 36
3 12 89 88
3 14 90 38
3 14 91 90
3 14 93 91
3 16 94 40
3 16 95 94
3 16 97 95
3 18 98 42
3 18 99 98
3 19 100 45
3 19 101 100
3 19 103 101
3 21 104 47
3 21 105 104
3 162 106 163
3 164 108 165
3 11 109 86
3 167 166 52
3 13 168 170
3 168 110 169
3 168 169 170
3 22 111 56
3 22 112 111
3 22 113 112
3 23 114 58
3 23 171 173
3 173 172 114
3 171 172 173
3 23 174 175
3 24 176 178
3 178 177 60
3 176 177 178
3 24 179 180
3 15 115 92
3 182 181 63
3 17 116 96
3 25 117 68
3 25 183 185
3 185 184 117
3 183 184 185
3 25 186 187
3 26 118 70
3 26 119 118
3 188 120 189
3 190 189 107
3 188 189 190
3 191 121 192
3 193 122 194
3 195 194 121
3 193 194 195
3 27 196 197
3 27 198 200
3 198 123 199
3 198 199 200
3 27 124 123
3 28 125 72
3 28 126 125
3 28 127 126
3 29 128 74
3 29 129 128
3 201 130 202
3 203 131 204
3 205 204 130
3 203 204 205
3 207 206 131
3 208 132 209
3 30 210 211
3 30 212 214
3 212 133 213
3 212 213 214
3 30 134 133
3 31 135 77
3 31 136 135
3 20 137 102
3 32 138 80
3 32 139 138
3 32 140 139
3 216 215 82
3 33 217 219
3 217 34 218
3 217 218 219
3 35 34 33
3 35 10 34
3 35 36 10
3 37 36 35
3 37 12 36
3 220 38 221
3 39 222 224
3 222 38 223
3 222 223 224
3 39 14 38
3 39 40 14
3 41 40 39
3 41 16 40
3 41 42 16
3 43 42 41
3 43 18 42
3 44 225 227
3 225 45 226
3 225 226 227
3 46 45 44
3 46 19 45
3 46 47 19
3 48 47 46
3 48 21 47
3 49 228 229
3 231 230 49
3 50 232 234
3 232 233 234
3 50 235 236
3 51 52 11
3 53 52 51
3 53 237 239
3 239 238 52
3 237 238 239
3 53 240 241
3 54 242 244
3 244 243 53
3 242 243 244
3 54 245 246
3 55 56 13
3 57 56 55
3 57 22 56
3 57 58 22
3 59 58 57
3 59 23 58
3 59 60 23
3 61 60 59
3 61 24 60
3 62 63 15
3 64 63 62
3 64 247 249
3 249 248 63
3 247 248 249
3 64 250 251
3 65 252 254
3 254 253 64
3 252 253 254
3 65 255 256
3 65 257 258
3 66 259 261
3 261 260 65
3 259 260 261
3 66 262 263
3 67 68 17
3 69 68 67
3 69 25 68
3 69 70 25
3 71 70 69
3 71 26 70
3 264 27 265
3 266 72 267
3 268 267 27
3 266 267 268
3 73 269 271
3 269 72 270
3 269 270 271
3 73 28 72
3 73 74 28
3 272 74 273
3 274 273 73
3 272 273 274
3 275 29 276
3 277 276 74
3 275 276 277
3 75 278 279
3 281 280 75
3 76 282 283
3 76 284 286
3 284 30 285
3 284 285 286
3 76 77 30
3 78 77 76
3 78 31 77
3 79 80 20
3 81 80 79
3 81 32 80
3 81 82 32
3 83 82 81
3 83 287 289
3 289 288 82
3 287 288 289
3 34 290 291
3 84 292 294
3 294 293 34
3 292 293 294
3 84 295 296
3 84 297 299
3 297 49 298
3 297 298 299
3 85 49 84
3 85 3 49
3 85 86 3
3 87 86 85
3 87 11 86
3 36 87 10
3 88 87 36
3 88 11 87
3 88 51 11
3 89 51 88
3 89 4 51
3 300 13 301
3 38 302 303
3 90 304 306
3 306 305 38
3 304 305 306
3 90 307 309
3 307 13 308
3 307 308 309
3 90 55 13
3 91 55 90
3 91 5 55
3 91 92 5
3 93 92 91
3 93 15 92
3 40 93 14
3 94 93 40
3 94 15 93
3 94 62 15
3 95 62 94
3 95 6 62
3 95 96 6
3 97 96 95
3 97 17 96
3 42 97 16
3 98 97 42
3 98 17 97
3 98 67 17
3 99 67 98
3 99 7 67
3 45 310 311
3 100 312 314
3 314 313 45
3 312 313 314
3 100 315 316
3 100 317 319
3 317 75 318
3 317 318 319
3 101 75 100
3 101 9 75
3 101 102 9
3 103 102 101
3 103 20 102
3 47 103 19
3 104 103 47
3 104 20 103
3 104 79 20
3 105 79 104
3 105 8 79
3 320 33 321
3 106 322 324
3 322 33 323
3 322 323 324
3 106 0 33
3 325 1 326
3 327 107 328
3 329 328 1
3 327 328 329
3 330 107 331
3 333 332 107
3 334 44 335
3 108 336 338
3 336 44 337
3 336 337 338
3 108 2 44
3 86 50 3
3 109 50 86
3 109 339 341
3 341 340 50
3 339 340 341
3 52 109 11
3 342 109 343
3 344 343 52
3 342 343 344
3 346 345 109
3 110 347 348
3 110 349 350
3 56 110 13
3 111 110 56
3 111 351 353
3 353 352 110
3 351 352 353
3 111 354 355
3 112 356 358
3 358 357 111
3 356 357 358
3 112 359 360
3 112 361 362
3 113 363 365
3 365 364 112
3 363 364 365
3 113 366 368
3 366 367 368
3 58 113 22
3 114 113 58
3 114 369 371
3 371 370 113
3 369 370 371
3 114 372 373
3 375 374 114
3 60 376 378
3 378 377 23
3 376 377 378
3 380 379 60
3 92 61 5
3 115 61 92
3 115 24 61
3 63 115 15
3 381 115 382
3 383 382 63
3 381 382 383
3 384 24 385
3 386 385 115
3 384 385 386
3 388 387 24
3 96 66 6
3 116 66 96
3 116 389 391
3 391 390 66
3 389 390 391
3 68 116 17
3 117 116 68
3 117 392 394
3 394 393 116
3 392 393 394
3 117 395 396
3 398 397 117
3 70 399 401
3 401 400 25
3 399 400 401
3 118 402 404
3 404 403 70
3 402 403 404
3 118 405 406
3 118 407 409
3 407 108 408
3 407 408 409
3 119 108 118
3 119 2 108
3 107 43 1
3 120 43 107
3 120 18 43
3 410 120 411
3 121 412 414
3 412 120 413
3 412 413 414
3 121 18 120
3 121 99 18
3 122 99 121
3 122 7 99
3 415 122 416
3 123 417 419
3 417 122 418
3 417 418 419
3 123 7 122
3 123 71 7
3 124 71 123
3 124 26 71
3 72 124 27
3 125 124 72
3 125 26 124
3 125 119 26
3 126 119 125
3 126 2 119
3 126 48 2
3 127 48 126
3 127 21 48
3 74 127 28
3 128 127 74
3 128 21 127
3 128 105 21
3 129 105 128
3 129 8 105
3 420 29 421
3 130 422 424
3 422 423 424
3 130 425 427
3 425 29 426
3 425 426 427
3 130 129 29
3 131 129 130
3 131 8 129
3 131 83 8
3 428 83 429
3 430 429 131
3 428 429 430
3 432 431 83
3 433 106 434
3 433 434 435
3 132 436 438
3 436 106 437
3 436 437 438
3 132 0 106
3 439 132 440
3 133 441 443
3 441 132 442
3 441 442 443
3 133 0 132
3 133 37 0
3 134 37 133
3 134 12 37
3 77 134 30
3 135 134 77
3 135 12 134
3 135 89 12
3 136 89 135
3 136 4 89
3 102 78 9
3 137 78 102
3 137 31 78
3 80 137 20
3 138 137 80
3 138 31 137
3 138 136 31
3 139 136 138
3 139 4 136
3 139 54 4
3 140 54 139
3 140 444 446
3 446 445 54
3 444 445 446
3 82 140 32
3 447 140 448
3 449 448 82
3 447 448 449
3 451 450 140
