ply
format ascii 1.0
element vertex 283
property float x
property float y
property float z
element face 271
property list uchar int vertex_index
end_header
47.168373 -95.936012 -17.028105
31.754402 -117.302307 -12.993803
41.956993 -96.531685 -22.793245
37.286423 -109.558365 -19.439089
38.435413 -95.645271 -23.745611
44.025726 -88.799484 -24.040495
34.621155 -114.148079 -16.697275
33.378941 -109.896835 -21.43799
48.63343 -94.477119 -12.514507
50.763596 -88.671799 -15.501421
34.760036 -114.05014 -8.344942
44.96479 -96.634224 -20.581755
49.298115 -89.407669 -19.402502
47.025299 -89.449944 -22.287771
42.833805 -102.994713 -18.506525
39.719009 -103.582237 -21.374392
35.977421 -103.217445 -22.698236
53.330784 -82.240067 -18.390947
47.979042 -95.294312 -14.855526
49.641323 -91.681885 -14.033165
49.009537 -92.307976 -16.236483
43.551384 -96.682106 -21.861994
46.000195 -93.11557 -21.460714
44.587894 -93.012924 -22.593428
45.01218 -84.775925 -24.709955
46.582973 -85.312439 -24.016195
33.332348 -115.77903 -10.766094
36.302628 -113.016792 -10.468634
34.838306 -114.575241 -12.838972
35.984032 -112.037254 -18.182741
37.684788 -111.195847 -16.365778
38.989189 -108.958412 -17.814337
41.702961 -105.721817 -17.249205
40.214897 -106.353455 -19.064604
41.374252 -103.407768 -20.135889
38.529419 -106.728325 -20.491438
31.272844 -109.632668 -21.846792
34.689011 -106.688705 -22.120195
32.646519 -106.279434 -22.393538
34.013153 -102.685043 -22.881334
30.614281 -105.618637 -22.402544
50.428452 -85.930969 -20.525583
51.312984 -85.799965 -18.844992
52.55785 -82.388969 -20.137403
40.230965 -96.185974 -23.403502
43.01059 -92.728493 -23.415964
41.322937 -92.263672 -23.967089
33.205048 -115.894745 -14.967949
34.098953 -112.578529 -19.601748
35.403103 -109.873009 -20.648386
31.819031 -116.729012 -8.506229
46.170597 -96.385254 -18.957769
48.209614 -92.762466 -18.249041
47.211124 -93.032822 -20.006117
48.266838 -89.517029 -20.989542
49.334213 -85.892593 -21.950502
45.596558 -89.209785 -23.296049
48.040771 -85.685257 -23.108782
47.008125 -98.018387 -13.39023
46.160824 -98.863533 -15.710047
36.297852 -113.061523 -14.707962
44.089287 -102.349312 -16.529539
45.137337 -99.511322 -17.807936
43.913799 -99.947495 -19.608706
42.48251 -100.165909 -21.056555
40.860512 -100.166267 -22.127508
36.671452 -106.839973 -21.504343
37.901737 -103.517792 -22.217199
39.08984 -99.951241 -22.834826
37.230362 -99.523575 -23.224627
50.122078 -89.122726 -17.555983
52.002277 -85.50737 -16.944502
46.284502 -83.060722 -24.753732
45.499083 -82.726326 -25.086525
30.900434 -107.684276 -22.170244
31.959681 -107.956051 -22.120165
30.213597 -109.360894 -21.896871
29.884315 -107.353878 -22.174747
31.6304 -105.949036 -22.398041
30.900434 -107.684276 -22.170244
52.070231 -82.383144 -20.897407
51.493151 -84.159969 -20.331493
51.005532 -84.154144 -21.091498
32.417068 -113.977142 -19.566813
33.429874 -113.754024 -18.961527
33.078741 -112.690857 -20.09808
32.417068 -113.977142 -19.566813
49.386074 -92.69183 -12.111628
48.895973 -93.993633 -11.295986
51.011032 -88.373482 -14.401523
50.449896 -89.878525 -13.667395
50.20246 -90.176842 -14.767293
51.64605 -86.872116 -15.189087
51.011032 -88.373482 -14.401523
30.346328 -118.003796 -8.445113
31.080107 -117.105401 -7.296289
29.607404 -118.380185 -7.235173
31.058954 -117.571163 -9.647701
30.346328 -118.003796 -8.445113
48.544193 -83.769226 -23.538775
47.311872 -85.498848 -23.562489
47.815294 -83.582817 -23.992481
49.222574 -83.941795 -23.020489
48.544193 -83.769226 -23.538775
46.081007 -99.752056 -13.833036
46.529478 -99.222496 -12.609234
45.657356 -100.174629 -14.992944
46.584474 -98.44096 -14.550138
46.081007 -99.752056 -13.833036
36.189121 -112.669433 -8.140054
36.840154 -111.741803 -6.8671
35.411069 -113.122509 -7.071987
37.711312 -111.588696 -10.204887
37.047499 -112.36533 -11.448403
38.439858 -110.639916 -15.289806
39.090628 -109.643002 -16.093256
34.68101 -100.784412 -23.122341
33.045071 -102.303901 -22.862356
53.627707 -82.094773 -17.424507
52.963453 -83.728424 -16.701284
52.666531 -83.873718 -17.667724
39.010932 -93.630188 -24.023352
37.534757 -95.275375 -23.814217
47.069899 -83.32898 -24.406852
45.797577 -85.044182 -24.363075
46.284502 -83.060722 -24.753732
47.815294 -83.582817 -23.992481
47.069899 -83.32898 -24.406852
36.315338 -113.144554 -12.633572
37.047499 -112.36533 -11.448403
35.570467 -113.796017 -11.653803
39.742829 -108.524284 -16.817535
39.090628 -109.643002 -16.093256
38.336989 -110.077129 -17.090058
40.346075 -107.340114 -17.531771
41.099715 -106.905987 -16.534969
39.742829 -108.524284 -16.817535
31.345634 -103.770699 -22.622961
33.045071 -102.303901 -22.862356
32.313717 -104.15184 -22.641939
40.454695 -91.939389 -24.13409
39.879175 -93.954471 -23.85635
39.010932 -93.630188 -24.023352
41.846468 -90.240795 -24.266689
40.454695 -91.939389 -24.13409
43.197862 -88.508701 -24.303393
42.674332 -90.531578 -24.003792
41.846468 -90.240795 -24.266689
43.69109 -86.496921 -24.638123
44.518953 -86.787705 -24.375225
43.197862 -88.508701 -24.303393
44.198456 -84.424305 -24.973776
43.69109 -86.496921 -24.638123
44.685358 -82.374706 -25.350346
45.499083 -82.726326 -25.086525
44.198456 -84.424305 -24.973776
31.60754 -117.220696 -14.95901
32.479725 -116.598526 -13.980876
30.882217 -117.924476 -13.971937
32.299437 -116.405327 -15.871955
31.60754 -117.220696 -14.95901
33.007491 -115.531994 -16.736618
33.913101 -115.021412 -15.832612
32.299437 -116.405327 -15.871955
33.690976 -114.538799 -17.50929
33.007491 -115.531994 -16.736618
34.372414 -113.483387 -18.252023
35.302594 -113.092667 -17.440008
33.690976 -114.538799 -17.50929
35.041493 -112.307892 -18.892245
34.372414 -113.483387 -18.252023
33.429874 -113.754024 -18.961527
33.730816 -111.338097 -20.621399
34.751028 -111.225769 -20.125067
33.078741 -112.690857 -20.09808
32.718735 -111.35001 -21.016201
34.391022 -109.884922 -21.043188
33.730816 -111.338097 -20.621399
31.646491 -111.302833 -21.308335
32.718735 -111.35001 -21.016201
30.593443 -111.17075 -21.512735
32.325892 -109.764751 -21.642391
31.646491 -111.302833 -21.308335
29.501908 -110.967873 -21.629931
30.593443 -111.17075 -21.512735
30.213597 -109.360894 -21.896871
29.501908 -110.967873 -21.629931
49.89002 -91.294213 -12.870957
49.386074 -92.69183 -12.111628
49.137377 -93.079502 -13.273836
49.89002 -91.294213 -12.870957
50.449896 -89.878525 -13.667395
33.986217 -114.464298 -7.208455
35.411069 -113.122509 -7.071987
32.515715 -115.803734 -7.289098
31.080107 -117.105401 -7.296289
33.289533 -115.389576 -8.425586
33.986217 -114.464298 -7.208455
32.515715 -115.803734 -7.289098
31.815613 -117.096172 -10.777634
32.57569 -116.254021 -9.636162
31.058954 -117.571163 -9.647701
31.02664 -117.857811 -11.891488
32.543375 -116.540669 -11.879949
31.815613 -117.096172 -10.777634
30.191902 -118.575378 -12.921319
31.02664 -117.857811 -11.891488
29.46414 -119.130882 -11.819004
30.882217 -117.924476 -13.971937
30.191902 -118.575378 -12.921319
50.458412 -84.134956 -21.803957
51.005532 -84.154144 -21.091498
49.881332 -85.911781 -21.238042
49.869295 -84.045464 -22.441349
48.687492 -85.788925 -22.529642
49.222574 -83.941795 -23.020489
50.458412 -84.134956 -21.803957
49.869295 -84.045464 -22.441349
48.169773 -95.73803 -11.721315
48.895973 -93.993633 -11.295986
48.432316 -95.254544 -10.502793
47.357121 -97.508664 -12.159176
46.529478 -99.222496 -12.609234
47.820777 -96.247753 -12.952369
48.169773 -95.73803 -11.721315
47.357121 -97.508664 -12.159176
36.960417 -112.15276 -9.201901
36.189121 -112.669433 -8.140054
35.531332 -113.533466 -9.406788
36.960417 -112.15276 -9.201901
37.711312 -111.588696 -10.204887
37.045111 -112.387695 -13.568067
36.315338 -113.144554 -12.633572
35.568079 -113.818382 -13.773467
37.746389 -111.572754 -14.460898
36.99132 -112.128685 -15.53687
38.439858 -110.639916 -15.289806
37.045111 -112.387695 -13.568067
37.746389 -111.572754 -14.460898
42.348116 -105.285424 -16.177826
41.099715 -106.905987 -16.534969
43.541279 -103.599171 -15.817993
42.348116 -105.285424 -16.177826
42.896124 -104.035564 -16.889372
44.621588 -101.917518 -15.40269
43.541279 -103.599171 -15.817993
45.125056 -100.606423 -16.119793
45.657356 -100.174629 -14.992944
44.621588 -101.917518 -15.40269
36.289614 -99.203678 -23.293988
35.621758 -101.104309 -23.052981
34.68101 -100.784412 -23.122341
36.892139 -97.264526 -23.554479
37.832887 -97.584423 -23.485119
36.289614 -99.203678 -23.293988
37.534757 -95.275375 -23.814217
36.892139 -97.264526 -23.554479
28.853707 -106.947659 -22.113735
29.884315 -107.353878 -22.174747
28.123742 -108.682899 -21.885939
29.636322 -105.164978 -22.315677
28.853707 -106.947659 -22.113735
30.367676 -103.317039 -22.536095
31.345634 -103.770699 -22.622961
29.636322 -105.164978 -22.315677
52.26539 -85.289901 -15.910628
51.64605 -86.872116 -15.189087
51.382936 -87.089585 -16.222962
52.26539 -85.289901 -15.910628
52.963453 -83.728424 -16.701284
53.189913 -80.65456 -20.800438
52.070231 -82.383144 -20.897407
53.631247 -80.646732 -20.001831
53.189913 -80.65456 -20.800438
54.263309 -78.912323 -20.664865
54.017713 -80.572281 -19.128603
52.944317 -82.314518 -19.264175
53.631247 -80.646732 -20.001831
54.364004 -80.49176 -18.228907
54.017713 -80.572281 -19.128603
54.660927 -80.346466 -17.262467
53.627707 -82.094773 -17.424507
54.364004 -80.49176 -18.228907
3 0 20 18
3 2 23 21
3 73 72 24
3 1 28 26
3 3 31 29
3 3 33 31
3 3 35 33
3 74 38 75
3 76 75 36
3 74 75 76
3 77 40 78
3 79 78 38
3 77 78 79
3 80 43 81
3 82 81 41
3 80 81 82
3 4 46 44
3 83 48 84
3 86 85 48
3 8 87 88
3 9 89 91
3 91 90 19
3 89 90 91
3 9 92 93
3 94 50 95
3 94 95 96
3 98 97 50
3 11 53 51
3 13 54 22
3 13 55 54
3 5 56 45
3 99 57 100
3 101 100 25
3 99 100 101
3 103 102 57
3 104 58 105
3 106 59 107
3 108 107 58
3 106 107 108
3 10 109 111
3 109 110 111
3 113 112 27
3 6 60 47
3 115 114 30
3 14 61 32
3 14 62 61
3 14 63 62
3 15 64 34
3 15 65 64
3 7 66 49
3 16 67 37
3 16 68 67
3 16 69 68
3 117 116 39
3 12 70 52
3 17 71 42
3 17 118 120
3 120 119 71
3 118 119 120
3 122 121 4
3 18 19 8
3 20 19 18
3 20 9 19
3 21 22 11
3 23 22 21
3 23 13 22
3 24 25 5
3 123 25 124
3 125 124 24
3 123 124 125
3 127 126 25
3 26 27 10
3 28 27 26
3 28 128 130
3 130 129 27
3 128 129 130
3 29 30 6
3 31 30 29
3 31 131 133
3 133 132 30
3 131 132 133
3 31 134 136
3 134 32 135
3 134 135 136
3 33 32 31
3 33 14 32
3 33 34 14
3 35 34 33
3 35 15 34
3 36 37 7
3 38 37 36
3 38 16 37
3 38 39 16
3 40 39 38
3 40 137 139
3 139 138 39
3 137 138 139
3 41 42 12
3 43 42 41
3 43 17 42
3 44 45 2
3 46 45 44
3 46 5 45
3 140 46 141
3 142 141 4
3 140 141 142
3 143 46 144
3 145 5 146
3 147 146 46
3 145 146 147
3 148 24 149
3 150 149 5
3 148 149 150
3 151 24 152
3 155 154 24
3 153 154 155
3 156 47 157
3 158 157 1
3 156 157 158
3 159 47 160
3 161 6 162
3 163 162 47
3 161 162 163
3 164 6 165
3 166 29 167
3 168 167 6
3 166 167 168
3 48 169 171
3 169 29 170
3 169 170 171
3 48 3 29
3 48 49 3
3 172 49 173
3 174 173 48
3 172 173 174
3 175 7 176
3 177 176 49
3 175 176 177
3 178 7 179
3 180 36 181
3 182 181 7
3 180 181 182
3 183 36 184
3 186 185 36
3 19 187 189
3 189 188 8
3 187 188 189
3 191 190 19
3 192 10 193
3 50 194 195
3 50 196 198
3 196 10 197
3 196 197 198
3 50 26 10
3 199 26 200
3 201 200 50
3 199 200 201
3 202 1 203
3 204 203 26
3 202 203 204
3 205 1 206
3 205 206 207
3 209 208 1
3 51 52 0
3 53 52 51
3 53 12 52
3 22 53 11
3 54 53 22
3 54 12 53
3 54 41 12
3 55 41 54
3 55 210 212
3 212 211 41
3 210 211 212
3 45 23 2
3 56 23 45
3 56 13 23
3 25 56 5
3 57 56 25
3 57 13 56
3 57 55 13
3 213 55 214
3 215 214 57
3 213 214 215
3 217 216 55
3 218 8 219
3 218 219 220
3 58 221 222
3 58 223 225
3 223 8 224
3 223 224 225
3 58 18 8
3 59 18 58
3 59 0 18
3 27 226 228
3 228 227 10
3 226 227 228
3 230 229 27
3 47 28 1
3 60 28 47
3 60 231 233
3 233 232 28
3 231 232 233
3 30 60 6
3 234 60 235
3 236 235 30
3 234 235 236
3 238 237 60
3 32 239 240
3 61 241 243
3 243 242 32
3 241 242 243
3 61 244 245
3 61 246 248
3 246 59 247
3 246 247 248
3 62 59 61
3 62 0 59
3 62 51 0
3 63 51 62
3 63 11 51
3 34 63 14
3 64 63 34
3 64 11 63
3 64 21 11
3 65 21 64
3 65 2 21
3 49 35 3
3 66 35 49
3 66 15 35
3 37 66 7
3 67 66 37
3 67 15 66
3 67 65 15
3 68 65 67
3 68 2 65
3 68 44 2
3 69 44 68
3 69 4 44
3 39 69 16
3 249 69 250
3 251 250 39
3 249 250 251
3 252 4 253
3 254 253 69
3 252 253 254
3 256 255 4
3 257 40 258
3 257 258 259
3 260 40 261
3 264 263 40
3 262 263 264
3 52 20 0
3 70 20 52
3 70 9 20
3 42 70 12
3 71 70 42
3 71 9 70
3 71 265 267
3 267 266 9
3 265 266 267
3 269 268 71
3 270 43 271
3 272 43 273
3 272 273 274
3 275 17 276
3 277 276 43
3 275 276 277
3 278 17 279
3 282 281 17
3 280 281 282
