ply
format ascii 1.0
element vertex 685
property float x
property float y
property float z
element face 647
property list uchar int vertex_index
end_header
9.998684 64.695969 -32.218971
4.757772 75.901688 -29.055029
28.197561 35.128887 -28.282503
25.967995 23.560497 -31.09078
37.203312 73.832993 -14.605633
6.982426 51.358734 -35.054306
12.271032 37.570675 -33.429329
33.918861 44.344112 -23.644773
41.794807 62.963242 -18.702749
41.055084 51.244164 -19.044291
19.201355 22.955685 -31.11706
19.773472 79.108261 -21.978067
8.141315 58.196533 -34.319084
10.78145 51.227997 -34.149879
30.408924 45.937431 -25.962446
34.286232 50.189392 -23.648008
42.484344 69.252289 -13.130596
39.980633 68.870346 -17.06378
44.71077 64.217583 -15.493031
38.707893 45.933609 -17.840536
7.216644 70.983757 -31.282473
5.466129 64.404495 -33.815689
16.10141 36.717701 -32.892197
15.427614 30.164825 -32.199768
19.18808 29.725487 -31.973055
9.683651 76.644913 -27.864344
24.51651 35.665569 -30.217726
23.015848 29.622494 -31.224421
26.579617 29.575916 -30.009108
9.569941 44.743111 -34.426636
13.367311 43.953384 -33.640076
27.059729 41.119434 -28.313986
30.723396 40.053993 -26.048525
33.223351 38.611008 -23.119425
33.953346 72.959206 -18.428919
36.409904 66.929779 -20.031752
45.483276 58.799431 -16.684042
42.227085 56.903214 -19.389647
37.473827 48.083733 -21.32102
35.844086 42.545109 -20.449896
22.668373 23.140648 -31.303686
23.403234 77.829636 -20.988062
8.981756 61.501335 -33.416382
10.340996 58.025032 -33.485756
11.387236 61.190804 -32.368233
43.739349 66.826241 -14.438482
8.595028 67.984352 -31.880869
6.256516 67.785316 -32.683479
7.607719 64.777328 -33.17112
6.793848 61.425629 -34.180611
17.59272 33.182529 -32.440468
19.610641 32.963428 -32.027397
14.380997 78.441849 -24.969427
11.196547 78.986122 -25.922251
12.66604 76.301247 -26.880774
11.121744 73.801521 -28.68799
26.444876 35.433441 -29.310087
25.512585 32.595745 -30.096678
27.264812 32.423824 -29.225996
7.945538 44.801136 -34.501457
8.280073 48.133125 -34.794266
12.961613 50.748764 -33.316757
12.071104 47.60408 -33.92662
24.879726 41.567837 -29.299719
26.427195 44.195198 -28.157827
32.351017 45.161896 -24.891676
30.613131 42.969692 -26.078936
32.255772 42.273235 -24.847216
32.122898 39.389713 -24.676451
33.546555 41.503277 -23.417707
34.137535 75.827347 -15.345377
32.460945 75.498146 -17.374105
35.703808 73.599464 -16.633005
41.03437 65.985764 -17.993704
38.313961 68.096893 -18.658953
39.283657 64.992149 -19.403395
46.806335 59.250786 -15.017939
43.572968 55.216896 -18.132196
41.834946 54.010468 -19.344133
39.984276 52.564911 -20.45669
38.063454 50.928001 -21.527998
39.281555 49.747719 -20.19145
37.260448 44.312897 -19.141905
35.113857 39.66869 -19.942621
3.791517 77.766563 -27.349474
2.899733 74.704597 -29.175585
10.569931 37.984512 -33.451691
12.028358 34.299438 -32.804504
17.240803 26.508259 -31.600164
15.459693 26.7374 -31.449488
17.450806 23.020195 -30.879213
24.461811 26.522747 -31.04624
22.699139 26.424866 -31.35882
24.34763 23.341438 -31.245607
17.793999 77.559502 -23.90288
21.346134 76.418159 -22.810884
28.52487 73.565216 -20.831259
16.232819 80.160736 -22.958174
7.474808 54.807175 -34.87339
8.787592 51.471138 -34.73407
9.474504 54.777267 -34.292099
11.667387 54.418701 -33.437729
28.157011 46.675789 -26.936228
32.300312 48.12838 -24.779345
34.200504 47.214584 -23.727808
39.991467 71.638611 -13.880539
38.687298 71.514198 -15.929674
41.37339 69.24659 -15.218395
42.526276 66.595421 -16.342276
43.383354 63.77552 -17.221487
39.967213 48.575226 -18.521833
5.917662 73.635696 -30.357504
3.844286 72.780815 -30.729204
4.981863 70.46714 -31.887602
6.148441 57.957581 -34.858925
14.11977 37.129356 -33.246704
13.774815 33.870403 -32.828796
15.635705 33.488071 -32.711464
17.280472 29.895905 -32.155327
19.057018 26.386803 -31.640184
11.197897 67.748833 -30.793974
5.842043 78.716393 -27.165022
8.326233 79.104347 -26.676344
7.029306 76.534935 -28.608839
8.356434 73.955803 -29.661715
9.764191 71.008995 -30.368395
22.456692 35.870789 -31.028357
21.639883 32.817039 -31.492228
23.624554 32.709854 -30.848574
24.848589 29.617176 -30.675016
26.149162 26.61097 -30.623907
27.748507 26.63501 -30.091066
27.523375 23.746414 -30.840425
35.574879 75.775703 -13.102478
38.440037 73.703178 -12.356117
41.024174 71.418411 -11.611252
9.229492 41.500618 -34.023712
10.884567 41.210995 -33.967842
10.082851 47.995193 -34.482292
11.37953 44.420471 -34.142982
12.712152 40.785751 -33.728531
14.700785 40.314831 -33.29512
23.545856 38.791344 -30.280909
25.671041 38.472305 -29.355574
27.625319 38.112179 -28.344133
28.650307 43.605366 -27.160036
29.025787 40.623501 -27.247923
29.359486 37.674206 -27.208952
30.572315 74.747337 -19.192026
31.992044 71.897446 -20.015638
37.108006 70.999115 -17.735979
35.278362 70.073387 -19.307768
33.250103 68.747559 -20.686472
46.512215 61.791801 -14.4433
45.316364 61.514122 -16.252768
43.877098 60.884232 -17.826136
45.16571 56.138367 -16.768686
43.950439 58.010071 -18.133043
42.207336 59.906502 -19.173231
36.119698 49.137619 -22.608183
35.672207 46.279297 -22.46715
38.326935 47.023857 -19.733564
36.686649 45.318504 -20.942461
35.080662 43.477268 -22.169054
34.487511 40.643608 -21.775953
34.051456 37.69503 -21.396021
13.650898 30.522949 -32.118233
21.114603 29.64399 -31.659082
20.886726 26.366711 -31.558802
20.946251 23.001575 -31.261377
19.967638 34.528577 -31.890365
18.898203 34.666758 -32.20554
14.285916 75.944577 -26.312134
13.523519 77.371548 -25.9251
15.143395 77.014878 -25.35646
13.412432 74.776794 -27.197416
14.285916 75.944577 -26.312134
7.63125 49.74593 -34.924286
7.47237 48.009025 -34.83482
6.823546 49.62183 -34.96484
13.599934 48.910572 -33.232975
14.139187 50.441876 -32.803459
26.053978 45.790382 -28.027832
25.224804 44.477083 -28.648386
40.884567 62.379452 -19.334396
39.628992 63.393906 -19.684719
40.539232 63.977695 -19.053072
41.445015 52.627316 -19.194212
42.296822 53.271218 -18.588881
41.906891 51.888065 -18.43896
6.174127 51.063415 -35.090935
6.326703 52.877674 -35.114647
6.823546 49.62183 -34.96484
6.174127 51.063415 -35.090935
19.396201 21.200815 -30.814281
18.520927 21.233071 -30.695358
18.32608 22.98794 -30.998137
24.176839 76.452759 -21.378874
25.216947 77.099914 -20.517788
27.777766 74.967704 -20.439386
26.737656 74.320549 -21.300472
18.003146 79.634499 -22.46812
17.202041 80.785927 -21.897795
18.972368 80.25969 -21.407742
12.202759 55.982738 -32.916851
11.004192 56.221867 -33.461742
11.539564 57.785904 -32.940865
12.856555 54.129074 -32.897644
12.202759 55.982738 -32.916851
33.293272 49.158886 -24.213676
32.16946 49.679848 -24.655554
33.16242 50.710354 -24.089886
4.838028 65.741733 -33.487781
5.233222 67.432144 -32.921677
5.861322 66.094905 -33.249584
4.52877 63.95583 -33.975662
4.838028 65.741733 -33.487781
5.151778 62.638923 -34.225014
4.52877 63.95583 -33.975662
12.61383 67.456829 -30.147072
11.891391 69.183689 -30.000963
6.475499 79.939717 -26.126484
5.344876 79.605537 -26.239224
11.174538 70.813771 -29.788173
10.442967 72.405258 -29.528192
11.853314 72.210033 -28.947971
11.891391 69.183689 -30.000963
10.481044 69.378914 -30.581184
11.174538 70.813771 -29.788173
28.384073 25.239748 -30.29229
28.505028 26.587819 -29.769253
29.140594 25.192557 -29.970476
28.271507 23.79545 -30.666969
27.635941 25.190712 -30.465746
28.384073 25.239748 -30.29229
28.22992 22.431441 -31.152586
28.271507 23.79545 -30.666969
34.711556 76.554771 -12.264436
34.012375 76.715046 -13.485131
38.932932 73.486709 -11.136579
37.605559 74.554382 -11.511374
40.225001 72.344326 -10.764147
39.732106 72.560795 -11.983684
38.932932 73.486709 -11.136579
23.051741 40.395262 -30.266466
22.430568 38.949922 -30.714392
30.78505 38.590595 -25.984225
30.103095 37.400701 -26.564438
30.041441 38.864099 -26.628739
32.654091 37.528021 -23.793732
32.103865 37.917373 -24.572245
32.673125 39.00036 -23.897938
33.158886 37.107384 -22.994978
32.654091 37.528021 -23.793732
35.369644 66.165428 -20.636555
33.789744 67.074318 -20.963915
34.830004 67.838669 -20.359112
47.216297 60.580933 -13.792059
46.992272 61.765411 -13.430231
44.764982 54.851692 -16.640888
45.509845 55.221165 -15.908237
41.28417 57.757236 -19.863739
41.274295 59.258881 -19.755531
42.217211 58.404858 -19.281439
34.353355 37.153614 -20.47325
34.582656 38.68186 -20.669321
34.884556 38.140444 -19.74655
33.982082 36.136715 -21.281706
34.353355 37.153614 -20.47325
2.619967 70.385044 -31.460109
2.998921 72.071987 -30.746818
3.465331 71.093872 -31.442495
14.591055 26.90229 -31.33547
15.581663 24.968179 -31.012124
22.592202 79.012058 -20.465491
21.588353 78.468948 -21.483064
20.777321 79.651371 -20.960493
24.414262 78.309116 -20.01461
22.592202 79.012058 -20.465491
25.216947 77.099914 -20.517788
24.414262 78.309116 -20.01461
20.777321 79.651371 -20.960493
18.972368 80.25969 -21.407742
12.062684 59.36879 -32.382103
11.539564 57.785904 -32.940865
10.864116 59.607918 -32.926994
34.203083 51.753792 -23.538969
33.16242 50.710354 -24.089886
44.209951 66.768281 -13.371328
43.111846 68.039265 -13.784539
43.582448 67.981304 -12.717385
44.756523 65.564995 -13.981233
44.209951 66.768281 -13.371328
45.242233 64.260666 -14.508507
44.22506 65.521912 -14.965757
44.756523 65.564995 -13.981233
17.889242 34.776308 -32.412075
16.847065 34.950115 -32.666333
17.143587 36.543894 -32.63794
18.601681 33.072979 -32.233933
17.889242 34.776308 -32.412075
18.898203 34.666758 -32.20554
12.788772 78.713986 -25.445839
12.037519 79.950214 -24.88792
13.629744 79.678078 -24.411509
12.640283 73.526931 -28.101025
11.893892 75.051384 -27.784382
13.412432 74.776794 -27.197416
11.853314 72.210033 -28.947971
12.640283 73.526931 -28.101025
7.305103 46.343031 -34.688416
7.231771 44.622635 -34.44899
8.112806 46.46713 -34.647862
7.305103 46.343031 -34.688416
7.47237 48.009025 -34.83482
13.15468 47.33823 -33.537906
12.516358 49.176422 -33.621689
13.599934 48.910572 -33.232975
13.802784 45.512882 -33.394634
12.719207 45.778732 -33.783348
13.15468 47.33823 -33.537906
14.443262 43.693523 -33.291348
13.802784 45.512882 -33.394634
24.45107 43.163403 -29.219332
23.718676 41.783508 -29.775872
25.653461 42.881518 -28.728773
24.45107 43.163403 -29.219332
25.224804 44.477083 -28.648386
33.29924 75.662746 -16.359741
31.64659 76.568325 -16.747737
32.484885 76.732925 -15.733373
38.301645 64.315349 -20.010345
36.864768 65.284165 -20.324524
37.84678 65.960964 -19.717574
38.301645 64.315349 -20.010345
39.628992 63.393906 -19.684719
47.32759 58.135818 -14.249028
47.363357 59.310425 -14.079379
46.699569 57.996868 -15.11903
47.32759 58.135818 -14.249028
46.03804 57.771191 -15.952082
46.144805 59.025109 -15.850991
46.699569 57.996868 -15.11903
43.165833 53.874432 -17.982912
43.968611 54.390957 -17.322643
42.703957 54.613682 -18.738164
43.165833 53.874432 -17.982912
42.296822 53.271218 -18.588881
41.091593 54.765004 -19.924755
41.287662 56.211377 -19.947512
42.031016 55.456841 -19.36689
40.166258 54.042225 -20.481033
41.091593 54.765004 -19.924755
40.909611 53.287689 -19.900411
39.173191 53.237339 -21.001489
40.166258 54.042225 -20.481033
39.023865 51.746456 -20.992344
38.21278 52.418884 -21.537143
39.173191 53.237339 -21.001489
37.357107 43.768007 -18.119065
37.98417 45.123253 -18.491221
38.08083 44.578363 -17.46838
36.758003 42.914545 -18.826822
37.357107 43.768007 -18.119065
36.049822 42.030651 -19.480818
36.552267 43.429003 -19.795901
36.758003 42.914545 -18.826822
35.684708 40.592441 -19.22718
35.478972 41.106899 -20.196258
36.049822 42.030651 -19.480818
35.300354 39.104816 -18.954736
35.684708 40.592441 -19.22718
34.884556 38.140444 -19.74655
35.300354 39.104816 -18.954736
2.991134 77.002167 -27.285992
3.425498 78.501423 -26.297554
2.545241 75.471183 -28.199047
2.991134 77.002167 -27.285992
3.345625 76.23558 -28.262529
2.177738 73.823296 -29.074736
2.545241 75.471183 -28.199047
10.486113 36.360354 -33.066944
9.798678 38.143425 -33.404736
11.215326 34.517817 -32.743351
10.486113 36.360354 -33.066944
11.299145 36.141975 -33.128097
11.992565 32.624502 -32.377207
11.215326 34.517817 -32.743351
16.57722 23.109577 -30.726986
15.581663 24.968179 -31.012124
16.45525 24.878798 -31.16435
17.663866 21.230415 -30.49295
16.79028 21.319797 -30.340723
16.57722 23.109577 -30.726986
17.663866 21.230415 -30.49295
18.520927 21.233071 -30.695358
18.55958 76.073467 -24.226593
16.849896 76.573704 -24.823187
20.335648 75.502796 -23.680595
18.55958 76.073467 -24.226593
19.570066 76.988831 -23.356882
22.095865 74.892902 -23.102413
20.335648 75.502796 -23.680595
23.148288 75.74702 -22.290285
22.374684 77.123897 -21.899473
24.176839 76.452759 -21.378874
22.095865 74.892902 -23.102413
23.148288 75.74702 -22.290285
27.457631 72.769741 -21.58852
26.737656 74.320549 -21.300472
29.204453 71.998173 -21.137556
27.457631 72.769741 -21.58852
15.464241 81.268223 -22.311115
17.202041 80.785927 -21.897795
14.555654 80.537521 -23.405882
15.464241 81.268223 -22.311115
15.306908 79.301293 -23.9638
13.629744 79.678078 -24.411509
14.555654 80.537521 -23.405882
16.849896 76.573704 -24.823187
15.143395 77.014878 -25.35646
16.087498 78.000675 -24.436153
28.528951 33.636988 -28.253588
28.974117 34.919878 -27.698475
13.503668 52.294106 -32.837158
12.3145 52.583732 -33.377243
12.856555 54.129074 -32.897644
14.139187 50.441876 -32.803459
13.503668 52.294106 -32.837158
27.831444 48.278835 -26.776733
26.918886 47.030678 -27.417032
29.097673 47.846913 -26.322716
27.831444 48.278835 -26.776733
30.223629 47.477733 -25.835825
29.282967 46.30661 -26.449337
29.097673 47.846913 -26.322716
31.169323 48.573208 -25.244274
32.16946 49.679848 -24.655554
31.354618 47.032905 -25.370895
30.223629 47.477733 -25.835825
31.169323 48.573208 -25.244274
41.31682 50.591766 -18.15951
41.906891 51.888065 -18.43896
40.772885 49.257297 -17.898281
40.511149 49.909695 -18.783062
41.31682 50.591766 -18.15951
40.065604 47.977836 -17.523161
40.772885 49.257297 -17.898281
39.435944 46.657028 -17.182512
39.337553 47.254418 -18.181185
40.065604 47.977836 -17.523161
38.700103 45.349486 -16.761274
39.435944 46.657028 -17.182512
38.08083 44.578363 -17.46838
38.700103 45.349486 -16.761274
4.03412 69.937035 -32.021693
3.465331 71.093872 -31.442495
4.413074 71.623977 -31.308403
4.595895 68.773056 -32.523738
5.61919 69.126228 -32.28554
5.233222 67.432144 -32.921677
4.03412 69.937035 -32.021693
4.595895 68.773056 -32.523738
5.815637 61.14949 -34.407474
5.151778 62.638923 -34.225014
6.129988 62.915062 -33.99815
5.492934 59.415466 -34.746631
5.815637 61.14949 -34.407474
6.471144 59.691605 -34.519768
5.258631 57.586163 -34.982197
5.492934 59.415466 -34.746631
5.909711 56.177098 -35.016956
5.258631 57.586163 -34.982197
6.572894 54.601895 -35.024189
5.909711 56.177098 -35.016956
6.811625 56.382378 -34.866157
7.228617 53.082954 -34.963848
6.326703 52.877674 -35.114647
6.572894 54.601895 -35.024189
25.993094 22.009456 -31.274166
26.732533 22.18676 -31.295698
11.906766 65.998604 -30.903797
11.30716 64.472172 -31.616295
10.598291 66.222401 -31.506473
11.906766 65.998604 -30.903797
12.61383 67.456829 -30.147072
4.319612 79.130623 -26.331449
3.425498 78.501423 -26.297554
4.81678 78.241478 -27.257248
4.319612 79.130623 -26.331449
5.344876 79.605537 -26.239224
10.502231 80.132405 -25.254194
12.037519 79.950214 -24.88792
9.067074 80.191517 -25.631241
10.502231 80.132405 -25.254194
9.76139 79.045234 -26.299298
7.717594 80.133693 -25.882145
9.067074 80.191517 -25.631241
7.084138 78.91037 -26.920683
6.475499 79.939717 -26.126484
7.717594 80.133693 -25.882145
22.048288 34.343914 -31.260292
20.98226 34.455383 -31.62278
21.390664 35.982258 -31.390845
28.062576 32.284456 -28.725334
27.731186 33.776356 -28.75425
28.528951 33.636988 -28.253588
27.72817 30.93438 -29.223802
28.062576 32.284456 -28.725334
27.385573 29.510426 -29.615358
26.922214 30.99987 -29.617552
27.72817 30.93438 -29.223802
27.970018 28.039973 -29.656337
28.505028 26.587819 -29.769253
27.164062 28.105463 -30.050087
27.385573 29.510426 -29.615358
27.970018 28.039973 -29.656337
27.510224 22.279719 -31.170521
26.732533 22.18676 -31.295698
26.745685 23.653455 -30.965602
27.510224 22.279719 -31.170521
28.22992 22.431441 -31.152586
33.293703 76.740868 -14.606581
32.484885 76.732925 -15.733373
34.856207 75.801525 -14.223927
33.293703 76.740868 -14.606581
34.012375 76.715046 -13.485131
36.172979 75.590644 -11.884555
34.711556 76.554771 -12.264436
37.007458 74.739441 -12.729297
36.172979 75.590644 -11.884555
37.605559 74.554382 -11.511374
41.416117 71.164799 -10.387617
40.225001 72.344326 -10.764147
42.176772 70.176495 -11.22291
41.416117 71.164799 -10.387617
42.906857 69.093434 -11.982582
41.754259 70.33535 -12.370924
42.176772 70.176495 -11.22291
43.582448 67.981304 -12.717385
42.906857 69.093434 -11.982582
7.854211 43.170589 -34.217495
7.231771 44.622635 -34.44899
8.496188 41.520331 -33.978623
7.854211 43.170589 -34.217495
8.587515 43.150877 -34.262585
9.128458 39.901478 -33.690746
8.496188 41.520331 -33.978623
9.899712 39.742565 -33.737702
9.798678 38.143425 -33.404736
9.128458 39.901478 -33.690746
15.109999 41.874246 -33.11887
14.034048 42.134107 -33.467598
14.443262 43.693523 -33.291348
15.76434 40.088158 -32.992817
15.109999 41.874246 -33.11887
16.464652 38.289593 -32.791356
15.401098 38.516266 -33.093659
15.76434 40.088158 -32.992817
17.143587 36.543894 -32.63794
16.464652 38.289593 -32.791356
12.001435 62.719589 -31.690926
10.69296 62.943387 -32.293602
11.30716 64.472172 -31.616295
12.689588 60.890763 -31.735408
12.001435 62.719589 -31.690926
12.062684 59.36879 -32.382103
12.689588 60.890763 -31.735408
21.885987 37.489645 -31.088116
21.390664 35.982258 -31.390845
23.001274 37.331067 -30.654633
21.885987 37.489645 -31.088116
22.430568 38.949922 -30.714392
24.212791 40.179591 -29.790314
23.051741 40.395262 -30.266466
23.718676 41.783508 -29.775872
27.292103 45.435493 -27.547027
26.053978 45.790382 -28.027832
26.918886 47.030678 -27.417032
29.555079 36.192538 -27.161699
28.974117 34.919878 -27.698475
28.778523 36.401546 -27.745728
29.555079 36.192538 -27.161699
30.103095 37.400701 -26.564438
31.484801 38.258455 -25.298188
30.78505 38.590595 -25.984225
31.423147 39.721853 -25.362488
31.484801 38.258455 -25.298188
32.103865 37.917373 -24.572245
30.736519 76.360543 -17.77551
31.64659 76.568325 -16.747737
29.792204 75.985138 -18.684471
30.736519 76.360543 -17.77551
31.51663 75.122742 -18.283065
28.801488 75.558765 -19.61977
29.792204 75.985138 -18.684471
29.548592 74.156277 -20.011643
27.777766 74.967704 -20.439386
28.801488 75.558765 -19.61977
30.93804 71.164288 -20.729745
29.204453 71.998173 -21.137556
30.258457 72.731331 -20.423448
31.56707 69.589344 -21.065162
30.93804 71.164288 -20.729745
32.621074 70.322502 -20.351055
32.172892 67.904022 -21.313052
31.56707 69.589344 -21.065162
32.172892 67.904022 -21.313052
33.789744 67.074318 -20.963915
35.369644 66.165428 -20.636555
36.864768 65.284165 -20.324524
46.142956 63.047775 -13.983642
46.992272 61.765411 -13.430231
45.611492 63.004692 -14.968166
45.242233 64.260666 -14.508507
46.142956 63.047775 -13.983642
46.659275 60.521293 -14.730619
47.216297 60.580933 -13.792059
47.363357 59.310425 -14.079379
45.879257 56.440658 -15.994404
45.509845 55.221165 -15.908237
45.324493 57.468899 -16.726364
46.03804 57.771191 -15.952082
45.879257 56.440658 -15.994404
44.369339 55.677632 -17.450441
44.764982 54.851692 -16.640888
43.968611 54.390957 -17.322643
41.090832 60.851082 -19.569637
40.884567 62.379452 -19.334396
42.001071 61.434872 -18.93799
41.090832 60.851082 -19.569637
41.274295 59.258881 -19.755531
41.28417 57.757236 -19.863739
41.287662 56.211377 -19.947512
35.304783 51.155548 -23.112789
34.203083 51.753792 -23.538969
37.193394 51.524853 -22.052784
38.21278 52.418884 -21.537143
36.221516 50.629661 -22.592877
37.193394 51.524853 -22.052784
37.091576 50.03281 -22.068091
35.202965 49.663505 -23.128096
35.304783 51.155548 -23.112789
36.221516 50.629661 -22.592877
33.572938 36.649395 -22.133276
33.158886 37.107384 -22.994978
33.637404 38.153019 -22.257723
33.572938 36.649395 -22.133276
33.982082 36.136715 -21.281706
2.526645 73.033878 -29.970009
3.372009 73.742706 -29.952395
2.998921 72.071987 -30.746818
2.177738 73.823296 -29.074736
2.526645 73.033878 -29.970009
12.803835 30.736258 -32.034072
11.992565 32.624502 -32.377207
12.839628 32.411194 -32.461368
13.686657 28.795065 -31.669843
14.555295 28.630175 -31.78386
14.591055 26.90229 -31.33547
12.803835 30.736258 -32.034072
13.686657 28.795065 -31.669843
20.625262 32.890234 -31.759813
19.967638 34.528577 -31.890365
20.98226 34.455383 -31.62278
25.182912 21.899927 -31.351579
25.157812 23.450968 -31.168194
25.993094 22.009456 -31.274166
24.417595 21.722814 -31.291716
25.182912 21.899927 -31.351579
23.577966 21.622419 -31.320755
23.508001 23.241043 -31.274646
24.417595 21.722814 -31.291716
22.785452 21.468109 -31.221859
23.577966 21.622419 -31.320755
21.924391 21.398573 -31.200705
21.807312 23.071112 -31.282531
22.785452 21.468109 -31.221859
21.107081 21.284879 -31.062059
21.924391 21.398573 -31.200705
20.234634 21.261934 -30.9899
20.073803 22.97863 -31.189218
21.107081 21.284879 -31.062059
19.396201 21.200815 -30.814281
20.234634 21.261934 -30.9899
3 0 44 42
3 0 48 46
3 0 42 48
3 170 51 171
3 172 54 173
3 174 173 52
3 172 173 174
3 176 175 54
3 2 58 56
3 5 177 179
3 177 60 178
3 177 178 179
3 181 180 61
3 182 64 183
3 7 67 65
3 7 69 67
3 4 72 70
3 8 75 73
3 8 184 186
3 186 185 75
3 184 185 186
3 9 187 189
3 187 78 188
3 187 188 189
3 9 79 78
3 9 81 79
3 1 85 84
3 5 190 191
3 5 192 193
3 6 87 86
3 10 90 88
3 10 194 196
3 196 195 90
3 194 195 196
3 3 93 91
3 11 95 94
3 198 197 41
3 199 96 200
3 11 201 203
3 201 97 202
3 201 202 203
3 11 94 97
3 12 100 98
3 204 101 205
3 206 205 43
3 204 205 206
3 208 207 101
3 15 209 211
3 209 103 210
3 209 210 211
3 15 104 103
3 16 107 105
3 18 108 45
3 18 109 108
3 20 113 111
3 21 212 214
3 214 213 47
3 212 213 214
3 21 215 216
3 21 217 218
3 12 114 49
3 12 98 114
3 22 117 115
3 24 118 50
3 24 119 118
3 220 219 120
3 221 121 222
3 25 122 53
3 25 123 122
3 25 124 123
3 223 125 224
3 225 224 55
3 223 224 225
3 226 120 227
3 228 227 125
3 226 227 228
3 26 128 126
3 28 129 57
3 28 130 129
3 229 131 230
3 229 230 231
3 232 132 233
3 234 233 131
3 232 233 234
3 236 235 132
3 237 133 238
3 239 134 240
3 241 135 242
3 243 242 134
3 241 242 243
3 29 136 59
3 29 137 136
3 13 138 99
3 30 139 62
3 30 140 139
3 30 141 140
3 244 142 245
3 31 143 63
3 31 144 143
3 14 145 102
3 32 146 66
3 32 147 146
3 32 246 248
3 248 247 147
3 246 247 248
3 33 249 251
3 251 250 68
3 249 250 251
3 33 252 253
3 34 148 71
3 34 149 148
3 17 150 106
3 35 151 74
3 35 152 151
3 35 254 256
3 256 255 152
3 254 255 256
3 257 153 258
3 36 154 76
3 36 155 154
3 259 156 260
3 37 157 77
3 37 158 157
3 37 261 263
3 263 262 158
3 261 262 263
3 38 159 80
3 38 160 159
3 19 161 110
3 39 162 82
3 39 163 162
3 39 164 163
3 264 165 265
3 266 265 83
3 264 265 266
3 268 267 165
3 271 270 112
3 269 270 271
3 23 166 116
3 273 272 89
3 27 167 127
3 40 168 92
3 40 169 168
3 274 41 275
3 276 275 11
3 274 275 276
3 277 41 278
3 280 279 41
3 281 11 282
3 42 43 12
3 44 43 42
3 44 283 285
3 285 284 43
3 283 284 285
3 286 15 287
3 288 45 289
3 290 289 16
3 288 289 290
3 291 45 292
3 293 18 294
3 295 294 45
3 293 294 295
3 46 47 20
3 48 47 46
3 48 21 47
3 48 49 21
3 42 49 48
3 42 12 49
3 296 50 297
3 298 297 22
3 296 297 298
3 51 299 301
3 299 50 300
3 299 300 301
3 51 24 50
3 52 302 304
3 302 53 303
3 302 303 304
3 54 53 52
3 54 25 53
3 54 55 25
3 305 55 306
3 307 306 54
3 305 306 307
3 309 308 55
3 56 57 26
3 58 57 56
3 58 28 57
3 310 59 311
3 60 312 314
3 312 59 313
3 312 313 314
3 60 29 59
3 61 62 13
3 315 62 316
3 317 316 61
3 315 316 317
3 318 30 319
3 320 319 62
3 318 319 320
3 322 321 30
3 323 63 324
3 64 325 327
3 325 63 326
3 325 326 327
3 64 31 63
3 65 66 14
3 67 66 65
3 67 32 66
3 67 68 32
3 69 68 67
3 69 33 68
3 70 328 330
3 328 71 329
3 328 329 330
3 72 71 70
3 72 34 71
3 73 74 17
3 75 74 73
3 75 35 74
3 75 331 333
3 333 332 35
3 331 332 333
3 335 334 75
3 336 76 337
3 338 76 339
3 340 36 341
3 342 341 76
3 340 341 342
3 343 77 344
3 78 345 347
3 345 77 346
3 345 346 347
3 78 37 77
3 78 348 350
3 350 349 37
3 348 349 350
3 79 351 353
3 353 352 78
3 351 352 353
3 79 354 355
3 79 356 358
3 356 80 357
3 356 357 358
3 81 80 79
3 81 38 80
3 359 82 360
3 361 360 19
3 359 360 361
3 362 82 363
3 364 39 365
3 366 365 82
3 364 365 366
3 367 83 368
3 369 368 39
3 367 368 369
3 370 83 371
3 373 372 83
3 84 374 375
3 85 376 378
3 378 377 84
3 376 377 378
3 85 379 380
3 86 381 382
3 87 383 385
3 385 384 86
3 383 384 385
3 87 386 387
3 88 89 23
3 90 89 88
3 90 388 390
3 390 389 89
3 388 389 390
3 90 391 393
3 391 392 393
3 395 394 90
3 91 92 27
3 93 92 91
3 93 40 92
3 94 396 397
3 95 398 400
3 400 399 94
3 398 399 400
3 95 401 402
3 41 95 11
3 403 95 404
3 405 404 41
3 403 404 405
3 407 406 95
3 96 408 409
3 96 410 411
3 97 412 413
3 97 414 415
3 97 416 418
3 416 52 417
3 416 417 418
3 94 52 97
3 94 419 421
3 421 420 52
3 419 420 421
3 423 422 2
3 98 99 5
3 100 99 98
3 100 13 99
3 43 100 12
3 101 100 43
3 101 13 100
3 101 61 13
3 424 61 425
3 426 425 101
3 424 425 426
3 428 427 61
3 429 102 430
3 431 102 432
3 433 14 434
3 435 434 102
3 433 434 435
3 103 436 437
3 103 438 440
3 438 14 439
3 438 439 440
3 103 65 14
3 104 65 103
3 104 7 65
3 105 106 4
3 107 106 105
3 107 17 106
3 45 107 16
3 108 107 45
3 108 17 107
3 108 73 17
3 109 73 108
3 109 8 73
3 441 9 442
3 443 110 444
3 445 444 9
3 443 444 445
3 446 110 447
3 448 19 449
3 450 449 110
3 448 449 450
3 451 19 452
3 454 453 19
3 111 112 1
3 113 112 111
3 113 455 457
3 457 456 112
3 455 456 457
3 47 113 20
3 458 113 459
3 460 459 47
3 458 459 460
3 462 461 113
3 49 463 465
3 465 464 21
3 463 464 465
3 114 466 468
3 468 467 49
3 466 467 468
3 114 469 470
3 114 471 472
3 98 473 475
3 475 474 114
3 473 474 475
3 98 476 478
3 476 5 477
3 476 477 478
3 115 116 6
3 117 116 115
3 117 23 116
3 50 117 22
3 118 117 50
3 118 23 117
3 118 88 23
3 119 88 118
3 119 10 88
3 480 479 3
3 120 481 483
3 483 482 0
3 481 482 483
3 485 484 120
3 486 84 487
3 121 488 490
3 488 84 489
3 488 489 490
3 121 1 84
3 53 491 492
3 122 493 495
3 495 494 53
3 493 494 495
3 122 496 497
3 122 498 500
3 498 121 499
3 498 499 500
3 123 121 122
3 123 1 121
3 123 111 1
3 124 111 123
3 124 20 111
3 55 124 25
3 125 124 55
3 125 20 124
3 125 46 20
3 120 46 125
3 120 0 46
3 126 501 503
3 501 127 502
3 501 502 503
3 128 127 126
3 128 27 127
3 57 128 26
3 129 128 57
3 129 27 128
3 129 91 27
3 130 91 129
3 130 3 91
3 504 58 505
3 506 505 2
3 504 505 506
3 507 58 508
3 509 28 510
3 511 510 58
3 509 510 511
3 131 512 513
3 131 514 516
3 514 28 515
3 514 515 516
3 131 130 28
3 132 130 131
3 132 3 130
3 132 517 519
3 519 518 3
3 517 518 519
3 521 520 132
3 522 70 523
3 133 524 526
3 524 70 525
3 524 525 526
3 133 4 70
3 527 133 528
3 134 529 531
3 529 133 530
3 529 530 531
3 134 4 133
3 134 105 4
3 135 105 134
3 135 16 105
3 532 135 533
3 534 135 535
3 536 16 537
3 538 537 135
3 536 537 538
3 540 539 16
3 59 541 542
3 136 543 545
3 545 544 59
3 543 544 545
3 136 546 547
3 136 548 550
3 548 86 549
3 548 549 550
3 137 86 136
3 137 6 86
3 99 60 5
3 138 60 99
3 138 29 60
3 62 138 13
3 139 138 62
3 139 29 138
3 139 137 29
3 140 137 139
3 140 6 137
3 140 115 6
3 141 115 140
3 141 22 115
3 551 141 552
3 553 552 30
3 551 552 553
3 554 141 555
3 556 22 557
3 558 557 141
3 556 557 558
3 560 559 22
3 561 44 562
3 563 562 0
3 561 562 563
3 564 44 565
3 567 566 44
3 568 126 569
3 142 570 572
3 570 126 571
3 570 571 572
3 142 26 126
3 63 573 575
3 573 142 574
3 573 574 575
3 143 142 63
3 143 26 142
3 143 56 26
3 144 56 143
3 144 2 56
3 102 576 578
3 576 64 577
3 576 577 578
3 145 64 102
3 145 31 64
3 66 145 14
3 146 145 66
3 146 31 145
3 146 144 31
3 147 144 146
3 147 2 144
3 147 579 581
3 581 580 2
3 579 580 581
3 583 582 147
3 68 584 586
3 586 585 32
3 584 585 586
3 588 587 68
3 71 589 590
3 148 591 593
3 593 592 71
3 591 592 593
3 148 594 595
3 148 596 598
3 596 96 597
3 596 597 598
3 149 96 148
3 149 599 601
3 601 600 96
3 599 600 601
3 106 72 4
3 150 72 106
3 150 34 72
3 74 150 17
3 151 150 74
3 151 34 150
3 151 149 34
3 152 149 151
3 152 602 604
3 604 603 149
3 602 603 604
3 152 605 606
3 608 607 152
3 610 609 35
3 153 611 612
3 153 613 615
3 613 18 614
3 613 614 615
3 76 616 618
3 616 153 617
3 616 617 618
3 154 153 76
3 154 18 153
3 154 109 18
3 155 109 154
3 155 8 109
3 156 619 620
3 156 621 623
3 621 36 622
3 621 622 623
3 77 624 626
3 624 156 625
3 624 625 626
3 157 156 77
3 157 36 156
3 157 155 36
3 158 155 157
3 158 8 155
3 158 627 629
3 629 628 8
3 627 628 629
3 631 630 158
3 633 632 37
3 634 15 635
3 80 636 637
3 159 638 640
3 640 639 80
3 638 639 640
3 159 641 643
3 641 15 642
3 641 642 643
3 159 104 15
3 160 104 159
3 160 7 104
3 110 81 9
3 161 81 110
3 161 38 81
3 82 161 19
3 162 161 82
3 162 38 161
3 162 160 38
3 163 160 162
3 163 7 160
3 163 69 7
3 164 69 163
3 164 33 69
3 83 164 39
3 165 164 83
3 165 33 164
3 165 644 646
3 646 645 33
3 644 645 646
3 648 647 165
3 112 85 1
3 649 85 650
3 651 650 112
3 649 650 651
3 653 652 85
3 116 87 6
3 166 87 116
3 166 654 656
3 656 655 87
3 654 655 656
3 89 166 23
3 657 166 658
3 659 658 89
3 657 658 659
3 661 660 166
3 127 662 664
3 662 51 663
3 662 663 664
3 167 51 127
3 167 24 51
3 92 167 27
3 168 167 92
3 168 24 167
3 168 119 24
3 169 119 168
3 169 10 119
3 665 93 666
3 667 666 3
3 665 666 667
3 668 93 669
3 670 40 671
3 672 671 93
3 670 671 672
3 673 40 674
3 675 169 676
3 677 676 40
3 675 676 677
3 678 169 679
3 680 10 681
3 682 681 169
3 680 681 682
3 684 683 10
