ply
format ascii 1.0
element vertex 401
property float x
property float y
property float z
element face 425
property list uchar int vertex_index
end_header
26.237247 -50.730114 -22.496977
27.14016 -77.567055 -21.449865
18.888882 -66.531219 -16.307661
18.014568 -81.919662 -16.008543
27.700565 -64.132378 -20.990908
32.292004 -45.537918 -29.001463
32.164204 -29.076363 -37.951195
37.36837 -20.935324 -44.3283
29.223103 -87.831116 -22.990675
23.179457 -58.589863 -19.194124
23.553223 -65.88163 -18.373224
27.324219 -57.151211 -21.586893
30.693691 -54.717499 -24.705126
29.584103 -48.53463 -25.458944
22.902317 -80.44017 -18.516497
17.679905 -88.982483 -16.992842
22.866024 -86.820457 -19.456625
27.660194 -83.211777 -22.21739
18.553921 -74.303482 -15.77622
23.35268 -73.331741 -18.100752
27.392748 -71.091522 -20.966108
30.618229 -67.645546 -24.431555
30.83375 -61.258953 -24.357016
33.187012 -51.395905 -28.414156
34.517639 -41.922909 -32.765938
19.052685 -59.143604 -17.196535
22.677483 -52.117405 -20.03034
25.3927 -45.528236 -23.086138
27.981943 -43.291882 -26.234266
30.444031 -40.402184 -29.750109
32.673565 -36.942535 -33.519333
34.899994 -33.099018 -37.138611
34.492344 -25.005413 -41.423019
37.482269 -29.093727 -40.182076
24.8776 -54.62587 -20.785112
25.310581 -57.992954 -20.312925
26.828815 -53.829262 -22.035299
28.6443 -52.802486 -23.450129
27.975592 -49.737286 -23.900537
25.104557 -79.173645 -19.918341
22.7934 -83.74147 -18.939775
25.095573 -82.296753 -20.323729
25.306238 -85.18589 -20.793375
27.275019 -80.509415 -21.815695
29.384239 -78.412949 -23.384619
29.062609 -75.64801 -23.086309
16.124401 -74.356552 -14.687838
18.758633 -70.407768 -15.961729
25.742992 -65.151382 -19.589293
23.519411 -69.621437 -18.151075
25.681734 -68.786736 -19.437296
25.492893 -72.371979 -19.448664
27.593935 -67.646004 -20.905737
29.251467 -66.208755 -22.556231
29.388952 -62.828465 -22.589434
31.660027 -50.072418 -26.80261
32.023434 -53.152592 -26.515482
32.874283 -48.408524 -28.670969
33.975967 -46.589958 -30.574305
33.433311 -43.790916 -30.892466
20.969246 -55.590271 -18.595945
21.035839 -52.552109 -18.869101
29.243509 -41.926376 -27.945158
29.455891 -38.25486 -30.03998
31.180862 -31.045069 -36.051727
31.471462 -34.799248 -33.859955
32.504993 -32.917732 -35.760536
33.763741 -35.054939 -35.378326
33.596287 -30.963659 -37.588051
35.861507 -22.953178 -42.946289
36.077858 -26.937275 -40.84613
37.508732 -24.921711 -42.234833
38.977421 -27.104599 -41.441559
15.466092 -82.150627 -14.792923
15.185039 -85.902084 -15.178774
26.508459 -90.177406 -21.764605
27.500038 -92.263741 -22.201952
21.16596 -62.574894 -17.711512
21.224075 -66.333542 -17.299154
23.429892 -62.178516 -18.739153
25.619953 -61.529205 -19.89316
27.624092 -60.611336 -21.223925
29.375378 -59.423134 -22.755087
29.13224 -56.057243 -23.050417
30.26062 -51.545738 -25.04524
31.022661 -47.128696 -27.170237
20.524464 -81.354691 -17.229151
17.788647 -85.542084 -16.422186
20.349117 -84.824715 -17.654413
20.318726 -88.089989 -18.203932
23.17234 -89.647881 -20.020521
25.77379 -87.817108 -21.286051
28.312464 -85.655167 -22.619139
15.794797 -78.286957 -14.628498
18.290649 -78.157974 -15.788382
21.17284 -70.155449 -17.011362
21.008743 -73.970932 -16.894323
20.770376 -77.721222 -16.968008
23.118156 -76.955078 -18.227167
25.267002 -75.850975 -19.616083
27.206553 -74.414505 -21.155962
28.980854 -72.667038 -22.828852
29.076231 -69.505676 -22.643156
30.709356 -64.50029 -24.349451
32.114048 -59.457657 -26.230291
30.865046 -57.977531 -24.472712
32.142685 -56.302151 -26.325872
33.302505 -54.436581 -28.2348
34.283783 -49.48922 -30.313501
35.060127 -44.657223 -32.425148
35.628017 -39.970566 -34.541626
18.966911 -62.747322 -16.749128
21.050074 -58.962517 -18.175417
22.887154 -55.204849 -19.657393
24.441334 -51.518257 -21.222101
22.681633 -49.411217 -20.213148
24.152699 -48.756805 -21.52434
25.702587 -47.939072 -22.87945
26.684875 -44.492222 -24.620382
27.262743 -46.942566 -24.321947
28.767801 -45.759407 -25.883509
30.169579 -44.390862 -27.574526
31.448298 -42.848328 -29.378962
30.463072 -36.585072 -31.938101
31.580379 -38.733723 -31.623487
32.617565 -41.152885 -31.254599
33.720966 -39.333076 -33.138924
34.82095 -37.421051 -34.959824
35.983334 -35.448658 -36.649734
33.26244 -27.055603 -39.752647
34.77853 -28.961483 -39.294289
36.128376 -31.102573 -38.749062
37.262497 -33.445198 -38.160767
15.007009 -89.498642 -15.756468
18.823757 -68.469493 -16.134695
17.59274 -70.409306 -15.45297
17.657864 -68.471031 -15.625936
20.313598 -52.7027 -18.280308
20.133823 -54.18397 -18.20707
29.07434 -37.350521 -30.103212
28.947998 -39.023868 -29.118183
36.614939 -21.944251 -43.637294
35.69182 -21.049974 -43.995865
36.445251 -20.041047 -44.68687
38.220825 -21.945087 -43.903602
38.291006 -23.93828 -42.856869
37.438551 -22.928517 -43.281566
29.795353 -88.78561 -23.151015
28.93382 -91.001923 -22.756653
28.36157 -90.047428 -22.596314
30.560044 -86.521435 -23.601911
29.795353 -88.78561 -23.151015
21.679549 -88.968345 -19.141775
20.4059 -89.603112 -18.515428
21.592375 -87.455223 -18.830278
23.019182 -88.234169 -19.738573
21.832707 -90.382058 -19.423723
21.679549 -88.968345 -19.141775
28.815647 -82.074211 -22.954279
29.141782 -83.295907 -23.155154
27.986329 -84.433472 -22.418264
30.436713 -77.233139 -24.175646
30.167593 -75.935643 -24.076205
18.014553 -60.940298 -16.4967
18.180266 -59.159626 -16.701639
19.009798 -60.945463 -16.972831
17.971666 -62.742157 -16.272996
18.014553 -60.940298 -16.4967
22.838149 -48.275032 -20.170179
22.014635 -49.667299 -19.557562
24.7727 -47.142521 -22.305239
24.151339 -47.581758 -21.562348
24.771339 -45.967474 -22.343246
27.333409 -43.892052 -25.427324
27.052813 -42.840514 -25.520321
27.701346 -42.240344 -26.327263
30.37634 -34.76325 -33.016822
29.964928 -35.666073 -32.030578
33.653351 -24.162405 -41.641475
34.290289 -23.113899 -42.470993
33.877392 -26.030508 -40.587833
33.038399 -25.1875 -40.80629
33.653351 -24.162405 -41.641475
38.086826 -30.266197 -39.829575
37.97694 -32.441933 -38.818921
37.372383 -31.269462 -39.171422
39.627731 -28.282311 -41.030678
39.794592 -26.140601 -42.001793
30.645489 -69.14542 -24.505703
29.826802 -71.656166 -23.704352
29.799542 -70.156292 -23.630204
30.006778 -74.553173 -23.92705
30.167593 -75.935643 -24.076205
29.223424 -77.030479 -23.235464
16.275624 -72.383697 -14.816025
15.002645 -74.263626 -14.136482
17.441517 -72.38216 -15.324783
16.275624 -72.383697 -14.816025
17.59274 -70.409306 -15.45297
19.142246 -57.479717 -17.370787
18.180266 -59.159626 -16.701639
20.100527 -55.703051 -18.070492
20.010965 -57.366938 -17.89624
19.142246 -57.479717 -17.370787
21.002542 -54.07119 -18.732523
20.100527 -55.703051 -18.070492
20.133823 -54.18397 -18.20707
25.415529 -44.532919 -23.062349
24.771339 -45.967474 -22.343246
28.211024 -41.542379 -27.215326
27.701346 -42.240344 -26.327263
28.841807 -40.859626 -28.070772
28.612726 -42.609129 -27.089712
28.211024 -41.542379 -27.215326
29.3497 -40.090618 -28.992569
28.841807 -40.859626 -28.070772
28.947998 -39.023868 -29.118183
31.326162 -32.922159 -34.955841
30.880535 -33.870339 -33.977749
30.735235 -31.993249 -35.073635
34.974871 -22.087781 -43.232628
35.69182 -21.049974 -43.995865
35.176926 -23.979295 -42.184654
34.290289 -23.113899 -42.470993
34.974871 -22.087781 -43.232628
39.025351 -25.029724 -42.460232
38.243077 -26.013155 -41.838196
38.291006 -23.93828 -42.856869
39.794592 -26.140601 -42.001793
39.025351 -25.029724 -42.460232
14.059054 -84.038276 -14.328808
14.238882 -82.113323 -14.16125
13.918527 -85.914005 -14.521733
14.059054 -84.038276 -14.328808
15.325565 -84.026355 -14.985848
13.790723 -87.77676 -14.803072
13.918527 -85.914005 -14.521733
16.333295 -90.941304 -16.733105
17.71426 -90.592693 -17.33007
25.540929 -92.331204 -21.441636
25.12407 -91.19138 -21.175477
26.036718 -93.374371 -21.660309
25.540929 -92.331204 -21.441636
27.004248 -91.220574 -21.983278
26.581387 -94.375916 -21.899469
26.036718 -93.374371 -21.660309
28.113001 -93.172314 -22.392685
26.581387 -94.375916 -21.899469
28.113001 -93.172314 -22.392685
28.93382 -91.001923 -22.756653
31.370745 -66.600506 -25.342729
31.342098 -65.102761 -25.322401
30.585012 -30.252884 -36.119343
30.735235 -31.993249 -35.073635
30.976199 -29.252374 -37.110855
30.585012 -30.252884 -36.119343
31.46787 -28.268021 -38.060589
31.672533 -30.060716 -37.001461
30.976199 -29.252374 -37.110855
37.234909 -19.035871 -45.390716
36.445251 -20.041047 -44.68687
38.186592 -19.968428 -44.96141
37.234909 -19.035871 -45.390716
19.03367 -90.146446 -17.935615
17.71426 -90.592693 -17.33007
18.999316 -88.536236 -17.598387
19.03367 -90.146446 -17.935615
20.4059 -89.603112 -18.515428
22.042202 -91.763435 -19.745144
21.832707 -90.382058 -19.423723
23.45601 -90.926617 -20.303435
22.042202 -91.763435 -19.745144
24.756736 -90.011231 -20.9362
23.45601 -90.926617 -20.303435
24.473065 -88.732495 -20.653286
26.141125 -88.997257 -21.525328
25.12407 -91.19138 -21.175477
24.756736 -90.011231 -20.9362
29.564901 -84.429848 -23.297261
30.02022 -85.517822 -23.483028
28.767784 -86.743142 -22.804907
29.564901 -84.429848 -23.297261
29.141782 -83.295907 -23.155154
29.67767 -79.674797 -23.537894
28.815647 -82.074211 -22.954279
28.522216 -80.812363 -22.801005
29.67767 -79.674797 -23.537894
30.436713 -77.233139 -24.175646
14.778439 -76.249771 -14.064328
15.002645 -74.263626 -14.136482
14.613637 -78.214973 -14.034658
14.778439 -76.249771 -14.064328
15.959599 -76.321754 -14.658168
14.403235 -80.181488 -14.079038
14.613637 -78.214973 -14.034658
15.630444 -80.218792 -14.710711
14.238882 -82.113323 -14.16125
14.403235 -80.181488 -14.079038
31.387662 -63.530133 -25.281349
31.342098 -65.102761 -25.322401
30.663792 -66.072918 -24.390503
32.090008 -61.008816 -26.221769
31.387662 -63.530133 -25.281349
31.411702 -61.978974 -25.289871
32.728073 -58.463465 -27.176048
32.090008 -61.008816 -26.221769
33.322301 -55.952927 -28.178303
32.728073 -58.463465 -27.176048
32.708276 -56.947119 -27.232546
33.881315 -53.431786 -29.170305
33.322301 -55.952927 -28.178303
34.371954 -50.958106 -30.209656
33.881315 -53.431786 -29.170305
33.793144 -51.962901 -29.27415
34.853367 -48.482845 -31.217778
34.371954 -50.958106 -30.209656
35.241539 -46.066847 -32.273601
34.853367 -48.482845 -31.217778
34.671955 -47.073222 -31.369324
35.640934 -43.653315 -33.283337
35.241539 -46.066847 -32.273601
35.924879 -41.309986 -34.341576
35.640934 -43.653315 -33.283337
35.344072 -42.313895 -33.483387
36.234098 -38.968984 -35.347164
35.924879 -41.309986 -34.341576
17.794981 -66.521636 -15.82463
17.657864 -68.471031 -15.625936
17.833996 -64.629688 -16.045364
17.971666 -62.742157 -16.272996
18.927896 -64.63927 -16.528394
17.794981 -66.521636 -15.82463
17.833996 -64.629688 -16.045364
21.191738 -51.237746 -18.885539
20.313598 -52.7027 -18.280308
21.858736 -50.981663 -19.541125
21.191738 -51.237746 -18.885539
22.014635 -49.667299 -19.557562
23.415806 -47.908964 -20.906751
22.838149 -48.275032 -20.170179
23.417166 -49.084011 -20.868744
23.415806 -47.908964 -20.906751
24.151339 -47.581758 -21.562348
25.903184 -43.982833 -23.896583
25.415529 -44.532919 -23.062349
26.549272 -43.464827 -24.663705
27.052813 -42.840514 -25.520321
26.038788 -45.010229 -23.85326
25.903184 -43.982833 -23.896583
26.549272 -43.464827 -24.663705
29.461338 -36.500967 -31.081518
29.07434 -37.350521 -30.103212
29.959482 -37.419966 -30.989041
29.461338 -36.500967 -31.081518
29.964928 -35.666073 -32.030578
30.967267 -35.69216 -32.899028
30.37634 -34.76325 -33.016822
30.880535 -33.870339 -33.977749
36.411756 -36.70803 -36.401218
36.234098 -38.968984 -35.347164
35.805675 -37.709612 -35.59568
31.936695 -27.241317 -39.01099
31.46787 -28.268021 -38.060589
32.485813 -26.230937 -39.911716
33.038399 -25.1875 -40.80629
32.713322 -28.065983 -38.851921
31.936695 -27.241317 -39.01099
32.485813 -26.230937 -39.911716
37.051338 -35.7063 -37.156734
36.411756 -36.70803 -36.401218
36.622916 -34.446928 -37.405251
37.734827 -34.693565 -37.861053
37.051338 -35.7063 -37.156734
37.734827 -34.693565 -37.861053
37.97694 -32.441933 -38.818921
38.834402 -29.271633 -40.459316
38.086826 -30.266197 -39.829575
38.229845 -28.099163 -40.811818
38.834402 -29.271633 -40.459316
39.627731 -28.282311 -41.030678
38.220825 -21.945087 -43.903602
38.186592 -19.968428 -44.96141
13.701708 -89.575039 -15.091919
13.790723 -87.77676 -14.803072
15.096024 -87.700363 -15.467621
14.996847 -91.199383 -16.114918
16.343457 -89.240563 -16.374655
16.333295 -90.941304 -16.733105
13.648644 -91.355229 -15.463034
14.996847 -91.199383 -16.114918
13.701708 -89.575039 -15.091919
13.648644 -91.355229 -15.463034
30.560044 -86.521435 -23.601911
30.02022 -85.517822 -23.483028
29.867679 -73.146652 -23.83308
29.021732 -74.157524 -22.95758
29.826802 -71.656166 -23.704352
30.006778 -74.553173 -23.92705
29.867679 -73.146652 -23.83308
30.645489 -69.14542 -24.505703
31.370745 -66.600506 -25.342729
3 0 36 34
3 0 38 36
3 1 41 39
3 1 43 41
3 1 45 43
3 2 134 136
3 134 47 135
3 134 135 136
3 4 50 48
3 4 52 50
3 4 54 52
3 5 57 55
3 5 59 57
3 137 61 138
3 139 63 140
3 6 66 64
3 6 68 66
3 7 141 143
3 141 69 142
3 141 142 143
3 7 71 69
3 7 144 146
3 146 145 71
3 144 145 146
3 3 74 73
3 8 76 75
3 8 147 149
3 149 148 76
3 147 148 149
3 8 150 151
3 9 79 77
3 11 80 35
3 11 81 80
3 11 83 81
3 13 84 37
3 13 85 84
3 14 88 86
3 16 89 40
3 16 152 154
3 154 153 89
3 152 153 154
3 16 155 157
3 155 90 156
3 155 156 157
3 17 91 42
3 17 92 91
3 17 158 160
3 160 159 92
3 158 159 160
3 162 161 44
3 18 93 46
3 18 94 93
3 10 95 78
3 19 96 49
3 19 97 96
3 19 98 97
3 20 99 51
3 20 100 99
3 20 102 100
3 22 103 53
3 22 104 103
3 12 105 82
3 23 106 56
3 23 107 106
3 23 108 107
3 24 109 58
3 24 110 109
3 25 163 164
3 25 165 167
3 165 111 166
3 165 166 167
3 25 112 111
3 26 113 60
3 26 114 113
3 168 115 169
3 27 170 172
3 170 116 171
3 170 171 172
3 27 117 116
3 28 173 175
3 173 118 174
3 173 174 175
3 28 119 118
3 28 120 119
3 29 121 62
3 29 122 121
3 176 123 177
3 30 124 65
3 30 125 124
3 30 126 125
3 31 127 67
3 31 128 127
3 32 178 179
3 32 180 182
3 180 129 181
3 180 181 182
3 32 130 129
3 33 131 70
3 33 132 131
3 33 183 185
3 185 184 132
3 183 184 185
3 187 186 72
3 15 133 87
3 21 188 190
3 190 189 101
3 188 189 190
3 34 35 9
3 36 35 34
3 36 11 35
3 36 37 11
3 38 37 36
3 38 13 37
3 39 40 14
3 41 40 39
3 41 16 40
3 41 42 16
3 43 42 41
3 43 17 42
3 43 44 17
3 45 44 43
3 45 191 193
3 193 192 44
3 191 192 193
3 194 46 195
3 47 196 198
3 196 46 197
3 196 197 198
3 47 18 46
3 48 49 10
3 50 49 48
3 50 19 49
3 50 51 19
3 52 51 50
3 52 20 51
3 52 53 20
3 54 53 52
3 54 22 53
3 55 56 12
3 57 56 55
3 57 23 56
3 57 58 23
3 59 58 57
3 59 24 58
3 199 25 200
3 201 60 202
3 203 202 25
3 201 202 203
3 61 204 206
3 204 60 205
3 204 205 206
3 61 26 60
3 207 27 208
3 209 28 210
3 211 62 212
3 213 212 28
3 211 212 213
3 63 214 216
3 214 62 215
3 214 215 216
3 63 29 62
3 64 217 219
3 217 65 218
3 217 218 219
3 66 65 64
3 66 30 65
3 66 67 30
3 68 67 66
3 68 31 67
3 69 220 221
3 69 222 224
3 222 32 223
3 222 223 224
3 69 70 32
3 71 70 69
3 71 33 70
3 71 72 33
3 225 72 226
3 227 226 71
3 225 226 227
3 229 228 72
3 73 230 231
3 74 232 234
3 234 233 73
3 232 233 234
3 74 235 236
3 238 237 15
3 75 239 240
3 76 241 243
3 243 242 75
3 241 242 243
3 76 244 245
3 76 246 247
3 249 248 76
3 251 250 21
3 77 78 2
3 79 78 77
3 79 10 78
3 35 79 9
3 80 79 35
3 80 10 79
3 80 48 10
3 81 48 80
3 81 4 48
3 81 82 4
3 83 82 81
3 83 12 82
3 37 83 11
3 84 83 37
3 84 12 83
3 84 55 12
3 85 55 84
3 85 5 55
3 252 64 253
3 254 64 255
3 256 6 257
3 258 257 64
3 256 257 258
3 259 7 260
3 262 261 7
3 86 87 3
3 88 87 86
3 88 15 87
3 40 88 14
3 89 88 40
3 89 15 88
3 89 263 265
3 265 264 15
3 263 264 265
3 267 266 89
3 90 268 269
3 90 270 271
3 42 90 16
3 91 90 42
3 91 272 274
3 274 273 90
3 272 273 274
3 91 275 277
3 275 75 276
3 275 276 277
3 92 75 91
3 92 8 75
3 92 278 280
3 280 279 8
3 278 279 280
3 282 281 92
3 44 283 285
3 285 284 17
3 283 284 285
3 287 286 44
3 46 288 289
3 93 290 292
3 292 291 46
3 290 291 292
3 93 293 294
3 93 295 297
3 295 73 296
3 295 296 297
3 94 73 93
3 94 3 73
3 78 47 2
3 95 47 78
3 95 18 47
3 49 95 10
3 96 95 49
3 96 18 95
3 96 94 18
3 97 94 96
3 97 3 94
3 97 86 3
3 98 86 97
3 98 14 86
3 51 98 19
3 99 98 51
3 99 14 98
3 99 39 14
3 100 39 99
3 100 1 39
3 100 101 1
3 102 101 100
3 102 21 101
3 53 102 20
3 103 102 53
3 103 21 102
3 103 298 300
3 300 299 21
3 298 299 300
3 104 301 303
3 303 302 103
3 301 302 303
3 104 304 305
3 82 54 4
3 105 54 82
3 105 22 54
3 56 105 12
3 106 105 56
3 106 22 105
3 106 104 22
3 107 104 106
3 107 306 308
3 308 307 104
3 306 307 308
3 107 309 310
3 108 311 313
3 313 312 107
3 311 312 313
3 108 314 315
3 58 108 23
3 109 108 58
3 109 316 318
3 318 317 108
3 316 317 318
3 109 319 320
3 110 321 323
3 323 322 109
3 321 322 323
3 110 324 325
3 326 2 327
3 111 328 329
3 111 330 332
3 330 2 331
3 330 331 332
3 111 77 2
3 112 77 111
3 112 9 77
3 60 112 25
3 113 112 60
3 113 9 112
3 113 34 9
3 114 34 113
3 114 0 34
3 333 61 334
3 115 335 337
3 335 61 336
3 335 336 337
3 115 26 61
3 338 115 339
3 116 340 342
3 340 115 341
3 340 341 342
3 116 26 115
3 116 114 26
3 117 114 116
3 117 0 114
3 343 27 344
3 118 345 346
3 118 347 349
3 347 27 348
3 347 348 349
3 118 117 27
3 119 117 118
3 119 0 117
3 119 38 0
3 120 38 119
3 120 13 38
3 62 120 28
3 121 120 62
3 121 13 120
3 121 85 13
3 122 85 121
3 122 5 85
3 350 63 351
3 123 352 354
3 352 63 353
3 352 353 354
3 123 29 63
3 65 355 357
3 355 123 356
3 355 356 357
3 124 123 65
3 124 29 123
3 124 122 29
3 125 122 124
3 125 5 122
3 125 59 5
3 126 59 125
3 126 24 59
3 67 126 30
3 127 126 67
3 127 24 126
3 127 110 24
3 128 110 127
3 128 358 360
3 360 359 110
3 358 359 360
3 361 6 362
3 129 363 364
3 129 365 367
3 365 6 366
3 365 366 367
3 129 68 6
3 130 68 129
3 130 31 68
3 70 130 32
3 131 130 70
3 131 31 130
3 131 128 31
3 132 128 131
3 132 368 370
3 370 369 128
3 368 369 370
3 132 371 372
3 374 373 132
3 72 375 377
3 377 376 33
3 375 376 377
3 379 378 72
3 381 380 7
3 87 74 3
3 133 74 87
3 133 382 384
3 384 383 74
3 382 383 384
3 385 133 386
3 387 386 15
3 385 386 387
3 388 133 389
3 391 390 133
3 393 392 8
3 101 45 1
3 394 45 395
3 396 395 101
3 394 395 396
3 398 397 45
3 400 399 21
