ply
format ascii 1.0
element vertex 353
property float x
property float y
property float z
element face 356
property list uchar int vertex_index
end_header
9.123188 -100.854187 42.884499
6.478184 -116.194283 21.28437
6.600822 -108.632172 33.725662
10.165056 -96.805519 51.804581
15.413905 -94.26059 50.21991
13.272579 -103.693504 42.415958
13.566376 -110.135033 29.541466
16.397757 -116.277229 17.632252
8.1049 -104.870918 38.885803
10.213884 -99.300095 47.527596
12.382277 -100.22718 47.699196
10.803829 -103.17907 43.560825
10.239025 -106.868782 38.406265
8.397411 -120.125687 15.205566
17.934649 -96.652657 43.517605
9.778276 -113.639854 25.798429
11.143476 -117.072624 19.616247
13.458858 -120.333054 13.98012
5.85519 -112.323677 27.648003
12.649738 -96.386902 51.708763
15.005198 -99.258141 46.189568
16.321039 -102.296349 39.722771
17.111412 -105.348724 32.876549
13.369143 -107.007042 36.16909
9.587294 -110.288971 32.283272
8.522881 -96.725136 45.851013
18.838121 -118.873329 12.538612
8.760494 -102.892929 41.02803
9.808517 -100.207718 45.27169
10.703533 -101.247589 45.690628
9.861813 -102.219765 43.435875
9.556488 -104.188423 41.30954
7.298084 -118.179901 18.190746
6.159304 -119.364273 15.669941
8.02845 -115.007576 23.64539
10.318031 -115.350548 22.64049
8.702148 -116.849815 20.518723
9.662771 -118.686577 17.514202
6.076414 -110.466797 30.767588
9.797464 -95.297775 53.920029
11.365765 -96.825073 51.949356
12.975662 -101.967339 45.200985
13.646273 -99.977425 47.137619
14.321371 -101.598724 44.299141
15.770793 -100.766502 43.046211
14.741806 -103.219528 41.215912
14.995246 -104.815773 37.951633
13.365129 -105.378044 39.383762
8.436607 -107.911659 36.167221
9.854553 -108.604324 35.43502
7.939188 -109.680885 33.206596
7.65992 -111.430992 30.072166
7.084715 -94.229172 49.341896
8.384699 -96.193939 48.185173
15.418444 -107.907051 31.224426
15.364861 -114.775932 20.346415
17.576321 -117.668266 15.050557
12.213722 -122.051147 11.856512
14.820244 -121.715576 11.303747
7.326538 -106.778572 36.447128
10.324335 -98.153961 49.689651
11.44342 -98.501717 49.896957
11.234041 -99.994675 47.828323
11.761805 -101.846939 45.6744
11.94833 -103.680382 43.218086
11.886843 -105.463562 40.472618
10.604719 -105.060257 41.128571
9.027622 -106.087257 38.882538
9.715889 -121.945145 12.325394
7.397856 -121.392776 12.701983
16.782043 -95.39991 46.961128
11.653576 -112.034042 27.752274
12.084692 -113.642143 24.561745
12.785561 -115.263832 21.515205
13.730581 -116.871002 18.634119
14.869668 -118.406601 15.900773
12.210609 -118.757828 16.737173
10.854977 -120.449059 14.634664
5.987562 -114.231911 24.457912
14.003334 -95.512787 51.110641
12.663239 -98.381599 49.692123
13.970032 -97.79425 49.08992
15.34709 -96.775604 48.14838
16.4389 -98.119804 44.943214
17.300251 -99.535538 41.557034
17.983555 -101.002831 38.071476
18.561417 -102.50309 34.579926
16.737034 -103.826942 36.301666
15.186413 -106.376465 34.589752
13.402561 -108.585823 32.856789
11.702871 -107.178734 37.478149
11.529446 -108.829285 34.300835
11.484236 -110.437538 31.027264
9.541203 -111.957001 29.039656
7.678627 -113.199249 26.854393
9.063496 -98.785606 44.481102
9.055279 -96.338867 51.286652
9.308653 -97.367554 49.098419
9.317394 -98.189156 46.842842
21.51569 -117.624382 11.836979
20.12487 -119.824799 10.034727
16.139214 -119.795197 13.2693
17.472771 -120.960167 10.684862
8.666093 -101.044323 41.61389
8.484746 -102.063694 40.685655
8.941841 -101.873558 41.956265
5.833343 -116.719479 20.006646
6.243294 -117.712288 18.459834
6.888134 -117.187092 19.737558
5.724776 -108.864201 32.400421
5.462572 -109.781514 30.921384
6.338618 -109.549485 32.246625
6.637818 -93.466995 48.703316
6.319572 -93.250519 49.85212
5.872675 -92.488343 49.213539
7.306907 -94.463898 48.186733
6.637818 -93.466995 48.703316
15.357217 -93.034367 51.321717
14.568095 -92.514996 52.828583
14.624783 -93.741219 51.726776
14.671532 -109.779293 28.744343
15.597566 -108.665302 29.585823
14.49241 -109.021042 30.382946
17.198891 -115.110184 18.422401
16.682443 -114.359535 19.779482
15.881309 -115.52658 18.989334
17.744459 -115.812836 17.152929
17.198891 -115.110184 18.422401
16.987039 -116.972747 16.341404
18.333742 -116.508354 15.862082
17.744459 -115.812836 17.152929
12.942134 -122.728912 10.503895
11.701483 -122.797359 10.694584
7.330164 -105.061943 37.579752
6.940983 -106.01577 36.360415
7.715719 -105.824745 37.666466
5.744046 -119.884838 14.325298
5.183315 -118.773491 15.838821
18.10282 -95.215519 44.581663
17.526518 -94.589146 46.303425
17.358346 -96.026284 45.239367
5.059176 -112.682579 26.332716
5.125362 -113.636696 24.737671
5.921376 -113.277794 26.052957
12.536398 -95.353371 52.75069
11.861154 -95.706284 52.871101
13.326536 -95.949845 51.409702
13.213196 -94.916313 52.451629
12.536398 -95.353371 52.75069
8.47919 -96.888855 44.630054
8.749498 -97.91909 43.945099
8.793188 -97.755371 45.166058
8.544207 -95.90036 50.864506
8.282826 -95.43795 51.974152
7.771753 -94.999443 51.552006
8.670894 -96.414704 49.77039
9.181966 -96.85321 50.192535
8.544207 -95.90036 50.864506
18.112396 -104.687168 32.026691
18.837398 -103.264351 32.87838
17.836415 -103.925907 33.728237
20.176906 -118.248855 12.187796
20.898649 -117.112156 13.038018
19.559864 -117.736629 13.388835
16.849528 -121.895927 9.677419
16.146508 -121.337872 10.994305
15.523264 -122.273632 9.986861
18.141385 -121.401649 9.393967
16.849528 -121.895927 9.677419
8.121427 -103.083576 39.73793
7.793629 -104.072571 38.666817
8.432697 -103.881923 39.956917
8.121427 -103.083576 39.73793
8.484746 -102.063694 40.685655
5.673903 -118.304474 17.199431
6.728694 -118.772087 16.930343
6.243294 -117.712288 18.459834
5.183315 -118.773491 15.838821
5.673903 -118.304474 17.199431
18.711978 -95.818158 42.783113
18.415326 -97.331955 41.7438
5.224384 -110.752243 29.44288
5.113772 -111.680683 27.883088
5.965802 -111.395237 29.207795
5.224384 -110.752243 29.44288
5.462572 -109.781514 30.921384
10.435016 -95.16172 53.976734
9.55262 -94.485134 54.997524
11.219167 -95.925369 52.991398
10.435016 -95.16172 53.976734
10.581615 -96.061424 52.934692
12.007751 -96.605987 51.829059
11.861154 -95.706284 52.871101
11.219167 -95.925369 52.991398
8.159647 -95.853135 45.247208
8.02599 -95.71188 46.441292
6.790458 -93.89795 50.474888
6.319572 -93.250519 49.85212
7.558924 -94.845513 49.892128
7.264667 -94.51429 51.02512
6.790458 -93.89795 50.474888
7.734707 -95.211556 48.763534
8.208917 -95.827896 49.313766
7.558924 -94.845513 49.892128
7.956899 -95.446281 47.608372
7.734707 -95.211556 48.763534
7.306907 -94.463898 48.186733
8.02599 -95.71188 46.441292
8.45379 -96.459538 47.018093
7.956899 -95.446281 47.608372
16.475428 -107.385719 30.382511
17.321912 -106.106556 31.208572
16.264928 -106.627887 32.050488
16.475428 -107.385719 30.382511
15.597566 -108.665302 29.585823
16.21368 -113.615871 21.133024
14.948266 -114.002719 21.791608
16.21368 -113.615871 21.133024
16.682443 -114.359535 19.779482
18.928964 -117.134098 14.644807
18.333742 -116.508354 15.862082
18.207221 -118.270798 13.794584
19.559864 -117.736629 13.388835
18.928964 -117.134098 14.644807
14.245396 -122.561127 10.227512
13.516983 -121.883362 11.580129
12.942134 -122.728912 10.503895
15.523264 -122.273632 9.986861
14.245396 -122.561127 10.227512
6.472992 -106.980396 35.128861
6.110134 -107.907196 33.768127
6.96368 -107.705372 35.086395
6.472992 -106.980396 35.128861
6.940983 -106.01577 36.360415
7.330164 -105.061943 37.579752
7.793629 -104.072571 38.666817
9.28019 -122.588211 11.072676
10.452566 -122.744358 10.929025
8.121173 -122.312027 11.26097
9.28019 -122.588211 11.072676
8.556873 -121.66896 12.513689
7.051403 -121.932701 11.362954
8.121173 -122.312027 11.26097
6.363321 -120.89909 12.84132
6.77858 -120.378524 14.185962
5.744046 -119.884838 14.325298
7.051403 -121.932701 11.362954
6.363321 -120.89909 12.84132
16.828587 -94.062226 48.045727
16.144517 -93.492565 49.675117
16.097974 -94.83025 48.590519
16.828587 -94.062226 48.045727
17.526518 -94.589146 46.303425
18.88015 -94.38102 43.847172
18.10282 -95.215519 44.581663
18.711978 -95.818158 42.783113
12.792476 -111.856392 27.032336
13.748876 -110.906887 27.926932
12.609976 -111.084538 28.64687
13.008035 -112.660442 25.437072
12.792476 -111.856392 27.032336
11.869134 -112.838093 26.15701
13.308182 -113.435825 23.899273
13.008035 -112.660442 25.437072
13.658617 -114.246669 22.376003
13.308182 -113.435825 23.899273
12.435126 -114.452988 23.038475
14.075211 -115.019882 20.93081
14.948266 -114.002719 21.791608
13.658617 -114.246669 22.376003
10.452566 -122.744358 10.929025
11.701483 -122.797359 10.694584
10.964806 -121.998146 12.090953
5.264619 -114.674999 23.15975
5.50993 -115.656185 21.572979
6.232873 -115.213097 22.871141
5.264619 -114.674999 23.15975
5.125362 -113.636696 24.737671
5.059176 -112.682579 26.332716
5.113772 -111.680683 27.883088
5.724776 -108.864201 32.400421
6.110134 -107.907196 33.768127
13.919498 -94.367317 52.172142
13.213196 -94.916313 52.451629
14.70862 -94.886688 50.665275
14.624783 -93.741219 51.726776
13.919498 -94.367317 52.172142
18.098128 -98.773395 40.763514
18.415326 -97.331955 41.7438
17.61745 -98.094098 42.53732
18.43978 -99.507042 39.020735
18.098128 -98.773395 40.763514
17.641903 -100.269184 39.814255
18.848785 -100.230324 37.241545
18.43978 -99.507042 39.020735
18.272486 -101.752961 36.325701
19.137716 -100.980454 35.49577
18.848785 -100.230324 37.241545
8.813869 -98.967331 43.233762
8.843715 -100.001621 42.435461
9.093342 -99.819896 43.6828
8.813869 -98.967331 43.233762
8.749498 -97.91909 43.945099
8.47919 -96.888855 44.630054
8.159647 -95.853135 45.247208
8.92176 -94.529991 54.777359
9.55262 -94.485134 54.997524
8.676916 -93.71735 55.854855
9.20317 -95.212902 53.68591
8.92176 -94.529991 54.777359
8.327466 -94.445118 54.543239
9.386966 -95.966774 52.628186
9.98126 -96.051647 52.862305
9.20317 -95.212902 53.68591
8.832078 -95.733448 52.369221
8.059624 -94.832531 53.056721
8.282826 -95.43795 51.974152
9.610167 -96.572193 51.545616
9.386966 -95.966774 52.628186
8.832078 -95.733448 52.369221
8.846676 -96.780746 48.641796
8.670894 -96.414704 49.77039
8.208917 -95.827896 49.313766
5.833343 -116.719479 20.006646
5.50993 -115.656185 21.572979
8.666093 -101.044323 41.61389
8.843715 -100.001621 42.435461
15.357217 -93.034367 51.321717
16.144517 -93.492565 49.675117
19.506169 -101.738335 33.759058
19.137716 -100.980454 35.49577
19.506169 -101.738335 33.759058
18.837398 -103.264351 32.87838
18.112396 -104.687168 32.026691
17.321912 -106.106556 31.208572
14.671532 -109.779293 28.744343
13.748876 -110.906887 27.926932
22.234858 -116.449791 12.68168
20.898649 -117.112156 13.038018
22.833568 -116.871582 11.530574
22.234858 -116.449791 12.68168
22.132804 -117.995296 10.621783
22.833568 -116.871582 11.530574
21.437394 -119.095505 9.720657
22.132804 -117.995296 10.621783
20.82028 -118.724591 10.935853
20.758992 -120.15292 8.76465
21.437394 -119.095505 9.720657
19.467434 -120.833966 9.0689
18.798821 -120.392483 10.359794
18.141385 -121.401649 9.393967
20.758992 -120.15292 8.76465
19.467434 -120.833966 9.0689
3 0 103 105
3 105 104 27
3 103 104 105
3 0 30 28
3 0 27 30
3 1 106 108
3 108 107 32
3 106 107 108
3 1 36 34
3 1 32 36
3 2 109 111
3 111 110 38
3 109 110 111
3 3 40 39
3 5 43 41
3 5 45 43
3 5 47 45
3 2 50 48
3 2 38 50
3 112 52 113
3 112 113 114
3 116 115 52
3 4 117 119
3 117 118 119
3 6 120 122
3 122 121 54
3 120 121 122
3 7 123 125
3 125 124 55
3 123 124 125
3 7 126 127
3 7 128 130
3 128 56 129
3 128 129 130
3 132 131 57
3 8 133 135
3 135 134 59
3 133 134 135
3 9 62 60
3 11 63 29
3 11 64 63
3 11 66 64
3 8 67 31
3 8 59 67
3 13 69 68
3 137 136 33
3 14 138 140
3 140 139 70
3 138 139 140
3 15 72 71
3 16 73 35
3 16 74 73
3 16 76 74
3 13 77 37
3 13 68 77
3 18 141 143
3 143 142 78
3 141 142 143
3 19 144 145
3 19 146 148
3 146 79 147
3 146 147 148
3 10 80 61
3 20 81 42
3 20 82 81
3 20 83 82
3 21 84 44
3 21 85 84
3 21 87 85
3 23 88 46
3 23 89 88
3 12 90 65
3 24 91 49
3 24 92 91
3 24 93 92
3 18 94 51
3 18 78 94
3 25 149 151
3 151 150 95
3 149 150 151
3 152 96 153
3 152 153 154
3 155 97 156
3 157 156 96
3 155 156 157
3 25 98 53
3 25 95 98
3 22 158 160
3 160 159 86
3 158 159 160
3 26 161 163
3 161 99 162
3 161 162 163
3 26 100 99
3 17 101 75
3 164 102 165
3 166 165 58
3 164 165 166
3 168 167 102
3 27 169 171
3 171 170 8
3 169 170 171
3 173 172 27
3 28 29 9
3 30 29 28
3 30 11 29
3 30 31 11
3 27 31 30
3 27 8 31
3 32 33 13
3 174 33 175
3 176 175 32
3 174 175 176
3 178 177 33
3 180 179 14
3 34 35 15
3 36 35 34
3 36 16 35
3 36 37 16
3 32 37 36
3 32 13 37
3 38 181 183
3 183 182 18
3 181 182 183
3 185 184 38
3 39 186 187
3 40 188 190
3 190 189 39
3 188 189 190
3 40 191 193
3 191 19 192
3 191 192 193
3 41 42 10
3 43 42 41
3 43 20 42
3 43 44 20
3 45 44 43
3 45 21 44
3 45 46 21
3 47 46 45
3 47 23 46
3 48 49 12
3 50 49 48
3 50 24 49
3 50 51 24
3 38 51 50
3 38 18 51
3 195 194 25
3 52 196 197
3 52 198 200
3 198 199 200
3 52 201 203
3 201 53 202
3 201 202 203
3 204 53 205
3 206 205 52
3 204 205 206
3 207 25 208
3 209 208 53
3 207 208 209
3 54 210 212
3 212 211 22
3 210 211 212
3 214 213 54
3 55 215 216
3 218 217 55
3 56 219 220
3 56 221 223
3 221 26 222
3 221 222 223
3 57 58 17
3 224 58 225
3 226 225 57
3 224 225 226
3 228 227 58
3 59 229 231
3 231 230 2
3 229 230 231
3 233 232 59
3 235 234 8
3 60 61 3
3 62 61 60
3 62 10 61
3 29 62 9
3 63 62 29
3 63 10 62
3 63 41 10
3 64 41 63
3 64 5 41
3 64 65 5
3 66 65 64
3 66 12 65
3 31 66 11
3 67 66 31
3 67 12 66
3 67 48 12
3 59 48 67
3 59 2 48
3 68 236 237
3 69 238 240
3 240 239 68
3 238 239 240
3 69 241 242
3 33 69 13
3 243 69 244
3 245 244 33
3 243 244 245
3 247 246 69
3 70 248 250
3 250 249 4
3 248 249 250
3 252 251 70
3 255 254 14
3 253 254 255
3 71 256 258
3 258 257 6
3 256 257 258
3 72 259 261
3 261 260 71
3 259 260 261
3 72 262 263
3 35 72 15
3 73 72 35
3 73 264 266
3 266 265 72
3 264 265 266
3 73 267 269
3 267 55 268
3 267 268 269
3 74 55 73
3 74 7 55
3 74 75 7
3 76 75 74
3 76 17 75
3 37 76 16
3 77 76 37
3 77 17 76
3 77 57 17
3 68 57 77
3 68 270 272
3 272 271 57
3 270 271 272
3 78 273 275
3 275 274 1
3 273 274 275
3 277 276 78
3 279 278 18
3 281 280 2
3 79 282 283
3 79 284 286
3 284 4 285
3 284 285 286
3 61 40 3
3 80 40 61
3 80 19 40
3 42 80 10
3 81 80 42
3 81 19 80
3 81 79 19
3 82 79 81
3 82 4 79
3 82 70 4
3 83 70 82
3 83 14 70
3 44 83 20
3 84 83 44
3 84 14 83
3 84 287 289
3 289 288 14
3 287 288 289
3 85 290 292
3 292 291 84
3 290 291 292
3 85 293 294
3 85 295 297
3 295 86 296
3 295 296 297
3 87 86 85
3 87 22 86
3 46 87 21
3 88 87 46
3 88 22 87
3 88 54 22
3 89 54 88
3 89 6 54
3 65 47 5
3 90 47 65
3 90 23 47
3 49 90 12
3 91 90 49
3 91 23 90
3 91 89 23
3 92 89 91
3 92 6 89
3 92 71 6
3 93 71 92
3 93 15 71
3 51 93 24
3 94 93 51
3 94 15 93
3 94 34 15
3 78 34 94
3 78 1 34
3 95 298 300
3 300 299 0
3 298 299 300
3 302 301 95
3 304 303 25
3 305 39 306
3 305 306 307
3 308 39 309
3 308 309 310
3 311 3 312
3 313 312 39
3 311 312 313
3 96 314 316
3 314 315 316
3 96 317 319
3 317 3 318
3 317 318 319
3 96 60 3
3 97 60 96
3 97 9 60
3 53 320 322
3 320 97 321
3 320 321 322
3 98 97 53
3 98 9 97
3 98 28 9
3 95 28 98
3 95 0 28
3 324 323 1
3 326 325 0
3 328 327 4
3 86 329 330
3 332 331 86
3 334 333 22
3 336 335 6
3 99 337 338
3 99 339 340
3 99 341 342
3 100 343 345
3 345 344 99
3 343 344 345
3 100 346 347
3 75 56 7
3 101 56 75
3 101 26 56
3 58 101 17
3 102 101 58
3 102 26 101
3 102 100 26
3 348 100 349
3 350 349 102
3 348 349 350
3 352 351 100
