ply
format ascii 1.0
element vertex 245
property float x
property float y
property float z
element face 203
property list uchar int vertex_index
end_header
9.06921 -52.275688 -2.067638
2.908205 -60.620811 8.917184
13.753746 -53.225376 -6.852617
0.771454 -63.285309 16.900967
5.887709 -56.510582 2.250235
11.504934 -52.823639 -4.218313
4.319586 -58.736343 5.363585
1.722212 -62.116783 12.799814
7.543495 -54.177197 -0.309404
9.795219 -54.097164 -2.477957
11.10635 -54.691467 -3.676815
10.204737 -52.544216 -3.028381
4.566645 -63.583813 9.083595
5.275217 -62.767124 7.210954
5.989471 -61.825188 5.429104
3.589193 -59.727955 7.092041
13.214285 -55.413311 -6.262758
13.895266 -55.615704 -7.595232
2.606108 -65.457458 15.125646
3.223114 -64.908615 13.05318
1.218895 -62.737129 14.829077
6.708836 -55.334297 0.892603
12.273933 -55.113293 -4.948732
12.721933 -53.056622 -5.507378
0.379774 -63.767197 19.006512
6.693394 -60.752178 3.749848
5.088911 -57.656399 3.745294
3.878906 -64.290794 11.035105
2.284781 -61.414753 10.824647
7.883535 -50.959183 -1.164774
9.150753 -50.68652 -2.202934
-0.708143 -60.929752 18.828396
-0.453653 -60.407097 16.755156
-0.136921 -59.804134 14.711788
2.00112 -56.557301 7.087353
2.785641 -55.56168 5.399714
3.662315 -54.529205 3.828325
4.62154 -53.495483 2.382312
5.652967 -52.507545 1.068084
6.743963 -51.629017 -0.111109
8.365395 -53.110451 -1.325375
14.161989 -53.276815 -7.542701
14.232749 -54.47198 -7.914008
13.824506 -54.42054 -7.223925
1.688781 -64.371384 16.013306
2.319692 -65.70496 16.183388
1.402365 -64.618885 17.071049
6.957971 -57.383169 1.501974
6.631213 -58.032905 2.218141
6.298272 -55.922439 1.571419
7.368534 -56.795026 0.823158
6.957971 -57.383169 1.501974
0.215742 -63.975586 20.072648
0.946377 -65.08405 19.198009
7.845679 -49.913554 -1.167907
7.098214 -50.082363 -0.582814
-1.263561 -59.644226 19.866845
-0.806367 -61.151641 19.876887
-1.047832 -58.859934 16.766734
-1.106494 -59.143356 17.794531
-0.889467 -58.558453 15.745051
-0.295287 -60.105615 15.733472
-1.047832 -58.859934 16.766734
0.931674 -55.384018 8.014647
1.65889 -57.024052 7.983053
2.130869 -53.945099 5.453465
1.689612 -54.419834 6.284903
2.569206 -53.428861 4.66777
3.223978 -55.045443 4.61402
2.130869 -53.945099 5.453465
4.139123 -52.01477 2.458086
3.561289 -52.447403 3.171834
4.654837 -51.520802 1.800972
5.137253 -53.001514 1.725198
4.139123 -52.01477 2.458086
6.528428 -50.417281 -0.055981
5.837299 -50.706041 0.553931
7.098214 -50.082363 -0.582814
7.313749 -51.2941 -0.637941
6.528428 -50.417281 -0.055981
8.398079 -54.835755 -0.96433
8.099172 -55.532725 -0.417349
7.954445 -53.643824 -0.817389
8.809029 -54.302381 -1.472315
8.398079 -54.835755 -0.96433
9.862419 -50.718249 -2.774974
9.282872 -49.734473 -2.28026
10.450785 -54.394316 -3.077386
10.92339 -55.575583 -3.290421
10.267824 -55.278431 -2.690993
5.76733 -64.62253 8.270636
5.392788 -64.978422 9.236912
6.121617 -64.214185 7.334316
5.76733 -64.62253 8.270636
4.920931 -63.175469 8.147274
6.482368 -63.787775 6.411886
6.121617 -64.214185 7.334316
5.632344 -62.296156 6.320029
6.839495 -63.316807 5.520962
6.482368 -63.787775 6.411886
13.356485 -56.710823 -6.530741
13.056844 -56.532593 -5.88163
13.696976 -56.81202 -7.196979
13.356485 -56.710823 -6.530741
13.554775 -55.514508 -6.928995
13.847519 -56.936768 -7.837206
13.696976 -56.81202 -7.196979
14.119893 -55.679331 -8.263197
14.072147 -57.000395 -8.505171
13.847519 -56.936768 -7.837206
14.119893 -55.679331 -8.263197
14.232749 -54.47198 -7.914008
3.304793 -66.717407 15.365832
2.319692 -65.70496 16.183388
3.663916 -66.47879 14.301169
4.362601 -67.738739 14.541355
3.304793 -66.717407 15.365832
2.914611 -65.183037 14.089413
3.972419 -66.204369 13.264936
3.663916 -66.47879 14.301169
7.681843 -56.111275 0.183654
7.368534 -56.795026 0.823158
7.126165 -54.755747 0.2916
8.099172 -55.532725 -0.417349
7.681843 -56.111275 0.183654
11.539062 -55.921537 -3.93706
10.92339 -55.575583 -3.290421
12.122854 -56.132451 -4.573018
11.539062 -55.921537 -3.93706
11.690141 -54.90238 -4.312773
12.586668 -56.382584 -5.224617
12.122854 -56.132451 -4.573018
12.744109 -55.263302 -5.605745
13.056844 -56.532593 -5.88163
12.586668 -56.382584 -5.224617
1.206525 -64.859829 18.123821
0.946377 -65.08405 19.198009
0.575614 -63.526253 17.95374
1.402365 -64.618885 17.071049
1.206525 -64.859829 18.123821
7.175021 -62.808596 4.646913
6.839495 -63.316807 5.520962
7.526982 -62.272091 3.807284
7.175021 -62.808596 4.646913
6.341432 -61.288683 4.589476
7.828447 -61.677565 2.986573
7.526982 -62.272091 3.807284
7.034055 -60.153703 2.967948
7.828447 -61.677565 2.986573
6.231814 -58.605814 2.96567
7.034055 -60.153703 2.967948
5.891153 -59.204289 3.747571
5.48831 -57.08349 2.997764
6.631213 -58.032905 2.218141
6.231814 -58.605814 2.96567
4.343735 -65.941765 12.226817
3.972419 -66.204369 13.264936
4.671632 -65.632855 11.217779
4.343735 -65.941765 12.226817
3.55101 -64.599705 12.044142
5.048919 -65.331913 10.212667
4.671632 -65.632855 11.217779
4.222776 -63.937303 10.05935
5.392788 -64.978422 9.236912
5.048919 -65.331913 10.212667
8.479288 -49.777222 -1.686987
8.517144 -50.822851 -1.683854
7.845679 -49.913554 -1.167907
9.282872 -49.734473 -2.28026
8.479288 -49.777222 -1.686987
-0.262409 -62.570364 19.965944
0.215742 -63.975586 20.072648
-0.164184 -62.348475 18.917454
-0.262409 -62.570364 19.965944
-0.806367 -61.151641 19.876887
-1.233739 -59.404684 18.831151
-1.263561 -59.644226 19.866845
-0.580898 -60.668425 17.791776
-1.233739 -59.404684 18.831151
-1.106494 -59.143356 17.794531
-0.791718 -58.231094 14.728838
-0.889467 -58.558453 15.745051
0.058878 -59.461128 13.709971
-0.791718 -58.231094 14.728838
0.988445 -60.617452 12.753984
0.792646 -60.960459 13.755801
0.058878 -59.461128 13.709971
1.269729 -60.266437 11.7664
2.003497 -61.765768 11.812231
0.988445 -60.617452 12.753984
1.510231 -59.880741 10.791417
1.269729 -60.266437 11.7664
1.821943 -59.48377 9.837685
2.596493 -61.017782 9.870916
1.510231 -59.880741 10.791417
2.112433 -59.055807 8.897968
1.821943 -59.48377 9.837685
2.452926 -58.609379 7.985397
3.248699 -60.174383 8.004613
2.112433 -59.055807 8.897968
2.795157 -58.142628 7.089697
2.452926 -58.609379 7.985397
1.65889 -57.024052 7.983053
1.297352 -54.917645 7.128722
0.931674 -55.384018 8.014647
0.227906 -53.744361 8.056016
2.393381 -56.059491 6.243533
1.297352 -54.917645 7.128722
1.689612 -54.419834 6.284903
3.081676 -52.964264 3.89484
2.569206 -53.428861 4.66777
4.141928 -54.012344 3.105319
3.081676 -52.964264 3.89484
3.561289 -52.447403 3.171834
5.291801 -51.145305 1.143527
4.654837 -51.520802 1.800972
6.198465 -52.068281 0.478488
5.291801 -51.145305 1.143527
5.837299 -50.706041 0.553931
9.523941 -54.795738 -2.048606
10.267824 -55.278431 -2.690993
9.080307 -53.603808 -1.901666
9.523941 -54.795738 -2.048606
8.809029 -54.302381 -1.472315
10.389411 -51.647097 -3.187698
9.677745 -51.615368 -2.615658
9.862419 -50.718249 -2.774974
11.03951 -51.786808 -3.782664
10.854836 -52.683927 -3.623347
10.389411 -51.647097 -3.187698
11.763822 -51.861489 -4.408938
11.03951 -51.786808 -3.782664
12.372321 -51.97798 -5.05347
12.113433 -52.94013 -4.862846
11.763822 -51.861489 -4.408938
13.046479 -52.051029 -5.71845
12.372321 -51.97798 -5.05347
13.562385 -52.135407 -6.39107
13.237839 -53.140999 -6.179998
13.046479 -52.051029 -5.71845
14.150479 -52.188114 -7.085358
13.562385 -52.135407 -6.39107
14.558722 -52.239553 -7.775441
14.161989 -53.276815 -7.542701
14.150479 -52.188114 -7.085358
3 0 11 9
3 1 13 12
3 1 15 13
3 2 17 16
3 2 41 43
3 43 42 17
3 41 42 43
3 3 44 46
3 44 18 45
3 44 45 46
3 3 20 18
3 4 47 48
3 4 49 51
3 49 21 50
3 49 50 51
3 5 22 10
3 5 23 22
3 52 24 53
3 6 25 14
3 6 26 25
3 7 27 19
3 7 28 27
3 55 54 29
3 56 31 57
3 58 32 59
3 60 33 61
3 62 61 32
3 60 61 62
3 63 34 64
3 65 35 66
3 67 36 68
3 69 68 35
3 67 68 69
3 70 37 71
3 72 38 73
3 74 73 37
3 72 73 74
3 75 39 76
3 77 29 78
3 79 78 39
3 77 78 79
3 8 80 81
3 8 82 84
3 82 40 83
3 82 83 84
3 86 85 30
3 9 87 89
3 87 10 88
3 87 88 89
3 11 10 9
3 11 5 10
3 12 90 91
3 13 92 94
3 94 93 12
3 92 93 94
3 13 95 96
3 13 97 99
3 97 14 98
3 97 98 99
3 15 14 13
3 15 6 14
3 16 100 101
3 17 102 104
3 104 103 16
3 102 103 104
3 17 105 106
3 17 107 109
3 107 108 109
3 111 110 17
3 18 112 113
3 18 114 116
3 114 115 116
3 18 117 119
3 117 19 118
3 117 118 119
3 20 19 18
3 20 7 19
3 21 120 121
3 21 122 124
3 122 8 123
3 122 123 124
3 10 125 126
3 22 127 129
3 129 128 10
3 127 128 129
3 22 130 131
3 22 132 134
3 132 16 133
3 132 133 134
3 23 16 22
3 23 2 16
3 24 135 136
3 24 137 139
3 137 3 138
3 137 138 139
3 14 140 141
3 25 142 144
3 144 143 14
3 142 143 144
3 25 145 146
3 25 147 148
3 26 149 151
3 151 150 25
3 149 150 151
3 26 152 154
3 152 4 153
3 152 153 154
3 19 155 156
3 27 157 159
3 159 158 19
3 157 158 159
3 27 160 161
3 27 162 164
3 162 12 163
3 162 163 164
3 28 12 27
3 28 1 12
3 29 30 0
3 165 30 166
3 167 166 29
3 165 166 167
3 169 168 30
3 170 24 171
3 31 172 174
3 172 24 173
3 172 173 174
3 31 3 24
3 175 31 176
3 32 177 179
3 177 31 178
3 177 178 179
3 32 3 31
3 32 20 3
3 33 20 32
3 33 7 20
3 180 33 181
3 182 33 183
3 184 7 185
3 186 185 33
3 184 185 186
3 187 28 188
3 189 188 7
3 187 188 189
3 190 28 191
3 192 1 193
3 194 193 28
3 192 193 194
3 195 1 196
3 197 15 198
3 199 198 1
3 197 198 199
3 34 200 202
3 200 15 201
3 200 201 202
3 34 6 15
3 203 34 204
3 203 204 205
3 35 206 208
3 206 34 207
3 206 207 208
3 35 6 34
3 35 26 6
3 36 26 35
3 36 4 26
3 209 36 210
3 37 211 213
3 211 36 212
3 211 212 213
3 37 4 36
3 37 21 4
3 38 21 37
3 38 8 21
3 214 38 215
3 39 216 218
3 216 38 217
3 216 217 218
3 39 8 38
3 39 40 8
3 29 40 39
3 29 0 40
3 219 9 220
3 40 221 223
3 221 9 222
3 221 222 223
3 40 0 9
3 30 11 0
3 224 11 225
3 226 225 30
3 224 225 226
3 227 5 228
3 229 228 11
3 227 228 229
3 230 5 231
3 232 23 233
3 234 233 5
3 232 233 234
3 235 23 236
3 237 2 238
3 239 238 23
3 237 238 239
3 240 2 241
3 244 243 2
3 242 243 244
