ply
format ascii 1.0
element vertex 111
property float x
property float y
property float z
element face 90
property list uchar int vertex_index
end_header
59.249348 -24.607212 2.368083
60.760117 -19.944214 -0.833588
64.966499 -21.542572 -1.301065
57.771152 -29.001961 5.702564
56.687393 -23.955269 2.659515
57.557266 -21.741594 1.006392
60.022224 -22.296909 0.770197
62.973816 -20.625988 -1.05422
62.376446 -23.026134 0.504094
54.408218 -30.110271 7.792613
57.150265 -31.013964 7.506876
55.840572 -26.108141 4.320829
61.423637 -17.562651 -2.480434
63.490692 -18.199697 -2.641127
65.308044 -19.117655 -2.853916
51.750534 -29.161432 8.134933
55.065479 -28.17231 6.022783
58.484482 -26.852865 3.999685
61.73217 -25.383686 2.076906
56.903874 -31.928594 8.468543
55.529612 -31.445793 8.577306
54.131348 -26.725133 5.34642
54.536276 -25.759137 4.480748
59.581303 -19.714631 -0.752614
57.979878 -20.613321 0.167376
59.158692 -20.842904 0.086402
61.091877 -18.753432 -1.657011
59.913063 -18.523849 -1.576037
59.581303 -19.714631 -0.752614
65.88953 -20.924594 -2.19307
66.060303 -19.712135 -2.969495
65.137271 -20.330113 -2.07749
51.506059 -29.994284 9.039506
50.272239 -29.411059 9.21239
62.890557 -25.843041 1.945688
61.40498 -26.528551 2.8928
63.135128 -24.663636 1.158016
62.890557 -25.843041 1.945688
57.122329 -22.848432 1.832953
55.843494 -22.569804 1.962675
55.408558 -23.676642 2.789236
54.158588 -30.993946 8.720175
52.834902 -30.468703 8.868346
55.779241 -30.562117 7.649745
54.158588 -30.993946 8.720175
55.529612 -31.445793 8.577306
54.959686 -24.682701 3.650091
55.408558 -23.676642 2.789236
56.263982 -25.031705 3.490172
54.959686 -24.682701 3.650091
54.536276 -25.759137 4.480748
56.31004 -21.534803 1.093962
55.843494 -22.569804 1.962675
56.31004 -21.534803 1.093962
57.979878 -20.613321 0.167376
60.301548 -17.378817 -2.44245
59.913063 -18.523849 -1.576037
61.701569 -16.360833 -3.341048
60.301548 -17.378817 -2.44245
62.661373 -16.659653 -3.387393
61.701569 -16.360833 -3.341048
63.694901 -16.978176 -3.467739
62.661373 -16.659653 -3.387393
62.457165 -17.881174 -2.56078
64.516243 -17.439684 -3.551861
63.694901 -16.978176 -3.467739
65.424919 -17.898663 -3.658256
64.516243 -17.439684 -3.551861
64.399368 -18.658676 -2.747521
66.07986 -18.51565 -3.76209
65.424919 -17.898663 -3.658256
66.07986 -18.51565 -3.76209
66.060303 -19.712135 -2.969495
50.503033 -28.648358 8.317453
50.272239 -29.411059 9.21239
52.086329 -28.251779 7.253472
50.503033 -28.648358 8.317453
53.079376 -29.635852 7.963773
51.506059 -29.994284 9.039506
52.834902 -30.468703 8.868346
53.743801 -27.757217 6.197397
52.086329 -28.251779 7.253472
53.408006 -28.666871 7.078858
55.453026 -27.140225 5.171806
54.131348 -26.725133 5.34642
53.743801 -27.757217 6.197397
58.518103 -31.459128 7.404164
56.903874 -31.928594 8.468543
58.800428 -30.437426 6.473443
58.518103 -31.459128 7.404164
59.110872 -29.431424 5.571287
57.460708 -30.007963 6.60472
58.800428 -30.437426 6.473443
59.42447 -28.337688 4.705629
59.110872 -29.431424 5.571287
59.781136 -27.26314 3.85419
58.127817 -27.927413 4.851125
59.42447 -28.337688 4.705629
60.108326 -26.118276 3.038296
59.781136 -27.26314 3.85419
61.40498 -26.528551 2.8928
63.457266 -23.48486 0.37161
62.054308 -24.20491 1.2905
63.135128 -24.663636 1.158016
64.752293 -22.743079 -0.530969
63.671473 -22.284353 -0.398485
63.457266 -23.48486 0.37161
65.816963 -22.116214 -1.422273
64.752293 -22.743079 -0.530969
65.88953 -20.924594 -2.19307
65.816963 -22.116214 -1.422273
3 0 6 4
3 0 8 6
3 19 10 20
3 21 11 22
3 1 23 25
3 25 24 5
3 23 24 25
3 1 26 28
3 26 12 27
3 26 27 28
3 1 13 12
3 2 14 7
3 2 29 31
3 31 30 14
3 29 30 31
3 32 15 33
3 3 16 9
3 3 17 16
3 34 18 35
3 37 36 18
3 4 38 40
3 38 5 39
3 38 39 40
3 6 5 4
3 6 1 5
3 6 7 1
3 8 7 6
3 8 2 7
3 41 9 42
3 10 43 45
3 43 9 44
3 43 44 45
3 10 3 9
3 46 4 47
3 11 48 50
3 48 4 49
3 48 49 50
3 11 0 4
3 5 51 52
3 54 53 5
3 12 55 56
3 12 57 58
3 12 59 60
3 13 61 63
3 63 62 12
3 61 62 63
3 13 64 65
3 7 13 1
3 14 13 7
3 14 66 68
3 68 67 13
3 66 67 68
3 14 69 70
3 72 71 14
3 15 73 74
3 15 75 76
3 9 77 79
3 77 15 78
3 77 78 79
3 16 15 9
3 16 80 82
3 82 81 15
3 80 81 82
3 16 83 85
3 83 11 84
3 83 84 85
3 17 11 16
3 17 0 11
3 86 10 87
3 88 10 89
3 90 3 91
3 92 91 10
3 90 91 92
3 93 3 94
3 95 17 96
3 97 96 3
3 95 96 97
3 18 98 100
3 98 17 99
3 98 99 100
3 18 0 17
3 18 8 0
3 101 8 102
3 103 102 18
3 101 102 103
3 104 2 105
3 106 105 8
3 104 105 106
3 107 2 108
3 110 109 2
