ply
format ascii 1.0
element vertex 381
property float x
property float y
property float z
element face 419
property list uchar int vertex_index
end_header
-2.518732 -36.854034 85.174385
0.533854 -45.019615 78.97171
-1.385149 -32.798794 75.856186
0.329411 -39.221603 89.858299
5.003653 -47.254166 90.485321
0.579529 -47.316475 87.757957
-0.418556 -27.919472 88.782555
-1.419146 -41.100468 82.19104
-0.618658 -39.319019 77.148117
-2.34025 -34.932823 80.813881
-1.673006 -38.345165 88.353355
-0.048866 -43.291653 89.421875
-1.300272 -42.494034 86.483322
0.05167 -46.411976 83.857628
2.739534 -23.841343 88.848022
0.710598 -20.960861 88.189117
1.855806 -29.979401 89.010323
4.714169 -51.800701 89.450264
7.751764 -51.263889 88.876251
1.753569 -43.363972 73.650269
0.834612 -37.360783 71.857101
0.11776 -30.592783 70.763824
3.39744 -39.459644 89.596306
5.741959 -43.015503 89.964981
2.365828 -43.419659 90.572456
2.259863 -47.585098 90.074715
2.586542 -51.826485 88.169052
1.570154 -51.24876 85.108192
1.622076 -50.156853 80.764801
-2.23303 -32.360302 87.507278
-2.797518 -30.200508 84.264587
-1.758249 -25.41008 86.892784
2.014812 -35.22963 89.116127
-0.631191 -34.096256 89.204781
-2.518164 -27.850916 80.002472
-1.624052 -25.469837 75.257912
8.516542 -46.546989 89.201897
11.359909 -50.437668 86.923996
-2.118055 -39.019958 83.734833
-1.970209 -38.135902 81.437569
-2.542715 -35.932758 83.104073
-2.236853 -37.667336 86.948128
-1.646086 -40.444641 87.532669
-2.019556 -39.798965 85.792397
-1.490644 -41.860363 84.468704
1.070763 -44.211399 76.338226
-1.067102 -36.166679 76.416275
0.043213 -38.351799 74.50959
-0.37499 -35.128204 73.813545
0.437153 -34.073975 71.21064
-0.689178 -31.700279 73.304832
1.743849 -39.41362 89.932739
2.747295 -41.407906 90.255859
1.236917 -41.408066 90.251717
0.174103 -45.315269 88.732544
1.055355 -45.482201 89.85891
1.275251 -47.533016 89.145103
2.408415 -49.704136 89.279755
1.598173 -49.578018 88.123085
1.936117 -51.611496 86.835953
1.076515 -49.293091 86.536133
0.181921 -45.76292 81.499596
0.862574 -48.297455 82.356346
1.119276 -47.634338 79.919403
-1.51185 -30.11149 88.294525
-2.109541 -28.986881 87.188698
-1.204657 -26.704411 88.02861
3.343334 -33.297142 88.415733
0.604519 -29.020462 89.114891
0.442701 -32.00753 89.228249
-0.660688 -31.127787 88.984512
-1.567553 -33.295578 88.574806
-2.608782 -26.54401 83.951752
-2.74774 -29.036705 82.225349
-2.564554 -25.285385 81.952271
-2.028101 -22.787018 77.512863
5.288498 -45.082809 90.423615
7.106737 -44.747978 89.776505
6.686399 -46.929428 90.020737
9.506516 -50.87191 88.027176
-0.501385 -43.094978 80.592255
-0.067806 -42.261711 78.019882
-1.117239 -40.243649 79.727722
-1.609007 -37.176064 78.975868
-1.944334 -33.881065 78.376663
-0.815891 -38.866585 89.333305
-0.013865 -41.255096 89.799248
-0.978958 -40.934246 88.885498
-0.823709 -42.976532 88.15696
-0.410807 -44.978931 87.173195
0.175877 -46.937836 85.97049
-0.70409 -44.482162 85.244743
-0.724707 -43.845081 83.024658
1.013977 -25.820862 88.9627
0.053459 -24.515331 88.534798
1.623762 -22.453171 88.698212
2.190678 -27.001751 88.982491
4.833925 -49.503807 90.152245
6.383398 -49.21973 89.881256
6.139299 -51.583813 89.376663
0.540657 -41.373436 75.368134
1.28738 -40.453133 72.684631
2.132023 -39.516483 70.006065
1.717724 -36.357262 69.225273
1.334627 -33.010345 68.640633
4.48147 -41.281998 89.858994
3.953123 -43.268112 90.465103
3.645273 -45.340858 90.690918
1.020853 -43.435642 90.231918
2.221357 -45.48436 90.513428
3.513821 -47.484035 90.518761
3.495922 -49.674194 89.960327
3.518936 -51.887482 89.050156
0.838026 -48.859406 84.587646
1.474682 -50.755539 83.058968
-2.566786 -34.62236 86.451233
-2.776079 -33.648945 84.664864
-2.635836 -31.318253 86.049118
-2.467081 -27.786915 85.719727
-2.09651 -24.072323 85.428917
-0.688 -23.120964 87.726608
2.558781 -37.46294 89.316086
1.005121 -37.208076 89.616859
1.784714 -32.732613 89.026855
0.569067 -34.743301 89.379608
-0.302263 -36.795105 89.493217
-1.339396 -36.219048 88.91526
-2.093653 -35.488167 87.888474
-2.749285 -32.597755 82.602142
-2.518896 -31.496574 80.33786
-2.116167 -30.367664 77.941696
-2.363405 -24.029873 79.786255
-2.136602 -26.659311 77.661148
-1.56735 -29.225916 75.474205
-0.893875 -28.078827 72.985214
8.099384 -48.855499 89.210632
0.802308 -44.615507 77.654968
1.320717 -45.555364 76.841461
1.052262 -45.959473 78.158203
1.052262 -45.959473 78.158203
1.344974 -47.266834 78.632049
0.826565 -46.326977 79.445557
4.154364 -32.357012 88.00058
4.21788 -33.502416 87.939155
-2.404939 -24.004044 82.824448
-2.586668 -25.914698 82.952011
-2.427053 -24.633357 83.824188
2.465106 -25.421547 88.915256
3.120385 -26.04582 88.800824
3.394813 -24.465615 88.733589
2.321172 -44.340479 72.820458
1.964498 -44.741816 74.168827
2.146656 -42.93022 72.298813
2.321172 -44.340479 72.820458
0.561193 -30.035304 69.514359
1.169626 -31.244085 68.452763
0.726194 -31.801564 69.702228
3.939455 -40.370821 89.72765
4.867789 -40.334855 89.388939
4.325774 -39.423677 89.257595
3.049451 -52.964802 88.002445
3.515648 -52.9953 88.442997
3.052739 -51.856983 88.609604
2.652646 -52.883589 87.480251
3.049451 -52.964802 88.002445
1.88929 -52.439963 85.218753
2.072271 -52.62133 86.082634
1.753135 -51.430128 85.972072
1.77248 -52.218908 84.310012
1.88929 -52.439963 85.218753
1.808694 -51.39718 81.087834
1.734997 -51.696523 82.234917
1.548379 -50.456196 81.911884
1.928373 -51.080677 79.930722
1.808694 -51.39718 81.087834
2.286797 -36.346285 89.216106
3.119254 -36.512011 88.891125
2.847269 -35.395356 88.791145
1.82026 -31.356007 89.018589
2.550953 -31.756104 88.755657
2.586499 -30.379497 88.747391
-2.22403 -22.050098 79.724464
-2.298294 -22.707134 80.770954
6.715525 -42.858173 89.558491
6.07051 -42.040688 89.550392
8.786157 -45.460835 89.01899
8.081255 -44.561329 89.306294
7.81164 -45.647484 89.489201
9.483756 -46.344254 88.661763
8.786157 -45.460835 89.01899
10.648412 -49.441365 87.575947
9.721716 -49.658485 88.127537
10.433212 -50.654789 87.475586
11.607373 -49.227862 86.976688
10.895876 -48.231558 87.628639
10.648412 -49.441365 87.575947
12.316426 -50.211861 86.292187
11.607373 -49.227862 86.976688
3.096208 -22.189663 88.690994
3.721106 -22.917945 88.658333
3.721106 -22.917945 88.658333
3.394813 -24.465615 88.733589
5.235224 -54.049896 88.482238
5.302981 -52.892723 88.996323
4.646411 -52.957874 88.93618
1.623096 -45.165529 75.512806
1.320717 -45.555364 76.841461
1.412166 -43.787685 74.994248
1.964498 -44.741816 74.168827
1.623096 -45.165529 75.512806
1.547197 -48.557863 79.107689
1.798596 -49.81912 79.530388
1.370676 -48.895595 80.342102
1.547197 -48.557863 79.107689
1.344974 -47.266834 78.632049
0.353341 -20.183551 87.771034
1.111624 -19.128055 87.955048
3.51153 -34.429112 88.440949
4.21788 -33.502416 87.939155
2.679073 -34.263386 88.76593
2.847269 -35.395356 88.791145
3.51153 -34.429112 88.440949
-1.922108 -20.785428 77.49115
-2.056377 -21.428671 78.587768
-1.800739 -22.172664 76.348243
-1.922108 -20.785428 77.49115
-1.598715 -23.514074 75.220768
-1.826077 -24.128428 76.385388
-1.800739 -22.172664 76.348243
-1.310104 -24.876737 74.048703
-1.598715 -23.514074 75.220768
9.303903 -52.125519 87.784706
8.62914 -51.067899 88.451713
8.426527 -52.321509 88.209243
10.20807 -51.914753 87.301613
9.303903 -52.125519 87.784706
11.134767 -51.697632 86.750023
10.433212 -50.654789 87.475586
10.20807 -51.914753 87.301613
11.853176 -52.724964 85.999379
12.078318 -51.465 86.173351
11.134767 -51.697632 86.750023
2.538321 -21.495577 88.616089
2.181648 -23.147257 88.773117
3.096208 -22.189663 88.690994
2.006708 -20.705191 88.487327
2.538321 -21.495577 88.616089
2.921267 -19.747597 88.405204
1.550126 -19.959036 88.23278
1.16718 -21.707016 88.443664
2.006708 -20.705191 88.487327
1.111624 -19.128055 87.955048
1.550126 -19.959036 88.23278
2.712755 -29.005327 88.80011
2.586499 -30.379497 88.747391
2.880191 -27.516503 88.786194
3.120385 -26.04582 88.800824
2.023242 -28.490576 88.996407
2.712755 -29.005327 88.80011
2.880191 -27.516503 88.786194
6.015547 -52.784279 88.959522
5.426734 -51.692257 89.413464
5.302981 -52.892723 88.996323
6.776568 -52.657319 88.801907
6.015547 -52.784279 88.959522
7.5828 -52.497356 88.5517
6.945531 -51.423851 89.126457
6.776568 -52.657319 88.801907
8.426527 -52.321509 88.209243
7.5828 -52.497356 88.5517
1.913561 -41.474801 71.815994
2.146656 -42.93022 72.298813
1.520474 -41.908552 73.16745
2.335882 -41.006476 70.476711
1.913561 -41.474801 71.815994
1.709701 -39.984808 71.345348
2.756246 -40.568255 69.13364
2.335882 -41.006476 70.476711
2.579302 -39.043917 68.684013
2.756246 -40.568255 69.13364
2.372153 -37.464306 68.293617
2.579302 -39.043917 68.684013
1.924873 -37.936872 69.615669
2.181753 -35.851365 67.933659
2.372153 -37.464306 68.293617
1.990204 -34.177906 67.641338
2.181753 -35.851365 67.933659
1.526175 -34.683803 68.932953
1.803578 -32.474165 67.385403
1.990204 -34.177906 67.641338
1.638578 -30.707905 67.197533
1.803578 -32.474165 67.385403
1.169626 -31.244085 68.452763
5.440265 -41.173935 89.497399
5.826584 -40.226792 89.027344
4.867789 -40.334855 89.388939
5.111714 -42.148751 89.911987
6.07051 -42.040688 89.550392
5.440265 -41.173935 89.497399
4.048794 -53.001264 88.736126
4.646411 -52.957874 88.93618
4.116553 -51.844091 89.25021
4.048794 -53.001264 88.736126
3.515648 -52.9953 88.442997
2.327434 -52.776094 86.813702
2.652646 -52.883589 87.480251
2.261329 -51.718991 87.502502
2.327434 -52.776094 86.813702
2.072271 -52.62133 86.082634
1.724744 -51.972297 83.2854
1.77248 -52.218908 84.310012
1.522418 -51.00215 84.08358
1.985059 -52.913282 82.461349
1.724744 -51.972297 83.2854
1.734997 -51.696523 82.234917
1.928373 -51.080677 79.930722
1.798596 -49.81912 79.530388
-2.170917 -23.397514 84.562771
-2.427053 -24.633357 83.824188
-2.352646 -25.308166 84.690335
-0.345958 -21.263602 87.53978
0.011299 -22.040913 87.957863
0.353341 -20.183551 87.771034
-0.954097 -22.398985 87.153603
-0.345958 -21.263602 87.53978
-1.489221 -23.543543 86.736691
-1.223124 -24.265522 87.309696
-0.954097 -22.398985 87.153603
-1.658352 -22.874665 86.004757
-1.927379 -24.741202 86.160851
-1.489221 -23.543543 86.736691
-1.830029 -22.146221 85.287357
-1.658352 -22.874665 86.004757
-2.170917 -23.397514 84.562771
-1.830029 -22.146221 85.287357
3.862505 -38.518476 89.12513
4.325774 -39.423677 89.257595
3.443175 -37.520125 88.98502
3.119254 -36.512011 88.891125
2.978111 -38.461292 89.456196
3.862505 -38.518476 89.12513
3.443175 -37.520125 88.98502
3.330263 -32.038368 88.450096
4.154364 -32.357012 88.00058
4.141293 -31.098238 88.034942
2.564024 -33.014877 88.721294
3.330263 -32.038368 88.450096
2.550953 -31.756104 88.755657
-2.398868 -23.334891 81.853962
-2.404939 -24.004044 82.824448
-2.463979 -24.657629 80.869263
-2.398868 -23.334891 81.853962
-2.298294 -22.707134 80.770954
-2.195753 -23.408445 78.649559
-2.22403 -22.050098 79.724464
-2.056377 -21.428671 78.587768
-0.945015 -26.181233 72.912353
-1.258964 -26.774332 74.121563
-1.310104 -24.876737 74.048703
-0.50525 -27.503338 71.749641
-0.945015 -26.181233 72.912353
0.000567 -28.760316 70.638947
-0.388057 -29.335805 71.874519
-0.50525 -27.503338 71.749641
0.561193 -30.035304 69.514359
0.000567 -28.760316 70.638947
7.397914 -43.724411 89.464253
6.715525 -42.858173 89.558491
6.424348 -43.881741 89.870743
7.397914 -43.724411 89.464253
8.081255 -44.561329 89.306294
9.01815 -48.65028 88.719265
8.80295 -49.863704 88.618904
9.721716 -49.658485 88.127537
9.226729 -47.496025 88.714898
8.307963 -47.701244 89.206265
9.01815 -48.65028 88.719265
9.483756 -46.344254 88.661763
9.226729 -47.496025 88.714898
12.316426 -50.211861 86.292187
12.078318 -51.465 86.173351
3 0 40 38
3 0 43 41
3 0 38 43
3 1 136 138
3 136 45 137
3 136 137 138
3 2 48 46
3 2 50 48
3 3 53 51
3 5 56 54
3 5 58 56
3 5 60 58
3 1 63 61
3 1 139 141
3 141 140 63
3 139 140 141
3 6 66 64
3 142 67 143
3 6 70 68
3 6 64 70
3 144 74 145
3 146 145 72
3 144 145 146
3 4 78 76
3 7 82 80
3 9 83 39
3 9 84 83
3 10 87 85
3 12 88 42
3 12 89 88
3 12 91 89
3 7 92 44
3 7 80 92
3 14 95 93
3 14 147 149
3 147 96 148
3 147 148 149
3 14 93 96
3 17 99 97
3 19 150 151
3 19 152 153
3 8 100 81
3 20 101 47
3 20 102 101
3 20 103 102
3 21 104 49
3 21 154 156
3 156 155 104
3 154 155 156
3 22 157 159
3 157 105 158
3 157 158 159
3 24 106 52
3 24 107 106
3 11 108 86
3 25 109 55
3 25 110 109
3 25 111 110
3 26 112 57
3 26 160 162
3 162 161 112
3 160 161 162
3 26 163 164
3 27 165 167
3 167 166 59
3 165 166 167
3 27 168 169
3 13 113 90
3 28 114 62
3 28 170 172
3 172 171 114
3 170 171 172
3 28 173 174
3 29 117 115
3 31 118 65
3 31 119 118
3 15 120 94
3 32 175 177
3 175 121 176
3 175 176 177
3 32 122 121
3 16 178 180
3 178 123 179
3 178 179 180
3 33 124 69
3 33 125 124
3 33 126 125
3 29 127 71
3 29 115 127
3 30 128 116
3 34 129 73
3 34 130 129
3 181 131 182
3 35 132 75
3 35 133 132
3 35 134 133
3 23 183 184
3 36 185 187
3 187 186 77
3 185 186 187
3 36 188 189
3 18 135 98
3 37 190 192
3 192 191 79
3 190 191 192
3 37 193 195
3 193 194 195
3 37 196 197
3 38 39 7
3 40 39 38
3 40 9 39
3 41 42 10
3 43 42 41
3 43 12 42
3 43 44 12
3 38 44 43
3 38 7 44
3 199 198 14
3 200 14 201
3 204 203 17
3 202 203 204
3 45 205 206
3 45 207 209
3 207 19 208
3 207 208 209
3 46 47 8
3 48 47 46
3 48 20 47
3 48 49 20
3 50 49 48
3 50 21 49
3 51 52 22
3 53 52 51
3 53 24 52
3 54 55 11
3 56 55 54
3 56 25 55
3 56 57 25
3 58 57 56
3 58 26 57
3 58 59 26
3 60 59 58
3 60 27 59
3 61 62 13
3 63 62 61
3 63 28 62
3 63 210 212
3 212 211 28
3 210 211 212
3 214 213 63
3 64 65 29
3 66 65 64
3 66 31 65
3 216 215 15
3 67 217 218
3 67 219 221
3 219 32 220
3 219 220 221
3 68 69 16
3 70 69 68
3 70 33 69
3 70 71 33
3 64 71 70
3 64 29 71
3 72 73 30
3 74 73 72
3 74 34 73
3 222 75 223
3 224 75 225
3 226 35 227
3 228 227 75
3 226 227 228
3 230 229 35
3 76 77 23
3 78 77 76
3 78 36 77
3 231 79 232
3 233 232 18
3 231 232 233
3 234 79 235
3 236 37 237
3 238 237 79
3 236 237 238
3 241 240 37
3 239 240 241
3 80 81 1
3 82 81 80
3 82 8 81
3 39 82 7
3 83 82 39
3 83 8 82
3 83 46 8
3 84 46 83
3 84 2 46
3 85 86 3
3 87 86 85
3 87 11 86
3 42 87 10
3 88 87 42
3 88 11 87
3 88 54 11
3 89 54 88
3 89 5 54
3 89 90 5
3 91 90 89
3 91 13 90
3 44 91 12
3 92 91 44
3 92 13 91
3 92 61 13
3 80 61 92
3 80 1 61
3 93 94 6
3 95 94 93
3 95 15 94
3 242 95 243
3 244 243 14
3 242 243 244
3 245 95 246
3 245 246 247
3 248 15 249
3 250 249 95
3 248 249 250
3 252 251 15
3 253 16 254
3 96 255 256
3 96 257 259
3 257 16 258
3 257 258 259
3 96 68 16
3 93 68 96
3 93 6 68
3 97 98 4
3 99 98 97
3 99 18 98
3 260 99 261
3 262 261 17
3 260 261 262
3 263 99 264
3 265 18 266
3 267 266 99
3 265 266 267
3 269 268 18
3 81 45 1
3 100 45 81
3 100 19 45
3 47 100 8
3 101 100 47
3 101 19 100
3 101 270 272
3 272 271 19
3 270 271 272
3 102 273 275
3 275 274 101
3 273 274 275
3 102 276 277
3 102 278 279
3 103 280 282
3 282 281 102
3 280 281 282
3 103 283 284
3 49 103 20
3 104 103 49
3 104 285 287
3 287 286 103
3 285 286 287
3 104 288 289
3 292 291 104
3 290 291 292
3 105 293 295
3 293 294 295
3 105 296 298
3 296 23 297
3 296 297 298
3 52 105 22
3 106 105 52
3 106 23 105
3 106 76 23
3 107 76 106
3 107 4 76
3 86 53 3
3 108 53 86
3 108 24 53
3 55 108 11
3 109 108 55
3 109 24 108
3 109 107 24
3 110 107 109
3 110 4 107
3 110 97 4
3 111 97 110
3 111 17 97
3 57 111 25
3 112 111 57
3 112 17 111
3 112 299 301
3 301 300 17
3 299 300 301
3 303 302 112
3 59 304 306
3 306 305 26
3 304 305 306
3 308 307 59
3 90 60 5
3 113 60 90
3 113 27 60
3 62 113 13
3 114 113 62
3 114 27 113
3 114 309 311
3 311 310 27
3 309 310 311
3 314 313 114
3 312 313 314
3 316 315 28
3 115 116 0
3 117 116 115
3 117 30 116
3 65 117 29
3 118 117 65
3 118 30 117
3 118 72 30
3 119 72 118
3 119 317 319
3 319 318 72
3 317 318 319
3 94 66 6
3 120 66 94
3 120 31 66
3 320 120 321
3 322 321 15
3 320 321 322
3 323 120 324
3 325 31 326
3 327 326 120
3 325 326 327
3 328 119 329
3 330 329 31
3 328 329 330
3 331 119 332
3 334 333 119
3 335 22 336
3 121 337 338
3 121 339 341
3 339 22 340
3 339 340 341
3 121 51 22
3 122 51 121
3 122 3 51
3 342 67 343
3 342 343 344
3 123 345 347
3 345 67 346
3 345 346 347
3 123 32 67
3 69 123 16
3 124 123 69
3 124 32 123
3 124 122 32
3 125 122 124
3 125 3 122
3 125 85 3
3 126 85 125
3 126 10 85
3 71 126 33
3 127 126 71
3 127 10 126
3 127 41 10
3 115 41 127
3 115 0 41
3 116 40 0
3 128 40 116
3 128 9 40
3 73 128 30
3 129 128 73
3 129 9 128
3 129 84 9
3 130 84 129
3 130 2 84
3 348 74 349
3 131 350 352
3 350 74 351
3 350 351 352
3 131 34 74
3 75 353 355
3 353 131 354
3 353 354 355
3 132 131 75
3 132 34 131
3 132 130 34
3 133 130 132
3 133 2 130
3 133 50 2
3 134 50 133
3 134 21 50
3 356 134 357
3 358 357 35
3 356 357 358
3 359 134 360
3 361 21 362
3 363 362 134
3 361 362 363
3 365 364 21
3 77 366 368
3 368 367 23
3 366 367 368
3 370 369 77
3 98 78 4
3 135 78 98
3 135 36 78
3 79 135 18
3 371 135 372
3 373 372 79
3 371 372 373
3 374 36 375
3 376 375 135
3 374 375 376
3 378 377 36
3 380 379 37
