ply
format ascii 1.0
element vertex 335
property float x
property float y
property float z
element face 353
property list uchar int vertex_index
end_header
34.883873 -93.958 -23.873701
36.840179 -37.967403 -36.152702
44.38781 -57.398571 -32.334053
33.342098 -57.469273 -28.121805
39.767792 -76.252441 -27.229063
34.929256 -68.476196 -27.944872
39.666199 -48.538616 -34.285576
40.687157 -87.45845 -24.924772
42.800152 -78.836945 -26.4788
37.428879 -85.355507 -25.304251
32.286602 -78.409485 -25.147696
30.950947 -73.458336 -24.76779
35.422951 -47.476471 -32.122055
36.090755 -53.124187 -31.596472
38.171501 -43.281456 -35.191383
41.74807 -39.01683 -37.447548
39.751465 -33.919445 -38.76886
46.699562 -48.091721 -35.265701
42.054821 -66.848885 -29.611162
32.076988 -101.92276 -22.843378
31.714642 -91.389351 -23.570326
34.542114 -82.371536 -25.362745
37.058025 -72.817551 -27.719492
39.43026 -63.027561 -30.462366
33.698029 -63.287167 -28.020597
37.351143 -58.412441 -31.086695
41.776245 -53.311596 -33.372643
44.024609 -43.848785 -36.314491
36.634102 -94.905479 -23.882822
39.586452 -91.615105 -24.301092
37.859211 -90.774292 -24.473577
39.027069 -86.509331 -25.160711
36.189865 -89.72847 -24.529425
36.221741 -42.649406 -34.141525
36.698647 -45.397091 -33.763054
37.535088 -40.599464 -35.664398
39.040775 -38.532791 -36.971954
38.207157 -35.941933 -37.56134
45.784584 -59.184071 -31.743505
45.559113 -52.719925 -33.780174
41.254066 -77.644699 -26.883581
43.855957 -74.401657 -27.441977
42.355591 -73.08313 -27.930246
43.473572 -68.467598 -29.096464
40.908867 -71.572426 -28.36899
28.725964 -94.080887 -22.583418
30.367603 -89.740105 -23.311354
33.175423 -86.961395 -24.389456
31.896986 -85.211754 -24.213148
33.648602 -73.4841 -26.482775
34.643108 -75.684906 -26.510931
35.899231 -70.759888 -27.860807
38.251755 -67.930634 -29.056681
37.110806 -65.788445 -29.301378
32.065968 -62.559975 -26.213247
32.12326 -65.555466 -26.253904
33.437653 -60.436588 -28.057169
37.763836 -50.848595 -33.048187
36.615997 -55.837246 -31.347311
38.523735 -53.438641 -32.691483
39.477329 -55.879765 -32.317032
40.641079 -51.004284 -33.83699
42.92654 -48.541946 -34.84108
41.770775 -46.204727 -35.348228
42.369999 -88.217918 -24.56629
43.384731 -84.072685 -25.237597
41.751415 -83.194099 -25.643927
40.151764 -82.12706 -25.961031
38.614769 -80.856186 -26.20471
30.817337 -83.204529 -23.975382
29.9711 -80.936646 -23.691168
31.489187 -76.053329 -24.966673
32.886036 -71.049583 -26.414026
34.460125 -52.426991 -30.10581
34.63562 -55.342915 -29.937551
35.725136 -50.318932 -31.849932
37.177654 -48.150421 -33.401535
38.855457 -45.947998 -34.733536
40.753403 -43.726822 -35.865265
39.860989 -41.150166 -36.405113
40.742432 -36.469624 -38.086128
44.617111 -63.825871 -30.372225
43.214905 -62.114868 -30.938879
35.348866 -98.883781 -23.363348
33.508774 -98.028572 -23.320772
38.691383 -31.438667 -39.477074
31.76395 -96.950562 -23.154833
30.157776 -95.638931 -22.903116
33.23135 -92.790649 -23.761354
34.617435 -88.46257 -24.496889
35.923973 -83.981049 -25.370028
37.164806 -79.366379 -26.378061
33.316872 -80.516159 -25.285646
35.829182 -77.645218 -26.479486
38.360229 -74.64679 -27.509516
39.531586 -69.857758 -28.746767
40.696754 -65.038124 -30.068468
41.866219 -60.224072 -31.451891
30.672749 -70.645294 -24.579851
32.37994 -68.397751 -26.329115
34.189041 -65.977982 -27.990667
34.930172 -58.18082 -29.791616
35.425869 -60.891788 -29.649839
36.156124 -63.43684 -29.493048
38.299557 -60.816109 -30.797422
40.60535 -58.145607 -31.908667
43.039391 -55.443768 -32.875908
44.20155 -50.715485 -34.324814
45.3228 -46.051315 -35.792137
42.831978 -41.493797 -36.85955
45.674679 -55.980711 -32.764293
46.373066 -56.873461 -32.46902
45.086197 -58.291321 -32.038779
44.973461 -55.059248 -33.057113
46.260331 -53.641388 -33.487354
45.674679 -55.980711 -32.764293
29.795353 -88.78561 -23.151015
28.93382 -91.001923 -22.756653
30.560044 -86.521435 -23.601911
31.132295 -87.47593 -23.762251
29.795353 -88.78561 -23.151015
28.815647 -82.074211 -22.954279
29.141782 -83.295907 -23.155154
31.220067 -74.755832 -24.867232
30.436713 -77.233139 -24.175646
30.167593 -75.935643 -24.076205
40.608193 -32.923086 -39.292534
41.103676 -34.198176 -38.951168
40.246949 -35.194535 -38.427494
47.956516 -46.763302 -35.773494
47.409324 -49.033953 -34.98822
47.232706 -45.809017 -36.025993
48.48966 -44.480598 -36.533787
47.956516 -46.763302 -35.773494
44.09942 -77.188774 -26.694986
43.593466 -79.340187 -26.245207
45.148159 -72.787766 -27.696003
44.396707 -72.153557 -27.990065
33.712927 -100.40327 -23.103363
34.68101 -100.784412 -23.122341
33.045071 -102.303901 -22.862356
38.086826 -30.266197 -39.829575
37.97694 -32.441933 -38.818921
30.141883 -98.324719 -22.762577
30.996697 -98.939896 -22.905293
30.645489 -69.14542 -24.505703
29.826802 -71.656166 -23.704352
45.192625 -42.657714 -36.798428
45.841721 -43.75898 -36.53725
44.673704 -44.95005 -36.053314
38.110277 -93.260292 -24.091957
39.010932 -93.630188 -24.023352
37.534757 -95.275375 -23.814217
30.006778 -74.553173 -23.92705
30.167593 -75.935643 -24.076205
47.083521 -57.721428 -32.155051
46.496229 -59.998736 -31.427713
47.083521 -57.721428 -32.155051
46.373066 -56.873461 -32.46902
46.8391 -51.348055 -34.245457
46.260331 -53.641388 -33.487354
46.129338 -50.405823 -34.522937
47.409324 -49.033953 -34.98822
46.8391 -51.348055 -34.245457
43.646524 -71.494293 -28.2342
44.396707 -72.153557 -27.990065
43.105774 -73.742393 -27.686112
42.914581 -70.775364 -28.513355
44.205515 -69.186527 -28.817309
43.646524 -71.494293 -28.2342
31.345634 -103.770699 -22.622961
33.045071 -102.303901 -22.862356
28.113001 -93.172314 -22.392685
27.19435 -95.284489 -22.090203
26.581387 -94.375916 -21.899469
29.546784 -91.910496 -22.947386
28.113001 -93.172314 -22.392685
28.93382 -91.001923 -22.756653
32.094614 -64.057721 -26.233576
31.370745 -66.600506 -25.342729
31.342098 -65.102761 -25.322401
42.765923 -37.954433 -37.92239
42.179501 -36.72323 -38.25766
40.454695 -91.939389 -24.13409
39.010932 -93.630188 -24.023352
41.846468 -90.240795 -24.266689
40.454695 -91.939389 -24.13409
40.978226 -89.916511 -24.433691
43.197862 -88.508701 -24.303393
41.846468 -90.240795 -24.266689
43.69109 -86.496921 -24.638123
43.197862 -88.508701 -24.303393
44.198456 -84.424305 -24.973776
43.69109 -86.496921 -24.638123
42.877365 -86.145302 -24.901944
44.685358 -82.374706 -25.350346
44.198456 -84.424305 -24.973776
43.885756 -81.958057 -25.624606
44.685358 -82.374706 -25.350346
43.069097 -81.518765 -25.82777
43.885756 -81.958057 -25.624606
42.568073 -83.633392 -25.440762
42.275784 -81.015522 -26.061363
43.593466 -79.340187 -26.245207
43.069097 -81.518765 -25.82777
29.564901 -84.429848 -23.297261
30.02022 -85.517822 -23.483028
30.394219 -82.070587 -23.833275
29.564901 -84.429848 -23.297261
29.141782 -83.295907 -23.155154
29.67767 -79.674797 -23.537894
28.815647 -82.074211 -22.954279
30.730144 -78.494988 -24.328921
29.67767 -79.674797 -23.537894
30.436713 -77.233139 -24.175646
41.676682 -35.449627 -38.57695
42.179501 -36.72323 -38.25766
41.245251 -37.743227 -37.766838
41.676682 -35.449627 -38.57695
41.103676 -34.198176 -38.951168
31.387662 -63.530133 -25.281349
31.342098 -65.102761 -25.322401
32.090008 -61.008816 -26.221769
31.387662 -63.530133 -25.281349
32.728073 -58.463465 -27.176048
32.704033 -60.014624 -27.167526
32.090008 -61.008816 -26.221769
33.322301 -55.952927 -28.178303
32.728073 -58.463465 -27.176048
33.881315 -53.431786 -29.170305
33.901111 -54.948132 -29.113808
33.322301 -55.952927 -28.178303
34.371954 -50.958106 -30.209656
33.881315 -53.431786 -29.170305
34.853367 -48.482845 -31.217778
34.941538 -49.951731 -31.113933
34.371954 -50.958106 -30.209656
35.241539 -46.066847 -32.273601
34.853367 -48.482845 -31.217778
35.640934 -43.653315 -33.283337
35.822346 -45.062939 -33.13179
35.241539 -46.066847 -32.273601
35.924879 -41.309986 -34.341576
35.640934 -43.653315 -33.283337
36.234098 -38.968984 -35.347164
36.53096 -40.308404 -35.147114
35.924879 -41.309986 -34.341576
44.627323 -74.971131 -27.176575
44.09942 -77.188774 -26.694986
43.328054 -76.619301 -26.960389
44.627323 -74.971131 -27.176575
45.148159 -72.787766 -27.696003
44.76429 -66.918201 -29.430498
44.205515 -69.186527 -28.817309
45.33606 -64.597338 -30.068379
44.76429 -66.918201 -29.430498
44.045341 -66.146734 -29.734344
45.912492 -62.319636 -30.742073
45.33606 -64.597338 -30.068379
45.200848 -61.504971 -31.057865
46.496229 -59.998736 -31.427713
45.912492 -62.319636 -30.742073
36.289614 -99.203678 -23.293988
34.68101 -100.784412 -23.122341
36.892139 -97.264526 -23.554479
36.289614 -99.203678 -23.293988
35.991484 -96.89463 -23.623085
37.534757 -95.275375 -23.814217
36.892139 -97.264526 -23.554479
36.411756 -36.70803 -36.401218
36.234098 -38.968984 -35.347164
37.051338 -35.7063 -37.156734
36.411756 -36.70803 -36.401218
37.734827 -34.693565 -37.861053
37.523668 -36.954668 -36.857021
37.051338 -35.7063 -37.156734
38.44927 -33.6903 -38.519207
37.734827 -34.693565 -37.861053
37.97694 -32.441933 -38.818921
38.834402 -29.271633 -40.459316
38.086826 -30.266197 -39.829575
39.484713 -30.449345 -40.048435
38.834402 -29.271633 -40.459316
39.627731 -28.282311 -41.030678
40.014753 -31.689735 -39.694328
39.221424 -32.679056 -39.122967
39.484713 -30.449345 -40.048435
40.608193 -32.923086 -39.292534
40.014753 -31.689735 -39.694328
30.367676 -103.317039 -22.536095
31.345634 -103.770699 -22.622961
31.153216 -101.425995 -22.749565
30.367676 -103.317039 -22.536095
31.86911 -99.478901 -22.988262
32.792881 -99.975666 -23.082075
31.153216 -101.425995 -22.749565
32.636362 -97.489567 -23.237803
31.86911 -99.478901 -22.988262
30.996697 -98.939896 -22.905293
27.856503 -96.151612 -22.299008
27.19435 -95.284489 -22.090203
28.572409 -96.930633 -22.458856
27.856503 -96.151612 -22.299008
29.44187 -94.859909 -22.743267
29.338795 -97.668903 -22.636719
28.572409 -96.930633 -22.458856
30.960863 -96.294747 -23.028975
30.141883 -98.324719 -22.762577
29.338795 -97.668903 -22.636719
31.357161 -84.208141 -24.094265
30.560044 -86.521435 -23.601911
30.02022 -85.517822 -23.483028
29.867679 -73.146652 -23.83308
29.826802 -71.656166 -23.704352
30.811848 -72.051815 -24.673821
30.006778 -74.553173 -23.92705
29.867679 -73.146652 -23.83308
31.398004 -68.10038 -25.416877
30.645489 -69.14542 -24.505703
31.370745 -66.600506 -25.342729
46.544325 -44.788815 -36.289211
47.232706 -45.809017 -36.025993
46.011181 -47.071518 -35.528919
46.544325 -44.788815 -36.289211
45.841721 -43.75898 -36.53725
43.307876 -39.192916 -37.628391
42.290024 -40.255313 -37.153549
42.765923 -37.954433 -37.92239
43.930366 -40.372246 -37.333797
43.307876 -39.192916 -37.628391
44.526682 -41.54974 -37.061267
43.428293 -42.671291 -36.58702
43.930366 -40.372246 -37.333797
45.192625 -42.657714 -36.798428
44.526682 -41.54974 -37.061267
3 0 30 28
3 0 32 30
3 1 35 33
3 1 37 35
3 2 110 112
3 112 111 38
3 110 111 112
3 2 113 115
3 113 39 114
3 113 114 115
3 4 42 40
3 4 44 42
3 116 46 117
3 118 48 119
3 120 119 46
3 118 119 120
3 5 51 49
3 5 53 51
3 3 56 54
3 6 59 57
3 6 61 59
3 6 63 61
3 7 64 29
3 7 65 64
3 7 66 65
3 9 67 31
3 9 68 67
3 121 70 122
3 11 123 125
3 123 71 124
3 123 124 125
3 11 72 71
3 12 75 73
3 14 76 34
3 14 77 76
3 14 79 77
3 16 80 36
3 16 126 128
3 128 127 80
3 126 127 128
3 17 129 130
3 17 131 133
3 131 132 133
3 8 134 135
3 137 136 41
3 18 81 43
3 18 82 81
3 19 138 140
3 138 83 139
3 138 139 140
3 19 84 83
3 141 85 142
3 143 86 144
3 20 87 45
3 20 88 87
3 20 89 88
3 21 90 47
3 21 91 90
3 10 92 69
3 22 93 50
3 22 94 93
3 22 95 94
3 23 96 52
3 23 97 96
3 145 98 146
3 24 99 55
3 24 100 99
3 13 101 74
3 25 102 58
3 25 103 102
3 25 104 103
3 26 105 60
3 26 106 105
3 26 107 106
3 27 108 62
3 27 147 149
3 149 148 108
3 147 148 149
3 15 109 78
3 28 150 152
3 150 29 151
3 150 151 152
3 30 29 28
3 30 7 29
3 30 31 7
3 32 31 30
3 32 9 31
3 153 11 154
3 33 34 12
3 35 34 33
3 35 14 34
3 35 36 14
3 37 36 35
3 37 16 36
3 38 155 156
3 158 157 38
3 39 159 160
3 39 161 163
3 161 17 162
3 161 162 163
3 40 41 8
3 42 41 40
3 42 164 166
3 166 165 41
3 164 165 166
3 42 167 169
3 167 43 168
3 167 168 169
3 44 43 42
3 44 18 43
3 170 19 171
3 172 45 173
3 172 173 174
3 46 175 177
3 175 45 176
3 175 176 177
3 46 20 45
3 46 47 20
3 48 47 46
3 48 21 47
3 49 50 10
3 51 50 49
3 51 22 50
3 51 52 22
3 53 52 51
3 53 23 52
3 54 178 180
3 178 55 179
3 178 179 180
3 56 55 54
3 56 24 55
3 57 58 13
3 59 58 57
3 59 25 58
3 59 60 25
3 61 60 59
3 61 26 60
3 61 62 26
3 63 62 61
3 63 27 62
3 182 181 15
3 29 183 184
3 64 185 187
3 187 186 29
3 185 186 187
3 64 188 189
3 64 190 191
3 65 192 194
3 194 193 64
3 192 193 194
3 65 195 196
3 65 197 198
3 66 199 201
3 201 200 65
3 199 200 201
3 66 202 204
3 202 8 203
3 202 203 204
3 31 66 7
3 67 66 31
3 67 8 66
3 67 40 8
3 68 40 67
3 68 4 40
3 205 69 206
3 70 207 209
3 207 69 208
3 207 208 209
3 70 10 69
3 210 70 211
3 71 212 214
3 212 70 213
3 212 213 214
3 71 10 70
3 71 49 10
3 72 49 71
3 72 5 49
3 73 74 3
3 75 74 73
3 75 13 74
3 34 75 12
3 76 75 34
3 76 13 75
3 76 57 13
3 77 57 76
3 77 6 57
3 77 78 6
3 79 78 77
3 79 15 78
3 36 79 14
3 80 79 36
3 80 15 79
3 80 215 217
3 217 216 15
3 215 216 217
3 219 218 80
3 220 54 221
3 222 54 223
3 224 3 225
3 226 225 54
3 224 225 226
3 227 3 228
3 229 73 230
3 231 230 3
3 229 230 231
3 232 73 233
3 234 12 235
3 236 235 73
3 234 235 236
3 237 12 238
3 239 33 240
3 241 240 12
3 239 240 241
3 242 33 243
3 244 1 245
3 246 245 33
3 244 245 246
3 41 247 249
3 249 248 8
3 247 248 249
3 251 250 41
3 43 252 253
3 81 254 256
3 256 255 43
3 254 255 256
3 81 257 258
3 81 259 261
3 259 38 260
3 259 260 261
3 82 38 81
3 82 2 38
3 83 262 263
3 83 264 265
3 83 266 268
3 266 28 267
3 266 267 268
3 84 28 83
3 84 0 28
3 269 1 270
3 271 1 272
3 273 37 274
3 275 274 1
3 273 274 275
3 85 276 278
3 276 37 277
3 276 277 278
3 85 16 37
3 279 85 280
3 281 85 282
3 281 282 283
3 284 16 285
3 286 285 85
3 284 285 286
3 288 287 16
3 289 19 290
3 291 19 292
3 293 84 294
3 295 294 19
3 293 294 295
3 86 296 298
3 296 84 297
3 296 297 298
3 86 0 84
3 45 299 300
3 87 301 303
3 303 302 45
3 301 302 303
3 87 304 305
3 87 306 308
3 306 86 307
3 306 307 308
3 88 86 87
3 88 0 86
3 88 32 0
3 89 32 88
3 89 9 32
3 47 89 20
3 90 89 47
3 90 9 89
3 90 68 9
3 91 68 90
3 91 4 68
3 69 309 311
3 309 48 310
3 309 310 311
3 92 48 69
3 92 21 48
3 50 92 10
3 93 92 50
3 93 21 92
3 93 91 21
3 94 91 93
3 94 4 91
3 94 44 4
3 95 44 94
3 95 18 44
3 52 95 22
3 96 95 52
3 96 18 95
3 96 82 18
3 97 82 96
3 97 2 82
3 98 312 313
3 98 314 316
3 314 11 315
3 314 315 316
3 55 317 319
3 317 98 318
3 317 318 319
3 99 98 55
3 99 11 98
3 99 72 11
3 100 72 99
3 100 5 72
3 74 56 3
3 101 56 74
3 101 24 56
3 58 101 13
3 102 101 58
3 102 24 101
3 102 100 24
3 103 100 102
3 103 5 100
3 103 53 5
3 104 53 103
3 104 23 53
3 60 104 25
3 105 104 60
3 105 23 104
3 105 97 23
3 106 97 105
3 106 2 97
3 106 39 2
3 107 39 106
3 107 17 39
3 62 107 26
3 108 107 62
3 108 17 107
3 108 320 322
3 322 321 17
3 320 321 322
3 324 323 108
3 78 63 6
3 109 63 78
3 109 27 63
3 325 109 326
3 327 326 15
3 325 326 327
3 328 109 329
3 330 27 331
3 332 331 109
3 330 331 332
3 334 333 27
