ply
format ascii 1.0
element vertex 134
property float x
property float y
property float z
element face 115
property list uchar int vertex_index
end_header
21.810196 -104.282059 -20.782812
18.041145 -95.172699 -18.384069
23.739681 -92.205353 -20.586348
25.15086 -107.20359 -21.559412
28.519815 -99.698875 -22.370321
19.399494 -100.288544 -19.728331
25.662737 -96.488091 -21.596987
19.924885 -107.833725 -20.4522
21.626804 -109.357574 -20.849157
23.377264 -105.872986 -21.204321
26.834398 -103.558495 -21.938547
25.186104 -102.156288 -21.571585
17.748615 -92.202904 -17.667299
18.587086 -97.87133 -19.085161
24.573399 -94.485001 -21.118666
18.452896 -106.040398 -19.984968
20.493074 -91.116234 -18.826925
20.912064 -93.87899 -19.469767
23.526308 -110.61438 -21.170935
27.093134 -108.27668 -21.824926
28.658363 -104.711319 -22.228811
30.229445 -100.92923 -22.655752
20.477665 -102.423485 -20.293955
21.594948 -96.364487 -20.086443
22.543594 -98.568932 -20.647371
23.747129 -100.496513 -21.141756
26.987041 -98.222336 -22.014597
16.606055 -95.621788 -17.823045
16.45979 -94.13689 -17.464661
17.89488 -93.687802 -18.025684
16.817971 -97.077892 -18.218364
16.606055 -95.621788 -17.823045
18.314115 -96.522014 -18.734615
17.090941 -98.427208 -18.568911
16.817971 -97.077892 -18.218364
16.82107 -106.719944 -19.550216
17.504512 -107.722736 -19.811472
21.679549 -88.968345 -19.141775
20.4059 -89.603112 -18.515428
21.832707 -90.382058 -19.423723
21.679549 -88.968345 -19.141775
30.141883 -98.324719 -22.762577
30.996697 -98.939896 -22.905293
29.37463 -100.314053 -22.513036
18.316413 -102.129734 -19.581242
17.839506 -100.953732 -19.25809
19.938579 -101.356015 -20.011143
18.855498 -103.197204 -19.864054
18.316413 -102.129734 -19.581242
20.775844 -108.59565 -20.650679
19.898103 -110.245731 -20.461105
19.047144 -109.483807 -20.262627
16.36765 -92.551514 -17.070334
17.71426 -90.592693 -17.33007
16.36765 -92.551514 -17.070334
16.45979 -94.13689 -17.464661
17.433302 -99.745125 -18.936504
17.090941 -98.427208 -18.568911
18.99329 -99.079937 -19.406746
17.839506 -100.953732 -19.25809
17.433302 -99.745125 -18.936504
25.540929 -92.331204 -21.441636
24.15654 -93.345177 -20.852507
25.12407 -91.19138 -21.175477
26.036718 -93.374371 -21.660309
25.540929 -92.331204 -21.441636
26.581387 -94.375916 -21.899469
25.118068 -95.486546 -21.357827
26.036718 -93.374371 -21.660309
27.19435 -95.284489 -22.090203
26.581387 -94.375916 -21.899469
18.240507 -108.6194 -20.045088
19.047144 -109.483807 -20.262627
19.18889 -106.937061 -20.218584
18.240507 -108.6194 -20.045088
17.504512 -107.722736 -19.811472
19.03367 -90.146446 -17.935615
17.71426 -90.592693 -17.33007
19.120845 -91.659569 -18.247112
19.03367 -90.146446 -17.935615
20.4059 -89.603112 -18.515428
22.042202 -91.763435 -19.745144
20.702569 -92.497612 -19.148346
21.832707 -90.382058 -19.423723
23.45601 -90.926617 -20.303435
22.325873 -93.042171 -20.028058
22.042202 -91.763435 -19.745144
24.756736 -90.011231 -20.9362
23.45601 -90.926617 -20.303435
25.12407 -91.19138 -21.175477
24.756736 -90.011231 -20.9362
20.814163 -110.973194 -20.640635
19.898103 -110.245731 -20.461105
21.763915 -111.601597 -20.801524
20.814163 -110.973194 -20.640635
22.576556 -109.985977 -21.010046
22.770217 -112.190037 -20.935149
21.763915 -111.601597 -20.801524
24.552998 -111.107144 -21.276232
22.770217 -112.190037 -20.935149
26.33641 -109.938294 -21.603228
24.552998 -111.107144 -21.276232
25.309721 -109.44553 -21.497931
28.123742 -108.682899 -21.885939
26.33641 -109.938294 -21.603228
28.853707 -106.947659 -22.113735
28.123742 -108.682899 -21.885939
29.636322 -105.164978 -22.315677
28.853707 -106.947659 -22.113735
27.875749 -106.494 -22.026868
30.367676 -103.317039 -22.536095
29.636322 -105.164978 -22.315677
31.153216 -101.425995 -22.749565
30.367676 -103.317039 -22.536095
29.443904 -102.820275 -22.442281
31.86911 -99.478901 -22.988262
31.153216 -101.425995 -22.749565
31.86911 -99.478901 -22.988262
30.996697 -98.939896 -22.905293
17.843114 -105.005661 -19.70956
16.82107 -106.719944 -19.550216
19.46528 -104.231942 -20.139461
17.843114 -105.005661 -19.70956
18.855498 -103.197204 -19.864054
27.856503 -96.151612 -22.299008
26.324889 -97.355213 -21.805792
27.19435 -95.284489 -22.090203
28.572409 -96.930633 -22.458856
27.856503 -96.151612 -22.299008
29.338795 -97.668903 -22.636719
27.753428 -98.960605 -22.192459
28.572409 -96.930633 -22.458856
30.141883 -98.324719 -22.762577
29.338795 -97.668903 -22.636719
3 0 9 7
3 0 11 9
3 1 27 29
3 29 28 12
3 27 28 29
3 1 30 31
3 1 32 34
3 32 13 33
3 32 33 34
3 35 15 36
3 37 16 38
3 40 39 16
3 3 18 8
3 3 19 18
3 3 20 19
3 4 21 10
3 4 41 43
3 43 42 21
3 41 42 43
3 5 44 45
3 5 46 48
3 46 22 47
3 46 47 48
3 2 23 17
3 6 24 14
3 6 25 24
3 6 26 25
3 7 49 51
3 49 8 50
3 49 50 51
3 9 8 7
3 9 3 8
3 9 10 3
3 11 10 9
3 11 4 10
3 12 52 53
3 55 54 12
3 13 56 57
3 13 58 60
3 58 5 59
3 58 59 60
3 61 14 62
3 63 62 2
3 61 62 63
3 64 14 65
3 66 6 67
3 68 67 14
3 66 67 68
3 70 69 6
3 71 7 72
3 15 73 75
3 73 7 74
3 73 74 75
3 15 0 7
3 76 12 77
3 16 78 80
3 78 12 79
3 78 79 80
3 16 1 12
3 16 17 1
3 81 17 82
3 83 82 16
3 81 82 83
3 84 2 85
3 86 85 17
3 84 85 86
3 87 2 88
3 90 89 2
3 8 91 92
3 18 93 95
3 95 94 8
3 93 94 95
3 18 96 97
3 18 98 99
3 19 100 102
3 102 101 18
3 100 101 102
3 19 103 104
3 19 105 106
3 20 107 109
3 109 108 19
3 107 108 109
3 20 110 111
3 10 20 3
3 21 20 10
3 21 112 114
3 114 113 20
3 112 113 114
3 21 115 116
3 118 117 21
3 119 15 120
3 22 121 123
3 121 15 122
3 121 122 123
3 22 0 15
3 17 13 1
3 23 13 17
3 23 5 13
3 14 23 2
3 24 23 14
3 24 5 23
3 24 22 5
3 25 22 24
3 25 0 22
3 25 11 0
3 26 11 25
3 26 4 11
3 124 26 125
3 126 125 6
3 124 125 126
3 127 26 128
3 129 4 130
3 131 130 26
3 129 130 131
3 133 132 4
