ply
format ascii 1.0
element vertex 363
property float x
property float y
property float z
element face 384
property list uchar int vertex_index
end_header
47.362888 20.020355 28.231661
57.118088 21.557362 12.451482
56.090893 16.77103 18.7694
57.374821 13.136543 26.880898
45.536674 16.442116 46.387421
49.82391 14.198208 36.610695
48.11525 23.301266 24.51976
52.407539 21.35136 19.984167
51.627907 18.565186 23.573189
56.403816 14.884102 22.706341
51.962898 16.098511 27.592045
47.420082 12.917963 50.42662
49.549088 11.872765 45.63213
47.253506 15.022583 41.450905
52.059422 11.319004 40.769127
55.114471 11.235775 35.914516
59.102226 16.017471 11.120312
53.990852 24.39526 16.874199
56.444424 19.014748 15.312115
59.643238 14.261608 14.193982
60.37886 12.883457 17.87055
44.200832 21.528297 32.852707
42.12991 24.169994 51.770729
45.288956 14.053318 54.865814
44.225452 18.181366 51.252205
42.856529 22.017525 46.988487
43.617153 19.879238 42.003551
45.190235 18.185452 37.097775
48.011047 17.02673 32.337894
53.313007 13.763206 31.808084
47.569473 21.624592 26.318253
49.659309 20.795052 24.039885
49.404587 19.310081 25.920404
51.651665 17.298092 25.539959
49.477898 17.904465 27.907692
50.470383 10.236261 47.567471
51.708023 9.951761 45.155411
50.740456 11.522957 43.199059
53.016884 9.796719 42.724068
54.414406 9.765585 40.286648
53.142159 27.298672 17.618416
52.036964 25.639477 19.089718
54.118267 18.947491 19.348179
54.533234 20.248672 17.644424
56.198067 17.846214 16.970533
57.986755 16.572514 14.667928
58.046917 15.626274 16.40387
59.977913 13.530869 15.972904
58.218216 14.777145 18.273645
56.822201 14.01693 24.783215
58.922745 13.282055 22.292553
59.417591 12.547087 24.368576
42.43409 22.003372 53.818817
46.849564 11.494452 54.369156
46.538521 14.70322 48.47187
45.697929 15.437927 50.864914
44.869659 17.303097 48.848297
43.535149 20.129368 49.176231
43.99577 19.121784 46.709709
43.179752 20.914165 44.49868
44.525459 18.159893 44.216599
48.418049 14.537083 39.017555
46.132252 16.590443 39.277794
47.325489 16.031429 36.860027
46.438263 17.550316 34.703964
48.807678 15.604836 34.471245
50.560726 15.26178 32.091419
51.466057 13.963013 34.215347
56.827503 11.222994 33.462395
56.350891 24.476353 13.304847
51.033619 23.981586 20.634014
50.218239 22.357689 22.278572
51.889194 19.916534 21.717022
53.903976 17.735302 21.181456
56.155922 15.789745 20.690254
53.921436 16.612503 23.129665
54.178017 15.560921 25.167294
54.655525 14.544777 27.259621
48.083511 11.062717 52.215988
49.275185 10.623283 49.933594
48.456757 12.352701 48.051544
47.430187 14.024017 46.031944
46.308647 15.665207 43.912109
48.435295 13.458824 43.581261
49.599976 13.042786 41.141945
50.950592 12.778402 38.721008
52.492355 12.632843 36.310867
53.518593 11.241228 38.344437
55.906624 9.817892 37.843136
58.045605 18.737232 11.687844
54.894638 25.944653 15.463963
55.731445 23.04248 14.631434
53.132004 22.853348 18.374012
55.095535 21.62265 16.073971
56.775551 20.260578 13.804646
58.004154 17.614777 13.089809
59.362171 15.091103 12.566467
58.513084 14.007885 20.247999
60.838966 12.285326 19.852179
46.231533 24.214512 26.729612
45.738564 22.44574 28.576756
45.606014 20.745029 30.532978
43.880363 16.80154 55.306915
46.384239 13.506577 52.715057
44.836189 16.159325 53.162712
43.517384 19.006199 53.543648
43.045822 21.112816 51.566811
42.541443 23.125759 49.431091
42.913288 21.618591 39.789413
45.213898 17.303249 41.732243
44.263325 18.961166 39.531525
43.557697 20.657177 37.34655
44.524334 19.826729 34.945381
45.846214 19.115864 32.584061
47.514076 18.491348 30.246822
49.875149 16.564098 29.976181
52.535545 14.934158 29.694618
55.308517 13.516113 29.366337
54.209206 12.54257 33.893112
56.064392 12.423723 31.446346
58.001728 12.185295 28.95764
52.704052 9.07173 44.856324
52.046837 9.128309 46.067667
53.358482 8.994208 43.640652
52.362454 9.87424 43.93974
52.704052 9.07173 44.856324
54.036426 8.993738 42.418037
53.358482 8.994208 43.640652
51.032062 26.217745 20.166201
51.641824 27.09702 19.402635
58.661436 12.439161 26.65803
59.682821 12.144433 25.401869
58.396206 12.841815 25.624737
42.549938 20.859007 54.73766
42.02841 22.373298 54.839107
47.651989 10.30793 54.094937
46.944973 10.445875 55.095848
57.251793 22.215867 11.850656
56.868195 23.675362 12.277338
56.734489 23.016858 12.878165
49.166745 22.829477 23.399166
49.587177 23.695866 22.556214
48.535683 24.167654 23.676808
50.183833 9.573186 49.644749
49.534172 9.717688 50.791897
56.186379 9.047159 38.749581
55.160515 9.791739 39.064892
55.440269 9.021006 39.971336
56.921276 9.104965 37.516752
56.186379 9.047159 38.749581
58.957826 16.521275 10.500483
58.429516 17.881155 10.784249
58.573915 17.377351 11.404078
60.20939 13.455251 13.236123
60.068857 13.869999 12.422365
59.502704 14.676355 13.380225
60.482922 13.140922 14.053833
60.20939 13.455251 13.236123
61.132202 12.180426 16.778652
60.931729 12.504133 15.829829
60.178387 13.207163 16.921727
61.418024 11.936675 17.716337
61.132202 12.180426 16.778652
61.085733 11.985526 20.866544
59.880855 12.78369 21.072366
60.127623 12.483891 22.086731
61.926102 11.398108 19.678641
61.085733 11.985526 20.866544
45.449517 24.671711 27.835286
45.824394 25.61297 26.933833
45.203032 23.787325 28.758858
45.985048 23.330126 27.653184
45.449517 24.671711 27.835286
44.22554 22.412492 31.849391
43.672079 22.869276 33.001095
44.903423 21.136663 31.692843
44.928131 22.020858 30.689526
44.22554 22.412492 31.849391
41.762453 25.72298 51.796043
41.830868 24.627887 52.854767
41.978159 25.192473 50.67411
41.762453 25.72298 51.796043
44.682961 14.277674 55.844116
45.407669 12.957463 55.604714
44.58466 15.427429 55.086365
43.978664 15.651784 56.064667
44.682961 14.277674 55.844116
42.47296 23.536241 47.093304
42.315416 24.090359 48.314605
42.698986 22.571642 48.209789
42.56998 22.93955 45.866298
42.47296 23.536241 47.093304
43.069016 21.288832 42.133241
42.850315 21.806295 43.380806
43.398453 20.396701 43.251115
43.26522 20.748914 40.896482
42.717083 22.158508 41.026173
43.069016 21.288832 42.133241
57.343266 11.767088 31.210449
56.445948 11.823359 32.45437
57.724821 11.166723 32.218474
58.311933 11.647874 29.966096
57.03306 12.304509 30.201993
57.343266 11.767088 31.210449
59.22444 11.496167 28.705306
58.311933 11.647874 29.966096
51.428017 9.270559 47.273697
50.781431 9.379675 48.461687
51.089203 10.094011 46.361441
51.428017 9.270559 47.273697
52.046837 9.128309 46.067667
54.735187 8.978172 41.199327
53.715645 9.781152 41.505358
54.036426 8.993738 42.418037
55.440269 9.021006 39.971336
54.735187 8.978172 41.199327
59.383657 15.108614 10.34154
59.667538 14.69693 10.9684
52.194422 27.926617 18.666984
52.831372 28.78776 17.916269
52.589562 26.469074 18.354067
52.194422 27.926617 18.666984
51.641824 27.09702 19.402635
60.375045 12.116407 23.124742
60.127623 12.483891 22.086731
59.170168 12.914571 23.330565
60.617361 11.785142 24.143408
60.375045 12.116407 23.124742
60.617361 11.785142 24.143408
59.682821 12.144433 25.401869
43.685911 21.96639 34.031464
43.672079 22.869276 33.001095
41.982958 23.544576 53.878811
42.02841 22.373298 54.839107
42.282 23.086683 52.794773
41.830868 24.627887 52.854767
41.982958 23.544576 53.878811
46.187973 11.678031 55.356384
46.944973 10.445875 55.095848
46.06926 12.773885 54.617485
45.407669 12.957463 55.604714
46.187973 11.678031 55.356384
57.157816 10.553252 34.423357
55.970987 11.229385 34.688456
56.3013 10.559642 35.649417
57.98448 10.548502 33.181082
57.157816 10.553252 34.423357
57.724821 11.166723 32.218474
57.98448 10.548502 33.181082
56.603087 25.184889 12.691896
56.046488 25.972963 13.711821
56.603087 25.184889 12.691896
56.868195 23.675362 12.277338
49.994867 24.507814 21.733936
50.53039 25.388799 20.93835
50.625929 23.169638 21.456293
49.994867 24.507814 21.733936
49.587177 23.695866 22.556214
48.938335 9.937404 51.933094
48.268963 10.092063 53.018353
48.679348 10.843 51.074791
48.938335 9.937404 51.933094
49.534172 9.717688 50.791897
49.872784 10.429772 48.750532
50.183833 9.573186 49.644749
50.781431 9.379675 48.461687
56.697377 9.850701 36.613727
56.3013 10.559642 35.649417
55.510548 10.526834 36.878826
56.697377 9.850701 36.613727
56.921276 9.104965 37.516752
58.043562 19.325813 11.08081
57.579803 20.735878 11.462629
57.581846 20.147297 12.069663
58.043562 19.325813 11.08081
58.429516 17.881155 10.784249
58.957826 16.521275 10.500483
59.383657 15.108614 10.34154
53.696106 28.112642 16.902893
52.831372 28.78776 17.916269
54.572345 27.435633 15.825667
53.696106 28.112642 16.902893
54.018399 26.621662 16.54119
55.318362 26.707113 14.791379
54.572345 27.435633 15.825667
55.622765 25.210503 14.384405
56.046488 25.972963 13.711821
55.318362 26.707113 14.791379
51.535291 24.810531 19.861866
51.032062 26.217745 20.166201
50.53039 25.388799 20.93835
59.79751 14.233746 11.691477
59.667538 14.69693 10.9684
59.232198 15.554287 11.84339
59.79751 14.233746 11.691477
60.068857 13.869999 12.422365
60.650259 12.775552 14.943293
60.482922 13.140922 14.053833
59.810575 13.896238 15.083443
60.650259 12.775552 14.943293
60.931729 12.504133 15.829829
61.648077 11.637609 18.707152
61.418024 11.936675 17.716337
60.608913 12.584391 18.861365
61.648077 11.637609 18.707152
61.926102 11.398108 19.678641
47.580086 24.668507 24.755127
48.535683 24.167654 23.676808
46.638227 25.12513 25.860053
45.824394 25.61297 26.933833
47.173392 23.757889 25.624686
47.580086 24.668507 24.755127
46.638227 25.12513 25.860053
44.994406 22.871214 29.711416
45.203032 23.787325 28.758858
45.672289 21.595385 29.554867
44.994406 22.871214 29.711416
44.928131 22.020858 30.689526
43.323853 17.056883 56.26995
43.978664 15.651784 56.064667
43.273075 18.258091 55.481708
43.323853 17.056883 56.26995
47.466538 11.278585 53.292572
47.651989 10.30793 54.094937
48.268963 10.092063 53.018353
43.091586 19.360421 54.600075
43.273075 18.258091 55.481708
43.698874 17.903869 54.425281
42.975737 20.504785 53.681233
42.549938 20.859007 54.73766
43.091586 19.360421 54.600075
42.183926 24.670355 49.504292
41.978159 25.192473 50.67411
42.335677 23.647876 50.60091
42.183926 24.670355 49.504292
42.315416 24.090359 48.314605
42.731592 22.38787 44.621395
42.56998 22.93955 45.866298
43.018141 21.465845 45.743583
42.731592 22.38787 44.621395
42.850315 21.806295 43.380806
42.507946 23.05443 39.916899
42.717083 22.158508 41.026173
42.703418 22.50534 38.699855
42.507946 23.05443 39.916899
43.025623 22.024634 37.478424
42.703418 22.50534 38.699855
43.235492 21.137884 38.567982
43.364344 21.530831 36.278385
43.025623 22.024634 37.478424
43.847662 21.115606 35.0778
43.364344 21.530831 36.278385
44.041016 20.241953 36.145966
44.362583 20.677513 33.899044
43.685911 21.96639 34.031464
43.847662 21.115606 35.0778
58.97489 11.963537 27.696401
58.661436 12.439161 26.65803
57.688274 12.660919 27.919269
58.97489 11.963537 27.696401
59.22444 11.496167 28.705306
57.251793 22.215867 11.850656
57.579803 20.735878 11.462629
3 0 32 30
3 0 34 32
3 121 36 122
3 123 38 124
3 125 124 36
3 123 124 125
3 127 126 38
3 128 41 129
3 2 44 42
3 2 46 44
3 2 48 46
3 3 51 49
3 3 130 132
3 132 131 51
3 130 131 132
3 133 52 134
3 135 53 136
3 4 56 54
3 4 58 56
3 4 60 58
3 5 63 61
3 5 65 63
3 5 67 65
3 1 137 139
3 139 138 69
3 137 138 139
3 6 140 142
3 140 71 141
3 140 141 142
3 8 72 31
3 8 73 72
3 8 75 73
3 10 76 33
3 10 77 76
3 143 79 144
3 12 80 35
3 12 81 80
3 12 83 81
3 14 84 37
3 14 85 84
3 14 87 85
3 145 88 146
3 147 146 39
3 145 146 147
3 149 148 88
3 16 150 152
3 152 151 89
3 150 151 152
3 17 90 40
3 17 91 90
3 7 92 70
3 18 93 43
3 18 94 93
3 18 95 94
3 19 96 45
3 19 153 155
3 155 154 96
3 153 154 155
3 19 156 157
3 20 158 160
3 160 159 47
3 158 159 160
3 20 161 162
3 9 97 74
3 163 98 164
3 165 164 50
3 163 164 165
3 167 166 98
3 168 99 169
3 170 100 171
3 172 171 99
3 170 171 172
3 21 173 174
3 21 175 177
3 175 101 176
3 175 176 177
3 22 178 179
3 22 180 181
3 23 182 183
3 23 184 186
3 184 102 185
3 184 185 186
3 11 103 78
3 24 104 55
3 24 105 104
3 24 106 105
3 25 107 57
3 25 187 189
3 189 188 107
3 187 188 189
3 25 190 191
3 26 192 194
3 194 193 59
3 192 193 194
3 26 195 197
3 195 108 196
3 195 196 197
3 13 109 82
3 27 110 62
3 27 111 110
3 27 112 111
3 28 113 64
3 28 114 113
3 28 115 114
3 29 116 66
3 29 117 116
3 15 118 86
3 198 119 199
3 200 199 68
3 198 199 200
3 201 120 202
3 203 202 119
3 201 202 203
3 205 204 120
3 30 31 6
3 32 31 30
3 32 8 31
3 32 33 8
3 34 33 32
3 34 10 33
3 206 35 207
3 36 208 210
3 208 35 209
3 208 209 210
3 36 12 35
3 36 37 12
3 38 37 36
3 38 14 37
3 38 39 14
3 211 39 212
3 213 212 38
3 211 212 213
3 215 214 39
3 217 216 16
3 218 40 219
3 41 220 222
3 220 40 221
3 220 221 222
3 41 17 40
3 42 43 7
3 44 43 42
3 44 18 43
3 44 45 18
3 46 45 44
3 46 19 45
3 46 47 19
3 48 47 46
3 48 20 47
3 49 50 9
3 51 50 49
3 51 223 225
3 225 224 50
3 223 224 225
3 51 226 227
3 229 228 51
3 230 21 231
3 52 232 233
3 52 234 236
3 234 22 235
3 234 235 236
3 53 237 238
3 53 239 241
3 239 23 240
3 239 240 241
3 54 55 11
3 56 55 54
3 56 24 55
3 56 57 24
3 58 57 56
3 58 25 57
3 58 59 25
3 60 59 58
3 60 26 59
3 61 62 13
3 63 62 61
3 63 27 62
3 63 64 27
3 65 64 63
3 65 28 64
3 65 66 28
3 67 66 65
3 67 29 66
3 242 68 243
3 244 243 15
3 242 243 244
3 245 68 246
3 248 247 68
3 69 249 250
3 252 251 69
3 253 70 254
3 71 255 257
3 255 70 256
3 255 256 257
3 71 7 70
3 31 71 6
3 72 71 31
3 72 7 71
3 72 42 7
3 73 42 72
3 73 2 42
3 73 74 2
3 75 74 73
3 75 9 74
3 33 75 8
3 76 75 33
3 76 9 75
3 76 49 9
3 77 49 76
3 77 3 49
3 258 78 259
3 79 260 262
3 260 78 261
3 260 261 262
3 79 11 78
3 35 263 265
3 263 79 264
3 263 264 265
3 80 79 35
3 80 11 79
3 80 54 11
3 81 54 80
3 81 4 54
3 81 82 4
3 83 82 81
3 83 13 82
3 37 83 12
3 84 83 37
3 84 13 83
3 84 61 13
3 85 61 84
3 85 5 61
3 85 86 5
3 87 86 85
3 87 15 86
3 39 87 14
3 88 87 39
3 88 15 87
3 88 266 268
3 268 267 15
3 266 267 268
3 270 269 88
3 89 271 273
3 273 272 1
3 271 272 273
3 275 274 89
3 277 276 16
3 40 278 279
3 90 280 282
3 282 281 40
3 280 281 282
3 90 283 284
3 90 285 287
3 285 69 286
3 285 286 287
3 91 69 90
3 91 1 69
3 70 288 290
3 288 41 289
3 288 289 290
3 92 41 70
3 92 17 41
3 43 92 7
3 93 92 43
3 93 17 92
3 93 91 17
3 94 91 93
3 94 1 91
3 94 89 1
3 95 89 94
3 95 16 89
3 45 95 18
3 96 95 45
3 96 16 95
3 96 291 293
3 293 292 16
3 291 292 293
3 295 294 96
3 47 296 298
3 298 297 19
3 296 297 298
3 300 299 47
3 74 48 2
3 97 48 74
3 97 20 48
3 50 97 9
3 98 97 50
3 98 20 97
3 98 301 303
3 303 302 20
3 301 302 303
3 305 304 98
3 306 6 307
3 99 308 309
3 99 310 312
3 310 6 311
3 310 311 312
3 99 30 6
3 100 30 99
3 100 0 30
3 313 100 314
3 101 315 317
3 315 100 316
3 315 316 317
3 101 0 100
3 102 318 319
3 102 320 321
3 78 322 324
3 322 53 323
3 322 323 324
3 103 53 78
3 103 23 53
3 55 103 11
3 104 103 55
3 104 23 103
3 104 102 23
3 105 102 104
3 105 325 327
3 327 326 102
3 325 326 327
3 105 328 330
3 328 52 329
3 328 329 330
3 106 52 105
3 106 22 52
3 57 106 24
3 107 106 57
3 107 22 106
3 107 331 333
3 333 332 22
3 331 332 333
3 335 334 107
3 59 336 338
3 338 337 25
3 336 337 338
3 340 339 59
3 108 341 342
3 108 343 344
3 82 60 4
3 109 60 82
3 109 26 60
3 62 109 13
3 110 109 62
3 110 26 109
3 110 108 26
3 111 108 110
3 111 345 347
3 347 346 108
3 345 346 347
3 111 348 349
3 112 350 352
3 352 351 111
3 350 351 352
3 112 353 355
3 353 21 354
3 353 354 355
3 64 112 27
3 113 112 64
3 113 21 112
3 113 101 21
3 114 101 113
3 114 0 101
3 114 34 0
3 115 34 114
3 115 10 34
3 66 115 28
3 116 115 66
3 116 10 115
3 116 77 10
3 117 77 116
3 117 3 77
3 86 67 5
3 118 67 86
3 118 29 67
3 68 118 15
3 119 118 68
3 119 29 118
3 119 117 29
3 120 117 119
3 120 3 117
3 120 356 358
3 358 357 3
3 356 357 358
3 360 359 120
3 362 361 1
