ply
format ascii 1.0
element vertex 693
property float x
property float y
property float z
element face 765
property list uchar int vertex_index
end_header
66.253845 -26.89855 33.759777
64.694145 -38.424461 48.336937
66.56028 -19.858797 25.22102
69.154465 -17.279436 31.488972
63.288826 -29.135048 46.9468
58.153072 -35.688576 50.810493
69.885635 -46.011452 21.698719
59.016785 -21.578825 21.532215
60.460014 -29.765764 27.998539
64.295364 -35.81469 35.232738
66.633461 -32.428722 42.230412
59.823509 -45.372002 49.84993
65.543945 -47.186951 43.843513
68.462013 -47.725018 33.028332
70.250702 -13.832081 27.35297
63.230438 -16.123981 19.75316
66.253708 -23.637493 29.385178
63.334366 -24.886021 26.705526
63.871864 -28.430792 30.784777
62.136147 -33.013592 31.685635
64.91761 -31.473991 34.968727
63.961235 -33.785286 48.053635
65.550179 -30.738344 44.898945
66.119202 -35.258419 45.749359
66.906845 -36.825508 42.420204
66.661713 -39.7187 45.150414
55.979862 -43.993622 50.356178
57.179321 -48.807957 49.088737
63.378967 -50.640511 44.443844
65.408424 -50.937737 39.73238
67.288925 -47.655273 38.712418
66.899506 -50.802261 34.203537
51.089848 -27.731915 21.274376
66.877167 -15.534645 21.439915
69.283974 -14.779074 24.047085
68.578911 -18.700371 28.148722
67.792969 -22.135548 32.454285
60.959946 -32.329895 49.447952
61.687065 -37.118721 50.115494
70.407242 -44.080833 16.302322
55.222435 -26.949831 22.813341
63.22863 -20.784973 22.998125
59.471161 -25.969952 24.53714
56.653835 -30.9408 25.417446
58.885498 -34.304798 28.34621
61.797977 -37.153259 31.255156
64.861221 -39.655128 33.811783
67.866501 -20.408228 35.680588
67.145844 -25.163502 36.800621
65.107826 -26.168404 43.607948
66.513123 -27.942936 41.02951
66.513428 -29.747549 38.127514
66.137459 -34.175388 38.943581
66.318848 -38.376892 38.336872
58.921211 -40.578461 50.849731
62.464859 -41.86441 49.718254
60.648911 -49.931274 47.655285
63.067047 -46.427486 47.725014
65.26059 -42.95974 46.944298
67.107109 -43.927689 42.664188
68.077927 -44.6866 37.457523
68.461357 -45.012093 31.885984
69.266617 -47.220284 27.287159
66.208595 -25.328905 31.55904
65.029381 -26.05587 30.097158
65.228607 -27.691986 32.2547
64.342415 -30.008423 32.883476
65.532028 -29.209328 34.424419
64.337852 -36.108231 48.366089
65.188087 -34.511684 47.035164
65.523041 -36.797596 47.180035
66.398087 -37.504284 45.678871
65.828697 -39.068138 46.912815
55.211739 -48.10759 49.246437
55.934448 -50.500992 48.593689
66.210106 -50.928032 37.025192
65.798538 -52.446804 34.820141
51.932907 -29.903606 22.047661
69.484314 -12.617367 22.140612
70.229095 -12.290451 23.677349
69.748169 -15.604473 29.401747
69.531914 -16.232151 27.689577
69.040787 -18.019131 29.792822
68.174957 -20.474615 30.287241
68.518936 -19.701855 31.92412
59.607704 -33.99799 50.284218
61.296928 -34.72448 49.852295
59.947559 -36.423981 50.551392
69.648674 -44.718597 21.187151
69.881386 -43.83812 18.456589
70.158669 -45.133259 18.976212
70.160881 -45.494293 16.905529
69.90419 -46.531292 19.562229
56.995972 -24.288401 22.277428
66.742729 -17.765224 23.274471
65.126884 -18.163898 22.188084
65.036552 -20.344664 24.012093
61.794693 -27.35046 27.418941
61.485855 -25.442112 25.556673
59.883224 -27.940266 26.2192
57.87635 -28.501295 25.106026
58.568291 -30.374052 26.686914
57.668671 -32.695126 26.859943
59.45248 -32.101284 28.341211
63.185623 -34.460091 33.498581
61.753159 -35.164482 31.681393
63.079109 -36.532089 33.271896
63.360184 -38.433365 32.591965
64.415138 -37.821999 34.757984
67.216515 -21.885765 37.746384
67.50309 -22.801752 36.193966
67.014854 -24.247421 38.300106
64.256989 -27.626049 45.359875
66.277885 -31.570955 43.649818
66.09552 -29.320787 43.029243
66.556938 -30.198 41.691559
66.715904 -28.847176 39.618439
66.623535 -31.088951 40.230576
66.27655 -31.979824 38.660091
66.583206 -33.303001 40.653381
67.130577 -38.957787 41.869316
66.762451 -37.617584 40.450821
57.958336 -44.721378 50.265648
57.452831 -42.297295 50.732689
59.371578 -42.995651 50.508629
60.763687 -41.250813 50.469002
61.167221 -43.622189 49.928734
64.491226 -48.900688 44.206299
63.26635 -48.586521 46.202217
64.403229 -46.841713 45.982742
64.226929 -44.677998 47.458591
65.444351 -45.124802 45.57502
66.304138 -43.460434 44.960857
66.447281 -45.521988 43.333298
67.934532 -47.750687 35.901333
67.868835 -46.125244 38.119354
68.340134 -46.287766 35.313377
68.319954 -44.919678 34.691483
68.696579 -46.320518 32.460968
68.974548 -46.196892 29.603247
68.897636 -47.554882 30.145912
70.61409 -11.937985 25.373434
69.646507 -14.933146 31.125359
69.426788 -45.40509 23.957592
61.14003 -18.852852 20.663364
66.381508 -21.815556 27.264553
64.959915 -22.386362 25.949108
64.945168 -24.289272 27.985271
63.535423 -26.726105 28.712784
62.255051 -29.119576 29.363815
61.214577 -31.453606 29.836395
62.874161 -30.756296 31.35113
63.63237 -32.27182 33.336155
64.4814 -33.684368 35.275169
63.598045 -31.461334 47.532639
64.521935 -29.929123 45.986389
64.844276 -32.222351 46.590454
65.831711 -33.001251 45.447258
66.481079 -33.807812 44.084824
66.745697 -34.640778 42.513168
66.698662 -36.032074 44.200829
66.932777 -38.22908 43.892136
67.184837 -40.370056 43.101704
52.440201 -44.867565 49.645973
53.935081 -43.206421 50.250465
54.533508 -45.670403 49.802559
56.562561 -46.423313 49.812859
58.482491 -47.101021 49.541428
64.472374 -50.840462 42.236649
65.540413 -49.128246 41.857506
66.499725 -47.461445 41.389122
66.432076 -49.265511 39.247372
67.187332 -49.30228 36.469528
67.827431 -49.222767 33.606277
68.37233 -49.008438 30.721064
67.495384 -50.547775 31.339905
68.257065 -15.18115 22.634268
68.033043 -17.315002 24.573696
69.944359 -14.327277 25.639986
68.965424 -16.804514 26.060112
67.75061 -19.313606 26.610092
67.462044 -21.180439 28.720964
67.211304 -22.920229 30.884274
67.023491 -24.540127 33.078392
62.190289 -30.704201 48.323761
62.520531 -33.063374 48.835526
62.902626 -35.423325 49.24144
63.293785 -37.779999 49.398682
56.663132 -52.834145 47.86919
70.348495 -41.523849 13.144729
70.119965 -42.770004 15.77177
70.619125 -42.865906 13.681895
53.113945 -27.378124 22.042564
53.844139 -29.506065 23.052971
65.182686 -15.846216 20.480564
63.237808 -18.52294 21.321348
61.199253 -21.193403 22.177429
63.245407 -22.906233 24.794212
61.300606 -23.390327 23.805725
59.194557 -23.849995 22.974688
57.361351 -26.474525 23.631996
55.843071 -29.028971 24.060371
54.78001 -31.450296 24.169868
60.524345 -33.693634 30.022648
60.27943 -35.784821 29.827065
68.953735 -16.49855 33.181553
68.206619 -18.021582 35.242268
68.516335 -18.876413 33.589024
68.00161 -21.292049 34.063362
67.451828 -23.693375 34.63134
66.898575 -26.0525 35.281616
65.299164 -28.463554 44.24485
65.950943 -27.04731 42.355965
66.509911 -25.652618 40.362762
66.847183 -26.56942 38.941978
66.811127 -27.47805 37.470688
66.370033 -28.362705 35.959343
65.90152 -30.628374 36.571465
65.541359 -32.851673 37.001205
65.347511 -35.021263 37.12878
66.620056 -35.486034 40.760788
66.13974 -36.318626 38.863266
65.374382 -37.107712 36.853848
65.654709 -39.067627 36.11515
56.622467 -37.382118 51.023087
55.462269 -41.535355 50.718193
56.995277 -39.845547 50.962097
58.502113 -38.13784 50.918449
60.346603 -38.845776 50.652306
62.087608 -39.503662 50.103439
63.65934 -40.122261 49.188728
57.800087 -51.131657 48.214409
59.000992 -49.419754 48.584511
60.25544 -47.689518 48.882248
62.108406 -50.338043 46.269386
61.854568 -48.184113 47.773003
61.535828 -45.939812 49.017273
62.796021 -44.179916 48.919113
63.975243 -42.429924 48.543976
65.006577 -40.716835 47.874054
66.092789 -41.299271 46.173016
66.903015 -41.870934 44.135262
67.445335 -42.41954 41.830883
67.247917 -45.861477 40.818634
67.687706 -44.345234 40.136784
69.208435 -45.896118 26.764694
69.590721 -46.707703 24.469311
68.839859 -48.641777 27.856564
69.244919 -48.10968 25.036854
69.598099 -47.405785 22.271786
55.344879 -51.347262 48.376175
54.928257 -50.144211 48.633529
65.216183 -53.29231 35.135722
65.457832 -52.527867 36.19568
65.482551 -53.134354 33.759767
65.216183 -53.29231 35.135722
51.646282 -31.038778 21.839936
52.46649 -30.888863 22.482649
70.514865 -11.095778 23.590637
70.287483 -11.201072 22.760893
58.880388 -34.843283 50.547356
58.76236 -33.620743 50.467656
58.035044 -34.466036 50.730793
57.882717 -21.76056 21.28118
58.959408 -20.36902 20.859972
58.006378 -22.933613 21.904822
56.872311 -23.115348 21.653786
57.882717 -21.76056 21.28118
66.886871 -22.604709 38.758362
66.934533 -21.428189 38.511143
66.786041 -23.785536 39.035223
67.115685 -23.066593 38.023245
66.886871 -22.604709 38.758362
63.772908 -28.380548 46.153338
63.663441 -27.215945 45.888022
63.17936 -27.970444 46.681484
67.078964 -39.310249 40.76746
67.274406 -39.979702 41.350321
69.794895 -13.841093 30.964266
69.941341 -14.118714 30.115571
69.027484 -45.038044 25.111897
69.077903 -44.804825 23.718397
62.158833 -16.249026 19.495587
63.20269 -14.859862 19.012758
62.185234 -17.488416 20.208262
61.113629 -17.613461 19.950689
62.158833 -16.249026 19.495587
53.834941 -46.504855 49.487728
53.486854 -45.268984 49.724266
52.788288 -46.103436 49.409435
64.940399 -50.8891 40.984515
64.396389 -51.745767 41.206869
64.864414 -51.794405 39.954735
50.145102 -27.855111 20.868241
50.775214 -26.54519 20.924122
60.839748 -31.135601 49.244484
60.165417 -31.953851 49.717396
61.575118 -31.517048 48.885857
61.45492 -30.322754 48.682389
60.839748 -31.135601 49.244484
69.818798 -41.546272 14.223581
69.94165 -40.907045 12.91368
70.382721 -44.19437 15.301578
70.488663 -43.586906 13.991365
70.513183 -43.47337 14.992109
69.88686 -45.66529 15.955767
69.794967 -46.245716 17.247762
54.16819 -27.163978 22.427952
53.941524 -26.038289 21.859834
54.995769 -25.824143 22.245222
66.029927 -15.69043 20.96024
66.050679 -14.508143 20.104045
66.897919 -14.352358 20.58372
56.292488 -32.080934 25.398716
55.355576 -32.335683 24.774927
55.716922 -31.195548 24.793657
58.089824 -34.569208 27.497985
57.481411 -33.764372 26.754852
58.277085 -33.499962 27.603077
58.865944 -35.305505 28.14009
58.089824 -34.569208 27.497985
61.16923 -37.406384 30.220406
60.409956 -36.722165 29.50636
61.038703 -36.46904 30.541111
62.049779 -38.035389 30.809886
61.16923 -37.406384 30.220406
64.445198 -39.882131 32.627425
63.694679 -39.27125 32.017516
64.110703 -39.044246 33.201874
65.233265 -40.461946 33.109917
64.817242 -40.688949 31.925559
64.445198 -39.882131 32.627425
68.715812 -16.09936 34.002371
69.108692 -15.364092 32.985892
68.03656 -19.214905 35.461428
67.821495 -18.765939 36.261364
67.651436 -19.959262 36.480524
65.052208 -25.010854 43.336655
64.593331 -25.739968 44.209903
65.486213 -25.455562 42.670506
65.052208 -25.010854 43.336655
55.834164 -38.223571 50.982143
55.696644 -36.990379 51.065579
58.094836 -52.255448 47.722226
57.231609 -51.982901 48.0418
57.526358 -53.106691 47.549616
59.824951 -49.675514 48.119898
59.244739 -50.540973 48.015118
60.068699 -50.796734 47.550505
62.743687 -50.489277 45.356615
62.192276 -51.362777 45.430998
62.827557 -51.514011 44.518226
67.91351 -43.803472 38.396006
67.718399 -43.63279 39.735636
67.882817 -44.515917 38.797154
67.969292 -44.013142 37.084871
67.91351 -43.803472 38.396006
68.149197 -44.326645 32.950557
68.078495 -44.280437 34.353306
68.390656 -44.965885 33.288733
68.100235 -44.40168 31.582168
68.149197 -44.326645 32.950557
68.505619 -44.974058 30.47882
68.100235 -44.40168 31.582168
68.426106 -49.396373 28.171457
68.606095 -48.825108 29.288814
68.192341 -49.579704 29.603707
69.045597 -48.499775 23.978675
68.852799 -48.855075 25.355833
69.222187 -48.147828 22.596141
69.421509 -47.757733 23.65432
69.045597 -48.499775 23.978675
69.38424 -47.712674 21.24923
69.222187 -48.147828 22.596141
64.197834 -14.760665 19.318643
63.20269 -14.859862 19.012758
54.566902 -48.94751 48.959903
54.174057 -47.723448 49.209667
53.529221 -48.563368 48.923133
55.573093 -49.304291 48.920063
54.566902 -48.94751 48.959903
54.928257 -50.144211 48.633529
65.262775 -51.773333 38.6518
64.864414 -51.794405 39.954735
65.663616 -51.768481 37.298206
65.809265 -50.932885 38.378786
65.262775 -51.773333 38.6518
66.004322 -51.687418 35.922666
65.663616 -51.768481 37.298206
65.457832 -52.527867 36.19568
66.092773 -52.302357 33.411238
66.643258 -51.480085 33.102936
66.349022 -51.624533 34.511839
66.092773 -52.302357 33.411238
65.482551 -53.134354 33.759767
51.045215 -30.044177 21.526987
50.623686 -28.958331 21.140344
51.511378 -28.81776 21.661019
51.045215 -30.044177 21.526987
51.646282 -31.038778 21.839936
69.915093 -11.364531 21.992525
69.505322 -11.467389 21.258645
69.856705 -12.453909 22.90898
69.915093 -11.364531 21.992525
70.287483 -11.201072 22.760893
59.489296 -32.787899 50.135529
58.76236 -33.620743 50.467656
60.283825 -33.163943 49.866085
60.165417 -31.953851 49.717396
59.489296 -32.787899 50.135529
69.76503 -44.278359 19.82187
69.376603 -43.684736 19.586789
69.260246 -44.124975 20.95207
69.666622 -46.764215 18.576111
69.794967 -46.245716 17.247762
70.032535 -46.012793 18.233879
55.882538 -24.493428 21.977266
56.872311 -23.115348 21.653786
56.109203 -25.619116 22.545385
54.995769 -25.824143 22.245222
55.882538 -24.493428 21.977266
67.326443 -20.698031 37.513422
66.934533 -21.428189 38.511143
67.541508 -21.146997 36.713486
67.651436 -19.959262 36.480524
67.326443 -20.698031 37.513422
64.167912 -26.468791 45.085867
63.663441 -27.215945 45.888022
64.682408 -26.897226 44.483912
64.593331 -25.739968 44.209903
64.167912 -26.468791 45.085867
66.894901 -38.640148 40.058212
66.946514 -38.287686 41.160068
67.078964 -39.310249 40.76746
66.6731 -39.019802 39.001238
66.54065 -37.997238 39.393846
66.894901 -38.640148 40.058212
66.50211 -39.342327 37.833782
66.6731 -39.019802 39.001238
60.815304 -51.006805 46.947203
60.068699 -50.796734 47.550505
70.765103 -10.82033 25.333196
70.707363 -10.919545 24.438679
70.642723 -11.756001 26.262864
70.765103 -10.82033 25.333196
70.461029 -12.703049 27.252632
70.432396 -12.885033 26.363202
70.642723 -11.756001 26.262864
70.243439 -13.568181 28.229376
70.461029 -12.703049 27.252632
69.992173 -14.454377 29.253765
69.999436 -14.718277 28.377358
70.243439 -13.568181 28.229376
69.697338 -15.268809 30.263553
69.992173 -14.454377 29.253765
69.941341 -14.118714 30.115571
57.264437 -35.305151 50.9165
58.035044 -34.466036 50.730793
69.188846 -44.461578 22.333177
69.260246 -44.124975 20.95207
69.537731 -45.061844 22.572372
69.188846 -44.461578 22.333177
69.077903 -44.804825 23.718397
60.021031 -19.006033 20.425547
61.113629 -17.613461 19.950689
60.078407 -20.215838 21.09779
58.959408 -20.36902 20.859972
60.021031 -19.006033 20.425547
67.301536 -40.685837 41.966515
67.274406 -39.979702 41.350321
67.157707 -39.663922 42.48551
53.187641 -44.036993 49.948219
52.904364 -42.798694 50.173557
52.156924 -43.629266 49.871311
54.872624 -46.888997 49.524498
53.834941 -46.504855 49.487728
54.174057 -47.723448 49.209667
63.380543 -51.608742 43.495661
62.827557 -51.514011 44.518226
63.927246 -51.708718 42.392063
64.396389 -51.745767 41.206869
63.925671 -50.740487 43.340246
63.380543 -51.608742 43.495661
63.927246 -51.708718 42.392063
67.753868 -50.349373 29.913128
68.192341 -49.579704 29.603707
67.933857 -49.778106 31.030485
66.941197 -51.352842 31.67112
67.197445 -50.675018 32.771721
66.643258 -51.480085 33.102936
67.197151 -51.14068 30.258792
66.941197 -51.352842 31.67112
67.753868 -50.349373 29.913128
67.197151 -51.14068 30.258792
50.145102 -27.855111 20.868241
50.623686 -28.958331 21.140344
67.625362 -14.222786 21.127412
66.897919 -14.352358 20.58372
68.928936 -12.764146 21.477761
69.505322 -11.467389 21.258645
68.315312 -14.046038 21.724588
68.928936 -12.764146 21.477761
68.870689 -13.899259 22.38744
67.567116 -15.357897 22.037091
67.625362 -14.222786 21.127412
68.315312 -14.046038 21.724588
70.421593 -12.114218 24.525391
70.514865 -11.095778 23.590637
70.707363 -10.919545 24.438679
62.620869 -28.741649 47.392952
63.17936 -27.970444 46.681484
62.0716 -29.526225 48.081432
61.45492 -30.322754 48.682389
62.739558 -29.919625 47.635281
62.620869 -28.741649 47.392952
62.0716 -29.526225 48.081432
56.125236 -53.686957 47.752684
55.709221 -52.513838 48.013925
55.171326 -53.36665 47.897419
57.006922 -53.962615 47.480221
56.125236 -53.686957 47.752684
57.526358 -53.106691 47.549616
57.006922 -53.962615 47.480221
70.445694 -40.817825 11.869906
70.038849 -40.201021 11.638856
69.94165 -40.907045 12.91368
70.561267 -41.513254 12.135887
70.445694 -40.817825 11.869906
69.471428 -43.244771 18.221884
69.376603 -43.684736 19.586789
69.590717 -42.710712 16.879475
69.471428 -43.244771 18.221884
70.000675 -43.304062 17.114179
69.704533 -42.169349 15.537102
69.590717 -42.710712 16.879475
70.23423 -42.146926 14.45825
69.818798 -41.546272 14.223581
69.704533 -42.169349 15.537102
70.696583 -42.184283 12.404471
70.561267 -41.513254 12.135887
70.48381 -42.194878 13.413312
70.549301 -42.927143 12.717586
70.696583 -42.184283 12.404471
70.549301 -42.927143 12.717586
70.488663 -43.586906 13.991365
70.25954 -44.9011 15.603182
70.382721 -44.19437 15.301578
70.284062 -44.787563 16.603926
70.25954 -44.9011 15.603182
69.88686 -45.66529 15.955767
51.385315 -44.459469 49.567894
52.156924 -43.629266 49.871311
51.719048 -45.700468 49.325454
51.385315 -44.459469 49.567894
50.664162 -45.292372 49.247376
52.788288 -46.103436 49.409435
51.719048 -45.700468 49.325454
51.831248 -26.397557 21.200584
50.775214 -26.54519 20.924122
52.843296 -26.220661 21.584678
53.941524 -26.038289 21.859834
52.101897 -27.55502 21.65847
51.831248 -26.397557 21.200584
52.843296 -26.220661 21.584678
53.422106 -30.690092 22.985304
52.46649 -30.888863 22.482649
52.888523 -29.704836 22.550316
65.173958 -14.621782 19.682344
66.050679 -14.508143 20.104045
64.206562 -15.985098 20.116862
64.197834 -14.760665 19.318643
65.173958 -14.621782 19.682344
53.890041 -31.662208 23.543753
53.422106 -30.690092 22.985304
54.312074 -30.478181 23.61142
54.537315 -32.551591 24.026788
53.890041 -31.662208 23.543753
54.537315 -32.551591 24.026788
55.355576 -32.335683 24.774927
56.799906 -32.958098 26.119965
56.292488 -32.080934 25.398716
57.161253 -31.817963 26.138694
56.799906 -32.958098 26.119965
57.481411 -33.764372 26.754852
59.56291 -36.045517 28.880518
58.865944 -35.305505 28.14009
59.582464 -35.044809 29.086638
59.56291 -36.045517 28.880518
60.409956 -36.722165 29.50636
62.830883 -38.675442 31.47829
62.049779 -38.035389 30.809886
62.579081 -37.793312 31.923561
62.830883 -38.675442 31.47829
63.694679 -39.27125 32.017516
69.455078 -14.58139 31.957794
69.794895 -13.841093 30.964266
69.300121 -15.715848 32.153456
69.455078 -14.58139 31.957794
69.108692 -15.364092 32.985892
67.921795 -17.594726 36.047713
67.821495 -18.765939 36.261364
68.342254 -16.860875 35.032729
68.057431 -16.43402 35.838173
67.921795 -17.594726 36.047713
68.580177 -17.260066 34.211911
68.715812 -16.09936 34.002371
68.342254 -16.860875 35.032729
65.907772 -25.895015 42.044514
65.486213 -25.455562 42.670506
65.529384 -26.607857 42.981956
66.187256 -25.197669 41.047912
65.907772 -25.895015 42.044514
66.230427 -26.349964 41.359364
66.533569 -24.488135 40.066551
66.187256 -25.197669 41.047912
66.762383 -24.950019 39.331434
66.786041 -23.785536 39.035223
66.533569 -24.488135 40.066551
66.17004 -39.687694 36.722921
65.986778 -38.722259 37.226011
66.50211 -39.342327 37.833782
65.919044 -39.961216 35.509006
66.17004 -39.687694 36.722921
65.522301 -40.254966 34.357323
65.257965 -39.361378 34.963466
65.919044 -39.961216 35.509006
65.233265 -40.461946 33.109917
65.522301 -40.254966 34.357323
56.499134 -36.151922 51.022797
55.696644 -36.990379 51.065579
57.38777 -36.535347 50.91679
57.264437 -35.305151 50.9165
56.499134 -36.151922 51.022797
53.694324 -41.969672 50.429966
52.904364 -42.798694 50.173557
54.457918 -41.134139 50.66383
53.694324 -41.969672 50.429966
54.698675 -42.370888 50.484329
55.254064 -40.30019 50.829696
54.457918 -41.134139 50.66383
56.020568 -39.455286 50.951649
55.254064 -40.30019 50.829696
56.228773 -40.690451 50.840145
56.808872 -38.613833 50.992592
55.834164 -38.223571 50.982143
56.020568 -39.455286 50.951649
56.29879 -51.667569 48.23144
55.344879 -51.347262 48.376175
55.709221 -52.513838 48.013925
58.644287 -51.396925 47.830067
58.094836 -52.255448 47.722226
58.400539 -50.275706 48.39946
58.644287 -51.396925 47.830067
59.244739 -50.540973 48.015118
61.545051 -51.210189 46.254253
62.192276 -51.362777 45.430998
61.378659 -50.134659 46.962335
60.815304 -51.006805 46.947203
61.545051 -51.210189 46.254253
67.431785 -41.710578 41.331104
67.301536 -40.685837 41.966515
67.315086 -41.394798 42.466293
67.597214 -42.669942 40.582685
67.56652 -43.382387 40.983834
67.718399 -43.63279 39.735636
67.431785 -41.710578 41.331104
67.597214 -42.669942 40.582685
68.090305 -44.129681 35.701851
67.969292 -44.013142 37.084871
68.19894 -44.803139 36.074503
68.090305 -44.129681 35.701851
68.078495 -44.280437 34.353306
68.762214 -45.566458 29.337452
68.505619 -44.974058 30.47882
68.717952 -45.604492 30.744616
68.879158 -45.416071 27.918175
68.762214 -45.566458 29.337452
69.091491 -46.046505 28.183971
68.918308 -45.283558 26.515448
68.879158 -45.416071 27.918175
69.317611 -45.650604 25.361143
69.027484 -45.038044 25.111897
68.918308 -45.283558 26.515448
68.650269 -49.121124 26.765688
68.426106 -49.396373 28.171457
69.042389 -48.375728 26.446709
68.650269 -49.121124 26.765688
68.852799 -48.855075 25.355833
69.537285 -47.275427 19.894452
69.751145 -46.968539 20.917007
69.38424 -47.712674 21.24923
69.666622 -46.764215 18.576111
69.537285 -47.275427 19.894452
3 0 65 63
3 0 67 65
3 1 70 68
3 1 72 70
3 250 74 251
3 252 76 253
3 255 254 76
3 257 256 77
3 258 79 259
3 3 82 80
3 3 84 82
3 5 260 262
3 260 85 261
3 260 261 262
3 5 87 85
3 6 90 88
3 6 92 90
3 7 263 264
3 7 265 267
3 265 93 266
3 265 266 267
3 2 96 94
3 8 99 97
3 8 101 99
3 8 103 101
3 9 106 104
3 9 108 106
3 268 109 269
3 270 111 271
3 272 271 109
3 270 271 272
3 4 273 275
3 273 112 274
3 273 274 275
3 10 115 113
3 10 117 115
3 10 119 117
3 277 276 120
3 11 124 122
3 11 126 124
3 12 129 127
3 12 131 129
3 12 133 131
3 13 136 134
3 13 138 136
3 13 140 138
3 278 142 279
3 280 143 281
3 15 282 283
3 15 284 286
3 284 144 285
3 284 285 286
3 16 147 145
3 18 148 64
3 18 149 148
3 18 151 149
3 20 152 66
3 20 153 152
3 21 156 154
3 23 157 69
3 23 158 157
3 23 160 158
3 25 161 71
3 25 162 161
3 287 165 288
3 289 288 163
3 287 288 289
3 27 166 73
3 27 167 166
3 29 290 292
3 290 168 291
3 290 291 292
3 29 169 168
3 29 171 169
3 31 172 75
3 31 173 172
3 31 175 173
3 32 293 294
3 34 176 78
3 34 177 176
3 14 178 141
3 35 179 81
3 35 180 179
3 35 181 180
3 36 182 83
3 36 183 182
3 37 295 296
3 37 297 299
3 297 184 298
3 297 298 299
3 37 185 184
3 38 186 86
3 38 187 186
3 300 189 301
3 39 190 89
3 39 191 190
3 39 302 304
3 304 303 191
3 302 303 304
3 306 305 91
3 40 307 309
3 307 192 308
3 307 308 309
3 40 193 192
3 33 310 312
3 310 194 311
3 310 311 312
3 41 195 95
3 41 196 195
3 17 197 146
3 42 198 98
3 42 199 198
3 42 200 199
3 43 201 100
3 43 202 201
3 43 313 315
3 315 314 202
3 313 314 315
3 44 316 318
3 318 317 102
3 316 317 318
3 44 319 320
3 19 203 150
3 45 204 105
3 45 321 323
3 323 322 204
3 321 322 323
3 45 324 325
3 46 326 328
3 328 327 107
3 326 327 328
3 46 329 331
3 329 330 331
3 332 205 333
3 47 334 336
3 334 206 335
3 334 335 336
3 47 207 206
3 47 208 207
3 48 209 110
3 48 210 209
3 49 337 338
3 49 339 340
3 22 211 155
3 50 212 114
3 50 213 212
3 50 214 213
3 51 215 116
3 51 216 215
3 51 217 216
3 52 218 118
3 52 219 218
3 24 220 159
3 53 221 121
3 53 222 221
3 53 223 222
3 341 224 342
3 26 225 164
3 54 226 123
3 54 227 226
3 54 228 227
3 55 229 125
3 55 230 229
3 343 231 344
3 345 344 188
3 343 344 345
3 56 346 348
3 346 232 347
3 346 347 348
3 56 233 232
3 28 349 351
3 349 234 350
3 349 350 351
3 57 235 128
3 57 236 235
3 57 237 236
3 58 238 130
3 58 239 238
3 58 240 239
3 59 241 132
3 59 242 241
3 30 243 170
3 60 244 135
3 60 352 354
3 354 353 244
3 352 353 354
3 60 355 356
3 61 357 359
3 359 358 137
3 357 358 359
3 61 360 361
3 61 362 363
3 62 245 139
3 62 246 245
3 364 247 365
3 366 365 174
3 364 365 366
3 367 248 368
3 369 249 370
3 371 370 248
3 369 370 371
3 373 372 249
3 374 15 375
3 63 64 16
3 65 64 63
3 65 18 64
3 65 66 18
3 67 66 65
3 67 20 66
3 68 69 21
3 70 69 68
3 70 23 69
3 70 71 23
3 72 71 70
3 72 25 71
3 376 73 377
3 376 377 378
3 74 379 381
3 379 73 380
3 379 380 381
3 74 27 73
3 382 29 383
3 384 75 385
3 386 385 29
3 384 385 386
3 76 387 389
3 387 75 388
3 387 388 389
3 76 31 75
3 76 390 392
3 392 391 31
3 390 391 392
3 394 393 76
3 77 395 397
3 397 396 32
3 395 396 397
3 399 398 77
3 400 78 401
3 79 402 404
3 402 78 403
3 402 403 404
3 79 34 78
3 80 81 14
3 82 81 80
3 82 35 81
3 82 83 35
3 84 83 82
3 84 36 83
3 85 405 406
3 85 407 409
3 407 37 408
3 407 408 409
3 85 86 37
3 87 86 85
3 87 38 86
3 88 410 412
3 410 89 411
3 410 411 412
3 90 89 88
3 90 39 89
3 90 91 39
3 92 91 90
3 92 413 415
3 415 414 91
3 413 414 415
3 93 416 417
3 93 418 420
3 418 40 419
3 418 419 420
3 94 95 33
3 96 95 94
3 96 41 95
3 97 98 17
3 99 98 97
3 99 42 98
3 99 100 42
3 101 100 99
3 101 43 100
3 101 102 43
3 103 102 101
3 103 44 102
3 104 105 19
3 106 105 104
3 106 45 105
3 106 107 45
3 108 107 106
3 108 46 107
3 109 421 422
3 109 423 425
3 423 47 424
3 423 424 425
3 109 110 47
3 111 110 109
3 111 48 110
3 112 426 427
3 112 428 430
3 428 49 429
3 428 429 430
3 113 114 22
3 115 114 113
3 115 50 114
3 115 116 50
3 117 116 115
3 117 51 116
3 117 118 51
3 119 118 117
3 119 52 118
3 120 121 24
3 431 121 432
3 433 432 120
3 431 432 433
3 434 53 435
3 436 435 121
3 434 435 436
3 438 437 53
3 122 123 26
3 124 123 122
3 124 54 123
3 124 125 54
3 126 125 124
3 126 55 125
3 439 56 440
3 127 128 28
3 129 128 127
3 129 57 128
3 129 130 57
3 131 130 129
3 131 58 130
3 131 132 58
3 133 132 131
3 133 59 132
3 134 135 30
3 136 135 134
3 136 60 135
3 136 137 60
3 138 137 136
3 138 61 137
3 138 139 61
3 140 139 138
3 140 62 139
3 441 141 442
3 443 141 444
3 445 14 446
3 447 446 141
3 445 446 447
3 448 14 449
3 450 80 451
3 452 451 14
3 450 451 452
3 142 453 455
3 453 80 454
3 453 454 455
3 142 3 80
3 456 5 457
3 458 88 459
3 143 460 462
3 460 88 461
3 460 461 462
3 143 6 88
3 144 463 464
3 144 465 467
3 465 7 466
3 465 466 467
3 145 146 2
3 147 146 145
3 147 17 146
3 64 147 16
3 148 147 64
3 148 17 147
3 148 97 17
3 149 97 148
3 149 8 97
3 149 150 8
3 151 150 149
3 151 19 150
3 66 151 18
3 152 151 66
3 152 19 151
3 152 104 19
3 153 104 152
3 153 9 104
3 154 155 4
3 156 155 154
3 156 22 155
3 69 156 21
3 157 156 69
3 157 22 156
3 157 113 22
3 158 113 157
3 158 10 113
3 158 159 10
3 160 159 158
3 160 24 159
3 71 160 23
3 161 160 71
3 161 24 160
3 161 120 24
3 162 120 161
3 162 468 470
3 470 469 120
3 468 469 470
3 163 471 473
3 471 164 472
3 471 472 473
3 165 164 163
3 165 26 164
3 73 474 476
3 474 165 475
3 474 475 476
3 166 165 73
3 166 26 165
3 166 122 26
3 167 122 166
3 167 11 122
3 477 28 478
3 168 479 480
3 168 481 483
3 481 28 482
3 481 482 483
3 168 127 28
3 169 127 168
3 169 12 127
3 169 170 12
3 171 170 169
3 171 30 170
3 75 171 29
3 172 171 75
3 172 30 171
3 172 134 30
3 173 134 172
3 173 13 134
3 173 174 13
3 175 174 173
3 175 484 486
3 486 485 174
3 484 485 486
3 487 175 488
3 489 488 31
3 487 488 489
3 490 175 491
3 493 492 175
3 495 494 32
3 496 33 497
3 78 498 499
3 176 500 502
3 502 501 78
3 500 501 502
3 176 503 505
3 503 33 504
3 503 504 505
3 176 94 33
3 177 94 176
3 177 2 94
3 141 506 508
3 506 79 507
3 506 507 508
3 178 79 141
3 178 34 79
3 81 178 14
3 179 178 81
3 179 34 178
3 179 177 34
3 180 177 179
3 180 2 177
3 180 145 2
3 181 145 180
3 181 16 145
3 83 181 35
3 182 181 83
3 182 16 181
3 182 63 16
3 183 63 182
3 183 0 63
3 509 4 510
3 184 511 512
3 184 513 515
3 513 4 514
3 513 514 515
3 184 154 4
3 185 154 184
3 185 21 154
3 86 185 37
3 186 185 86
3 186 21 185
3 186 68 21
3 187 68 186
3 187 1 68
3 516 188 517
3 516 517 518
3 519 188 520
3 522 521 188
3 189 523 525
3 523 524 525
3 189 526 527
3 89 528 529
3 190 530 532
3 532 531 89
3 530 531 532
3 190 533 534
3 190 535 537
3 535 189 536
3 535 536 537
3 191 189 190
3 191 538 540
3 540 539 189
3 538 539 540
3 191 541 542
3 544 543 191
3 91 545 547
3 547 546 39
3 545 546 547
3 549 548 91
3 550 163 551
3 552 163 553
3 552 553 554
3 556 555 163
3 557 32 558
3 192 559 560
3 192 561 563
3 561 32 562
3 561 562 563
3 192 77 32
3 193 77 192
3 193 564 566
3 566 565 77
3 564 565 566
3 194 567 568
3 194 569 571
3 569 15 570
3 569 570 571
3 95 194 33
3 195 194 95
3 195 15 194
3 195 144 15
3 196 144 195
3 196 7 144
3 146 96 2
3 197 96 146
3 197 41 96
3 98 197 17
3 198 197 98
3 198 41 197
3 198 196 41
3 199 196 198
3 199 7 196
3 199 93 7
3 200 93 199
3 200 40 93
3 100 200 42
3 201 200 100
3 201 40 200
3 201 193 40
3 202 193 201
3 202 572 574
3 574 573 193
3 572 573 574
3 202 575 576
3 578 577 202
3 102 579 581
3 581 580 43
3 579 580 581
3 583 582 102
3 150 103 8
3 203 103 150
3 203 44 103
3 105 203 19
3 204 203 105
3 204 44 203
3 204 584 586
3 586 585 44
3 584 585 586
3 588 587 204
3 107 589 591
3 591 590 45
3 589 590 591
3 593 592 107
3 594 142 595
3 205 596 598
3 596 142 597
3 596 597 598
3 205 3 142
3 206 599 600
3 206 601 603
3 601 602 603
3 206 604 606
3 604 205 605
3 604 605 606
3 207 205 206
3 207 3 205
3 207 84 3
3 208 84 207
3 208 36 84
3 110 208 47
3 209 208 110
3 209 36 208
3 209 183 36
3 210 183 209
3 210 0 183
3 155 112 4
3 211 112 155
3 211 49 112
3 114 211 22
3 212 211 114
3 212 49 211
3 212 607 609
3 609 608 49
3 607 608 609
3 213 610 612
3 612 611 212
3 610 611 612
3 213 613 614
3 213 615 617
3 615 111 616
3 615 616 617
3 214 111 213
3 214 48 111
3 116 214 50
3 215 214 116
3 215 48 214
3 215 210 48
3 216 210 215
3 216 0 210
3 216 67 0
3 217 67 216
3 217 20 67
3 118 217 51
3 218 217 118
3 218 20 217
3 218 153 20
3 219 153 218
3 219 9 153
3 159 119 10
3 220 119 159
3 220 52 119
3 121 220 24
3 221 220 121
3 221 52 220
3 221 219 52
3 222 219 221
3 222 9 219
3 222 108 9
3 223 108 222
3 223 46 108
3 618 223 619
3 620 619 53
3 618 619 620
3 621 223 622
3 623 46 624
3 625 624 223
3 623 624 625
3 627 626 46
3 224 628 629
3 224 630 632
3 630 5 631
3 630 631 632
3 164 633 634
3 225 635 637
3 637 636 164
3 635 636 637
3 225 638 639
3 123 225 26
3 226 225 123
3 226 640 642
3 642 641 225
3 640 641 642
3 226 643 645
3 643 224 644
3 643 644 645
3 227 224 226
3 227 5 224
3 227 87 5
3 228 87 227
3 228 38 87
3 125 228 54
3 229 228 125
3 229 38 228
3 229 187 38
3 230 187 229
3 230 1 187
3 188 646 648
3 646 74 647
3 646 647 648
3 231 74 188
3 231 27 74
3 649 231 650
3 232 651 653
3 651 231 652
3 651 652 653
3 232 27 231
3 232 167 27
3 233 167 232
3 233 11 167
3 234 654 655
3 234 656 658
3 656 56 657
3 656 657 658
3 128 234 28
3 235 234 128
3 235 56 234
3 235 233 56
3 236 233 235
3 236 11 233
3 236 126 11
3 237 126 236
3 237 55 126
3 130 237 57
3 238 237 130
3 238 55 237
3 238 230 55
3 239 230 238
3 239 1 230
3 239 72 1
3 240 72 239
3 240 25 72
3 132 240 58
3 241 240 132
3 241 25 240
3 241 162 25
3 242 162 241
3 242 659 661
3 661 660 162
3 659 660 661
3 170 133 12
3 243 133 170
3 243 59 133
3 135 243 30
3 244 243 135
3 244 59 243
3 244 242 59
3 662 242 663
3 664 663 244
3 662 663 664
3 666 665 242
3 137 667 669
3 669 668 60
3 667 668 669
3 671 670 137
3 139 672 674
3 674 673 61
3 672 673 674
3 245 675 677
3 677 676 139
3 675 676 677
3 245 678 679
3 245 680 682
3 680 143 681
3 680 681 682
3 246 143 245
3 246 6 143
3 174 140 13
3 247 140 174
3 247 62 140
3 683 247 684
3 248 685 687
3 685 247 686
3 685 686 687
3 248 62 247
3 248 246 62
3 249 246 248
3 249 6 246
3 249 92 6
3 688 92 689
3 690 689 249
3 688 689 690
3 692 691 92
