ply
format ascii 1.0
element vertex 283
property float x
property float y
property float z
element face 301
property list uchar int vertex_index
end_header
34.260532 -92.982216 35.617607
19.714016 -99.457817 36.411613
27.005423 -111.361488 14.723881
31.964926 -101.650589 23.236652
27.143505 -93.828293 32.426712
22.781719 -105.773209 23.776035
33.465862 -97.13353 29.040127
21.105633 -93.266029 40.674858
24.518368 -90.31485 38.706383
23.351521 -96.228897 33.652622
25.393726 -99.70887 27.541561
21.172241 -102.542801 29.636211
14.531672 -113.229507 23.236801
31.983717 -108.416977 14.748684
34.304031 -104.369843 19.627928
29.72348 -106.458405 18.532627
30.862095 -92.892319 33.180683
29.584484 -97.851234 27.321144
27.492861 -103.321075 22.594767
24.764872 -108.889572 18.944492
18.070103 -108.381691 26.37261
19.632641 -111.404213 20.705547
21.771799 -114.162247 15.824821
35.578552 -94.991867 33.797634
35.22464 -96.966492 30.438332
33.936932 -95.013985 32.271141
18.896004 -98.011253 39.969994
19.489307 -94.983658 42.048622
20.553833 -96.334084 38.432003
22.273075 -94.665688 37.08469
21.505394 -97.811714 34.892914
22.394405 -99.393707 31.521128
20.45092 -100.973579 32.93819
29.532814 -109.889183 14.581644
28.147772 -112.166801 12.64682
25.577917 -113.773582 12.976181
34.027908 -101.060127 24.185587
35.219418 -102.415504 22.415213
33.14278 -103.194298 21.412516
32.07505 -105.384811 18.905083
30.925457 -104.028442 20.747658
25.86307 -91.972542 35.431343
26.285748 -89.331841 38.296299
27.68885 -91.164024 35.280602
29.489594 -90.754921 35.615143
29.030418 -93.178589 32.556572
30.322813 -95.287415 30.128166
28.377766 -95.816093 29.724365
24.18169 -102.761597 25.534859
26.42588 -101.530922 24.928257
25.150631 -104.47094 22.969202
26.186476 -106.12014 20.660402
23.727209 -107.372871 21.247553
17.532412 -106.864388 29.540596
15.776688 -109.423553 27.94722
17.062498 -112.455811 21.919632
18.000025 -113.943138 19.212549
20.648087 -112.846664 18.19252
19.091162 -115.348442 16.673607
20.281607 -116.59993 14.239058
34.718151 -98.985527 27.209696
32.813896 -99.347351 26.009335
22.784691 -91.661201 39.524914
24.048321 -93.167145 36.052376
25.239117 -94.862816 32.804176
26.383965 -96.70163 29.836853
24.379112 -97.923737 30.455002
23.27211 -101.054344 28.387703
21.935715 -104.150238 26.570927
13.931377 -111.678741 26.312399
33.213463 -106.369843 17.08098
30.857067 -107.621712 16.644438
28.401276 -108.912842 16.54809
34.477585 -91.020302 38.974819
32.894733 -90.825302 37.558563
31.231588 -90.683243 36.400642
32.6096 -92.875465 34.235844
32.183441 -95.059914 31.006607
31.580267 -97.383263 27.965126
30.778048 -99.832954 25.179884
27.509592 -98.621849 27.174711
28.636835 -100.54612 24.806402
29.776005 -102.382248 22.68737
28.596104 -104.994881 20.48815
27.277836 -107.629967 18.546864
25.868759 -110.246384 16.797438
19.11338 -104.025612 31.176834
19.712463 -105.566551 27.945145
20.413576 -107.120865 24.94346
16.317429 -110.940269 24.831741
18.766756 -109.901184 23.423279
21.245605 -108.671204 22.195625
22.208744 -110.178978 19.686161
23.27833 -111.58271 17.36389
24.414818 -112.805992 15.153998
22.954025 -115.2752 13.526382
34.919542 -93.987042 34.707621
35.700394 -94.017987 35.495042
35.041383 -93.013161 36.405029
14.671532 -109.779293 28.744343
15.597566 -108.665302 29.585823
17.198891 -115.110184 18.422401
16.682443 -114.359535 19.779482
17.744459 -115.812836 17.152929
18.545594 -114.64579 17.943078
17.198891 -115.110184 18.422401
18.333742 -116.508354 15.862082
17.744459 -115.812836 17.152929
20.4615 -92.658905 42.502573
19.653337 -93.517719 43.189455
20.29747 -94.124843 41.36174
21.265864 -91.820904 41.90778
20.4615 -92.658905 42.502573
21.945162 -92.463615 40.099886
22.105393 -91.01849 41.332808
21.265864 -91.820904 41.90778
32.544055 -108.616085 13.770972
33.160472 -107.677208 14.981562
35.343204 -103.853344 20.128825
35.800898 -102.876174 21.522467
34.761724 -103.392674 21.021571
34.873449 -104.742542 18.72236
35.343204 -103.853344 20.128825
33.758747 -105.369843 18.354454
34.328165 -105.742542 17.448886
34.873449 -104.742542 18.72236
34.55164 -90.060669 40.600706
35.237688 -91.060669 39.744089
32.182507 -89.739258 38.622341
32.986593 -89.856395 39.210743
24.666233 -89.0304 40.135806
23.807165 -89.607582 40.447848
26.42071 -88.157349 39.811396
27.170625 -89.044254 38.315054
18.112396 -104.687168 32.026691
18.837398 -103.264351 32.87838
20.898649 -117.112156 13.038018
19.559864 -117.736629 13.388835
36.350588 -94.910869 34.619875
35.700394 -94.017987 35.495042
36.218238 -95.858341 32.911164
36.350588 -94.910869 34.619875
35.401596 -95.97918 32.117983
36.041283 -96.845653 31.231513
36.218238 -95.858341 32.911164
19.192656 -96.497456 41.009308
18.711978 -95.818158 42.783113
18.415326 -97.331955 41.7438
30.096429 -110.197689 13.581012
31.32188 -109.461586 13.664532
30.758266 -109.15308 14.665164
29.403908 -111.336498 12.613599
30.096429 -110.197689 13.581012
28.840293 -111.027992 13.614232
28.717239 -112.396385 11.578978
29.403908 -111.336498 12.613599
27.44424 -113.29871 11.705172
28.717239 -112.396385 11.578978
26.159313 -114.1021 11.869853
27.44424 -113.29871 11.705172
26.862845 -112.970191 12.811501
24.864682 -114.946182 12.100175
26.159313 -114.1021 11.869853
34.623663 -101.737815 23.3004
35.580835 -101.457367 23.926744
34.98508 -100.779678 24.811931
27.872176 -89.960346 36.807206
27.170625 -89.044254 38.315054
26.987299 -90.247932 36.78845
28.589222 -90.959473 35.447873
28.772548 -89.755795 36.974476
27.872176 -89.960346 36.807206
16.475428 -107.385719 30.382511
17.321912 -106.106556 31.208572
16.65455 -108.14397 28.743908
16.475428 -107.385719 30.382511
15.597566 -108.665302 29.585823
16.21368 -113.615871 21.133024
15.797085 -112.842659 22.578216
14.948266 -114.002719 21.791608
17.531261 -113.199475 20.566091
16.21368 -113.615871 21.133024
16.682443 -114.359535 19.779482
18.928964 -117.134098 14.644807
19.686385 -115.974186 15.456333
18.333742 -116.508354 15.862082
19.559864 -117.736629 13.388835
18.928964 -117.134098 14.644807
35.851761 -97.787259 29.550223
36.041283 -96.845653 31.231513
35.598517 -98.796776 27.935904
35.851761 -97.787259 29.550223
34.971395 -97.97601 28.824014
35.330202 -99.742378 26.323985
35.598517 -98.796776 27.935904
34.37303 -100.022827 25.697642
34.98508 -100.779678 24.811931
35.330202 -99.742378 26.323985
18.88015 -94.38102 43.847172
18.711978 -95.818158 42.783113
18.88015 -94.38102 43.847172
19.653337 -93.517719 43.189455
22.940327 -90.280757 40.857113
22.105393 -91.01849 41.332808
23.651529 -90.988026 39.115649
23.807165 -89.607582 40.447848
22.940327 -90.280757 40.857113
12.792476 -111.856392 27.032336
13.748876 -110.906887 27.926932
13.008035 -112.660442 25.437072
12.792476 -111.856392 27.032336
13.308182 -113.435825 23.899273
14.231524 -112.454124 24.7746
13.008035 -112.660442 25.437072
13.658617 -114.246669 22.376003
13.308182 -113.435825 23.899273
14.948266 -114.002719 21.791608
13.658617 -114.246669 22.376003
32.544055 -108.616085 13.770972
31.32188 -109.461586 13.664532
18.098128 -98.773395 40.763514
18.415326 -97.331955 41.7438
18.43978 -99.507042 39.020735
18.098128 -98.773395 40.763514
18.848785 -100.230324 37.241545
19.30501 -98.734535 38.190804
18.43978 -99.507042 39.020735
19.137716 -100.980454 35.49577
18.848785 -100.230324 37.241545
36.176541 -102.00008 23.035986
35.580835 -101.457367 23.926744
36.176541 -102.00008 23.035986
35.800898 -102.876174 21.522467
33.775345 -106.653641 16.14771
34.328165 -105.742542 17.448886
32.59859 -107.39341 15.914832
33.160472 -107.677208 14.981562
33.775345 -106.653641 16.14771
35.14991 -92.032204 38.083635
35.237688 -91.060669 39.744089
34.369058 -92.001259 37.296213
35.041383 -93.013161 36.405029
35.14991 -92.032204 38.083635
33.778019 -89.953896 39.918871
34.55164 -90.060669 40.600706
33.686159 -90.922802 38.266691
33.778019 -89.953896 39.918871
32.986593 -89.856395 39.210743
25.549923 -88.538895 39.930763
24.666233 -89.0304 40.135806
25.402058 -89.823346 38.501341
25.549923 -88.538895 39.930763
26.42071 -88.157349 39.811396
29.641037 -89.658493 37.214386
28.772548 -89.755795 36.974476
30.512034 -89.622654 37.607135
29.641037 -89.658493 37.214386
30.360591 -90.719082 36.007892
31.350935 -89.668228 38.04338
30.512034 -89.622654 37.607135
32.063161 -90.754272 36.979602
32.182507 -89.739258 38.622341
31.350935 -89.668228 38.04338
19.506169 -101.738335 33.759058
20.082468 -100.215698 34.674902
19.137716 -100.980454 35.49577
19.78215 -102.499595 32.057512
19.506169 -101.738335 33.759058
18.837398 -103.264351 32.87838
18.322896 -105.445 30.358715
18.112396 -104.687168 32.026691
17.321912 -106.106556 31.208572
14.854032 -110.551147 27.12981
14.671532 -109.779293 28.744343
13.748876 -110.906887 27.926932
23.552736 -115.696991 12.375276
24.864682 -114.946182 12.100175
24.265971 -114.524391 13.251282
22.234858 -116.449791 12.68168
21.617816 -115.937565 13.88272
20.898649 -117.112156 13.038018
23.552736 -115.696991 12.375276
22.234858 -116.449791 12.68168
3 0 96 98
3 96 23 97
3 96 97 98
3 0 25 23
3 1 28 26
3 1 30 28
3 1 32 30
3 2 34 33
3 2 35 34
3 3 38 36
3 3 40 38
3 4 43 41
3 4 45 43
3 4 47 45
3 5 50 48
3 5 52 50
3 99 54 100
3 101 56 102
3 103 58 104
3 105 104 56
3 103 104 105
3 107 106 58
3 6 60 24
3 6 61 60
3 7 108 110
3 110 109 27
3 108 109 110
3 7 111 112
3 7 113 115
3 113 62 114
3 113 114 115
3 9 63 29
3 9 64 63
3 9 66 64
3 11 67 31
3 11 68 67
3 13 116 117
3 14 118 120
3 120 119 37
3 118 119 120
3 14 121 122
3 14 123 125
3 123 70 124
3 123 124 125
3 15 71 39
3 15 72 71
3 126 73 127
3 128 74 129
3 8 130 131
3 133 132 42
3 16 75 44
3 16 76 75
3 16 77 76
3 17 78 46
3 17 79 78
3 10 80 65
3 18 81 49
3 18 82 81
3 18 83 82
3 19 84 51
3 19 85 84
3 134 86 135
3 20 87 53
3 20 88 87
3 12 89 69
3 21 90 55
3 21 91 90
3 21 92 91
3 22 93 57
3 22 94 93
3 22 95 94
3 137 136 59
3 23 138 139
3 23 140 141
3 23 142 144
3 142 24 143
3 142 143 144
3 25 24 23
3 25 6 24
3 26 145 147
3 145 27 146
3 145 146 147
3 28 27 26
3 28 7 27
3 28 29 7
3 30 29 28
3 30 9 29
3 30 31 9
3 32 31 30
3 32 11 31
3 33 148 150
3 150 149 13
3 148 149 150
3 34 151 153
3 153 152 33
3 151 152 153
3 34 154 155
3 34 156 157
3 35 158 160
3 160 159 34
3 158 159 160
3 35 161 162
3 36 163 165
3 163 37 164
3 163 164 165
3 38 37 36
3 38 14 37
3 38 39 14
3 40 39 38
3 40 15 39
3 41 42 8
3 43 42 41
3 43 166 168
3 168 167 42
3 166 167 168
3 43 169 171
3 169 44 170
3 169 170 171
3 45 44 43
3 45 16 44
3 45 46 16
3 47 46 45
3 47 17 46
3 48 49 10
3 50 49 48
3 50 18 49
3 50 51 18
3 52 51 50
3 52 19 51
3 172 53 173
3 54 174 176
3 174 53 175
3 174 175 176
3 54 20 53
3 177 55 178
3 179 178 12
3 177 178 179
3 56 180 182
3 180 55 181
3 180 181 182
3 56 21 55
3 56 57 21
3 58 57 56
3 58 22 57
3 58 59 22
3 183 59 184
3 185 184 58
3 183 184 185
3 187 186 59
3 24 188 189
3 60 190 192
3 192 191 24
3 190 191 192
3 60 193 194
3 60 195 197
3 195 36 196
3 195 196 197
3 61 36 60
3 61 3 36
3 27 198 199
3 201 200 27
3 62 202 203
3 62 204 206
3 204 8 205
3 204 205 206
3 29 62 7
3 63 62 29
3 63 8 62
3 63 41 8
3 64 41 63
3 64 4 41
3 64 65 4
3 66 65 64
3 66 10 65
3 31 66 9
3 67 66 31
3 67 10 66
3 67 48 10
3 68 48 67
3 68 5 48
3 207 69 208
3 209 69 210
3 211 12 212
3 213 212 69
3 211 212 213
3 214 12 215
3 217 216 12
3 219 218 13
3 220 26 221
3 222 26 223
3 224 1 225
3 226 225 26
3 224 225 226
3 228 227 1
3 37 229 230
3 232 231 37
3 70 233 234
3 70 235 237
3 235 13 236
3 235 236 237
3 39 70 14
3 71 70 39
3 71 13 70
3 71 33 13
3 72 33 71
3 72 2 33
3 73 238 239
3 73 240 242
3 240 0 241
3 240 241 242
3 243 73 244
3 74 245 247
3 245 73 246
3 245 246 247
3 74 0 73
3 42 248 250
3 250 249 8
3 248 249 250
3 252 251 42
3 44 253 254
3 75 255 257
3 257 256 44
3 255 256 257
3 75 258 259
3 75 260 262
3 260 74 261
3 260 261 262
3 76 74 75
3 76 0 74
3 76 25 0
3 77 25 76
3 77 6 25
3 46 77 16
3 78 77 46
3 78 6 77
3 78 61 6
3 79 61 78
3 79 3 61
3 65 47 4
3 80 47 65
3 80 17 47
3 49 80 10
3 81 80 49
3 81 17 80
3 81 79 17
3 82 79 81
3 82 3 79
3 82 40 3
3 83 40 82
3 83 15 40
3 51 83 18
3 84 83 51
3 84 15 83
3 84 72 15
3 85 72 84
3 85 2 72
3 263 32 264
3 265 264 1
3 263 264 265
3 86 266 268
3 266 32 267
3 266 267 268
3 86 11 32
3 53 269 271
3 269 86 270
3 269 270 271
3 87 86 53
3 87 11 86
3 87 68 11
3 88 68 87
3 88 5 68
3 69 272 274
3 272 54 273
3 272 273 274
3 89 54 69
3 89 20 54
3 55 89 12
3 90 89 55
3 90 20 89
3 90 88 20
3 91 88 90
3 91 5 88
3 91 52 5
3 92 52 91
3 92 19 52
3 57 92 21
3 93 92 57
3 93 19 92
3 93 85 19
3 94 85 93
3 94 2 85
3 94 35 2
3 95 35 94
3 95 275 277
3 277 276 35
3 275 276 277
3 59 95 22
3 278 95 279
3 280 279 59
3 278 279 280
3 282 281 95
