ply
format ascii 1.0
element vertex 377
property float x
property float y
property float z
element face 391
property list uchar int vertex_index
end_header
43.911751 15.802189 -35.057663
53.305443 2.402288 -22.084528
52.955032 -15.226645 -4.944427
44.683342 3.382841 -18.730947
45.850586 -6.430392 -13.278677
49.58984 10.340231 -29.492975
44.972565 -13.850804 -5.837412
54.600922 -6.747833 -13.698616
42.469429 -2.732096 -10.996986
42.613075 -7.433816 -8.522423
48.81871 1.62187 -21.140982
47.465656 6.04031 -24.141748
51.709564 6.614716 -25.945211
40.684177 16.533558 -30.790632
48.617195 -15.240624 -5.6171
49.653946 -11.649286 -9.99984
54.136971 -11.163432 -9.306379
45.471447 -1.63825 -16.186369
49.702347 -2.976322 -17.80208
43.409164 13.680161 -29.03557
45.672752 10.112574 -26.793264
46.97802 13.45784 -32.594734
42.24913 -10.650789 -5.337324
41.422836 -12.61747 -1.262924
43.767197 -16.331703 -1.394981
47.067467 -18.281122 -1.138767
45.705967 -10.585133 -9.857903
50.014893 -7.500249 -14.09271
54.302692 -2.136023 -17.985441
51.052647 1.790031 -21.785975
50.375923 3.967873 -23.543276
52.576557 4.561346 -24.048204
42.317413 15.81398 -32.985313
40.744293 16.765545 -33.741508
42.245567 16.617836 -35.981476
50.7206 -15.351308 -5.304764
51.369476 -13.502932 -7.517155
53.627434 -13.242355 -7.112202
44.055328 -4.92879 -12.312204
43.888023 -2.442308 -13.610357
45.718655 -4.087561 -14.786394
47.508041 -2.658897 -17.190008
47.747334 -5.002324 -15.584345
41.640625 14.9258 -26.985643
42.771095 13.089836 -26.039557
48.658058 8.045231 -26.812464
46.625546 8.128712 -25.514048
47.623302 9.914007 -28.306349
46.47015 11.64813 -29.688292
48.344269 11.983711 -31.110487
48.725395 14.162834 -33.943161
40.576767 -10.164588 -1.098511
41.893295 -15.569008 0.876721
43.07534 -17.348095 0.882526
45.297348 -17.514452 -1.308029
44.507465 -18.687408 0.956843
48.131699 -20.258343 1.194618
43.488586 -12.461996 -5.67309
43.835892 -11.011548 -7.606091
45.410511 -12.329144 -7.918276
52.166183 -9.452844 -11.889381
49.922184 -9.637642 -12.09156
52.289337 -7.272428 -14.008064
52.228622 -5.021706 -16.062201
54.544903 -4.450856 -15.861704
42.592445 -5.22704 -9.812035
44.113747 -7.22855 -10.902822
46.677528 2.107124 -20.115427
46.107346 4.460461 -21.453764
48.19696 3.86532 -22.682985
49.575939 6.058319 -25.221121
50.712421 8.545662 -27.764975
46.689804 -14.768611 -5.811869
47.213455 -13.156054 -7.985981
49.214024 -13.518174 -7.833792
51.857162 -11.535187 -9.719418
54.464645 -8.993748 -11.508141
42.261799 -0.050018 -12.112957
43.627388 0.16111 -14.82313
45.123219 0.866159 -17.496542
47.147057 -0.276274 -18.696756
49.324409 -0.668163 -19.515249
51.596176 -0.454086 -19.95273
45.454914 16.341133 -36.897537
43.682922 17.049793 -38.048706
40.392593 16.575352 -27.847406
42.098766 15.210903 -29.978624
43.809437 14.625031 -32.046295
45.437817 6.758625 -22.715776
44.664165 8.978916 -23.902063
43.777946 11.097954 -25.010881
44.601692 11.971275 -27.970449
45.197659 13.226921 -30.941133
45.496502 14.739616 -33.919701
47.14307 15.369572 -35.51683
41.26392 -8.562925 -4.889688
40.954979 -9.467862 -3.116899
41.873997 -11.737461 -3.381014
43.025196 -13.672136 -3.578571
40.939049 -13.351053 0.938419
42.479622 -14.694677 -1.376806
44.413754 -15.175083 -3.648832
46.03952 -16.215124 -3.574673
47.889511 -16.823658 -3.376789
49.938416 -17.085333 -3.104012
46.1964 -19.629995 1.074847
49.060303 -18.716381 -0.933147
42.503723 -9.248674 -7.054981
44.045139 -9.270623 -9.346254
45.850925 -8.61164 -11.642277
47.586956 -11.364799 -10.065775
47.798798 -9.39447 -12.029196
47.849129 -7.262215 -13.867558
49.937584 -5.267019 -15.996096
51.993095 -2.736271 -18.044611
53.885159 0.160019 -20.061689
56.427933 -10.699355 -8.851456
56.746574 -8.437491 -11.045645
56.873394 -6.117764 -13.266447
56.805748 -3.761523 -15.497112
54.013094 3.895686 -23.172396
53.648651 4.975215 -24.154233
52.941 3.481817 -23.066366
42.370207 13.006332 -24.55426
41.890335 14.058399 -25.032455
44.418925 4.629802 -19.31534
43.773211 4.439182 -17.897219
49.889204 11.54371 -30.852288
49.266419 12.36545 -31.661044
48.967055 11.161971 -30.301731
42.731676 -17.798149 2.014754
42.194673 -16.83605 2.008095
43.447738 -18.467806 2.051912
43.791403 -18.017752 0.919685
42.731676 -17.798149 2.014754
42.60276 -6.330428 -9.167229
41.986733 -5.161428 -8.590556
41.997048 -6.264816 -7.945749
52.219314 7.99447 -27.170172
51.720743 8.959943 -28.080053
51.210993 7.580189 -26.855093
39.937162 17.076794 -31.127415
39.864063 17.27105 -29.707073
39.93388 17.110952 -34.021809
40.637542 16.964035 -35.204605
42.365614 -1.391057 -11.554972
41.667725 0.044569 -10.75818
41.77154 -1.29647 -10.200195
45.260365 17.09148 -38.376091
46.201505 16.76471 -37.672562
40.160553 16.76627 -26.392866
39.564487 17.629305 -26.829696
48.732444 15.208217 -35.37698
49.571327 14.614746 -34.465439
40.436985 -8.453202 -2.042093
40.613076 -8.246164 -3.013311
40.703729 -13.662133 2.048726
40.374398 -12.28787 2.072396
45.76239 -20.258516 2.160556
44.958856 -19.692107 2.133898
50.151993 -18.825435 -0.839241
48.596001 -19.487362 0.130736
49.687691 -19.596417 0.224641
50.604214 -17.918623 -1.875938
50.151993 -18.825435 -0.839241
42.771396 17.260254 -38.492226
43.404347 17.618724 -39.518367
57.544598 -10.504268 -8.644654
56.177925 -11.795658 -7.776122
57.889072 -7.004781 -11.929378
57.843328 -8.199469 -10.820476
57.952482 -5.844918 -13.039779
56.809984 -7.277627 -12.156046
57.889072 -7.004781 -11.929378
57.726118 -2.252438 -16.431788
57.869297 -3.459626 -15.286258
56.676583 -2.580017 -16.610068
57.726118 -2.252438 -16.431788
42.010134 -7.291632 -7.396097
41.997048 -6.264816 -7.945749
53.186476 6.005852 -25.203268
52.752979 7.032538 -26.151772
52.143061 5.588031 -24.996707
53.186476 6.005852 -25.203268
53.648651 4.975215 -24.154233
41.388179 16.89018 -36.324589
40.637542 16.964035 -35.204605
41.49493 16.69169 -34.861492
41.3251 14.976381 -25.505499
40.784569 15.941494 -25.961984
42.20586 14.007818 -26.5126
41.3251 14.976381 -25.505499
41.890335 14.058399 -25.032455
49.456981 13.455012 -33.077381
48.534832 13.073272 -32.526824
49.266419 12.36545 -31.661044
49.571327 14.614746 -34.465439
49.456981 13.455012 -33.077381
40.07902 -8.985364 0.010139
40.247879 -8.801564 -1.032899
40.378685 -10.451256 -0.030259
40.07902 -8.985364 0.010139
40.801719 -11.677697 -0.112466
40.999801 -11.391029 -1.180718
40.378685 -10.451256 -0.030259
41.603651 -15.946506 2.005193
41.180853 -14.771111 2.017877
42.484318 -16.458551 0.879624
41.603651 -15.946506 2.005193
42.194673 -16.83605 2.008095
47.668025 -20.991118 2.232773
46.73004 -20.57269 2.220441
49.208942 -20.468153 1.233195
47.668025 -20.991118 2.232773
49.687691 -19.596417 0.224641
49.208942 -20.468153 1.233195
41.866203 -2.671495 -9.698774
41.77154 -1.29647 -10.200195
41.927712 -3.918967 -9.106299
41.986733 -5.161428 -8.590556
42.530937 -3.979568 -10.404511
41.866203 -2.671495 -9.698774
41.927712 -3.918967 -9.106299
51.118629 9.845316 -29.0592
50.557339 10.7426 -29.923201
50.151131 9.442946 -28.628975
51.118629 9.845316 -29.0592
51.720743 8.959943 -28.080053
52.219314 7.99447 -27.170172
52.752979 7.032538 -26.151772
39.96722 17.192787 -32.602852
39.937162 17.076794 -31.127415
40.714235 16.649552 -32.26607
39.96722 17.192787 -32.602852
39.93388 17.110952 -34.021809
43.983786 3.102874 -17.35017
43.773211 4.439182 -17.897219
41.542397 1.496847 -11.252167
41.667725 0.044569 -10.75818
42.121538 1.344521 -12.646832
41.542397 1.496847 -11.252167
42.804333 1.450085 -14.001918
42.121538 1.344521 -12.646832
42.944594 0.055546 -13.468044
43.455809 1.492009 -15.396262
42.804333 1.450085 -14.001918
44.203724 1.844534 -16.732968
43.455809 1.492009 -15.396262
44.375304 0.513634 -16.159836
44.903281 2.1245 -18.113745
43.983786 3.102874 -17.35017
44.203724 1.844534 -16.732968
44.374369 17.44581 -38.951676
44.568918 16.695463 -37.473122
45.260365 17.09148 -38.376091
43.404347 17.618724 -39.518367
44.374369 17.44581 -38.951676
54.441474 -14.059302 -5.822607
54.110233 -15.119853 -4.776134
39.718271 17.291947 -28.23546
39.564487 17.629305 -26.829696
40.538385 16.554455 -29.319019
39.864063 17.27105 -29.707073
39.718271 17.291947 -28.23546
41.016609 15.750576 -27.416525
40.160553 16.76627 -26.392866
40.784569 15.941494 -25.961984
45.130927 5.168611 -20.676749
44.418925 4.629802 -19.31534
45.395344 3.921651 -20.092356
44.796162 6.317694 -21.307755
45.130927 5.168611 -20.676749
45.772582 5.609543 -22.08477
44.485138 7.538069 -21.862696
44.796162 6.317694 -21.307755
44.098312 8.648214 -22.455839
44.485138 7.538069 -21.862696
45.050991 7.868771 -23.30892
43.735945 9.827497 -22.98349
44.098312 8.648214 -22.455839
43.292835 10.887016 -23.537899
43.735945 9.827497 -22.98349
44.221055 10.038435 -24.456472
42.873632 12.010392 -24.039923
43.292835 10.887016 -23.537899
43.274521 12.093895 -25.525219
42.370207 13.006332 -24.55426
42.873632 12.010392 -24.039923
47.045583 16.278929 -36.982208
46.201505 16.76471 -37.672562
46.298992 15.855352 -36.207183
47.941282 15.811587 -36.163815
47.934233 14.766203 -34.729996
48.732444 15.208217 -35.37698
47.045583 16.278929 -36.982208
47.941282 15.811587 -36.163815
49.889204 11.54371 -30.852288
50.557339 10.7426 -29.923201
40.767546 -7.793696 -3.899705
40.926699 -7.57134 -4.671967
41.109449 -9.015394 -4.003293
40.767546 -7.793696 -3.899705
40.613076 -8.246164 -3.013311
40.765873 -9.816225 -2.107705
40.436985 -8.453202 -2.042093
40.247879 -8.801564 -1.032899
40.559826 -12.044488 0.988206
40.374398 -12.28787 2.072396
41.180943 -12.984262 -0.162252
40.801719 -11.677697 -0.112466
40.559826 -12.044488 0.988206
41.416172 -14.460031 0.90757
40.703729 -13.662133 2.048726
41.180853 -14.771111 2.017877
44.114389 -19.220813 2.074896
43.447738 -18.467806 2.051912
45.351933 -19.158701 1.015845
44.114389 -19.220813 2.074896
44.958856 -19.692107 2.133898
47.164049 -19.944169 1.134733
45.76239 -20.258516 2.160556
46.73004 -20.57269 2.220441
51.04327 -17.103099 -2.961371
49.499359 -17.900857 -2.018579
50.604214 -17.918623 -1.875938
52.551579 -16.173755 -3.881578
51.446724 -16.155989 -4.02422
51.04327 -17.103099 -2.961371
54.110233 -15.119853 -4.776134
52.551579 -16.173755 -3.881578
42.052719 17.044275 -37.45861
42.964244 16.833815 -37.015091
42.771396 17.260254 -38.492226
41.388179 16.89018 -36.324589
42.052719 17.044275 -37.45861
41.335556 -7.856186 -5.57973
40.926699 -7.57134 -4.671967
41.955458 -8.19906 -6.662376
41.335556 -7.856186 -5.57973
41.883821 -8.9058 -5.972334
42.558399 -8.341245 -7.788702
42.010134 -7.291632 -7.396097
41.955458 -8.19906 -6.662376
54.777676 -13.067158 -6.906494
53.291233 -14.2345 -6.028315
54.441474 -14.059302 -5.822607
55.027684 -11.970855 -7.981829
54.777676 -13.067158 -6.906494
56.177925 -11.795658 -7.776122
57.684008 -9.3304 -9.723382
57.544598 -10.504268 -8.644654
56.587254 -9.568423 -9.94855
57.684008 -9.3304 -9.723382
57.843328 -8.199469 -10.820476
57.90312 -4.637747 -14.170926
57.952482 -5.844918 -13.039779
56.839571 -4.939643 -14.38178
57.90312 -4.637747 -14.170926
57.869297 -3.459626 -15.286258
55.54616 -2.924683 -16.792364
55.675325 -4.10619 -15.679408
56.676583 -2.580017 -16.610068
55.425055 -1.767266 -17.854233
54.423797 -3.293439 -16.923572
55.54616 -2.924683 -16.792364
55.204683 -0.59963 -18.958824
55.425055 -1.767266 -17.854233
54.995916 0.548391 -19.996948
54.093925 -0.988002 -19.023565
55.204683 -0.59963 -18.958824
54.689646 1.684801 -21.08812
54.995916 0.548391 -19.996948
54.399788 2.805935 -22.099539
53.595301 1.281154 -21.073109
54.689646 1.684801 -21.08812
54.013094 3.895686 -23.172396
54.399788 2.805935 -22.099539
3 1 31 29
3 1 120 122
3 122 121 31
3 120 121 122
3 0 34 32
3 2 37 35
3 4 40 38
3 4 42 40
3 123 44 124
3 3 125 126
3 5 47 45
3 5 49 47
3 5 127 129
3 129 128 49
3 127 128 129
3 130 53 131
3 132 55 133
3 134 133 53
3 132 133 134
3 6 59 57
3 7 62 60
3 7 64 62
3 9 135 137
3 135 65 136
3 135 136 137
3 9 66 65
3 10 69 67
3 12 70 30
3 12 71 70
3 12 138 140
3 140 139 71
3 138 139 140
3 13 141 142
3 144 143 33
3 14 74 72
3 16 75 36
3 16 76 75
3 8 145 147
3 145 77 146
3 145 146 147
3 17 78 39
3 17 79 78
3 17 80 79
3 18 81 41
3 18 82 81
3 149 148 83
3 150 85 151
3 19 86 43
3 19 87 86
3 11 88 68
3 20 89 46
3 20 90 89
3 20 91 90
3 21 92 48
3 21 93 92
3 21 94 93
3 153 152 50
3 154 96 155
3 23 97 51
3 23 98 97
3 156 99 157
3 24 100 52
3 24 101 100
3 24 102 101
3 25 103 54
3 25 104 103
3 158 105 159
3 160 106 161
3 162 161 56
3 160 161 162
3 164 163 106
3 166 165 84
3 22 107 95
3 26 108 58
3 26 109 108
3 15 110 73
3 27 111 61
3 27 112 111
3 27 113 112
3 28 114 63
3 28 115 114
3 167 116 168
3 169 117 170
3 171 118 172
3 173 172 117
3 171 172 173
3 174 119 175
3 177 176 119
3 178 9 179
3 29 30 10
3 31 30 29
3 31 12 30
3 31 180 182
3 182 181 12
3 180 181 182
3 184 183 31
3 32 33 13
3 34 33 32
3 34 185 187
3 187 186 33
3 185 186 187
3 35 36 14
3 37 36 35
3 37 16 36
3 38 39 8
3 40 39 38
3 40 17 39
3 40 41 17
3 42 41 40
3 42 18 41
3 188 43 189
3 44 190 192
3 190 43 191
3 190 191 192
3 44 19 43
3 45 46 11
3 47 46 45
3 47 20 46
3 47 48 20
3 49 48 47
3 49 21 48
3 49 50 21
3 193 50 194
3 195 194 49
3 193 194 195
3 197 196 50
3 198 51 199
3 200 51 201
3 202 23 203
3 204 203 51
3 202 203 204
3 205 52 206
3 53 207 209
3 207 52 208
3 207 208 209
3 53 24 52
3 53 54 24
3 55 54 53
3 55 25 54
3 210 56 211
3 212 56 213
3 215 214 56
3 57 58 22
3 59 58 57
3 59 26 58
3 60 61 15
3 62 61 60
3 62 27 61
3 62 63 27
3 64 63 62
3 64 28 63
3 216 8 217
3 65 218 219
3 65 220 222
3 220 8 221
3 220 221 222
3 65 38 8
3 66 38 65
3 66 4 38
3 67 68 3
3 69 68 67
3 69 11 68
3 30 69 10
3 70 69 30
3 70 11 69
3 70 45 11
3 71 45 70
3 71 5 45
3 71 223 225
3 225 224 5
3 223 224 225
3 227 226 71
3 229 228 12
3 33 230 232
3 232 231 13
3 230 231 232
3 234 233 33
3 72 73 6
3 74 73 72
3 74 15 73
3 36 74 14
3 75 74 36
3 75 15 74
3 75 60 15
3 76 60 75
3 76 7 60
3 235 3 236
3 77 237 238
3 77 239 240
3 39 77 8
3 78 77 39
3 78 241 243
3 243 242 77
3 241 242 243
3 78 244 245
3 79 246 248
3 248 247 78
3 246 247 248
3 79 249 251
3 249 3 250
3 249 250 251
3 79 67 3
3 80 67 79
3 80 10 67
3 41 80 17
3 81 80 41
3 81 10 80
3 81 29 10
3 82 29 81
3 82 1 29
3 83 84 0
3 252 84 253
3 254 253 83
3 252 253 254
3 256 255 84
3 258 257 2
3 85 259 260
3 85 261 263
3 261 13 262
3 261 262 263
3 43 264 266
3 264 85 265
3 264 265 266
3 86 85 43
3 86 13 85
3 86 32 13
3 87 32 86
3 87 0 32
3 68 267 269
3 269 268 3
3 267 268 269
3 88 270 272
3 272 271 68
3 270 271 272
3 88 273 274
3 46 88 11
3 89 88 46
3 89 275 277
3 277 276 88
3 275 276 277
3 89 278 279
3 90 280 282
3 282 281 89
3 280 281 282
3 90 283 284
3 90 285 287
3 285 44 286
3 285 286 287
3 91 44 90
3 91 19 44
3 48 91 20
3 92 91 48
3 92 19 91
3 92 87 19
3 93 87 92
3 93 0 87
3 93 83 0
3 94 83 93
3 94 288 290
3 290 289 83
3 288 289 290
3 50 94 21
3 291 94 292
3 293 292 50
3 291 292 293
3 295 294 94
3 297 296 5
3 298 95 299
3 96 300 302
3 300 95 301
3 300 301 302
3 96 22 95
3 51 303 305
3 303 96 304
3 303 304 305
3 97 96 51
3 97 22 96
3 97 57 22
3 98 57 97
3 98 6 57
3 99 306 307
3 99 308 310
3 308 23 309
3 308 309 310
3 52 311 313
3 311 99 312
3 311 312 313
3 100 99 52
3 100 23 99
3 100 98 23
3 101 98 100
3 101 6 98
3 101 72 6
3 102 72 101
3 102 14 72
3 54 102 24
3 103 102 54
3 103 14 102
3 103 35 14
3 104 35 103
3 104 2 35
3 314 55 315
3 105 316 318
3 316 55 317
3 316 317 318
3 105 25 55
3 56 319 321
3 319 105 320
3 319 320 321
3 106 105 56
3 106 25 105
3 106 104 25
3 322 104 323
3 324 323 106
3 322 323 324
3 325 2 326
3 327 326 104
3 325 326 327
3 329 328 2
3 84 34 0
3 330 34 331
3 332 331 84
3 330 331 332
3 334 333 34
3 95 335 336
3 107 337 339
3 339 338 95
3 337 338 339
3 107 340 342
3 340 9 341
3 340 341 342
3 58 107 22
3 108 107 58
3 108 9 107
3 108 66 9
3 109 66 108
3 109 4 66
3 73 59 6
3 110 59 73
3 110 26 59
3 61 110 15
3 111 110 61
3 111 26 110
3 111 109 26
3 112 109 111
3 112 4 109
3 112 42 4
3 113 42 112
3 113 18 42
3 63 113 27
3 114 113 63
3 114 18 113
3 114 82 18
3 115 82 114
3 115 1 82
3 343 37 344
3 345 344 2
3 343 344 345
3 116 346 348
3 346 37 347
3 346 347 348
3 116 16 37
3 349 116 350
3 117 351 353
3 351 116 352
3 351 352 353
3 117 16 116
3 117 76 16
3 118 76 117
3 118 7 76
3 354 118 355
3 119 356 358
3 356 118 357
3 356 357 358
3 119 7 118
3 119 64 7
3 359 64 360
3 361 360 119
3 359 360 361
3 362 28 363
3 364 363 64
3 362 363 364
3 365 28 366
3 367 115 368
3 369 368 28
3 367 368 369
3 370 115 371
3 372 1 373
3 374 373 115
3 372 373 374
3 376 375 1
