ply
format ascii 1.0
element vertex 296
property float x
property float y
property float z
element face 309
property list uchar int vertex_index
end_header
2.159775 -99.487511 19.652565
0.994892 -109.714188 22.150612
4.906343 -101.004333 31.823755
0.504147 -110.498337 9.934438
7.849922 -89.148964 16.277082
5.018684 -105.385651 33.477936
7.142529 -101.362465 37.642426
4.207327 -118.182709 16.0077
0.767963 -104.826469 21.184561
0.100344 -110.056145 15.915972
0.465427 -104.749847 15.134365
1.209015 -105.015068 9.603779
2.320681 -99.273369 14.078753
2.95381 -113.649841 22.209942
3.281422 -109.381973 28.233801
2.372601 -105.179817 27.452108
3.080078 -100.20063 25.692106
1.360279 -114.69828 16.249866
1.181688 -115.557693 10.157408
1.990078 -116.045143 4.227386
4.991602 -94.928749 23.559498
4.765823 -94.155258 17.936649
5.279943 -94.019669 12.869998
7.482359 -103.274223 38.44783
8.208998 -101.234459 40.343281
5.188503 -117.244675 18.728922
1.279316 -102.182587 20.463631
0.45499 -104.739136 18.107199
1.105423 -102.030746 17.481457
1.223516 -102.004745 14.631403
2.11401 -99.306725 16.790951
4.372355 -111.037689 28.118172
4.84873 -109.09623 31.07518
4.792475 -103.304543 32.78656
3.596111 -105.336388 30.523329
3.572163 -103.067986 29.758026
2.542353 -102.756027 26.656956
3.905777 -100.625229 28.773388
1.761536 -111.831192 22.30661
1.976881 -114.194725 19.270283
0.959902 -112.164482 19.243093
0.168879 -110.27285 12.876438
0.445107 -112.81414 13.076459
0.666769 -113.110565 10.061674
1.512682 -115.864647 7.159228
1.098518 -113.348816 7.129273
1.618189 -113.487213 4.293205
0.999264 -110.693771 7.105012
2.046038 -102.248528 9.393064
6.168472 -91.880081 19.74235
6.306145 -91.599365 17.092562
4.947517 -94.005539 15.324634
6.586668 -91.494522 14.583439
5.619446 -107.18222 33.810593
6.555428 -105.252968 36.273701
6.126266 -103.394638 35.694691
6.01218 -101.269981 34.79351
0.665716 -107.358223 21.763477
0.366674 -109.869789 19.022907
0.201334 -107.373253 18.633293
0.083733 -107.454002 15.569869
0.273554 -107.598816 12.612359
0.688482 -107.781342 9.781874
0.748123 -104.853409 12.295929
1.571676 -102.092834 11.934004
2.708195 -99.365578 11.528292
8.219166 -89.09446 13.8475
4.541676 -115.118088 21.861588
4.263161 -113.041481 25.017429
2.912912 -111.470589 25.283159
1.977856 -109.566505 25.240952
4.017124 -107.366707 30.983761
2.612831 -107.409439 27.999077
1.478706 -107.385483 24.905861
1.414503 -104.988823 24.319002
1.763971 -102.439789 23.539516
2.485424 -99.800407 22.634258
3.397961 -115.904007 19.096224
2.595142 -116.612816 16.203505
2.150434 -117.243568 13.228168
0.525629 -112.492302 16.149469
1.106327 -115.158875 13.19822
2.05094 -117.776649 10.211599
2.244984 -118.182487 7.190253
2.641453 -118.42952 4.19626
1.210091 -107.952667 7.084181
4.534891 -98.070297 27.660778
3.923494 -97.573311 24.636816
3.517496 -97.128143 21.667215
4.778793 -94.474037 20.691086
3.349241 -96.796242 18.797987
3.421959 -96.618233 16.064873
3.699539 -96.60096 13.489043
4.102879 -96.709244 11.07645
6.961134 -91.545532 12.226169
8.666093 -101.044323 41.61389
8.484746 -102.063694 40.685655
5.833343 -116.719479 20.006646
6.243294 -117.712288 18.459834
5.724776 -108.864201 32.400421
5.462572 -109.781514 30.921384
2.281703 -102.32143 8.197278
2.606241 -100.885514 9.265161
7.710064 -89.262673 17.558428
8.355218 -88.0639 17.131571
7.078034 -90.374165 16.684822
6.938175 -90.487873 17.966169
7.710064 -89.262673 17.558428
7.330164 -105.061943 37.579752
6.940983 -106.01577 36.360415
4.768057 -119.294056 14.494178
5.744046 -119.884838 14.325298
5.183315 -118.773491 15.838821
3.886707 -118.595955 14.582186
4.768057 -119.294056 14.494178
5.059176 -112.682579 26.332716
5.125362 -113.636696 24.737671
2.55706 -117.267036 2.743928
2.882747 -118.459225 2.728365
2.315765 -117.237331 4.211823
2.23982 -116.053967 2.804901
2.806801 -117.27586 1.321442
2.55706 -117.267036 2.743928
1.858877 -113.482441 2.928918
1.571157 -112.146713 4.34303
5.216767 -97.037483 28.568559
4.917931 -98.310269 29.174847
4.457548 -96.25103 24.098157
4.651463 -96.517361 25.569824
5.185517 -95.19508 25.031165
7.794536 -90.361068 11.893506
7.59015 -90.319996 13.036835
8.423551 -89.135532 12.704172
8.121427 -103.083576 39.73793
7.793629 -104.072571 38.666817
7.845678 -102.254341 39.395556
8.121427 -103.083576 39.73793
8.484746 -102.063694 40.685655
5.673903 -118.304474 17.199431
6.243294 -117.712288 18.459834
4.697915 -117.713692 17.368311
5.183315 -118.773491 15.838821
5.673903 -118.304474 17.199431
5.224384 -110.752243 29.44288
5.113772 -111.680683 27.883088
4.610542 -110.066959 29.596676
5.224384 -110.752243 29.44288
5.462572 -109.781514 30.921384
1.261695 -110.749992 5.748933
1.571157 -112.146713 4.34303
1.308727 -112.090492 5.699109
1.883927 -103.710556 8.224521
1.465416 -105.093827 8.329879
1.627526 -103.631798 9.498421
1.883927 -103.710556 8.224521
2.281703 -102.32143 8.197278
5.668665 -93.88985 24.461126
5.185517 -95.19508 25.031165
6.869339 -90.628231 19.291062
6.784059 -90.824284 20.62934
6.237309 -91.739723 18.417456
6.869339 -90.628231 19.291062
6.938175 -90.487873 17.966169
6.472992 -106.980396 35.128861
6.110134 -107.907196 33.768127
6.087437 -106.217594 35.042147
6.472992 -106.980396 35.128861
6.940983 -106.01577 36.360415
7.018893 -104.263596 37.360765
7.330164 -105.061943 37.579752
7.793629 -104.072571 38.666817
2.93732 -99.444039 10.332774
2.606241 -100.885514 9.265161
2.377116 -100.807053 10.460678
8.559876 -87.978679 15.883996
8.355218 -88.0639 17.131571
8.744498 -87.951427 14.669205
8.034544 -89.121712 15.062291
8.559876 -87.978679 15.883996
8.969072 -87.946003 13.48274
8.744498 -87.951427 14.669205
9.173458 -87.987076 12.339411
8.423551 -89.135532 12.704172
8.969072 -87.946003 13.48274
5.264619 -114.674999 23.15975
5.50993 -115.656185 21.572979
4.402418 -114.079785 23.439509
5.264619 -114.674999 23.15975
5.125362 -113.636696 24.737671
4.317758 -112.039585 26.567801
5.059176 -112.682579 26.332716
5.113772 -111.680683 27.883088
5.234088 -108.139225 32.442887
5.724776 -108.864201 32.400421
6.110134 -107.907196 33.768127
4.865089 -116.181382 20.295255
5.833343 -116.719479 20.006646
5.50993 -115.656185 21.572979
3.080615 -117.811008 14.680089
3.886707 -118.595955 14.582186
3.401235 -117.397762 16.105602
2.858261 -118.126385 13.192421
3.080615 -117.811008 14.680089
2.372788 -116.928192 14.715836
2.711158 -118.474297 11.720705
2.858261 -118.126385 13.192421
2.661411 -118.740837 10.212421
2.711158 -118.474297 11.720705
2.100687 -117.510109 11.719883
2.674146 -119.008358 8.712613
2.661411 -118.740837 10.212421
2.771168 -119.211277 7.201941
2.674146 -119.008358 8.712613
2.147962 -117.979568 8.700926
2.909828 -119.382637 5.692685
2.771168 -119.211277 7.201941
3.108062 -119.506153 4.195688
2.909828 -119.382637 5.692685
2.443218 -118.306004 5.693257
3.321859 -119.568546 2.697021
3.108062 -119.506153 4.195688
3.321859 -119.568546 2.697021
2.882747 -118.459225 2.728365
2.053875 -114.775002 2.83781
2.23982 -116.053967 2.804901
1.804134 -114.766178 4.260295
2.053875 -114.775002 2.83781
1.858877 -113.482441 2.928918
1.367109 -109.37944 5.738518
1.261695 -110.749992 5.748933
1.104677 -109.323219 7.094596
1.465954 -106.562626 7.07008
1.209553 -106.483868 8.34398
1.465416 -105.093827 8.329879
1.457708 -107.999122 5.800577
1.465954 -106.562626 7.07008
1.367109 -109.37944 5.738518
1.457708 -107.999122 5.800577
8.38662 -100.191757 41.164852
8.666093 -101.044323 41.61389
8.843715 -100.001621 42.435461
8.038142 -100.259068 39.845468
8.38662 -100.191757 41.164852
7.504908 -100.323071 38.495041
7.675763 -101.298462 38.992853
8.038142 -100.259068 39.845468
7.091416 -100.284478 37.1061
7.504908 -100.323071 38.495041
6.526241 -100.238236 35.681642
6.577355 -101.316223 36.217968
7.091416 -100.284478 37.1061
6.085869 -100.108784 34.233097
6.526241 -100.238236 35.681642
5.532951 -99.97596 32.748219
5.459262 -101.137157 33.308633
6.085869 -100.108784 34.233097
5.103657 -99.777287 31.256335
5.532951 -99.97596 32.748219
4.603375 -99.587735 29.731152
4.40606 -100.814781 30.298572
5.103657 -99.777287 31.256335
4.220334 -99.347763 28.217083
4.603375 -99.587735 29.731152
4.917931 -98.310269 29.174847
4.957161 -96.765854 27.081805
5.216767 -97.037483 28.568559
4.229192 -97.821804 26.148797
4.957161 -96.765854 27.081805
4.651463 -96.517361 25.569824
5.589289 -93.62162 23.034747
5.668665 -93.88985 24.461126
6.177725 -92.097286 21.126173
6.784059 -90.824284 20.62934
5.482885 -93.394264 21.600541
6.177725 -92.097286 21.126173
5.473633 -93.177059 20.216718
4.885198 -94.701393 22.125292
5.589289 -93.62162 23.034747
5.482885 -93.394264 21.600541
3.634662 -98.115871 10.106853
2.93732 -99.444039 10.332774
3.405537 -98.037411 11.302371
7.154971 -91.615883 11.123922
7.794536 -90.361068 11.893506
6.320934 -92.846428 11.400538
7.154971 -91.615883 11.123922
5.480339 -94.083496 11.722452
6.120539 -92.782601 12.548084
6.320934 -92.846428 11.400538
4.891807 -95.428284 10.825678
4.691411 -95.364456 11.973224
5.480339 -94.083496 11.722452
4.311924 -96.78806 9.949005
4.891807 -95.428284 10.825678
3.634662 -98.115871 10.106853
4.311924 -96.78806 9.949005
3 95 24 96
3 97 25 98
3 0 28 26
3 0 30 28
3 99 32 100
3 2 35 33
3 2 37 35
3 1 40 38
3 3 43 41
3 3 45 43
3 3 47 45
3 102 101 48
3 4 103 104
3 4 105 107
3 105 50 106
3 105 106 107
3 4 52 50
3 108 54 109
3 6 55 23
3 6 56 55
3 7 110 112
3 110 111 112
3 7 113 114
3 8 59 57
3 10 60 27
3 10 61 60
3 10 63 61
3 12 64 29
3 12 65 64
3 115 68 116
3 14 69 31
3 14 70 69
3 5 71 53
3 15 72 34
3 15 73 72
3 15 74 73
3 16 75 36
3 16 76 75
3 13 77 67
3 17 78 39
3 17 79 78
3 9 80 58
3 18 81 42
3 18 82 81
3 18 83 82
3 19 84 44
3 19 117 119
3 119 118 84
3 117 118 119
3 19 120 122
3 120 121 122
3 124 123 46
3 11 85 62
3 125 86 126
3 20 127 129
3 127 87 128
3 127 128 129
3 20 88 87
3 21 89 49
3 21 90 89
3 21 91 90
3 22 92 51
3 22 93 92
3 130 94 131
3 132 131 66
3 130 131 132
3 133 23 134
3 24 135 137
3 135 23 136
3 135 136 137
3 24 6 23
3 25 138 139
3 25 140 142
3 140 7 141
3 140 141 142
3 26 27 8
3 28 27 26
3 28 10 27
3 28 29 10
3 30 29 28
3 30 12 29
3 143 31 144
3 32 145 147
3 145 31 146
3 145 146 147
3 32 14 31
3 33 34 5
3 35 34 33
3 35 15 34
3 35 36 15
3 37 36 35
3 37 16 36
3 38 39 13
3 40 39 38
3 40 17 39
3 41 42 9
3 43 42 41
3 43 18 42
3 43 44 18
3 45 44 43
3 45 19 44
3 45 46 19
3 47 46 45
3 47 148 150
3 150 149 46
3 148 149 150
3 48 151 153
3 153 152 11
3 151 152 153
3 155 154 48
3 156 20 157
3 158 49 159
3 50 160 162
3 160 49 161
3 160 161 162
3 50 21 49
3 50 51 21
3 52 51 50
3 52 22 51
3 163 53 164
3 54 165 167
3 165 53 166
3 165 166 167
3 54 5 53
3 23 168 170
3 168 54 169
3 168 169 170
3 55 54 23
3 55 5 54
3 55 33 5
3 56 33 55
3 56 2 33
3 57 58 1
3 59 58 57
3 59 9 58
3 27 59 8
3 60 59 27
3 60 9 59
3 60 41 9
3 61 41 60
3 61 3 41
3 61 62 3
3 63 62 61
3 63 11 62
3 29 63 10
3 64 63 29
3 64 11 63
3 64 48 11
3 65 48 64
3 65 171 173
3 173 172 48
3 171 172 173
3 174 4 175
3 176 66 177
3 178 177 4
3 176 177 178
3 179 66 180
3 183 182 66
3 181 182 183
3 184 67 185
3 68 186 188
3 186 67 187
3 186 187 188
3 68 13 67
3 31 189 191
3 189 68 190
3 189 190 191
3 69 68 31
3 69 13 68
3 69 38 13
3 70 38 69
3 70 1 38
3 53 192 194
3 192 32 193
3 192 193 194
3 71 32 53
3 71 14 32
3 34 71 5
3 72 71 34
3 72 14 71
3 72 70 14
3 73 70 72
3 73 1 70
3 73 57 1
3 74 57 73
3 74 8 57
3 36 74 15
3 75 74 36
3 75 8 74
3 75 26 8
3 76 26 75
3 76 0 26
3 67 195 197
3 195 25 196
3 195 196 197
3 77 25 67
3 77 7 25
3 39 77 13
3 78 77 39
3 78 7 77
3 78 198 200
3 200 199 7
3 198 199 200
3 79 201 203
3 203 202 78
3 201 202 203
3 79 204 205
3 58 40 1
3 80 40 58
3 80 17 40
3 42 80 9
3 81 80 42
3 81 17 80
3 81 79 17
3 82 79 81
3 82 206 208
3 208 207 79
3 206 207 208
3 82 209 210
3 83 211 213
3 213 212 82
3 211 212 213
3 83 214 215
3 44 83 18
3 84 83 44
3 84 216 218
3 218 217 83
3 216 217 218
3 84 219 220
3 222 221 84
3 46 223 225
3 225 224 19
3 223 224 225
3 227 226 46
3 62 47 3
3 85 47 62
3 85 228 230
3 230 229 47
3 228 229 230
3 231 85 232
3 233 232 11
3 231 232 233
3 234 85 235
3 237 236 85
3 238 24 239
3 238 239 240
3 241 24 242
3 243 6 244
3 245 244 24
3 243 244 245
3 246 6 247
3 248 56 249
3 250 249 6
3 248 249 250
3 251 56 252
3 253 2 254
3 255 254 56
3 253 254 255
3 256 2 257
3 258 37 259
3 260 259 2
3 258 259 260
3 86 261 263
3 261 37 262
3 261 262 263
3 86 16 37
3 264 86 265
3 87 266 268
3 266 86 267
3 266 267 268
3 87 16 86
3 87 76 16
3 88 76 87
3 88 0 76
3 269 20 270
3 49 271 272
3 89 273 275
3 275 274 49
3 273 274 275
3 89 276 278
3 276 20 277
3 276 277 278
3 89 88 20
3 90 88 89
3 90 0 88
3 90 30 0
3 91 30 90
3 91 12 30
3 51 91 21
3 92 91 51
3 92 12 91
3 92 65 12
3 93 65 92
3 93 279 281
3 281 280 65
3 279 280 281
3 66 52 4
3 94 52 66
3 94 22 52
3 282 94 283
3 284 94 285
3 286 22 287
3 288 287 94
3 286 287 288
3 289 93 290
3 291 290 22
3 289 290 291
3 292 93 293
3 295 294 93
