ply
format ascii 1.0
element vertex 191
property float x
property float y
property float z
element face 168
property list uchar int vertex_index
end_header
61.9795 -15.159016 -4.201662
49.326271 -22.358913 3.234107
47.620766 -25.530552 7.016611
54.129723 -23.398014 2.918958
52.422123 -27.342125 6.372011
57.587776 -14.854855 -4.353504
58.661263 -10.309181 -8.437851
62.673309 -10.292927 -7.950308
51.243683 -18.93449 -0.745335
55.980228 -19.212391 -0.596561
59.03157 -5.572071 -12.81311
46.987526 -26.996532 8.848829
49.9188 -26.476198 6.714985
49.255531 -28.135283 8.499973
59.850899 -14.874396 -4.215815
60.387146 -12.522587 -6.121214
62.401962 -12.735678 -6.020411
47.20435 -21.723892 3.270929
50.286186 -20.677963 1.271772
53.570419 -19.060637 -0.623219
52.615971 -21.000502 1.272275
60.97477 -7.720786 -10.230671
58.940083 -7.961446 -10.595308
45.57914 -24.450779 7.250484
48.418854 -23.978849 5.14687
51.653358 -22.888351 3.116664
50.73592 -24.718641 4.925393
53.231979 -25.410133 4.640667
55.265434 -15.013061 -4.60784
55.927917 -12.89196 -6.700787
58.204773 -12.607283 -6.354372
60.766479 -10.137935 -8.126987
62.783417 -7.83133 -9.995237
52.148125 -17.120865 -2.818729
54.467804 -17.066906 -2.581409
56.835308 -17.055187 -2.436579
59.179459 -17.194983 -2.404467
55.062813 -21.328012 1.181532
58.402489 -19.485048 -0.67164
46.778483 -27.672901 9.747333
45.811472 -26.929863 9.909615
47.912485 -28.242277 9.572906
48.121528 -27.565908 8.674401
46.778483 -27.672901 9.747333
48.26531 -22.041403 3.252518
46.769293 -22.422508 4.280854
47.830253 -22.740018 4.262443
60.989757 -6.498529 -11.326751
61.851685 -6.537413 -11.190555
46.599953 -24.990665 7.133548
45.287388 -25.077539 8.198125
46.308201 -25.617425 8.081188
54.131348 -26.725133 5.34642
54.536276 -25.759137 4.480748
52.827051 -26.376129 5.506339
50.151993 -18.825435 -0.839241
49.687691 -19.596417 0.224641
51.695904 -18.027677 -1.782032
50.604214 -17.918623 -1.875938
50.151993 -18.825435 -0.839241
59.581303 -19.714631 -0.752614
57.979878 -20.613321 0.167376
59.913063 -18.523849 -1.576037
59.581303 -19.714631 -0.752614
57.544598 -10.504268 -8.644654
56.177925 -11.795658 -7.776122
57.29459 -11.60057 -7.569319
57.889072 -7.004781 -11.929378
57.843328 -8.199469 -10.820476
58.985827 -6.766758 -11.704209
57.952482 -5.844918 -13.039779
57.889072 -7.004781 -11.929378
45.991581 -26.350415 8.997297
45.811472 -26.929863 9.909615
47.304146 -26.263542 7.93272
46.308201 -25.617425 8.081188
45.991581 -26.350415 8.997297
45.86208 -21.894863 4.315905
46.769293 -22.422508 4.280854
46.266365 -21.305464 3.258597
45.86208 -21.894863 4.315905
47.668025 -20.991118 2.232773
46.73004 -20.57269 2.220441
46.266365 -21.305464 3.258597
49.208942 -20.468153 1.233195
47.668025 -20.991118 2.232773
48.745268 -21.200927 2.271351
50.764934 -19.806227 0.263218
49.687691 -19.596417 0.224641
49.208942 -20.468153 1.233195
55.843494 -22.569804 1.962675
55.408558 -23.676642 2.789236
59.972414 -6.618858 -11.509069
59.957426 -7.841116 -10.412989
60.989757 -6.498529 -11.326751
60.018158 -5.424171 -12.617971
58.985827 -6.766758 -11.704209
59.972414 -6.618858 -11.509069
63.078911 -14.230222 -5.122611
62.939305 -15.457835 -4.248007
44.44566 -24.331411 8.308244
45.287388 -25.077539 8.198125
44.703972 -23.812484 7.327927
44.44566 -24.331411 8.308244
45.956688 -23.785951 6.270632
44.703972 -23.812484 7.327927
47.376545 -23.549986 5.218825
45.956688 -23.785951 6.270632
46.998997 -24.214814 6.198677
48.872563 -23.168881 4.190488
47.830253 -22.740018 4.262443
47.376545 -23.549986 5.218825
54.959686 -24.682701 3.650091
55.408558 -23.676642 2.789236
53.680851 -24.404073 3.779812
54.959686 -24.682701 3.650091
54.536276 -25.759137 4.480748
55.596676 -13.95251 -5.654314
54.441474 -14.059302 -5.822607
54.110233 -15.119853 -4.776134
62.756009 -6.592685 -11.072838
61.851685 -6.537413 -11.190555
61.879093 -7.776058 -10.112954
63.290142 -13.018553 -6.031986
62.190731 -13.947347 -5.111036
63.078911 -14.230222 -5.122611
63.358726 -11.78575 -6.964586
63.290142 -13.018553 -6.031986
63.4944 -10.564374 -7.929534
62.537636 -11.514302 -6.985359
63.358726 -11.78575 -6.964586
63.489212 -9.326846 -8.925028
63.4944 -10.564374 -7.929534
63.544266 -8.096047 -9.947492
62.728363 -9.062129 -8.972772
63.489212 -9.326846 -8.925028
63.465618 -6.854744 -11.005899
63.544266 -8.096047 -9.947492
62.756009 -6.592685 -11.072838
63.465618 -6.854744 -11.005899
51.04327 -17.103099 -2.961371
50.604214 -17.918623 -1.875938
52.551579 -16.173755 -3.881578
51.04327 -17.103099 -2.961371
53.706779 -16.066963 -3.713285
54.110233 -15.119853 -4.776134
52.551579 -16.173755 -3.881578
56.31004 -21.534803 1.093962
54.596268 -22.363013 2.050245
55.843494 -22.569804 1.962675
56.732651 -20.40653 0.254946
56.31004 -21.534803 1.093962
57.979878 -20.613321 0.167376
60.301548 -17.378817 -2.44245
58.790974 -18.340015 -1.538053
59.913063 -18.523849 -1.576037
61.701569 -16.360833 -3.341048
60.57948 -16.177 -3.303064
60.301548 -17.378817 -2.44245
62.661373 -16.659653 -3.387393
62.939305 -15.457835 -4.248007
61.701569 -16.360833 -3.341048
49.024738 -28.897984 9.39491
47.912485 -28.242277 9.572906
50.503033 -28.648358 8.317453
49.024738 -28.897984 9.39491
50.272239 -29.411059 9.21239
52.086329 -28.251779 7.253472
50.838827 -27.738704 7.435992
50.503033 -28.648358 8.317453
53.743801 -27.757217 6.197397
52.086329 -28.251779 7.253472
54.131348 -26.725133 5.34642
53.743801 -27.757217 6.197397
54.777676 -13.067158 -6.906494
54.441474 -14.059302 -5.822607
54.777676 -13.067158 -6.906494
56.177925 -11.795658 -7.776122
57.684008 -9.3304 -9.723382
57.544598 -10.504268 -8.644654
58.800673 -9.135314 -9.516579
57.684008 -9.3304 -9.723382
57.843328 -8.199469 -10.820476
59.943237 -4.194193 -13.751359
60.018158 -5.424171 -12.617971
58.982208 -4.364901 -13.944257
59.943237 -4.194193 -13.751359
59.893875 -2.987023 -14.882506
57.90312 -4.637747 -14.170926
57.952482 -5.844918 -13.039779
58.982208 -4.364901 -13.944257
3 39 11 40
3 41 13 42
3 43 42 11
3 41 42 43
3 0 16 14
3 1 44 46
3 44 17 45
3 44 45 46
3 1 18 17
3 1 20 18
3 48 47 21
3 2 49 51
3 49 23 50
3 49 50 51
3 2 24 23
3 2 26 24
3 4 27 12
3 4 52 54
3 54 53 27
3 52 53 54
3 5 30 28
3 7 31 15
3 7 32 31
3 8 55 56
3 8 57 59
3 57 33 58
3 57 58 59
3 8 34 33
3 9 35 19
3 9 36 35
3 3 37 25
3 60 38 61
3 63 62 38
3 6 64 66
3 66 65 29
3 64 65 66
3 10 67 69
3 69 68 22
3 67 68 69
3 10 70 71
3 11 72 73
3 11 74 76
3 74 2 75
3 74 75 76
3 11 12 2
3 13 12 11
3 13 4 12
3 14 15 5
3 16 15 14
3 16 7 15
3 17 77 78
3 17 79 80
3 17 81 83
3 81 82 83
3 18 84 86
3 86 85 17
3 84 85 86
3 18 87 89
3 87 8 88
3 87 88 89
3 18 19 8
3 20 19 18
3 20 9 19
3 91 90 3
3 21 22 6
3 92 22 93
3 94 93 21
3 92 93 94
3 95 10 96
3 97 96 22
3 95 96 97
3 99 98 0
3 23 100 101
3 23 102 103
3 23 104 105
3 24 106 108
3 108 107 23
3 106 107 108
3 24 109 111
3 109 1 110
3 109 110 111
3 24 25 1
3 26 25 24
3 26 3 25
3 12 26 2
3 27 26 12
3 27 3 26
3 27 112 114
3 114 113 3
3 112 113 114
3 116 115 27
3 28 117 119
3 117 29 118
3 117 118 119
3 30 29 28
3 30 6 29
3 15 30 5
3 31 30 15
3 31 6 30
3 31 21 6
3 32 21 31
3 32 120 122
3 122 121 21
3 120 121 122
3 123 16 124
3 125 124 0
3 123 124 125
3 126 16 127
3 128 7 129
3 130 129 16
3 128 129 130
3 131 7 132
3 133 32 134
3 135 134 7
3 133 134 135
3 136 32 137
3 139 138 32
3 33 140 141
3 33 142 143
3 33 144 146
3 144 28 145
3 144 145 146
3 34 28 33
3 34 5 28
3 19 34 8
3 35 34 19
3 35 5 34
3 35 14 5
3 36 14 35
3 36 0 14
3 25 20 1
3 37 20 25
3 37 9 20
3 147 37 148
3 149 148 3
3 147 148 149
3 38 150 152
3 150 37 151
3 150 151 152
3 38 9 37
3 38 36 9
3 153 36 154
3 155 154 38
3 153 154 155
3 156 0 157
3 158 157 36
3 156 157 158
3 161 160 0
3 159 160 161
3 162 13 163
3 164 13 165
3 164 165 166
3 167 4 168
3 169 168 13
3 167 168 169
3 170 4 171
3 173 172 4
3 29 174 175
3 177 176 29
3 22 178 180
3 180 179 6
3 178 179 180
3 182 181 22
3 183 10 184
3 185 10 186
3 185 186 187
3 190 189 10
3 188 189 190
