ply
format ascii 1.0
element vertex 298
property float x
property float y
property float z
element face 299
property list uchar int vertex_index
end_header
54.830681 33.506935 15.139504
51.511284 17.427155 7.569449
61.373314 10.775881 10.800816
56.896919 26.69276 8.462997
57.57933 13.828037 7.335328
56.718315 32.942413 9.046719
56.863907 30.349213 11.538561
58.433861 18.089466 8.864546
59.661469 12.151119 8.559456
58.034004 7.389765 8.507599
60.879627 6.290035 9.590255
47.904968 26.536652 6.902242
51.693432 24.513195 6.878565
55.742085 27.469574 14.118795
55.01091 29.03587 7.163147
54.897209 22.433052 6.948667
57.487854 24.182434 10.19205
57.151421 20.281399 7.512169
54.875549 15.630539 7.116493
54.850883 8.73764 8.390144
49.651768 18.308979 7.885608
51.424423 13.811142 8.156948
55.679955 34.983494 13.516178
56.578117 33.390682 11.862485
56.059868 31.986568 13.326954
60.232849 13.376389 10.816487
59.665089 14.199757 9.562768
60.545948 11.417034 9.563999
60.289871 9.217936 8.918695
61.405067 8.648443 9.881994
62.203789 5.869175 10.480048
62.465233 8.173056 11.061829
48.051796 30.059696 6.170893
49.985218 29.015495 6.39004
49.842209 25.53447 6.906108
51.821152 27.946323 6.583191
56.815601 29.848003 8.873598
56.119217 31.055309 7.940697
56.116951 27.882214 7.766338
54.94352 25.76659 7.075564
56.121235 24.64724 7.45155
56.855282 25.893425 12.078945
57.385498 22.874371 11.24983
58.272865 16.063976 7.781489
57.898689 19.183128 8.077644
57.349445 17.055611 7.271176
56.222366 18.055904 6.997033
56.314667 14.724247 7.114382
54.873562 12.188038 7.599166
56.41106 11.382809 7.559142
58.216763 4.191509 9.552036
56.534737 4.718222 9.403024
56.752602 34.710011 10.375437
56.973614 31.680557 10.280743
57.153107 28.588223 9.872414
58.041519 19.914394 10.473776
58.813427 17.025078 9.880653
59.028652 15.103432 8.545489
58.684982 12.962315 7.81319
57.815964 10.604387 7.750852
59.101498 9.875347 8.202601
59.49316 6.799688 8.926099
59.841038 3.734936 9.923486
47.807259 22.898998 7.536097
49.73629 21.957848 7.370046
51.5942 21.000549 7.170314
55.255943 30.495647 14.764886
54.250053 28.926613 16.18737
60.775543 12.648895 12.278263
62.16806 10.232065 12.234786
61.322605 12.020235 13.913683
53.613377 30.165581 6.636653
53.494179 26.863705 6.797951
53.39682 23.480061 6.875297
53.323997 20.031551 7.000626
56.429665 28.943535 12.815775
57.14909 27.268978 10.938694
57.344536 25.459206 9.267268
57.913864 21.11702 9.451595
57.587223 22.318089 8.616827
57.001312 23.497925 7.956746
56.154526 21.367271 7.146785
54.877365 19.049984 6.923466
53.266235 16.533577 7.289663
53.205112 13.001572 7.820581
56.489471 8.042934 8.336325
54.792694 5.297176 9.459251
50.53846 16.018549 8.05154
49.608702 16.459461 8.209619
50.581526 17.868067 7.727529
51.467854 15.619148 7.863198
50.49503 14.210542 8.345289
50.53846 16.018549 8.05154
50.981943 30.147616 6.27727
50.078272 30.69603 6.052912
51.89991 29.613029 6.373845
50.903185 28.480909 6.486616
50.981943 30.147616 6.27727
57.251793 22.215867 11.850656
56.868195 23.675362 12.277338
57.380036 2.807974 10.117869
58.288214 2.605896 10.178038
56.490366 35.536789 11.102232
56.592764 36.182719 10.235437
58.957826 16.521275 10.500483
58.429516 17.881155 10.784249
61.144724 4.824676 10.051912
60.625429 3.547127 10.218528
60.360332 5.012485 9.756871
62.561531 4.467356 10.892553
62.835247 5.701641 11.023249
46.92469 27.017764 6.855624
46.998104 28.779286 6.489949
47.978382 28.298174 6.536568
46.885632 25.172787 7.25388
46.92469 27.017764 6.855624
47.856113 24.717825 7.219169
46.836777 23.35396 7.570807
46.885632 25.172787 7.25388
53.385318 29.601731 17.200747
53.999153 30.430546 16.443399
60.20939 13.455251 13.236123
60.068857 13.869999 12.422365
60.482922 13.140922 14.053833
61.049074 12.334565 13.095973
60.20939 13.455251 13.236123
56.405338 33.545198 8.447751
56.32434 35.051816 8.366328
56.637317 34.44903 8.965295
55.045406 30.629892 7.118458
55.59956 31.639612 7.507233
55.565064 30.045589 7.551922
54.312144 29.600725 6.8999
54.34664 31.194748 6.855211
55.045406 30.629892 7.118458
53.985291 9.095271 8.506745
53.99663 10.82047 8.111256
54.862223 10.462839 7.994655
53.922477 7.322723 9.035359
53.985291 9.095271 8.506745
54.744058 3.591846 10.099612
55.663715 5.007699 9.431138
55.61508 3.302369 10.071499
53.808058 3.842967 10.198247
54.744058 3.591846 10.099612
62.82193 9.008564 12.328658
62.553635 10.003799 13.031548
48.662751 16.851067 8.380469
48.695324 18.742195 8.026577
48.662751 16.851067 8.380469
49.608702 16.459461 8.209619
50.438412 12.346955 8.75776
50.49503 14.210542 8.345289
51.367598 11.991467 8.564117
50.438412 12.346955 8.75776
56.129036 34.187088 12.689331
56.403123 34.877125 11.845757
55.954042 35.67353 12.672603
59.948969 13.788073 10.189628
59.383657 15.108614 10.34154
59.667538 14.69693 10.9684
62.965969 6.853582 11.314139
62.835247 5.701641 11.023249
62.334511 7.021116 10.770938
49.111561 31.21813 5.943339
48.155365 31.749544 5.710445
49.018507 29.537596 6.280467
49.111561 31.21813 5.943339
50.078272 30.69603 6.052912
56.603087 25.184889 12.691896
56.298684 26.6815 13.09887
56.046488 25.972963 13.711821
57.12039 24.383898 11.664388
56.603087 25.184889 12.691896
56.868195 23.675362 12.277338
56.539023 3.07133 10.043363
57.37575 4.454866 9.47753
57.380036 2.807974 10.117869
55.61508 3.302369 10.071499
56.539023 3.07133 10.043363
56.654461 35.332829 9.629655
56.592764 36.182719 10.235437
56.735459 33.826212 9.711078
56.637317 34.44903 8.965295
56.654461 35.332829 9.629655
56.66536 34.050347 11.118961
56.490366 35.536789 11.102232
56.403123 34.877125 11.845757
58.043562 19.325813 11.08081
57.579803 20.735878 11.462629
58.427473 18.469736 10.177215
58.043562 19.325813 11.08081
58.429516 17.881155 10.784249
59.239258 15.612417 9.721711
58.957826 16.521275 10.500483
59.383657 15.108614 10.34154
59.100352 2.37761 10.363763
58.288214 2.605896 10.178038
59.0289 3.963222 9.737761
59.990045 2.210815 10.519848
59.100352 2.37761 10.363763
59.990045 2.210815 10.519848
60.625429 3.547127 10.218528
61.806805 4.614247 10.496809
61.144724 4.824676 10.051912
61.541708 6.079605 10.035152
61.806805 4.614247 10.496809
62.561531 4.467356 10.892553
47.069062 30.555794 6.021843
48.155365 31.749544 5.710445
46.015369 29.275383 6.340899
47.069062 30.555794 6.021843
46.998104 28.779286 6.489949
46.817439 21.457496 7.942022
46.836777 23.35396 7.570807
47.77307 21.037205 7.851821
46.817439 21.457496 7.942022
48.737585 20.566629 7.768796
47.77307 21.037205 7.851821
48.771774 22.428423 7.453072
49.694029 20.133413 7.627827
48.695324 18.742195 8.026577
48.737585 20.566629 7.768796
54.502098 31.215063 15.732157
55.043312 32.001291 14.952195
54.289467 32.720707 15.919466
54.752998 29.71113 15.476128
54.502098 31.215063 15.732157
53.999153 30.430546 16.443399
53.696106 28.112642 16.902893
53.385318 29.601731 17.200747
52.831372 28.78776 17.916269
54.572345 27.435633 15.825667
53.696106 28.112642 16.902893
55.318362 26.707113 14.791379
54.996069 28.198093 15.153083
54.572345 27.435633 15.825667
56.046488 25.972963 13.711821
55.318362 26.707113 14.791379
59.79751 14.233746 11.691477
59.667538 14.69693 10.9684
60.504196 13.012642 11.547375
59.79751 14.233746 11.691477
60.068857 13.869999 12.422365
62.130907 10.897883 13.870997
62.553635 10.003799 13.031548
61.745333 11.12615 13.074234
60.650259 12.775552 14.943293
60.482922 13.140922 14.053833
61.604075 11.748815 14.800219
60.650259 12.775552 14.943293
62.130907 10.897883 13.870997
61.604075 11.748815 14.800219
55.450205 36.443711 13.428192
55.954042 35.67353 12.672603
55.035836 35.722369 14.3491
55.450205 36.443711 13.428192
54.611199 34.984089 15.160763
55.255318 34.245215 14.327841
55.035836 35.722369 14.3491
54.073494 34.210798 16.034188
54.611199 34.984089 15.160763
53.854011 35.687952 16.055447
54.289467 32.720707 15.919466
54.073494 34.210798 16.034188
56.105789 32.601647 7.89474
56.405338 33.545198 8.447751
56.418766 31.998861 8.493708
56.105789 32.601647 7.89474
55.59956 31.639612 7.507233
53.676414 31.766571 6.453373
54.34664 31.194748 6.855211
52.796022 30.722659 6.400576
53.676414 31.766571 6.453373
52.717264 29.055952 6.609922
51.89991 29.613029 6.373845
52.796022 30.722659 6.400576
57.713509 21.394382 10.861803
57.251793 22.215867 11.850656
57.579803 20.735878 11.462629
52.257942 11.586682 8.395933
51.367598 11.991467 8.564117
52.314768 13.406357 7.988765
53.162405 11.227237 8.221963
54.039337 12.594805 7.709874
53.99663 10.82047 8.111256
52.257942 11.586682 8.395933
53.162405 11.227237 8.221963
53.893383 5.602491 9.569912
53.922477 7.322723 9.035359
54.821788 7.017408 8.924698
53.893383 5.602491 9.569912
53.808058 3.842967 10.198247
62.970517 7.979059 11.742179
62.316646 9.202561 11.648307
62.82193 9.008564 12.328658
62.965969 6.853582 11.314139
62.970517 7.979059 11.742179
3 1 87 89
3 89 88 20
3 87 88 89
3 1 90 92
3 90 21 91
3 90 91 92
3 0 24 22
3 2 27 25
3 2 29 27
3 2 31 29
3 93 33 94
3 95 35 96
3 97 96 33
3 95 96 97
3 3 38 36
3 3 40 38
3 98 42 99
3 4 45 43
3 4 47 45
3 4 49 47
3 101 100 50
3 102 52 103
3 6 53 23
3 6 54 53
3 104 56 105
3 8 57 26
3 8 58 57
3 8 60 58
3 10 61 28
3 10 62 61
3 10 106 108
3 108 107 62
3 106 107 108
3 110 109 30
3 11 111 113
3 113 112 32
3 111 112 113
3 11 114 115
3 11 116 118
3 116 63 117
3 116 117 118
3 12 64 34
3 12 65 64
3 119 67 120
3 121 68 122
3 123 70 124
3 125 124 68
3 123 124 125
3 5 126 128
3 126 127 128
3 14 129 131
3 131 130 37
3 129 130 131
3 14 132 134
3 132 71 133
3 132 133 134
3 14 72 71
3 15 73 39
3 15 74 73
3 13 75 66
3 16 76 41
3 16 77 76
3 7 78 55
3 17 79 44
3 17 80 79
3 17 81 80
3 18 82 46
3 18 83 82
3 18 84 83
3 19 135 137
3 137 136 48
3 135 136 137
3 19 138 139
3 9 85 59
3 140 86 141
3 142 141 51
3 140 141 142
3 144 143 86
3 146 145 69
3 20 147 148
3 150 149 20
3 21 151 152
3 21 153 154
3 22 155 157
3 155 23 156
3 155 156 157
3 24 23 22
3 24 6 23
3 25 158 160
3 158 26 159
3 158 159 160
3 27 26 25
3 27 8 26
3 27 28 8
3 29 28 27
3 29 10 28
3 29 30 10
3 31 30 29
3 31 161 163
3 163 162 30
3 161 162 163
3 164 32 165
3 33 166 168
3 166 32 167
3 166 167 168
3 33 11 32
3 33 34 11
3 35 34 33
3 35 12 34
3 36 37 5
3 38 37 36
3 38 14 37
3 38 39 14
3 40 39 38
3 40 15 39
3 169 41 170
3 171 170 13
3 169 170 171
3 42 172 174
3 172 41 173
3 172 173 174
3 42 16 41
3 43 44 7
3 45 44 43
3 45 17 44
3 45 46 17
3 47 46 45
3 47 18 46
3 47 48 18
3 49 48 47
3 49 19 48
3 50 51 9
3 175 51 176
3 177 176 50
3 175 176 177
3 179 178 51
3 52 180 181
3 52 182 184
3 182 5 183
3 182 183 184
3 23 185 187
3 185 52 186
3 185 186 187
3 53 52 23
3 53 5 52
3 53 36 5
3 54 36 53
3 54 3 36
3 188 55 189
3 56 190 192
3 190 55 191
3 190 191 192
3 56 7 55
3 26 193 195
3 193 56 194
3 193 194 195
3 57 56 26
3 57 7 56
3 57 43 7
3 58 43 57
3 58 4 43
3 58 59 4
3 60 59 58
3 60 9 59
3 28 60 8
3 61 60 28
3 61 9 60
3 61 50 9
3 62 50 61
3 62 196 198
3 198 197 50
3 196 197 198
3 62 199 200
3 202 201 62
3 30 203 205
3 205 204 10
3 203 204 205
3 207 206 30
3 32 208 209
3 212 211 32
3 210 211 212
3 63 213 214
3 63 215 216
3 34 63 11
3 64 63 34
3 64 217 219
3 219 218 63
3 217 218 219
3 64 220 222
3 220 20 221
3 220 221 222
3 65 20 64
3 65 1 20
3 223 66 224
3 225 224 0
3 223 224 225
3 67 226 228
3 226 66 227
3 226 227 228
3 67 13 66
3 229 67 230
3 229 230 231
3 232 67 233
3 234 13 235
3 236 235 67
3 234 235 236
3 238 237 13
3 239 25 240
3 68 241 243
3 241 25 242
3 241 242 243
3 68 2 25
3 68 69 2
3 70 69 68
3 70 244 246
3 246 245 69
3 244 245 246
3 247 70 248
3 249 70 250
3 252 251 70
3 253 22 254
3 255 22 256
3 257 0 258
3 259 258 22
3 257 258 259
3 260 0 261
3 260 261 262
3 264 263 0
3 37 265 267
3 267 266 5
3 265 266 267
3 269 268 37
3 71 270 271
3 71 272 273
3 71 274 276
3 274 35 275
3 274 275 276
3 72 35 71
3 72 12 35
3 39 72 14
3 73 72 39
3 73 12 72
3 73 65 12
3 74 65 73
3 74 1 65
3 66 24 0
3 75 24 66
3 75 6 24
3 41 75 13
3 76 75 41
3 76 6 75
3 76 54 6
3 77 54 76
3 77 3 54
3 55 277 279
3 277 42 278
3 277 278 279
3 78 42 55
3 78 16 42
3 44 78 7
3 79 78 44
3 79 16 78
3 79 77 16
3 80 77 79
3 80 3 77
3 80 40 3
3 81 40 80
3 81 15 40
3 46 81 17
3 82 81 46
3 82 15 81
3 82 74 15
3 83 74 82
3 83 1 74
3 83 21 1
3 84 21 83
3 84 280 282
3 282 281 21
3 280 281 282
3 48 84 18
3 283 84 284
3 285 284 48
3 283 284 285
3 287 286 84
3 59 49 4
3 85 49 59
3 85 19 49
3 51 85 9
3 86 85 51
3 86 19 85
3 86 288 290
3 290 289 19
3 288 289 290
3 292 291 86
3 69 31 2
3 293 31 294
3 295 294 69
3 293 294 295
3 297 296 31
