ply
format ascii 1.0
element vertex 482
property float x
property float y
property float z
element face 552
property list uchar int vertex_index
end_header
17.160183 32.22541 64.171776
25.445385 7.587471 64.112534
19.206142 55.129341 46.049522
19.302233 7.603266 70.308922
23.753832 31.643494 58.30323
17.926979 44.286819 55.492805
25.424402 42.94194 51.497658
27.156483 51.93084 43.421219
16.067013 19.669823 71.992294
21.490425 19.652138 64.015129
28.84304 19.897362 61.44178
13.273457 68.848518 40.224213
21.382917 63.843437 36.157383
27.70676 31.837177 57.60141
24.640656 37.479931 55.0756
28.694269 37.593384 54.605713
29.512821 42.715096 51.05159
22.080605 7.553295 66.530991
20.332695 13.62775 66.986198
23.35014 13.514912 63.951736
24.887285 19.6078 61.949722
27.018826 13.636684 62.546623
18.44816 49.924446 50.817863
14.81884 51.131866 54.142555
15.373301 56.813339 48.812698
16.257309 62.004829 43.399261
17.420364 66.605354 37.904076
20.214161 59.79319 41.211418
18.362827 1.66383 73.954834
21.168505 1.843386 69.932968
20.247965 31.865414 60.537666
17.540016 38.343128 59.96151
20.898624 37.765347 56.78389
21.523571 43.444363 52.803101
22.23782 48.719284 48.641853
23.117477 53.434311 44.337093
26.23373 47.795509 47.611588
30.344126 47.009094 47.043175
16.693771 26.00853 68.168762
17.774721 13.645672 71.190445
18.673702 19.818108 67.642906
19.501896 25.875843 64.115372
22.683662 25.66172 61.216415
26.421553 25.757256 59.98983
14.524866 45.05249 59.242233
24.154634 57.521973 39.807472
29.772652 32.050194 57.591667
28.23245 34.775703 56.179558
30.295855 34.952873 56.150902
30.748058 37.697689 54.529388
23.68034 7.539545 65.129448
22.670683 10.511723 65.143738
24.342346 10.507118 63.981026
25.107082 13.534687 63.053246
26.17923 10.576418 63.218811
15.674749 32.285667 66.252327
15.818205 35.450706 64.125824
18.794022 52.588135 48.439941
16.915882 53.337067 49.845657
17.284506 55.998695 47.307671
15.774173 59.476181 46.111557
17.729416 58.534035 44.760544
18.244041 60.930153 42.199909
19.682682 57.534859 43.644901
22.697758 1.863094 68.222855
21.938328 31.709873 59.213333
20.582909 34.832539 58.688774
22.343231 34.66048 57.509087
25.037167 40.273857 53.328003
23.07901 40.403919 53.895996
23.438305 43.142735 51.990799
21.863033 46.14344 50.740791
23.812321 45.756546 50.028641
24.213163 48.222679 48.014214
25.818819 45.455894 49.591103
29.916473 44.968311 49.098503
15.018457 22.628967 72.246696
15.288854 25.879482 70.310974
16.406435 22.8587 70.1036
18.026043 7.537392 72.490936
17.278084 10.508259 72.958694
18.528955 10.612295 70.728043
20.898006 16.642239 65.463287
19.521126 16.719772 67.314713
20.024363 19.744282 65.673103
19.095724 22.85799 65.87812
20.529556 22.752079 64.064568
21.025379 25.748142 62.468826
22.093029 22.658199 62.612
26.810537 19.710415 61.542854
25.673599 22.68066 60.999557
27.660173 22.830963 60.775276
28.452446 25.948433 59.891014
17.724936 41.34457 57.758865
16.072693 41.680687 59.643585
16.215729 44.718918 57.282829
13.204145 54.581581 53.307686
11.759247 72.055405 38.320633
13.900877 71.160324 37.132111
19.421953 65.257095 36.959793
18.063755 68.651024 35.078896
20.052036 67.17231 34.229591
25.119699 52.658585 43.815674
23.619793 55.555527 42.110085
25.625507 54.628075 41.608501
25.686113 31.688866 57.793221
24.21767 34.592484 56.73436
26.19149 34.63855 56.325211
26.643709 37.500629 54.737572
27.059843 40.237968 53.035583
27.459707 42.816418 51.228195
29.113129 40.250542 52.891663
15.657749 16.432846 73.822227
20.633827 7.590824 68.284599
19.801693 10.611893 68.600655
21.165434 10.561068 66.704071
21.762115 13.558022 65.273872
22.416473 16.57095 63.973175
23.108461 19.594158 62.762321
24.099789 16.549919 62.909103
25.944059 16.606846 62.271255
27.923649 16.749847 61.992554
29.053495 13.821472 62.340187
18.162968 47.152306 53.173958
16.393034 47.684311 54.851555
16.621717 50.561508 52.365982
15.05685 54.028259 51.495529
13.464886 57.499702 50.502754
13.813232 60.294563 47.657761
14.25176 62.955437 44.789757
14.774542 65.470032 41.904686
15.367616 67.824295 38.995811
16.811867 64.385834 40.669533
18.814209 63.174522 39.608253
20.785828 61.896606 38.724472
29.227196 51.234344 43.064697
27.670059 53.752861 41.196117
17.506115 4.462317 74.275795
18.825542 4.615194 72.100517
19.741777 1.794979 71.874954
20.163029 4.662743 70.015076
21.583275 4.657106 68.13147
23.134104 4.650988 66.541885
18.667599 32.060112 62.224419
17.356197 35.299118 62.097694
18.929943 35.067181 60.246078
19.178932 38.043812 58.212929
19.426823 40.974308 56.121582
22.719223 37.567101 55.737083
21.20713 40.643757 54.820427
19.688919 43.839359 53.976334
19.980961 46.618828 51.78759
20.316456 49.293602 49.567886
20.704464 51.846451 47.326485
21.147865 54.26255 45.064259
22.655441 51.153809 46.50927
24.648222 50.525391 45.946152
26.678106 49.952019 45.557137
27.862377 45.210106 49.323715
28.283936 47.40596 47.327316
28.73634 49.407097 45.24086
30.811104 48.856178 44.894859
15.502565 29.095924 68.312317
16.942024 29.128677 66.192612
16.510166 13.483963 73.423676
16.972679 16.671535 71.628555
19.024078 13.675346 68.999794
18.235764 16.74894 69.415001
17.378489 19.813347 69.795357
17.743103 22.915058 67.936752
18.07683 25.985226 66.058571
18.384342 29.032093 64.157768
19.887541 28.877857 62.341087
21.498283 28.735195 60.860153
23.241646 28.660175 59.79055
23.80905 22.624779 61.58931
24.487226 25.658752 60.399529
25.117636 28.68631 59.145424
27.103668 28.818836 58.867683
29.160097 29.034096 58.837959
15.94588 38.586143 61.92482
14.433735 41.898666 61.660088
14.646999 48.13549 56.731659
16.012177 70.003357 36.046539
21.642584 56.530495 42.770668
22.178688 58.644348 40.424919
22.744028 60.605972 38.001839
26.161884 56.452888 39.310287
24.714911 59.349205 37.410515
23.330132 62.42617 35.481232
31.063299 33.610264 56.874962
30.034253 33.501533 56.871285
30.801697 32.158924 57.595344
31.312328 35.027039 56.113541
31.063299 33.610264 56.874962
26.405121 7.653297 63.784218
26.772044 9.147771 63.337356
25.812308 9.081945 63.665672
15.542735 21.149395 72.119495
14.845434 20.981786 73.178177
15.369712 19.502215 73.050975
29.284647 21.477106 61.115421
28.693214 22.943907 60.782169
28.251607 21.364162 61.108528
29.890138 20.020359 61.470425
29.284647 21.477106 61.115421
12.278566 54.747017 54.244724
12.381805 56.2789 52.79945
12.220951 69.22979 40.890947
12.993566 67.604645 41.755241
12.516352 70.451961 39.272423
11.463845 70.833233 39.939158
12.220951 69.22979 40.890947
21.690273 64.741196 34.824566
21.024833 66.405632 33.86067
20.717477 65.507874 35.193487
30.951712 38.972072 53.638538
31.751241 37.719385 54.441497
15.40842 14.787407 74.699726
14.943549 16.210149 74.853233
29.493805 52.079814 41.932961
30.277137 50.890865 42.864002
17.934471 3.063073 74.115315
17.236155 2.932246 75.172081
17.66451 1.533003 75.011601
20.455141 1.819183 70.903961
20.279916 0.463778 71.884602
20.99328 0.487981 70.913609
23.748899 3.278657 66.676452
22.915931 3.257041 67.38237
23.530726 1.88471 67.516937
23.986973 4.670547 65.921161
23.748899 3.278657 66.676452
29.846093 27.616351 59.396705
28.806272 27.491264 59.364486
29.492267 26.073519 59.923233
30.197855 29.159098 58.867061
29.846093 27.616351 59.396705
13.675523 45.127437 60.248058
13.629957 43.550525 61.456986
14.479301 43.475578 60.451161
17.377016 70.321945 34.058217
18.396065 69.582226 33.626404
27.190447 55.953091 39.094364
26.915971 55.102874 40.253202
27.944534 54.603077 40.037279
25.007264 60.205765 36.161011
25.721136 58.7566 37.162319
24.314875 61.744248 35.19637
24.022521 60.887687 36.445873
25.007264 60.205765 36.161011
23.634256 63.274605 34.169353
24.314875 61.744248 35.19637
31.538429 36.399446 55.302784
30.521957 36.325281 55.340145
31.312328 35.027039 56.113541
31.751241 37.719385 54.441497
31.538429 36.399446 55.302784
27.169408 10.653907 63.009011
27.589206 12.18404 62.672916
26.599028 12.106551 62.882717
27.169408 10.653907 63.009011
26.772044 9.147771 63.337356
14.971707 33.865022 66.227863
14.917212 32.227527 67.295418
15.043435 35.447542 65.164612
14.971707 33.865022 66.227863
15.746477 33.868186 65.189076
15.086313 37.070808 64.052738
15.043435 35.447542 65.164612
18.136561 0.214801 74.898506
17.66451 1.533003 75.011601
21.759296 0.52052 70.035099
20.99328 0.487981 70.913609
22.523922 0.530374 69.180042
21.933132 1.85324 69.077911
21.759296 0.52052 70.035099
23.347164 0.560547 68.423176
22.523922 0.530374 69.180042
23.530726 1.88471 67.516937
23.347164 0.560547 68.423176
30.731693 43.771113 49.96304
29.714647 43.841704 50.075046
30.529867 42.644505 50.939583
30.933713 44.820737 48.943985
30.731693 43.771113 49.96304
31.14754 45.841129 47.916321
30.130299 45.988703 48.070839
30.933713 44.820737 48.943985
31.367866 46.783897 46.847675
31.14754 45.841129 47.916321
14.272672 22.403028 73.25188
14.845434 20.981786 73.178177
14.412719 24.085161 72.306716
14.272672 22.403028 73.25188
15.153655 24.254224 71.278835
14.547917 25.710418 71.338855
14.412719 24.085161 72.306716
17.652064 9.022825 72.724815
17.005829 8.925293 73.83324
17.379809 7.439859 73.599362
29.08935 24.502642 60.340038
28.056309 24.389698 60.333145
28.693214 22.943907 60.782169
29.492267 26.073519 59.923233
29.08935 24.502642 60.340038
13.112711 53.06615 54.678505
13.920058 51.341293 55.09594
14.011492 52.856724 53.725121
13.112711 53.06615 54.678505
12.278566 54.747017 54.244724
10.699189 72.339459 38.949089
11.463845 70.833233 39.939158
11.006036 73.530643 37.248146
10.699189 72.339459 38.949089
12.087078 73.181236 36.685148
11.006036 73.530643 37.248146
13.157893 72.733696 36.090888
12.087078 73.181236 36.685148
12.830062 71.607865 37.726372
14.239402 72.220616 35.56477
13.157893 72.733696 36.090888
19.390205 68.842869 33.201752
18.396065 69.582226 33.626404
19.057896 67.911667 34.654243
20.375559 68.045941 32.816797
19.390205 68.842869 33.201752
20.375559 68.045941 32.816797
21.024833 66.405632 33.86067
30.134247 40.248499 52.819676
29.930594 38.974115 53.710526
30.951712 38.972072 53.638538
30.334093 41.480776 51.899639
29.312975 41.482819 51.971626
30.134247 40.248499 52.819676
30.529867 42.644505 50.939583
30.334093 41.480776 51.899639
15.16508 17.883726 73.965942
14.943549 16.210149 74.853233
15.862381 18.051335 72.907261
15.369712 19.502215 73.050975
15.16508 17.883726 73.965942
28.960821 16.858497 61.971447
29.420516 18.432255 61.69606
28.383344 18.323605 61.717167
29.525744 15.39431 62.145263
28.960821 16.858497 61.971447
28.488572 15.285659 62.16637
30.11072 13.946573 62.319851
29.525744 15.39431 62.145263
28.606541 12.276434 62.569699
28.036161 13.729078 62.443405
27.589206 12.18404 62.672916
29.650695 12.39358 62.477695
28.606541 12.276434 62.569699
30.11072 13.946573 62.319851
29.650695 12.39358 62.477695
12.512175 57.73796 51.396984
12.381805 56.2789 52.79945
13.334516 56.040641 51.90522
12.658379 59.206234 49.916744
12.512175 57.73796 51.396984
12.832552 60.603664 48.494248
12.658379 59.206234 49.916744
13.639059 58.897132 49.080258
13.025054 62.002945 46.990704
12.832552 60.603664 48.494248
13.244319 63.333382 45.556702
13.025054 62.002945 46.990704
14.032496 61.625 46.223759
13.482717 64.658104 44.038014
13.244319 63.333382 45.556702
13.744108 65.915402 42.595478
13.482717 64.658104 44.038014
14.513151 64.212735 43.347222
14.024 67.159275 41.064449
12.993566 67.604645 41.755241
13.744108 65.915402 42.595478
28.715236 53.339073 40.998671
28.448628 52.493603 42.130407
29.493805 52.079814 41.932961
27.944534 54.603077 40.037279
28.715236 53.339073 40.998671
16.820912 4.310615 75.352432
17.236155 2.932246 75.172081
17.119844 5.902322 74.491791
16.820912 4.310615 75.352432
17.766079 5.999854 73.383365
17.379809 7.439859 73.599362
17.119844 5.902322 74.491791
18.860402 0.334825 73.890141
18.136561 0.214801 74.898506
19.549877 0.4004 72.8502
20.279916 0.463778 71.884602
19.052302 1.729405 72.914894
18.860402 0.334825 73.890141
19.549877 0.4004 72.8502
24.260091 6.114826 65.214943
23.407222 6.095267 65.835667
23.986973 4.670547 65.921161
25.142614 6.138789 64.706486
24.562863 7.563508 64.620991
24.260091 6.114826 65.214943
26.073214 6.196913 64.262249
25.142614 6.138789 64.706486
31.069091 49.701782 43.779083
30.277137 50.890865 42.864002
30.01915 50.045261 43.979778
31.601354 47.707439 45.773517
30.577615 47.932636 45.969017
31.367866 46.783897 46.847675
31.848673 48.561256 44.664329
31.601354 47.707439 45.773517
31.069091 49.701782 43.779083
31.848673 48.561256 44.664329
14.650144 27.374468 70.35157
14.547917 25.710418 71.338855
14.756999 28.982689 69.352241
14.650144 27.374468 70.35157
15.39571 27.487703 69.311645
14.831119 30.632656 68.325413
14.756999 28.982689 69.352241
15.588657 30.690796 67.282322
14.917212 32.227527 67.295418
14.831119 30.632656 68.325413
16.626393 10.37912 74.06253
17.005829 8.925293 73.83324
16.242434 11.866972 74.295021
16.626393 10.37912 74.06253
16.894125 11.996111 73.191185
15.834629 13.312966 74.50045
16.242434 11.866972 74.295021
16.083958 14.958405 73.622951
15.40842 14.787407 74.699726
15.834629 13.312966 74.50045
30.504133 30.667147 58.243915
29.466375 30.542145 58.214813
30.197855 29.159098 58.867061
30.801697 32.158924 57.595344
30.504133 30.667147 58.243915
29.890138 20.020359 61.470425
29.420516 18.432255 61.69606
26.405121 7.653297 63.784218
26.073214 6.196913 64.262249
15.150151 38.638526 62.952236
15.086313 37.070808 64.052738
15.882043 37.018424 63.025322
14.394078 40.294788 62.81987
15.150151 38.638526 62.952236
15.189808 40.242404 61.792454
13.60483 41.908117 62.674301
14.394078 40.294788 62.81987
13.60483 41.908117 62.674301
13.629957 43.550525 61.456986
13.834138 49.843105 56.390491
14.732919 49.633678 55.437107
13.920058 51.341293 55.09594
13.774178 48.277393 57.717918
13.834138 49.843105 56.390491
13.713112 46.735893 58.973205
14.585932 46.59399 57.986946
13.774178 48.277393 57.717918
13.675523 45.127437 60.248058
13.713112 46.735893 58.973205
15.295052 71.642132 35.021984
14.239402 72.220616 35.56477
14.956527 70.58184 36.589325
16.351227 70.998112 34.542038
17.037966 69.327191 35.562718
17.377016 70.321945 34.058217
15.295052 71.642132 35.021984
16.351227 70.998112 34.542038
26.444622 57.308441 38.112206
27.190447 55.953091 39.094364
25.438398 57.901046 38.360401
26.444622 57.308441 38.112206
25.721136 58.7566 37.162319
22.66388 64.032562 34.486491
21.690273 64.741196 34.824566
22.356524 63.134804 35.819308
22.66388 64.032562 34.486491
23.634256 63.274605 34.169353
3 190 48 191
3 192 191 46
3 190 191 192
3 194 193 48
3 1 52 50
3 1 54 52
3 1 195 197
3 197 196 54
3 195 196 197
3 0 56 55
3 2 59 57
3 2 61 59
3 2 63 61
3 4 67 65
3 6 70 68
3 6 72 70
3 6 74 72
3 8 198 200
3 198 76 199
3 198 199 200
3 8 78 76
3 3 81 79
3 9 84 82
3 9 86 84
3 9 88 86
3 10 91 89
3 10 201 203
3 203 202 91
3 201 202 203
3 10 204 205
3 5 95 93
3 207 206 96
3 11 208 209
3 11 210 212
3 210 97 211
3 210 211 212
3 11 98 97
3 12 101 99
3 12 213 215
3 215 214 101
3 213 214 215
3 7 104 102
3 13 107 105
3 15 108 47
3 15 109 108
3 15 111 109
3 217 216 49
3 218 112 219
3 17 115 113
3 19 116 51
3 19 117 116
3 19 119 117
3 21 120 53
3 21 121 120
3 21 122 121
3 22 125 123
3 24 126 58
3 24 127 126
3 24 128 127
3 25 129 60
3 25 130 129
3 25 132 130
3 27 133 62
3 27 134 133
3 221 220 135
3 28 222 224
3 222 137 223
3 222 223 224
3 28 138 137
3 29 225 227
3 225 139 226
3 225 226 227
3 29 140 139
3 29 141 140
3 228 142 229
3 230 229 64
3 228 229 230
3 232 231 142
3 30 145 143
3 32 146 66
3 32 147 146
3 14 148 106
3 33 149 69
3 33 150 149
3 33 151 150
3 34 152 71
3 34 153 152
3 34 155 153
3 36 156 73
3 36 157 156
3 16 158 110
3 37 159 75
3 37 160 159
3 37 161 160
3 38 162 77
3 38 163 162
3 39 164 80
3 39 165 164
3 18 166 114
3 40 167 83
3 40 168 167
3 40 169 168
3 41 170 85
3 41 171 170
3 41 172 171
3 42 173 87
3 42 174 173
3 20 175 118
3 43 176 90
3 43 177 176
3 43 178 177
3 233 179 234
3 235 234 92
3 233 234 235
3 237 236 179
3 31 180 144
3 44 181 94
3 44 238 240
3 240 239 181
3 238 239 240
3 23 182 124
3 26 183 131
3 242 241 100
3 35 184 154
3 45 185 103
3 45 186 185
3 243 187 244
3 245 244 136
3 243 244 245
3 246 188 247
3 248 189 249
3 250 249 188
3 248 249 250
3 252 251 189
3 46 47 13
3 48 47 46
3 48 15 47
3 48 49 15
3 253 49 254
3 255 254 48
3 253 254 255
3 257 256 49
3 50 51 17
3 52 51 50
3 52 19 51
3 52 53 19
3 54 53 52
3 54 21 53
3 54 258 260
3 260 259 21
3 258 259 260
3 262 261 54
3 55 263 264
3 56 265 267
3 267 266 55
3 265 266 267
3 56 268 269
3 57 58 22
3 59 58 57
3 59 24 58
3 59 60 24
3 61 60 59
3 61 25 60
3 61 62 25
3 63 62 61
3 63 27 62
3 270 28 271
3 272 29 273
3 274 64 275
3 276 275 29
3 274 275 276
3 277 64 278
3 280 279 64
3 65 66 30
3 67 66 65
3 67 32 66
3 68 69 14
3 70 69 68
3 70 33 69
3 70 71 33
3 72 71 70
3 72 34 71
3 72 73 34
3 74 73 72
3 74 36 73
3 281 75 282
3 283 282 16
3 281 282 283
3 284 75 285
3 286 37 287
3 288 287 75
3 286 287 288
3 290 289 37
3 76 291 292
3 76 293 294
3 76 295 297
3 295 77 296
3 295 296 297
3 78 77 76
3 78 38 77
3 79 298 300
3 298 80 299
3 298 299 300
3 81 80 79
3 81 39 80
3 82 83 18
3 84 83 82
3 84 40 83
3 84 85 40
3 86 85 84
3 86 41 85
3 86 87 41
3 88 87 86
3 88 42 87
3 89 90 20
3 91 90 89
3 91 43 90
3 91 92 43
3 301 92 302
3 303 302 91
3 301 302 303
3 305 304 92
3 93 94 31
3 95 94 93
3 95 44 94
3 96 306 308
3 308 307 23
3 306 307 308
3 310 309 96
3 97 311 312
3 97 313 314
3 97 315 316
3 98 317 319
3 319 318 97
3 317 318 319
3 98 320 321
3 99 100 26
3 101 100 99
3 101 322 324
3 324 323 100
3 322 323 324
3 101 325 326
3 328 327 101
3 102 103 35
3 104 103 102
3 104 45 103
3 105 106 4
3 107 106 105
3 107 14 106
3 47 107 13
3 108 107 47
3 108 14 107
3 108 68 14
3 109 68 108
3 109 6 68
3 109 110 6
3 111 110 109
3 111 16 110
3 49 111 15
3 329 111 330
3 331 330 49
3 329 330 331
3 332 16 333
3 334 333 111
3 332 333 334
3 336 335 16
3 112 337 338
3 112 339 341
3 339 8 340
3 339 340 341
3 113 114 3
3 115 114 113
3 115 18 114
3 51 115 17
3 116 115 51
3 116 18 115
3 116 82 18
3 117 82 116
3 117 9 82
3 117 118 9
3 119 118 117
3 119 20 118
3 53 119 19
3 120 119 53
3 120 20 119
3 120 89 20
3 121 89 120
3 121 10 89
3 121 342 344
3 344 343 10
3 342 343 344
3 122 345 347
3 347 346 121
3 345 346 347
3 122 348 349
3 350 122 351
3 352 351 21
3 350 351 352
3 353 122 354
3 356 355 122
3 123 124 5
3 125 124 123
3 125 23 124
3 58 125 22
3 126 125 58
3 126 23 125
3 126 96 23
3 127 96 126
3 127 357 359
3 359 358 96
3 357 358 359
3 127 360 361
3 128 362 364
3 364 363 127
3 362 363 364
3 128 365 366
3 60 128 24
3 129 128 60
3 129 367 369
3 369 368 128
3 367 368 369
3 129 370 371
3 130 372 374
3 374 373 129
3 372 373 374
3 130 375 377
3 375 11 376
3 375 376 377
3 130 131 11
3 132 131 130
3 132 26 131
3 62 132 25
3 133 132 62
3 133 26 132
3 133 99 26
3 134 99 133
3 134 12 99
3 135 136 7
3 378 136 379
3 380 379 135
3 378 379 380
3 382 381 136
3 137 383 384
3 137 385 386
3 137 387 389
3 387 79 388
3 387 388 389
3 138 79 137
3 138 3 79
3 390 28 391
3 139 392 393
3 139 394 396
3 394 28 395
3 394 395 396
3 139 138 28
3 140 138 139
3 140 3 138
3 140 113 3
3 141 113 140
3 141 17 113
3 64 141 29
3 142 141 64
3 142 17 141
3 142 50 17
3 397 50 398
3 399 398 142
3 397 398 399
3 400 1 401
3 402 401 50
3 400 401 402
3 404 403 1
3 143 144 0
3 145 144 143
3 145 31 144
3 66 145 30
3 146 145 66
3 146 31 145
3 146 93 31
3 147 93 146
3 147 5 93
3 106 67 4
3 148 67 106
3 148 32 67
3 69 148 14
3 149 148 69
3 149 32 148
3 149 147 32
3 150 147 149
3 150 5 147
3 150 123 5
3 151 123 150
3 151 22 123
3 71 151 33
3 152 151 71
3 152 22 151
3 152 57 22
3 153 57 152
3 153 2 57
3 153 154 2
3 155 154 153
3 155 35 154
3 73 155 34
3 156 155 73
3 156 35 155
3 156 102 35
3 157 102 156
3 157 7 102
3 110 74 6
3 158 74 110
3 158 36 74
3 75 158 16
3 159 158 75
3 159 36 158
3 159 157 36
3 160 157 159
3 160 7 157
3 160 135 7
3 161 135 160
3 161 405 407
3 407 406 135
3 405 406 407
3 408 161 409
3 410 409 37
3 408 409 410
3 411 161 412
3 414 413 161
3 77 415 416
3 162 417 419
3 419 418 77
3 417 418 419
3 162 420 421
3 162 422 424
3 422 55 423
3 422 423 424
3 163 55 162
3 163 0 55
3 80 425 426
3 164 427 429
3 429 428 80
3 427 428 429
3 164 430 431
3 164 432 434
3 432 112 433
3 432 433 434
3 165 112 164
3 165 8 112
3 114 81 3
3 166 81 114
3 166 39 81
3 83 166 18
3 167 166 83
3 167 39 166
3 167 165 39
3 168 165 167
3 168 8 165
3 168 78 8
3 169 78 168
3 169 38 78
3 85 169 40
3 170 169 85
3 170 38 169
3 170 163 38
3 171 163 170
3 171 0 163
3 171 143 0
3 172 143 171
3 172 30 143
3 87 172 41
3 173 172 87
3 173 30 172
3 173 65 30
3 174 65 173
3 174 4 65
3 118 88 9
3 175 88 118
3 175 42 88
3 90 175 20
3 176 175 90
3 176 42 175
3 176 174 42
3 177 174 176
3 177 4 174
3 177 105 4
3 178 105 177
3 178 13 105
3 92 178 43
3 179 178 92
3 179 13 178
3 179 46 13
3 435 46 436
3 437 436 179
3 435 436 437
3 439 438 46
3 441 440 10
3 443 442 1
3 144 56 0
3 180 56 144
3 180 444 446
3 446 445 56
3 444 445 446
3 94 180 31
3 181 180 94
3 181 447 449
3 449 448 180
3 447 448 449
3 181 450 451
3 453 452 181
3 124 95 5
3 182 95 124
3 182 44 95
3 454 182 455
3 456 455 23
3 454 455 456
3 457 182 458
3 459 44 460
3 461 460 182
3 459 460 461
3 463 462 44
3 131 98 11
3 183 98 131
3 183 464 466
3 466 465 98
3 464 465 466
3 100 183 26
3 467 183 468
3 469 468 100
3 467 468 469
3 471 470 183
3 154 63 2
3 184 63 154
3 184 27 63
3 103 184 35
3 185 184 103
3 185 27 184
3 185 134 27
3 186 134 185
3 186 12 134
3 136 104 7
3 187 104 136
3 187 45 104
3 472 187 473
3 188 474 476
3 474 187 475
3 474 475 476
3 188 45 187
3 188 186 45
3 189 186 188
3 189 12 186
3 189 477 479
3 479 478 12
3 477 478 479
3 481 480 189
