ply
format ascii 1.0
element vertex 92
property float x
property float y
property float z
element face 73
property list uchar int vertex_index
end_header
-3.30654 35.183372 -24.032366
-2.309774 32.997036 -27.667566
-4.291563 26.80341 -20.059015
-3.007002 24.313438 -24.119432
-1.179867 22.074032 -26.988348
-3.766729 31.001934 -22.0208
-3.694494 25.526493 -22.210989
-3.252947 29.825275 -24.085249
-1.87068 27.569611 -27.344027
-0.910376 26.485435 -28.432474
0.032307 21.047626 -27.86989
-2.871218 34.090191 -26.002825
-4.225809 32.216736 -19.74299
-2.637571 28.682667 -25.879496
-2.183035 23.163105 -25.728605
-0.766717 28.64042 -29.148773
-1.24131 29.191856 -28.699798
-0.321433 25.960287 -28.780531
-0.766717 28.64042 -29.148773
-4.113735 34.811806 -19.582487
-4.445123 32.842239 -18.519374
-3.947193 34.251478 -20.781744
-4.113735 34.811806 -19.582487
-4.238447 24.015845 -20.245107
-4.572134 24.70883 -19.122606
-3.216234 22.122494 -23.285017
-3.55998 22.729021 -22.330796
-3.350748 24.919965 -23.165211
-2.769532 21.521103 -24.156292
-3.216234 22.122494 -23.285017
-1.322326 19.846773 -26.298345
-1.82391 20.391309 -25.668474
-1.681451 22.618569 -26.358477
-0.686381 19.338282 -26.824312
-1.322326 19.846773 -26.298345
0.664996 18.362974 -27.60589
0.747847 20.568399 -28.124949
-1.721462 29.733944 -28.155575
-2.090227 30.283324 -27.505797
-1.941009 32.447657 -28.317345
-1.390528 27.027523 -27.88825
-1.721462 29.733944 -28.155575
-1.24131 29.191856 -28.699798
0.149909 23.241383 -28.499239
-0.439034 23.766531 -28.151182
-0.321433 25.960287 -28.780531
0.747847 20.568399 -28.124949
0.149909 23.241383 -28.499239
-2.892305 36.704714 -26.01524
-3.088879 34.636781 -25.017595
-3.109967 37.251305 -25.03001
-2.70114 36.185993 -26.944122
-2.892305 36.704714 -26.01524
-2.420418 35.639416 -27.776493
-2.590496 33.543613 -26.835196
-2.70114 36.185993 -26.944122
-2.149065 35.101639 -28.53207
-2.420418 35.639416 -27.776493
-1.941009 32.447657 -28.317345
-2.149065 35.101639 -28.53207
-4.564625 27.471808 -18.885631
-4.572134 24.70883 -19.122606
-4.531748 30.17847 -18.727619
-4.445123 32.842239 -18.519374
-4.258686 29.510073 -19.901002
-4.564625 27.471808 -18.885631
-4.531748 30.17847 -18.727619
-3.717653 33.644077 -21.920649
-3.996269 31.609335 -20.881895
-3.947193 34.251478 -20.781744
-3.487559 35.734797 -22.926432
-3.536634 33.092653 -23.026583
-3.717653 33.644077 -21.920649
-3.248118 37.75728 -23.961714
-3.487559 35.734797 -22.926432
-3.109967 37.251305 -25.03001
-3.248118 37.75728 -23.961714
-3.939913 23.377386 -21.321095
-4.238447 24.015845 -20.245107
-3.993029 26.164952 -21.135002
-3.939913 23.377386 -21.321095
-3.55998 22.729021 -22.330796
-2.357548 20.945936 -24.960878
-2.769532 21.521103 -24.156292
-2.595019 23.738272 -24.924019
-2.357548 20.945936 -24.960878
-1.82391 20.391309 -25.668474
-0.080294 18.825079 -27.265083
-0.686381 19.338282 -26.824312
-0.57378 21.560829 -27.429119
-0.080294 18.825079 -27.265083
0.664996 18.362974 -27.60589
3 0 7 5
3 15 9 16
3 18 17 9
3 19 12 20
3 22 21 12
3 2 23 24
3 3 25 27
3 27 26 6
3 25 26 27
3 3 28 29
3 1 13 11
3 4 14 8
3 4 30 32
3 32 31 14
3 30 31 32
3 4 33 34
3 36 35 10
3 5 6 2
3 7 6 5
3 7 3 6
3 37 8 38
3 39 38 1
3 37 38 39
3 9 40 42
3 40 8 41
3 40 41 42
3 9 4 8
3 9 10 4
3 43 10 44
3 45 44 9
3 43 44 45
3 47 46 10
3 48 11 49
3 50 49 0
3 48 49 50
3 51 11 52
3 53 1 54
3 55 54 11
3 53 54 55
3 56 1 57
3 59 58 1
3 60 2 61
3 12 62 63
3 12 64 66
3 64 2 65
3 64 65 66
3 12 5 2
3 67 5 68
3 69 68 12
3 67 68 69
3 70 0 71
3 72 71 5
3 70 71 72
3 73 0 74
3 76 75 0
3 6 77 79
3 79 78 2
3 77 78 79
3 81 80 6
3 11 7 0
3 13 7 11
3 13 3 7
3 8 13 1
3 14 13 8
3 14 3 13
3 14 82 84
3 84 83 3
3 82 83 84
3 86 85 14
3 10 87 89
3 89 88 4
3 87 88 89
3 91 90 10
