ply
format ascii 1.0
element vertex 407
property float x
property float y
property float z
element face 416
property list uchar int vertex_index
end_header
24.068062 70.218048 24.994957
35.550652 49.124489 41.492172
32.650387 64.993118 24.216349
28.320986 74.338974 13.851702
19.372826 81.15258 14.302153
23.954544 81.487411 2.167412
29.436125 58.668625 34.006535
38.331142 55.429962 32.294575
32.56348 77.493805 -1.820795
21.746181 76.021423 19.88818
31.179878 75.204163 8.790934
26.309021 78.22686 8.123588
29.275816 78.189423 2.916615
26.913677 80.713203 -3.028765
28.219009 55.453293 38.878441
32.515892 53.679108 38.006416
33.885742 56.832291 33.241474
36.937847 52.14917 36.853752
39.54715 47.565895 39.656624
28.213837 67.244583 24.343405
25.918097 72.615814 19.276278
30.334967 69.843414 19.247292
32.904449 71.628212 14.452335
23.780708 77.539314 13.808842
21.035484 84.124634 -3.852858
22.635059 67.293526 30.726513
25.299618 61.062325 34.911507
26.591434 64.260071 29.666729
30.879385 61.868912 29.01733
35.372398 60.145729 28.61327
39.443897 58.82058 27.960453
41.224266 42.769024 41.533501
22.094116 71.920403 25.50745
20.895615 74.945526 23.0042
22.895966 73.174652 22.50198
32.713364 75.279884 6.37823
30.270363 76.762787 5.87231
31.850872 76.661568 3.443318
30.88826 77.927887 0.490812
34.062077 51.37043 39.828461
34.731503 52.891167 37.482212
36.225761 50.617737 39.170715
38.331566 49.865417 38.36673
37.605556 48.364075 40.662048
30.411552 66.037971 24.222446
29.20891 68.616066 21.75539
31.442776 67.438652 21.792873
27.05143 73.574387 16.517834
24.849655 75.156479 16.592432
26.028671 75.861359 13.75661
25.192976 79.931984 5.165218
23.872635 79.926659 7.984209
22.653488 81.69323 5.001317
21.298031 83.277618 1.981733
19.792988 84.664085 -1.04925
22.571205 82.891624 -0.847057
28.561878 80.160759 -5.380657
25.510965 81.803032 -5.969933
21.997629 65.638954 33.491749
28.80549 57.076805 36.475025
26.72736 58.163994 36.914124
27.326855 59.799202 34.42733
25.918205 62.690849 32.320541
27.973896 61.394241 31.874409
28.68924 62.971497 29.294024
30.122581 60.262627 31.506844
36.146278 56.092651 32.81749
34.61882 58.481857 30.894043
36.846092 57.77607 30.54962
37.513268 59.448112 28.362274
38.938114 57.144608 30.086016
39.798649 43.72258 42.981613
34.85564 64.053177 24.281525
33.669502 66.369598 21.942146
31.507425 78.534103 -4.720491
20.583626 78.697037 17.151773
29.706429 74.887383 11.278677
27.337387 76.364365 11.023839
28.758575 76.66404 8.397055
27.744122 78.290794 5.459864
26.625414 79.783554 2.483613
25.37429 81.153404 -0.511421
28.164421 79.503685 -0.057846
29.798344 79.095047 -2.45895
29.760414 52.925285 40.801224
30.337673 54.529587 38.459114
30.960291 56.100433 36.056694
31.630676 57.682549 33.622734
33.181812 55.232872 35.623219
35.433701 54.458588 35.137016
37.652382 53.752701 34.556641
40.305241 49.10408 37.40081
41.302544 46.733582 38.476002
26.098148 68.641853 24.601192
24.927242 71.489166 22.112213
27.02824 69.960045 21.859192
28.09831 71.145645 19.185482
29.305813 72.157234 16.596199
32.580631 68.657158 19.443682
31.576582 70.866142 16.818249
30.63114 72.952164 14.090561
32.043686 73.494728 11.656511
36.929993 46.884636 42.969036
23.807617 74.257088 19.516941
22.702797 76.886993 16.81078
21.571527 79.333237 13.996959
24.984348 77.982033 10.908309
22.665987 79.736649 10.933066
23.974247 82.395111 -3.501226
21.372128 70.501495 28.488174
23.314997 68.818039 27.881695
23.938379 64.123039 32.857475
24.583601 65.71682 30.145172
25.292715 67.222412 27.378067
27.347429 65.781349 26.992592
29.495825 64.529633 26.730484
31.719633 63.464844 26.577734
32.352486 59.298859 31.19363
33.129448 60.938927 28.807482
33.963741 62.552795 26.496824
36.140465 61.74411 26.42823
38.137089 61.001091 26.293465
38.812859 46.080658 41.936081
40.524921 45.211632 40.71262
42.002556 44.294792 39.312981
33.067768 75.884529 3.737991
32.282118 75.970726 4.910774
33.499014 75.193687 5.205447
32.6659 76.50763 2.274017
33.067768 75.884529 3.737991
34.806365 50.247459 40.660316
33.752774 50.609867 40.990591
34.497061 49.486897 41.822446
18.262869 82.013828 14.50439
18.912073 80.81657 15.947226
18.727776 82.251152 12.830592
18.262869 82.013828 14.50439
27.864535 80.628441 -6.812733
29.427847 79.809288 -6.472739
21.690273 64.741196 34.824566
21.024833 66.405632 33.86067
39.338302 55.120106 31.952005
39.641789 55.977429 30.847726
38.634628 56.287285 31.190296
35.33033 64.691422 23.221096
35.890852 63.604927 24.321545
33.422147 77.174652 -2.920489
32.89412 77.694801 -4.370337
32.035452 78.013954 -3.270643
20.718485 76.9207 20.126126
20.293202 76.382751 21.684136
21.320898 75.483474 21.44619
21.164904 77.35923 18.519976
20.137207 78.258507 18.757922
20.718485 76.9207 20.126126
30.543746 51.736336 41.732265
29.493805 52.079814 41.932961
31.426783 54.104348 38.232765
31.116756 53.332447 39.410152
32.205865 52.907207 39.183803
38.001202 51.791412 36.472101
38.358469 52.593178 35.323545
37.295114 52.950935 35.705196
33.672337 68.079361 19.592218
33.125067 67.513378 20.692914
34.216772 66.935581 20.84145
32.240516 71.247177 15.635292
32.689105 70.242344 16.987676
33.353038 70.623379 15.80472
22.064574 80.734475 9.456577
23.269311 79.831654 9.458638
22.667898 80.829479 7.982149
21.51956 80.649937 11.010523
22.064574 80.734475 9.456577
19.589563 84.971867 -3.95928
18.968315 85.241592 -2.557476
20.414236 84.39436 -2.451054
20.196064 84.634274 -5.338603
19.589563 84.971867 -3.95928
23.966418 82.641152 -6.214724
24.732608 82.266861 -7.411534
22.003594 68.897511 29.607343
21.035604 69.710533 29.946089
21.66707 68.106549 31.065258
27.190447 55.953091 39.094364
27.944534 54.603077 40.037279
25.007264 60.205765 36.161011
25.721136 58.7566 37.162319
26.013489 59.61316 35.912816
24.314875 61.744248 35.19637
25.007264 60.205765 36.161011
24.618999 62.592682 33.884491
23.634256 63.274605 34.169353
24.314875 61.744248 35.19637
39.634939 59.578892 26.971565
38.981535 60.669148 26.138071
38.790493 59.910836 27.126959
40.259473 58.54314 27.622938
39.634939 59.578892 26.971565
38.481581 45.338082 43.086483
37.871426 46.482647 42.452559
37.540148 45.740071 43.602961
33.854059 76.657516 -1.483445
33.022204 76.923748 -0.35804
21.494865 73.432964 24.255825
20.511208 74.305374 24.560033
21.110459 72.792812 25.811658
32.184593 77.140789 0.797763
31.369566 77.294727 1.967065
32.6659 76.50763 2.274017
33.022204 76.923748 -0.35804
31.72587 77.710846 -0.664991
32.184593 77.140789 0.797763
32.978957 51.752868 40.094826
33.752774 50.609867 40.990591
33.288984 52.524769 38.917439
32.205865 52.907207 39.183803
32.978957 51.752868 40.094826
33.988871 70.945603 14.678247
33.353038 70.623379 15.80472
33.594234 71.857964 13.29
33.988871 70.945603 14.678247
22.058324 81.712765 6.490703
22.667898 80.829479 7.982149
23.263061 80.809945 6.492763
21.396157 82.603645 4.986398
22.058324 81.712765 6.490703
20.718429 83.395839 3.476606
21.396157 82.603645 4.986398
21.97576 82.485424 3.491525
19.986069 84.171219 1.957398
20.718429 83.395839 3.476606
20.54551 83.970852 0.466241
19.233548 84.864452 0.441906
19.986069 84.171219 1.957398
26.339078 81.449578 -7.107371
27.036421 80.981896 -5.675295
27.864535 80.628441 -6.812733
24.732608 82.266861 -7.411534
26.339078 81.449578 -7.107371
21.348355 67.279263 32.447876
21.024833 66.405632 33.86067
22.316344 66.46624 32.109131
21.66707 68.106549 31.065258
21.348355 67.279263 32.447876
39.868074 56.851768 29.752212
40.120966 57.689754 28.68943
39.191006 57.982594 29.023235
39.868074 56.851768 29.752212
39.641789 55.977429 30.847726
39.484743 42.965834 44.131909
38.974476 44.159042 43.609249
40.165768 42.487887 43.389305
39.484743 42.965834 44.131909
40.878577 42.011109 42.665249
40.511457 43.245802 42.257557
40.165768 42.487887 43.389305
34.737261 65.849632 22.051406
34.262571 65.211388 23.111835
35.33033 64.691422 23.221096
34.216772 66.935581 20.84145
34.737261 65.849632 22.051406
32.385434 78.153481 -5.781819
30.900621 78.99596 -6.142656
32.385434 78.153481 -5.781819
32.89412 77.694801 -4.370337
33.422147 77.174652 -2.920489
33.854059 76.657516 -1.483445
19.885413 75.824382 23.299152
20.511208 74.305374 24.560033
19.885413 75.824382 23.299152
20.293202 76.382751 21.684136
19.517474 79.588798 17.372036
20.137207 78.258507 18.757922
19.978226 79.924808 15.726963
18.912073 80.81657 15.947226
19.517474 79.588798 17.372036
30.900621 78.99596 -6.142656
29.427847 79.809288 -6.472739
30.034652 79.347431 -5.050574
28.715236 53.339073 40.998671
29.493805 52.079814 41.932961
28.989711 54.189289 39.839832
27.944534 54.603077 40.037279
28.715236 53.339073 40.998671
30.828126 52.530296 40.581207
30.543746 51.736336 41.732265
30.049043 53.727436 39.630169
30.828126 52.530296 40.581207
31.116756 53.332447 39.410152
38.702669 53.419701 34.196675
39.042049 54.258331 33.065641
37.991762 54.591332 33.425608
38.702669 53.419701 34.196675
38.358469 52.593178 35.323545
38.698061 50.649536 37.22859
38.001202 51.791412 36.472101
37.634707 51.007294 37.610241
39.684899 50.268867 36.74563
38.698061 50.649536 37.22859
39.318404 49.484749 37.88377
40.665392 49.91484 36.281627
39.684899 50.268867 36.74563
41.184851 48.715855 36.830139
40.665392 49.91484 36.281627
41.683503 47.530606 37.367735
41.184851 48.715855 36.830139
40.803893 47.918831 37.938406
42.051687 46.304276 37.798651
41.683503 47.530606 37.367735
33.19113 69.137852 18.300393
33.672337 68.079361 19.592218
32.078606 69.76165 18.130966
33.19113 69.137852 18.300393
32.689105 70.242344 16.987676
33.163853 72.791222 11.892088
32.474068 72.56147 13.054423
33.594234 71.857964 13.29
32.777264 73.627609 10.467571
33.163853 72.791222 11.892088
32.34536 74.482326 9.034782
31.611782 74.349446 10.223723
32.777264 73.627609 10.467571
33.112102 74.520187 7.82843
31.946621 75.242023 7.584582
32.34536 74.482326 9.034782
33.860079 74.508091 6.661653
33.112102 74.520187 7.82843
33.499014 75.193687 5.205447
33.860079 74.508091 6.661653
35.244232 48.368859 42.64645
34.497061 49.486897 41.822446
35.933903 47.248932 43.384882
36.240323 48.004562 42.230604
35.244232 48.368859 42.64645
36.631657 46.124577 44.121317
35.933903 47.248932 43.384882
37.540148 45.740071 43.602961
36.631657 46.124577 44.121317
20.97233 80.448231 12.54247
22.118757 79.534943 12.465013
21.51956 80.649937 11.010523
19.872979 81.357902 12.695067
20.472176 80.242908 14.149556
20.97233 80.448231 12.54247
18.727776 82.251152 12.830592
19.872979 81.357902 12.695067
18.430958 85.509869 -1.078686
19.233548 84.864452 0.441906
18.430958 85.509869 -1.078686
18.968315 85.241592 -2.557476
23.198059 82.937191 -4.98037
24.742606 82.099072 -4.73558
23.966418 82.641152 -6.214724
21.728677 83.801952 -5.156186
22.504866 83.259873 -3.677042
23.198059 82.937191 -4.98037
20.196064 84.634274 -5.338603
21.728677 83.801952 -5.156186
20.392115 71.34391 28.835235
21.035604 69.710533 29.946089
20.749465 72.083359 27.30202
20.392115 71.34391 28.835235
21.733122 71.210949 26.997812
21.110459 72.792812 25.811658
20.749465 72.083359 27.30202
26.444622 57.308441 38.112206
27.190447 55.953091 39.094364
27.473185 56.808644 37.896282
26.444622 57.308441 38.112206
25.721136 58.7566 37.162319
22.66388 64.032562 34.486491
21.690273 64.741196 34.824566
22.968004 64.880997 33.174612
22.66388 64.032562 34.486491
23.634256 63.274605 34.169353
36.533265 62.450394 25.394897
35.890852 63.604927 24.321545
35.498053 62.898644 25.354878
37.531576 62.078884 25.327515
36.533265 62.450394 25.394897
37.138777 61.372601 26.360847
38.435036 61.636291 25.347454
37.531576 62.078884 25.327515
38.435036 61.636291 25.347454
38.981535 60.669148 26.138071
40.259473 58.54314 27.622938
40.120966 57.689754 28.68943
39.338302 55.120106 31.952005
39.042049 54.258331 33.065641
39.305754 44.901619 42.458847
38.481581 45.338082 43.086483
38.974476 44.159042 43.609249
42.401694 45.08488 38.21714
42.051687 46.304276 37.798651
41.65255 45.514187 38.894492
41.429789 41.490347 41.830484
40.878577 42.011109 42.665249
41.803364 42.266581 40.72588
41.429789 41.490347 41.830484
42.192509 43.029465 39.61562
41.613411 43.531908 40.423241
41.803364 42.266581 40.72588
42.599184 43.822615 38.531537
42.192509 43.029465 39.61562
42.401694 45.08488 38.21714
42.599184 43.822615 38.531537
3 0 34 32
3 125 37 126
3 127 126 35
3 125 126 127
3 129 128 37
3 1 130 132
3 130 39 131
3 130 131 132
3 1 41 39
3 1 43 41
3 2 46 44
3 4 133 134
3 4 135 136
3 3 49 47
3 5 52 50
3 5 53 52
3 5 55 53
3 138 137 56
3 139 58 140
3 6 61 59
3 6 63 61
3 6 65 63
3 7 68 66
3 7 70 68
3 7 141 143
3 143 142 70
3 141 142 143
3 145 144 72
3 8 146 148
3 148 147 74
3 146 147 148
3 9 149 151
3 151 150 33
3 149 150 151
3 9 152 154
3 152 75 153
3 152 153 154
3 10 78 76
3 12 79 36
3 12 80 79
3 12 82 80
3 8 83 38
3 8 74 83
3 155 84 156
3 15 157 159
3 157 85 158
3 157 158 159
3 15 86 85
3 15 88 86
3 17 89 40
3 17 90 89
3 17 160 162
3 162 161 90
3 160 161 162
3 18 91 42
3 18 92 91
3 19 95 93
3 21 96 45
3 21 97 96
3 163 98 164
3 165 164 73
3 163 164 165
3 22 166 168
3 166 99 167
3 166 167 168
3 22 100 99
3 22 101 100
3 20 103 94
3 23 104 48
3 23 105 104
3 11 106 77
3 169 107 170
3 171 170 51
3 169 170 171
3 173 172 107
3 24 174 176
3 176 175 54
3 174 175 176
3 24 177 178
3 13 108 81
3 180 179 57
3 25 181 183
3 181 109 182
3 181 182 183
3 25 110 109
3 14 184 185
3 26 186 188
3 188 187 60
3 186 187 188
3 26 189 190
3 26 191 193
3 191 111 192
3 191 192 193
3 27 112 62
3 27 113 112
3 27 114 113
3 28 115 64
3 28 116 115
3 16 117 87
3 29 118 67
3 29 119 118
3 29 120 119
3 30 121 69
3 30 194 196
3 196 195 121
3 194 195 196
3 30 197 198
3 199 122 200
3 201 200 102
3 199 200 201
3 31 123 71
3 31 124 123
3 203 202 8
3 32 204 206
3 204 33 205
3 204 205 206
3 34 33 32
3 34 9 33
3 35 36 10
3 37 36 35
3 37 12 36
3 37 38 12
3 207 38 208
3 209 208 37
3 207 208 209
3 210 8 211
3 212 211 38
3 210 211 212
3 39 213 214
3 39 215 217
3 215 15 216
3 215 216 217
3 39 40 15
3 41 40 39
3 41 17 40
3 41 42 17
3 43 42 41
3 43 18 42
3 44 45 19
3 46 45 44
3 46 21 45
3 218 22 219
3 221 220 22
3 47 48 20
3 49 48 47
3 49 23 48
3 50 51 11
3 52 51 50
3 52 222 224
3 224 223 51
3 222 223 224
3 52 225 226
3 53 227 229
3 229 228 52
3 227 228 229
3 53 230 231
3 53 232 234
3 232 54 233
3 232 233 234
3 55 54 53
3 55 24 54
3 56 57 13
3 235 57 236
3 237 236 56
3 235 236 237
3 239 238 57
3 58 240 241
3 58 242 244
3 242 25 243
3 242 243 244
3 59 60 14
3 61 60 59
3 61 26 60
3 61 62 26
3 63 62 61
3 63 27 62
3 63 64 27
3 65 64 63
3 65 28 64
3 66 67 16
3 68 67 66
3 68 29 67
3 68 69 29
3 70 69 68
3 70 30 69
3 70 245 247
3 247 246 30
3 245 246 247
3 249 248 70
3 250 71 251
3 252 71 253
3 254 31 255
3 256 255 71
3 254 255 256
3 72 73 2
3 257 73 258
3 259 258 72
3 257 258 259
3 261 260 73
3 74 262 263
3 265 264 74
3 267 266 8
3 33 268 269
3 271 270 33
3 75 272 273
3 75 274 276
3 274 4 275
3 274 275 276
3 76 77 3
3 78 77 76
3 78 11 77
3 36 78 10
3 79 78 36
3 79 11 78
3 79 50 11
3 80 50 79
3 80 5 50
3 80 81 5
3 82 81 80
3 82 13 81
3 38 82 12
3 83 82 38
3 83 13 82
3 83 56 13
3 74 56 83
3 74 277 279
3 279 278 56
3 277 278 279
3 84 280 281
3 84 282 284
3 282 14 283
3 282 283 284
3 285 84 286
3 85 287 289
3 287 84 288
3 287 288 289
3 85 14 84
3 85 59 14
3 86 59 85
3 86 6 59
3 86 87 6
3 88 87 86
3 88 16 87
3 40 88 15
3 89 88 40
3 89 16 88
3 89 66 16
3 90 66 89
3 90 7 66
3 90 290 292
3 292 291 7
3 290 291 292
3 294 293 90
3 42 295 297
3 297 296 17
3 295 296 297
3 91 298 300
3 300 299 42
3 298 299 300
3 91 301 302
3 91 303 304
3 92 305 307
3 307 306 91
3 305 306 307
3 92 308 309
3 93 94 0
3 95 94 93
3 95 20 94
3 45 95 19
3 96 95 45
3 96 20 95
3 96 47 20
3 97 47 96
3 97 3 47
3 73 46 2
3 98 46 73
3 98 21 46
3 310 98 311
3 99 312 314
3 312 98 313
3 312 313 314
3 99 21 98
3 99 97 21
3 100 97 99
3 100 3 97
3 100 76 3
3 101 76 100
3 101 10 76
3 315 101 316
3 317 316 22
3 315 316 317
3 318 101 319
3 320 10 321
3 322 321 101
3 320 321 322
3 323 35 324
3 325 324 10
3 323 324 325
3 326 35 327
3 329 328 35
3 330 1 331
3 332 102 333
3 334 333 1
3 332 333 334
3 335 102 336
3 338 337 102
3 94 34 0
3 103 34 94
3 103 9 34
3 48 103 20
3 104 103 48
3 104 9 103
3 104 75 9
3 105 75 104
3 105 4 75
3 77 49 3
3 106 49 77
3 106 23 49
3 51 106 11
3 107 106 51
3 107 23 106
3 107 105 23
3 339 105 340
3 341 340 107
3 339 340 341
3 342 4 343
3 344 343 105
3 342 343 344
3 346 345 4
3 54 347 348
3 350 349 54
3 81 55 5
3 108 55 81
3 108 24 55
3 57 108 13
3 351 108 352
3 353 352 57
3 351 352 353
3 354 24 355
3 356 355 108
3 354 355 356
3 358 357 24
3 109 359 360
3 109 361 362
3 109 363 365
3 363 32 364
3 363 364 365
3 110 32 109
3 110 0 32
3 60 366 368
3 368 367 14
3 366 367 368
3 370 369 60
3 371 58 372
3 111 373 375
3 373 58 374
3 373 374 375
3 111 25 58
3 62 111 26
3 112 111 62
3 112 25 111
3 112 110 25
3 113 110 112
3 113 0 110
3 113 93 0
3 114 93 113
3 114 19 93
3 64 114 27
3 115 114 64
3 115 19 114
3 115 44 19
3 116 44 115
3 116 2 44
3 87 65 6
3 117 65 87
3 117 28 65
3 67 117 16
3 118 117 67
3 118 28 117
3 118 116 28
3 119 116 118
3 119 2 116
3 119 72 2
3 120 72 119
3 120 376 378
3 378 377 72
3 376 377 378
3 69 120 29
3 121 120 69
3 121 379 381
3 381 380 120
3 379 380 381
3 121 382 383
3 385 384 121
3 387 386 30
3 389 388 7
3 102 43 1
3 122 43 102
3 122 18 43
3 71 390 392
3 390 122 391
3 390 391 392
3 123 122 71
3 123 18 122
3 123 92 18
3 124 92 123
3 124 393 395
3 395 394 92
3 393 394 395
3 396 31 397
3 398 31 399
3 400 124 401
3 402 401 31
3 400 401 402
3 403 124 404
3 406 405 124
