ply
format ascii 1.0
element vertex 246
property float x
property float y
property float z
element face 232
property list uchar int vertex_index
end_header
-1.752775 50.997208 -31.126356
5.171001 26.621136 -30.179827
-0.354288 67.907143 -27.704775
1.679049 45.329498 -34.090981
-0.623058 30.795406 -29.865072
0.823519 75.040977 -24.304525
-1.617521 41.246269 -30.976141
0.207943 38.801868 -32.374084
-0.480284 48.487 -33.425438
-1.256853 59.885239 -30.029173
1.455742 72.941994 -28.973886
0.322758 65.617195 -31.699526
-0.367008 57.448639 -33.228409
1.463388 20.089172 -28.380007
1.934399 28.621113 -30.515451
2.826559 36.159054 -32.36145
-2.195841 47.287926 -29.646574
-2.187613 42.34906 -29.644011
-1.778677 46.225136 -31.198076
-1.13386 45.0373 -32.333244
-1.238134 49.82769 -32.490967
4.99799 22.607006 -29.340994
-0.844582 64.003342 -29.012159
2.19075 76.23777 -27.222509
1.537525 67.784348 -32.088211
1.044596 63.995964 -33.119133
-0.082632 61.633736 -32.624748
0.677835 60.013878 -33.832123
0.450562 55.846489 -34.208359
-1.572245 31.898277 -28.967123
0.267511 25.435139 -29.128588
1.663643 24.42902 -29.458555
0.550409 29.697701 -30.364332
0.848274 42.304291 -33.340302
1.440336 37.490082 -32.49984
2.117462 40.801373 -33.32283
-2.531061 38.281796 -27.88542
-1.988356 37.206242 -29.396574
-1.241529 36.087681 -30.508471
-0.268059 34.930893 -31.202185
-0.820126 40.060825 -31.884516
-0.25148 43.725578 -33.036842
0.50679 46.981033 -33.939865
-2.039141 52.003441 -29.363062
-1.568903 55.550964 -30.737612
1.735237 77.400085 -24.89908
1.014322 74.157684 -26.804968
0.392078 70.652283 -28.474081
2.153557 71.363159 -30.764433
0.836205 69.392036 -30.474512
-0.143106 66.913567 -29.882856
-0.590561 62.957962 -31.008314
-0.937735 58.791481 -31.828566
-1.162792 54.414543 -32.3256
-0.508722 53.064934 -33.495728
0.384417 51.499557 -34.240616
1.477219 49.730164 -34.596352
3.254593 23.481022 -29.493666
3.491817 27.58696 -30.41308
0.927361 33.750301 -31.505449
2.312859 32.569187 -31.495176
3.837015 31.420506 -31.286291
6.00619 24.222134 -29.651629
5.919684 22.215069 -29.232212
5.084496 24.614071 -29.76041
-0.611279 66.353863 -27.197754
-0.345147 68.270367 -26.463827
-0.599435 65.955242 -28.358467
-0.856426 64.401962 -27.851446
-0.611279 66.353863 -27.197754
1.519521 63.020378 -33.627994
1.758058 64.907776 -33.210537
1.33614 61.029335 -33.98449
0.861216 62.004921 -33.475628
1.519521 63.020378 -33.627994
1.168604 59.056076 -34.23415
1.33614 61.029335 -33.98449
-0.766717 28.64042 -29.148773
-1.24131 29.191856 -28.699798
-1.097652 31.346842 -29.416097
-0.177774 28.115272 -29.49683
-0.321433 25.960287 -28.780531
-0.766717 28.64042 -29.148773
2.325536 44.447872 -34.031052
2.544742 42.183809 -33.646977
1.898256 43.065435 -33.706906
0.530768 73.645256 -23.900791
0.839016 75.336997 -22.920284
0.512576 73.316341 -25.216312
0.530768 73.645256 -23.900791
-2.545763 40.826777 -27.905556
-2.722227 38.800517 -26.956537
-2.087606 52.435276 -28.312509
-2.229945 50.120327 -28.546768
-1.501333 58.188065 -29.401893
-1.301386 60.319786 -28.954735
-1.412878 57.718102 -30.383392
-1.657358 56.020927 -29.756113
-1.501333 58.188065 -29.401893
2.397358 78.318184 -25.072357
2.155695 78.868279 -23.840044
2.619967 70.385044 -31.460109
2.998921 72.071987 -30.746818
0.932126 52.744907 -34.514057
0.41749 53.673023 -34.224488
0.965199 54.918373 -34.497929
1.478527 51.860211 -34.691925
0.930818 50.614861 -34.418484
0.932126 52.744907 -34.514057
1.380537 17.883747 -27.860948
0.664996 18.362974 -27.60589
0.747847 20.568399 -28.124949
2.231984 17.469476 -28.032457
1.380537 17.883747 -27.860948
2.282031 19.648077 -28.474087
2.231984 17.469476 -28.032457
3.564319 35.509687 -32.223762
4.069548 33.140414 -31.686183
3.331787 33.78978 -31.82387
1.174216 76.633209 -23.281179
0.839016 75.336997 -22.920284
-2.191727 44.818493 -29.645293
-2.374039 42.860409 -28.784852
-2.378153 45.329842 -28.786133
5.922097 20.158163 -28.850277
4.954426 20.508806 -28.93215
5.922097 20.158163 -28.850277
5.919684 22.215069 -29.232212
-1.095251 62.378838 -28.446228
-0.856426 64.401962 -27.851446
-1.050717 61.944291 -29.520666
-1.301386 60.319786 -28.954735
-1.095251 62.378838 -28.446228
2.991134 77.002167 -27.285992
2.625115 77.737026 -26.234071
2.545241 75.471183 -28.199047
2.991134 77.002167 -27.285992
2.177738 73.823296 -29.074736
1.823246 74.589882 -28.098197
2.545241 75.471183 -28.199047
2.004522 66.801968 -32.695076
2.311951 68.595639 -32.121998
1.29106 65.890156 -32.603672
2.004522 66.801968 -32.695076
1.758058 64.907776 -33.210537
1.054968 56.972381 -34.422268
0.564199 57.930183 -34.020241
1.168604 59.056076 -34.23415
0.965199 54.918373 -34.497929
1.054968 56.972381 -34.422268
-1.721462 29.733944 -28.155575
-1.941009 32.447657 -28.317345
-1.721462 29.733944 -28.155575
-1.24131 29.191856 -28.699798
0.149909 23.241383 -28.499239
-0.321433 25.960287 -28.780531
0.865449 22.762155 -28.754297
0.747847 20.568399 -28.124949
0.149909 23.241383 -28.499239
2.80327 40.032101 -33.209835
3.157819 37.710942 -32.729145
2.472011 38.480213 -32.84214
2.80327 40.032101 -33.209835
2.544742 42.183809 -33.646977
6.044446 26.186516 -30.060727
5.306047 28.484693 -30.595161
-0.076327 69.749424 -26.916437
-0.345147 68.270367 -26.463827
-2.70114 36.185993 -26.944122
-2.722227 38.800517 -26.956537
-2.420418 35.639416 -27.776493
-2.70114 36.185993 -26.944122
-2.359337 40.315428 -28.764716
-2.545763 40.826777 -27.905556
-2.374039 42.860409 -28.784852
-2.149065 35.101639 -28.53207
-2.420418 35.639416 -27.776493
-2.259708 37.744019 -28.640997
-1.780301 34.55226 -29.181849
-1.941009 32.447657 -28.317345
-2.149065 35.101639 -28.53207
6.879635 23.787514 -29.532528
6.00619 24.222134 -29.651629
6.044446 26.186516 -30.060727
-2.308295 47.762569 -28.688524
-2.378153 45.329842 -28.786133
-2.117491 49.645684 -29.504818
-2.308295 47.762569 -28.688524
-2.229945 50.120327 -28.546768
-1.892477 54.247166 -29.068838
-2.087606 52.435276 -28.312509
-1.804022 53.777203 -30.050337
-1.892477 54.247166 -29.068838
-1.657358 56.020927 -29.756113
1.630075 77.812763 -23.578457
2.155695 78.868279 -23.840044
1.279378 76.220531 -24.601803
1.174216 76.633209 -23.281179
1.630075 77.812763 -23.578457
1.962994 76.818928 -26.060795
2.397358 78.318184 -25.072357
2.625115 77.737026 -26.234071
0.607977 72.874695 -26.466533
0.512576 73.316341 -25.216312
0.918921 74.599331 -25.554747
0.296855 71.121994 -27.30109
0.607977 72.874695 -26.466533
0.7032 72.404984 -27.639525
0.018895 69.279713 -28.089428
-0.076327 69.749424 -26.916437
0.296855 71.121994 -27.30109
2.526645 73.033878 -29.970009
2.998921 72.071987 -30.746818
1.80465 72.152576 -29.86916
2.177738 73.823296 -29.074736
2.526645 73.033878 -29.970009
1.845541 69.573753 -31.426322
2.619967 70.385044 -31.460109
2.311951 68.595639 -32.121998
2.071213 50.813923 -34.808007
1.478527 51.860211 -34.691925
2.093517 48.755333 -34.615571
2.071213 50.813923 -34.808007
2.194433 46.555 -34.362885
1.578134 47.529831 -34.343666
2.093517 48.755333 -34.615571
2.325536 44.447872 -34.031052
2.194433 46.555 -34.362885
2.382159 21.818001 -29.013361
2.282031 19.648077 -28.474087
1.563515 22.259096 -28.919281
3.177633 21.344002 -29.030917
2.382159 21.818001 -29.013361
2.459118 23.955021 -29.476111
4.082727 20.945814 -29.008486
3.177633 21.344002 -29.030917
4.126291 23.044014 -29.41733
4.954426 20.508806 -28.93215
4.082727 20.945814 -29.008486
4.639054 30.884379 -31.148393
5.306047 28.484693 -30.595161
4.504008 29.020821 -30.733059
4.639054 30.884379 -31.148393
4.069548 33.140414 -31.686183
3.564319 35.509687 -32.223762
3.157819 37.710942 -32.729145
3 0 18 16
3 0 20 18
3 1 62 64
3 64 63 21
3 62 63 64
3 2 65 66
3 2 67 69
3 67 22 68
3 67 68 69
3 70 25 71
3 72 27 73
3 74 73 25
3 72 73 74
3 76 75 27
3 4 77 79
3 79 78 29
3 77 78 79
3 4 80 82
3 80 30 81
3 80 81 82
3 4 32 30
3 3 35 33
3 3 83 85
3 85 84 35
3 83 84 85
3 5 86 87
3 5 88 89
3 90 36 91
3 6 37 17
3 6 38 37
3 6 40 38
3 8 41 19
3 8 42 41
3 92 43 93
3 9 94 95
3 9 96 98
3 96 44 97
3 96 97 98
3 99 45 100
3 10 46 23
3 10 47 46
3 101 48 102
3 11 49 24
3 11 50 49
3 11 51 50
3 12 52 26
3 12 53 52
3 12 54 53
3 103 55 104
3 105 104 28
3 103 104 105
3 106 56 107
3 108 107 55
3 106 107 108
3 13 109 111
3 109 110 111
3 13 112 113
3 13 114 115
3 14 57 31
3 14 58 57
3 7 59 39
3 15 60 34
3 15 61 60
3 15 116 118
3 118 117 61
3 116 117 118
3 119 5 120
3 16 121 123
3 121 17 122
3 121 122 123
3 18 17 16
3 18 6 17
3 18 19 6
3 20 19 18
3 20 8 19
3 21 124 125
3 127 126 21
3 22 128 129
3 22 130 132
3 130 9 131
3 130 131 132
3 133 23 134
3 135 23 136
3 137 10 138
3 139 138 23
3 137 138 139
3 140 24 141
3 25 142 144
3 142 24 143
3 142 143 144
3 25 11 24
3 25 26 11
3 27 26 25
3 27 12 26
3 27 28 12
3 145 28 146
3 147 146 27
3 145 146 147
3 149 148 28
3 29 150 151
3 153 152 29
3 30 154 155
3 30 156 158
3 156 13 157
3 156 157 158
3 30 31 13
3 32 31 30
3 32 14 31
3 33 34 7
3 35 34 33
3 35 15 34
3 35 159 161
3 161 160 15
3 159 160 161
3 163 162 35
3 165 164 1
3 166 2 167
3 36 168 169
3 36 170 171
3 17 172 174
3 172 36 173
3 172 173 174
3 37 36 17
3 37 175 177
3 177 176 36
3 175 176 177
3 37 178 180
3 178 29 179
3 178 179 180
3 38 29 37
3 38 4 29
3 38 39 4
3 40 39 38
3 40 7 39
3 19 40 6
3 41 40 19
3 41 7 40
3 41 33 7
3 42 33 41
3 42 3 33
3 183 182 1
3 181 182 183
3 184 16 185
3 43 186 188
3 186 16 187
3 186 187 188
3 43 0 16
3 189 43 190
3 44 191 193
3 191 43 192
3 191 192 193
3 44 0 43
3 45 194 195
3 45 196 198
3 196 5 197
3 196 197 198
3 23 199 201
3 199 45 200
3 199 200 201
3 46 45 23
3 46 5 45
3 46 202 204
3 204 203 5
3 202 203 204
3 47 205 207
3 207 206 46
3 205 206 207
3 47 208 210
3 208 2 209
3 208 209 210
3 48 211 212
3 48 213 215
3 213 10 214
3 213 214 215
3 24 216 218
3 216 48 217
3 216 217 218
3 49 48 24
3 49 10 48
3 49 47 10
3 50 47 49
3 50 2 47
3 50 22 2
3 51 22 50
3 51 9 22
3 26 51 11
3 52 51 26
3 52 9 51
3 52 44 9
3 53 44 52
3 53 0 44
3 53 20 0
3 54 20 53
3 54 8 20
3 28 54 12
3 55 54 28
3 55 8 54
3 55 42 8
3 56 42 55
3 56 3 42
3 219 56 220
3 221 56 222
3 223 3 224
3 225 224 56
3 223 224 225
3 227 226 3
3 31 228 230
3 230 229 13
3 228 229 230
3 57 231 233
3 233 232 31
3 231 232 233
3 57 234 235
3 57 236 238
3 236 21 237
3 236 237 238
3 58 21 57
3 58 1 21
3 39 32 4
3 59 32 39
3 59 14 32
3 34 59 7
3 60 59 34
3 60 14 59
3 60 58 14
3 61 58 60
3 61 1 58
3 61 239 241
3 241 240 1
3 239 240 241
3 243 242 61
3 245 244 15
