ply
format ascii 1.0
element vertex 568
property float x
property float y
property float z
element face 602
property list uchar int vertex_index
end_header
70.561867 -40.460625 -26.609884
60.066856 -69.387543 3.454607
66.415741 -9.123349 -37.322098
53.903431 9.561432 -51.073845
62.736511 -69.50174 -4.964161
68.524773 -30.525045 -23.853373
69.805908 -24.550688 -31.535799
70.167511 -44.238403 -18.93989
65.517723 -60.768314 -4.181496
68.69561 -57.673672 -12.475456
61.158287 4.898516 -41.802475
70.699593 -34.809647 -25.27286
69.829353 -27.366209 -27.642298
70.522453 -32.54982 -28.998243
69.203865 -30.580036 -32.763718
69.15448 -39.02697 -30.23807
68.410751 -46.698837 -15.021206
60.783699 -65.368225 3.697577
62.770279 -61.400982 -0.136478
63.311356 -65.637604 -0.432985
62.992073 -68.947868 -9.191139
66.256828 -63.97575 -8.770992
66.40583 -62.852291 -13.046158
68.896385 -56.212093 -16.720633
66.776787 -12.644592 -32.755951
64.86628 -5.568439 -35.109871
63.918472 -1.88969 -39.938835
61.490303 1.034113 -44.720482
64.561813 -6.27311 -41.986435
61.72897 -69.765411 -0.773264
58.600723 -73.927521 -1.096321
68.477928 -19.935482 -30.153124
68.426849 -16.695812 -34.375946
66.97744 -14.026842 -38.802094
68.522362 -22.164593 -35.620018
69.603012 -37.416405 -21.536711
70.937523 -42.131958 -22.821589
66.351746 -55.133663 -7.777079
65.229668 -65.084381 -4.571733
67.573204 -59.381557 -8.28941
68.567116 -53.122738 -11.830324
69.949295 -51.009819 -15.915129
70.382034 -49.271812 -20.010641
69.851906 -48.079468 -24.009378
58.311546 10.949835 -42.70826
58.078423 7.748055 -46.621788
57.839897 3.110346 -49.324249
64.423767 -11.873675 -43.360832
70.922119 -37.468407 -25.950144
70.771721 -33.636753 -27.134214
70.630028 -36.531429 -27.806391
70.060562 -35.657982 -29.646307
69.967842 -39.733124 -28.446184
67.257576 -47.957737 -13.050098
60.658218 -67.410385 3.587018
62.095085 -65.609192 1.630101
61.778179 -67.661385 1.487493
64.799187 -65.987099 -11.128736
66.783615 -10.807759 -35.024651
65.838348 -9.075702 -33.991852
65.713364 -7.188378 -36.340385
64.576439 -3.64617 -37.526466
65.214218 -5.460441 -38.701408
64.331848 -3.91384 -41.070183
65.667274 -7.610375 -39.645424
67.874008 -27.055496 -24.972055
69.989563 -25.90642 -29.569532
69.205353 -23.640093 -28.875204
69.37928 -22.057795 -30.874533
68.633995 -18.249666 -32.239899
69.199234 -20.593662 -32.922287
68.681427 -19.259155 -35.02562
69.302063 -23.305214 -33.551178
69.096306 -42.135056 -18.372309
68.649086 -38.824696 -19.65354
69.966202 -40.834843 -20.285715
70.582817 -39.614517 -22.187506
70.690964 -43.128284 -20.887686
64.204803 -61.194176 -2.152285
64.774185 -58.648441 -3.982853
65.009094 -55.945332 -5.759787
66.106331 -58.01741 -6.00588
62.32703 -69.699219 -2.867985
63.593788 -67.575089 -2.682987
64.21109 -67.273621 -4.771902
67.625793 -60.894184 -10.644691
67.218163 -61.635082 -8.533081
68.255211 -58.531433 -10.372562
68.233696 -56.29213 -10.092669
68.967796 -55.318302 -12.158844
69.372765 -52.04533 -13.868574
69.465141 -54.365746 -14.239817
68.691498 -55.694687 -18.837137
69.762283 -52.76973 -18.423971
69.579071 -52.190845 -20.499567
70.23526 -48.613976 -22.032892
62.189564 3.137457 -39.316963
60.968559 6.311493 -39.867073
59.738594 8.044609 -42.376617
58.185261 9.548403 -44.825401
59.78009 6.444199 -44.243179
61.530548 -1.391504 -45.784859
59.789127 2.179686 -47.059135
66.795372 -16.955204 -39.390854
65.813301 -12.89614 -41.075996
65.527824 -15.945345 -41.621506
54.228767 11.752665 -49.443085
69.87545 -32.502552 -24.582178
69.329636 -28.913742 -25.741568
70.333481 -31.095711 -26.449488
70.456802 -29.774448 -28.328848
70.246796 -28.545599 -30.230997
69.732376 -27.407444 -32.166306
69.982582 -31.536972 -30.87229
69.263428 -34.819687 -31.473795
68.023262 -43.482231 -16.446371
69.395081 -45.441738 -16.983915
60.476952 -63.269161 3.782195
61.285961 -61.381683 1.865068
61.907791 -63.509041 1.7535
63.300163 -63.52919 -0.280464
64.577667 -63.326958 -2.321295
62.95369 -69.229019 -7.070457
64.611343 -66.861954 -6.873793
64.800262 -66.409004 -8.992966
66.430504 -63.37952 -10.900747
67.804436 -60.187843 -12.775888
68.903694 -56.881527 -14.594492
67.776947 -59.582081 -14.919363
66.430977 -14.600533 -30.514872
63.395767 -0.195572 -38.530975
62.557957 1.572666 -40.984238
61.354561 3.138227 -43.409302
62.882423 -0.324629 -42.340576
63.088463 -2.557596 -43.437157
63.145119 -5.104816 -44.328941
60.963722 -69.665466 1.330733
59.727673 -71.644531 1.172648
60.289524 -71.820694 -0.941565
60.703228 -71.860306 -3.042093
58.878769 -74.106232 -3.202776
60.953011 -71.801643 -5.141455
68.689934 -25.31665 -26.912493
67.979729 -21.72427 -28.106676
67.220284 -18.148849 -29.316637
67.662796 -16.266947 -31.459139
67.763847 -14.496752 -33.638641
67.494293 -12.870119 -35.86013
66.854019 -11.40379 -38.123299
67.864204 -15.288528 -36.564499
67.863548 -18.051613 -37.184883
67.521095 -21.112352 -37.7379
68.963112 -26.349596 -34.141975
68.095406 -35.505184 -20.843706
69.111572 -33.979881 -22.716673
70.302055 -36.071854 -23.408407
70.907875 -38.491875 -24.076609
70.893188 -41.249184 -24.732409
59.455414 -64.927071 5.770986
59.473381 -66.970123 5.703701
59.084721 -68.937759 5.605398
62.772266 -67.713928 -0.59964
64.371124 -65.455383 -2.497681
65.681168 -62.916607 -4.373777
65.860336 -64.569321 -6.661474
66.568863 -62.333588 -6.443237
66.653557 -60.148705 -6.226215
67.272057 -57.21439 -8.042089
67.550735 -54.174343 -9.800289
67.527679 -51.077686 -11.476847
68.610023 -49.916206 -13.479231
69.50174 -48.74704 -15.481451
70.173134 -47.630409 -17.484278
69.727425 -53.500671 -16.331484
70.286888 -50.07325 -17.965734
70.600594 -46.614235 -19.484663
70.768394 -45.725464 -21.473833
70.669159 -44.966259 -23.437799
70.306656 -44.314545 -25.358824
69.69912 -43.729679 -27.219374
56.591358 12.38883 -45.155357
56.333508 10.792267 -47.191437
56.099785 8.791172 -48.911583
59.808025 4.480104 -45.792442
57.965431 5.584896 -48.111191
55.887409 6.445086 -50.330322
65.869614 -10.098787 -40.421867
64.586639 -8.943423 -42.740913
66.619919 -48.560046 -12.058809
66.37648 -47.047209 -12.797372
52.72757 9.806859 -52.065483
52.91589 10.987583 -51.30574
53.770349 8.309332 -51.736892
52.72757 9.806859 -52.065483
68.19939 -28.79027 -24.412714
67.349052 -27.938349 -24.005781
67.674435 -29.673123 -23.44644
68.940834 -53.757816 -20.708872
69.135284 -53.942766 -19.668352
68.497048 -55.509737 -19.877657
69.38279 -51.97035 -21.516018
68.940834 -53.757816 -20.708872
60.624308 -0.900991 -46.934013
61.502685 -2.742394 -46.214596
65.939121 -18.034703 -40.754707
66.161598 -16.450274 -40.50618
66.572895 -18.539632 -39.639381
54.415184 12.651342 -48.470627
53.307816 13.079528 -49.571522
68.666493 -38.665093 -31.112715
68.720967 -36.561451 -31.730577
69.208954 -36.923328 -30.855933
68.217006 -45.090534 -15.733788
67.413437 -44.157291 -15.475701
67.607181 -45.765594 -14.763119
66.203045 -11.866231 -32.206849
66.03014 -12.844202 -31.086309
66.603882 -13.622563 -31.635412
64.84803 -6.594426 -33.901612
65.334064 -8.348058 -33.342602
65.352314 -7.32207 -34.550861
64.454064 -4.890629 -34.34082
64.84803 -6.594426 -33.901612
64.371552 -3.852589 -35.583923
64.454064 -4.890629 -34.34082
58.712405 -72.43993 2.175006
59.387375 -71.480224 2.242847
59.445124 -72.874108 -1.018943
59.243475 -72.732013 0.041972
58.399074 -73.785427 -0.035407
58.948296 -74.161782 -4.255413
57.943653 -75.298508 -3.281859
58.013179 -75.354058 -4.334497
59.985416 -73.009487 -5.224752
59.91589 -72.953937 -4.172116
58.948296 -74.161782 -4.255413
60.996674 -71.750621 -6.195361
59.985416 -73.009487 -5.224752
58.830223 -64.617245 6.808187
59.278263 -63.875574 5.786544
58.773786 -67.651413 6.743809
58.886578 -66.66494 6.769796
58.579456 -68.635231 6.694657
59.279051 -67.953941 5.654549
58.773786 -67.651413 6.743809
62.301184 -60.340372 -0.058827
61.559024 -60.330723 0.941946
62.02812 -61.391333 0.864295
65.647244 -54.134804 -7.620237
64.975918 -54.540638 -6.611592
65.68042 -55.539497 -6.768433
66.321393 -53.651413 -8.624579
65.647244 -54.134804 -7.620237
69.067795 -45.459831 -27.471931
69.471882 -45.676935 -26.566851
69.289783 -43.445558 -28.113003
69.067795 -45.459831 -27.471931
58.399536 11.436829 -41.499184
59.023583 10.108261 -41.446377
57.598229 12.242107 -42.761345
58.399536 11.436829 -41.499184
57.451452 11.669332 -43.931809
56.738135 12.961604 -43.984893
57.598229 12.242107 -42.761345
56.772943 3.46844 -50.395897
55.7967 5.13581 -50.898933
56.863653 4.777716 -49.827286
63.741726 -9.896452 -44.206986
63.823162 -8.431325 -43.897026
64.505203 -10.408549 -43.050872
67.030594 -46.395044 -13.777565
66.37648 -47.047209 -12.797372
67.834164 -47.328287 -14.035652
67.607181 -45.765594 -14.763119
67.030594 -46.395044 -13.777565
63.838219 -67.353786 -11.226487
63.89563 -67.467484 -10.159937
62.934662 -68.834171 -10.257689
64.718377 -65.821404 -12.201332
63.838219 -67.353786 -11.226487
65.521698 -64.254 -13.160043
65.602508 -64.419695 -12.087447
64.718377 -65.821404 -12.201332
66.308796 -62.6491 -14.121018
65.521698 -64.254 -13.160043
57.563816 -74.824398 -0.101685
58.399074 -73.785427 -0.035407
67.025021 -26.255189 -24.528635
67.349052 -27.938349 -24.005781
67.53109 -25.316698 -25.530241
67.025021 -26.255189 -24.528635
68.72612 -30.118445 -33.72028
68.752079 -32.283673 -33.028805
68.872696 -40.479876 -19.012925
68.075489 -39.54608 -18.704111
68.299099 -41.20126 -18.063496
63.766166 -60.134144 -2.062779
63.048905 -60.237547 -1.054876
63.487541 -61.297579 -1.144381
64.050858 -58.861277 -2.978064
63.766166 -60.134144 -2.062779
64.489494 -59.921308 -3.067569
64.173111 -57.609842 -3.866336
64.050858 -58.861277 -2.978064
64.891639 -57.296886 -4.87132
64.290565 -56.258288 -4.754803
64.173111 -57.609842 -3.866336
69.710884 -50.181916 -22.28268
69.907165 -50.402411 -21.26623
69.38279 -51.97035 -21.516018
69.519207 -49.914661 -23.270924
70.043583 -48.346722 -23.021135
69.710884 -50.181916 -22.28268
62.03352 3.76171 -38.314621
62.534826 2.166081 -38.057548
61.423018 5.348727 -38.589676
62.03352 3.76171 -38.314621
61.579061 4.724475 -39.592018
60.914901 6.845007 -38.735767
61.423018 5.348727 -38.589676
60.352089 7.78909 -40.025784
60.914901 6.845007 -38.735767
59.737106 8.655648 -41.280556
60.352089 7.78909 -40.025784
60.353577 7.178051 -41.121845
59.02507 9.497222 -42.542439
59.023583 10.108261 -41.446377
59.737106 8.655648 -41.280556
59.753597 0.884604 -47.571151
60.659838 0.394091 -46.421997
60.624308 -0.900991 -46.934013
58.778982 1.349934 -48.703709
58.814512 2.645016 -48.191692
59.753597 0.884604 -47.571151
57.776398 1.750687 -49.804814
58.778982 1.349934 -48.703709
53.078558 12.083199 -50.490361
53.307816 13.079528 -49.571522
54.066099 10.657049 -50.258465
52.91589 10.987583 -51.30574
53.078558 12.083199 -50.490361
68.78186 -34.403498 -32.383843
68.752079 -32.283673 -33.028805
69.233646 -32.699861 -32.118756
68.78186 -34.403498 -32.383843
68.720967 -36.561451 -31.730577
67.126808 -42.594753 -16.141056
67.413437 -44.157291 -15.475701
67.762577 -41.874848 -17.100527
67.126808 -42.594753 -16.141056
68.559784 -42.808644 -17.40934
68.299099 -41.20126 -18.063496
67.762577 -41.874848 -17.100527
60.881456 -62.325422 2.823632
60.56299 -61.26191 2.855824
60.158485 -62.205648 3.814388
66.994354 -61.013995 -15.05762
67.091388 -61.217186 -13.982761
66.308796 -62.6491 -14.121018
67.672501 -59.350081 -15.989971
66.994354 -61.013995 -15.05762
68.232219 -57.665087 -16.890606
68.336666 -57.897087 -15.819998
67.672501 -59.350081 -15.989971
68.129776 -57.406384 -17.948858
68.793941 -55.95339 -17.778885
68.232219 -57.665087 -16.890606
67.944119 -57.248978 -19.006453
68.129776 -57.406384 -17.948858
68.497048 -55.509737 -19.877657
67.944119 -57.248978 -19.006453
65.792076 -13.890557 -29.926613
66.11998 -15.616135 -29.406216
65.792076 -13.890557 -29.926613
66.03014 -12.844202 -31.086309
65.733825 -10.081786 -32.824799
66.203045 -11.866231 -32.206849
66.307568 -10.860147 -33.373902
65.733825 -10.081786 -32.824799
65.334064 -8.348058 -33.342602
64.226631 -2.891455 -36.792221
64.371552 -3.852589 -35.583923
64.72136 -4.607304 -36.318168
63.636295 -1.166156 -37.294475
64.226631 -2.891455 -36.792221
63.986103 -1.920871 -38.02872
63.137928 0.499566 -37.664554
63.636295 -1.166156 -37.294475
62.792665 1.470943 -38.923969
62.534826 2.166081 -38.057548
63.137928 0.499566 -37.664554
62.309971 -4.59905 -45.486637
61.502685 -2.742394 -46.214596
62.337834 -3.24816 -45.0569
60.005399 -70.490692 2.32189
60.515289 -69.526504 2.39267
59.556967 -70.351731 3.383827
60.345697 -70.654999 1.251691
60.005399 -70.490692 2.32189
59.387375 -71.480224 2.242847
58.96255 -72.643932 1.099078
58.712405 -72.43993 2.175006
60.008599 -71.732613 0.115541
58.96255 -72.643932 1.099078
59.243475 -72.732013 0.041972
57.71096 -75.035897 -1.168529
57.563816 -74.824398 -0.101685
56.674053 -75.932773 -0.173893
57.849984 -75.125252 -2.221756
57.943653 -75.298508 -3.281859
58.739746 -74.016876 -2.149548
57.71096 -75.035897 -1.168529
57.849984 -75.125252 -2.221756
61.997014 -70.464309 -7.159863
61.95335 -70.515331 -6.105956
60.996674 -71.750621 -6.195361
62.016205 -70.323734 -8.220204
62.972881 -69.088443 -8.130798
61.997014 -70.464309 -7.159863
61.987122 -70.280369 -9.280369
62.016205 -70.323734 -8.220204
62.934662 -68.834171 -10.257689
61.987122 -70.280369 -9.280369
67.939053 -24.447275 -26.50046
67.53109 -25.316698 -25.530241
68.281971 -26.186073 -25.942274
67.58395 -22.651085 -27.097552
67.939053 -24.447275 -26.50046
68.334832 -23.52046 -27.509585
67.236233 -20.91237 -27.654761
67.58395 -22.651085 -27.097552
66.856511 -19.124659 -28.259741
67.236233 -20.91237 -27.654761
67.600007 -19.93656 -28.711657
66.514634 -17.390293 -28.807099
66.856511 -19.124659 -28.259741
66.825631 -16.374691 -29.915754
66.11998 -15.616135 -29.406216
66.514634 -17.390293 -28.807099
66.935756 -20.618206 -38.812905
66.572895 -18.539632 -39.639381
67.158233 -19.033778 -38.564377
68.605743 -28.003225 -34.409408
69.083488 -28.464816 -33.452846
68.72612 -30.118445 -33.72028
68.480572 -25.851763 -35.150291
68.605743 -28.003225 -34.409408
68.260197 -23.759262 -35.889313
68.742737 -24.257095 -34.880997
68.480572 -25.851763 -35.150291
67.759563 -23.233142 -36.948254
68.021728 -21.638472 -36.678959
68.260197 -23.759262 -35.889313
67.206745 -22.7546 -37.971924
67.759563 -23.233142 -36.948254
66.935756 -20.618206 -38.812905
67.206745 -22.7546 -37.971924
67.999817 -31.348279 -22.909081
67.674435 -29.673123 -23.44644
67.773548 -37.937216 -19.304493
68.075489 -39.54608 -18.704111
67.496708 -36.27746 -19.899576
67.773548 -37.937216 -19.304493
68.372246 -37.16494 -20.248623
67.176914 -34.663712 -20.454334
67.496708 -36.27746 -19.899576
67.785134 -33.838348 -21.404247
67.176914 -34.663712 -20.454334
68.293216 -33.075697 -22.34073
67.785134 -33.838348 -21.404247
68.603489 -34.742532 -21.780189
68.818173 -32.252463 -23.285023
67.999817 -31.348279 -22.909081
68.293216 -33.075697 -22.34073
59.789032 -63.046619 4.792148
60.158485 -62.205648 3.814388
59.966183 -64.098116 4.776591
59.789032 -63.046619 4.792148
59.278263 -63.875574 5.786544
58.877594 -65.643414 6.803439
58.830223 -64.617245 6.808187
59.464398 -65.948597 5.737343
58.877594 -65.643414 6.803439
58.886578 -66.66494 6.769796
58.284327 -69.582062 6.654122
58.579456 -68.635231 6.694657
58.684923 -69.888001 5.547106
58.284327 -69.582062 6.654122
59.175991 -70.112892 4.471711
59.575789 -69.162651 4.530003
58.684923 -69.888001 5.547106
59.556967 -70.351731 3.383827
59.175991 -70.112892 4.471711
60.826807 -60.323097 1.924098
60.56299 -61.26191 2.855824
60.826807 -60.323097 1.924098
61.559024 -60.330723 0.941946
62.301184 -60.340372 -0.058827
63.048905 -60.237547 -1.054876
64.270023 -54.941725 -5.605875
64.290565 -56.258288 -4.754803
64.270023 -54.941725 -5.605875
64.975918 -54.540638 -6.611592
66.920887 -53.171753 -9.636184
66.321393 -53.651413 -8.624579
66.951241 -54.654003 -8.788684
66.909359 -51.623424 -10.474463
66.920887 -53.171753 -9.636184
67.539207 -52.626014 -10.638568
66.754971 -50.12002 -11.272184
66.909359 -51.623424 -10.474463
67.392628 -49.517712 -12.263472
66.619919 -48.560046 -12.058809
66.754971 -50.12002 -11.272184
69.222759 -49.741705 -24.250296
69.519207 -49.914661 -23.270924
69.548275 -47.85183 -24.961853
69.222759 -49.741705 -24.250296
69.77565 -45.969368 -25.636576
70.079281 -46.197007 -24.684101
69.548275 -47.85183 -24.961853
70.002888 -44.022112 -26.289099
69.77565 -45.969368 -25.636576
69.471882 -45.676935 -26.566851
69.424145 -41.447281 -28.726408
69.833481 -41.731401 -27.832779
69.289783 -43.445558 -28.113003
69.017464 -41.094204 -29.622351
69.561161 -39.380047 -29.342127
69.424145 -41.447281 -28.726408
68.5262 -40.793385 -30.476641
69.017464 -41.094204 -29.622351
68.666493 -38.665093 -31.112715
68.5262 -40.793385 -30.476641
55.803663 13.637057 -45.200432
56.738135 12.961604 -43.984893
55.59648 12.969424 -46.326763
55.803663 13.637057 -45.200432
55.467555 12.171143 -47.344803
55.59648 12.969424 -46.326763
56.462433 11.590549 -46.173397
55.281137 11.272466 -48.317261
54.415184 12.651342 -48.470627
55.467555 12.171143 -47.344803
54.762338 6.751159 -51.365131
53.770349 8.309332 -51.736892
54.89542 8.003259 -50.702084
54.671629 5.441883 -51.933743
54.762338 6.751159 -51.365131
55.7967 5.13581 -50.898933
56.772943 3.46844 -50.395897
57.776398 1.750687 -49.804814
63.102402 -6.512022 -44.69104
63.865879 -7.024119 -43.534927
63.823162 -8.431325 -43.897026
62.309971 -4.59905 -45.486637
63.102402 -6.512022 -44.69104
65.288898 -17.558986 -41.829262
65.939121 -18.034703 -40.754707
64.815555 -15.470367 -42.729996
65.288898 -17.558986 -41.829262
64.263527 -13.434532 -43.599659
64.975796 -13.90951 -42.491169
64.815555 -15.470367 -42.729996
63.640011 -11.404799 -44.487881
64.263527 -13.434532 -43.599659
63.741726 -9.896452 -44.206986
63.640011 -11.404799 -44.487881
3 0 50 48
3 0 52 50
3 188 53 189
3 1 56 54
3 2 60 58
3 2 62 60
3 2 64 62
3 3 190 191
3 3 192 193
3 5 194 196
3 194 65 195
3 194 195 196
3 6 68 66
3 6 70 68
3 6 72 70
3 7 75 73
3 7 77 75
3 8 79 78
3 8 81 79
3 4 84 82
3 9 87 85
3 9 89 87
3 9 91 89
3 197 94 198
3 199 198 92
3 197 198 199
3 201 200 94
3 10 97 96
3 10 98 97
3 10 100 98
3 203 202 101
3 204 105 205
3 206 205 103
3 204 205 206
3 207 106 208
3 11 109 107
3 13 110 49
3 13 111 110
3 13 113 111
3 15 114 51
3 15 209 211
3 211 210 114
3 209 210 211
3 16 212 214
3 212 115 213
3 212 213 214
3 16 116 115
3 17 119 117
3 19 120 55
3 19 121 120
3 20 124 122
3 22 125 57
3 22 126 125
3 22 128 126
3 24 215 217
3 217 216 129
3 215 216 217
3 25 218 220
3 220 219 59
3 218 219 220
3 25 221 222
3 25 223 224
3 26 130 61
3 26 131 130
3 26 133 131
3 28 134 63
3 28 135 134
3 225 137 226
3 30 227 229
3 227 138 228
3 227 228 229
3 30 139 138
3 230 140 231
3 230 231 232
3 233 141 234
3 235 234 140
3 233 234 235
3 237 236 141
3 12 142 108
3 31 143 67
3 31 144 143
3 31 145 144
3 32 146 69
3 32 147 146
3 32 149 147
3 34 150 71
3 34 151 150
3 14 152 112
3 35 153 74
3 35 154 153
3 35 155 154
3 36 156 76
3 36 157 156
3 238 158 239
3 240 159 241
3 242 160 243
3 244 243 159
3 242 243 244
3 18 245 247
3 247 246 118
3 245 246 247
3 37 248 250
3 250 249 80
3 248 249 250
3 37 251 252
3 29 161 136
3 38 162 83
3 38 163 162
3 21 164 123
3 39 165 86
3 39 166 165
3 39 167 166
3 40 168 88
3 40 169 168
3 40 170 169
3 41 171 90
3 41 172 171
3 23 173 127
3 42 174 93
3 42 175 174
3 42 176 175
3 43 177 95
3 43 178 177
3 253 179 254
3 256 255 179
3 44 257 258
3 44 259 260
3 44 261 263
3 261 180 262
3 261 262 263
3 45 181 99
3 45 182 181
3 27 183 132
3 46 184 102
3 46 185 184
3 46 264 266
3 266 265 185
3 264 265 266
3 33 186 148
3 47 187 104
3 47 267 269
3 269 268 187
3 267 268 269
3 48 49 11
3 50 49 48
3 50 13 49
3 50 51 13
3 52 51 50
3 52 15 51
3 53 270 271
3 53 272 274
3 272 16 273
3 272 273 274
3 54 55 17
3 56 55 54
3 56 19 55
3 275 57 276
3 277 276 20
3 275 276 277
3 278 57 279
3 280 22 281
3 282 281 57
3 280 281 282
3 284 283 22
3 58 59 24
3 60 59 58
3 60 25 59
3 60 61 25
3 62 61 60
3 62 26 61
3 62 63 26
3 64 63 62
3 64 28 63
3 285 30 286
3 65 287 288
3 65 289 290
3 66 67 12
3 68 67 66
3 68 31 67
3 68 69 31
3 70 69 68
3 70 32 69
3 70 71 32
3 72 71 70
3 72 34 71
3 292 291 14
3 73 293 295
3 293 74 294
3 293 294 295
3 75 74 73
3 75 35 74
3 75 76 35
3 77 76 75
3 77 36 76
3 78 296 298
3 298 297 18
3 296 297 298
3 79 299 301
3 301 300 78
3 299 300 301
3 79 302 303
3 79 304 306
3 304 80 305
3 304 305 306
3 81 80 79
3 81 37 80
3 82 83 29
3 84 83 82
3 84 38 83
3 85 86 21
3 87 86 85
3 87 39 86
3 87 88 39
3 89 88 87
3 89 40 88
3 89 90 40
3 91 90 89
3 91 41 90
3 92 93 23
3 94 93 92
3 94 42 93
3 94 95 42
3 307 95 308
3 309 308 94
3 307 308 309
3 310 43 311
3 312 311 95
3 310 311 312
3 96 313 314
3 97 315 317
3 317 316 96
3 315 316 317
3 97 318 319
3 97 320 321
3 98 322 324
3 324 323 97
3 322 323 324
3 98 325 327
3 325 44 326
3 325 326 327
3 98 99 44
3 100 99 98
3 100 45 99
3 101 102 27
3 328 102 329
3 330 329 101
3 328 329 330
3 331 46 332
3 333 332 102
3 331 332 333
3 335 334 46
3 103 104 33
3 105 104 103
3 105 47 104
3 106 336 337
3 106 338 340
3 338 3 339
3 338 339 340
3 107 108 5
3 109 108 107
3 109 12 108
3 49 109 11
3 110 109 49
3 110 12 109
3 110 66 12
3 111 66 110
3 111 6 66
3 111 112 6
3 113 112 111
3 113 14 112
3 51 113 13
3 114 113 51
3 114 14 113
3 114 341 343
3 343 342 14
3 341 342 343
3 345 344 114
3 115 346 347
3 115 348 349
3 115 350 352
3 350 73 351
3 350 351 352
3 116 73 115
3 116 7 73
3 117 353 355
3 353 118 354
3 353 354 355
3 119 118 117
3 119 18 118
3 55 119 17
3 120 119 55
3 120 18 119
3 120 78 18
3 121 78 120
3 121 8 78
3 122 123 4
3 124 123 122
3 124 21 123
3 57 124 20
3 125 124 57
3 125 21 124
3 125 85 21
3 126 85 125
3 126 9 85
3 126 127 9
3 128 127 126
3 128 23 127
3 356 128 357
3 358 357 22
3 356 357 358
3 359 128 360
3 361 23 362
3 363 362 128
3 361 362 363
3 364 92 365
3 366 365 23
3 364 365 366
3 367 92 368
3 370 369 92
3 129 371 372
3 374 373 129
3 59 375 377
3 377 376 24
3 375 376 377
3 379 378 59
3 61 380 382
3 382 381 25
3 380 381 382
3 130 383 385
3 385 384 61
3 383 384 385
3 130 386 387
3 130 388 390
3 388 96 389
3 388 389 390
3 131 96 130
3 131 10 96
3 131 132 10
3 133 132 131
3 133 27 132
3 63 133 26
3 134 133 63
3 134 27 133
3 134 101 27
3 135 101 134
3 135 391 393
3 393 392 101
3 391 392 393
3 394 136 395
3 396 395 1
3 394 395 396
3 137 397 399
3 397 136 398
3 397 398 399
3 137 29 136
3 400 137 401
3 138 402 404
3 402 137 403
3 402 403 404
3 138 29 137
3 138 82 29
3 139 82 138
3 139 4 82
3 405 30 406
3 405 406 407
3 140 408 409
3 140 410 412
3 410 30 411
3 410 411 412
3 140 139 30
3 141 139 140
3 141 4 139
3 141 122 4
3 413 122 414
3 415 414 141
3 413 414 415
3 416 20 417
3 418 417 122
3 416 417 418
3 419 20 420
3 422 421 20
3 108 65 5
3 142 65 108
3 142 423 425
3 425 424 65
3 423 424 425
3 67 142 12
3 143 142 67
3 143 426 428
3 428 427 142
3 426 427 428
3 143 429 430
3 144 431 433
3 433 432 143
3 431 432 433
3 144 434 435
3 144 436 438
3 436 129 437
3 436 437 438
3 145 129 144
3 145 24 129
3 69 145 31
3 146 145 69
3 146 24 145
3 146 58 24
3 147 58 146
3 147 2 58
3 147 148 2
3 149 148 147
3 149 33 148
3 71 149 32
3 150 149 71
3 150 33 149
3 150 103 33
3 151 103 150
3 151 439 441
3 441 440 103
3 439 440 441
3 112 72 6
3 152 72 112
3 152 34 72
3 442 152 443
3 444 443 14
3 442 443 444
3 445 152 446
3 447 34 448
3 449 448 152
3 447 448 449
3 450 151 451
3 452 451 34
3 450 451 452
3 453 151 454
3 456 455 151
3 457 5 458
3 74 459 460
3 153 461 463
3 463 462 74
3 461 462 463
3 153 464 465
3 153 466 467
3 154 468 470
3 470 469 153
3 468 469 470
3 154 471 473
3 471 5 472
3 471 472 473
3 154 107 5
3 155 107 154
3 155 11 107
3 76 155 35
3 156 155 76
3 156 11 155
3 156 48 11
3 157 48 156
3 157 0 48
3 474 117 475
3 158 476 478
3 476 117 477
3 476 477 478
3 158 17 117
3 479 158 480
3 159 481 483
3 481 158 482
3 481 482 483
3 159 17 158
3 159 54 17
3 160 54 159
3 160 1 54
3 484 160 485
3 486 160 487
3 488 1 489
3 490 489 160
3 488 489 490
3 492 491 1
3 118 493 494
3 496 495 118
3 498 497 18
3 80 499 500
3 502 501 80
3 136 56 1
3 161 56 136
3 161 19 56
3 83 161 29
3 162 161 83
3 162 19 161
3 162 121 19
3 163 121 162
3 163 8 121
3 123 84 4
3 164 84 123
3 164 38 84
3 86 164 21
3 165 164 86
3 165 38 164
3 165 163 38
3 166 163 165
3 166 8 163
3 166 81 8
3 167 81 166
3 167 37 81
3 88 167 39
3 168 167 88
3 168 37 167
3 168 503 505
3 505 504 37
3 503 504 505
3 169 506 508
3 508 507 168
3 506 507 508
3 169 509 510
3 169 511 513
3 511 53 512
3 511 512 513
3 170 53 169
3 170 16 53
3 90 170 40
3 171 170 90
3 171 16 170
3 171 116 16
3 172 116 171
3 172 7 116
3 127 91 9
3 173 91 127
3 173 41 91
3 93 173 23
3 174 173 93
3 174 41 173
3 174 172 41
3 175 172 174
3 175 7 172
3 175 77 7
3 176 77 175
3 176 36 77
3 95 176 42
3 177 176 95
3 177 36 176
3 177 157 36
3 178 157 177
3 178 0 157
3 514 43 515
3 516 43 517
3 518 178 519
3 520 519 43
3 518 519 520
3 179 521 523
3 521 178 522
3 521 522 523
3 179 0 178
3 179 52 0
3 524 52 525
3 526 525 179
3 524 525 526
3 527 15 528
3 529 528 52
3 527 528 529
3 530 15 531
3 533 532 15
3 180 534 535
3 180 536 537
3 99 180 44
3 181 180 99
3 181 538 540
3 540 539 180
3 538 539 540
3 181 541 543
3 541 106 542
3 541 542 543
3 182 106 181
3 182 3 106
3 132 100 10
3 183 100 132
3 183 45 100
3 102 183 27
3 184 183 102
3 184 45 183
3 184 182 45
3 185 182 184
3 185 3 182
3 185 544 546
3 546 545 3
3 544 545 546
3 549 548 185
3 547 548 549
3 551 550 46
3 148 64 2
3 186 64 148
3 186 28 64
3 104 186 33
3 187 186 104
3 187 28 186
3 187 135 28
3 552 135 553
3 554 553 187
3 552 553 554
3 556 555 135
3 557 105 558
3 559 105 560
3 561 47 562
3 563 562 105
3 561 562 563
3 564 47 565
3 567 566 47
