ply
format ascii 1.0
element vertex 357
property float x
property float y
property float z
element face 386
property list uchar int vertex_index
end_header
5.677126 -83.504761 33.015877
11.692596 -80.275421 13.229957
8.735958 -81.36293 23.037193
5.815357 -72.919754 19.305347
6.190922 -92.704819 48.064735
7.471224 -92.748863 38.200718
3.032101 -84.853073 42.467358
7.34086 -90.860718 27.094389
4.21475 -73.775299 23.895916
4.515465 -89.032967 45.267212
6.714296 -88.088348 35.528355
7.459536 -91.969917 32.741745
7.616501 -87.080727 30.301346
10.255133 -80.572342 18.037167
9.419134 -84.970367 19.708715
10.444981 -84.566612 14.727353
7.18257 -82.447838 28.067638
6.010986 -78.074486 25.932846
7.786041 -77.110931 21.148092
9.545931 -76.408653 16.37076
11.210724 -76.004349 11.750689
7.51008 -72.170807 14.760096
8.140327 -97.17942 40.841885
7.101486 -93.031792 43.308334
5.706755 -88.778198 40.523071
4.295427 -84.340294 37.818447
7.110027 -96.877975 35.336426
5.898642 -96.004669 29.476341
8.493141 -85.9263 24.966795
7.399645 -89.768486 21.516331
6.233511 -85.778282 34.251381
7.173073 -87.617065 32.937969
6.858175 -85.277519 31.72691
10.988001 -80.365158 15.598252
10.652824 -82.492058 16.381166
11.275173 -82.399796 13.976517
10.967567 -84.581116 12.393229
11.866972 -82.412079 11.671248
12.349901 -80.252419 10.952389
5.16156 -78.57592 28.30155
4.995184 -73.340508 21.601402
6.025917 -75.466576 22.555475
6.901375 -75.029121 20.209646
8.673855 -76.716248 18.750525
7.783739 -74.644501 17.867266
8.661585 -74.321655 15.545259
6.657803 -72.529419 17.019527
7.529099 -94.698624 47.03157
7.796413 -94.981133 44.643402
6.71456 -92.952507 45.722855
3.739765 -86.989021 43.85186
5.136475 -88.969788 42.922112
4.373508 -86.834389 41.523739
4.996691 -86.569115 39.152061
3.65202 -84.644409 40.159576
7.794975 -95.021973 39.551689
7.67944 -97.115387 38.146988
7.578369 -94.803078 36.840881
7.395464 -91.44001 29.926849
6.936024 -93.973526 31.166027
6.61009 -93.424889 28.261686
5.379431 -95.461411 26.502832
6.345728 -92.850952 25.362753
7.959454 -81.89019 25.556923
8.12248 -84.153305 26.579914
8.756145 -83.596909 23.988197
8.860514 -86.978836 17.986059
8.513998 -87.316498 20.585672
7.570206 -89.376381 18.839775
10.365566 -73.781815 11.044214
11.975588 -75.811897 9.552557
3.860821 -71.150742 20.724167
4.59869 -70.734322 18.477625
5.336012 -90.953468 46.68605
7.121656 -90.421913 36.848602
7.496826 -92.413979 35.508057
7.376453 -90.00457 34.199245
7.592466 -89.502556 31.49177
7.792007 -88.939346 28.748539
9.502956 -80.910912 20.524166
9.388737 -83.106056 21.409657
10.021233 -82.72757 18.866278
9.921095 -84.688408 17.171816
9.269831 -86.808395 15.49091
9.718979 -86.797546 13.117979
5.051495 -81.266029 31.815998
6.417688 -82.995758 30.55706
5.849586 -80.767258 29.417103
6.687803 -80.236717 26.992928
7.5474 -79.704712 24.548801
5.174555 -75.932617 24.893108
6.892941 -77.574409 23.546156
8.409924 -79.209854 22.093418
9.261288 -78.791458 19.639898
10.092686 -78.477974 17.206129
10.897852 -78.274887 14.813752
11.667635 -78.156342 12.485521
10.394873 -76.182777 14.030046
9.526091 -74.046936 13.263981
5.373304 -70.322235 16.250191
8.564241 -99.149055 41.986423
8.435499 -97.052574 43.409096
7.8794 -95.085442 42.153618
7.348665 -92.959129 40.802914
5.91964 -91.023575 44.33411
6.409452 -90.945534 41.91814
6.805901 -90.739799 39.423996
6.229452 -88.479393 38.059006
5.614471 -86.212662 36.728249
4.969105 -83.956734 35.437492
4.307615 -81.713531 34.186558
7.867287 -99.283676 39.347656
7.040302 -99.20649 36.569775
6.159559 -98.947586 33.672684
7.275431 -94.445335 34.036995
6.495386 -96.494522 32.434727
5.300972 -98.55024 30.688915
7.488762 -84.726822 29.165119
8.053608 -86.504288 27.636936
7.997351 -88.352051 25.99651
8.944983 -85.397148 22.315462
8.230999 -87.791672 23.265406
7.331318 -90.28318 24.279009
6.186977 -92.314491 22.509996
12.384439 -78.063843 10.242024
6.637818 -93.466995 48.703316
5.872675 -92.488343 49.213539
6.86001 -93.701721 47.548153
7.306907 -94.463898 48.186733
6.637818 -93.466995 48.703316
7.710064 -89.262673 17.558428
8.21536 -88.177608 18.412917
8.355218 -88.0639 17.131571
6.938175 -90.487873 17.966169
7.710064 -89.262673 17.558428
10.763047 -73.624207 9.974063
9.782216 -72.617997 10.719272
2.986152 -70.200737 21.45488
3.519137 -71.356365 21.851209
3.272147 -70.00103 20.348047
2.986152 -70.200737 21.45488
10.564155 -85.737533 11.63542
11.207334 -84.623261 11.287319
5.108104 -79.908123 30.033383
5.450541 -81.016644 30.616551
4.709059 -80.157509 31.23283
4.694653 -74.853958 24.394512
4.335235 -75.066478 25.53767
3.855333 -73.98782 25.039074
7.935873 -71.99804 13.652853
8.943879 -72.936104 12.904795
8.518085 -73.108871 14.012038
4.346618 -69.373856 17.012706
4.985997 -70.528278 17.363908
3.959312 -69.579899 18.126423
8.47919 -96.888855 44.630054
8.749498 -97.91909 43.945099
3.653123 -80.776336 34.735414
3.965758 -81.905998 35.357077
3.975361 -80.593616 33.581739
3.653123 -80.776336 34.735414
5.216767 -97.037483 28.568559
4.917931 -98.310269 29.174847
5.599807 -97.277455 30.082628
4.651463 -96.517361 25.569824
5.185517 -95.19508 25.031165
12.497846 -76.862545 8.82557
12.318656 -75.668602 8.501292
11.657037 -83.538742 10.926329
11.207334 -84.623261 11.287319
11.417269 -83.496598 12.032239
12.129791 -82.43187 10.575219
11.657037 -83.538742 10.926329
12.371255 -81.35204 10.21579
12.129791 -82.43187 10.575219
12.108436 -81.332249 11.311819
12.639541 -80.232574 9.866492
12.371255 -81.35204 10.21579
4.397244 -77.70443 28.912808
4.764091 -78.812454 29.475606
4.765462 -77.486542 27.759018
4.397244 -77.70443 28.912808
5.190175 -77.235825 26.574666
5.586273 -78.325203 27.117198
4.765462 -77.486542 27.759018
7.662756 -94.839878 45.837486
8.159647 -95.853135 45.247208
8.02599 -95.71188 46.441292
7.956899 -95.446281 47.608372
7.306907 -94.463898 48.186733
8.02599 -95.71188 46.441292
7.956899 -95.446281 47.608372
5.668665 -93.88985 24.461126
5.185517 -95.19508 25.031165
5.86258 -94.156182 25.932793
6.869339 -90.628231 19.291062
6.784059 -90.824284 20.62934
7.484925 -89.572433 20.178053
6.869339 -90.628231 19.291062
6.938175 -90.487873 17.966169
11.568058 -74.639248 9.228235
11.170577 -74.796856 10.298386
10.763047 -73.624207 9.974063
12.318656 -75.668602 8.501292
11.568058 -74.639248 9.228235
3.392556 -72.863095 24.564096
3.855333 -73.98782 25.039074
3.696101 -72.668644 23.437083
3.392556 -72.863095 24.564096
4.086318 -72.451248 22.289827
4.604967 -73.557904 22.748659
3.696101 -72.668644 23.437083
4.428002 -72.245625 21.162785
4.086318 -72.451248 22.289827
3.519137 -71.356365 21.851209
3.641082 -69.79282 19.224775
4.229756 -70.942532 19.600896
3.272147 -70.00103 20.348047
3.959312 -69.579899 18.126423
3.641082 -69.79282 19.224775
5.00488 -90.832436 47.841991
5.763467 -91.829144 47.375393
5.432335 -91.708111 48.531334
4.59352 -89.947136 47.132244
5.00488 -90.832436 47.841991
4.183246 -88.986885 46.422825
4.925738 -89.993218 45.976631
4.59352 -89.947136 47.132244
3.805719 -88.019703 45.710048
4.183246 -88.986885 46.422825
3.417868 -86.99773 45.002372
4.127615 -88.010994 44.559536
3.805719 -88.019703 45.710048
3.08511 -85.965912 44.303266
3.417868 -86.99773 45.002372
2.731279 -84.897937 43.611015
3.385933 -85.921047 43.159609
3.08511 -85.965912 44.303266
5.432335 -91.708111 48.531334
5.872675 -92.488343 49.213539
8.559876 -87.978679 15.883996
8.355218 -88.0639 17.131571
9.065172 -86.893616 16.738484
8.744498 -87.951427 14.669205
8.559876 -87.978679 15.883996
8.969072 -87.946003 13.48274
8.744498 -87.951427 14.669205
9.494405 -86.802971 14.304444
9.173458 -87.987076 12.339411
8.969072 -87.946003 13.48274
9.93986 -86.845748 11.997795
10.343273 -85.689331 12.755604
10.564155 -85.737533 11.63542
9.173458 -87.987076 12.339411
9.93986 -86.845748 11.997795
5.505573 -79.671589 28.859327
5.108104 -79.908123 30.033383
4.764091 -78.812454 29.475606
4.771959 -76.16489 26.054797
4.335235 -75.066478 25.53767
5.592771 -77.003551 25.412977
5.190175 -77.235825 26.574666
4.771959 -76.16489 26.054797
9.363616 -72.803543 11.794912
9.945828 -73.914376 12.154097
8.943879 -72.936104 12.904795
9.782216 -72.617997 10.719272
9.363616 -72.803543 11.794912
4.688391 -69.149796 15.928104
4.346618 -69.373856 17.012706
5.772396 -70.116356 15.153331
4.688391 -69.149796 15.928104
6.840784 -71.040642 14.408283
6.441692 -71.246521 15.505144
5.772396 -70.116356 15.153331
7.935873 -71.99804 13.652853
6.840784 -71.040642 14.408283
8.813869 -98.967331 43.233762
8.843715 -100.001621 42.435461
8.49987 -98.100815 42.69776
8.813869 -98.967331 43.233762
8.749498 -97.91909 43.945099
8.115956 -96.016853 44.026249
8.47919 -96.888855 44.630054
8.159647 -95.853135 45.247208
2.456996 -83.812935 42.935957
2.731279 -84.897937 43.611015
2.726283 -83.748115 41.798429
2.456996 -83.812935 42.935957
3.036243 -83.643783 40.644538
3.34206 -84.748741 41.313467
2.726283 -83.748115 41.798429
3.324871 -83.528309 39.499949
3.036243 -83.643783 40.644538
3.646575 -83.376251 38.329384
3.973724 -84.492351 38.989012
3.324871 -83.528309 39.499949
3.959664 -83.21938 37.173022
3.646575 -83.376251 38.329384
4.296503 -83.0276 35.982544
4.632266 -84.148514 36.627969
3.959664 -83.21938 37.173022
4.63836 -82.835133 34.812025
4.296503 -83.0276 35.982544
3.965758 -81.905998 35.357077
4.347302 -80.369865 32.396459
4.679555 -81.48978 33.001278
3.975361 -80.593616 33.581739
4.709059 -80.157509 31.23283
4.347302 -80.369865 32.396459
8.38662 -100.191757 41.164852
8.843715 -100.001621 42.435461
8.038142 -100.259068 39.845468
8.38662 -100.191757 41.164852
8.215764 -99.216365 40.66704
7.504908 -100.323071 38.495041
8.038142 -100.259068 39.845468
7.091416 -100.284478 37.1061
7.504908 -100.323071 38.495041
7.453794 -99.245083 37.958715
6.526241 -100.238236 35.681642
7.091416 -100.284478 37.1061
6.085869 -100.108784 34.233097
6.526241 -100.238236 35.681642
6.59993 -99.077038 35.121229
5.532951 -99.97596 32.748219
6.085869 -100.108784 34.233097
5.103657 -99.777287 31.256335
5.532951 -99.97596 32.748219
5.730265 -98.748913 32.180799
4.603375 -99.587735 29.731152
5.103657 -99.777287 31.256335
4.603375 -99.587735 29.731152
4.917931 -98.310269 29.174847
4.957161 -96.765854 27.081805
5.216767 -97.037483 28.568559
5.639036 -95.73304 27.989587
4.957161 -96.765854 27.081805
4.651463 -96.517361 25.569824
5.589289 -93.62162 23.034747
5.668665 -93.88985 24.461126
6.266352 -92.582722 23.936374
6.177725 -92.097286 21.126173
6.793311 -91.041488 22.013164
6.784059 -90.824284 20.62934
5.482885 -93.394264 21.600541
6.177725 -92.097286 21.126173
5.589289 -93.62162 23.034747
5.482885 -93.394264 21.600541
12.656811 -79.138286 9.511309
12.639541 -80.232574 9.866492
12.36717 -79.158131 10.597207
12.702271 -77.988518 9.170303
12.180014 -76.93787 9.897291
12.497846 -76.862545 8.82557
12.656811 -79.138286 9.511309
12.702271 -77.988518 9.170303
3 0 32 30
3 1 35 33
3 1 37 35
3 1 38 37
3 3 42 40
3 3 44 42
3 3 46 44
3 4 49 47
3 6 52 50
3 6 54 52
3 4 125 126
3 4 127 129
3 127 47 128
3 127 128 129
3 5 57 55
3 7 60 58
3 7 62 60
3 2 65 63
3 130 68 131
3 132 131 66
3 130 131 132
3 134 133 68
3 136 135 69
3 137 71 138
3 140 139 71
3 10 76 74
3 12 77 31
3 12 78 77
3 13 81 79
3 15 82 34
3 15 83 82
3 15 84 83
3 142 141 36
3 143 87 144
3 145 144 85
3 143 144 145
3 17 88 39
3 17 89 88
3 8 146 148
3 146 90 147
3 146 147 148
3 18 91 41
3 18 92 91
3 18 93 92
3 19 94 43
3 19 95 94
3 19 97 95
3 21 98 45
3 21 149 151
3 151 150 98
3 149 150 151
3 152 99 153
3 154 153 72
3 152 153 154
3 155 101 156
3 23 102 48
3 23 103 102
3 9 104 73
3 24 105 51
3 24 106 105
3 24 107 106
3 25 108 53
3 25 109 108
3 157 110 158
3 160 159 110
3 22 111 100
3 26 112 56
3 26 113 112
3 11 114 75
3 27 115 59
3 27 116 115
3 27 161 163
3 163 162 116
3 161 162 163
3 165 164 61
3 16 117 86
3 28 118 64
3 28 119 118
3 14 120 80
3 29 121 67
3 29 122 121
3 29 123 122
3 20 124 96
3 167 166 70
3 30 31 10
3 32 31 30
3 32 12 31
3 33 34 13
3 35 34 33
3 35 15 34
3 35 36 15
3 37 36 35
3 37 168 170
3 170 169 36
3 168 169 170
3 37 171 172
3 38 173 175
3 175 174 37
3 173 174 175
3 38 176 177
3 178 39 179
3 180 39 181
3 182 17 183
3 184 183 39
3 182 183 184
3 40 41 8
3 42 41 40
3 42 18 41
3 42 43 18
3 44 43 42
3 44 19 43
3 44 45 19
3 46 45 44
3 46 21 45
3 47 185 187
3 185 48 186
3 185 186 187
3 49 48 47
3 49 23 48
3 50 51 9
3 52 51 50
3 52 24 51
3 52 53 24
3 54 53 52
3 54 25 53
3 47 188 189
3 47 190 191
3 55 56 22
3 57 56 55
3 57 26 56
3 58 59 11
3 60 59 58
3 60 27 59
3 60 61 27
3 62 61 60
3 62 192 194
3 194 193 61
3 192 193 194
3 63 64 16
3 65 64 63
3 65 28 64
3 66 67 14
3 68 67 66
3 68 29 67
3 68 195 197
3 197 196 29
3 195 196 197
3 199 198 68
3 69 70 20
3 200 70 201
3 202 201 69
3 200 201 202
3 204 203 70
3 205 8 206
3 207 8 208
3 209 40 210
3 211 210 8
3 209 210 211
3 71 212 214
3 212 40 213
3 212 213 214
3 71 3 40
3 71 72 3
3 215 72 216
3 217 216 71
3 215 216 217
3 219 218 72
3 220 73 221
3 222 221 4
3 220 221 222
3 223 73 224
3 225 9 226
3 227 226 73
3 225 226 227
3 228 9 229
3 230 50 231
3 232 231 9
3 230 231 232
3 233 50 234
3 235 6 236
3 237 236 50
3 235 236 237
3 238 4 239
3 74 75 5
3 76 75 74
3 76 11 75
3 31 76 10
3 77 76 31
3 77 11 76
3 77 58 11
3 78 58 77
3 78 7 58
3 79 80 2
3 81 80 79
3 81 14 80
3 34 81 13
3 82 81 34
3 82 14 81
3 82 66 14
3 83 66 82
3 83 240 242
3 242 241 66
3 240 241 242
3 83 243 244
3 84 245 247
3 247 246 83
3 245 246 247
3 84 248 249
3 36 84 15
3 250 84 251
3 252 251 36
3 250 251 252
3 254 253 84
3 85 86 0
3 87 86 85
3 87 16 86
3 39 255 257
3 255 87 256
3 255 256 257
3 88 87 39
3 88 16 87
3 88 63 16
3 89 63 88
3 89 2 63
3 90 258 259
3 90 260 262
3 260 17 261
3 260 261 262
3 41 90 8
3 91 90 41
3 91 17 90
3 91 89 17
3 92 89 91
3 92 2 89
3 92 79 2
3 93 79 92
3 93 13 79
3 43 93 18
3 94 93 43
3 94 13 93
3 94 33 13
3 95 33 94
3 95 1 33
3 95 96 1
3 97 96 95
3 97 20 96
3 45 97 19
3 98 97 45
3 98 20 97
3 98 69 20
3 263 69 264
3 265 264 98
3 263 264 265
3 267 266 69
3 72 46 3
3 99 46 72
3 99 21 46
3 268 99 269
3 270 99 271
3 272 21 273
3 274 273 99
3 272 273 274
3 276 275 21
3 277 100 278
3 101 279 281
3 279 100 280
3 279 280 281
3 101 22 100
3 48 282 284
3 282 101 283
3 282 283 284
3 102 101 48
3 102 22 101
3 102 55 22
3 103 55 102
3 103 5 55
3 73 49 4
3 104 49 73
3 104 23 49
3 51 104 9
3 105 104 51
3 105 23 104
3 105 103 23
3 106 103 105
3 106 5 103
3 106 74 5
3 107 74 106
3 107 10 74
3 53 107 24
3 108 107 53
3 108 10 107
3 108 30 10
3 109 30 108
3 109 0 30
3 285 6 286
3 287 6 288
3 289 54 290
3 291 290 6
3 289 290 291
3 292 54 293
3 294 25 295
3 296 295 54
3 294 295 296
3 297 25 298
3 299 109 300
3 301 300 25
3 299 300 301
3 110 302 304
3 302 109 303
3 302 303 304
3 110 0 109
3 110 85 0
3 305 85 306
3 307 306 110
3 305 306 307
3 309 308 85
3 100 310 311
3 111 312 314
3 314 313 100
3 312 313 314
3 111 315 316
3 56 111 22
3 112 111 56
3 112 317 319
3 319 318 111
3 317 318 319
3 112 320 321
3 113 322 324
3 324 323 112
3 322 323 324
3 113 325 326
3 75 57 5
3 114 57 75
3 114 26 57
3 59 114 11
3 115 114 59
3 115 26 114
3 115 113 26
3 116 113 115
3 116 327 329
3 329 328 113
3 327 328 329
3 116 330 331
3 333 332 116
3 61 334 336
3 336 335 27
3 334 335 336
3 338 337 61
3 86 32 0
3 117 32 86
3 117 12 32
3 64 117 16
3 118 117 64
3 118 12 117
3 118 78 12
3 119 78 118
3 119 7 78
3 80 65 2
3 120 65 80
3 120 28 65
3 67 120 14
3 121 120 67
3 121 28 120
3 121 119 28
3 122 119 121
3 122 7 119
3 122 62 7
3 123 62 122
3 123 339 341
3 341 340 62
3 339 340 341
3 342 123 343
3 344 343 29
3 342 343 344
3 345 123 346
3 348 347 123
3 96 38 1
3 124 38 96
3 124 349 351
3 351 350 38
3 349 350 351
3 70 124 20
3 352 124 353
3 354 353 70
3 352 353 354
3 356 355 124
