ply
format ascii 1.0
element vertex 210
property float x
property float y
property float z
element face 221
property list uchar int vertex_index
end_header
50.343964 -24.053705 -44.472748
44.564934 -14.396937 -48.972588
43.312828 -29.997295 -40.771652
48.7052 -39.047516 -38.343628
40.759132 -17.216223 -46.7789
40.42691 -10.098624 -51.203629
44.509468 -7.845903 -53.321777
48.652172 -13.035687 -50.721069
48.019768 -19.424166 -46.47538
51.798691 -19.070889 -47.735252
40.611763 -25.176603 -42.562027
44.215782 -21.740879 -44.59124
47.157059 -26.514105 -42.666977
45.897682 -34.784538 -39.347313
49.998222 -30.596691 -41.556778
53.116867 -34.006912 -40.940651
53.314064 -25.9643 -44.481537
38.532909 -11.693174 -49.936104
38.214085 -8.314295 -52.022812
42.231697 -5.630115 -54.341637
50.38868 -15.963767 -49.255768
39.07328 -22.954849 -43.478905
42.617706 -15.655169 -47.906044
42.562679 -19.397587 -45.693481
44.449196 -17.957239 -46.731239
46.114655 -20.39168 -45.563759
46.39666 -16.856518 -47.716003
42.610931 -34.42963 -39.067772
43.783775 -36.892036 -38.397232
44.591019 -32.435593 -39.99942
46.605057 -30.512575 -40.959686
45.237663 -28.174717 -41.706978
50.188629 -40.955147 -37.89949
52.52169 -38.320175 -39.163589
50.981987 -36.570805 -39.559097
51.532455 -32.34676 -41.245041
49.463837 -34.70573 -39.938622
39.004814 -19.001532 -45.594521
38.810307 -15.249569 -47.765343
40.634586 -13.556295 -49.001656
42.561958 -12.130429 -50.161995
41.46492 -31.926727 -39.816208
47.76585 -43.526314 -36.786285
40.171398 -6.81649 -53.275002
42.423847 -8.800755 -52.351021
44.579414 -11.037175 -51.214668
46.669998 -10.319242 -52.094658
46.582993 -13.510052 -49.936409
48.381298 -16.176893 -48.58709
49.908539 -18.966032 -47.230629
49.37973 -21.944212 -45.342743
51.064526 -21.803055 -45.905525
40.278042 -29.460024 -40.619797
42.007309 -27.548801 -41.640709
40.76329 -21.090508 -44.617455
42.36792 -23.364998 -43.595993
43.844166 -25.757675 -42.603394
45.735489 -24.155594 -43.555168
47.609161 -22.835096 -44.495384
48.946014 -25.089565 -43.635941
46.360641 -41.466644 -37.282364
45.028755 -39.250694 -37.808044
47.267494 -36.993561 -38.808044
48.002747 -32.695152 -40.381096
48.549812 -28.677727 -41.998917
50.286743 -26.899292 -43.138069
53.401413 -29.860064 -42.727844
51.785751 -28.391851 -42.918594
51.682976 -24.862015 -44.499268
52.790474 -22.378202 -46.153778
37.108441 -7.544988 -52.289772
37.294765 -9.19403 -51.329624
38.220825 -21.945087 -43.903602
38.291006 -23.93828 -42.856869
37.782673 -14.384903 -48.170422
37.955877 -16.192993 -47.109238
40.608193 -32.923086 -39.292534
41.103676 -34.198176 -38.951168
47.232706 -45.809017 -36.025993
48.48966 -44.480598 -36.533787
40.036225 -5.244125 -54.185212
39.030862 -5.950161 -53.599216
47.661085 -11.677464 -51.407864
47.740196 -10.152228 -52.404758
48.731283 -11.510451 -51.717964
40.444902 -27.318314 -41.590912
39.627731 -28.282311 -41.030678
39.794592 -26.140601 -42.001793
45.192625 -42.657714 -36.798428
45.841721 -43.75898 -36.53725
53.90611 -34.803978 -40.746914
53.608522 -36.96061 -39.858383
52.819278 -36.163544 -40.05212
54.080625 -32.667797 -41.691658
53.90611 -34.803978 -40.746914
53.25914 -31.933488 -41.834248
54.222898 -30.594373 -42.585254
54.080625 -32.667797 -41.691658
53.052269 -24.171251 -45.317658
53.687967 -22.840665 -46.163483
53.949763 -24.633713 -45.327362
37.454178 -10.88347 -50.28627
37.643974 -12.606706 -49.255802
38.373497 -10.003735 -50.979458
37.454178 -10.88347 -50.28627
37.294765 -9.19403 -51.329624
42.123943 -4.101809 -55.173298
41.066374 -4.650938 -54.718529
43.304638 -5.206075 -54.745823
42.123943 -4.101809 -55.173298
44.443523 -6.313969 -54.235893
43.370582 -6.738009 -53.831707
43.304638 -5.206075 -54.745823
49.70089 -13.002866 -50.978184
48.731283 -11.510451 -51.717964
50.569143 -14.466906 -50.245533
49.520426 -14.499727 -49.988419
49.70089 -13.002866 -50.978184
51.39799 -16.076192 -49.446942
50.569143 -14.466906 -50.245533
52.102995 -17.629753 -48.686684
51.093685 -17.517328 -48.49551
51.39799 -16.076192 -49.446942
39.025351 -25.029724 -42.460232
38.291006 -23.93828 -42.856869
39.842522 -24.065726 -43.020466
39.794592 -26.140601 -42.001793
39.025351 -25.029724 -42.460232
43.197353 -35.660833 -38.732502
42.765923 -37.954433 -37.92239
42.179501 -36.72323 -38.25766
51.355159 -39.637661 -38.53154
52.102129 -40.52706 -38.293582
50.935598 -41.844545 -37.661533
54.169047 -26.587875 -44.40495
53.949763 -24.633713 -45.327362
38.053131 -18.068975 -46.023827
38.186592 -19.968428 -44.96141
38.907561 -17.12555 -46.679932
38.053131 -18.068975 -46.023827
37.955877 -16.192993 -47.109238
38.671608 -13.471372 -48.850724
37.782673 -14.384903 -48.170422
37.643974 -12.606706 -49.255802
41.676682 -35.449627 -38.57695
42.179501 -36.72323 -38.25766
42.037926 -33.178179 -39.44199
41.676682 -35.449627 -38.57695
41.103676 -34.198176 -38.951168
49.701049 -43.195015 -37.090389
50.935598 -41.844545 -37.661533
48.977239 -42.24073 -37.342888
49.701049 -43.195015 -37.090389
48.48966 -44.480598 -36.533787
38.052206 -6.699063 -52.973122
37.108441 -7.544988 -52.289772
39.192741 -7.565392 -52.648907
38.052206 -6.699063 -52.973122
39.030862 -5.950161 -53.599216
41.201548 -6.223302 -53.808319
40.036225 -5.244125 -54.185212
41.066374 -4.650938 -54.718529
45.586681 -7.549158 -53.679008
44.443523 -6.313969 -54.235893
46.666946 -8.785827 -53.065449
47.740196 -10.152228 -52.404758
45.589733 -9.082572 -52.708218
45.586681 -7.549158 -53.679008
46.666946 -8.785827 -53.065449
39.484713 -30.449345 -40.048435
39.627731 -28.282311 -41.030678
40.014753 -31.689735 -39.694328
39.484713 -30.449345 -40.048435
40.871481 -30.693376 -40.218002
40.608193 -32.923086 -39.292534
40.014753 -31.689735 -39.694328
39.039047 -20.978191 -44.536713
38.220825 -21.945087 -43.903602
38.186592 -19.968428 -44.96141
46.544325 -44.788815 -36.289211
47.232706 -45.809017 -36.025993
47.063246 -42.496479 -37.034324
46.544325 -44.788815 -36.289211
45.841721 -43.75898 -36.53725
43.307876 -39.192916 -37.628391
42.765923 -37.954433 -37.92239
43.930366 -40.372246 -37.333797
43.307876 -39.192916 -37.628391
44.406265 -38.071365 -38.102638
44.526682 -41.54974 -37.061267
43.930366 -40.372246 -37.333797
45.694698 -40.358669 -37.545204
45.192625 -42.657714 -36.798428
44.526682 -41.54974 -37.061267
53.281326 -39.146476 -38.927433
52.102129 -40.52706 -38.293582
53.281326 -39.146476 -38.927433
53.608522 -36.96061 -39.858383
54.212721 -28.535757 -43.528103
54.222898 -30.594373 -42.585254
53.357738 -27.912182 -43.604691
54.169047 -26.587875 -44.40495
54.212721 -28.535757 -43.528103
52.752505 -19.350665 -47.841385
52.102995 -17.629753 -48.686684
53.248396 -21.004322 -47.050647
53.687967 -22.840665 -46.163483
52.294583 -20.724546 -46.944515
52.752505 -19.350665 -47.841385
53.248396 -21.004322 -47.050647
3 70 18 71
3 72 21 73
3 1 24 22
3 1 26 24
3 2 29 27
3 2 31 29
3 3 34 32
3 3 36 34
3 74 38 75
3 5 39 17
3 5 40 39
3 76 41 77
3 78 42 79
3 80 43 81
3 6 44 19
3 6 45 44
3 7 82 84
3 82 46 83
3 82 83 84
3 7 47 46
3 7 48 47
3 9 49 20
3 9 51 49
3 10 85 87
3 85 52 86
3 85 86 87
3 10 53 52
3 4 54 37
3 11 55 23
3 11 56 55
3 11 57 56
3 8 58 25
3 8 50 58
3 88 60 89
3 13 61 28
3 13 62 61
3 13 63 62
3 12 64 30
3 12 59 64
3 15 90 92
3 92 91 33
3 90 91 92
3 15 93 94
3 15 95 97
3 95 66 96
3 95 96 97
3 14 67 35
3 14 65 67
3 16 98 100
3 98 69 99
3 98 99 100
3 16 68 69
3 101 17 102
3 18 103 105
3 103 17 104
3 103 104 105
3 18 5 17
3 106 19 107
3 108 19 109
3 110 6 111
3 112 111 19
3 110 111 112
3 113 7 114
3 115 20 116
3 117 116 7
3 115 116 117
3 118 20 119
3 120 9 121
3 122 121 20
3 120 121 122
3 21 123 124
3 21 125 127
3 125 10 126
3 125 126 127
3 22 23 4
3 24 23 22
3 24 11 23
3 24 25 11
3 26 25 24
3 26 8 25
3 27 128 130
3 128 28 129
3 128 129 130
3 29 28 27
3 29 13 28
3 29 30 13
3 31 30 29
3 31 12 30
3 32 131 133
3 131 33 132
3 131 132 133
3 34 33 32
3 34 15 33
3 34 35 15
3 36 35 34
3 36 14 35
3 134 16 135
3 136 37 137
3 38 138 140
3 138 37 139
3 138 139 140
3 38 4 37
3 17 141 143
3 141 38 142
3 141 142 143
3 39 38 17
3 39 4 38
3 39 22 4
3 40 22 39
3 40 1 22
3 144 27 145
3 41 146 148
3 146 27 147
3 146 147 148
3 41 2 27
3 149 32 150
3 42 151 153
3 151 32 152
3 151 152 153
3 42 3 32
3 154 18 155
3 43 156 158
3 156 18 157
3 156 157 158
3 43 5 18
3 19 159 161
3 159 43 160
3 159 160 161
3 44 43 19
3 44 5 43
3 44 40 5
3 45 40 44
3 45 1 40
3 162 6 163
3 46 164 165
3 46 166 168
3 166 6 167
3 166 167 168
3 46 45 6
3 47 45 46
3 47 1 45
3 47 26 1
3 48 26 47
3 48 8 26
3 20 48 7
3 49 48 20
3 49 8 48
3 49 50 8
3 51 50 49
3 51 0 50
3 52 169 170
3 52 171 172
3 52 173 175
3 173 41 174
3 173 174 175
3 53 41 52
3 53 2 41
3 37 176 178
3 176 21 177
3 176 177 178
3 54 21 37
3 54 10 21
3 23 54 4
3 55 54 23
3 55 10 54
3 55 53 10
3 56 53 55
3 56 2 53
3 56 31 2
3 57 31 56
3 57 12 31
3 25 57 11
3 58 57 25
3 58 12 57
3 58 59 12
3 50 59 58
3 50 0 59
3 179 42 180
3 60 181 183
3 181 42 182
3 181 182 183
3 60 3 42
3 28 184 185
3 61 186 188
3 188 187 28
3 186 187 188
3 61 189 190
3 61 191 193
3 191 60 192
3 191 192 193
3 62 60 61
3 62 3 60
3 62 36 3
3 63 36 62
3 63 14 36
3 30 63 13
3 64 63 30
3 64 14 63
3 64 65 14
3 59 65 64
3 59 0 65
3 33 194 195
3 197 196 33
3 66 198 199
3 66 200 202
3 200 16 201
3 200 201 202
3 35 66 15
3 67 66 35
3 67 16 66
3 67 68 16
3 65 68 67
3 65 0 68
3 203 9 204
3 69 205 206
3 69 207 209
3 207 9 208
3 207 208 209
3 69 51 9
3 68 51 69
3 68 0 51
