ply
format ascii 1.0
element vertex 451
property float x
property float y
property float z
element face 469
property list uchar int vertex_index
end_header
47.481964 55.660614 9.429482
41.602715 28.147312 47.305573
43.255672 60.191452 17.780977
47.382755 49.420944 20.558455
41.869514 66.840141 6.497102
50.027161 26.796013 21.242685
48.745644 38.519024 22.287096
44.106739 30.925568 29.654217
42.631516 35.200233 38.404007
42.493549 23.39209 37.610298
50.653206 52.823265 6.016113
50.140705 50.16684 11.410587
48.406494 44.047676 21.701973
46.884094 40.516239 26.13467
46.340649 34.813583 26.035645
44.948124 36.763996 30.142876
44.720909 61.353134 7.80862
47.733593 58.43811 3.891124
50.848164 55.213806 0.796498
41.669304 31.75206 42.74926
41.93494 29.293617 38.120834
41.900845 25.677834 42.492928
44.979881 58.199158 13.505424
47.392868 52.646004 15.071603
45.585632 54.836746 19.165779
42.386566 63.672859 12.174652
52.520584 30.276848 18.214123
49.430107 47.257195 16.74044
50.830978 41.86845 18.112537
51.68708 36.214241 18.695045
49.003517 32.695896 22.11702
46.440998 28.920731 25.421843
44.6675 25.12891 28.94096
43.082855 32.981133 34.036331
42.666706 27.074474 33.463482
49.033916 54.270821 7.620022
50.424339 51.525711 8.702747
48.842583 52.882248 10.385209
47.054077 43.264755 25.951427
46.344368 41.441864 28.136124
45.945705 38.656303 28.17531
45.500362 39.588192 30.215439
46.10173 58.496719 8.569998
46.156059 59.948723 5.767693
47.599457 57.083847 6.636743
49.21418 55.597275 4.893744
41.269619 31.211796 47.277161
41.415874 32.994823 44.973583
41.532097 29.984612 45.014
41.663536 28.72406 42.665955
41.773361 26.914848 44.926552
44.051758 59.285179 15.655032
45.254967 56.539124 16.355444
44.472519 57.545998 18.461472
41.937489 62.696487 17.135395
41.416176 64.481979 14.381429
42.779198 61.959511 14.998921
43.708401 60.979111 12.813101
51.246685 28.554562 19.715551
47.400711 51.061012 17.853722
48.479141 49.934349 15.912949
48.273987 48.370178 18.598305
48.634762 41.317398 22.081242
49.487617 42.996387 19.855288
49.849152 40.243969 20.264503
51.302597 39.084446 18.528675
50.115639 37.412338 20.46846
50.372292 34.499447 20.441961
48.831932 35.640728 22.30007
45.1637 32.878006 27.838999
46.241714 31.870934 25.780741
45.091576 29.927448 27.518105
45.417255 27.011429 27.138054
44.146236 27.986107 29.308762
43.667107 35.885162 34.221466
42.849148 34.068951 36.237473
41.98217 26.302944 37.876671
42.183006 28.146427 35.782478
42.406937 25.209381 35.495293
43.143326 24.210255 33.149483
43.17099 22.404484 35.21022
42.497871 60.875114 19.803398
43.763401 58.390656 20.494297
48.956116 25.034042 22.833857
47.998009 46.738068 21.181267
47.602875 45.034821 23.635769
47.712021 42.319275 23.984358
47.664051 39.548065 24.175926
47.55793 36.702671 24.199413
46.602646 37.701374 26.159897
45.500366 35.799255 28.068184
44.426762 33.868855 29.944267
43.325466 64.162605 7.12748
43.236031 65.61544 4.317026
44.710564 62.817429 5.003382
46.237007 61.319458 3.012003
47.840256 59.709091 1.199312
49.400986 58.020561 -0.391914
49.349297 56.851738 2.221659
50.803993 54.055511 3.376315
41.76054 34.697716 42.708656
42.039482 33.480167 40.541939
42.208755 32.279522 38.309364
41.804947 30.504593 40.453178
41.773277 27.48304 40.275631
42.102604 24.490269 40.044384
46.115215 56.978485 11.408318
47.411415 54.179344 12.251036
46.213799 55.405891 14.260533
46.381416 53.785728 17.094807
46.568295 52.119667 19.874372
44.907078 55.773071 21.203627
45.900391 53.096077 21.903383
40.973419 66.196777 11.571612
42.090843 65.306976 9.334266
43.469826 62.611221 9.963493
44.800854 59.808296 10.647892
53.748253 31.934479 16.699427
48.6591 51.436806 13.161805
49.812008 48.745773 14.103502
50.824913 46.077713 15.017756
48.971504 45.693344 19.28285
50.215656 44.581711 17.495516
51.668999 43.392387 15.830882
53.316307 34.914661 16.928873
52.063438 33.266865 18.587446
50.717403 31.530136 20.182882
49.370773 29.72604 21.753304
47.515602 33.785416 24.056511
47.664276 30.82642 23.761881
48.11718 27.883595 23.342209
47.044922 26.035748 24.990494
44.580788 37.728836 32.228622
43.965302 34.865219 32.081818
43.463287 31.937126 31.832502
42.383976 31.123585 36.042267
42.692039 30.025478 33.770416
43.250546 28.983967 31.520128
43.478298 26.073994 31.181404
44.250248 23.296688 30.846075
41.826408 26.214951 49.577492
42.08939 25.054958 47.19812
42.283432 23.861576 44.74411
42.520878 22.698425 42.262932
46.134966 41.8921 29.134839
46.454125 42.804922 28.036137
45.712963 40.965263 30.174497
45.922365 40.515028 29.175781
46.134966 41.8921 29.134839
51.032062 26.217745 20.166201
51.641824 27.09702 19.402635
50.636923 27.675287 20.479118
41.773342 67.548451 5.08556
41.078807 68.071911 6.191822
42.830608 36.611515 38.384784
42.470253 35.780475 39.45459
43.014798 36.069316 37.365654
42.830608 36.611515 38.384784
42.740332 34.634592 37.32074
43.123614 35.503675 36.282387
43.014798 36.069316 37.365654
42.758572 59.961273 21.08466
42.100431 61.091842 20.723623
42.100431 61.091842 20.723623
41.804298 62.009201 19.480682
49.587177 23.695866 22.556214
48.535683 24.167654 23.676808
51.32963 51.467895 6.621462
51.410527 52.074478 5.329256
50.930548 49.501248 10.626421
51.072365 50.180683 9.272502
50.282522 50.846276 10.056667
50.732839 48.829819 11.931886
50.930548 49.501248 10.626421
47.307836 45.5014 24.624564
47.43819 46.378708 23.394024
51.410527 52.074478 5.329256
51.48592 52.690601 4.009357
50.7286 53.439388 4.696214
44.563816 56.172207 22.161874
44.33524 57.081863 20.848962
43.991978 57.480999 21.807209
46.006971 52.208054 23.221663
45.585053 53.534558 22.880384
46.300922 51.75148 22.23357
46.006971 52.208054 23.221663
53.385318 29.601731 17.200747
53.999153 30.430546 16.443399
53.134418 31.105663 17.456775
51.586565 41.25959 17.288245
52.005575 42.021558 16.147417
51.249989 42.630419 16.971709
52.279858 37.020367 17.77055
52.087616 38.455469 17.687365
51.494839 37.649344 18.61186
52.501694 35.564451 17.811959
53.094471 36.370576 16.887463
52.279858 37.020367 17.77055
45.449517 24.671711 27.835286
45.824394 25.61297 26.933833
45.042378 26.070169 28.039507
45.203032 23.787325 28.758858
45.449517 24.671711 27.835286
43.191958 66.285358 2.926596
43.978218 64.900078 3.277452
50.804263 55.749245 -0.461906
50.080674 57.152622 -1.056112
50.124575 56.617183 0.202292
44.421934 38.219357 33.256714
44.858046 39.122181 32.232143
44.22554 22.412492 31.849391
43.696787 23.753471 31.997779
43.672079 22.869276 33.001095
44.928131 22.020858 30.689526
44.22554 22.412492 31.849391
41.978159 25.192473 50.67411
41.610703 26.745459 50.699425
42.47296 23.536241 47.093304
42.315416 24.090359 48.314605
42.56998 22.93955 45.866298
42.186411 24.458267 45.971115
42.47296 23.536241 47.093304
43.069016 21.288832 42.133241
42.850315 21.806295 43.380806
42.717083 22.158508 41.026173
43.069016 21.288832 42.133241
46.808979 43.716368 26.943789
47.033437 44.616367 25.782393
46.699223 42.35331 27.043775
46.808979 43.716368 26.943789
46.454125 42.804922 28.036137
41.342747 32.103309 46.125372
41.186501 33.58839 46.028082
41.113373 32.696877 47.179871
41.676833 63.589233 15.758412
40.954756 64.733165 15.454781
41.215412 63.840419 16.831764
52.194422 27.926617 18.666984
52.831372 28.78776 17.916269
51.883634 29.415705 18.964837
52.194422 27.926617 18.666984
51.641824 27.09702 19.402635
51.449087 54.37981 0.223137
51.517916 53.843273 1.454743
43.532593 36.411781 35.274383
43.965094 37.297519 34.253135
43.258128 34.977057 35.22947
43.532593 36.411781 35.274383
43.123614 35.503675 36.282387
43.685911 21.96639 34.031464
43.672079 22.869276 33.001095
43.157158 23.30737 34.179851
43.391337 58.719044 21.430109
43.130636 59.632885 20.148848
42.758572 59.961273 21.08466
43.991978 57.480999 21.807209
43.391337 58.719044 21.430109
41.524107 62.919888 18.14668
41.215412 63.840419 16.831764
42.21768 61.785801 18.469397
41.524107 62.919888 18.14668
41.804298 62.009201 19.480682
49.994867 24.507814 21.733936
50.53039 25.388799 20.93835
49.491639 25.915028 22.038271
49.994867 24.507814 21.733936
49.587177 23.695866 22.556214
51.215197 50.819119 7.964779
51.32963 51.467895 6.621462
50.538773 52.174488 7.35943
51.215197 50.819119 7.964779
51.072365 50.180683 9.272502
47.635757 47.230331 22.166773
47.690382 48.079506 20.869861
47.328131 48.57177 21.855367
47.800442 45.886444 22.408518
47.635757 47.230331 22.166773
47.43819 46.378708 23.394024
47.328476 44.149788 24.793598
47.307836 45.5014 24.624564
47.033437 44.616367 25.782393
44.715485 63.501072 3.62063
43.978218 64.900078 3.277452
43.973298 64.216435 4.660204
45.478707 62.752086 2.624941
44.715485 63.501072 3.62063
45.473785 62.068444 4.007693
46.265026 61.956024 1.658101
45.478707 62.752086 2.624941
47.06665 61.150841 0.751756
46.265026 61.956024 1.658101
47.038631 60.514274 2.105657
47.856956 60.294609 -0.120175
47.06665 61.150841 0.751756
48.620621 58.864826 0.403699
48.637321 59.450344 -0.915788
47.856956 60.294609 -0.120175
51.49583 53.264126 2.744651
51.517916 53.843273 1.454743
50.826078 54.634659 2.086406
51.49583 53.264126 2.744651
51.48592 52.690601 4.009357
41.349306 34.44334 44.874014
41.186501 33.58839 46.028082
41.521639 35.294787 43.741551
41.349306 34.44334 44.874014
41.588207 33.846269 43.841119
41.774622 36.110106 42.609928
41.521639 35.294787 43.741551
42.034765 35.529217 41.606915
41.774622 36.110106 42.609928
42.174236 34.920443 40.523556
42.034765 35.529217 41.606915
41.900011 34.088942 41.625298
42.335499 34.3402 39.472973
42.470253 35.780475 39.45459
42.174236 34.920443 40.523556
45.088396 54.873055 22.530506
44.563816 56.172207 22.161874
45.403734 54.434574 21.553505
45.088396 54.873055 22.530506
45.585053 53.534558 22.880384
46.634874 51.263275 21.219065
46.234343 52.607872 20.888877
46.300922 51.75148 22.23357
47.042105 49.913913 21.561106
46.975525 50.770305 20.216414
46.634874 51.263275 21.219065
47.328131 48.57177 21.855367
47.042105 49.913913 21.561106
41.23875 67.325462 7.6153
41.078807 68.071911 6.191822
40.668175 65.629989 14.086135
40.954756 64.733165 15.454781
40.446797 66.487389 12.681227
40.668175 65.629989 14.086135
41.194797 65.339378 12.97652
40.19355 67.337909 11.278004
40.446797 66.487389 12.681227
40.790702 67.00378 10.152555
40.19355 67.337909 11.278004
41.349414 66.55888 9.033882
40.790702 67.00378 10.152555
41.532131 65.751877 10.452939
41.980179 66.073559 7.915684
41.23875 67.325462 7.6153
41.349414 66.55888 9.033882
41.029941 31.77955 48.339398
41.113373 32.696877 47.179871
41.276463 30.262791 48.427799
41.029941 31.77955 48.339398
41.44301 28.730549 48.442006
41.436167 29.679554 47.291367
41.276463 30.262791 48.427799
54.502098 31.215063 15.732157
54.289467 32.720707 15.919466
54.502098 31.215063 15.732157
53.999153 30.430546 16.443399
53.385318 29.601731 17.200747
52.831372 28.78776 17.916269
51.032062 26.217745 20.166201
50.53039 25.388799 20.93835
50.568491 48.119286 13.278344
50.732839 48.829819 11.931886
49.976356 49.456306 12.757044
51.074944 46.785256 13.73547
50.568491 48.119286 13.278344
50.318461 47.411743 14.560629
51.588287 45.449965 14.227999
51.074944 46.785256 13.73547
52.01033 44.107301 14.634563
51.588287 45.449965 14.227999
51.246956 44.73505 15.424319
52.433205 42.752798 15.054136
52.01033 44.107301 14.634563
52.433205 42.752798 15.054136
52.005575 42.021558 16.147417
51.822374 39.867588 17.496314
51.586565 41.25959 17.288245
51.066788 40.476448 18.320606
51.822374 39.867588 17.496314
52.087616 38.455469 17.687365
53.854011 35.687952 16.055447
53.094471 36.370576 16.887463
54.073494 34.210798 16.034188
53.854011 35.687952 16.055447
53.53228 33.42457 16.81415
54.289467 32.720707 15.919466
54.073494 34.210798 16.034188
47.580086 24.668507 24.755127
48.535683 24.167654 23.676808
48.000519 25.534895 23.912176
46.638227 25.12513 25.860053
46.231088 26.523589 26.064274
45.824394 25.61297 26.933833
47.580086 24.668507 24.755127
46.638227 25.12513 25.860053
42.4566 66.9361 3.995522
41.773342 67.548451 5.08556
42.552773 66.22779 5.407064
42.4566 66.9361 3.995522
43.191958 66.285358 2.926596
49.368321 58.55339 -1.670131
48.637321 59.450344 -0.915788
49.368321 58.55339 -1.670131
50.080674 57.152622 -1.056112
50.804263 55.749245 -0.461906
51.449087 54.37981 0.223137
45.317833 40.051859 31.225552
45.712963 40.965263 30.174497
45.040575 38.658514 31.222031
45.317833 40.051859 31.225552
44.858046 39.122181 32.232143
44.123947 36.806999 33.225044
44.421934 38.219357 33.256714
43.965094 37.297519 34.253135
44.994406 22.871214 29.711416
45.203032 23.787325 28.758858
44.458874 24.212799 29.893518
44.994406 22.871214 29.711416
44.928131 22.020858 30.689526
41.554857 27.764368 49.577965
41.610703 26.745459 50.699425
41.714562 27.181131 48.441533
41.44301 28.730549 48.442006
41.554857 27.764368 49.577965
42.183926 24.670355 49.504292
41.978159 25.192473 50.67411
41.957899 25.634954 48.387806
42.183926 24.670355 49.504292
42.315416 24.090359 48.314605
42.731592 22.38787 44.621395
42.56998 22.93955 45.866298
42.402155 23.28 43.503521
42.731592 22.38787 44.621395
42.850315 21.806295 43.380806
42.507946 23.05443 39.916899
42.311741 23.594347 41.153658
42.717083 22.158508 41.026173
42.703418 22.50534 38.699855
42.298077 23.94118 38.827341
42.507946 23.05443 39.916899
43.025623 22.024634 37.478424
42.703418 22.50534 38.699855
43.364344 21.530831 36.278385
42.83227 22.898287 36.410259
43.025623 22.024634 37.478424
43.847662 21.115606 35.0778
43.364344 21.530831 36.278385
43.685911 21.96639 34.031464
43.847662 21.115606 35.0778
3 0 37 35
3 144 39 145
3 146 41 147
3 148 147 39
3 146 147 148
3 0 44 42
3 0 35 44
3 1 48 46
3 1 50 48
3 2 53 51
3 2 56 54
3 2 51 56
3 5 149 151
3 151 150 58
3 149 150 151
3 3 61 59
3 6 64 62
3 6 66 64
3 6 68 66
3 7 71 69
3 7 73 71
3 4 152 153
3 8 154 155
3 8 156 157
3 8 158 160
3 158 75 159
3 158 159 160
3 9 78 76
3 9 80 78
3 162 161 81
3 163 81 164
3 166 165 83
3 10 167 168
3 11 169 171
3 171 170 36
3 169 170 171
3 11 172 173
3 174 85 175
3 13 86 38
3 13 87 86
3 13 89 87
3 15 90 40
3 15 91 90
3 16 94 92
3 17 95 43
3 17 96 95
3 17 98 96
3 10 99 45
3 10 176 178
3 178 177 99
3 176 177 178
3 19 100 47
3 19 101 100
3 19 103 101
3 21 104 49
3 21 105 104
3 22 108 106
3 24 109 52
3 24 110 109
3 179 111 180
3 181 180 82
3 179 180 181
3 182 112 183
3 185 184 112
3 25 113 55
3 25 114 113
3 25 115 114
3 22 116 57
3 22 106 116
3 26 186 188
3 188 187 117
3 186 187 188
3 23 118 107
3 27 119 60
3 27 120 119
3 12 121 84
3 28 122 63
3 28 123 122
3 28 189 191
3 191 190 123
3 189 190 191
3 29 192 194
3 194 193 65
3 192 193 194
3 29 195 197
3 195 124 196
3 195 196 197
3 29 125 124
3 30 126 67
3 30 127 126
3 14 128 88
3 31 129 70
3 31 130 129
3 31 131 130
3 32 198 200
3 200 199 72
3 198 199 200
3 32 201 202
3 204 203 93
3 18 205 207
3 207 206 97
3 205 206 207
3 208 132 209
3 33 133 74
3 33 134 133
3 20 135 102
3 34 136 77
3 34 137 136
3 34 138 137
3 210 139 211
3 212 211 79
3 210 211 212
3 214 213 139
3 215 140 216
3 217 141 218
3 219 142 220
3 221 220 141
3 219 220 221
3 222 143 223
3 225 224 143
3 35 36 10
3 37 36 35
3 37 11 36
3 226 38 227
3 39 228 230
3 228 38 229
3 228 229 230
3 39 13 38
3 39 40 13
3 41 40 39
3 41 15 40
3 42 43 16
3 44 43 42
3 44 17 43
3 44 45 17
3 35 45 44
3 35 10 45
3 46 231 233
3 231 47 232
3 231 232 233
3 48 47 46
3 48 19 47
3 48 49 19
3 50 49 48
3 50 21 49
3 51 52 22
3 53 52 51
3 53 24 52
3 54 234 236
3 234 55 235
3 234 235 236
3 56 55 54
3 56 25 55
3 56 57 25
3 51 57 56
3 51 22 57
3 58 237 239
3 239 238 26
3 237 238 239
3 241 240 58
3 59 60 23
3 61 60 59
3 61 27 60
3 62 63 12
3 64 63 62
3 64 28 63
3 64 65 28
3 66 65 64
3 66 29 65
3 66 67 29
3 68 67 66
3 68 30 67
3 69 70 14
3 71 70 69
3 71 31 70
3 71 72 31
3 73 72 71
3 73 32 72
3 243 242 18
3 244 74 245
3 75 246 248
3 246 74 247
3 246 247 248
3 75 33 74
3 76 77 20
3 78 77 76
3 78 34 77
3 78 79 34
3 80 79 78
3 80 249 251
3 251 250 79
3 249 250 251
3 81 82 2
3 252 82 253
3 254 253 81
3 252 253 254
3 256 255 82
3 257 54 258
3 81 259 261
3 259 54 260
3 259 260 261
3 81 2 54
3 83 262 264
3 264 263 5
3 262 263 264
3 266 265 83
3 36 267 269
3 269 268 10
3 267 268 269
3 271 270 36
3 272 84 273
3 274 273 3
3 272 273 274
3 85 275 277
3 275 84 276
3 275 276 277
3 85 12 84
3 38 278 280
3 278 85 279
3 278 279 280
3 86 85 38
3 86 12 85
3 86 62 12
3 87 62 86
3 87 6 62
3 87 88 6
3 89 88 87
3 89 14 88
3 40 89 13
3 90 89 40
3 90 14 89
3 90 69 14
3 91 69 90
3 91 7 69
3 92 93 4
3 94 93 92
3 94 281 283
3 283 282 93
3 281 282 283
3 43 94 16
3 95 94 43
3 95 284 286
3 286 285 94
3 284 285 286
3 95 287 288
3 96 289 291
3 291 290 95
3 289 290 291
3 96 292 293
3 96 294 296
3 294 97 295
3 294 295 296
3 98 97 96
3 98 18 97
3 45 98 17
3 99 98 45
3 99 18 98
3 99 297 299
3 299 298 18
3 297 298 299
3 301 300 99
3 47 302 303
3 100 304 306
3 306 305 47
3 304 305 306
3 100 307 308
3 100 309 310
3 101 311 313
3 313 312 100
3 311 312 313
3 101 314 316
3 314 8 315
3 314 315 316
3 101 102 8
3 103 102 101
3 103 20 102
3 49 103 19
3 104 103 49
3 104 20 103
3 104 76 20
3 105 76 104
3 105 9 76
3 106 107 0
3 108 107 106
3 108 23 107
3 52 108 22
3 109 108 52
3 109 23 108
3 109 59 23
3 110 59 109
3 110 3 59
3 82 53 2
3 111 53 82
3 111 24 53
3 317 111 318
3 112 319 321
3 319 111 320
3 319 320 321
3 112 24 111
3 112 110 24
3 322 110 323
3 324 323 112
3 322 323 324
3 325 3 326
3 327 326 110
3 325 326 327
3 329 328 3
3 330 4 331
3 55 332 333
3 113 334 336
3 336 335 55
3 334 335 336
3 113 337 338
3 113 339 340
3 114 341 343
3 343 342 113
3 341 342 343
3 114 344 346
3 344 4 345
3 344 345 346
3 114 92 4
3 115 92 114
3 115 16 92
3 57 115 25
3 116 115 57
3 116 16 115
3 116 42 16
3 106 42 116
3 106 0 42
3 347 46 348
3 349 46 350
3 351 1 352
3 353 352 46
3 351 352 353
3 117 354 355
3 357 356 117
3 359 358 26
3 361 360 5
3 107 37 0
3 118 37 107
3 118 11 37
3 60 118 23
3 119 118 60
3 119 11 118
3 119 362 364
3 364 363 11
3 362 363 364
3 120 365 367
3 367 366 119
3 365 366 367
3 120 368 369
3 84 61 3
3 121 61 84
3 121 27 61
3 63 121 12
3 122 121 63
3 122 27 121
3 122 120 27
3 123 120 122
3 123 370 372
3 372 371 120
3 370 371 372
3 123 373 374
3 376 375 123
3 65 377 379
3 379 378 28
3 377 378 379
3 381 380 65
3 124 382 383
3 124 384 385
3 124 386 388
3 386 117 387
3 386 387 388
3 125 117 124
3 125 26 117
3 67 125 29
3 126 125 67
3 126 26 125
3 126 58 26
3 127 58 126
3 127 5 58
3 88 68 6
3 128 68 88
3 128 30 68
3 70 128 14
3 129 128 70
3 129 30 128
3 129 127 30
3 130 127 129
3 130 5 127
3 130 83 5
3 131 83 130
3 131 389 391
3 391 390 83
3 389 390 391
3 72 131 31
3 392 131 393
3 394 393 72
3 392 393 394
3 396 395 131
3 93 397 399
3 399 398 4
3 397 398 399
3 401 400 93
3 97 402 403
3 405 404 97
3 407 406 18
3 408 41 409
3 132 410 412
3 410 41 411
3 410 411 412
3 132 15 41
3 74 413 415
3 413 132 414
3 413 414 415
3 133 132 74
3 133 15 132
3 133 91 15
3 134 91 133
3 134 7 91
3 102 75 8
3 135 75 102
3 135 33 75
3 77 135 20
3 136 135 77
3 136 33 135
3 136 134 33
3 137 134 136
3 137 7 134
3 137 73 7
3 138 73 137
3 138 32 73
3 79 138 34
3 139 138 79
3 139 32 138
3 139 416 418
3 418 417 32
3 416 417 418
3 420 419 139
3 140 421 422
3 140 423 425
3 423 1 424
3 423 424 425
3 426 140 427
3 141 428 430
3 428 140 429
3 428 429 430
3 141 1 140
3 141 50 1
3 142 50 141
3 142 21 50
3 431 142 432
3 143 433 435
3 433 142 434
3 433 434 435
3 143 21 142
3 143 105 21
3 436 105 437
3 438 437 143
3 436 437 438
3 439 9 440
3 441 440 105
3 439 440 441
3 442 9 443
3 444 80 445
3 446 445 9
3 444 445 446
3 447 80 448
3 450 449 80
