ply
format ascii 1.0
element vertex 403
property float x
property float y
property float z
element face 450
property list uchar int vertex_index
end_header
3.590025 -52.441551 72.396652
4.827971 -46.932961 53.494423
3.38047 -41.620026 68.261215
4.698549 -34.067749 51.210289
1.590399 -43.936737 47.391239
0.016348 -29.78319 46.657738
2.373075 -59.354347 65.54631
5.43852 -49.703064 62.152931
6.019957 -38.019035 58.297752
4.010357 -26.638889 50.960297
2.487127 -31.955694 48.85424
3.435705 -56.015579 68.990715
4.102388 -54.675198 64.167747
4.671547 -51.051052 67.229904
2.645782 -35.345467 66.642044
4.985376 -39.847824 63.055847
4.387995 -33.289349 61.725357
5.478487 -31.161673 57.339058
2.628468 -53.844887 77.358864
2.645437 -57.468365 73.69693
4.07704 -52.323246 55.226311
3.324001 -51.169178 51.459854
2.490606 -48.757187 75.711609
3.816372 -47.249786 70.375893
5.019217 -40.856728 52.07991
3.409195 -45.444855 50.229843
3.088934 -39.053322 49.341743
0.801565 -37.216389 46.937435
2.763222 -58.081535 61.21627
4.353294 -53.465591 59.499626
5.541294 -48.349174 57.483086
5.172564 -45.732811 65.051636
6.073835 -44.193687 60.022057
6.083179 -42.577122 55.615578
5.981609 -36.094109 54.291222
5.396347 -28.944668 53.726494
3.582405 -22.739752 51.035614
2.937452 -25.450813 49.816277
3.665129 -54.251228 70.703911
4.132284 -53.560764 68.198181
4.143803 -51.740288 69.820648
2.27253 -31.937986 66.130173
3.559628 -34.324211 64.133041
3.192137 -30.854053 63.703255
4.021627 -29.754566 61.384621
2.832621 -27.215454 63.490662
3.066183 -53.147984 74.922157
2.765162 -55.671124 75.556633
3.190886 -54.958607 73.168961
3.03182 -56.732815 71.375824
4.519255 -49.708843 54.338844
3.752943 -51.750427 53.281464
4.03459 -49.05312 52.500801
1.570671 -46.89933 77.344696
2.175428 -46.119659 74.687386
1.975117 -49.481388 78.295975
4.91507 -37.549416 51.56797
4.135246 -39.962757 50.632713
3.946428 -36.578663 50.236572
1.237356 -30.874313 47.776615
1.604874 -34.591335 47.921722
0.402842 -33.586304 46.778717
2.599062 -58.674911 63.375656
4.846445 -52.2435 63.209259
4.29122 -54.056526 61.797897
5.01354 -51.609592 60.80127
5.018871 -50.981628 58.500877
5.588375 -49.031006 59.747063
3.661053 -44.505241 69.28907
4.520149 -46.491245 67.695763
4.435835 -43.690147 66.613441
5.609753 -38.943581 60.601807
5.734022 -42.040482 61.471085
6.122597 -41.19294 59.080956
6.20978 -43.397915 57.720779
6.258703 -40.321823 56.867203
6.105011 -39.423912 54.866486
6.156466 -37.069767 56.183403
5.098274 -27.497847 57.182602
5.60458 -30.064388 55.424484
5.210602 -26.339207 55.352661
4.987148 -25.160757 53.725662
2.10388 -60.106518 67.711723
2.526873 -44.688065 48.786644
2.714294 -47.710819 49.225143
4.38982 -30.424147 51.010788
3.671904 -33.021282 49.971573
3.32955 -29.304409 49.835648
2.119722 -28.162817 48.757271
0.859608 -27.001698 47.693657
2.971148 -57.719265 67.266884
3.256433 -57.032352 64.964951
3.806637 -55.327969 66.576622
4.540941 -52.891945 65.687622
5.119438 -50.373734 64.660942
3.026581 -38.57135 67.361961
4.218014 -40.738014 65.620598
3.912252 -37.618752 64.779419
4.719353 -36.655067 62.2873
5.371698 -35.674786 59.918755
5.795219 -34.673012 57.710602
5.052738 -32.236256 59.449631
4.682142 -28.636314 59.201576
2.331444 -54.510254 79.662094
2.444996 -56.36977 77.82666
2.308157 -59.219604 71.789818
2.641182 -58.453033 69.552353
3.523022 -54.791183 56.117722
3.355558 -54.30175 54.096169
3.107674 -53.812035 52.166939
3.188578 -50.605412 74.064911
3.800932 -49.883743 71.439941
3.121357 -48.007835 73.058914
2.888775 -45.316986 71.990646
2.539742 -42.496468 70.947357
1.995312 -52.637508 81.410866
2.234669 -52.004501 79.096642
2.648886 -51.31868 76.631004
4.993906 -43.984337 52.730507
4.190645 -46.19598 51.7827
4.221361 -43.168087 51.152985
3.29261 -42.337105 49.737732
2.265678 -41.499634 48.423782
2.81506 -35.590996 49.047142
1.95224 -38.135201 48.136154
2.859396 -57.572304 59.079185
3.466658 -56.400501 62.675102
3.583834 -55.823765 60.422775
3.601694 -55.292759 58.230637
4.28087 -52.891792 57.301971
4.852732 -50.350502 56.339928
5.285746 -47.65094 55.39315
4.430498 -49.164783 68.791939
5.019835 -48.451725 66.155403
5.511156 -47.741318 63.567062
5.14954 -42.870476 63.995468
5.71076 -44.969509 62.480057
5.849798 -47.026375 61.067451
5.989428 -46.298615 58.699409
5.89801 -45.551071 56.503319
5.562981 -44.779751 54.509659
5.681629 -41.729553 53.733421
5.650644 -38.499046 53.100708
5.487234 -35.092785 52.636795
5.929108 -33.646965 55.698738
5.736694 -32.596169 53.910118
5.213333 -31.521553 52.35331
4.852972 -27.80299 52.246521
4.430984 -23.961786 52.296486
3.423311 -48.38485 50.808456
2.806231 -50.582161 49.737244
3.048411 -22.115396 50.462387
3.355874 -20.749734 51.117569
2.560489 -29.603643 64.768227
2.732334 -31.39602 64.916714
2.100685 -30.145609 65.981686
2.380731 -27.784343 64.66193
3.012379 -29.034754 63.596958
2.560489 -29.603643 64.768227
1.320717 -45.555364 76.841461
1.052262 -45.959473 78.158203
1.052262 -45.959473 78.158203
1.344974 -47.266834 78.632049
-0.347969 -31.184193 46.103632
-0.154722 -33.085751 46.164122
0.209595 -31.684747 46.718227
2.486069 -59.014629 64.460983
2.175663 -59.796165 63.611614
2.06267 -60.135883 64.696941
4.945693 -25.020035 56.286735
5.154438 -26.918527 56.267632
4.889529 -25.599355 57.201706
4.992205 -24.417106 55.404457
4.945693 -25.020035 56.286735
1.946366 -60.51938 65.707928
1.811769 -60.895466 66.790634
2.238478 -59.730432 66.629017
2.06267 -60.135883 64.696941
1.946366 -60.51938 65.707928
1.764055 -45.489491 47.54608
2.232293 -45.865155 48.243782
2.058636 -44.312401 48.088942
1.923131 -26.200268 48.749909
2.528587 -26.806815 49.286774
2.331996 -24.844266 49.279411
1.293074 -25.619709 48.218102
1.489665 -27.582258 48.225464
1.923131 -26.200268 48.749909
4.16322 -27.348895 60.230301
4.351884 -29.19544 60.293098
3.832963 -27.908021 61.321824
4.483658 -26.763101 59.181458
4.16322 -27.348895 60.230301
2.488802 -57.836483 74.806896
2.548665 -56.937862 75.736748
2.705299 -56.569744 74.626781
2.333878 -58.734226 73.820949
2.488802 -57.836483 74.806896
2.476797 -58.343984 72.743374
2.165239 -59.609846 72.867393
2.333878 -58.734226 73.820949
3.054417 -52.243545 50.88874
2.946253 -53.564974 51.242283
3.215838 -52.490606 51.813396
2.321172 -44.340479 72.820458
2.532102 -45.718322 73.339016
1.964498 -44.741816 74.168827
2.146656 -42.93022 72.298813
2.714258 -43.906727 71.469001
2.321172 -44.340479 72.820458
1.808694 -51.39718 81.087834
1.734997 -51.696523 82.234917
1.928373 -51.080677 79.930722
2.11499 -52.321005 80.253754
1.808694 -51.39718 81.087834
1.002381 -38.940899 47.038424
1.577719 -39.400305 47.637783
1.376902 -37.675795 47.536794
0.484136 -38.530756 46.376909
1.002381 -38.940899 47.038424
2.435003 -58.912886 60.50967
2.357144 -59.172782 61.52193
2.811309 -57.82692 60.147728
2.48309 -58.65827 59.441128
2.435003 -58.912886 60.50967
4.483228 -22.616798 53.085888
4.709066 -24.561272 53.011074
4.761311 -23.216283 53.800476
4.20183 -21.995109 52.381923
4.483228 -22.616798 53.085888
2.51019 -50.290413 48.906906
2.760263 -49.14649 49.481194
2.464221 -48.854742 48.650856
2.597167 -51.703195 49.13073
2.51019 -50.290413 48.906906
2.725934 -23.470927 49.852718
3.259929 -24.095282 50.425945
3.048411 -22.115396 50.462387
2.331996 -24.844266 49.279411
2.725934 -23.470927 49.852718
3.23846 -26.638465 62.374844
3.832963 -27.908021 61.321824
3.427124 -28.48501 62.437641
1.623096 -45.165529 75.512806
1.87305 -46.509495 76.016041
1.320717 -45.555364 76.841461
1.964498 -44.741816 74.168827
1.623096 -45.165529 75.512806
1.547197 -48.557863 79.107689
1.798596 -49.81912 79.530388
1.772894 -48.190359 77.820335
1.547197 -48.557863 79.107689
1.344974 -47.266834 78.632049
0.056044 -34.946343 46.227001
0.255405 -36.761385 46.30636
0.602204 -35.401347 46.858076
0.056044 -34.946343 46.227001
-0.154722 -33.085751 46.164122
2.275065 -59.46947 62.601624
2.175663 -59.796165 63.611614
2.681142 -58.378223 62.295963
2.357144 -59.172782 61.52193
2.275065 -59.46947 62.601624
4.880479 -23.827881 54.590958
5.098875 -25.749982 54.539161
4.992205 -24.417106 55.404457
4.761311 -23.216283 53.800476
4.880479 -23.827881 54.590958
1.689812 -61.318483 67.797413
1.963331 -60.508533 68.779625
1.689812 -61.318483 67.797413
1.811769 -60.895466 66.790634
2.326003 -47.376531 48.463031
2.620584 -46.199442 49.005893
2.232293 -45.865155 48.243782
2.464221 -48.854742 48.650856
2.326003 -47.376531 48.463031
4.691724 -26.193868 58.171971
4.890208 -28.06708 58.192089
4.483658 -26.763101 59.181458
4.889529 -25.599355 57.201706
4.691724 -26.193868 58.171971
2.308496 -55.769749 79.797264
2.278485 -54.813544 80.720207
2.365272 -56.699506 78.879547
2.308496 -55.769749 79.797264
2.38822 -55.440012 78.744377
2.296959 -57.643774 77.910443
2.365272 -56.699506 78.879547
2.388581 -57.287185 76.871761
2.605079 -56.020447 76.691647
2.548665 -56.937862 75.736748
2.296959 -57.643774 77.910443
2.388581 -57.287185 76.871761
1.940065 -60.481128 71.856586
2.165239 -59.609846 72.867393
2.065469 -60.065077 70.818672
1.940065 -60.481128 71.856586
2.231981 -59.681791 69.69994
2.065469 -60.065077 70.818672
2.47467 -58.836318 70.671086
2.372531 -59.279775 68.632038
1.963331 -60.508533 68.779625
2.231981 -59.681791 69.69994
3.192989 -55.756237 55.517055
3.206792 -55.959637 56.546486
3.109256 -55.511521 54.506279
3.192989 -55.756237 55.517055
3.43929 -54.546466 55.106946
3.067935 -55.314729 53.503487
3.109256 -55.511521 54.506279
2.943993 -55.069872 52.538872
3.067935 -55.314729 53.503487
3.231616 -54.056893 53.131554
2.873984 -54.872712 51.562317
2.943993 -55.069872 52.538872
2.873984 -54.872712 51.562317
2.946253 -53.564974 51.242283
1.357294 -45.164825 46.786738
1.118673 -43.569992 46.686197
1.913561 -41.474801 71.815994
2.146656 -42.93022 72.298813
2.335882 -41.006476 70.476711
1.913561 -41.474801 71.815994
2.756246 -40.568255 69.13364
2.960106 -42.058247 69.604286
2.335882 -41.006476 70.476711
2.579302 -39.043917 68.684013
3.203526 -40.095688 67.811588
2.756246 -40.568255 69.13364
2.372153 -37.464306 68.293617
2.579302 -39.043917 68.684013
2.181753 -35.851365 67.933659
2.836182 -36.958409 67.002003
2.372153 -37.464306 68.293617
1.990204 -34.177906 67.641338
2.181753 -35.851365 67.933659
1.803578 -32.474165 67.385403
2.459156 -33.641726 66.386109
1.990204 -34.177906 67.641338
1.638578 -30.707905 67.197533
1.803578 -32.474165 67.385403
2.100685 -30.145609 65.981686
1.638578 -30.707905 67.197533
1.985059 -52.913282 82.461349
1.734997 -51.696523 82.234917
2.110419 -53.87717 81.594593
1.985059 -52.913282 82.461349
2.163378 -53.573881 80.53648
2.278485 -54.813544 80.720207
2.110419 -53.87717 81.594593
2.104893 -50.742945 78.696309
1.928373 -51.080677 79.930722
1.798596 -49.81912 79.530388
1.734437 -41.082521 47.781597
2.108959 -39.817418 48.279968
1.577719 -39.400305 47.637783
1.396798 -42.301073 47.265326
1.928038 -42.718186 47.907511
1.734437 -41.082521 47.781597
1.118673 -43.569992 46.686197
1.396798 -42.301073 47.265326
0.484136 -38.530756 46.376909
0.255405 -36.761385 46.30636
2.54092 -58.457859 58.421989
2.48309 -58.65827 59.441128
2.874979 -57.350197 58.027218
2.54092 -58.457859 58.421989
3.246128 -56.210425 57.602944
2.874979 -57.350197 58.027218
3.230545 -56.432531 58.654911
3.562358 -55.041971 57.17418
3.206792 -55.959637 56.546486
3.246128 -56.210425 57.602944
3.777541 -21.384092 51.751487
4.006695 -23.350769 51.66605
4.20183 -21.995109 52.381923
3.355874 -20.749734 51.117569
3.777541 -21.384092 51.751487
2.229999 -25.909413 64.614674
2.380731 -27.784343 64.66193
2.664865 -25.319208 63.483742
2.229999 -25.909413 64.614674
3.23846 -26.638465 62.374844
2.664865 -25.319208 63.483742
2.795532 -51.950037 50.027435
3.054417 -52.243545 50.88874
3.065116 -50.87567 50.598549
2.795532 -51.950037 50.027435
2.597167 -51.703195 49.13073
1.764055 -45.489491 47.54608
1.357294 -45.164825 46.786738
0.669763 -25.001669 47.67677
1.293074 -25.619709 48.218102
0.252766 -26.414589 47.130741
0.669763 -25.001669 47.67677
-0.168864 -27.805335 46.612781
0.437978 -28.392444 47.175697
0.252766 -26.414589 47.130741
-0.539419 -29.237862 46.045845
-0.168864 -27.805335 46.612781
-0.347969 -31.184193 46.103632
-0.539419 -29.237862 46.045845
3 152 151 36
3 0 40 38
3 153 43 154
3 155 154 41
3 153 154 155
3 156 45 157
3 158 157 43
3 156 157 158
3 0 48 46
3 0 38 48
3 1 52 50
3 160 159 53
3 161 53 162
3 3 58 56
3 5 61 59
3 5 163 165
3 165 164 61
3 163 164 165
3 6 166 168
3 166 62 167
3 166 167 168
3 7 65 63
3 7 67 65
3 2 70 68
3 8 73 71
3 8 75 73
3 8 77 75
3 169 80 170
3 171 170 78
3 169 170 171
3 173 172 80
3 6 174 176
3 176 175 82
3 174 175 176
3 6 177 178
3 4 179 181
3 181 180 83
3 179 180 181
3 9 87 85
3 182 88 183
3 184 183 37
3 182 183 184
3 185 89 186
3 187 186 88
3 185 186 187
3 11 92 90
3 13 93 39
3 13 94 93
3 14 97 95
3 16 98 42
3 16 99 98
3 16 101 99
3 188 102 189
3 190 189 44
3 188 189 190
3 192 191 102
3 18 104 103
3 19 193 195
3 195 194 47
3 193 194 195
3 19 196 197
3 19 198 200
3 198 105 199
3 198 199 200
3 11 106 49
3 11 90 106
3 20 108 107
3 21 109 51
3 21 201 203
3 203 202 109
3 201 202 203
3 22 112 110
3 204 113 205
3 206 205 54
3 204 205 206
3 207 114 208
3 209 208 113
3 207 208 209
3 210 115 211
3 212 116 213
3 214 213 115
3 212 213 214
3 22 117 55
3 22 110 117
3 24 120 118
3 26 121 57
3 26 122 121
3 10 123 86
3 27 124 60
3 27 215 217
3 217 216 124
3 215 216 217
3 27 218 219
3 28 220 221
3 28 222 224
3 222 125 223
3 222 223 224
3 12 126 91
3 29 127 64
3 29 128 127
3 29 129 128
3 30 130 66
3 30 131 130
3 23 132 111
3 31 133 69
3 31 134 133
3 15 135 96
3 32 136 72
3 32 137 136
3 32 138 137
3 33 139 74
3 33 140 139
3 33 141 140
3 34 142 76
3 34 143 142
3 17 144 100
3 35 145 79
3 35 146 145
3 35 147 146
3 225 148 226
3 227 226 81
3 225 226 227
3 229 228 148
3 25 149 119
3 230 150 231
3 232 231 84
3 230 231 232
3 234 233 150
3 36 37 9
3 235 37 236
3 237 236 36
3 235 236 237
3 239 238 37
3 38 39 11
3 40 39 38
3 40 13 39
3 41 42 14
3 43 42 41
3 43 16 42
3 43 44 16
3 45 44 43
3 45 240 242
3 242 241 44
3 240 241 242
3 46 47 18
3 48 47 46
3 48 19 47
3 48 49 19
3 38 49 48
3 38 11 49
3 50 51 20
3 52 51 50
3 52 21 51
3 53 54 22
3 243 54 244
3 245 244 53
3 243 244 245
3 247 246 54
3 248 55 249
3 53 250 252
3 250 55 251
3 250 251 252
3 53 22 55
3 56 57 24
3 58 57 56
3 58 26 57
3 59 60 10
3 61 60 59
3 61 27 60
3 61 253 255
3 255 254 27
3 253 254 255
3 257 256 61
3 62 258 259
3 62 260 262
3 260 28 261
3 260 261 262
3 63 64 12
3 65 64 63
3 65 29 64
3 65 66 29
3 67 66 65
3 67 30 66
3 68 69 23
3 70 69 68
3 70 31 69
3 71 72 15
3 73 72 71
3 73 32 72
3 73 74 32
3 75 74 73
3 75 33 74
3 75 76 33
3 77 76 75
3 77 34 76
3 78 79 17
3 80 79 78
3 80 35 79
3 80 81 35
3 263 81 264
3 265 264 80
3 263 264 265
3 267 266 81
3 82 268 269
3 271 270 82
3 83 84 25
3 272 84 273
3 274 273 83
3 272 273 274
3 276 275 84
3 85 86 3
3 87 86 85
3 87 10 86
3 37 87 9
3 88 87 37
3 88 10 87
3 88 59 10
3 89 59 88
3 89 5 59
3 90 91 6
3 92 91 90
3 92 12 91
3 39 92 11
3 93 92 39
3 93 12 92
3 93 63 12
3 94 63 93
3 94 7 63
3 95 96 2
3 97 96 95
3 97 15 96
3 42 97 14
3 98 97 42
3 98 15 97
3 98 71 15
3 99 71 98
3 99 8 71
3 99 100 8
3 101 100 99
3 101 17 100
3 44 101 16
3 102 101 44
3 102 17 101
3 102 78 17
3 277 78 278
3 279 278 102
3 277 278 279
3 281 280 78
3 103 282 283
3 104 284 286
3 286 285 103
3 284 285 286
3 104 287 288
3 47 104 18
3 289 104 290
3 291 290 47
3 289 290 291
3 293 292 104
3 105 294 295
3 105 296 297
3 49 105 19
3 106 105 49
3 106 298 300
3 300 299 105
3 298 299 300
3 106 301 303
3 301 82 302
3 301 302 303
3 90 82 106
3 90 6 82
3 107 304 305
3 108 306 308
3 308 307 107
3 306 307 308
3 108 309 310
3 51 108 20
3 109 108 51
3 109 311 313
3 313 312 108
3 311 312 313
3 109 314 315
3 317 316 109
3 319 318 4
3 110 111 0
3 112 111 110
3 112 23 111
3 54 112 22
3 113 112 54
3 113 23 112
3 113 68 23
3 114 68 113
3 114 2 68
3 320 114 321
3 322 114 323
3 324 2 325
3 326 325 114
3 324 325 326
3 327 95 328
3 329 328 2
3 327 328 329
3 330 95 331
3 332 14 333
3 334 333 95
3 332 333 334
3 335 14 336
3 337 41 338
3 339 338 14
3 337 338 339
3 340 41 341
3 343 342 41
3 115 344 345
3 115 346 347
3 115 348 350
3 348 103 349
3 348 349 350
3 116 103 115
3 116 18 103
3 55 351 353
3 351 116 352
3 351 352 353
3 117 116 55
3 117 18 116
3 117 46 18
3 110 46 117
3 110 0 46
3 118 119 1
3 120 119 118
3 120 25 119
3 57 120 24
3 121 120 57
3 121 25 120
3 121 83 25
3 122 83 121
3 122 4 83
3 86 58 3
3 123 58 86
3 123 26 58
3 60 123 10
3 124 123 60
3 124 26 123
3 124 122 26
3 354 122 355
3 356 355 124
3 354 355 356
3 357 4 358
3 359 358 122
3 357 358 359
3 361 360 4
3 363 362 27
3 125 364 365
3 125 366 367
3 91 62 6
3 126 62 91
3 126 28 62
3 64 126 12
3 127 126 64
3 127 28 126
3 127 125 28
3 128 125 127
3 128 368 370
3 370 369 125
3 368 369 370
3 128 371 373
3 371 107 372
3 371 372 373
3 129 107 128
3 129 20 107
3 66 129 29
3 130 129 66
3 130 20 129
3 130 50 20
3 131 50 130
3 131 1 50
3 111 40 0
3 132 40 111
3 132 13 40
3 69 132 23
3 133 132 69
3 133 13 132
3 133 94 13
3 134 94 133
3 134 7 94
3 96 70 2
3 135 70 96
3 135 31 70
3 72 135 15
3 136 135 72
3 136 31 135
3 136 134 31
3 137 134 136
3 137 7 134
3 137 67 7
3 138 67 137
3 138 30 67
3 74 138 32
3 139 138 74
3 139 30 138
3 139 131 30
3 140 131 139
3 140 1 131
3 140 118 1
3 141 118 140
3 141 24 118
3 76 141 33
3 142 141 76
3 142 24 141
3 142 56 24
3 143 56 142
3 143 3 56
3 100 77 8
3 144 77 100
3 144 34 77
3 79 144 17
3 145 144 79
3 145 34 144
3 145 143 34
3 146 143 145
3 146 3 143
3 146 85 3
3 147 85 146
3 147 9 85
3 81 147 35
3 148 147 81
3 148 9 147
3 148 36 9
3 374 36 375
3 376 375 148
3 374 375 376
3 378 377 36
3 379 45 380
3 381 45 382
3 384 383 45
3 119 52 1
3 149 52 119
3 149 21 52
3 84 149 25
3 150 149 84
3 150 21 149
3 150 385 387
3 387 386 21
3 385 386 387
3 389 388 150
3 391 390 4
3 392 89 393
3 394 89 395
3 396 5 397
3 398 397 89
3 396 397 398
3 399 5 400
3 402 401 5
